.align 2

.global track_293

track_293_0:
	.byte KEYSH, 0
	.byte TEMPO, 75
	.byte PAN, c_v
track_293_lbl_27fd0a:
	.byte W13
	.byte VOICE, 53
	.byte VOL, 12
	.byte W01
	.byte N01, Gn4, v040
	.byte W02
	.byte Fn5 @ N01, v040
	.byte W02
	.byte Gn4 @ N01, v040
	.byte W02
	.byte Fn5 @ N01, v040
	.byte W02
	.byte Gn4 @ N01, v040
	.byte W02
	.byte Fn5 @ N01, v040
	.byte W02
	.byte Gn4 @ N01, v040
	.byte W01
	.byte Fn5 @ N01, v040
	.byte W02
	.byte Gn4 @ N01, v040
	.byte W02
	.byte Fn5 @ N01, v040
	.byte W02
	.byte Gn4 @ N01, v040
	.byte W02
	.byte Fn5 @ N01, v040
	.byte W02
	.byte Gn4 @ N01, v040
	.byte W02
	.byte Fn5 @ N01, v040
	.byte W02
	.byte Gn4 @ N01, v040
	.byte W01
	.byte Fn5 @ N01, v040
	.byte W02
	.byte Gn4 @ N01, v040
	.byte W02
	.byte Fn5 @ N01, v040
	.byte W02
	.byte Gn4 @ N01, v040
	.byte W02
	.byte Fn5 @ N01, v040
	.byte W02
	.byte Gn4 @ N01, v040
	.byte W02
	.byte Fn5 @ N01, v040
	.byte W02
	.byte Gn4 @ N01, v040
	.byte W01
	.byte Fn5 @ N01, v040
	.byte W02
	.byte Gn4 @ N01, v040
	.byte W01
	.byte VOICE, 50
	.byte N01, En4, v080
	.byte W01
	.byte Gn4 @ N01, v080
	.byte W32
	.byte W03
	.byte W84
	.byte W02
	.byte VOICE, 53
	.byte N01, Gn4, v040
	.byte W02
	.byte Fn5 @ N01, v040
	.byte W02
	.byte Gn4 @ N01, v040
	.byte W02
	.byte Fn5 @ N01, v040
	.byte W02
	.byte Gn4 @ N01, v040
	.byte W02
	.byte Fn5 @ N01, v040
	.byte W02
	.byte Gn4 @ N01, v040
	.byte W01
	.byte Fn5 @ N01, v040
	.byte W02
	.byte Gn4 @ N01, v040
	.byte W02
	.byte Fn5 @ N01, v040
	.byte W02
	.byte Gn4 @ N01, v040
	.byte W02
	.byte Fn5 @ N01, v040
	.byte W02
	.byte Gn4 @ N01, v040
	.byte W02
	.byte Fn5 @ N01, v040
	.byte W02
	.byte Gn4 @ N01, v040
	.byte W01
	.byte Fn5 @ N01, v040
	.byte W02
	.byte Gn4 @ N01, v040
	.byte W02
	.byte Fn5 @ N01, v040
	.byte W02
	.byte Gn4 @ N01, v040
	.byte W02
	.byte Fn5 @ N01, v040
	.byte W02
	.byte Gn4 @ N01, v040
	.byte W02
	.byte Fn5 @ N01, v040
	.byte W02
	.byte Gn4 @ N01, v040
	.byte W01
	.byte Fn5 @ N01, v040
	.byte W02
	.byte Gn4 @ N01, v040
	.byte W02
	.byte Fn5 @ N01, v040
	.byte W02
	.byte Gn4 @ N01, v040
	.byte W02
	.byte Fn5 @ N01, v040
	.byte W02
	.byte Gn4 @ N01, v040
	.byte W02
	.byte Fn5 @ N01, v040
	.byte W02
	.byte Gn4 @ N01, v040
	.byte W01
	.byte Fn5 @ N01, v040
	.byte W02
	.byte Gn4 @ N01, v040
	.byte W02
	.byte Fn5 @ N01, v040
	.byte W02
	.byte Gn4 @ N01, v040
	.byte W02
	.byte Fn5 @ N01, v040
	.byte W02
	.byte Gn4 @ N01, v040
	.byte W02
	.byte Fn5 @ N01, v040
	.byte W02
	.byte Gn4 @ N01, v040
	.byte W01
	.byte Fn5 @ N01, v040
	.byte W02
	.byte Gn4 @ N01, v040
	.byte W02
	.byte Fn5 @ N01, v040
	.byte W02
	.byte Gn4 @ N01, v040
	.byte W01
	.byte Fn5 @ N01, v040
	.byte W02
	.byte Gn4 @ N01, v040
	.byte W02
	.byte Fn5 @ N01, v040
	.byte W02
	.byte Gn4 @ N01, v040
	.byte W02
	.byte Fn5 @ N01, v040
	.byte W02
	.byte Gn4 @ N01, v040
	.byte W02
	.byte Fn5 @ N01, v040
	.byte W02
	.byte Gn4 @ N01, v040
	.byte W01
	.byte Fn5 @ N01, v040
	.byte W02
	.byte Gn4 @ N01, v040
	.byte W02
	.byte Fn5 @ N01, v040
	.byte W02
	.byte Gn4 @ N01, v040
	.byte W02
	.byte Fn5 @ N01, v040
	.byte W02
	.byte Gn4 @ N01, v040
	.byte W01
	.byte W01
	.byte Fn5 @ N01, v040
	.byte W02
	.byte Gn4 @ N01, v040
	.byte W01
	.byte VOICE, 50
	.byte N01, Dn4, v080
	.byte W01
	.byte Gn4 @ N01, v080
	.byte W20
	.byte VOICE, 50
	.byte VOL, 30
	.byte W01
	.byte N04, Cn3 @ v080
	.byte W04
	.byte N04 @ Cn3, v080
	.byte W04
	.byte En3, v100 @ N04
	.byte W04
	.byte Fs3, v127 @ N04
	.byte W04
	.byte N04 @ Fs3, v127
	.byte W09
	.byte VOL, 15
	.byte W01
	.byte N04 @ Fs3, v127
	.byte W04
	.byte Cn3 @ N04, v127
	.byte W04
	.byte Cn3, v100 @ N04
	.byte W04
	.byte Cn3, v080 @ N04
	.byte W04
	.byte An2 @ N04, v080
	.byte W28
	.byte GOTO
		.word track_293_lbl_27fd0a
	.byte FINE

track_293_1:
	.byte KEYSH, 0
	.byte VOICE, 50
	.byte VOL, 15
	.byte PAN, c_v
track_293_lbl_27fe01:
	.byte W15
	.byte N04, Cn3, v080
	.byte W05
	.byte Dn3, v100 @ N04
	.byte W04
	.byte En3, v127 @ N04
	.byte W24
	.byte Dn3, v080 @ N04
	.byte W04
	.byte Cn3, v100 @ N04
	.byte W04
	.byte En3, v127 @ N04
	.byte W40
	.byte W96
	.byte W96
	.byte W96
	.byte GOTO
		.word track_293_lbl_27fe01
	.byte FINE

track_293_2:
	.byte KEYSH, 0
	.byte VOICE, 51
	.byte VOL, 51
	.byte PAN, c_v
track_293_lbl_27fe26:
	.byte W96
	.byte W30
	.byte W01
	.byte N23, Cn3, v100
	.byte W48
	.byte W01
	.byte Cn3, v080 @ N23
	.byte W16
	.byte W96
	.byte W96
	.byte GOTO
		.word track_293_lbl_27fe26
	.byte FINE

.align 2

track_293:
	.byte 3
	.byte 0
	.byte 255
	.byte 0
	.word 0x80a71ec
	.word track_293_0
	.word track_293_1
	.word track_293_2

.align 2
