.align 2

.global track_496

track_496_0:
	.byte KEYSH, 0
	.byte TEMPO, 75
	.byte VOICE, 17
	.byte VOL, 14
	.byte PAN, c_v
	.byte W24
	.byte N01, An3, v052
	.byte W02
	.byte VOICE, 18
	.byte N03 @ An3, v052
	.byte W06
	.byte VOICE, 17
	.byte N01, Bn3 @ v052
	.byte W02
	.byte N01 @ Bn3, v052
	.byte W02
	.byte VOICE, 18
	.byte N03 @ Bn3, v052
	.byte W06
	.byte Gn3 @ N03, v052
	.byte W06
	.byte Bn3 @ N03, v052
	.byte W04
	.byte N03 @ Bn3, v052
	.byte W04
	.byte N03 @ Bn3, v052
	.byte W06
	.byte Dn3 @ N03, v052
	.byte W04
	.byte VOICE, 17
	.byte N01 @ Dn3, v052
	.byte W02
	.byte N01 @ Dn3, v052
	.byte W04
	.byte Bn3 @ N01, v052
	.byte W02
	.byte N01 @ Bn3, v052
	.byte W04
	.byte VOICE, 18
	.byte N03, Gn3 @ v052
	.byte W04
	.byte VOICE, 17
	.byte N01 @ Gn3, v052
	.byte W04
	.byte En3 @ N01, v052
	.byte W10
	.byte Bn3 @ N01, v052
	.byte W02
	.byte VOICE, 18
	.byte N03 @ Bn3, v052
	.byte W04
	.byte VOICE, 17
	.byte N01 @ Bn3, v052
	.byte W04
	.byte En3 @ N01, v052
	.byte W04
	.byte VOICE, 18
	.byte N03, Cn3 @ v052
	.byte W04
	.byte VOICE, 17
	.byte N01 @ Cn3, v052
	.byte W02
	.byte VOICE, 18
	.byte N03 @ Cn3, v052
	.byte W04
	.byte VOICE, 17
	.byte N01 @ Cn3, v052
	.byte W04
	.byte En3 @ N01, v052
	.byte W04
	.byte Bn3 @ N01, v052
	.byte W02
	.byte VOICE, 18
	.byte N03 @ Bn3, v052
	.byte W04
	.byte N03 @ Bn3, v052
	.byte W04
	.byte VOICE, 17
	.byte N01 @ Bn3, v052
	.byte W04
	.byte VOICE, 18
	.byte N03, Gn3 @ v052
	.byte W06
	.byte VOICE, 17
	.byte N01, Bn3 @ v052
	.byte W02
	.byte N01 @ Bn3, v052
	.byte W04
	.byte VOICE, 18
	.byte N03, Gn3 @ v052
	.byte W04
	.byte N03 @ Gn3, v052
	.byte W04
	.byte N03 @ Gn3, v052
	.byte W06
	.byte Bn3 @ N03, v052
	.byte W04
	.byte VOICE, 17
	.byte N01 @ Bn3, v052
	.byte W08
	.byte VOICE, 18
	.byte N03, Gn3 @ v052
	.byte W04
	.byte VOICE, 17
	.byte N01 @ Gn3, v052
	.byte W04
	.byte En3 @ N01, v052
	.byte W04
	.byte W06
	.byte Bn3 @ N01, v052
	.byte W02
	.byte VOICE, 18
	.byte N03 @ Bn3, v052
	.byte W04
	.byte VOICE, 17
	.byte N01 @ Bn3, v052
	.byte W04
	.byte En3 @ N01, v052
	.byte W04
	.byte VOICE, 18
	.byte N03, Cn3 @ v052
	.byte W04
	.byte VOICE, 17
	.byte N01 @ Cn3, v052
	.byte W02
	.byte VOICE, 18
	.byte N03, An3 @ v052
	.byte W06
	.byte VOICE, 17
	.byte N01, Bn3 @ v052
	.byte W02
	.byte N01 @ Bn3, v052
	.byte W02
	.byte VOICE, 18
	.byte N03 @ Bn3, v052
	.byte W06
	.byte Gn3 @ N03, v052
	.byte W06
	.byte Bn3 @ N03, v052
	.byte W04
	.byte N03 @ Bn3, v052
	.byte W12
	.byte VOICE, 17
	.byte N01 @ Bn3, v052
	.byte W04
	.byte En3 @ N01, v052
	.byte W04
	.byte VOICE, 18
	.byte N03, Cn3 @ v052
	.byte W04
	.byte VOICE, 17
	.byte N01 @ Cn3, v052
	.byte W02
	.byte VOICE, 18
	.byte N03 @ Cn3, v052
	.byte W04
	.byte VOICE, 17
	.byte N01 @ Cn3, v052
	.byte W04
	.byte En3 @ N01, v052
	.byte W04
	.byte Bn3 @ N01, v052
	.byte W02
	.byte VOICE, 18
	.byte N03, Cn3 @ v052
	.byte W04
	.byte VOICE, 17
	.byte N01 @ Cn3, v052
	.byte W04
	.byte En3 @ N01, v052
	.byte W04
	.byte Bn3 @ N01, v052
	.byte W01
	.byte FINE

.align 2

track_496:
	.byte 1
	.byte 0
	.byte 251
	.byte 0
	.word 0x80a7798
	.word track_496_0

.align 2
