.align 2

.global track_65

track_65_0:
	.byte KEYSH, 0
track_65_lbl_273936:
	.byte TEMPO, 60
	.byte VOICE, 0
	.byte VOL, 127
	.byte PRIO, 110
	.byte W72
track_65_lbl_27393f:
	.byte N24, Gs2, v052
	.byte W24
	.byte Gs2, v008 @ N24
	.byte W48
	.byte PEND
	.byte W72
	.byte PATT
		.word track_65_lbl_27393f
	.byte W72
	.byte PATT
		.word track_65_lbl_27393f
	.byte W72
	.byte PATT
		.word track_65_lbl_27393f
	.byte W72
	.byte PATT
		.word track_65_lbl_27393f
	.byte W72
	.byte PATT
		.word track_65_lbl_27393f
	.byte W72
	.byte PATT
		.word track_65_lbl_27393f
	.byte W72
	.byte PATT
		.word track_65_lbl_27393f
	.byte W72
	.byte PATT
		.word track_65_lbl_27393f
	.byte W72
	.byte PATT
		.word track_65_lbl_27393f
	.byte W72
	.byte PATT
		.word track_65_lbl_27393f
	.byte W72
	.byte PATT
		.word track_65_lbl_27393f
	.byte W72
	.byte PATT
		.word track_65_lbl_27393f
	.byte W72
	.byte PATT
		.word track_65_lbl_27393f
	.byte W72
	.byte PATT
		.word track_65_lbl_27393f
	.byte W72
	.byte PATT
		.word track_65_lbl_27393f
	.byte GOTO
		.word track_65_lbl_273936
	.byte FINE

track_65_1:
	.byte KEYSH, 0
track_65_lbl_2739a9:
	.byte VOICE, 0
	.byte VOL, 127
	.byte N06, Cn2, v088
	.byte W60
	.byte N06 @ Cn2, v088
	.byte W12
	.byte W72
track_65_lbl_2739b4:
	.byte N06, Cn2, v088
	.byte W48
	.byte N06 @ Cn2, v088
	.byte W12
	.byte N06 @ Cn2, v088
	.byte W12
	.byte PEND
	.byte W72
	.byte N06 @ Cn2, v088
	.byte W60
	.byte N06 @ Cn2, v088
	.byte W12
	.byte W72
	.byte PATT
		.word track_65_lbl_2739b4
	.byte W72
	.byte N06, Cn2, v088
	.byte W60
	.byte N06 @ Cn2, v088
	.byte W12
	.byte W72
	.byte PATT
		.word track_65_lbl_2739b4
	.byte W72
	.byte N06, Cn2, v088
	.byte W60
	.byte N06 @ Cn2, v088
	.byte W12
	.byte W72
	.byte PATT
		.word track_65_lbl_2739b4
	.byte W72
	.byte N06, Cn2, v088
	.byte W60
	.byte N06 @ Cn2, v088
	.byte W12
	.byte W72
	.byte PATT
		.word track_65_lbl_2739b4
	.byte W72
	.byte N06, Cn2, v088
	.byte W60
	.byte N06 @ Cn2, v088
	.byte W12
	.byte W72
	.byte PATT
		.word track_65_lbl_2739b4
	.byte W72
	.byte N06, Cn2, v088
	.byte W60
	.byte N06 @ Cn2, v088
	.byte W12
	.byte W72
	.byte PATT
		.word track_65_lbl_2739b4
	.byte W72
	.byte N06, Cn2, v088
	.byte W60
	.byte N06 @ Cn2, v088
	.byte W12
	.byte W72
	.byte PATT
		.word track_65_lbl_2739b4
	.byte W72
	.byte GOTO
		.word track_65_lbl_2739a9
	.byte FINE

track_65_2:
	.byte KEYSH, 0
track_65_lbl_273a1f:
	.byte VOICE, 43
	.byte VOL, 127
	.byte PRIO, 110
	.byte W72
	.byte W72
	.byte W72
	.byte W36
	.byte N36, An2, v036
	.byte W36
	.byte TIE, En2, v032
	.byte W72
	.byte W60
	.byte EOT @ En2, v032
	.byte W12
	.byte W72
	.byte W72
	.byte W72
	.byte W72
	.byte W72
	.byte W36
	.byte N36, Dn2, v036
	.byte W36
	.byte TIE, Fn1, v032
	.byte W72
	.byte W60
	.byte EOT @ Fn1, v032
	.byte W12
	.byte W72
	.byte W72
	.byte W72
	.byte W72
	.byte W72
	.byte W36
	.byte N36, As2, v036
	.byte W36
	.byte TIE, Fn2, v032
	.byte W72
	.byte W60
	.byte EOT @ Fn2, v032
	.byte W12
	.byte W72
	.byte W72
	.byte W72
	.byte W72
	.byte W72
	.byte W36
	.byte N36, Cs2, v036
	.byte W36
	.byte TIE, Ds2, v032
	.byte W72
	.byte W60
	.byte EOT @ Ds2, v032
	.byte W12
	.byte W72
	.byte W72
	.byte GOTO
		.word track_65_lbl_273a1f
	.byte FINE

track_65_3:
	.byte KEYSH, 0
track_65_lbl_273a71:
	.byte VOICE, 3
	.byte VOL, 127
	.byte PAN, c_v-14
	.byte W12
	.byte N06, Dn3, v068
	.byte W12
	.byte En3 @ N06, v068
	.byte W12
	.byte En3, v024 @ N06
	.byte W12
	.byte En3, v068 @ N06
	.byte W12
	.byte Fn3 @ N06, v068
	.byte W12
track_65_lbl_273a86:
	.byte N06, Fn3, v024
	.byte W12
	.byte Fn3, v068 @ N06
	.byte W12
	.byte Gn3 @ N06, v068
	.byte W12
	.byte Gn3, v024 @ N06
	.byte W12
	.byte Gn3, v068 @ N06
	.byte W12
	.byte An3 @ N06, v068
	.byte W12
	.byte PEND
track_65_lbl_273a98:
	.byte N06, An3, v024
	.byte W12
	.byte Dn3, v068 @ N06
	.byte W12
	.byte En3 @ N06, v068
	.byte W12
	.byte En3, v024 @ N06
	.byte W12
	.byte En3, v068 @ N06
	.byte W12
	.byte Fn3 @ N06, v068
	.byte W12
	.byte PEND
	.byte PATT
		.word track_65_lbl_273a86
	.byte PATT
		.word track_65_lbl_273a98
	.byte PATT
		.word track_65_lbl_273a86
	.byte PATT
		.word track_65_lbl_273a98
track_65_lbl_273abe:
	.byte N06, Fn3, v024
	.byte W12
	.byte Fn3, v068 @ N06
	.byte W12
	.byte Gn3 @ N06, v068
	.byte W12
	.byte Gn3, v024 @ N06
	.byte W12
	.byte N05, Gn3, v060
	.byte W12
	.byte An3, v052 @ N05
	.byte W12
	.byte PEND
	.byte PATT
		.word track_65_lbl_273a98
	.byte PATT
		.word track_65_lbl_273a86
	.byte PATT
		.word track_65_lbl_273a98
	.byte PATT
		.word track_65_lbl_273a86
	.byte PATT
		.word track_65_lbl_273a98
	.byte PATT
		.word track_65_lbl_273a86
	.byte PATT
		.word track_65_lbl_273a98
	.byte PATT
		.word track_65_lbl_273abe
track_65_lbl_273afa:
	.byte N06, As3, v024
	.byte W12
	.byte Ds3, v068 @ N06
	.byte W12
	.byte Fn3 @ N06, v068
	.byte W12
	.byte Fn3, v024 @ N06
	.byte W12
	.byte Fn3, v068 @ N06
	.byte W12
	.byte Fs3 @ N06, v068
	.byte W12
	.byte PEND
track_65_lbl_273b0c:
	.byte N06, Fs3, v024
	.byte W12
	.byte Fs3, v068 @ N06
	.byte W12
	.byte Gs3 @ N06, v068
	.byte W12
	.byte Gs3, v024 @ N06
	.byte W12
	.byte Gs3, v068 @ N06
	.byte W12
	.byte As3 @ N06, v068
	.byte W12
	.byte PEND
	.byte PATT
		.word track_65_lbl_273afa
	.byte PATT
		.word track_65_lbl_273b0c
	.byte PATT
		.word track_65_lbl_273afa
	.byte PATT
		.word track_65_lbl_273b0c
	.byte PATT
		.word track_65_lbl_273afa
track_65_lbl_273b37:
	.byte N06, Fs3, v024
	.byte W12
	.byte Fs3, v068 @ N06
	.byte W12
	.byte Gs3 @ N06, v068
	.byte W12
	.byte Gs3, v024 @ N06
	.byte W12
	.byte N05, Gs3, v060
	.byte W12
	.byte As3, v052 @ N05
	.byte W12
	.byte PEND
	.byte PATT
		.word track_65_lbl_273afa
	.byte PATT
		.word track_65_lbl_273b0c
	.byte PATT
		.word track_65_lbl_273afa
	.byte PATT
		.word track_65_lbl_273b0c
	.byte PATT
		.word track_65_lbl_273afa
	.byte PATT
		.word track_65_lbl_273b0c
	.byte PATT
		.word track_65_lbl_273afa
	.byte PATT
		.word track_65_lbl_273b37
	.byte GOTO
		.word track_65_lbl_273a71
	.byte FINE

track_65_4:
	.byte KEYSH, 0
track_65_lbl_273b7b:
	.byte VOICE, 42
	.byte VOL, 127
	.byte PRIO, 110
	.byte TIE, Dn2, v076
	.byte W72
	.byte W72
	.byte EOT @ Dn2, v076
	.byte W72
	.byte W72
	.byte W72
	.byte W72
	.byte W72
	.byte W72
	.byte TIE @ Dn2, v076
	.byte W72
	.byte W72
	.byte EOT @ Dn2, v076
	.byte W72
	.byte W72
	.byte W72
	.byte W72
	.byte W72
	.byte W72
	.byte TIE, Ds2 @ v076
	.byte W72
	.byte W72
	.byte EOT @ Ds2, v076
	.byte W72
	.byte W72
	.byte W72
	.byte W72
	.byte W72
	.byte W72
	.byte TIE @ Ds2, v076
	.byte W72
	.byte W72
	.byte EOT @ Ds2, v076
	.byte W72
	.byte W72
	.byte W72
	.byte W72
	.byte W72
	.byte W72
	.byte GOTO
		.word track_65_lbl_273b7b
	.byte FINE

track_65_5:
	.byte KEYSH, 0
track_65_lbl_273bb4:
	.byte VOICE, 25
	.byte VOL, 127
	.byte PAN, c_v+13
	.byte PRIO, 110
	.byte W12
	.byte N04, Fn3, v012
	.byte W12
	.byte Gn3 @ N04, v012
	.byte W12
	.byte Gn3, v008 @ N04
	.byte W12
	.byte Gn3, v012 @ N04
	.byte W12
	.byte An3 @ N04, v012
	.byte W12
track_65_lbl_273bcb:
	.byte N04, An3, v008
	.byte W12
	.byte An3, v012 @ N04
	.byte W12
	.byte As3 @ N04, v012
	.byte W12
	.byte As3, v008 @ N04
	.byte W12
	.byte As3, v012 @ N04
	.byte W12
	.byte Cn4 @ N04, v012
	.byte W12
	.byte PEND
track_65_lbl_273bdd:
	.byte N04, Cn4, v008
	.byte W12
	.byte Fn3, v012 @ N04
	.byte W12
	.byte Gn3 @ N04, v012
	.byte W12
	.byte Gn3, v008 @ N04
	.byte W12
	.byte Gn3, v012 @ N04
	.byte W12
	.byte An3 @ N04, v012
	.byte W12
	.byte PEND
	.byte PATT
		.word track_65_lbl_273bcb
	.byte PATT
		.word track_65_lbl_273bdd
	.byte PATT
		.word track_65_lbl_273bcb
	.byte PATT
		.word track_65_lbl_273bdd
track_65_lbl_273c03:
	.byte N04, An3, v008
	.byte W12
	.byte An3, v012 @ N04
	.byte W12
	.byte As3 @ N04, v012
	.byte W12
	.byte As3, v008 @ N04
	.byte W12
	.byte N03, As3, v012
	.byte W12
	.byte Cn4, v008 @ N03
	.byte W12
	.byte PEND
	.byte PATT
		.word track_65_lbl_273bdd
	.byte PATT
		.word track_65_lbl_273bcb
	.byte PATT
		.word track_65_lbl_273bdd
	.byte PATT
		.word track_65_lbl_273bcb
	.byte PATT
		.word track_65_lbl_273bdd
	.byte PATT
		.word track_65_lbl_273bcb
	.byte PATT
		.word track_65_lbl_273bdd
	.byte PATT
		.word track_65_lbl_273c03
	.byte W12
	.byte N04, Fs3, v012
	.byte W12
	.byte Gs3 @ N04, v012
	.byte W12
	.byte Gs3, v008 @ N04
	.byte W12
	.byte Gs3, v012 @ N04
	.byte W12
	.byte As3 @ N04, v012
	.byte W12
track_65_lbl_273c4e:
	.byte N04, As3, v008
	.byte W12
	.byte As3, v012 @ N04
	.byte W12
	.byte Bn3 @ N04, v012
	.byte W12
	.byte Bn3, v008 @ N04
	.byte W12
	.byte Bn3, v012 @ N04
	.byte W12
	.byte Cs4 @ N04, v012
	.byte W12
	.byte PEND
track_65_lbl_273c60:
	.byte N04, Cs4, v008
	.byte W12
	.byte Fs3, v012 @ N04
	.byte W12
	.byte Gs3 @ N04, v012
	.byte W12
	.byte Gs3, v008 @ N04
	.byte W12
	.byte Gs3, v012 @ N04
	.byte W12
	.byte As3 @ N04, v012
	.byte W12
	.byte PEND
	.byte PATT
		.word track_65_lbl_273c4e
	.byte PATT
		.word track_65_lbl_273c60
	.byte PATT
		.word track_65_lbl_273c4e
	.byte PATT
		.word track_65_lbl_273c60
track_65_lbl_273c86:
	.byte N04, As3, v008
	.byte W12
	.byte As3, v012 @ N04
	.byte W12
	.byte Bn3 @ N04, v012
	.byte W12
	.byte Bn3, v008 @ N04
	.byte W12
	.byte N03, Bn3, v012
	.byte W12
	.byte Cs4, v008 @ N03
	.byte W12
	.byte PEND
	.byte PATT
		.word track_65_lbl_273c60
	.byte PATT
		.word track_65_lbl_273c4e
	.byte PATT
		.word track_65_lbl_273c60
	.byte PATT
		.word track_65_lbl_273c4e
	.byte PATT
		.word track_65_lbl_273c60
	.byte PATT
		.word track_65_lbl_273c4e
	.byte PATT
		.word track_65_lbl_273c60
	.byte PATT
		.word track_65_lbl_273c86
	.byte GOTO
		.word track_65_lbl_273bb4
	.byte FINE

track_65_6:
	.byte KEYSH, 0
track_65_lbl_273cca:
	.byte VOICE, 44
	.byte VOL, 127
	.byte W72
	.byte W72
	.byte W72
	.byte W72
track_65_lbl_273cd2:
	.byte PRIO, 0
	.byte W18
	.byte PAN, c_v-1
	.byte N06, An3, v008
	.byte W06
	.byte PAN, c_v-33
	.byte N06, As3 @ v008
	.byte W06
	.byte PAN, c_v-64
	.byte N12, An4 @ v008
	.byte W24
	.byte PAN, c_v-1
	.byte N06, An3 @ v008
	.byte W06
	.byte PAN, c_v+31
	.byte N06, Cn4 @ v008
	.byte W06
	.byte PAN, c_v+63
	.byte N12, Gn4 @ v008
	.byte W06
	.byte PEND
track_65_lbl_273cf5:
	.byte W18
	.byte PAN, c_v-1
	.byte N06, An3, v008
	.byte W06
	.byte PAN, c_v-33
	.byte N06, Dn4, v012
	.byte W06
	.byte PAN, c_v-64
	.byte N12, Fn4 @ v012
	.byte W24
	.byte PAN, c_v-1
	.byte N12, An3, v008
	.byte W06
	.byte PAN, c_v+31
	.byte W06
	.byte c_v+63 @ PAN
	.byte N12, En4 @ v008
	.byte W06
	.byte PEND
track_65_lbl_273d15:
	.byte PRIO, 110
	.byte W18
	.byte PAN, c_v-1
	.byte N06, An3, v008
	.byte W06
	.byte PAN, c_v-33
	.byte N06, As3 @ v008
	.byte W06
	.byte PAN, c_v-64
	.byte N12, Dn4 @ v008
	.byte W24
	.byte PAN, c_v-1
	.byte N06, An3 @ v008
	.byte W06
	.byte PAN, c_v+31
	.byte N06, Cn4 @ v008
	.byte W06
	.byte PAN, c_v+63
	.byte N12, En4 @ v008
	.byte W06
	.byte PEND
track_65_lbl_273d38:
	.byte W18
	.byte PAN, c_v-1
	.byte N06, An3, v008
	.byte W06
	.byte PAN, c_v-33
	.byte N06, Dn4 @ v008
	.byte W06
	.byte PAN, c_v-64
	.byte N12, Fn4 @ v008
	.byte W24
	.byte PAN, c_v-1
	.byte N06, An3 @ v008
	.byte W06
	.byte PAN, c_v+31
	.byte N06, En4, v012
	.byte W06
	.byte PAN, c_v+63
	.byte N12, Gn4, v008
	.byte W06
	.byte PEND
	.byte W72
	.byte W72
	.byte W72
	.byte W72
	.byte PATT
		.word track_65_lbl_273cd2
	.byte PATT
		.word track_65_lbl_273cf5
	.byte PATT
		.word track_65_lbl_273d15
	.byte PATT
		.word track_65_lbl_273d38
	.byte W72
	.byte W72
	.byte W72
	.byte W72
track_65_lbl_273d77:
	.byte PRIO, 0
	.byte W18
	.byte PAN, c_v-1
	.byte N06, As3, v008
	.byte W06
	.byte PAN, c_v-33
	.byte N06, Bn3 @ v008
	.byte W06
	.byte PAN, c_v-64
	.byte N12, As4 @ v008
	.byte W24
	.byte PAN, c_v-1
	.byte N06, As3 @ v008
	.byte W06
	.byte PAN, c_v+31
	.byte N06, Cs4 @ v008
	.byte W06
	.byte PAN, c_v+63
	.byte N12, Gs4 @ v008
	.byte W06
	.byte PEND
track_65_lbl_273d9a:
	.byte W18
	.byte PAN, c_v-1
	.byte N06, As3, v008
	.byte W06
	.byte PAN, c_v-33
	.byte N06, Ds4, v012
	.byte W06
	.byte PAN, c_v-64
	.byte N12, Fs4 @ v012
	.byte W24
	.byte PAN, c_v-1
	.byte N12, As3, v008
	.byte W06
	.byte PAN, c_v+31
	.byte W06
	.byte c_v+63 @ PAN
	.byte N12, Fn4 @ v008
	.byte W06
	.byte PEND
track_65_lbl_273dba:
	.byte PRIO, 110
	.byte W18
	.byte PAN, c_v-1
	.byte N06, As3, v008
	.byte W06
	.byte PAN, c_v-33
	.byte N06, Bn3 @ v008
	.byte W06
	.byte PAN, c_v-64
	.byte N12, Ds4 @ v008
	.byte W24
	.byte PAN, c_v-1
	.byte N06, As3 @ v008
	.byte W06
	.byte PAN, c_v+31
	.byte N06, Cs4 @ v008
	.byte W06
	.byte PAN, c_v+63
	.byte N12, Fn4 @ v008
	.byte W06
	.byte PEND
track_65_lbl_273ddd:
	.byte W18
	.byte PAN, c_v-1
	.byte N06, As3, v008
	.byte W06
	.byte PAN, c_v-33
	.byte N06, Ds4 @ v008
	.byte W06
	.byte PAN, c_v-64
	.byte N12, Fs4 @ v008
	.byte W24
	.byte PAN, c_v-1
	.byte N06, As3 @ v008
	.byte W06
	.byte PAN, c_v+31
	.byte N06, Fn4, v012
	.byte W06
	.byte PAN, c_v+63
	.byte N12, Gs4, v008
	.byte W06
	.byte PEND
	.byte W72
	.byte W72
	.byte W72
	.byte W72
	.byte PATT
		.word track_65_lbl_273d77
	.byte PATT
		.word track_65_lbl_273d9a
	.byte PATT
		.word track_65_lbl_273dba
	.byte PATT
		.word track_65_lbl_273ddd
	.byte GOTO
		.word track_65_lbl_273cca
	.byte W06
	.byte FINE

track_65_7:
	.byte KEYSH, 0
track_65_lbl_273e21:
	.byte VOICE, 18
	.byte VOL, 127
	.byte PRIO, 110
	.byte N72, Dn3, v096
	.byte W72
	.byte W72
	.byte W72
	.byte W72
	.byte W72
	.byte W72
	.byte W72
	.byte W72
	.byte N72 @ Dn3, v096
	.byte W72
	.byte W72
	.byte W72
	.byte W72
	.byte W72
	.byte W72
	.byte W72
	.byte W72
	.byte Ds3 @ N72, v096
	.byte W72
	.byte W72
	.byte W72
	.byte W72
	.byte W72
	.byte W72
	.byte W72
	.byte W72
	.byte N72 @ Ds3, v096
	.byte W72
	.byte W72
	.byte W72
	.byte W72
	.byte W72
	.byte W72
	.byte W72
	.byte W72
	.byte GOTO
		.word track_65_lbl_273e21
	.byte FINE

track_65_8:
	.byte KEYSH, 0
track_65_lbl_273e55:
	.byte VOICE, 43
	.byte VOL, 127
	.byte BEND, c_v+3
	.byte W72
	.byte W72
	.byte W72
	.byte W60
	.byte N36, An2, v012
	.byte W12
	.byte W24
	.byte TIE, En2 @ v012
	.byte W48
	.byte W72
	.byte W12
	.byte EOT @ En2, v012
	.byte W60
	.byte W72
	.byte W72
	.byte W72
	.byte W72
	.byte W60
	.byte N36, Dn2 @ v012
	.byte W12
	.byte W24
	.byte TIE, Fn1 @ v012
	.byte W48
	.byte W72
	.byte W12
	.byte EOT @ Fn1, v012
	.byte W60
	.byte W72
	.byte W72
	.byte W72
	.byte W72
	.byte W60
	.byte N36, As2 @ v012
	.byte W12
	.byte W24
	.byte TIE, Fn2 @ v012
	.byte W48
	.byte W72
	.byte W12
	.byte EOT @ Fn2, v012
	.byte W60
	.byte W72
	.byte W72
	.byte W72
	.byte W72
	.byte W60
	.byte N36, Cs2 @ v012
	.byte W12
	.byte W24
	.byte TIE, Ds2 @ v012
	.byte W48
	.byte W72
	.byte W12
	.byte EOT @ Ds2, v012
	.byte W60
	.byte W72
	.byte GOTO
		.word track_65_lbl_273e55
	.byte FINE

.align 2

track_65:
	.byte 9
	.byte 65
	.byte 130
	.byte 128
	.word 0x80a8554
	.word track_65_0
	.word track_65_1
	.word track_65_2
	.word track_65_3
	.word track_65_4
	.word track_65_5
	.word track_65_6
	.word track_65_7
	.word track_65_8

.align 2
