.align 2

.global track_646

track_646_0:
	.byte KEYSH, 0
	.byte TEMPO, 75
	.byte VOICE, 11
	.byte VOL, 80
	.byte PAN, c_v
	.byte BENDR, 12
	.byte BEND, c_v
	.byte N24, Cn3, v112
	.byte W02
	.byte VOL, 85
	.byte BEND, c_v+7
	.byte W02
	.byte VOL, 94
	.byte BEND, c_v+13
	.byte W02
	.byte VOL, 105
	.byte BEND, c_v+18
	.byte W02
	.byte VOL, 127
	.byte BEND, c_v+21
	.byte W02
	.byte VOL, 127
	.byte BEND, c_v+23
	.byte W02
	.byte VOL, 121
	.byte BEND, c_v+25
	.byte W02
	.byte VOL, 113
	.byte BEND, c_v+23
	.byte W02
	.byte VOL, 103
	.byte W02
	.byte 91 @ VOL
	.byte BEND, c_v+19
	.byte W02
	.byte VOL, 43
	.byte BEND, c_v+15
	.byte W02
	.byte VOL, 31
	.byte BEND, c_v+9
	.byte W02
	.byte VOL, 31
	.byte BEND, c_v-35
	.byte W22
	.byte N48, Cn3, v127
	.byte W02
	.byte VOL, 39
	.byte BEND, c_v-31
	.byte W02
	.byte VOL, 50
	.byte BEND, c_v-26
	.byte W02
	.byte VOL, 63
	.byte BEND, c_v-19
	.byte W02
	.byte VOL, 79
	.byte BEND, c_v-10
	.byte W02
	.byte VOL, 99
	.byte BEND, c_v+5
	.byte W02
	.byte VOL, 127
	.byte BENDR, 16
	.byte BEND, c_v+41
	.byte W02
	.byte c_v+57 @ BEND
	.byte W02
	.byte c_v+47 @ BEND
	.byte W02
	.byte c_v+40 @ BEND
	.byte W02
	.byte VOL, 127
	.byte BEND, c_v+33
	.byte W02
	.byte VOL, 125
	.byte BEND, c_v+29
	.byte W02
	.byte VOL, 121
	.byte BEND, c_v+23
	.byte W02
	.byte VOL, 117
	.byte BEND, c_v+20
	.byte W02
	.byte VOL, 112
	.byte BEND, c_v+17
	.byte W02
	.byte VOL, 105
	.byte BEND, c_v+12
	.byte W02
	.byte VOL, 97
	.byte BEND, c_v+17
	.byte W02
	.byte VOL, 100
	.byte BEND, c_v+23
	.byte W02
	.byte VOL, 104
	.byte BEND, c_v+28
	.byte W02
	.byte VOL, 109
	.byte BEND, c_v+36
	.byte W02
	.byte VOL, 114
	.byte BEND, c_v+43
	.byte W02
	.byte VOL, 83
	.byte BEND, c_v+53
	.byte W02
	.byte VOL, 59
	.byte BEND, c_v+60
	.byte W02
	.byte VOL, 41
	.byte BEND, c_v+63
	.byte W02
	.byte VOL, 25
	.byte W02
	.byte 13 @ VOL
	.byte W02
	.byte 0 @ VOL
	.byte W80
	.byte W03
	.byte FINE

track_646_1:
	.byte KEYSH, 0
	.byte W05
	.byte VOICE, 11
	.byte VOL, 80
	.byte PAN, c_v
	.byte BENDR, 12
	.byte BEND, c_v
	.byte N24, Dn3, v100
	.byte W02
	.byte VOL, 85
	.byte BEND, c_v+7
	.byte W02
	.byte VOL, 94
	.byte BEND, c_v+13
	.byte W02
	.byte VOL, 105
	.byte BEND, c_v+18
	.byte W02
	.byte VOL, 127
	.byte BEND, c_v+21
	.byte W02
	.byte VOL, 127
	.byte BEND, c_v+23
	.byte W02
	.byte VOL, 121
	.byte BEND, c_v+25
	.byte W02
	.byte VOL, 113
	.byte BEND, c_v+23
	.byte W02
	.byte VOL, 103
	.byte W02
	.byte 91 @ VOL
	.byte BEND, c_v+19
	.byte W02
	.byte VOL, 43
	.byte BEND, c_v+15
	.byte W02
	.byte VOL, 31
	.byte BEND, c_v+9
	.byte W02
	.byte VOL, 31
	.byte BEND, c_v-35
	.byte W22
	.byte N48, En3, v112
	.byte W02
	.byte VOL, 39
	.byte BEND, c_v-31
	.byte W02
	.byte VOL, 50
	.byte BEND, c_v-26
	.byte W02
	.byte VOL, 63
	.byte BEND, c_v-19
	.byte W02
	.byte VOL, 79
	.byte BEND, c_v-10
	.byte W02
	.byte VOL, 99
	.byte BEND, c_v+5
	.byte W02
	.byte VOL, 127
	.byte BENDR, 16
	.byte BEND, c_v+41
	.byte W02
	.byte c_v+57 @ BEND
	.byte W02
	.byte c_v+47 @ BEND
	.byte W02
	.byte c_v+40 @ BEND
	.byte W02
	.byte VOL, 127
	.byte BEND, c_v+33
	.byte W02
	.byte VOL, 125
	.byte BEND, c_v+29
	.byte W02
	.byte VOL, 121
	.byte BEND, c_v+23
	.byte W02
	.byte VOL, 117
	.byte BEND, c_v+20
	.byte W02
	.byte VOL, 112
	.byte BEND, c_v+17
	.byte W02
	.byte VOL, 105
	.byte BEND, c_v+12
	.byte W02
	.byte VOL, 97
	.byte BEND, c_v+17
	.byte W02
	.byte VOL, 100
	.byte BEND, c_v+23
	.byte W02
	.byte VOL, 104
	.byte BEND, c_v+28
	.byte W02
	.byte VOL, 109
	.byte BEND, c_v+36
	.byte W02
	.byte VOL, 114
	.byte BEND, c_v+43
	.byte W02
	.byte VOL, 83
	.byte BEND, c_v+53
	.byte W02
	.byte VOL, 59
	.byte BEND, c_v+60
	.byte W01
	.byte W01
	.byte VOL, 41
	.byte BEND, c_v+63
	.byte W02
	.byte VOL, 25
	.byte W02
	.byte 13 @ VOL
	.byte W02
	.byte 0 @ VOL
	.byte W78
	.byte FINE

track_646_2:
	.byte KEYSH, 0
	.byte VOICE, 12
	.byte VOL, 80
	.byte PAN, c_v
	.byte N19, Cn3, v127
	.byte W19
	.byte Cn3, v036 @ N19
	.byte W19
	.byte Cn3, v012 @ N19
	.byte W19
	.byte En3, v127 @ N19
	.byte W19
	.byte En3, v036 @ N19
	.byte W19
	.byte Cn3, v127 @ N19
	.byte W01
	.byte W18
	.byte Dn3, v036 @ N19
	.byte W66
	.byte W01
	.byte FINE

track_646_3:
	.byte KEYSH, 0
	.byte W10
	.byte VOICE, 13
	.byte VOL, 80
	.byte PAN, c_v
	.byte W14
	.byte N06, Gs2, v100
	.byte W06
	.byte N14, Cn3, v127
	.byte W14
	.byte As2, v052 @ N14
	.byte W18
	.byte N06, Gs2, v100
	.byte W06
	.byte N14, As2, v127
	.byte W14
	.byte As2, v052 @ N14
	.byte W14
	.byte N06, Gs2, v100
	.byte W06
	.byte VOICE, 14
	.byte N10 @ Gs2, v100
	.byte W78
	.byte W01
	.byte FINE

track_646_4:
	.byte KEYSH, 0
	.byte VOICE, 15
	.byte VOL, 80
	.byte PAN, c_v
	.byte N04, An2, v127
	.byte W10
	.byte N05, Gs2 @ v127
	.byte W10
	.byte Fn2 @ N05, v127
	.byte W24
	.byte W03
	.byte N04, En2 @ v127
	.byte W04
	.byte N05, Gn2 @ v127
	.byte W05
	.byte Fn2 @ N05, v127
	.byte W16
	.byte An2 @ N05, v127
	.byte W05
	.byte N10, Fn2 @ v127
	.byte W19
	.byte VOICE, 16
	.byte N10 @ Fn2, v127
	.byte W84
	.byte W01
	.byte FINE

.align 2

track_646:
	.byte 5
	.byte 0
	.byte 251
	.byte 0
	.word 0x80a7d14
	.word track_646_0
	.word track_646_1
	.word track_646_2
	.word track_646_3
	.word track_646_4

.align 2
