.align 2

.global track_31

track_31_0:
	.byte KEYSH, 0
track_31_lbl_2624c6:
	.byte TEMPO, 60
	.byte VOICE, 1
	.byte MOD, 0
	.byte VOL, 14
	.byte PRIO, 110
	.byte N96, Ds3, v080
	.byte W03
	.byte VOL, 21
	.byte W03
	.byte 28 @ VOL
	.byte W06
	.byte 35 @ VOL
	.byte W12
	.byte 42 @ VOL
	.byte W06
	.byte 49 @ VOL
	.byte W03
	.byte 56 @ VOL
	.byte W03
	.byte 63 @ VOL
	.byte W03
	.byte 70 @ VOL
	.byte W03
	.byte 77 @ VOL
	.byte W03
	.byte 85 @ VOL
	.byte W03
	.byte 90 @ VOL
	.byte W03
	.byte 85 @ VOL
	.byte W03
	.byte 77 @ VOL
	.byte W06
	.byte 70 @ VOL
	.byte W03
	.byte W03
	.byte 56 @ VOL
	.byte W03
	.byte W03
	.byte 42 @ VOL
	.byte W03
	.byte 35 @ VOL
	.byte W03
	.byte 28 @ VOL
	.byte W06
	.byte 21 @ VOL
	.byte W06
	.byte 14 @ VOL
	.byte W06
	.byte MOD, 20
	.byte LFOS, 110
	.byte MODT, 1
	.byte N96, En3, v092
	.byte W03
	.byte VOL, 21
	.byte W03
	.byte 28 @ VOL
	.byte W03
	.byte 35 @ VOL
	.byte W03
	.byte 42 @ VOL
	.byte W04
	.byte 49 @ VOL
	.byte W02
	.byte 56 @ VOL
	.byte W03
	.byte 63 @ VOL
	.byte W03
	.byte 70 @ VOL
	.byte W24
	.byte W03
	.byte 63 @ VOL
	.byte W03
	.byte 56 @ VOL
	.byte W06
	.byte 49 @ VOL
	.byte W06
	.byte 42 @ VOL
	.byte W06
	.byte 35 @ VOL
	.byte W06
	.byte 28 @ VOL
	.byte W06
	.byte 21 @ VOL
	.byte W06
	.byte 14 @ VOL
	.byte W06
	.byte MOD, 0
	.byte TIE, Ds3, v072
	.byte W06
	.byte VOL, 21
	.byte W06
	.byte 28 @ VOL
	.byte W04
	.byte 35 @ VOL
	.byte W02
	.byte 42 @ VOL
	.byte W03
	.byte 49 @ VOL
	.byte W72
	.byte W03
	.byte W12
	.byte 42 @ VOL
	.byte W06
	.byte 35 @ VOL
	.byte W06
	.byte 28 @ VOL
	.byte W06
	.byte 21 @ VOL
	.byte W12
	.byte 14 @ VOL
	.byte W54
	.byte EOT @ Ds3, v072
	.byte VOL, 70
	.byte N72, Cn3, v100
	.byte W56
	.byte W02
	.byte VOL, 63
	.byte W04
	.byte 56 @ VOL
	.byte W02
	.byte 49 @ VOL
	.byte W02
	.byte 42 @ VOL
	.byte W02
	.byte 35 @ VOL
	.byte W04
	.byte MOD, 20
	.byte TIE, En3, v092
	.byte W03
	.byte VOL, 21
	.byte W03
	.byte 28 @ VOL
	.byte W03
	.byte 35 @ VOL
	.byte W03
	.byte 42 @ VOL
	.byte W04
	.byte 49 @ VOL
	.byte W02
	.byte 56 @ VOL
	.byte W03
	.byte 63 @ VOL
	.byte W03
	.byte W96
	.byte EOT @ En3, v092
	.byte MOD, 0
	.byte VOL, 14
	.byte TIE, Ds3 @ v092
	.byte W12
	.byte VOL, 21
	.byte W06
	.byte 28 @ VOL
	.byte W06
	.byte 35 @ VOL
	.byte W06
	.byte 42 @ VOL
	.byte W04
	.byte 49 @ VOL
	.byte W02
	.byte 56 @ VOL
	.byte W03
	.byte 63 @ VOL
	.byte W03
	.byte 70 @ VOL
	.byte W06
	.byte 77 @ VOL
	.byte W12
	.byte 70 @ VOL
	.byte W06
	.byte 63 @ VOL
	.byte W06
	.byte 56 @ VOL
	.byte W06
	.byte 49 @ VOL
	.byte W06
	.byte 42 @ VOL
	.byte W06
	.byte 35 @ VOL
	.byte W03
	.byte 28 @ VOL
	.byte W03
	.byte W04
	.byte 35 @ VOL
	.byte W08
	.byte 28 @ VOL
	.byte W12
	.byte 21 @ VOL
	.byte W24
	.byte 14 @ VOL
	.byte W30
	.byte EOT @ Ds3, v092
	.byte MOD, 20
	.byte N18, En3 @ v092
	.byte W18
	.byte MOD, 0
	.byte VOL, 14
	.byte N96, Ds3 @ v092
	.byte W06
	.byte VOL, 21
	.byte W06
	.byte 28 @ VOL
	.byte W06
	.byte 35 @ VOL
	.byte W12
	.byte 42 @ VOL
	.byte W06
	.byte 49 @ VOL
	.byte W06
	.byte 56 @ VOL
	.byte W06
	.byte 63 @ VOL
	.byte W06
	.byte 56 @ VOL
	.byte W06
	.byte 49 @ VOL
	.byte W06
	.byte 42 @ VOL
	.byte W06
	.byte 35 @ VOL
	.byte W06
	.byte 28 @ VOL
	.byte W06
	.byte 21 @ VOL
	.byte W06
	.byte 14 @ VOL
	.byte W06
track_31_lbl_2625cd:
	.byte MOD, 20
	.byte N96, En3, v092
	.byte W03
	.byte VOL, 21
	.byte W03
	.byte 28 @ VOL
	.byte W03
	.byte 35 @ VOL
	.byte W03
	.byte 42 @ VOL
	.byte W04
	.byte 49 @ VOL
	.byte W02
	.byte 56 @ VOL
	.byte W03
	.byte 63 @ VOL
	.byte W03
	.byte 70 @ VOL
	.byte W24
	.byte W03
	.byte 63 @ VOL
	.byte W03
	.byte 56 @ VOL
	.byte W06
	.byte 49 @ VOL
	.byte W06
	.byte 42 @ VOL
	.byte W06
	.byte 35 @ VOL
	.byte W06
	.byte 28 @ VOL
	.byte W06
	.byte 21 @ VOL
	.byte W06
	.byte 14 @ VOL
	.byte W06
	.byte PEND
	.byte MOD, 0
	.byte TIE, Ds3, v072
	.byte W12
	.byte VOL, 21
	.byte W06
	.byte 28 @ VOL
	.byte W06
	.byte 35 @ VOL
	.byte W06
	.byte 42 @ VOL
	.byte W06
	.byte 49 @ VOL
	.byte W06
	.byte 56 @ VOL
	.byte W54
	.byte W60
	.byte 49 @ VOL
	.byte W06
	.byte 42 @ VOL
	.byte W06
	.byte 35 @ VOL
	.byte W06
	.byte 28 @ VOL
	.byte W06
	.byte 21 @ VOL
	.byte W06
	.byte 14 @ VOL
	.byte W06
	.byte EOT @ Ds3, v072
	.byte MOD, 20
	.byte N96, En3 @ v072
	.byte W03
	.byte VOL, 21
	.byte W03
	.byte 28 @ VOL
	.byte W03
	.byte 35 @ VOL
	.byte W03
	.byte 42 @ VOL
	.byte W04
	.byte 49 @ VOL
	.byte W02
	.byte 56 @ VOL
	.byte W03
	.byte 63 @ VOL
	.byte W03
	.byte 70 @ VOL
	.byte W24
	.byte W03
	.byte 63 @ VOL
	.byte W03
	.byte 56 @ VOL
	.byte W06
	.byte 49 @ VOL
	.byte W06
	.byte 42 @ VOL
	.byte W06
	.byte 35 @ VOL
	.byte W06
	.byte 28 @ VOL
	.byte W06
	.byte 21 @ VOL
	.byte W06
	.byte 14 @ VOL
	.byte W06
	.byte PATT
		.word track_31_lbl_2625cd
	.byte N18, En3, v092
	.byte W18
	.byte MOD, 0
	.byte N72, Cn3 @ v092
	.byte W03
	.byte VOL, 28
	.byte W03
	.byte 35 @ VOL
	.byte W03
	.byte 42 @ VOL
	.byte W03
	.byte 49 @ VOL
	.byte W02
	.byte 56 @ VOL
	.byte W02
	.byte 63 @ VOL
	.byte W02
	.byte 70 @ VOL
	.byte W24
	.byte 63 @ VOL
	.byte W06
	.byte 56 @ VOL
	.byte W06
	.byte 49 @ VOL
	.byte W04
	.byte 42 @ VOL
	.byte W04
	.byte 35 @ VOL
	.byte W04
	.byte 28 @ VOL
	.byte W03
	.byte 21 @ VOL
	.byte W03
	.byte MOD, 0
	.byte VOL, 14
	.byte TIE, Ds3 @ v092
	.byte W06
	.byte W06
	.byte VOL, 21
	.byte W06
	.byte 28 @ VOL
	.byte W06
	.byte 35 @ VOL
	.byte W06
	.byte 42 @ VOL
	.byte W06
	.byte 49 @ VOL
	.byte W06
	.byte 56 @ VOL
	.byte W06
	.byte 63 @ VOL
	.byte W06
	.byte 56 @ VOL
	.byte W06
	.byte 49 @ VOL
	.byte W06
	.byte 42 @ VOL
	.byte W06
	.byte 35 @ VOL
	.byte W06
	.byte 28 @ VOL
	.byte W06
	.byte 21 @ VOL
	.byte W06
	.byte 14 @ VOL
	.byte W12
	.byte EOT @ Ds3, v092
	.byte GOTO
		.word track_31_lbl_2624c6
	.byte FINE

track_31_1:
	.byte KEYSH, 0
track_31_lbl_262697:
	.byte VOICE, 11
	.byte VOL, 70
	.byte PAN, c_v
	.byte PRIO, 109
	.byte N96, An4, v068
	.byte W96
	.byte As4, v056 @ N96
	.byte W96
	.byte An4, v072 @ N96
	.byte W96
	.byte As4, v084 @ N96
	.byte W96
	.byte An4, v072 @ N96
	.byte W96
	.byte As4, v056 @ N96
	.byte W96
	.byte An4 @ N96, v056
	.byte W96
	.byte As4, v048 @ N96
	.byte W96
	.byte An4, v068 @ N96
	.byte W96
	.byte As4, v056 @ N96
	.byte W96
	.byte An4, v072 @ N96
	.byte W96
	.byte As4, v084 @ N96
	.byte W96
	.byte An4, v072 @ N96
	.byte W96
	.byte As4, v056 @ N96
	.byte W96
	.byte An4 @ N96, v056
	.byte W96
	.byte As4, v048 @ N96
	.byte W96
	.byte GOTO
		.word track_31_lbl_262697
	.byte FINE

track_31_2:
	.byte KEYSH, 0
track_31_lbl_2626d6:
	.byte VOICE, 0
	.byte PRIO, 108
	.byte VOL, 70
	.byte W48
	.byte N08, As1, v032
	.byte W08
	.byte As1, v020 @ N08
	.byte W08
	.byte N08 @ As1, v020
	.byte W08
	.byte N04 @ As1, v020
	.byte W04
	.byte As1, v028 @ N04
	.byte W04
	.byte As1, v036 @ N04
	.byte W04
	.byte As1, v056 @ N04
	.byte W04
	.byte As1, v076 @ N04
	.byte W04
	.byte N42, As1, v108
	.byte W04
	.byte W48
	.byte VOICE, 12
	.byte VOL, 77
	.byte W24
	.byte N07, Cn3, v120
	.byte W08
	.byte Fn2 @ N07, v120
	.byte W08
	.byte Fs2, v127 @ N07
	.byte W08
track_31_lbl_262707:
	.byte N11, Cn2, v120
	.byte W12
	.byte N12 @ Cn2, v120
	.byte W36
	.byte VOICE, 0
	.byte VOL, 70
	.byte N02, Ds4, v032
	.byte W08
	.byte Ds4, v020 @ N02
	.byte W08
	.byte N02 @ Ds4, v020
	.byte W08
	.byte N02 @ Ds4, v020
	.byte W04
	.byte Ds4, v028 @ N02
	.byte W04
	.byte Ds4, v036 @ N02
	.byte W04
	.byte Ds4, v056 @ N02
	.byte W04
	.byte Ds4, v076 @ N02
	.byte W04
	.byte Ds4, v108 @ N02
	.byte W04
	.byte PEND
	.byte Ds4, v052 @ N02
	.byte W96
	.byte VOICE, 12
	.byte VOL, 77
	.byte W24
	.byte N06, Cn3, v108
	.byte W08
	.byte N07, Fs2, v096
	.byte W08
	.byte N06, Cn2, v092
	.byte W08
	.byte N12, Fn2 @ v092
	.byte W12
	.byte N48, Fs2 @ v092
	.byte W36
	.byte W24
	.byte W03
	.byte VOICE, 6
	.byte VOL, 49
	.byte BENDR, 20
	.byte N08, An2, v096
	.byte W08
	.byte BEND, c_v
	.byte N08, Bn1, v052
	.byte W08
	.byte Cn2 @ N08, v052
	.byte W08
	.byte N07, Cs2, v060
	.byte W07
	.byte N08, Gs2 @ v060
	.byte W08
	.byte N07, Gn2, v072
	.byte W07
	.byte Cs3, v080 @ N07
	.byte W07
	.byte Ds2 @ N07, v080
	.byte W07
	.byte En2, v072 @ N07
	.byte W07
	.byte N02, Fn2, v060
	.byte W02
	.byte W04
	.byte BEND, c_v
	.byte TIE, An3, v096
	.byte W24
	.byte BEND, c_v-1
	.byte W01
	.byte c_v-2 @ BEND
	.byte W01
	.byte c_v-3 @ BEND
	.byte W01
	.byte c_v-4 @ BEND
	.byte W01
	.byte c_v-5 @ BEND
	.byte W01
	.byte c_v-6 @ BEND
	.byte W01
	.byte c_v-7 @ BEND
	.byte W01
	.byte c_v-8 @ BEND
	.byte W02
	.byte c_v-9 @ BEND
	.byte W01
	.byte c_v-10 @ BEND
	.byte W01
	.byte c_v-11 @ BEND
	.byte W01
	.byte c_v-12 @ BEND
	.byte W01
	.byte c_v-13 @ BEND
	.byte W02
	.byte c_v-14 @ BEND
	.byte W01
	.byte c_v-15 @ BEND
	.byte W01
	.byte c_v-16 @ BEND
	.byte W01
	.byte c_v-17 @ BEND
	.byte W02
	.byte c_v-18 @ BEND
	.byte W02
	.byte c_v-19 @ BEND
	.byte W01
	.byte c_v-20 @ BEND
	.byte W02
	.byte c_v-21 @ BEND
	.byte W01
	.byte c_v-22 @ BEND
	.byte W02
	.byte c_v-24 @ BEND
	.byte W02
	.byte c_v-25 @ BEND
	.byte W01
	.byte c_v-26 @ BEND
	.byte W02
	.byte c_v-27 @ BEND
	.byte W01
	.byte c_v-28 @ BEND
	.byte W01
	.byte c_v-29 @ BEND
	.byte W01
	.byte c_v-30 @ BEND
	.byte W02
	.byte c_v-31 @ BEND
	.byte W01
	.byte c_v-32 @ BEND
	.byte W01
	.byte c_v-33 @ BEND
	.byte W01
	.byte c_v-34 @ BEND
	.byte W02
	.byte c_v-35 @ BEND
	.byte W02
	.byte c_v-36 @ BEND
	.byte W02
	.byte c_v-37 @ BEND
	.byte W02
	.byte c_v-38 @ BEND
	.byte W01
	.byte c_v-39 @ BEND
	.byte W02
	.byte c_v-40 @ BEND
	.byte W03
	.byte c_v-41 @ BEND
	.byte W02
	.byte c_v-42 @ BEND
	.byte W01
	.byte c_v-43 @ BEND
	.byte W02
	.byte c_v-44 @ BEND
	.byte W02
	.byte c_v-45 @ BEND
	.byte W02
	.byte c_v-46 @ BEND
	.byte W02
	.byte c_v-47 @ BEND
	.byte W02
	.byte c_v-48 @ BEND
	.byte W03
	.byte c_v-49 @ BEND
	.byte W02
	.byte c_v-50 @ BEND
	.byte W02
	.byte c_v-51 @ BEND
	.byte W01
	.byte c_v-52 @ BEND
	.byte W05
	.byte c_v-53 @ BEND
	.byte W03
	.byte c_v-54 @ BEND
	.byte W56
	.byte EOT @ An3, v096
	.byte W23
	.byte BEND, c_v
	.byte W01
	.byte VOICE, 0
	.byte VOL, 70
	.byte W48
	.byte BENDR, 0
	.byte N08, As1, v032
	.byte W08
	.byte As1, v020 @ N08
	.byte W08
	.byte N08 @ As1, v020
	.byte W08
	.byte N04 @ As1, v020
	.byte W04
	.byte As1, v028 @ N04
	.byte W04
	.byte As1, v036 @ N04
	.byte W04
	.byte As1, v056 @ N04
	.byte W04
	.byte As1, v076 @ N04
	.byte W04
	.byte N42, As1, v108
	.byte W04
	.byte W48
	.byte VOICE, 12
	.byte VOL, 90
	.byte W24
	.byte N07, Cn3, v120
	.byte W08
	.byte Fn2, v124 @ N07
	.byte W08
	.byte Fs2, v127 @ N07
	.byte W08
	.byte PATT
		.word track_31_lbl_262707
	.byte W96
	.byte W09
	.byte VOICE, 4
	.byte VOL, 70
	.byte BENDR, 20
	.byte W01
	.byte TIE, Cn3, v032
	.byte W84
	.byte W02
	.byte W36
	.byte VOL, 63
	.byte W12
	.byte 56 @ VOL
	.byte W06
	.byte 49 @ VOL
	.byte W06
	.byte 42 @ VOL
	.byte W16
	.byte EOT @ Cn3, v032
	.byte W20
	.byte W36
	.byte VOICE, 5
	.byte VOL, 70
	.byte BENDR, 20
	.byte N36, Cn2, v064
	.byte W60
	.byte W96
	.byte GOTO
		.word track_31_lbl_2626d6
	.byte FINE

track_31_3:
	.byte KEYSH, 0
track_31_lbl_26284d:
	.byte PRIO, 10
	.byte W96
	.byte VOICE, 5
	.byte VOL, 70
	.byte BENDR, 20
	.byte N36, Cn2, v036
	.byte W96
	.byte W96
	.byte W96
	.byte W96
	.byte W96
	.byte VOICE, 3
	.byte VOL, 42
	.byte PAN, c_v
	.byte W03
	.byte N20, As6, v088
	.byte W23
	.byte N03, As6, v080
	.byte W44
	.byte W03
	.byte N02, As6, v064
	.byte W07
	.byte N03, As6, v056
	.byte W06
	.byte As6, v080 @ N03
	.byte W10
	.byte W68
	.byte N18, As6, v072
	.byte W28
	.byte VOICE, 5
	.byte VOL, 70
	.byte BENDR, 20
	.byte W72
	.byte N64, An2, v076
	.byte W08
	.byte BEND, c_v-2
	.byte W01
	.byte c_v-3 @ BEND
	.byte W01
	.byte c_v-4 @ BEND
	.byte W07
	.byte c_v-5 @ BEND
	.byte W02
	.byte c_v-6 @ BEND
	.byte W02
	.byte c_v-7 @ BEND
	.byte W02
	.byte c_v-8 @ BEND
	.byte W01
	.byte c_v-9 @ BEND
	.byte W01
	.byte c_v-10 @ BEND
	.byte W01
	.byte c_v-11 @ BEND
	.byte W02
	.byte c_v-12 @ BEND
	.byte W01
	.byte c_v-13 @ BEND
	.byte W01
	.byte c_v-15 @ BEND
	.byte W02
	.byte c_v-16 @ BEND
	.byte W01
	.byte c_v-17 @ BEND
	.byte W01
	.byte c_v-18 @ BEND
	.byte W01
	.byte c_v-19 @ BEND
	.byte W01
	.byte c_v-20 @ BEND
	.byte W01
	.byte c_v-21 @ BEND
	.byte W02
	.byte c_v-22 @ BEND
	.byte W02
	.byte c_v-24 @ BEND
	.byte W01
	.byte c_v-25 @ BEND
	.byte W02
	.byte c_v-26 @ BEND
	.byte W04
	.byte c_v-27 @ BEND
	.byte W02
	.byte c_v-28 @ BEND
	.byte W03
	.byte c_v-29 @ BEND
	.byte W01
	.byte c_v-30 @ BEND
	.byte W02
	.byte c_v-31 @ BEND
	.byte W03
	.byte c_v-32 @ BEND
	.byte W02
	.byte c_v-33 @ BEND
	.byte W05
	.byte c_v @ BEND
	.byte W54
	.byte W96
	.byte W96
	.byte W96
	.byte W06
	.byte N36, Cn2, v044
	.byte W90
	.byte W96
	.byte W96
	.byte GOTO
		.word track_31_lbl_26284d
	.byte FINE

track_31_4:
	.byte KEYSH, 0
track_31_lbl_2628da:
	.byte PRIO, 10
	.byte W96
	.byte W96
	.byte VOICE, 2
	.byte VOL, 70
	.byte PAN, c_v
	.byte W20
	.byte BEND, c_v
	.byte N12, Bn6, v060
	.byte W76
	.byte W68
	.byte W03
	.byte N03, Bn6, v032
	.byte W11
	.byte Gn6, v052 @ N03
	.byte W09
	.byte Cn5, v040 @ N03
	.byte W05
	.byte W30
	.byte W01
	.byte Bn6, v052 @ N03
	.byte W08
	.byte Gn6, v072 @ N03
	.byte W08
	.byte Cn5, v060 @ N03
	.byte W06
	.byte VOICE, 3
	.byte VOL, 90
	.byte PAN, c_v
	.byte N01, As6, v056
	.byte W06
	.byte As6, v100 @ N01
	.byte W22
	.byte N15, As6, v096
	.byte W15
	.byte W04
	.byte N03, As6, v072
	.byte W36
	.byte N02, As6, v080
	.byte W06
	.byte N01, As6, v068
	.byte W48
	.byte W02
	.byte W96
	.byte W96
	.byte W96
	.byte W96
	.byte VOICE, 2
	.byte VOL, 49
	.byte PAN, c_v
	.byte W08
	.byte N12, Bn6, v060
	.byte W24
	.byte W02
	.byte Bn6, v048 @ N12
	.byte W60
	.byte W02
	.byte W96
	.byte W72
	.byte W02
	.byte Bn6, v060 @ N12
	.byte W22
	.byte W96
	.byte W96
	.byte W96
	.byte GOTO
		.word track_31_lbl_2628da
	.byte FINE

.align 2

track_31:
	.byte 5
	.byte 31
	.byte 130
	.byte 128
	.word 0x80a5e3c
	.word track_31_0
	.word track_31_1
	.word track_31_2
	.word track_31_3
	.word track_31_4

.align 2
