.align 2

.global track_44

track_44_0:
	.byte KEYSH, 0
	.byte TEMPO, 66
	.byte VOICE, 29
	.byte VOL, 70
	.byte PAN, c_v
	.byte PRIO, 110
	.byte N04, En3, v048
	.byte W08
	.byte En3, v028 @ N04
	.byte W08
	.byte En3, v040 @ N04
	.byte W08
	.byte Dn3, v060 @ N04
	.byte W08
	.byte En3, v052 @ N04
	.byte W08
	.byte Fn3, v056 @ N04
	.byte W56
	.byte En3, v044 @ N04
	.byte W08
	.byte En3, v028 @ N04
	.byte W08
	.byte En3, v048 @ N04
	.byte W08
	.byte Dn3, v064 @ N04
	.byte W08
	.byte En3, v056 @ N04
	.byte W08
	.byte Fn3, v044 @ N04
	.byte W08
	.byte An3, v060 @ N04
	.byte W08
	.byte Gs3 @ N04, v060
	.byte W40
track_44_lbl_2639de:
	.byte VOICE, 30
	.byte VOL, 49
	.byte W24
	.byte N06, En4, v076
	.byte W12
	.byte Ds4, v060 @ N06
	.byte W60
	.byte W24
	.byte Gn3 @ N06, v060
	.byte W12
	.byte Fn3 @ N06, v060
	.byte W60
	.byte W24
	.byte En4, v068 @ N06
	.byte W12
	.byte Ds4, v072 @ N06
	.byte W36
	.byte Gn3 @ N06, v072
	.byte W12
	.byte Fn3, v068 @ N06
	.byte W12
	.byte W24
	.byte Cn3, v088 @ N06
	.byte W12
	.byte Bn2, v076 @ N06
	.byte W12
	.byte As2, v088 @ N06
	.byte W08
	.byte Bn2, v068 @ N06
	.byte W08
	.byte Cn3, v076 @ N06
	.byte W08
	.byte Fn2, v080 @ N06
	.byte W08
	.byte Gn2 @ N06, v080
	.byte W08
	.byte Gs2, v092 @ N06
	.byte W08
	.byte N08, Bn2, v040
	.byte W08
	.byte Cn3 @ N08, v040
	.byte W08
	.byte Dn3 @ N08, v040
	.byte W08
	.byte N24, Gs3 @ v040
	.byte W32
	.byte N08, Fn3 @ v040
	.byte W08
	.byte Gs3 @ N08, v040
	.byte W08
	.byte Bn3 @ N08, v040
	.byte W08
	.byte Cn4 @ N08, v040
	.byte W08
	.byte Dn4 @ N08, v040
	.byte W08
	.byte N24, Cn4 @ v040
	.byte W32
	.byte N08, An3 @ v040
	.byte W08
	.byte Cn4 @ N08, v040
	.byte W08
	.byte N12, Dn4 @ v040
	.byte W02
	.byte VOL, 46
	.byte W01
	.byte 44 @ VOL
	.byte W01
	.byte 42 @ VOL
	.byte W01
	.byte 41 @ VOL
	.byte W01
	.byte 38 @ VOL
	.byte W01
	.byte 36 @ VOL
	.byte W01
	.byte 34 @ VOL
	.byte W01
	.byte 32 @ VOL
	.byte W01
	.byte 31 @ VOL
	.byte W01
	.byte 29 @ VOL
	.byte W13
	.byte 49 @ VOL
	.byte N08 @ Dn4, v040
	.byte W08
	.byte An3 @ N08, v040
	.byte W08
	.byte Dn4 @ N08, v040
	.byte W08
	.byte Bn3 @ N08, v040
	.byte W08
	.byte Cn4 @ N08, v040
	.byte W08
	.byte Dn4 @ N08, v040
	.byte W08
	.byte N24, Gs4 @ v040
	.byte W02
	.byte VOL, 52
	.byte W01
	.byte 53 @ VOL
	.byte W01
	.byte 54 @ VOL
	.byte W01
	.byte 55 @ VOL
	.byte W01
	.byte 57 @ VOL
	.byte W01
	.byte 58 @ VOL
	.byte W01
	.byte 59 @ VOL
	.byte W01
	.byte 60 @ VOL
	.byte W01
	.byte 61 @ VOL
	.byte W01
	.byte 63 @ VOL
	.byte W01
	.byte 64 @ VOL
	.byte W01
	.byte 65 @ VOL
	.byte W01
	.byte 66 @ VOL
	.byte W01
	.byte 68 @ VOL
	.byte W01
	.byte 68 @ VOL
	.byte W01
	.byte 70 @ VOL
	.byte W01
	.byte 71 @ VOL
	.byte W01
	.byte 72 @ VOL
	.byte W01
	.byte 73 @ VOL
	.byte W01
	.byte 75 @ VOL
	.byte W01
	.byte 75 @ VOL
	.byte W01
	.byte 77 @ VOL
	.byte W01
	.byte 78 @ VOL
	.byte W01
	.byte 80 @ VOL
	.byte W01
	.byte 80 @ VOL
	.byte W01
	.byte 82 @ VOL
	.byte W01
	.byte 83 @ VOL
	.byte W04
	.byte 49 @ VOL
	.byte N08, Fn4 @ v040
	.byte W08
	.byte Gs4 @ N08, v040
	.byte W08
	.byte Bn4 @ N08, v040
	.byte W08
	.byte Cn5 @ N08, v040
	.byte W08
	.byte Dn5 @ N08, v040
	.byte W08
	.byte N24, Cn5 @ v040
	.byte W32
	.byte N08, An4 @ v040
	.byte W08
	.byte Cn5 @ N08, v040
	.byte W08
	.byte Dn5 @ N08, v040
	.byte W24
	.byte N08 @ Dn5, v040
	.byte W08
	.byte An4 @ N08, v040
	.byte W08
	.byte Dn5 @ N08, v040
	.byte W08
	.byte N96, En5 @ v040
	.byte W96
	.byte W96
	.byte VOL, 28
	.byte N07, Gn3, v068
	.byte W24
	.byte Cn3 @ N07, v068
	.byte W24
	.byte N32, Cs3 @ v068
	.byte W32
	.byte N08, Fs3 @ v068
	.byte W08
	.byte Gs3 @ N08, v068
	.byte W08
	.byte Gn3, v056 @ N08
	.byte W08
	.byte Cn3 @ N08, v056
	.byte W08
	.byte Gn3 @ N08, v056
	.byte W08
	.byte Fn3 @ N08, v056
	.byte W08
	.byte Cs3 @ N08, v056
	.byte W08
	.byte Gs2 @ N08, v056
	.byte W08
	.byte Cs3, v052 @ N08
	.byte W08
	.byte Fn3 @ N08, v052
	.byte W08
	.byte Gs3 @ N08, v052
	.byte W08
	.byte Cs4 @ N08, v052
	.byte W08
	.byte Fn4 @ N08, v052
	.byte W08
	.byte Gs4, v056 @ N08
	.byte W08
	.byte VOL, 49
	.byte N96, As4, v032
	.byte W52
	.byte VOL, 48
	.byte W03
	.byte 46 @ VOL
	.byte W03
	.byte 45 @ VOL
	.byte W03
	.byte 43 @ VOL
	.byte W02
	.byte 42 @ VOL
	.byte W03
	.byte 41 @ VOL
	.byte W03
	.byte 39 @ VOL
	.byte W03
	.byte 38 @ VOL
	.byte W03
	.byte 36 @ VOL
	.byte W03
	.byte 35 @ VOL
	.byte W03
	.byte 34 @ VOL
	.byte W03
	.byte 32 @ VOL
	.byte W03
	.byte 31 @ VOL
	.byte W03
	.byte 29 @ VOL
	.byte W03
	.byte 28 @ VOL
	.byte W03
	.byte N08, Ds4, v056
	.byte W08
	.byte Bn3, v048 @ N08
	.byte W08
	.byte Ds4 @ N08, v048
	.byte W08
	.byte N36, Dn4 @ v048
	.byte W48
	.byte N12, Dn4, v056
	.byte W12
	.byte Ds4 @ N12, v056
	.byte W12
	.byte W24
	.byte N48, En4, v060
	.byte W48
	.byte N24, Bn3 @ v060
	.byte W24
	.byte N08, As3 @ v060
	.byte W24
	.byte N36, Fs4, v052
	.byte W48
	.byte N07, Fs3, v060
	.byte W16
	.byte N08, Gs3 @ v060
	.byte W08
	.byte N48, An3, v052
	.byte W48
	.byte Fs3 @ N48, v052
	.byte W48
	.byte N12, Gs3 @ v052
	.byte W24
	.byte N36, En4 @ v052
	.byte W48
	.byte N04, Bn3, v060
	.byte W08
	.byte N04 @ Bn3, v060
	.byte W08
	.byte N07, Bn3, v040
	.byte W08
	.byte N60, Cn4, v052
	.byte W72
	.byte N08, Cn4, v044
	.byte W08
	.byte An3 @ N08, v044
	.byte W08
	.byte Cn4 @ N08, v044
	.byte W08
	.byte N48, Dn4 @ v044
	.byte W72
	.byte N06, An3, v052
	.byte W16
	.byte N08, Bn3 @ v052
	.byte W08
	.byte N44, Cn4 @ v052
	.byte W48
	.byte N10 @ Cn4, v052
	.byte W24
	.byte N08, Cn4, v056
	.byte W08
	.byte Gs3, v052 @ N08
	.byte W08
	.byte Cn4 @ N08, v052
	.byte W08
	.byte N48, Dn4, v056
	.byte W64
	.byte N04, Dn4, v072
	.byte W08
	.byte N08, Dn4, v068
	.byte W08
	.byte Cn4 @ N08, v068
	.byte W08
	.byte Dn4, v060 @ N08
	.byte W08
	.byte N96, En4, v052
	.byte W96
	.byte VOICE, 6
	.byte VOL, 28
	.byte N48, Fs3, v032
	.byte W72
	.byte N05 @ Fs3, v032
	.byte W08
	.byte N05 @ Fs3, v032
	.byte W08
	.byte N05 @ Fs3, v032
	.byte W08
	.byte N48, Gn3 @ v032
	.byte W72
	.byte N05 @ Gn3, v032
	.byte W08
	.byte N05 @ Gn3, v032
	.byte W08
	.byte N05 @ Gn3, v032
	.byte W08
	.byte N08, An3 @ v032
	.byte W96
	.byte GOTO
		.word track_44_lbl_2639de
	.byte FINE

track_44_1:
	.byte KEYSH, 0
	.byte VOICE, 14
	.byte VOL, 70
	.byte PAN, c_v
	.byte PRIO, 109
	.byte W96
	.byte W96
track_44_lbl_263ba3:
	.byte VOICE, 14
	.byte VOL, 70
	.byte N06, En1, v088
	.byte W08
	.byte En1, v060 @ N06
	.byte W08
	.byte En1, v076 @ N06
	.byte W80
	.byte En1, v092 @ N06
	.byte W08
	.byte En1, v068 @ N06
	.byte W08
	.byte N08, En1, v084
	.byte W80
	.byte N06, En1, v100
	.byte W08
	.byte En1, v084 @ N06
	.byte W08
	.byte En1, v100 @ N06
	.byte W32
	.byte En1, v096 @ N06
	.byte W08
	.byte En1, v092 @ N06
	.byte W08
	.byte En1, v112 @ N06
	.byte W32
	.byte En1, v104 @ N06
	.byte W08
	.byte En1, v116 @ N06
	.byte W08
	.byte N06 @ En1, v116
	.byte W08
	.byte En1, v112 @ N06
	.byte W24
	.byte En1, v108 @ N06
	.byte W08
	.byte En1, v100 @ N06
	.byte W08
	.byte En1, v116 @ N06
	.byte W08
	.byte N06 @ En1, v116
	.byte W08
	.byte En1, v108 @ N06
	.byte W08
	.byte En1, v116 @ N06
	.byte W08
track_44_lbl_263bea:
	.byte N12, En1, v100
	.byte W12
	.byte En1, v084 @ N12
	.byte W24
	.byte En1, v092 @ N12
	.byte W24
	.byte N12 @ En1, v092
	.byte W24
	.byte N12 @ En1, v092
	.byte W12
	.byte PEND
track_44_lbl_263bf9:
	.byte N12, Fn1, v100
	.byte W12
	.byte Fn1, v084 @ N12
	.byte W24
	.byte Fn1, v092 @ N12
	.byte W24
	.byte N12 @ Fn1, v092
	.byte W24
	.byte N12 @ Fn1, v092
	.byte W12
	.byte PEND
	.byte PATT
		.word track_44_lbl_263bea
	.byte PATT
		.word track_44_lbl_263bf9
	.byte N12, An1, v088
	.byte W12
	.byte An1, v076 @ N12
	.byte W24
	.byte An1, v084 @ N12
	.byte W24
	.byte An1, v080 @ N12
	.byte W24
	.byte N12 @ An1, v080
	.byte W12
	.byte N08, An1, v100
	.byte W08
	.byte An1, v084 @ N08
	.byte W08
	.byte N08 @ An1, v084
	.byte W08
	.byte N06, An2, v120
	.byte W12
	.byte En2, v072 @ N06
	.byte W12
	.byte N08, An1 @ v072
	.byte W12
	.byte N12, An0, v100
	.byte W36
	.byte VOICE, 14
	.byte VOL, 85
	.byte N08, Cn2, v064
	.byte W24
	.byte N05 @ Cn2, v064
	.byte W08
	.byte N05 @ Cn2, v064
	.byte W08
	.byte N05 @ Cn2, v064
	.byte W08
	.byte N05 @ Cn2, v064
	.byte W12
	.byte N06 @ Cn2, v064
	.byte W24
	.byte N06 @ Cn2, v064
	.byte W12
	.byte N08 @ Cn2, v064
	.byte W24
	.byte N05 @ Cn2, v064
	.byte W08
	.byte N05 @ Cn2, v064
	.byte W08
	.byte N05 @ Cn2, v064
	.byte W08
	.byte N05 @ Cn2, v064
	.byte W12
	.byte N06 @ Cn2, v064
	.byte W24
	.byte N06 @ Cn2, v064
	.byte W12
	.byte N08, Ds1, v084
	.byte W24
	.byte N05 @ Ds1, v084
	.byte W08
	.byte N05 @ Ds1, v084
	.byte W08
	.byte N05 @ Ds1, v084
	.byte W08
	.byte N05 @ Ds1, v084
	.byte W12
	.byte N06 @ Ds1, v084
	.byte W36
	.byte N08, Ds1, v096
	.byte W24
	.byte N05 @ Ds1, v096
	.byte W08
	.byte N05 @ Ds1, v096
	.byte W08
	.byte N05 @ Ds1, v096
	.byte W08
	.byte N05 @ Ds1, v096
	.byte W12
	.byte N06 @ Ds1, v096
	.byte W12
	.byte N04, Ds1, v080
	.byte W08
	.byte N04 @ Ds1, v080
	.byte W08
	.byte N04 @ Ds1, v080
	.byte W08
track_44_lbl_263c7e:
	.byte N05, En1, v096
	.byte W12
	.byte N05 @ En1, v096
	.byte W24
	.byte N05 @ En1, v096
	.byte W24
	.byte N05 @ En1, v096
	.byte W24
	.byte N05 @ En1, v096
	.byte W12
	.byte PEND
	.byte PATT
		.word track_44_lbl_263c7e
	.byte N05, Ds1, v096
	.byte W12
	.byte N05 @ Ds1, v096
	.byte W24
	.byte N05 @ Ds1, v096
	.byte W24
	.byte N05 @ Ds1, v096
	.byte W24
	.byte N05 @ Ds1, v096
	.byte W12
	.byte Dn1 @ N05, v096
	.byte W12
	.byte N05 @ Dn1, v096
	.byte W12
	.byte N05 @ Dn1, v096
	.byte W08
	.byte N05 @ Dn1, v096
	.byte W08
	.byte N05 @ Dn1, v096
	.byte W08
	.byte N05 @ Dn1, v096
	.byte W12
	.byte N06 @ Dn1, v096
	.byte W12
	.byte N06 @ Dn1, v096
	.byte W12
	.byte N05 @ Dn1, v096
	.byte W12
track_44_lbl_263cae:
	.byte N05, Cn1, v100
	.byte W12
	.byte N05 @ Cn1, v100
	.byte W24
	.byte N05 @ Cn1, v100
	.byte W24
	.byte N05 @ Cn1, v100
	.byte W24
	.byte N05 @ Cn1, v100
	.byte W12
	.byte PEND
	.byte PATT
		.word track_44_lbl_263cae
track_44_lbl_263cc0:
	.byte N05, Ds1, v100
	.byte W12
	.byte N05 @ Ds1, v100
	.byte W24
	.byte N05 @ Ds1, v100
	.byte W24
	.byte N05 @ Ds1, v100
	.byte W24
	.byte N05 @ Ds1, v100
	.byte W12
	.byte PEND
	.byte PATT
		.word track_44_lbl_263cc0
	.byte PATT
		.word track_44_lbl_263cae
	.byte PATT
		.word track_44_lbl_263cae
	.byte PATT
		.word track_44_lbl_263cae
	.byte N05, Cn1, v100
	.byte W12
	.byte N05 @ Cn1, v100
	.byte W12
	.byte N08, Cn1, v092
	.byte W08
	.byte Cn1, v096 @ N08
	.byte W08
	.byte Cn1, v100 @ N08
	.byte W08
	.byte Cn1, v104 @ N08
	.byte W08
	.byte Cn1, v108 @ N08
	.byte W08
	.byte Cn1, v112 @ N08
	.byte W08
	.byte Cn1, v116 @ N08
	.byte W08
	.byte Cn1, v120 @ N08
	.byte W08
	.byte Cn1, v124 @ N08
	.byte W08
	.byte GOTO
		.word track_44_lbl_263ba3
	.byte FINE

track_44_2:
	.byte KEYSH, 0
	.byte VOICE, 0
	.byte VOL, 70
	.byte PAN, c_v+10
	.byte PRIO, 108
	.byte W48
	.byte N07, Bn5, v024
	.byte W08
	.byte Bn5, v016 @ N07
	.byte W08
	.byte Bn5, v032 @ N07
	.byte W08
	.byte N07 @ Bn5, v032
	.byte W08
	.byte Bn5, v056 @ N07
	.byte W16
	.byte W72
	.byte Bn5, v028 @ N07
	.byte W08
	.byte Bn5, v024 @ N07
	.byte W08
	.byte Bn5, v060 @ N07
	.byte W08
track_44_lbl_263d2d:
	.byte VOICE, 0
	.byte VOL, 70
	.byte W72
	.byte N07, Bn5, v040
	.byte W08
	.byte Bn5, v032 @ N07
	.byte W08
	.byte Bn5, v068 @ N07
	.byte W08
	.byte W48
	.byte Bn5, v048 @ N07
	.byte W08
	.byte Bn5, v044 @ N07
	.byte W08
	.byte Bn5, v080 @ N07
	.byte W08
	.byte Bn5, v048 @ N07
	.byte W08
	.byte Bn5, v044 @ N07
	.byte W08
	.byte Bn5, v080 @ N07
	.byte W08
	.byte Bn5, v024 @ N07
	.byte W08
	.byte Bn5, v016 @ N07
	.byte W08
	.byte Bn5, v032 @ N07
	.byte W32
	.byte N07 @ Bn5, v032
	.byte W08
	.byte Bn5, v056 @ N07
	.byte W08
	.byte Bn5, v016 @ N07
	.byte W08
	.byte Bn5, v032 @ N07
	.byte W08
	.byte Bn5, v056 @ N07
	.byte W16
	.byte VOICE, 29
	.byte VOL, 56
	.byte W24
	.byte N05, An2, v112
	.byte W12
	.byte N05 @ An2, v112
	.byte W12
	.byte N05 @ An2, v112
	.byte W08
	.byte N05 @ An2, v112
	.byte W08
	.byte N05 @ An2, v112
	.byte W16
	.byte Fn2 @ N05, v112
	.byte W08
	.byte N05 @ Fn2, v112
	.byte W08
	.byte VOICE, 26
	.byte VOL, 56
	.byte W24
	.byte N08, En2, v100
	.byte W08
	.byte Gs2, v060 @ N08
	.byte W08
	.byte Bn2 @ N08, v060
	.byte W08
	.byte N48, Dn3 @ v060
	.byte W48
	.byte Cn3 @ N48, v060
	.byte W96
	.byte VOICE, 29
	.byte VOL, 28
	.byte N96, En3, v052
	.byte W04
	.byte VOL, 29
	.byte W03
	.byte 31 @ VOL
	.byte W02
	.byte 32 @ VOL
	.byte W02
	.byte 34 @ VOL
	.byte W03
	.byte 35 @ VOL
	.byte W02
	.byte 36 @ VOL
	.byte W03
	.byte 38 @ VOL
	.byte W02
	.byte 39 @ VOL
	.byte W02
	.byte 41 @ VOL
	.byte W03
	.byte 42 @ VOL
	.byte W02
	.byte 43 @ VOL
	.byte W03
	.byte 45 @ VOL
	.byte W02
	.byte 46 @ VOL
	.byte W02
	.byte 48 @ VOL
	.byte W03
	.byte 49 @ VOL
	.byte W02
	.byte 51 @ VOL
	.byte W03
	.byte 52 @ VOL
	.byte W02
	.byte 53 @ VOL
	.byte W02
	.byte 55 @ VOL
	.byte W03
	.byte 56 @ VOL
	.byte W02
	.byte 58 @ VOL
	.byte W03
	.byte 59 @ VOL
	.byte W02
	.byte 60 @ VOL
	.byte W02
	.byte 62 @ VOL
	.byte W03
	.byte 63 @ VOL
	.byte W02
	.byte 65 @ VOL
	.byte W03
	.byte 66 @ VOL
	.byte W02
	.byte 68 @ VOL
	.byte W02
	.byte 69 @ VOL
	.byte W03
	.byte 70 @ VOL
	.byte W02
	.byte 72 @ VOL
	.byte W03
	.byte 73 @ VOL
	.byte W02
	.byte 75 @ VOL
	.byte W02
	.byte 76 @ VOL
	.byte W03
	.byte 77 @ VOL
	.byte W02
	.byte 79 @ VOL
	.byte W02
	.byte 80 @ VOL
	.byte W03
	.byte 82 @ VOL
	.byte W02
	.byte 83 @ VOL
	.byte W01
	.byte 56 @ VOL
	.byte N96, Fn3, v040
	.byte W96
	.byte VOICE, 30
	.byte W12
	.byte N06, An2, v032
	.byte W06
	.byte Bn2 @ N06, v032
	.byte W06
	.byte Cs3 @ N06, v032
	.byte W06
	.byte Dn3 @ N06, v032
	.byte W06
	.byte En3 @ N06, v032
	.byte W06
	.byte Fs3 @ N06, v032
	.byte W06
	.byte Gs3 @ N06, v032
	.byte W06
	.byte An3 @ N06, v032
	.byte W06
	.byte Bn3 @ N06, v032
	.byte W06
	.byte Cs4 @ N06, v032
	.byte W06
	.byte Dn4, v036 @ N06
	.byte W06
	.byte En4 @ N06, v036
	.byte W06
	.byte Fs4, v040 @ N06
	.byte W06
	.byte Gs4 @ N06, v040
	.byte W06
	.byte N04, En5 @ v040
	.byte W06
	.byte Ds5 @ N04, v040
	.byte W06
	.byte Cs5 @ N04, v040
	.byte W06
	.byte Bn4, v036 @ N04
	.byte W06
	.byte An4, v032 @ N04
	.byte W72
	.byte VOICE, 20
	.byte VOL, 70
	.byte N92, Cn1, v108
	.byte W96
	.byte N92 @ Cn1, v108
	.byte W96
	.byte VOICE, 6
	.byte VOL, 49
	.byte N07, As3, v040
	.byte W24
	.byte Ds3 @ N07, v040
	.byte W24
	.byte N32, En3 @ v040
	.byte W32
	.byte N08, An3 @ v040
	.byte W08
	.byte Bn3 @ N08, v040
	.byte W08
	.byte VOICE, 26
	.byte VOL, 13
	.byte N48, As3, v020
	.byte W01
	.byte VOL, 14
	.byte W02
	.byte 14 @ VOL
	.byte W01
	.byte 15 @ VOL
	.byte W01
	.byte 16 @ VOL
	.byte W02
	.byte 17 @ VOL
	.byte W01
	.byte 17 @ VOL
	.byte W02
	.byte 18 @ VOL
	.byte W01
	.byte 19 @ VOL
	.byte W01
	.byte 19 @ VOL
	.byte W02
	.byte 20 @ VOL
	.byte W01
	.byte 21 @ VOL
	.byte W02
	.byte 21 @ VOL
	.byte W01
	.byte 22 @ VOL
	.byte W02
	.byte 23 @ VOL
	.byte W01
	.byte 24 @ VOL
	.byte W03
	.byte 25 @ VOL
	.byte W03
	.byte 26 @ VOL
	.byte W02
	.byte 28 @ VOL
	.byte W03
	.byte 29 @ VOL
	.byte W03
	.byte 31 @ VOL
	.byte W03
	.byte 32 @ VOL
	.byte W03
	.byte 34 @ VOL
	.byte W03
	.byte 35 @ VOL
	.byte W02
	.byte 36 @ VOL
	.byte W02
	.byte N48, Bn3 @ v020
	.byte W01
	.byte VOL, 38
	.byte W03
	.byte 39 @ VOL
	.byte W03
	.byte 41 @ VOL
	.byte W03
	.byte 42 @ VOL
	.byte W02
	.byte 43 @ VOL
	.byte W03
	.byte 45 @ VOL
	.byte W03
	.byte 46 @ VOL
	.byte W03
	.byte 48 @ VOL
	.byte W03
	.byte 49 @ VOL
	.byte W03
	.byte 51 @ VOL
	.byte W02
	.byte 52 @ VOL
	.byte W03
	.byte 53 @ VOL
	.byte W03
	.byte 55 @ VOL
	.byte W03
	.byte 56 @ VOL
	.byte W03
	.byte 58 @ VOL
	.byte W03
	.byte 59 @ VOL
	.byte W02
	.byte 60 @ VOL
	.byte W02
	.byte VOICE, 20
	.byte VOL, 21
	.byte N92, En1, v088
	.byte W03
	.byte VOL, 22
	.byte W01
	.byte 24 @ VOL
	.byte W01
	.byte 25 @ VOL
	.byte W01
	.byte 26 @ VOL
	.byte W01
	.byte 28 @ VOL
	.byte W01
	.byte 29 @ VOL
	.byte W01
	.byte 31 @ VOL
	.byte W01
	.byte 32 @ VOL
	.byte W01
	.byte 33 @ VOL
	.byte W01
	.byte 34 @ VOL
	.byte W01
	.byte 36 @ VOL
	.byte W01
	.byte 37 @ VOL
	.byte W01
	.byte 38 @ VOL
	.byte W01
	.byte 40 @ VOL
	.byte W01
	.byte 41 @ VOL
	.byte W01
	.byte 43 @ VOL
	.byte W01
	.byte 44 @ VOL
	.byte W01
	.byte 46 @ VOL
	.byte W01
	.byte 47 @ VOL
	.byte W01
	.byte 48 @ VOL
	.byte W01
	.byte 50 @ VOL
	.byte W01
	.byte 51 @ VOL
	.byte W01
	.byte 53 @ VOL
	.byte W01
	.byte 54 @ VOL
	.byte W01
	.byte 55 @ VOL
	.byte W01
	.byte 57 @ VOL
	.byte W01
	.byte 58 @ VOL
	.byte W01
	.byte 59 @ VOL
	.byte W01
	.byte 60 @ VOL
	.byte W01
	.byte 62 @ VOL
	.byte W01
	.byte 63 @ VOL
	.byte W01
	.byte 65 @ VOL
	.byte W01
	.byte 66 @ VOL
	.byte W01
	.byte 68 @ VOL
	.byte W01
	.byte 70 @ VOL
	.byte W56
	.byte W03
	.byte N92, En1, v096
	.byte W96
	.byte Ds1 @ N92, v096
	.byte W96
	.byte VOL, 24
	.byte N92, Dn1 @ v096
	.byte W03
	.byte VOL, 25
	.byte W03
	.byte 26 @ VOL
	.byte W02
	.byte 28 @ VOL
	.byte W02
	.byte 29 @ VOL
	.byte W03
	.byte 31 @ VOL
	.byte W02
	.byte 32 @ VOL
	.byte W02
	.byte 34 @ VOL
	.byte W03
	.byte 35 @ VOL
	.byte W02
	.byte 36 @ VOL
	.byte W03
	.byte 38 @ VOL
	.byte W02
	.byte 39 @ VOL
	.byte W02
	.byte 41 @ VOL
	.byte W03
	.byte 42 @ VOL
	.byte W02
	.byte 43 @ VOL
	.byte W02
	.byte 45 @ VOL
	.byte W03
	.byte 46 @ VOL
	.byte W02
	.byte 48 @ VOL
	.byte W02
	.byte 49 @ VOL
	.byte W03
	.byte 51 @ VOL
	.byte W02
	.byte 52 @ VOL
	.byte W03
	.byte 53 @ VOL
	.byte W02
	.byte 55 @ VOL
	.byte W02
	.byte 56 @ VOL
	.byte W03
	.byte 58 @ VOL
	.byte W02
	.byte 59 @ VOL
	.byte W02
	.byte 60 @ VOL
	.byte W03
	.byte 62 @ VOL
	.byte W02
	.byte 63 @ VOL
	.byte W02
	.byte 65 @ VOL
	.byte W03
	.byte 66 @ VOL
	.byte W02
	.byte 68 @ VOL
	.byte W03
	.byte 69 @ VOL
	.byte W02
	.byte 70 @ VOL
	.byte W02
	.byte 72 @ VOL
	.byte W03
	.byte 73 @ VOL
	.byte W02
	.byte 75 @ VOL
	.byte W02
	.byte 76 @ VOL
	.byte W03
	.byte 77 @ VOL
	.byte W02
	.byte 79 @ VOL
	.byte W02
	.byte 80 @ VOL
	.byte W01
	.byte W24
	.byte VOICE, 26
	.byte VOL, 28
	.byte N06, Fn3, v036
	.byte W08
	.byte Cn3 @ N06, v036
	.byte W08
	.byte Fn3 @ N06, v036
	.byte W08
	.byte N48, An3 @ v036
	.byte W48
	.byte VOL, 32
	.byte N84, Gn3, v020
	.byte W06
	.byte VOL, 34
	.byte W03
	.byte 35 @ VOL
	.byte W04
	.byte 36 @ VOL
	.byte W03
	.byte 38 @ VOL
	.byte W03
	.byte 39 @ VOL
	.byte W03
	.byte 41 @ VOL
	.byte W04
	.byte 42 @ VOL
	.byte W03
	.byte 43 @ VOL
	.byte W03
	.byte 45 @ VOL
	.byte W04
	.byte 46 @ VOL
	.byte W03
	.byte 48 @ VOL
	.byte W03
	.byte 49 @ VOL
	.byte W04
	.byte 51 @ VOL
	.byte W02
	.byte 51 @ VOL
	.byte W01
	.byte 52 @ VOL
	.byte W03
	.byte 53 @ VOL
	.byte W03
	.byte 55 @ VOL
	.byte W04
	.byte 56 @ VOL
	.byte W03
	.byte 58 @ VOL
	.byte W03
	.byte 59 @ VOL
	.byte W04
	.byte 60 @ VOL
	.byte W03
	.byte 62 @ VOL
	.byte W03
	.byte 63 @ VOL
	.byte W04
	.byte 65 @ VOL
	.byte W03
	.byte 66 @ VOL
	.byte W14
	.byte 28 @ VOL
	.byte N84, Ds3, v032
	.byte W02
	.byte VOL, 29
	.byte W08
	.byte 31 @ VOL
	.byte W09
	.byte 32 @ VOL
	.byte W10
	.byte 34 @ VOL
	.byte W09
	.byte 35 @ VOL
	.byte W10
	.byte 36 @ VOL
	.byte W09
	.byte 38 @ VOL
	.byte W09
	.byte 39 @ VOL
	.byte W10
	.byte 41 @ VOL
	.byte W09
	.byte 42 @ VOL
	.byte W10
	.byte 43 @ VOL
	.byte W01
	.byte N84, Fn3 @ v032
	.byte W08
	.byte VOL, 45
	.byte W10
	.byte 46 @ VOL
	.byte W09
	.byte 48 @ VOL
	.byte W10
	.byte 49 @ VOL
	.byte W09
	.byte 51 @ VOL
	.byte W10
	.byte 52 @ VOL
	.byte W09
	.byte 53 @ VOL
	.byte W10
	.byte 55 @ VOL
	.byte W09
	.byte 56 @ VOL
	.byte W10
	.byte 58 @ VOL
	.byte W02
	.byte 55 @ VOL
	.byte N60, Gn3, v040
	.byte W01
	.byte VOL, 55
	.byte W01
	.byte 55 @ VOL
	.byte W01
	.byte 54 @ VOL
	.byte W02
	.byte 53 @ VOL
	.byte W04
	.byte 52 @ VOL
	.byte W04
	.byte 51 @ VOL
	.byte W04
	.byte 49 @ VOL
	.byte W04
	.byte 48 @ VOL
	.byte W04
	.byte 46 @ VOL
	.byte W03
	.byte 45 @ VOL
	.byte W04
	.byte 43 @ VOL
	.byte W04
	.byte 42 @ VOL
	.byte W04
	.byte 41 @ VOL
	.byte W04
	.byte 39 @ VOL
	.byte W04
	.byte 38 @ VOL
	.byte W03
	.byte 36 @ VOL
	.byte W04
	.byte 35 @ VOL
	.byte W17
	.byte 28 @ VOL
	.byte N08 @ Gn3, v040
	.byte W08
	.byte En3 @ N08, v040
	.byte W08
	.byte Cn3 @ N08, v040
	.byte W08
	.byte N60, An3 @ v040
	.byte W72
	.byte N08 @ An3, v040
	.byte W08
	.byte Cn3 @ N08, v040
	.byte W08
	.byte An3, v052 @ N08
	.byte W08
	.byte N60, As3 @ v052
	.byte W72
	.byte N05 @ As3, v052
	.byte W08
	.byte N08 @ As3, v052
	.byte W16
	.byte N12, Cn4 @ v052
	.byte W24
	.byte VOICE, 6
	.byte VOL, 28
	.byte N05, An4, v032
	.byte W08
	.byte An4, v036 @ N05
	.byte W08
	.byte An4, v040 @ N05
	.byte W08
	.byte An4, v052 @ N05
	.byte W08
	.byte An4, v056 @ N05
	.byte W08
	.byte An4, v060 @ N05
	.byte W08
	.byte An4, v072 @ N05
	.byte W08
	.byte An4, v076 @ N05
	.byte W08
	.byte An4, v080 @ N05
	.byte W08
	.byte GOTO
		.word track_44_lbl_263d2d
	.byte FINE

track_44_3:
	.byte KEYSH, 0
	.byte PAN, c_v
	.byte PRIO, 30
	.byte W96
	.byte W96
track_44_lbl_26402f:
	.byte W96
	.byte W96
	.byte W96
	.byte VOICE, 6
	.byte W24
	.byte VOL, 5
	.byte N72, Bn3, v080, 77
	.byte W02
	.byte VOL, 6
	.byte W01
	.byte 7 @ VOL
	.byte W01
	.byte 7 @ VOL
	.byte W02
	.byte 8 @ VOL
	.byte W01
	.byte 9 @ VOL
	.byte W01
	.byte 9 @ VOL
	.byte W02
	.byte 10 @ VOL
	.byte W01
	.byte 11 @ VOL
	.byte W01
	.byte 12 @ VOL
	.byte W02
	.byte 12 @ VOL
	.byte W01
	.byte 13 @ VOL
	.byte W01
	.byte 14 @ VOL
	.byte W02
	.byte 14 @ VOL
	.byte W01
	.byte 15 @ VOL
	.byte W01
	.byte 16 @ VOL
	.byte W02
	.byte 17 @ VOL
	.byte W01
	.byte 17 @ VOL
	.byte W01
	.byte 18 @ VOL
	.byte W01
	.byte 18 @ VOL
	.byte W01
	.byte 19 @ VOL
	.byte W01
	.byte 19 @ VOL
	.byte W01
	.byte 20 @ VOL
	.byte W02
	.byte 21 @ VOL
	.byte W01
	.byte 21 @ VOL
	.byte W01
	.byte 22 @ VOL
	.byte W02
	.byte 23 @ VOL
	.byte W01
	.byte 24 @ VOL
	.byte W01
	.byte 24 @ VOL
	.byte W02
	.byte 25 @ VOL
	.byte W01
	.byte 26 @ VOL
	.byte W01
	.byte 26 @ VOL
	.byte W02
	.byte 27 @ VOL
	.byte W01
	.byte 28 @ VOL
	.byte W01
	.byte 29 @ VOL
	.byte W02
	.byte 29 @ VOL
	.byte W01
	.byte 30 @ VOL
	.byte W01
	.byte 31 @ VOL
	.byte W01
	.byte 31 @ VOL
	.byte W02
	.byte 32 @ VOL
	.byte W01
	.byte 33 @ VOL
	.byte W01
	.byte 34 @ VOL
	.byte W02
	.byte 34 @ VOL
	.byte W01
	.byte 35 @ VOL
	.byte W01
	.byte 36 @ VOL
	.byte W02
	.byte 36 @ VOL
	.byte W01
	.byte 37 @ VOL
	.byte W01
	.byte 38 @ VOL
	.byte W02
	.byte 38 @ VOL
	.byte W01
	.byte 39 @ VOL
	.byte W01
	.byte 40 @ VOL
	.byte W02
	.byte 41 @ VOL
	.byte W01
	.byte 41 @ VOL
	.byte W01
	.byte 42 @ VOL
	.byte W02
	.byte 43 @ VOL
	.byte W01
	.byte N05, Bn3, v020, 76
	.byte W08
	.byte Bn3 @ N05, v020
	.byte N05, En4 @ v020
	.byte W16
	.byte Bn2, v032, 64 @ N05
	.byte W08
	.byte Bn2 @ N05, v032
	.byte N05, En3 @ v032
	.byte W64
	.byte Cn4, v020, 77 @ N05
	.byte W08
	.byte Cn4 @ N05, v020
	.byte N05, Fn4 @ v020
	.byte W16
	.byte Cn3, v040, 65 @ N05
	.byte W08
	.byte Cn3 @ N05, v040
	.byte N05, Fn3 @ v040
	.byte W16
	.byte Cn3, v032, 65 @ N05
	.byte W08
	.byte Cn3 @ N05, v032
	.byte N05, Fn3 @ v032
	.byte W16
	.byte Cn3 @ N05, v032
	.byte N05, Fn3 @ v032
	.byte W08
	.byte Cn3 @ N05, v032
	.byte N05, Fn3 @ v032
	.byte W16
	.byte W24
	.byte N08, En3 @ v032
	.byte W08
	.byte Gs3 @ N08, v032
	.byte W08
	.byte Bn3 @ N08, v032
	.byte W08
	.byte N48, Dn4 @ v032
	.byte W48
	.byte N08, Cn4, v052
	.byte W08
	.byte Fn3 @ N08, v052
	.byte W08
	.byte Cn4 @ N08, v052
	.byte W08
	.byte Fn4 @ N08, v052
	.byte W08
	.byte Cn4 @ N08, v052
	.byte W08
	.byte Fn3 @ N08, v052
	.byte W08
	.byte Cn3 @ N08, v052
	.byte W08
	.byte Fn2 @ N08, v052
	.byte W08
	.byte Cn3 @ N08, v052
	.byte W08
	.byte Fn3 @ N08, v052
	.byte W08
	.byte Cn4 @ N08, v052
	.byte W08
	.byte Fn4 @ N08, v052
	.byte W08
	.byte N96, An3, v032, 73
	.byte W96
	.byte W96
	.byte VOICE, 26
	.byte VOL, 28
	.byte N48, Gn3, v020
	.byte W48
	.byte Fs3 @ N48, v020
	.byte W48
	.byte Gn3 @ N48, v020
	.byte W48
	.byte Gs3 @ N48, v020
	.byte W48
	.byte As3 @ N48, v020
	.byte W48
	.byte An3 @ N48, v020
	.byte W48
	.byte W96
	.byte VOICE, 0
	.byte VOL, 70
	.byte W72
	.byte N36, Cs2, v040
	.byte W24
	.byte W96
	.byte W96
	.byte W96
	.byte VOICE, 6
	.byte VOL, 70
	.byte N92, Cn1, v096
	.byte W96
	.byte N92 @ Cn1, v096
	.byte W96
	.byte Ds1 @ N92, v096
	.byte W96
	.byte VOICE, 6
	.byte VOL, 70
	.byte N92 @ Ds1, v096
	.byte W96
	.byte Cn1 @ N92, v096
	.byte W96
	.byte N92 @ Cn1, v096
	.byte W96
	.byte N92 @ Cn1, v096
	.byte W96
	.byte VOL, 46
	.byte N92 @ Cn1, v096
	.byte W05
	.byte VOL, 48
	.byte W03
	.byte 49 @ VOL
	.byte W03
	.byte 51 @ VOL
	.byte W04
	.byte 52 @ VOL
	.byte W03
	.byte 53 @ VOL
	.byte W03
	.byte 55 @ VOL
	.byte W03
	.byte 56 @ VOL
	.byte W04
	.byte 58 @ VOL
	.byte W03
	.byte 59 @ VOL
	.byte W03
	.byte 60 @ VOL
	.byte W03
	.byte 62 @ VOL
	.byte W03
	.byte 63 @ VOL
	.byte W04
	.byte 65 @ VOL
	.byte W03
	.byte 66 @ VOL
	.byte W03
	.byte 68 @ VOL
	.byte W03
	.byte 69 @ VOL
	.byte W04
	.byte 70 @ VOL
	.byte W03
	.byte 72 @ VOL
	.byte W03
	.byte 73 @ VOL
	.byte W03
	.byte 75 @ VOL
	.byte W03
	.byte 76 @ VOL
	.byte W04
	.byte 77 @ VOL
	.byte W03
	.byte 79 @ VOL
	.byte W03
	.byte 80 @ VOL
	.byte W03
	.byte 82 @ VOL
	.byte W04
	.byte 83 @ VOL
	.byte W03
	.byte 85 @ VOL
	.byte W03
	.byte 86 @ VOL
	.byte W03
	.byte 87 @ VOL
	.byte W01
	.byte GOTO
		.word track_44_lbl_26402f
	.byte FINE

track_44_4:
	.byte KEYSH, 0
	.byte PAN, c_v-10
	.byte PRIO, 29
	.byte W96
	.byte W96
track_44_lbl_264189:
	.byte W96
	.byte W96
	.byte W96
	.byte VOICE, 0
	.byte VOL, 70
	.byte N07, Bn5, v060
	.byte W08
	.byte Bn5, v036 @ N07
	.byte W08
	.byte Bn5, v052 @ N07
	.byte W08
	.byte Bn5, v044 @ N07
	.byte W08
	.byte Bn5, v036 @ N07
	.byte W08
	.byte Bn5, v052 @ N07
	.byte W08
	.byte Bn5, v044 @ N07
	.byte W08
	.byte Bn5, v036 @ N07
	.byte W08
	.byte Bn5, v052 @ N07
	.byte W08
	.byte N04 @ Bn5, v052
	.byte W04
	.byte N04 @ Bn5, v052
	.byte W04
	.byte N04 @ Bn5, v052
	.byte W04
	.byte Bn5, v072 @ N04
	.byte W04
	.byte N04 @ Bn5, v072
	.byte W04
	.byte N04 @ Bn5, v072
	.byte W04
	.byte N07, Bn5, v052
	.byte W12
	.byte Bn5, v040 @ N07
	.byte W24
	.byte N06, Bn5, v048
	.byte W06
	.byte N06 @ Bn5, v048
	.byte W06
	.byte N07 @ Bn5, v048
	.byte W12
	.byte N07 @ Bn5, v048
	.byte W12
	.byte N07 @ Bn5, v048
	.byte W08
	.byte N07 @ Bn5, v048
	.byte W08
	.byte N07 @ Bn5, v048
	.byte W08
	.byte Bn5, v052 @ N07
	.byte W12
	.byte Bn5, v040 @ N07
	.byte W24
	.byte N06, Bn5, v048
	.byte W06
	.byte N06 @ Bn5, v048
	.byte W06
	.byte N07, Bn5, v060
	.byte W12
	.byte Bn5, v048 @ N07
	.byte W12
	.byte N07 @ Bn5, v048
	.byte W08
	.byte N07 @ Bn5, v048
	.byte W08
	.byte N07 @ Bn5, v048
	.byte W08
track_44_lbl_2641e9:
	.byte N07, Bn5, v052
	.byte W12
	.byte Bn5, v040 @ N07
	.byte W24
	.byte Bn5, v048 @ N07
	.byte W24
	.byte N07 @ Bn5, v048
	.byte W12
	.byte N07 @ Bn5, v048
	.byte W08
	.byte N07 @ Bn5, v048
	.byte W08
	.byte N07 @ Bn5, v048
	.byte W08
	.byte PEND
	.byte PATT
		.word track_44_lbl_2641e9
	.byte N07, Bn5, v052
	.byte W12
	.byte Bn5, v040 @ N07
	.byte W12
	.byte Bn5, v048 @ N07
	.byte W36
	.byte N07 @ Bn5, v048
	.byte W12
	.byte N07 @ Bn5, v048
	.byte W08
	.byte N07 @ Bn5, v048
	.byte W08
	.byte N07 @ Bn5, v048
	.byte W08
	.byte W96
	.byte VOICE, 26
	.byte VOL, 28
	.byte N48, Cn3, v044
	.byte W48
	.byte Cs3 @ N48, v044
	.byte W48
	.byte Cn3 @ N48, v044
	.byte W48
	.byte Cs3 @ N48, v044
	.byte W48
	.byte VOICE, 32
	.byte VOL, 70
	.byte N92, Ds1, v088
	.byte W96
	.byte VOL, 59
	.byte N92 @ Ds1, v088
	.byte W04
	.byte VOL, 60
	.byte W05
	.byte 62 @ VOL
	.byte W05
	.byte 63 @ VOL
	.byte W04
	.byte 65 @ VOL
	.byte W05
	.byte 66 @ VOL
	.byte W03
	.byte 67 @ VOL
	.byte W02
	.byte 68 @ VOL
	.byte W05
	.byte 69 @ VOL
	.byte W05
	.byte 70 @ VOL
	.byte W04
	.byte 72 @ VOL
	.byte W05
	.byte 73 @ VOL
	.byte W05
	.byte 75 @ VOL
	.byte W05
	.byte 76 @ VOL
	.byte W05
	.byte 77 @ VOL
	.byte W04
	.byte 79 @ VOL
	.byte W05
	.byte 80 @ VOL
	.byte W05
	.byte 82 @ VOL
	.byte W05
	.byte 83 @ VOL
	.byte W15
	.byte VOICE, 6
	.byte VOL, 14
	.byte N96, Bn2, v032
	.byte W06
	.byte VOL, 15
	.byte W03
	.byte 17 @ VOL
	.byte W04
	.byte 18 @ VOL
	.byte W03
	.byte 19 @ VOL
	.byte W03
	.byte 21 @ VOL
	.byte W03
	.byte 22 @ VOL
	.byte W03
	.byte 24 @ VOL
	.byte W03
	.byte 25 @ VOL
	.byte W03
	.byte 26 @ VOL
	.byte W03
	.byte 28 @ VOL
	.byte W03
	.byte 29 @ VOL
	.byte W03
	.byte 31 @ VOL
	.byte W03
	.byte 32 @ VOL
	.byte W04
	.byte 34 @ VOL
	.byte W03
	.byte 35 @ VOL
	.byte W03
	.byte 36 @ VOL
	.byte W03
	.byte 38 @ VOL
	.byte W03
	.byte 39 @ VOL
	.byte W03
	.byte 41 @ VOL
	.byte W03
	.byte 42 @ VOL
	.byte W03
	.byte 43 @ VOL
	.byte W03
	.byte 45 @ VOL
	.byte W03
	.byte 46 @ VOL
	.byte W03
	.byte 48 @ VOL
	.byte W03
	.byte 49 @ VOL
	.byte W04
	.byte 51 @ VOL
	.byte W03
	.byte 52 @ VOL
	.byte W03
	.byte 53 @ VOL
	.byte W03
	.byte 55 @ VOL
	.byte W02
	.byte 58 @ VOL
	.byte W01
	.byte N72, As2 @ v032
	.byte W02
	.byte VOL, 56
	.byte W02
	.byte 55 @ VOL
	.byte W03
	.byte 53 @ VOL
	.byte W03
	.byte 52 @ VOL
	.byte W03
	.byte 51 @ VOL
	.byte W03
	.byte 49 @ VOL
	.byte W02
	.byte 48 @ VOL
	.byte W03
	.byte 46 @ VOL
	.byte W03
	.byte 45 @ VOL
	.byte W03
	.byte 43 @ VOL
	.byte W03
	.byte 42 @ VOL
	.byte W03
	.byte 41 @ VOL
	.byte W02
	.byte 39 @ VOL
	.byte W03
	.byte 38 @ VOL
	.byte W03
	.byte 36 @ VOL
	.byte W03
	.byte 35 @ VOL
	.byte W03
	.byte 34 @ VOL
	.byte W02
	.byte 32 @ VOL
	.byte W03
	.byte 31 @ VOL
	.byte W03
	.byte 29 @ VOL
	.byte W03
	.byte 28 @ VOL
	.byte W03
	.byte 26 @ VOL
	.byte W02
	.byte 25 @ VOL
	.byte W03
	.byte 24 @ VOL
	.byte W03
	.byte 22 @ VOL
	.byte W03
	.byte 21 @ VOL
	.byte W03
	.byte 19 @ VOL
	.byte W02
	.byte 18 @ VOL
	.byte W03
	.byte 17 @ VOL
	.byte W03
	.byte 15 @ VOL
	.byte W03
	.byte 14 @ VOL
	.byte W03
	.byte 12 @ VOL
	.byte W03
	.byte 11 @ VOL
	.byte W04
	.byte 28 @ VOL
	.byte N96, Bn2 @ v032
	.byte W96
	.byte VOL, 12
	.byte N96 @ Bn2, v032
	.byte W04
	.byte VOL, 14
	.byte W03
	.byte 15 @ VOL
	.byte W02
	.byte 17 @ VOL
	.byte W02
	.byte 18 @ VOL
	.byte W02
	.byte 19 @ VOL
	.byte W03
	.byte 21 @ VOL
	.byte W02
	.byte 22 @ VOL
	.byte W02
	.byte 24 @ VOL
	.byte W03
	.byte 25 @ VOL
	.byte W02
	.byte 26 @ VOL
	.byte W02
	.byte 28 @ VOL
	.byte W03
	.byte 29 @ VOL
	.byte W02
	.byte 31 @ VOL
	.byte W02
	.byte 32 @ VOL
	.byte W02
	.byte 34 @ VOL
	.byte W03
	.byte 35 @ VOL
	.byte W02
	.byte 36 @ VOL
	.byte W02
	.byte 38 @ VOL
	.byte W03
	.byte 39 @ VOL
	.byte W02
	.byte 41 @ VOL
	.byte W02
	.byte 42 @ VOL
	.byte W03
	.byte 43 @ VOL
	.byte W02
	.byte 45 @ VOL
	.byte W02
	.byte 46 @ VOL
	.byte W03
	.byte 48 @ VOL
	.byte W02
	.byte 49 @ VOL
	.byte W02
	.byte 51 @ VOL
	.byte W02
	.byte 52 @ VOL
	.byte W03
	.byte 53 @ VOL
	.byte W02
	.byte 55 @ VOL
	.byte W02
	.byte 56 @ VOL
	.byte W03
	.byte 58 @ VOL
	.byte W02
	.byte 59 @ VOL
	.byte W02
	.byte 60 @ VOL
	.byte W03
	.byte 62 @ VOL
	.byte W02
	.byte 63 @ VOL
	.byte W02
	.byte 65 @ VOL
	.byte W02
	.byte 66 @ VOL
	.byte W03
	.byte 68 @ VOL
	.byte W02
	.byte 69 @ VOL
	.byte W02
	.byte 28 @ VOL
	.byte N96, An2 @ v032
	.byte W96
	.byte Bn2 @ N96, v032
	.byte W96
	.byte N44, Gs2 @ v032
	.byte N44, Cn3 @ v032
	.byte W48
	.byte N10, Gs2 @ v032
	.byte N10, Cn3 @ v032
	.byte W24
	.byte N05, Gs2 @ v032
	.byte N05, Cn3 @ v032
	.byte W09
	.byte Gs2 @ N05, v032
	.byte N05, Cn3 @ v032
	.byte W15
	.byte N32, As2 @ v032
	.byte N32, Dn3 @ v032
	.byte W48
	.byte N12, As2, v040, 62
	.byte W24
	.byte As2 @ N12, v040
	.byte N12, Dn3 @ v040
	.byte W24
	.byte VOICE, 6
	.byte VOL, 28
	.byte N48, En3, v032
	.byte W72
	.byte N05 @ En3, v032
	.byte W08
	.byte N05 @ En3, v032
	.byte W08
	.byte N05 @ En3, v032
	.byte W08
	.byte W96
	.byte W96
	.byte W96
	.byte GOTO
		.word track_44_lbl_264189
	.byte FINE

track_44_5:
	.byte KEYSH, 0
	.byte PAN, c_v
	.byte PRIO, 30
	.byte W96
	.byte W96
track_44_lbl_26437d:
	.byte W96
	.byte W96
	.byte W96
	.byte W24
	.byte VOICE, 1
	.byte VOL, 49
	.byte N72, En1, v120
	.byte W72
	.byte N96, Gs2, v100
	.byte W96
	.byte An2, v080 @ N96
	.byte W96
	.byte W48
	.byte N48, Gs3, v092
	.byte W48
	.byte N96, An2, v080
	.byte W96
	.byte N96 @ An2, v080
	.byte W96
	.byte W96
	.byte W96
	.byte W96
	.byte W96
	.byte W96
	.byte Gn2, v072 @ N96
	.byte W96
	.byte N72, Fs2 @ v072
	.byte W96
	.byte N96 @ Fs2, v072
	.byte W96
	.byte Gs2 @ N96, v072
	.byte W96
	.byte Fn2 @ N96, v072
	.byte W96
	.byte Gn2 @ N96, v072
	.byte W96
	.byte N44, Ds2 @ v072
	.byte W48
	.byte N10 @ Ds2, v072
	.byte W24
	.byte N05 @ Ds2, v072
	.byte W09
	.byte N05 @ Ds2, v072
	.byte W15
	.byte N36, Fn2 @ v072
	.byte W48
	.byte N12 @ Fn2, v072
	.byte W24
	.byte N12 @ Fn2, v072
	.byte W24
	.byte N48, Cn3 @ v072
	.byte W72
	.byte N05 @ Cn3, v072
	.byte W08
	.byte N05 @ Cn3, v072
	.byte W08
	.byte N05 @ Cn3, v072
	.byte W08
	.byte N48, Dn3 @ v072
	.byte W72
	.byte N05 @ Dn3, v072
	.byte W08
	.byte N05 @ Dn3, v072
	.byte W08
	.byte N05 @ Dn3, v072
	.byte W08
	.byte N48, Ds3 @ v072
	.byte W72
	.byte N05 @ Ds3, v072
	.byte W08
	.byte N05 @ Ds3, v072
	.byte W08
	.byte N05 @ Ds3, v072
	.byte W08
	.byte N08, Fn3 @ v072
	.byte W24
	.byte N05, Fn4, v060
	.byte W08
	.byte Fn4, v064 @ N05
	.byte W08
	.byte Fn4, v068 @ N05
	.byte W08
	.byte Fn4, v084 @ N05
	.byte W08
	.byte N05 @ Fn4, v084
	.byte W08
	.byte Fn4, v088 @ N05
	.byte W08
	.byte Fn4, v104 @ N05
	.byte W08
	.byte Fn4, v108 @ N05
	.byte W08
	.byte Fn4, v112 @ N05
	.byte W08
	.byte GOTO
		.word track_44_lbl_26437d
	.byte FINE

track_44_6:
	.byte KEYSH, 0
	.byte PAN, c_v
	.byte PRIO, 1
	.byte W96
	.byte W96
track_44_lbl_264405:
	.byte W96
	.byte W96
	.byte W96
	.byte W96
	.byte VOICE, 24
	.byte VOL, 49
	.byte N96, En2, v100
	.byte W96
	.byte Fn2, v080 @ N96
	.byte W96
	.byte En2, v100 @ N96
	.byte W96
	.byte Fn2, v080 @ N96
	.byte W96
	.byte Cs3 @ N96, v080
	.byte W96
	.byte W96
	.byte W96
	.byte W96
	.byte W96
	.byte W96
	.byte W96
	.byte W96
	.byte W96
	.byte W96
	.byte W96
	.byte W96
	.byte W96
	.byte W96
	.byte W96
	.byte W96
	.byte W96
	.byte W96
	.byte GOTO
		.word track_44_lbl_264405
	.byte FINE

.align 2

track_44:
	.byte 7
	.byte 44
	.byte 130
	.byte 128
	.word 0x80a62f8
	.word track_44_0
	.word track_44_1
	.word track_44_2
	.word track_44_3
	.word track_44_4
	.word track_44_5
	.word track_44_6

.align 2
