.align 2

.global track_648

track_648_0:
	.byte KEYSH, 0
	.byte TEMPO, 75
	.byte VOICE, 19
	.byte VOL, 0
	.byte PAN, c_v
	.byte PRIO, 122
	.byte N92, An1, v127
	.byte W03
	.byte VOL, 8
	.byte W03
	.byte 16 @ VOL
	.byte W03
	.byte 22 @ VOL
	.byte W03
	.byte 29 @ VOL
	.byte W03
	.byte 34 @ VOL
	.byte W03
	.byte 40 @ VOL
	.byte W03
	.byte 44 @ VOL
	.byte W03
	.byte 49 @ VOL
	.byte W03
	.byte 52 @ VOL
	.byte W03
	.byte 56 @ VOL
	.byte W03
	.byte 59 @ VOL
	.byte W03
	.byte 61 @ VOL
	.byte W03
	.byte 62 @ VOL
	.byte W03
	.byte 63 @ VOL
	.byte W03
	.byte 64 @ VOL
	.byte W06
	.byte 63 @ VOL
	.byte W03
	.byte 62 @ VOL
	.byte W03
	.byte 61 @ VOL
	.byte W03
	.byte 58 @ VOL
	.byte W03
	.byte 55 @ VOL
	.byte W03
	.byte 52 @ VOL
	.byte W03
	.byte 48 @ VOL
	.byte W03
	.byte 44 @ VOL
	.byte W03
	.byte 38 @ VOL
	.byte W03
	.byte 33 @ VOL
	.byte W03
	.byte 27 @ VOL
	.byte W03
	.byte 20 @ VOL
	.byte W03
	.byte 13 @ VOL
	.byte W03
	.byte 5 @ VOL
	.byte W02
	.byte 0 @ VOL
	.byte W03
	.byte FINE

track_648_1:
	.byte KEYSH, 0
	.byte VOICE, 18
	.byte VOL, 94
	.byte PAN, c_v
	.byte PRIO, 122
	.byte N06, Cn2, v127
	.byte W06
	.byte Fn2 @ N06, v127
	.byte W06
	.byte N06 @ Fn2, v127
	.byte W06
	.byte N06 @ Fn2, v127
	.byte W06
	.byte N06 @ Fn2, v127
	.byte W06
	.byte N06 @ Fn2, v127
	.byte W06
	.byte N06 @ Fn2, v127
	.byte W06
	.byte N06 @ Fn2, v127
	.byte W06
	.byte N06 @ Fn2, v127
	.byte W44
	.byte W03
	.byte FINE

track_648_2:
	.byte KEYSH, 0
	.byte VOICE, 20
	.byte MOD, 60
	.byte VOL, 0
	.byte PAN, c_v
	.byte LFOS, 60
	.byte MODT, 1
	.byte PRIO, 122
	.byte N92, Cn3, v127
	.byte W03
	.byte VOL, 16
	.byte W03
	.byte 29 @ VOL
	.byte W03
	.byte 42 @ VOL
	.byte W03
	.byte 52 @ VOL
	.byte W03
	.byte 63 @ VOL
	.byte W03
	.byte 70 @ VOL
	.byte W03
	.byte 78 @ VOL
	.byte W03
	.byte 85 @ VOL
	.byte W03
	.byte 90 @ VOL
	.byte W03
	.byte 95 @ VOL
	.byte W03
	.byte 99 @ VOL
	.byte W03
	.byte 101 @ VOL
	.byte W03
	.byte 103 @ VOL
	.byte W03
	.byte 106 @ VOL
	.byte W03
	.byte 108 @ VOL
	.byte W03
	.byte 110 @ VOL
	.byte W03
	.byte 112 @ VOL
	.byte W03
	.byte 114 @ VOL
	.byte W03
	.byte 115 @ VOL
	.byte W03
	.byte 116 @ VOL
	.byte W03
	.byte 118 @ VOL
	.byte W06
	.byte 120 @ VOL
	.byte W02
	.byte 120 @ VOL
	.byte W03
	.byte 85 @ VOL
	.byte W03
	.byte 61 @ VOL
	.byte W03
	.byte 43 @ VOL
	.byte W03
	.byte 28 @ VOL
	.byte W03
	.byte 16 @ VOL
	.byte W03
	.byte 5 @ VOL
	.byte W03
	.byte 0 @ VOL
	.byte W03
	.byte FINE

track_648_3:
	.byte KEYSH, 0
	.byte VOICE, 21
	.byte VOL, 75
	.byte PAN, c_v
	.byte PRIO, 122
	.byte W06
	.byte N12, Gn3, v100
	.byte W12
	.byte N12 @ Gn3, v100
	.byte W12
	.byte N12 @ Gn3, v100
	.byte W12
	.byte N12 @ Gn3, v100
	.byte W12
	.byte N12 @ Gn3, v100
	.byte W12
	.byte VOL, 75
	.byte N12 @ Gn3, v100
	.byte W03
	.byte VOL, 67
	.byte W03
	.byte 58 @ VOL
	.byte W03
	.byte 50 @ VOL
	.byte W03
	.byte 41 @ VOL
	.byte N16 @ Gn3, v100
	.byte W03
	.byte VOL, 34
	.byte W03
	.byte 25 @ VOL
	.byte W03
	.byte 17 @ VOL
	.byte W03
	.byte 8 @ VOL
	.byte W03
	.byte 0 @ VOL
	.byte W02
	.byte FINE

track_648_4:
	.byte KEYSH, 0
	.byte VOICE, 22
	.byte VOL, 75
	.byte PAN, c_v
	.byte PRIO, 122
	.byte W11
	.byte N12, Cn3, v100
	.byte W12
	.byte Cn3, v080 @ N12
	.byte W12
	.byte Cn3, v120 @ N12
	.byte W12
	.byte Cn3, v100 @ N12
	.byte W12
	.byte N36, Cn3, v120
	.byte W24
	.byte W02
	.byte VOL, 75
	.byte W03
	.byte 59 @ VOL
	.byte W03
	.byte 24 @ VOL
	.byte W02
	.byte 0 @ VOL
	.byte W02
	.byte FINE

track_648_5:
	.byte KEYSH, 0
	.byte VOICE, 22
	.byte VOL, 37
	.byte PAN, c_v
	.byte PRIO, 122
	.byte W15
	.byte N12, Cn3, v100
	.byte W24
	.byte Cn3, v120 @ N12
	.byte W12
	.byte Cn3, v100 @ N12
	.byte W44
	.byte FINE

.align 2

track_648:
	.byte 6
	.byte 0
	.byte 129
	.byte 0
	.word 0x80a7e10
	.word track_648_0
	.word track_648_1
	.word track_648_2
	.word track_648_3
	.word track_648_4
	.word track_648_5

.align 2
