.align 2

.global track_10

track_10_0:
	.byte KEYSH, 0
	.byte TEMPO, 39
	.byte PAN, c_v+10
	.byte PRIO, 110
	.byte W96
	.byte W48
	.byte VOICE, 2
	.byte VOL, 8
	.byte N48, En4, v052
	.byte W04
	.byte VOL, 9
	.byte W02
	.byte 11 @ VOL
	.byte W02
	.byte 12 @ VOL
	.byte W03
	.byte 14 @ VOL
	.byte W03
	.byte 15 @ VOL
	.byte W03
	.byte 17 @ VOL
	.byte W03
	.byte 18 @ VOL
	.byte W04
	.byte 19 @ VOL
	.byte W03
	.byte 21 @ VOL
	.byte W03
	.byte 22 @ VOL
	.byte W03
	.byte 24 @ VOL
	.byte W03
	.byte 25 @ VOL
	.byte W03
	.byte 26 @ VOL
	.byte W03
	.byte 28 @ VOL
	.byte W03
	.byte 29 @ VOL
	.byte W02
	.byte 30 @ VOL
	.byte W01
	.byte 27 @ VOL
	.byte N12, Ds4 @ v052
	.byte W02
	.byte VOL, 26
	.byte W03
	.byte 26 @ VOL
	.byte W03
	.byte 25 @ VOL
	.byte W03
	.byte 24 @ VOL
	.byte W01
	.byte N12, Fs4 @ v052
	.byte W02
	.byte VOL, 24
	.byte W06
	.byte 22 @ VOL
	.byte W04
	.byte N12, Fn4 @ v052
	.byte W02
	.byte VOL, 21
	.byte W06
	.byte 19 @ VOL
	.byte W28
	.byte N84, En4 @ v052
	.byte W06
	.byte VOL, 18
	.byte W05
	.byte 17 @ VOL
	.byte W05
	.byte 15 @ VOL
	.byte W06
	.byte 14 @ VOL
	.byte W05
	.byte 12 @ VOL
	.byte W09
	.byte W05
	.byte 14 @ VOL
	.byte W02
	.byte 15 @ VOL
	.byte W02
	.byte 17 @ VOL
	.byte W02
	.byte 18 @ VOL
	.byte W02
	.byte 19 @ VOL
	.byte W02
	.byte 21 @ VOL
	.byte W02
	.byte 22 @ VOL
	.byte W02
	.byte 24 @ VOL
	.byte W02
	.byte 25 @ VOL
	.byte W02
	.byte 26 @ VOL
	.byte W02
	.byte 28 @ VOL
	.byte W02
	.byte 29 @ VOL
	.byte W02
	.byte 31 @ VOL
	.byte W02
	.byte 32 @ VOL
	.byte W02
	.byte 34 @ VOL
	.byte W02
	.byte 35 @ VOL
	.byte W02
	.byte 36 @ VOL
	.byte W02
	.byte 38 @ VOL
	.byte W02
	.byte 39 @ VOL
	.byte W02
	.byte 41 @ VOL
	.byte W02
	.byte 42 @ VOL
	.byte W03
	.byte 28 @ VOL
	.byte N96, Ds4 @ v052
	.byte W04
	.byte VOL, 26
	.byte W07
	.byte 25 @ VOL
	.byte W07
	.byte 24 @ VOL
	.byte W07
	.byte 22 @ VOL
	.byte W07
	.byte 21 @ VOL
	.byte W07
	.byte 19 @ VOL
	.byte W07
	.byte 18 @ VOL
	.byte W02
	.byte W05
	.byte 17 @ VOL
	.byte W07
	.byte 15 @ VOL
	.byte W07
	.byte 14 @ VOL
	.byte W07
	.byte 12 @ VOL
	.byte W07
	.byte 11 @ VOL
	.byte W07
	.byte 9 @ VOL
	.byte W07
	.byte 8 @ VOL
	.byte W13
	.byte 43 @ VOL
	.byte N36, Cn3 @ v052
	.byte W04
	.byte VOL, 45
	.byte W02
	.byte 46 @ VOL
	.byte W02
	.byte 48 @ VOL
	.byte W03
	.byte 49 @ VOL
	.byte W02
	.byte 51 @ VOL
	.byte W03
	.byte 52 @ VOL
	.byte W02
	.byte 53 @ VOL
	.byte W02
	.byte 55 @ VOL
	.byte W03
	.byte 56 @ VOL
	.byte W02
	.byte 58 @ VOL
	.byte W03
	.byte 59 @ VOL
	.byte W02
	.byte 60 @ VOL
	.byte W02
	.byte 62 @ VOL
	.byte W04
	.byte 36 @ VOL
	.byte N96, Gs2, v040
	.byte W04
	.byte VOL, 35
	.byte W05
	.byte 34 @ VOL
	.byte W05
	.byte 32 @ VOL
	.byte W05
	.byte 31 @ VOL
	.byte W05
	.byte 29 @ VOL
	.byte W05
	.byte 28 @ VOL
	.byte W05
	.byte 26 @ VOL
	.byte W05
	.byte 25 @ VOL
	.byte W05
	.byte 24 @ VOL
	.byte W06
	.byte 22 @ VOL
	.byte W05
	.byte 21 @ VOL
	.byte W05
	.byte 19 @ VOL
	.byte W05
	.byte 18 @ VOL
	.byte W05
	.byte 17 @ VOL
	.byte W05
	.byte 15 @ VOL
	.byte W05
	.byte 14 @ VOL
	.byte W05
	.byte 12 @ VOL
	.byte W05
	.byte 11 @ VOL
	.byte W05
	.byte 9 @ VOL
	.byte W01
	.byte TIE, Cn5 @ v040
	.byte W05
	.byte VOL, 11
	.byte W07
	.byte 12 @ VOL
	.byte W08
	.byte 14 @ VOL
	.byte W07
	.byte 15 @ VOL
	.byte W08
	.byte 17 @ VOL
	.byte W07
	.byte 18 @ VOL
	.byte W07
	.byte 19 @ VOL
	.byte W08
	.byte 21 @ VOL
	.byte W07
	.byte 22 @ VOL
	.byte W08
	.byte 24 @ VOL
	.byte W07
	.byte 25 @ VOL
	.byte W07
	.byte 26 @ VOL
	.byte W08
	.byte 28 @ VOL
	.byte W02
	.byte 26 @ VOL
	.byte W04
	.byte 25 @ VOL
	.byte W04
	.byte 24 @ VOL
	.byte W04
	.byte 22 @ VOL
	.byte W04
	.byte 21 @ VOL
	.byte W04
	.byte 19 @ VOL
	.byte W04
	.byte 18 @ VOL
	.byte W04
	.byte 17 @ VOL
	.byte W04
	.byte 15 @ VOL
	.byte W04
	.byte 14 @ VOL
	.byte W04
	.byte 12 @ VOL
	.byte W04
	.byte 11 @ VOL
	.byte W03
	.byte 9 @ VOL
	.byte W01
	.byte EOT @ Cn5, v040
	.byte VOL, 7
	.byte N84, Bn4, v052
	.byte W01
	.byte VOL, 8
	.byte W02
	.byte 9 @ VOL
	.byte W02
	.byte 11 @ VOL
	.byte W02
	.byte 12 @ VOL
	.byte W03
	.byte 14 @ VOL
	.byte W02
	.byte 15 @ VOL
	.byte W02
	.byte 17 @ VOL
	.byte W02
	.byte 18 @ VOL
	.byte W02
	.byte 19 @ VOL
	.byte W02
	.byte 21 @ VOL
	.byte W02
	.byte 22 @ VOL
	.byte W02
	.byte 24 @ VOL
	.byte W02
	.byte 25 @ VOL
	.byte W02
	.byte 26 @ VOL
	.byte W03
	.byte 28 @ VOL
	.byte W02
	.byte 29 @ VOL
	.byte W02
	.byte 31 @ VOL
	.byte W02
	.byte 32 @ VOL
	.byte W02
	.byte 34 @ VOL
	.byte W02
	.byte 35 @ VOL
	.byte W02
	.byte 36 @ VOL
	.byte W02
	.byte 38 @ VOL
	.byte W02
	.byte 39 @ VOL
	.byte W01
	.byte 21 @ VOL
	.byte W11
	.byte 19 @ VOL
	.byte W11
	.byte 18 @ VOL
	.byte W11
	.byte 17 @ VOL
	.byte W03
	.byte N60, Bn3, v032
	.byte W01
	.byte VOL, 15
	.byte W05
	.byte 17 @ VOL
	.byte W03
	.byte 18 @ VOL
	.byte W02
	.byte 19 @ VOL
	.byte W03
	.byte 21 @ VOL
	.byte W03
	.byte 22 @ VOL
	.byte W02
	.byte 24 @ VOL
	.byte W03
	.byte 25 @ VOL
	.byte W03
	.byte 26 @ VOL
	.byte W03
	.byte 28 @ VOL
	.byte W02
	.byte 29 @ VOL
	.byte W03
	.byte 31 @ VOL
	.byte W03
	.byte 32 @ VOL
	.byte W02
	.byte 34 @ VOL
	.byte W03
	.byte 35 @ VOL
	.byte W03
	.byte 36 @ VOL
	.byte W03
	.byte 38 @ VOL
	.byte W02
	.byte 39 @ VOL
	.byte W03
	.byte 41 @ VOL
	.byte W03
	.byte 42 @ VOL
	.byte W02
	.byte 43 @ VOL
	.byte W03
track_10_lbl_25dc6b:
	.byte VOICE, 2
	.byte VOL, 45
	.byte N48, Bn3, v032
	.byte W01
	.byte VOL, 43
	.byte W01
	.byte 36 @ VOL
	.byte W01
	.byte 34 @ VOL
	.byte W01
	.byte 31 @ VOL
	.byte W01
	.byte 28 @ VOL
	.byte W01
	.byte 26 @ VOL
	.byte W01
	.byte 25 @ VOL
	.byte W01
	.byte 22 @ VOL
	.byte W01
	.byte 21 @ VOL
	.byte W03
	.byte 19 @ VOL
	.byte W02
	.byte 18 @ VOL
	.byte W03
	.byte 17 @ VOL
	.byte W03
	.byte 15 @ VOL
	.byte W03
	.byte 14 @ VOL
	.byte W12
	.byte 12 @ VOL
	.byte W06
	.byte 11 @ VOL
	.byte W05
	.byte 9 @ VOL
	.byte W02
	.byte TIE, Cn4, v052
	.byte W06
	.byte VOL, 12
	.byte W21
	.byte 14 @ VOL
	.byte W04
	.byte 15 @ VOL
	.byte W05
	.byte 17 @ VOL
	.byte W03
	.byte 18 @ VOL
	.byte W02
	.byte 19 @ VOL
	.byte W03
	.byte 21 @ VOL
	.byte W01
	.byte 22 @ VOL
	.byte W01
	.byte 24 @ VOL
	.byte W01
	.byte 25 @ VOL
	.byte W01
	.byte W02
	.byte 26 @ VOL
	.byte W07
	.byte 25 @ VOL
	.byte W06
	.byte 24 @ VOL
	.byte W06
	.byte 22 @ VOL
	.byte W07
	.byte 21 @ VOL
	.byte W06
	.byte 19 @ VOL
	.byte W03
	.byte 19 @ VOL
	.byte W04
	.byte 18 @ VOL
	.byte W06
	.byte 17 @ VOL
	.byte W06
	.byte 15 @ VOL
	.byte W07
	.byte 14 @ VOL
	.byte W06
	.byte 12 @ VOL
	.byte W07
	.byte 11 @ VOL
	.byte W06
	.byte 9 @ VOL
	.byte W06
	.byte 8 @ VOL
	.byte W07
	.byte 7 @ VOL
	.byte W04
	.byte W96
	.byte EOT @ Cn4, v052
	.byte VOL, 5
	.byte N96, Dn4 @ v052
	.byte W01
	.byte VOL, 7
	.byte W01
	.byte 8 @ VOL
	.byte W01
	.byte 9 @ VOL
	.byte W01
	.byte 11 @ VOL
	.byte W01
	.byte 12 @ VOL
	.byte W02
	.byte 14 @ VOL
	.byte W01
	.byte 15 @ VOL
	.byte W02
	.byte 17 @ VOL
	.byte W02
	.byte 18 @ VOL
	.byte W01
	.byte 19 @ VOL
	.byte W04
	.byte 21 @ VOL
	.byte W01
	.byte 21 @ VOL
	.byte W01
	.byte 21 @ VOL
	.byte W01
	.byte 22 @ VOL
	.byte W01
	.byte 23 @ VOL
	.byte W01
	.byte 24 @ VOL
	.byte W04
	.byte 25 @ VOL
	.byte W05
	.byte 26 @ VOL
	.byte W11
	.byte 28 @ VOL
	.byte W09
	.byte 29 @ VOL
	.byte W10
	.byte 31 @ VOL
	.byte W09
	.byte 32 @ VOL
	.byte W10
	.byte 34 @ VOL
	.byte W16
	.byte TIE, En4 @ v052
	.byte W03
	.byte VOL, 32
	.byte W04
	.byte 31 @ VOL
	.byte W02
	.byte 29 @ VOL
	.byte W03
	.byte 28 @ VOL
	.byte W04
	.byte 26 @ VOL
	.byte W01
	.byte 25 @ VOL
	.byte W02
	.byte 24 @ VOL
	.byte W01
	.byte 22 @ VOL
	.byte W02
	.byte 21 @ VOL
	.byte W02
	.byte 19 @ VOL
	.byte W01
	.byte 18 @ VOL
	.byte W01
	.byte 17 @ VOL
	.byte W01
	.byte 15 @ VOL
	.byte W08
	.byte 14 @ VOL
	.byte W14
	.byte 15 @ VOL
	.byte W11
	.byte 17 @ VOL
	.byte W06
	.byte 18 @ VOL
	.byte W04
	.byte 19 @ VOL
	.byte W07
	.byte 21 @ VOL
	.byte W03
	.byte 22 @ VOL
	.byte W02
	.byte 24 @ VOL
	.byte W02
	.byte 25 @ VOL
	.byte W02
	.byte 26 @ VOL
	.byte W03
	.byte 28 @ VOL
	.byte W01
	.byte 29 @ VOL
	.byte W01
	.byte 31 @ VOL
	.byte W02
	.byte 34 @ VOL
	.byte W01
	.byte 35 @ VOL
	.byte W01
	.byte 36 @ VOL
	.byte W01
	.byte W01
	.byte 38 @ VOL
	.byte W03
	.byte 36 @ VOL
	.byte W03
	.byte 35 @ VOL
	.byte W03
	.byte 34 @ VOL
	.byte W03
	.byte 32 @ VOL
	.byte W03
	.byte 31 @ VOL
	.byte W03
	.byte 29 @ VOL
	.byte W03
	.byte 28 @ VOL
	.byte W02
	.byte 26 @ VOL
	.byte W03
	.byte 25 @ VOL
	.byte W03
	.byte 24 @ VOL
	.byte W03
	.byte 22 @ VOL
	.byte W03
	.byte 21 @ VOL
	.byte W03
	.byte 19 @ VOL
	.byte W03
	.byte 18 @ VOL
	.byte W03
	.byte 17 @ VOL
	.byte W03
	.byte 15 @ VOL
	.byte W03
	.byte 14 @ VOL
	.byte W03
	.byte 12 @ VOL
	.byte W03
	.byte 11 @ VOL
	.byte W03
	.byte 9 @ VOL
	.byte W03
	.byte 8 @ VOL
	.byte W03
	.byte 7 @ VOL
	.byte W06
	.byte EOT @ En4, v052
	.byte W24
	.byte VOL, 8
	.byte N84, Ds5, v044
	.byte W01
	.byte VOL, 9
	.byte W01
	.byte 11 @ VOL
	.byte W01
	.byte 12 @ VOL
	.byte W01
	.byte 14 @ VOL
	.byte W01
	.byte 15 @ VOL
	.byte W01
	.byte 17 @ VOL
	.byte W01
	.byte 18 @ VOL
	.byte W01
	.byte 19 @ VOL
	.byte W01
	.byte 21 @ VOL
	.byte W01
	.byte 22 @ VOL
	.byte W01
	.byte 24 @ VOL
	.byte W01
	.byte 25 @ VOL
	.byte W01
	.byte 26 @ VOL
	.byte W01
	.byte 28 @ VOL
	.byte W01
	.byte 29 @ VOL
	.byte W01
	.byte 31 @ VOL
	.byte W01
	.byte 33 @ VOL
	.byte W02
	.byte 35 @ VOL
	.byte W04
	.byte 34 @ VOL
	.byte W05
	.byte 32 @ VOL
	.byte W06
	.byte 31 @ VOL
	.byte W05
	.byte 29 @ VOL
	.byte W05
	.byte 28 @ VOL
	.byte W05
	.byte 26 @ VOL
	.byte W05
	.byte 25 @ VOL
	.byte W05
	.byte 24 @ VOL
	.byte W05
	.byte 22 @ VOL
	.byte W05
	.byte 21 @ VOL
	.byte W05
	.byte 19 @ VOL
	.byte W05
	.byte 18 @ VOL
	.byte W05
	.byte 17 @ VOL
	.byte N12, Dn5, v032
	.byte W02
	.byte VOL, 15
	.byte W01
	.byte 17 @ VOL
	.byte W01
	.byte 19 @ VOL
	.byte W01
	.byte 21 @ VOL
	.byte W01
	.byte 24 @ VOL
	.byte W01
	.byte 26 @ VOL
	.byte W01
	.byte 28 @ VOL
	.byte W01
	.byte 30 @ VOL
	.byte W01
	.byte 32 @ VOL
	.byte W01
	.byte 34 @ VOL
	.byte W01
	.byte 36 @ VOL
	.byte N72, Cs5, v036
	.byte W03
	.byte VOL, 35
	.byte W02
	.byte 34 @ VOL
	.byte W03
	.byte 32 @ VOL
	.byte W03
	.byte 31 @ VOL
	.byte W03
	.byte 29 @ VOL
	.byte W03
	.byte 28 @ VOL
	.byte W02
	.byte 26 @ VOL
	.byte W03
	.byte 25 @ VOL
	.byte W03
	.byte 24 @ VOL
	.byte W03
	.byte 22 @ VOL
	.byte W02
	.byte 21 @ VOL
	.byte W03
	.byte 19 @ VOL
	.byte W03
	.byte 18 @ VOL
	.byte W03
	.byte 17 @ VOL
	.byte W03
	.byte 15 @ VOL
	.byte W02
	.byte 14 @ VOL
	.byte W03
	.byte 12 @ VOL
	.byte W03
	.byte 11 @ VOL
	.byte W03
	.byte 9 @ VOL
	.byte W02
	.byte 8 @ VOL
	.byte W40
	.byte W01
	.byte 7 @ VOL
	.byte N72, As3, v048
	.byte W05
	.byte VOL, 8
	.byte W05
	.byte 9 @ VOL
	.byte W04
	.byte 11 @ VOL
	.byte W04
	.byte 12 @ VOL
	.byte W05
	.byte 14 @ VOL
	.byte W04
	.byte 15 @ VOL
	.byte W05
	.byte 17 @ VOL
	.byte W04
	.byte 18 @ VOL
	.byte W05
	.byte 19 @ VOL
	.byte W04
	.byte 21 @ VOL
	.byte W05
	.byte 22 @ VOL
	.byte W04
	.byte 24 @ VOL
	.byte W05
	.byte 25 @ VOL
	.byte W04
	.byte 26 @ VOL
	.byte W05
	.byte 28 @ VOL
	.byte W16
	.byte 31 @ VOL
	.byte N12, Bn3, v060
	.byte W12
	.byte N10, As3, v072
	.byte W12
	.byte N60, An3, v044
	.byte W13
	.byte VOL, 29
	.byte W02
	.byte 26 @ VOL
	.byte W01
	.byte 25 @ VOL
	.byte W01
	.byte 24 @ VOL
	.byte W01
	.byte 22 @ VOL
	.byte W01
	.byte 21 @ VOL
	.byte W03
	.byte 19 @ VOL
	.byte W01
	.byte 18 @ VOL
	.byte W03
	.byte 17 @ VOL
	.byte W03
	.byte 15 @ VOL
	.byte W04
	.byte 14 @ VOL
	.byte W15
	.byte 12 @ VOL
	.byte W24
	.byte 35 @ VOL
	.byte TIE, Gs3, v056
	.byte W02
	.byte VOL, 34
	.byte W03
	.byte 31 @ VOL
	.byte W02
	.byte 29 @ VOL
	.byte W02
	.byte 28 @ VOL
	.byte W01
	.byte 26 @ VOL
	.byte W02
	.byte 25 @ VOL
	.byte W02
	.byte 24 @ VOL
	.byte W03
	.byte 21 @ VOL
	.byte W02
	.byte 19 @ VOL
	.byte W02
	.byte 18 @ VOL
	.byte W03
	.byte 15 @ VOL
	.byte W02
	.byte 14 @ VOL
	.byte W04
	.byte 15 @ VOL
	.byte W06
	.byte 17 @ VOL
	.byte W05
	.byte 18 @ VOL
	.byte W05
	.byte 19 @ VOL
	.byte W05
	.byte 21 @ VOL
	.byte W05
	.byte 22 @ VOL
	.byte W05
	.byte 24 @ VOL
	.byte W05
	.byte 25 @ VOL
	.byte W06
	.byte 26 @ VOL
	.byte W05
	.byte 28 @ VOL
	.byte W05
	.byte 29 @ VOL
	.byte W05
	.byte 31 @ VOL
	.byte W05
	.byte 32 @ VOL
	.byte W05
	.byte 34 @ VOL
	.byte W06
	.byte 35 @ VOL
	.byte W05
	.byte 21 @ VOL
	.byte W06
	.byte 19 @ VOL
	.byte W05
	.byte 18 @ VOL
	.byte W06
	.byte 17 @ VOL
	.byte W05
	.byte 15 @ VOL
	.byte W06
	.byte 14 @ VOL
	.byte W05
	.byte 12 @ VOL
	.byte W06
	.byte 11 @ VOL
	.byte W05
	.byte 9 @ VOL
	.byte W06
	.byte 8 @ VOL
	.byte W05
	.byte 7 @ VOL
	.byte W05
	.byte EOT @ Gs3, v056
	.byte W24
	.byte VOL, 35
	.byte TIE, Gn3, v048
	.byte W12
	.byte W24
	.byte VOL, 34
	.byte W07
	.byte 32 @ VOL
	.byte W06
	.byte 31 @ VOL
	.byte W07
	.byte 29 @ VOL
	.byte W06
	.byte 28 @ VOL
	.byte W07
	.byte 26 @ VOL
	.byte W06
	.byte 25 @ VOL
	.byte W06
	.byte 24 @ VOL
	.byte W07
	.byte 22 @ VOL
	.byte W06
	.byte 21 @ VOL
	.byte W07
	.byte 19 @ VOL
	.byte W06
	.byte 18 @ VOL
	.byte W01
	.byte W06
	.byte 17 @ VOL
	.byte W06
	.byte 15 @ VOL
	.byte W07
	.byte 14 @ VOL
	.byte W06
	.byte 12 @ VOL
	.byte W07
	.byte 11 @ VOL
	.byte W06
	.byte 9 @ VOL
	.byte W07
	.byte 8 @ VOL
	.byte W03
	.byte EOT @ Gn3, v048
	.byte W36
	.byte VOL, 18
	.byte TIE, Fs3, v024
	.byte W01
	.byte VOL, 24
	.byte W01
	.byte 28 @ VOL
	.byte W01
	.byte 34 @ VOL
	.byte W01
	.byte 36 @ VOL
	.byte W01
	.byte 41 @ VOL
	.byte W01
	.byte 45 @ VOL
	.byte W01
	.byte 48 @ VOL
	.byte W01
	.byte 49 @ VOL
	.byte W01
	.byte 52 @ VOL
	.byte W01
	.byte 53 @ VOL
	.byte W02
track_10_lbl_25deeb:
	.byte VOL, 56
	.byte W01
	.byte 58 @ VOL
	.byte W01
	.byte 59 @ VOL
	.byte W01
	.byte 60 @ VOL
	.byte W01
	.byte 62 @ VOL
	.byte W02
	.byte 63 @ VOL
	.byte W02
	.byte 65 @ VOL
	.byte W01
	.byte 66 @ VOL
	.byte W02
	.byte 63 @ VOL
	.byte W01
	.byte 60 @ VOL
	.byte W01
	.byte 58 @ VOL
	.byte W02
	.byte 55 @ VOL
	.byte W01
	.byte 53 @ VOL
	.byte W01
	.byte 51 @ VOL
	.byte W01
	.byte 49 @ VOL
	.byte W02
	.byte 48 @ VOL
	.byte W01
	.byte 46 @ VOL
	.byte W01
	.byte 45 @ VOL
	.byte W01
	.byte 43 @ VOL
	.byte W02
	.byte 42 @ VOL
	.byte W02
	.byte 41 @ VOL
	.byte W03
	.byte 38 @ VOL
	.byte W02
	.byte 36 @ VOL
	.byte W01
	.byte 35 @ VOL
	.byte W05
	.byte 34 @ VOL
	.byte W03
	.byte 32 @ VOL
	.byte W02
	.byte 31 @ VOL
	.byte W02
	.byte 29 @ VOL
	.byte W04
	.byte 28 @ VOL
	.byte W07
	.byte 26 @ VOL
	.byte W04
	.byte 25 @ VOL
	.byte W05
	.byte 24 @ VOL
	.byte W03
	.byte 22 @ VOL
	.byte W06
	.byte 21 @ VOL
	.byte W10
	.byte 19 @ VOL
	.byte W06
	.byte 18 @ VOL
	.byte W05
	.byte 17 @ VOL
	.byte W01
	.byte PEND
	.byte W06
	.byte 15 @ VOL
	.byte W06
	.byte 14 @ VOL
	.byte W13
	.byte 12 @ VOL
	.byte W06
	.byte 11 @ VOL
	.byte W05
	.byte EOT @ Fs3, v024
	.byte W48
	.byte VOL, 18
	.byte TIE, Fn3, v024
	.byte W01
	.byte VOL, 24
	.byte W01
	.byte 28 @ VOL
	.byte W01
	.byte 34 @ VOL
	.byte W01
	.byte 36 @ VOL
	.byte W01
	.byte 41 @ VOL
	.byte W01
	.byte 45 @ VOL
	.byte W01
	.byte 48 @ VOL
	.byte W01
	.byte 49 @ VOL
	.byte W01
	.byte 52 @ VOL
	.byte W01
	.byte 53 @ VOL
	.byte W02
	.byte PATT
		.word track_10_lbl_25deeb
	.byte W06
	.byte VOL, 15
	.byte W06
	.byte 14 @ VOL
	.byte W13
	.byte 12 @ VOL
	.byte W06
	.byte 11 @ VOL
	.byte W05
	.byte EOT @ Fn3, v024
	.byte W48
	.byte VOL, 55
	.byte TIE, Dn3, v032
	.byte W05
	.byte VOL, 53
	.byte W05
	.byte 52 @ VOL
	.byte W02
	.byte W04
	.byte 51 @ VOL
	.byte W05
	.byte 49 @ VOL
	.byte W06
	.byte 48 @ VOL
	.byte W05
	.byte 46 @ VOL
	.byte W06
	.byte 45 @ VOL
	.byte W05
	.byte 43 @ VOL
	.byte W06
	.byte 42 @ VOL
	.byte W05
	.byte 41 @ VOL
	.byte W06
	.byte 39 @ VOL
	.byte W05
	.byte 38 @ VOL
	.byte W06
	.byte 36 @ VOL
	.byte W05
	.byte 35 @ VOL
	.byte W06
	.byte 34 @ VOL
	.byte W05
	.byte 32 @ VOL
	.byte W06
	.byte 31 @ VOL
	.byte W05
	.byte 29 @ VOL
	.byte W06
	.byte 28 @ VOL
	.byte W04
	.byte W01
	.byte 26 @ VOL
	.byte W06
	.byte 25 @ VOL
	.byte W05
	.byte 24 @ VOL
	.byte W06
	.byte 22 @ VOL
	.byte W05
	.byte 21 @ VOL
	.byte W06
	.byte 19 @ VOL
	.byte W05
	.byte 18 @ VOL
	.byte W06
	.byte 17 @ VOL
	.byte W05
	.byte 15 @ VOL
	.byte W06
	.byte 14 @ VOL
	.byte W05
	.byte 12 @ VOL
	.byte W04
	.byte EOT @ Dn3, v032
	.byte W24
	.byte VOL, 49
	.byte N12, Ds3, v044
	.byte W12
	.byte W12
	.byte TIE, Dn3, v032
	.byte W36
	.byte W01
	.byte VOL, 48
	.byte W05
	.byte 46 @ VOL
	.byte W05
	.byte 45 @ VOL
	.byte W04
	.byte 43 @ VOL
	.byte W05
	.byte 42 @ VOL
	.byte W05
	.byte 41 @ VOL
	.byte W05
	.byte 39 @ VOL
	.byte W04
	.byte 38 @ VOL
	.byte W05
	.byte 36 @ VOL
	.byte W05
	.byte 35 @ VOL
	.byte W04
	.byte 34 @ VOL
	.byte W05
	.byte 32 @ VOL
	.byte W05
	.byte 31 @ VOL
	.byte W05
	.byte 29 @ VOL
	.byte W04
	.byte 28 @ VOL
	.byte W05
	.byte 26 @ VOL
	.byte W05
	.byte 25 @ VOL
	.byte W05
	.byte 24 @ VOL
	.byte W04
	.byte 22 @ VOL
	.byte W05
	.byte 21 @ VOL
	.byte W05
	.byte 19 @ VOL
	.byte W05
	.byte 18 @ VOL
	.byte W04
	.byte 17 @ VOL
	.byte W05
	.byte 15 @ VOL
	.byte W05
	.byte 14 @ VOL
	.byte W05
	.byte EOT @ Dn3, v032
	.byte W12
	.byte VOL, 59
	.byte TIE, Cs3, v044
	.byte W04
	.byte VOL, 58
	.byte W04
	.byte 56 @ VOL
	.byte W04
	.byte W01
	.byte 55 @ VOL
	.byte W04
	.byte 53 @ VOL
	.byte W04
	.byte 52 @ VOL
	.byte W05
	.byte 51 @ VOL
	.byte W04
	.byte 49 @ VOL
	.byte W05
	.byte 48 @ VOL
	.byte W04
	.byte 46 @ VOL
	.byte W04
	.byte 45 @ VOL
	.byte W05
	.byte 43 @ VOL
	.byte W04
	.byte 42 @ VOL
	.byte W04
	.byte 41 @ VOL
	.byte W05
	.byte 39 @ VOL
	.byte W04
	.byte 38 @ VOL
	.byte W05
	.byte 36 @ VOL
	.byte W04
	.byte 35 @ VOL
	.byte W04
	.byte 34 @ VOL
	.byte W05
	.byte 32 @ VOL
	.byte W04
	.byte 31 @ VOL
	.byte W05
	.byte 29 @ VOL
	.byte W04
	.byte 28 @ VOL
	.byte W04
	.byte 26 @ VOL
	.byte W05
	.byte 25 @ VOL
	.byte W03
	.byte W01
	.byte 24 @ VOL
	.byte W05
	.byte 22 @ VOL
	.byte W04
	.byte 21 @ VOL
	.byte W04
	.byte 19 @ VOL
	.byte W05
	.byte 18 @ VOL
	.byte W04
	.byte 17 @ VOL
	.byte W04
	.byte 15 @ VOL
	.byte W05
	.byte 14 @ VOL
	.byte W04
	.byte 12 @ VOL
	.byte W05
	.byte 11 @ VOL
	.byte W07
	.byte EOT @ Cs3, v044
	.byte W48
	.byte W96
	.byte W96
	.byte W96
	.byte W96
track_10_lbl_25e049:
	.byte VOICE, 2
	.byte VOL, 28
	.byte TIE, As3, v032
	.byte W01
	.byte VOL, 26
	.byte W04
	.byte 25 @ VOL
	.byte W04
	.byte 24 @ VOL
	.byte W05
	.byte 22 @ VOL
	.byte W04
	.byte 21 @ VOL
	.byte W05
	.byte 19 @ VOL
	.byte W04
	.byte 18 @ VOL
	.byte W04
	.byte 17 @ VOL
	.byte W05
	.byte 15 @ VOL
	.byte W04
	.byte 14 @ VOL
	.byte W04
	.byte 12 @ VOL
	.byte W05
	.byte 11 @ VOL
	.byte W08
	.byte 12 @ VOL
	.byte W04
	.byte 14 @ VOL
	.byte W03
	.byte 15 @ VOL
	.byte W04
	.byte 17 @ VOL
	.byte W04
	.byte 18 @ VOL
	.byte W03
	.byte 19 @ VOL
	.byte W04
	.byte 21 @ VOL
	.byte W04
	.byte 22 @ VOL
	.byte W03
	.byte 24 @ VOL
	.byte W04
	.byte 25 @ VOL
	.byte W04
	.byte 26 @ VOL
	.byte W02
	.byte PEND
track_10_lbl_25e081:
	.byte W01
	.byte VOL, 28
	.byte W04
	.byte 29 @ VOL
	.byte W04
	.byte 31 @ VOL
	.byte W03
	.byte 32 @ VOL
	.byte W04
	.byte 34 @ VOL
	.byte W04
	.byte 35 @ VOL
	.byte W03
	.byte 36 @ VOL
	.byte W01
	.byte EOT @ As3, v032
	.byte N24, An3, v048
	.byte W03
	.byte VOL, 38
	.byte W04
	.byte 39 @ VOL
	.byte W03
	.byte 41 @ VOL
	.byte W04
	.byte 42 @ VOL
	.byte W04
	.byte 43 @ VOL
	.byte W03
	.byte 45 @ VOL
	.byte W01
	.byte 43 @ VOL
	.byte W02
	.byte 42 @ VOL
	.byte N36, Gs3, v040
	.byte W01
	.byte VOL, 41
	.byte W02
	.byte 39 @ VOL
	.byte W02
	.byte 38 @ VOL
	.byte W01
	.byte 36 @ VOL
	.byte W02
	.byte 35 @ VOL
	.byte W02
	.byte 34 @ VOL
	.byte W01
	.byte 32 @ VOL
	.byte W02
	.byte 31 @ VOL
	.byte W02
	.byte 29 @ VOL
	.byte W03
	.byte 26 @ VOL
	.byte W02
	.byte 25 @ VOL
	.byte W03
	.byte 22 @ VOL
	.byte W02
	.byte 21 @ VOL
	.byte W03
	.byte 18 @ VOL
	.byte W02
	.byte 17 @ VOL
	.byte W03
	.byte 14 @ VOL
	.byte W15
	.byte PEND
	.byte PATT
		.word track_10_lbl_25e049
	.byte PATT
		.word track_10_lbl_25e081
	.byte VOL, 28
	.byte TIE, Dn4, v028
	.byte W01
	.byte VOL, 26
	.byte W04
	.byte 25 @ VOL
	.byte W04
	.byte 24 @ VOL
	.byte W05
	.byte 22 @ VOL
	.byte W04
	.byte 21 @ VOL
	.byte W05
	.byte 19 @ VOL
	.byte W04
	.byte 18 @ VOL
	.byte W04
	.byte 17 @ VOL
	.byte W05
	.byte 15 @ VOL
	.byte W04
	.byte 14 @ VOL
	.byte W04
	.byte 12 @ VOL
	.byte W05
	.byte 11 @ VOL
	.byte W08
	.byte 12 @ VOL
	.byte W04
	.byte 14 @ VOL
	.byte W03
	.byte 15 @ VOL
	.byte W04
	.byte 17 @ VOL
	.byte W04
	.byte 18 @ VOL
	.byte W03
	.byte 19 @ VOL
	.byte W04
	.byte 21 @ VOL
	.byte W04
	.byte 22 @ VOL
	.byte W03
	.byte 24 @ VOL
	.byte W04
	.byte 25 @ VOL
	.byte W04
	.byte 26 @ VOL
	.byte W02
	.byte W01
	.byte 28 @ VOL
	.byte W04
	.byte 29 @ VOL
	.byte W04
	.byte 31 @ VOL
	.byte W03
	.byte 32 @ VOL
	.byte W04
	.byte 34 @ VOL
	.byte W04
	.byte 35 @ VOL
	.byte W03
	.byte 36 @ VOL
	.byte W01
	.byte EOT @ Dn4, v028
	.byte N24, Cs4, v044
	.byte W03
	.byte VOL, 38
	.byte W04
	.byte 39 @ VOL
	.byte W03
	.byte 41 @ VOL
	.byte W04
	.byte 42 @ VOL
	.byte W04
	.byte 43 @ VOL
	.byte W03
	.byte 45 @ VOL
	.byte W01
	.byte 43 @ VOL
	.byte W02
	.byte 42 @ VOL
	.byte N48, Cn4, v036
	.byte W01
	.byte VOL, 41
	.byte W02
	.byte 39 @ VOL
	.byte W02
	.byte 38 @ VOL
	.byte W01
	.byte 36 @ VOL
	.byte W02
	.byte 35 @ VOL
	.byte W02
	.byte 34 @ VOL
	.byte W01
	.byte 32 @ VOL
	.byte W02
	.byte 31 @ VOL
	.byte W02
	.byte 29 @ VOL
	.byte W03
	.byte 26 @ VOL
	.byte W02
	.byte 25 @ VOL
	.byte W03
	.byte 22 @ VOL
	.byte W02
	.byte 21 @ VOL
	.byte W03
	.byte 18 @ VOL
	.byte W02
	.byte 17 @ VOL
	.byte W03
	.byte 14 @ VOL
	.byte W15
	.byte 28 @ VOL
	.byte TIE, Dn4, v048
	.byte W01
	.byte VOL, 26
	.byte W04
	.byte 25 @ VOL
	.byte W04
	.byte 24 @ VOL
	.byte W05
	.byte 22 @ VOL
	.byte W04
	.byte 21 @ VOL
	.byte W05
	.byte 19 @ VOL
	.byte W04
	.byte 18 @ VOL
	.byte W04
	.byte 17 @ VOL
	.byte W05
	.byte 15 @ VOL
	.byte W04
	.byte 14 @ VOL
	.byte W04
	.byte 12 @ VOL
	.byte W05
	.byte 11 @ VOL
	.byte W03
	.byte 9 @ VOL
	.byte W04
	.byte 11 @ VOL
	.byte W06
	.byte 12 @ VOL
	.byte W05
	.byte 14 @ VOL
	.byte W06
	.byte 15 @ VOL
	.byte W05
	.byte 17 @ VOL
	.byte W05
	.byte 18 @ VOL
	.byte W05
	.byte 19 @ VOL
	.byte W05
	.byte 21 @ VOL
	.byte W03
	.byte W02
	.byte 22 @ VOL
	.byte W05
	.byte 24 @ VOL
	.byte W05
	.byte 25 @ VOL
	.byte W07
	.byte 24 @ VOL
	.byte W06
	.byte 22 @ VOL
	.byte W05
	.byte 21 @ VOL
	.byte W06
	.byte 19 @ VOL
	.byte W05
	.byte 18 @ VOL
	.byte W05
	.byte 17 @ VOL
	.byte W02
	.byte EOT @ Dn4, v048
	.byte N36, Cn4, v060
	.byte W04
	.byte VOL, 15
	.byte W05
	.byte 14 @ VOL
	.byte W05
	.byte 12 @ VOL
	.byte W05
	.byte 11 @ VOL
	.byte W06
	.byte 9 @ VOL
	.byte W05
	.byte 8 @ VOL
	.byte W05
	.byte 7 @ VOL
	.byte W05
	.byte 5 @ VOL
	.byte W05
	.byte 4 @ VOL
	.byte W03
	.byte 28 @ VOL
	.byte TIE, As4, v036
	.byte W01
	.byte VOL, 26
	.byte W04
	.byte 25 @ VOL
	.byte W04
	.byte 24 @ VOL
	.byte W05
	.byte 22 @ VOL
	.byte W04
	.byte 21 @ VOL
	.byte W05
	.byte 19 @ VOL
	.byte W04
	.byte 18 @ VOL
	.byte W04
	.byte 17 @ VOL
	.byte W05
	.byte 15 @ VOL
	.byte W04
	.byte 14 @ VOL
	.byte W04
	.byte 12 @ VOL
	.byte W05
	.byte 11 @ VOL
	.byte W10
	.byte 12 @ VOL
	.byte W06
	.byte 14 @ VOL
	.byte W07
	.byte 15 @ VOL
	.byte W07
	.byte 17 @ VOL
	.byte W06
	.byte 18 @ VOL
	.byte W07
	.byte 19 @ VOL
	.byte W04
	.byte W03
	.byte 21 @ VOL
	.byte W07
	.byte 22 @ VOL
	.byte W06
	.byte 24 @ VOL
	.byte W07
	.byte 25 @ VOL
	.byte W01
	.byte EOT @ As4, v036
	.byte N48, An4, v048
	.byte W06
	.byte VOL, 26
	.byte W06
	.byte 28 @ VOL
	.byte W07
	.byte 29 @ VOL
	.byte W03
	.byte 28 @ VOL
	.byte W03
	.byte 26 @ VOL
	.byte W04
	.byte 25 @ VOL
	.byte W03
	.byte 24 @ VOL
	.byte W04
	.byte 22 @ VOL
	.byte W03
	.byte 21 @ VOL
	.byte W04
	.byte 19 @ VOL
	.byte W03
	.byte 18 @ VOL
	.byte W02
	.byte N24, As3, v044
	.byte W01
	.byte VOL, 17
	.byte W04
	.byte 15 @ VOL
	.byte W03
	.byte 14 @ VOL
	.byte W16
	.byte TIE, As4, v036
	.byte W52
	.byte W01
	.byte VOL, 11
	.byte W06
	.byte 12 @ VOL
	.byte W06
	.byte 14 @ VOL
	.byte W07
	.byte 15 @ VOL
	.byte W07
	.byte 17 @ VOL
	.byte W06
	.byte 18 @ VOL
	.byte W07
	.byte 19 @ VOL
	.byte W04
	.byte W03
	.byte 21 @ VOL
	.byte W07
	.byte 22 @ VOL
	.byte W06
	.byte 24 @ VOL
	.byte W07
	.byte 25 @ VOL
	.byte W01
	.byte EOT @ As4, v036
	.byte N48, An4, v048
	.byte W06
	.byte VOL, 26
	.byte W06
	.byte 28 @ VOL
	.byte W07
	.byte 29 @ VOL
	.byte W03
	.byte 28 @ VOL
	.byte W03
	.byte 26 @ VOL
	.byte W04
	.byte 25 @ VOL
	.byte W03
	.byte 24 @ VOL
	.byte W04
	.byte 22 @ VOL
	.byte W03
	.byte 21 @ VOL
	.byte W03
	.byte 22 @ VOL
	.byte W03
	.byte 24 @ VOL
	.byte W03
	.byte 25 @ VOL
	.byte N24, As3, v044
	.byte W03
	.byte VOL, 26
	.byte W03
	.byte 28 @ VOL
	.byte W03
	.byte 29 @ VOL
	.byte W03
	.byte 31 @ VOL
	.byte W03
	.byte 32 @ VOL
	.byte W03
	.byte 34 @ VOL
	.byte W03
	.byte 35 @ VOL
	.byte W03
	.byte 36 @ VOL
	.byte TIE, As4, v024
	.byte W48
	.byte W02
	.byte VOL, 34
	.byte W06
	.byte 32 @ VOL
	.byte W06
	.byte 31 @ VOL
	.byte W06
	.byte 29 @ VOL
	.byte W06
	.byte 28 @ VOL
	.byte W06
	.byte 26 @ VOL
	.byte W06
	.byte 25 @ VOL
	.byte W06
	.byte 24 @ VOL
	.byte W04
	.byte W03
	.byte 22 @ VOL
	.byte W06
	.byte 21 @ VOL
	.byte W06
	.byte 19 @ VOL
	.byte W06
	.byte 18 @ VOL
	.byte W06
	.byte 17 @ VOL
	.byte W06
	.byte 15 @ VOL
	.byte W06
	.byte 14 @ VOL
	.byte W06
	.byte 12 @ VOL
	.byte W03
	.byte EOT @ As4, v024
	.byte W48
	.byte VOL, 21
	.byte TIE, Fn3, v036
	.byte W08
	.byte VOL, 19
	.byte W10
	.byte 18 @ VOL
	.byte W10
	.byte 17 @ VOL
	.byte W10
	.byte 15 @ VOL
	.byte W10
	.byte 14 @ VOL
	.byte W10
	.byte 12 @ VOL
	.byte W10
	.byte 11 @ VOL
	.byte W09
	.byte 9 @ VOL
	.byte W10
	.byte 8 @ VOL
	.byte W09
	.byte W01
	.byte 7 @ VOL
	.byte W10
	.byte 5 @ VOL
	.byte W10
	.byte 4 @ VOL
	.byte W10
	.byte 2 @ VOL
	.byte W10
	.byte 1 @ VOL
	.byte W07
	.byte EOT @ Fn3, v036
	.byte W48
	.byte GOTO
		.word track_10_lbl_25dc6b
	.byte FINE

track_10_1:
	.byte KEYSH, 0
	.byte PAN, c_v
	.byte PRIO, 109
	.byte W96
	.byte W12
	.byte VOICE, 11
	.byte VOL, 70
	.byte N06, Cn3, v052
	.byte W06
	.byte Cn3, v040 @ N06
	.byte W06
	.byte VOICE, 12
	.byte VOL, 70
	.byte N06, Gn2, v052
	.byte W06
	.byte Gn2, v056 @ N06
	.byte W06
	.byte Gn2, v112 @ N06
	.byte W06
	.byte Gn2, v092 @ N06
	.byte W06
	.byte Gn2, v020 @ N06
	.byte W06
	.byte N12, Gn2, v012
	.byte W18
	.byte VOICE, 8
	.byte VOL, 70
	.byte N06, Bn0, v076
	.byte W06
	.byte Bn0, v036 @ N06
	.byte W06
	.byte N12, Bn0, v024
	.byte W12
	.byte VOICE, 2
	.byte PAN, c_v-10
	.byte VOL, 22
	.byte N12, As3, v052
	.byte W04
	.byte VOL, 21
	.byte W05
	.byte 19 @ VOL
	.byte W03
	.byte N12, Cs4 @ v052
	.byte W03
	.byte VOL, 18
	.byte W05
	.byte 17 @ VOL
	.byte W04
	.byte N12, Cn4 @ v052
	.byte W02
	.byte VOL, 15
	.byte W05
	.byte 14 @ VOL
	.byte W28
	.byte W01
	.byte N84, Bn3 @ v052
	.byte W24
	.byte VOL, 12
	.byte W05
	.byte 11 @ VOL
	.byte W05
	.byte 9 @ VOL
	.byte W02
	.byte 11 @ VOL
	.byte W02
	.byte 12 @ VOL
	.byte W02
	.byte 14 @ VOL
	.byte W02
	.byte 15 @ VOL
	.byte W02
	.byte 17 @ VOL
	.byte W02
	.byte 18 @ VOL
	.byte W02
	.byte 19 @ VOL
	.byte W02
	.byte 21 @ VOL
	.byte W02
	.byte 22 @ VOL
	.byte W01
	.byte 24 @ VOL
	.byte W02
	.byte 25 @ VOL
	.byte W02
	.byte 26 @ VOL
	.byte W02
	.byte 28 @ VOL
	.byte W02
	.byte 29 @ VOL
	.byte W02
	.byte 31 @ VOL
	.byte W02
	.byte 32 @ VOL
	.byte W02
	.byte 34 @ VOL
	.byte W02
	.byte 35 @ VOL
	.byte W02
	.byte 36 @ VOL
	.byte W02
	.byte 38 @ VOL
	.byte W02
	.byte 39 @ VOL
	.byte W02
	.byte 41 @ VOL
	.byte W02
	.byte 42 @ VOL
	.byte W05
	.byte VOICE, 2
	.byte VOL, 29
	.byte N96, As3 @ v052
	.byte W04
	.byte VOL, 28
	.byte W06
	.byte 26 @ VOL
	.byte W06
	.byte 25 @ VOL
	.byte W06
	.byte 24 @ VOL
	.byte W06
	.byte 22 @ VOL
	.byte W06
	.byte 21 @ VOL
	.byte W06
	.byte 19 @ VOL
	.byte W06
	.byte 18 @ VOL
	.byte W02
	.byte W04
	.byte 17 @ VOL
	.byte W06
	.byte 15 @ VOL
	.byte W06
	.byte 14 @ VOL
	.byte W06
	.byte 12 @ VOL
	.byte W06
	.byte 11 @ VOL
	.byte W06
	.byte 9 @ VOL
	.byte W06
	.byte 8 @ VOL
	.byte W06
	.byte 7 @ VOL
	.byte W14
	.byte 42 @ VOL
	.byte N36, Gn2 @ v052
	.byte W01
	.byte VOL, 43
	.byte W02
	.byte 45 @ VOL
	.byte W02
	.byte 46 @ VOL
	.byte W02
	.byte 48 @ VOL
	.byte W03
	.byte 49 @ VOL
	.byte W02
	.byte 51 @ VOL
	.byte W02
	.byte 52 @ VOL
	.byte W02
	.byte 53 @ VOL
	.byte W02
	.byte 55 @ VOL
	.byte W02
	.byte 56 @ VOL
	.byte W02
	.byte 58 @ VOL
	.byte W02
	.byte 59 @ VOL
	.byte W02
	.byte 60 @ VOL
	.byte W03
	.byte 62 @ VOL
	.byte W02
	.byte 63 @ VOL
	.byte W02
	.byte 65 @ VOL
	.byte W02
	.byte 66 @ VOL
	.byte W01
	.byte 49 @ VOL
	.byte N96, Cs3, v040
	.byte W01
	.byte VOL, 48
	.byte W04
	.byte 46 @ VOL
	.byte W04
	.byte 45 @ VOL
	.byte W04
	.byte 43 @ VOL
	.byte W04
	.byte 42 @ VOL
	.byte W04
	.byte 41 @ VOL
	.byte W04
	.byte 39 @ VOL
	.byte W04
	.byte 38 @ VOL
	.byte W04
	.byte 36 @ VOL
	.byte W04
	.byte 35 @ VOL
	.byte W03
	.byte 34 @ VOL
	.byte W04
	.byte 32 @ VOL
	.byte W04
	.byte 31 @ VOL
	.byte W04
	.byte 29 @ VOL
	.byte W04
	.byte 28 @ VOL
	.byte W04
	.byte 26 @ VOL
	.byte W04
	.byte 25 @ VOL
	.byte W04
	.byte 24 @ VOL
	.byte W04
	.byte 22 @ VOL
	.byte W04
	.byte 21 @ VOL
	.byte W03
	.byte 19 @ VOL
	.byte W04
	.byte 18 @ VOL
	.byte W04
	.byte 17 @ VOL
	.byte W04
	.byte 15 @ VOL
	.byte W04
	.byte 14 @ VOL
	.byte W01
	.byte VOICE, 8
	.byte VOL, 70
	.byte PAN, c_v
	.byte N06, En2, v080
	.byte W06
	.byte En2, v040 @ N06
	.byte W06
	.byte N12, En2, v028
	.byte W24
	.byte N06, En2, v088
	.byte W06
	.byte En2, v048 @ N06
	.byte W06
	.byte N12, En2, v040
	.byte W48
	.byte W12
	.byte VOICE, 11
	.byte VOL, 70
	.byte N06, Cn3, v072
	.byte W06
	.byte Cn3, v052 @ N06
	.byte W06
	.byte VOICE, 12
	.byte VOL, 70
	.byte N06, Gn2 @ v052
	.byte W06
	.byte Gn2, v056 @ N06
	.byte W06
	.byte Gn2, v112 @ N06
	.byte W06
	.byte Gn2, v092 @ N06
	.byte W06
	.byte Gn2, v020 @ N06
	.byte W06
	.byte N12, Gn2, v012
	.byte W18
	.byte VOICE, 8
	.byte VOL, 70
	.byte N06, Bn0, v076
	.byte W06
	.byte Bn0, v036 @ N06
	.byte W06
	.byte N12, Bn0, v024
	.byte W12
	.byte VOICE, 2
	.byte VOL, 14
	.byte N96, As4, v052
	.byte W04
	.byte VOL, 12
	.byte W16
	.byte 11 @ VOL
	.byte W15
	.byte 9 @ VOL
	.byte W15
	.byte 8 @ VOL
	.byte W15
	.byte 7 @ VOL
	.byte W16
	.byte 5 @ VOL
	.byte W15
track_10_lbl_25e429:
	.byte VOICE, 2
	.byte VOL, 4
	.byte N24, As4, v052
	.byte W15
	.byte VOL, 2
	.byte W80
	.byte W01
	.byte PAN, c_v-10
	.byte VOL, 5
	.byte N96, As3 @ v052
	.byte W01
	.byte VOL, 7
	.byte W01
	.byte 9 @ VOL
	.byte W01
	.byte 12 @ VOL
	.byte W01
	.byte 14 @ VOL
	.byte W01
	.byte 16 @ VOL
	.byte W01
	.byte 17 @ VOL
	.byte W01
	.byte 19 @ VOL
	.byte W01
	.byte 21 @ VOL
	.byte W01
	.byte 24 @ VOL
	.byte W01
	.byte 25 @ VOL
	.byte W05
	.byte 24 @ VOL
	.byte W06
	.byte 22 @ VOL
	.byte W06
	.byte 21 @ VOL
	.byte W06
	.byte 19 @ VOL
	.byte W06
	.byte 18 @ VOL
	.byte W06
	.byte 17 @ VOL
	.byte W06
	.byte 15 @ VOL
	.byte W06
	.byte 14 @ VOL
	.byte W06
	.byte 12 @ VOL
	.byte W06
	.byte 11 @ VOL
	.byte W06
	.byte 9 @ VOL
	.byte W06
	.byte 8 @ VOL
	.byte W06
	.byte 7 @ VOL
	.byte W06
	.byte 5 @ VOL
	.byte W03
	.byte 36 @ VOL
	.byte TIE, Cs4, v024
	.byte W07
	.byte VOL, 35
	.byte W06
	.byte 34 @ VOL
	.byte W03
	.byte 32 @ VOL
	.byte W02
	.byte 31 @ VOL
	.byte W01
	.byte 29 @ VOL
	.byte W02
	.byte 28 @ VOL
	.byte W03
	.byte 26 @ VOL
	.byte W01
	.byte 25 @ VOL
	.byte W01
	.byte 24 @ VOL
	.byte W01
	.byte 22 @ VOL
	.byte W01
	.byte 21 @ VOL
	.byte W02
	.byte 19 @ VOL
	.byte W01
	.byte 18 @ VOL
	.byte W01
	.byte 14 @ VOL
	.byte W03
	.byte 15 @ VOL
	.byte W03
	.byte 17 @ VOL
	.byte W03
	.byte 18 @ VOL
	.byte W04
	.byte 19 @ VOL
	.byte W03
	.byte 21 @ VOL
	.byte W03
	.byte 22 @ VOL
	.byte W03
	.byte 24 @ VOL
	.byte W03
	.byte 25 @ VOL
	.byte W04
	.byte 26 @ VOL
	.byte W03
	.byte 28 @ VOL
	.byte W03
	.byte 29 @ VOL
	.byte W03
	.byte 31 @ VOL
	.byte W04
	.byte 32 @ VOL
	.byte W03
	.byte 34 @ VOL
	.byte W03
	.byte 35 @ VOL
	.byte W03
	.byte 36 @ VOL
	.byte W04
	.byte 38 @ VOL
	.byte W03
	.byte 39 @ VOL
	.byte W03
	.byte 41 @ VOL
	.byte W03
	.byte W92
	.byte W03
	.byte 39 @ VOL
	.byte W01
	.byte W02
	.byte 38 @ VOL
	.byte W03
	.byte 36 @ VOL
	.byte W03
	.byte 35 @ VOL
	.byte W04
	.byte 34 @ VOL
	.byte W03
	.byte 32 @ VOL
	.byte W03
	.byte 31 @ VOL
	.byte W03
	.byte 29 @ VOL
	.byte W04
	.byte 28 @ VOL
	.byte W03
	.byte 26 @ VOL
	.byte W03
	.byte 25 @ VOL
	.byte W04
	.byte 24 @ VOL
	.byte W03
	.byte 22 @ VOL
	.byte W03
	.byte 21 @ VOL
	.byte W03
	.byte 19 @ VOL
	.byte W04
	.byte EOT @ Cs4, v024
	.byte W48
	.byte VOL, 21
	.byte N72, Fn4, v036
	.byte W01
	.byte VOL, 23
	.byte W01
	.byte 24 @ VOL
	.byte W01
	.byte 26 @ VOL
	.byte W01
	.byte 27 @ VOL
	.byte W01
	.byte 29 @ VOL
	.byte W01
	.byte 30 @ VOL
	.byte W01
	.byte 31 @ VOL
	.byte W01
	.byte 33 @ VOL
	.byte W01
	.byte 34 @ VOL
	.byte W01
	.byte 36 @ VOL
	.byte W01
	.byte 37 @ VOL
	.byte W01
	.byte 38 @ VOL
	.byte W01
	.byte 40 @ VOL
	.byte W01
	.byte 41 @ VOL
	.byte W01
	.byte 43 @ VOL
	.byte W01
	.byte 44 @ VOL
	.byte W01
	.byte 41 @ VOL
	.byte W01
	.byte 41 @ VOL
	.byte W03
	.byte 39 @ VOL
	.byte W02
	.byte 38 @ VOL
	.byte W02
	.byte 36 @ VOL
	.byte W03
	.byte 35 @ VOL
	.byte W02
	.byte 34 @ VOL
	.byte W03
	.byte 32 @ VOL
	.byte W02
	.byte 31 @ VOL
	.byte W03
	.byte 29 @ VOL
	.byte W02
	.byte 28 @ VOL
	.byte W03
	.byte 26 @ VOL
	.byte W02
	.byte 25 @ VOL
	.byte W03
	.byte 24 @ VOL
	.byte W02
	.byte 22 @ VOL
	.byte W03
	.byte 21 @ VOL
	.byte W02
	.byte 19 @ VOL
	.byte W02
	.byte 18 @ VOL
	.byte W03
	.byte 17 @ VOL
	.byte W02
	.byte 15 @ VOL
	.byte W32
	.byte W02
	.byte 49 @ VOL
	.byte N96, Dn3 @ v036
	.byte W96
	.byte W12
	.byte VOL, 22
	.byte N60, Fn4 @ v036
	.byte W07
	.byte VOL, 21
	.byte W08
	.byte 19 @ VOL
	.byte W08
	.byte 18 @ VOL
	.byte W08
	.byte 17 @ VOL
	.byte W08
	.byte 15 @ VOL
	.byte W08
	.byte 14 @ VOL
	.byte W36
	.byte W01
	.byte VOICE, 4
	.byte VOL, 70
	.byte PAN, c_v
	.byte N24, Cs1, v116
	.byte W48
	.byte Dn1, v127 @ N24
	.byte W48
	.byte En1, v116 @ N24
	.byte W48
	.byte Fn1 @ N24, v116
	.byte W48
	.byte W12
	.byte VOICE, 11
	.byte VOL, 70
	.byte N06, Cn3, v072
	.byte W06
	.byte Cn3, v052 @ N06
	.byte W06
	.byte VOICE, 12
	.byte VOL, 70
	.byte N06, Gn2 @ v052
	.byte W06
	.byte Gn2, v056 @ N06
	.byte W06
	.byte Gn2, v112 @ N06
	.byte W06
	.byte Gn2, v092 @ N06
	.byte W06
	.byte Gn2, v020 @ N06
	.byte W06
	.byte Gn2, v012 @ N06
	.byte W06
	.byte VOICE, 8
	.byte VOL, 66
	.byte N06, Bn0, v076
	.byte W06
	.byte Bn0, v036 @ N06
	.byte W06
	.byte N12, Bn0, v024
	.byte W24
track_10_lbl_25e583:
	.byte VOICE, 4
	.byte VOL, 70
	.byte N24, Ds1, v108
	.byte W48
	.byte En1, v116 @ N24
	.byte W48
	.byte PEND
track_10_lbl_25e58f:
	.byte N24, Cs1, v116
	.byte W48
	.byte Dn1, v120 @ N24
	.byte W48
	.byte PEND
	.byte VOICE, 8
	.byte VOL, 70
	.byte N06, En2, v080
	.byte W06
	.byte En2, v040 @ N06
	.byte W06
	.byte En2, v028 @ N06
	.byte W06
	.byte N06 @ En2, v028
	.byte W06
	.byte N06 @ En2, v028
	.byte W06
	.byte N06 @ En2, v028
	.byte W30
	.byte En2, v068 @ N06
	.byte W06
	.byte En2, v048 @ N06
	.byte W06
	.byte En2, v040 @ N06
	.byte W06
	.byte N06 @ En2, v040
	.byte W18
	.byte W48
	.byte VOICE, 4
	.byte VOL, 70
	.byte N24, Dn1, v120
	.byte W48
track_10_lbl_25e5bf:
	.byte N24, Ds1, v108
	.byte W48
	.byte En1, v116 @ N24
	.byte W48
	.byte PEND
	.byte W12
	.byte VOICE, 11
	.byte VOL, 70
	.byte N06, Cn3, v072
	.byte W06
	.byte Cn3, v052 @ N06
	.byte W06
	.byte VOICE, 12
	.byte VOL, 70
	.byte N06, Gn2 @ v052
	.byte W06
	.byte Gn2, v056 @ N06
	.byte W06
	.byte Gn2, v112 @ N06
	.byte W06
	.byte Gn2, v092 @ N06
	.byte W06
	.byte Gn2, v020 @ N06
	.byte W06
	.byte N12, Gn2, v012
	.byte W42
	.byte PATT
		.word track_10_lbl_25e583
	.byte PATT
		.word track_10_lbl_25e58f
	.byte W12
	.byte VOICE, 11
	.byte VOL, 70
	.byte N06, Cn3, v032
	.byte W06
	.byte Cn3, v040 @ N06
	.byte W06
	.byte VOICE, 12
	.byte VOL, 70
	.byte N06, Gn2, v052
	.byte W06
	.byte Gn2, v056 @ N06
	.byte W06
	.byte Gn2, v112 @ N06
	.byte W06
	.byte Gn2, v092 @ N06
	.byte W06
	.byte Gn2, v020 @ N06
	.byte W06
	.byte N12, Gn2, v012
	.byte W42
	.byte VOICE, 4
	.byte VOL, 70
	.byte N24, Cs1, v116
	.byte W48
	.byte Dn1, v120 @ N24
	.byte W48
	.byte PATT
		.word track_10_lbl_25e5bf
	.byte PATT
		.word track_10_lbl_25e58f
	.byte PATT
		.word track_10_lbl_25e5bf
	.byte VOICE, 2
	.byte VOL, 56
	.byte TIE, As0, v092
	.byte W96
	.byte W96
	.byte W72
	.byte W01
	.byte VOL, 55
	.byte W01
	.byte 53 @ VOL
	.byte W01
	.byte 51 @ VOL
	.byte W01
	.byte 48 @ VOL
	.byte W01
	.byte 46 @ VOL
	.byte W01
	.byte 43 @ VOL
	.byte W01
	.byte 41 @ VOL
	.byte W01
	.byte 38 @ VOL
	.byte W01
	.byte 36 @ VOL
	.byte W01
	.byte 34 @ VOL
	.byte W01
	.byte 31 @ VOL
	.byte W01
	.byte 29 @ VOL
	.byte W01
	.byte 26 @ VOL
	.byte W01
	.byte 24 @ VOL
	.byte W01
	.byte 21 @ VOL
	.byte W01
	.byte 19 @ VOL
	.byte W01
	.byte 17 @ VOL
	.byte W01
	.byte 14 @ VOL
	.byte W01
	.byte 12 @ VOL
	.byte W01
	.byte 9 @ VOL
	.byte W01
	.byte 7 @ VOL
	.byte W01
	.byte 4 @ VOL
	.byte W01
	.byte 2 @ VOL
	.byte W01
	.byte EOT @ As0, v092
	.byte W96
	.byte VOICE, 2
	.byte VOL, 28
	.byte PAN, c_v-10
	.byte TIE, Cs3, v032
	.byte W01
	.byte VOL, 26
	.byte W04
	.byte 25 @ VOL
	.byte W04
	.byte 24 @ VOL
	.byte W05
	.byte 22 @ VOL
	.byte W04
	.byte 21 @ VOL
	.byte W05
	.byte 19 @ VOL
	.byte W04
	.byte 18 @ VOL
	.byte W04
	.byte 17 @ VOL
	.byte W05
	.byte 15 @ VOL
	.byte W04
	.byte 14 @ VOL
	.byte W04
	.byte 12 @ VOL
	.byte W05
	.byte 11 @ VOL
	.byte W08
	.byte 12 @ VOL
	.byte W04
	.byte 14 @ VOL
	.byte W03
	.byte 15 @ VOL
	.byte W04
	.byte 17 @ VOL
	.byte W04
	.byte 18 @ VOL
	.byte W03
	.byte 19 @ VOL
	.byte W04
	.byte 21 @ VOL
	.byte W04
	.byte 22 @ VOL
	.byte W03
	.byte 24 @ VOL
	.byte W04
	.byte 25 @ VOL
	.byte W04
	.byte 26 @ VOL
	.byte W02
	.byte W01
	.byte 28 @ VOL
	.byte W04
	.byte 29 @ VOL
	.byte W04
	.byte 31 @ VOL
	.byte W03
	.byte 32 @ VOL
	.byte W04
	.byte 34 @ VOL
	.byte W04
	.byte 35 @ VOL
	.byte W03
	.byte 36 @ VOL
	.byte W04
	.byte 38 @ VOL
	.byte W04
	.byte 39 @ VOL
	.byte W03
	.byte 41 @ VOL
	.byte W04
	.byte 42 @ VOL
	.byte W04
	.byte 43 @ VOL
	.byte W03
	.byte 45 @ VOL
	.byte W01
	.byte 43 @ VOL
	.byte W02
	.byte 42 @ VOL
	.byte W01
	.byte 41 @ VOL
	.byte W02
	.byte 39 @ VOL
	.byte W02
	.byte 38 @ VOL
	.byte W01
	.byte 36 @ VOL
	.byte W02
	.byte 35 @ VOL
	.byte W02
	.byte 34 @ VOL
	.byte W01
	.byte 32 @ VOL
	.byte W02
	.byte 31 @ VOL
	.byte W02
	.byte 29 @ VOL
	.byte W03
	.byte 26 @ VOL
	.byte W02
	.byte 25 @ VOL
	.byte W03
	.byte 22 @ VOL
	.byte W02
	.byte 21 @ VOL
	.byte W03
	.byte 18 @ VOL
	.byte W02
	.byte 17 @ VOL
	.byte W03
	.byte 14 @ VOL
	.byte W03
	.byte EOT @ Cs3, v032
	.byte W12
	.byte VOL, 28
	.byte TIE @ Cs3, v032
	.byte W01
	.byte VOL, 26
	.byte W04
	.byte 25 @ VOL
	.byte W04
	.byte 24 @ VOL
	.byte W05
	.byte 22 @ VOL
	.byte W04
	.byte 21 @ VOL
	.byte W05
	.byte 19 @ VOL
	.byte W04
	.byte 18 @ VOL
	.byte W04
	.byte 17 @ VOL
	.byte W05
	.byte 15 @ VOL
	.byte W04
	.byte 14 @ VOL
	.byte W04
	.byte 12 @ VOL
	.byte W05
	.byte 11 @ VOL
	.byte W08
	.byte 12 @ VOL
	.byte W04
	.byte 14 @ VOL
	.byte W03
	.byte 15 @ VOL
	.byte W04
	.byte 17 @ VOL
	.byte W04
	.byte 18 @ VOL
	.byte W03
	.byte 19 @ VOL
	.byte W04
	.byte 21 @ VOL
	.byte W04
	.byte 22 @ VOL
	.byte W03
	.byte 24 @ VOL
	.byte W04
	.byte 25 @ VOL
	.byte W04
	.byte 26 @ VOL
	.byte W02
	.byte W01
	.byte 28 @ VOL
	.byte W04
	.byte 29 @ VOL
	.byte W04
	.byte 31 @ VOL
	.byte W03
	.byte 32 @ VOL
	.byte W04
	.byte 34 @ VOL
	.byte W04
	.byte 35 @ VOL
	.byte W03
	.byte 36 @ VOL
	.byte W04
	.byte 38 @ VOL
	.byte W04
	.byte 39 @ VOL
	.byte W03
	.byte 41 @ VOL
	.byte W04
	.byte 42 @ VOL
	.byte W04
	.byte 43 @ VOL
	.byte W03
	.byte 45 @ VOL
	.byte W01
	.byte 43 @ VOL
	.byte W02
	.byte 42 @ VOL
	.byte W01
	.byte 41 @ VOL
	.byte W02
	.byte 39 @ VOL
	.byte W02
	.byte 38 @ VOL
	.byte W01
	.byte 36 @ VOL
	.byte W02
	.byte 35 @ VOL
	.byte W02
	.byte 34 @ VOL
	.byte W01
	.byte 32 @ VOL
	.byte W02
	.byte 31 @ VOL
	.byte W02
	.byte 29 @ VOL
	.byte W03
	.byte 26 @ VOL
	.byte W02
	.byte 25 @ VOL
	.byte W03
	.byte 22 @ VOL
	.byte W02
	.byte 21 @ VOL
	.byte W03
	.byte 18 @ VOL
	.byte W02
	.byte EOT @ Cs3, v032
	.byte VOL, 17
	.byte W18
	.byte 28 @ VOL
	.byte TIE, As3, v024
	.byte W01
	.byte VOL, 26
	.byte W04
	.byte 25 @ VOL
	.byte W04
	.byte 24 @ VOL
	.byte W05
	.byte 22 @ VOL
	.byte W04
	.byte 21 @ VOL
	.byte W05
	.byte 19 @ VOL
	.byte W04
	.byte 18 @ VOL
	.byte W04
	.byte 17 @ VOL
	.byte W05
	.byte 15 @ VOL
	.byte W04
	.byte 14 @ VOL
	.byte W04
	.byte 12 @ VOL
	.byte W05
	.byte 11 @ VOL
	.byte W08
	.byte 12 @ VOL
	.byte W04
	.byte 14 @ VOL
	.byte W03
	.byte 15 @ VOL
	.byte W04
	.byte 17 @ VOL
	.byte W04
	.byte 18 @ VOL
	.byte W03
	.byte 19 @ VOL
	.byte W04
	.byte 21 @ VOL
	.byte W04
	.byte 22 @ VOL
	.byte W03
	.byte 24 @ VOL
	.byte W04
	.byte 25 @ VOL
	.byte W04
	.byte 26 @ VOL
	.byte W02
	.byte W01
	.byte 28 @ VOL
	.byte W04
	.byte 29 @ VOL
	.byte W04
	.byte 31 @ VOL
	.byte W03
	.byte 32 @ VOL
	.byte W04
	.byte 34 @ VOL
	.byte W04
	.byte 35 @ VOL
	.byte W03
	.byte 36 @ VOL
	.byte W04
	.byte 38 @ VOL
	.byte W04
	.byte 39 @ VOL
	.byte W03
	.byte 41 @ VOL
	.byte W04
	.byte 42 @ VOL
	.byte W04
	.byte 43 @ VOL
	.byte W03
	.byte 45 @ VOL
	.byte W01
	.byte 43 @ VOL
	.byte W02
	.byte 42 @ VOL
	.byte W01
	.byte 41 @ VOL
	.byte W02
	.byte 39 @ VOL
	.byte W02
	.byte 38 @ VOL
	.byte W01
	.byte 36 @ VOL
	.byte W02
	.byte 35 @ VOL
	.byte W02
	.byte 34 @ VOL
	.byte W01
	.byte 32 @ VOL
	.byte W02
	.byte 31 @ VOL
	.byte W02
	.byte 29 @ VOL
	.byte W03
	.byte 26 @ VOL
	.byte W02
	.byte 25 @ VOL
	.byte W04
	.byte EOT @ As3, v024
	.byte VOL, 22
	.byte N24, En3, v056
	.byte W06
	.byte VOL, 24
	.byte W08
	.byte 25 @ VOL
	.byte W08
	.byte 26 @ VOL
	.byte W02
	.byte 28 @ VOL
	.byte W01
	.byte 26 @ VOL
	.byte W04
	.byte 25 @ VOL
	.byte W04
	.byte 24 @ VOL
	.byte W05
	.byte 22 @ VOL
	.byte W04
	.byte 21 @ VOL
	.byte W05
	.byte 19 @ VOL
	.byte W04
	.byte 18 @ VOL
	.byte W04
	.byte 17 @ VOL
	.byte W05
	.byte 15 @ VOL
	.byte W04
	.byte 14 @ VOL
	.byte W04
	.byte 12 @ VOL
	.byte W05
	.byte 11 @ VOL
	.byte W03
	.byte 9 @ VOL
	.byte W04
	.byte 11 @ VOL
	.byte W06
	.byte 12 @ VOL
	.byte W05
	.byte 14 @ VOL
	.byte W06
	.byte 15 @ VOL
	.byte W05
	.byte 17 @ VOL
	.byte W05
	.byte 18 @ VOL
	.byte W05
	.byte 19 @ VOL
	.byte W05
	.byte 21 @ VOL
	.byte W03
	.byte W02
	.byte 22 @ VOL
	.byte W05
	.byte 24 @ VOL
	.byte W05
	.byte 25 @ VOL
	.byte W07
	.byte 24 @ VOL
	.byte W05
	.byte N60, Cs4, v064
	.byte W01
	.byte VOL, 22
	.byte W05
	.byte 21 @ VOL
	.byte W06
	.byte 19 @ VOL
	.byte W05
	.byte 18 @ VOL
	.byte W05
	.byte 17 @ VOL
	.byte W06
	.byte 15 @ VOL
	.byte W05
	.byte 14 @ VOL
	.byte W05
	.byte 12 @ VOL
	.byte W05
	.byte 11 @ VOL
	.byte W06
	.byte 9 @ VOL
	.byte W05
	.byte 8 @ VOL
	.byte W05
	.byte 7 @ VOL
	.byte W13
	.byte 28 @ VOL
	.byte TIE, Dn4, v032
	.byte W01
	.byte VOL, 26
	.byte W04
	.byte 25 @ VOL
	.byte W04
	.byte 24 @ VOL
	.byte W05
	.byte 22 @ VOL
	.byte W04
	.byte 21 @ VOL
	.byte W05
	.byte 19 @ VOL
	.byte W04
	.byte 18 @ VOL
	.byte W04
	.byte 17 @ VOL
	.byte W05
	.byte 15 @ VOL
	.byte W04
	.byte 14 @ VOL
	.byte W04
	.byte 12 @ VOL
	.byte W05
	.byte 11 @ VOL
	.byte W10
	.byte 12 @ VOL
	.byte W06
	.byte 14 @ VOL
	.byte W07
	.byte 15 @ VOL
	.byte W07
	.byte 17 @ VOL
	.byte W06
	.byte 18 @ VOL
	.byte W07
	.byte 19 @ VOL
	.byte W04
track_10_lbl_25e84d:
	.byte W03
	.byte VOL, 21
	.byte W07
	.byte 22 @ VOL
	.byte W06
	.byte 24 @ VOL
	.byte W07
	.byte 25 @ VOL
	.byte W07
	.byte 26 @ VOL
	.byte W06
	.byte 28 @ VOL
	.byte W07
	.byte 29 @ VOL
	.byte W03
	.byte 28 @ VOL
	.byte W02
	.byte EOT @ Dn4, v032
	.byte N48, Gs4, v040
	.byte W01
	.byte VOL, 26
	.byte W04
	.byte 25 @ VOL
	.byte W03
	.byte 24 @ VOL
	.byte W04
	.byte 22 @ VOL
	.byte W03
	.byte 21 @ VOL
	.byte W04
	.byte 19 @ VOL
	.byte W03
	.byte 18 @ VOL
	.byte W03
	.byte 17 @ VOL
	.byte W04
	.byte 15 @ VOL
	.byte W03
	.byte 14 @ VOL
	.byte W16
	.byte PEND
	.byte TIE, Dn4, v032
	.byte W52
	.byte W01
	.byte VOL, 11
	.byte W06
	.byte 12 @ VOL
	.byte W06
	.byte 14 @ VOL
	.byte W07
	.byte 15 @ VOL
	.byte W07
	.byte 17 @ VOL
	.byte W06
	.byte 18 @ VOL
	.byte W07
	.byte 19 @ VOL
	.byte W04
	.byte PATT
		.word track_10_lbl_25e84d
	.byte W96
	.byte W96
	.byte VOL, 35
	.byte TIE, As2, v032
	.byte W05
	.byte VOL, 34
	.byte W06
	.byte 32 @ VOL
	.byte W06
	.byte 31 @ VOL
	.byte W06
	.byte 29 @ VOL
	.byte W06
	.byte 28 @ VOL
	.byte W06
	.byte 26 @ VOL
	.byte W06
	.byte 25 @ VOL
	.byte W06
	.byte 24 @ VOL
	.byte W06
	.byte 22 @ VOL
	.byte W06
	.byte 21 @ VOL
	.byte W06
	.byte 19 @ VOL
	.byte W05
	.byte 18 @ VOL
	.byte W06
	.byte 17 @ VOL
	.byte W06
	.byte 15 @ VOL
	.byte W06
	.byte 14 @ VOL
	.byte W06
	.byte 12 @ VOL
	.byte W02
	.byte W04
	.byte 11 @ VOL
	.byte W06
	.byte 9 @ VOL
	.byte W06
	.byte 8 @ VOL
	.byte W06
	.byte 7 @ VOL
	.byte W06
	.byte 5 @ VOL
	.byte W06
	.byte 4 @ VOL
	.byte W06
	.byte 2 @ VOL
	.byte W06
	.byte 1 @ VOL
	.byte W02
	.byte EOT @ As2, v032
	.byte W48
	.byte GOTO
		.word track_10_lbl_25e429
	.byte FINE

track_10_2:
	.byte KEYSH, 0
	.byte VOICE, 2
	.byte VOL, 21
	.byte PAN, c_v-4
	.byte PRIO, 108
	.byte TIE, Cn2, v052
	.byte W02
	.byte VOL, 22
	.byte W01
	.byte 23 @ VOL
	.byte W01
	.byte 24 @ VOL
	.byte W01
	.byte 25 @ VOL
	.byte W01
	.byte 26 @ VOL
	.byte W01
	.byte 27 @ VOL
	.byte W01
	.byte 28 @ VOL
	.byte W01
	.byte 29 @ VOL
	.byte W01
	.byte 30 @ VOL
	.byte W01
	.byte 31 @ VOL
	.byte W01
	.byte 32 @ VOL
	.byte W01
	.byte 33 @ VOL
	.byte W01
	.byte 34 @ VOL
	.byte W01
	.byte 35 @ VOL
	.byte W02
	.byte 36 @ VOL
	.byte W01
	.byte 38 @ VOL
	.byte W03
	.byte 41 @ VOL
	.byte W03
	.byte 43 @ VOL
	.byte W03
	.byte 46 @ VOL
	.byte W01
	.byte 48 @ VOL
	.byte W03
	.byte 49 @ VOL
	.byte W01
	.byte 51 @ VOL
	.byte W01
	.byte 52 @ VOL
	.byte W03
	.byte 53 @ VOL
	.byte W09
	.byte 55 @ VOL
	.byte W06
	.byte 55 @ VOL
	.byte W01
	.byte 52 @ VOL
	.byte W01
	.byte 51 @ VOL
	.byte W02
	.byte 48 @ VOL
	.byte W02
	.byte 45 @ VOL
	.byte W01
	.byte 43 @ VOL
	.byte W01
	.byte 42 @ VOL
	.byte W03
	.byte 41 @ VOL
	.byte W02
	.byte 39 @ VOL
	.byte W01
	.byte 38 @ VOL
	.byte W02
	.byte 36 @ VOL
	.byte W01
	.byte 35 @ VOL
	.byte W03
	.byte 34 @ VOL
	.byte W02
	.byte 32 @ VOL
	.byte W03
	.byte 31 @ VOL
	.byte W04
	.byte 29 @ VOL
	.byte W02
	.byte 28 @ VOL
	.byte W09
	.byte 26 @ VOL
	.byte W05
	.byte 25 @ VOL
	.byte W05
	.byte 24 @ VOL
	.byte W05
	.byte 22 @ VOL
	.byte W06
	.byte 21 @ VOL
	.byte W15
	.byte 19 @ VOL
	.byte W08
	.byte 18 @ VOL
	.byte W07
	.byte 17 @ VOL
	.byte W08
	.byte 15 @ VOL
	.byte W10
	.byte 14 @ VOL
	.byte W18
	.byte 12 @ VOL
	.byte W10
	.byte 11 @ VOL
	.byte W04
	.byte W01
	.byte 12 @ VOL
	.byte W03
	.byte 12 @ VOL
	.byte W05
	.byte 14 @ VOL
	.byte W06
	.byte 15 @ VOL
	.byte W06
	.byte 17 @ VOL
	.byte W05
	.byte 18 @ VOL
	.byte W06
	.byte 19 @ VOL
	.byte W06
	.byte 21 @ VOL
	.byte W05
	.byte 22 @ VOL
	.byte W06
	.byte 24 @ VOL
	.byte W05
	.byte 25 @ VOL
	.byte W06
	.byte 26 @ VOL
	.byte W32
	.byte W02
	.byte 35 @ VOL
	.byte W02
	.byte W03
	.byte 36 @ VOL
	.byte W06
	.byte 38 @ VOL
	.byte W06
	.byte 39 @ VOL
	.byte W05
	.byte 41 @ VOL
	.byte W06
	.byte 42 @ VOL
	.byte W06
	.byte 43 @ VOL
	.byte W05
	.byte 45 @ VOL
	.byte W06
	.byte 46 @ VOL
	.byte W06
	.byte 48 @ VOL
	.byte W05
	.byte 49 @ VOL
	.byte W06
	.byte 51 @ VOL
	.byte W05
	.byte 52 @ VOL
	.byte W06
	.byte 53 @ VOL
	.byte W06
	.byte 55 @ VOL
	.byte W05
	.byte 56 @ VOL
	.byte W06
	.byte 58 @ VOL
	.byte W08
	.byte 56 @ VOL
	.byte W02
	.byte 55 @ VOL
	.byte W02
	.byte 53 @ VOL
	.byte W01
	.byte 52 @ VOL
	.byte W02
	.byte 51 @ VOL
	.byte W02
	.byte 49 @ VOL
	.byte W02
	.byte 48 @ VOL
	.byte W02
	.byte 46 @ VOL
	.byte W02
	.byte 45 @ VOL
	.byte W03
	.byte 42 @ VOL
	.byte W02
	.byte 41 @ VOL
	.byte W02
	.byte 39 @ VOL
	.byte W02
	.byte 38 @ VOL
	.byte W02
	.byte 36 @ VOL
	.byte W02
	.byte 35 @ VOL
	.byte W01
	.byte 34 @ VOL
	.byte W02
	.byte 32 @ VOL
	.byte W02
	.byte 31 @ VOL
	.byte W02
	.byte 29 @ VOL
	.byte W02
	.byte 28 @ VOL
	.byte W02
	.byte 26 @ VOL
	.byte W03
	.byte 24 @ VOL
	.byte W02
	.byte 22 @ VOL
	.byte W02
	.byte 21 @ VOL
	.byte W02
	.byte EOT @ Cn2, v052
	.byte W48
	.byte VOICE, 4
	.byte VOL, 70
	.byte PAN, c_v
	.byte N12, Cn2, v120
	.byte W12
	.byte Fn1, v112 @ N12
	.byte W12
	.byte Fs1, v120 @ N12
	.byte W12
	.byte Cn1 @ N12, v120
	.byte W60
	.byte W96
	.byte W96
	.byte W96
track_10_lbl_25e9d4:
	.byte VOICE, 4
	.byte VOL, 70
	.byte PAN, c_v
	.byte N12, Cn1, v127
	.byte W60
	.byte Cs1 @ N12, v127
	.byte W36
	.byte W12
	.byte Fs1, v112 @ N12
	.byte W24
	.byte Fn1, v108 @ N12
	.byte W60
	.byte W12
	.byte VOICE, 11
	.byte VOL, 70
	.byte N06, Cn3, v072
	.byte W06
	.byte Cn3, v052 @ N06
	.byte W06
	.byte VOICE, 12
	.byte VOL, 70
	.byte N06, Gn2 @ v052
	.byte W06
	.byte Gn2, v056 @ N06
	.byte W06
	.byte Gn2, v112 @ N06
	.byte W06
	.byte Gn2, v092 @ N06
	.byte W06
	.byte Gn2, v020 @ N06
	.byte W06
	.byte Gn2, v012 @ N06
	.byte W06
	.byte VOICE, 8
	.byte VOL, 66
	.byte N06, Bn0, v076
	.byte W06
	.byte Bn0, v036 @ N06
	.byte W06
	.byte N12, Bn0, v024
	.byte W24
	.byte W12
	.byte VOICE, 4
	.byte VOL, 70
	.byte N12, Fs1, v112
	.byte W24
	.byte Fn1, v108 @ N12
	.byte W60
	.byte W12
	.byte VOICE, 11
	.byte VOL, 70
	.byte N06, Cn3, v072
	.byte W06
	.byte Cn3, v052 @ N06
	.byte W06
	.byte VOICE, 12
	.byte VOL, 70
	.byte N06, Gn2 @ v052
	.byte W06
	.byte Gn2, v056 @ N06
	.byte W06
	.byte Gn2, v112 @ N06
	.byte W06
	.byte Gn2, v092 @ N06
	.byte W06
	.byte Gn2, v020 @ N06
	.byte W06
	.byte N12, Gn2, v012
	.byte W18
	.byte VOICE, 8
	.byte VOL, 66
	.byte N06, Bn0, v076
	.byte W06
	.byte Bn0, v036 @ N06
	.byte W06
	.byte N12, Bn0, v024
	.byte W12
	.byte VOICE, 11
	.byte VOL, 70
	.byte N06, Cn3, v032
	.byte W06
	.byte Cn3, v040 @ N06
	.byte W06
	.byte VOICE, 4
	.byte N12, Fs1, v112
	.byte W24
	.byte Fn1, v108 @ N12
	.byte W60
	.byte N24, Cs1, v127
	.byte W48
	.byte Dn1, v112 @ N24
	.byte W48
	.byte Ds1 @ N24, v112
	.byte W48
	.byte En1, v108 @ N24
	.byte W48
	.byte VOICE, 2
	.byte VOL, 35
	.byte PAN, c_v-10
	.byte N72, Cn3, v044
	.byte W84
	.byte N12, Cs3, v076
	.byte W12
	.byte N10, Cn3, v068
	.byte W12
	.byte N60, Bn2, v036
	.byte W72
	.byte TIE, As2, v044
	.byte W12
	.byte W96
	.byte W60
	.byte EOT @ As2, v044
	.byte W24
	.byte TIE, An2, v040
	.byte W12
	.byte W96
	.byte W48
	.byte EOT @ An2, v040
	.byte W36
	.byte TIE, Gs2, v048
	.byte W12
	.byte W96
	.byte W36
	.byte EOT @ Gs2, v048
	.byte W48
	.byte TIE, Gn2 @ v048
	.byte W12
	.byte W96
	.byte W36
	.byte EOT @ Gn2, v048
	.byte W48
	.byte TIE, Fs2, v044
	.byte W12
	.byte W96
	.byte W60
	.byte EOT @ Fs2, v044
	.byte W24
	.byte N12, Gn2, v052
	.byte W12
	.byte W12
	.byte TIE, Fs2, v060
	.byte W84
	.byte W72
	.byte EOT @ Fs2, v060
	.byte W12
	.byte TIE, Fn2, v052
	.byte W12
	.byte W36
	.byte VOL, 34
	.byte W04
	.byte 32 @ VOL
	.byte W05
	.byte 31 @ VOL
	.byte W05
	.byte 29 @ VOL
	.byte W04
	.byte 28 @ VOL
	.byte W05
	.byte 26 @ VOL
	.byte W04
	.byte 25 @ VOL
	.byte W05
	.byte 24 @ VOL
	.byte W04
	.byte 22 @ VOL
	.byte W05
	.byte 21 @ VOL
	.byte W04
	.byte 19 @ VOL
	.byte W05
	.byte 18 @ VOL
	.byte W04
	.byte 17 @ VOL
	.byte W05
	.byte 15 @ VOL
	.byte W01
	.byte W04
	.byte 14 @ VOL
	.byte W04
	.byte 12 @ VOL
	.byte W05
	.byte 11 @ VOL
	.byte W04
	.byte 9 @ VOL
	.byte W05
	.byte 8 @ VOL
	.byte W04
	.byte 7 @ VOL
	.byte W05
	.byte 5 @ VOL
	.byte W04
	.byte 4 @ VOL
	.byte W05
	.byte 2 @ VOL
	.byte W04
	.byte 1 @ VOL
	.byte W04
	.byte EOT @ Fn2, v052
	.byte W48
	.byte W96
	.byte VOL, 4
	.byte TIE, An2, v060
	.byte W05
	.byte VOL, 5
	.byte W03
	.byte 7 @ VOL
	.byte W03
	.byte 8 @ VOL
	.byte W03
	.byte 9 @ VOL
	.byte W03
	.byte 11 @ VOL
	.byte W03
	.byte 12 @ VOL
	.byte W03
	.byte 14 @ VOL
	.byte W04
	.byte 15 @ VOL
	.byte W03
	.byte 17 @ VOL
	.byte W03
	.byte 18 @ VOL
	.byte W03
	.byte 19 @ VOL
	.byte W03
	.byte 21 @ VOL
	.byte W03
	.byte 22 @ VOL
	.byte W03
	.byte 24 @ VOL
	.byte W03
	.byte 25 @ VOL
	.byte W03
	.byte 26 @ VOL
	.byte W03
	.byte 28 @ VOL
	.byte W04
	.byte 29 @ VOL
	.byte W03
	.byte 31 @ VOL
	.byte W03
	.byte 32 @ VOL
	.byte W03
	.byte 34 @ VOL
	.byte W03
	.byte 35 @ VOL
	.byte W03
	.byte 36 @ VOL
	.byte W03
	.byte 38 @ VOL
	.byte W03
	.byte 39 @ VOL
	.byte W03
	.byte 41 @ VOL
	.byte W04
	.byte 42 @ VOL
	.byte W03
	.byte 43 @ VOL
	.byte W03
	.byte 45 @ VOL
	.byte W04
	.byte W04
	.byte 43 @ VOL
	.byte W03
	.byte 42 @ VOL
	.byte W03
	.byte 41 @ VOL
	.byte W03
	.byte 39 @ VOL
	.byte W03
	.byte 38 @ VOL
	.byte W03
	.byte 36 @ VOL
	.byte W03
	.byte 35 @ VOL
	.byte W03
	.byte 34 @ VOL
	.byte W03
	.byte 32 @ VOL
	.byte W03
	.byte 31 @ VOL
	.byte W03
	.byte 29 @ VOL
	.byte W03
	.byte 28 @ VOL
	.byte W03
	.byte 26 @ VOL
	.byte W03
	.byte 25 @ VOL
	.byte W03
	.byte 24 @ VOL
	.byte W03
	.byte 22 @ VOL
	.byte W03
	.byte 21 @ VOL
	.byte W03
	.byte 19 @ VOL
	.byte W03
	.byte 18 @ VOL
	.byte W03
	.byte 17 @ VOL
	.byte W03
	.byte 15 @ VOL
	.byte W03
	.byte 14 @ VOL
	.byte W03
	.byte 12 @ VOL
	.byte W03
	.byte 11 @ VOL
	.byte W03
	.byte 9 @ VOL
	.byte W03
	.byte 8 @ VOL
	.byte W03
	.byte 7 @ VOL
	.byte W03
	.byte 5 @ VOL
	.byte W03
	.byte 4 @ VOL
	.byte W03
	.byte 2 @ VOL
	.byte W05
	.byte EOT @ An2, v060
	.byte W96
	.byte VOICE, 4
	.byte VOL, 70
	.byte PAN, c_v
	.byte N24, As0, v108
	.byte W48
	.byte Bn0 @ N24, v108
	.byte W48
	.byte En1 @ N24, v108
	.byte W48
	.byte Ds1 @ N24, v108
	.byte W48
	.byte As0 @ N24, v108
	.byte W48
	.byte Bn0 @ N24, v108
	.byte W48
	.byte En1 @ N24, v108
	.byte W48
	.byte Ds1 @ N24, v108
	.byte W48
	.byte As0 @ N24, v108
	.byte W48
	.byte Bn0 @ N24, v108
	.byte W48
	.byte En1 @ N24, v108
	.byte W48
	.byte Ds1 @ N24, v108
	.byte W48
	.byte As0 @ N24, v108
	.byte W48
	.byte Bn0, v112 @ N24
	.byte W48
	.byte En1, v108 @ N24
	.byte W48
	.byte Ds1, v112 @ N24
	.byte W48
	.byte As0, v108 @ N24
	.byte W48
	.byte Bn0, v120 @ N24
	.byte W48
	.byte En1, v112 @ N24
	.byte W48
	.byte Ds1, v116 @ N24
	.byte W48
	.byte As0, v108 @ N24
	.byte W48
	.byte Bn0, v124 @ N24
	.byte W48
	.byte En1, v120 @ N24
	.byte W48
	.byte Ds1, v112 @ N24
	.byte W48
	.byte As0, v108 @ N24
	.byte W48
	.byte Bn0, v120 @ N24
	.byte W48
	.byte En1, v108 @ N24
	.byte W48
	.byte Ds1, v116 @ N24
	.byte W48
	.byte As0, v108 @ N24
	.byte W48
	.byte Bn0, v120 @ N24
	.byte W48
	.byte En1, v108 @ N24
	.byte W48
	.byte Ds1 @ N24, v108
	.byte W48
	.byte GOTO
		.word track_10_lbl_25e9d4
	.byte FINE

track_10_3:
	.byte KEYSH, 0
	.byte PRIO, 30
	.byte W96
	.byte W48
	.byte VOICE, 2
	.byte VOL, 7
	.byte PAN, c_v-10
	.byte N48, Bn3, v052
	.byte W05
	.byte VOL, 8
	.byte W03
	.byte 9 @ VOL
	.byte W04
	.byte 11 @ VOL
	.byte W03
	.byte 12 @ VOL
	.byte W03
	.byte 14 @ VOL
	.byte W03
	.byte 15 @ VOL
	.byte W03
	.byte 17 @ VOL
	.byte W04
	.byte 18 @ VOL
	.byte W03
	.byte 19 @ VOL
	.byte W03
	.byte 21 @ VOL
	.byte W03
	.byte 22 @ VOL
	.byte W03
	.byte 24 @ VOL
	.byte W04
	.byte 25 @ VOL
	.byte W03
	.byte 26 @ VOL
	.byte W01
	.byte W96
	.byte W12
	.byte VOICE, 11
	.byte VOL, 90
	.byte PAN, c_v
	.byte N06, Cn3 @ v052
	.byte W06
	.byte Cn3, v040 @ N06
	.byte W06
	.byte VOICE, 12
	.byte VOL, 70
	.byte N06, Gn2, v052
	.byte W06
	.byte Gn2, v056 @ N06
	.byte W06
	.byte Gn2, v112 @ N06
	.byte W06
	.byte Gn2, v092 @ N06
	.byte W06
	.byte Gn2, v020 @ N06
	.byte W06
	.byte N12, Gn2, v012
	.byte W18
	.byte VOICE, 8
	.byte VOL, 70
	.byte N06, Bn0, v076
	.byte W06
	.byte Bn0, v036 @ N06
	.byte W06
	.byte N12, Bn0, v024
	.byte W12
	.byte W96
	.byte W96
	.byte W96
	.byte W96
	.byte W96
track_10_lbl_25ec40:
	.byte W12
	.byte VOICE, 11
	.byte VOL, 70
	.byte PAN, c_v
	.byte N06, Cn3, v072
	.byte W06
	.byte Cn3, v052 @ N06
	.byte W06
	.byte VOICE, 12
	.byte VOL, 70
	.byte N06, Gn2 @ v052
	.byte W06
	.byte Gn2, v056 @ N06
	.byte W06
	.byte Gn2, v112 @ N06
	.byte W06
	.byte Gn2, v092 @ N06
	.byte W06
	.byte Gn2, v020 @ N06
	.byte W06
	.byte Gn2, v012 @ N06
	.byte W06
	.byte VOICE, 8
	.byte VOL, 66
	.byte N06, Bn0, v076
	.byte W06
	.byte Bn0, v036 @ N06
	.byte W06
	.byte N12, Bn0, v024
	.byte W24
	.byte W96
	.byte W12
	.byte VOICE, 4
	.byte VOL, 70
	.byte N12, Cn1, v108
	.byte W36
	.byte Cs1 @ N12, v108
	.byte W48
	.byte W96
	.byte W12
	.byte Cn1 @ N12, v108
	.byte W36
	.byte Cs1 @ N12, v108
	.byte W48
	.byte W96
	.byte W96
	.byte W96
	.byte W96
	.byte W96
	.byte N24, Cs1, v116
	.byte W48
	.byte Dn1, v120 @ N24
	.byte W48
	.byte W96
	.byte W96
track_10_lbl_25ec93:
	.byte N24, Ds1, v108
	.byte W48
	.byte En1, v116 @ N24
	.byte W48
	.byte PEND
	.byte Cs1 @ N24, v116
	.byte W96
	.byte W96
	.byte N24 @ Cs1, v116
	.byte W48
	.byte Dn1, v120 @ N24
	.byte W48
	.byte W96
	.byte W96
	.byte PATT
		.word track_10_lbl_25ec93
	.byte W96
	.byte W96
	.byte W96
	.byte W96
	.byte W96
	.byte W96
	.byte W96
	.byte W96
	.byte W96
	.byte W96
	.byte W96
	.byte W96
	.byte W96
	.byte W96
	.byte W96
	.byte W96
	.byte W96
	.byte W96
	.byte W96
	.byte W96
	.byte W96
	.byte W96
	.byte W96
	.byte W96
	.byte GOTO
		.word track_10_lbl_25ec40
	.byte FINE

track_10_4:
	.byte KEYSH, 0
	.byte VOICE, 9
	.byte VOL, 70
	.byte PAN, c_v
	.byte PRIO, 110
	.byte TIE, As1, v076
	.byte W96
	.byte W96
	.byte W96
	.byte W96
	.byte W48
	.byte EOT @ As1, v076
	.byte W48
	.byte W96
	.byte W96
	.byte W96
	.byte W96
track_10_lbl_25ece0:
	.byte W96
	.byte W96
	.byte W96
	.byte W96
	.byte W96
	.byte W96
	.byte W96
	.byte W96
	.byte VOICE, 10
	.byte VOL, 49
	.byte N72, Fn3, v060
	.byte W84
	.byte N12, Fs3, v068
	.byte W12
	.byte N10, Fn3, v064
	.byte W12
	.byte N60, En3, v060
	.byte W72
	.byte TIE, Ds3, v064
	.byte W12
	.byte W96
	.byte W60
	.byte EOT @ Ds3, v064
	.byte W24
	.byte TIE, Dn3, v060
	.byte W12
	.byte W96
	.byte W48
	.byte EOT @ Dn3, v060
	.byte W36
	.byte TIE, Cs3, v048
	.byte W12
	.byte W96
	.byte W36
	.byte EOT @ Cs3, v048
	.byte W48
	.byte TIE, Cn3 @ v048
	.byte W12
	.byte W96
	.byte W36
	.byte EOT @ Cn3, v048
	.byte W48
	.byte TIE @ Cn3, v048
	.byte W12
	.byte W96
	.byte W60
	.byte EOT @ Cn3, v048
	.byte W24
	.byte N12, Cs3, v068
	.byte W12
	.byte W12
	.byte TIE, Cn3, v052
	.byte W84
	.byte W72
	.byte EOT @ Cn3, v052
	.byte W12
	.byte TIE, Bn2, v056
	.byte W12
	.byte W96
	.byte W48
	.byte EOT @ Bn2, v056
	.byte W48
	.byte W96
	.byte W96
	.byte W96
	.byte W96
	.byte W96
	.byte W96
	.byte W96
	.byte W96
	.byte W96
	.byte W96
	.byte W96
	.byte W96
	.byte W96
	.byte W96
	.byte W96
	.byte W96
	.byte W96
	.byte W96
	.byte W96
	.byte W96
	.byte GOTO
		.word track_10_lbl_25ece0
	.byte FINE

.align 2

track_10:
	.byte 5
	.byte 10
	.byte 130
	.byte 128
	.word 0x80a5d94
	.word track_10_0
	.word track_10_1
	.word track_10_2
	.word track_10_3
	.word track_10_4

.align 2
