.align 2

.global track_142

track_142_0:
	.byte KEYSH, 0
	.byte TEMPO, 75
	.byte VOICE, 8
	.byte VOL, 70
	.byte PAN, c_v
	.byte PRIO, 127
	.byte N04, Cn3, v127
	.byte W04
	.byte Cn3, v040 @ N04
	.byte W04
	.byte Cn3, v012 @ N04
	.byte W40
	.byte VOICE, 31
	.byte VOL, 44
	.byte W32
	.byte W02
	.byte 7 @ VOL
	.byte W01
	.byte N09 @ Cn3, v012
	.byte W01
	.byte VOL, 7
	.byte W03
	.byte 7 @ VOL
	.byte W02
	.byte 8 @ VOL
	.byte W02
	.byte 8 @ VOL
	.byte W01
	.byte N09, Cn3, v016
	.byte W01
	.byte VOL, 9
	.byte W03
	.byte 9 @ VOL
	.byte W02
	.byte 10 @ VOL
	.byte W02
	.byte 11 @ VOL
	.byte W01
	.byte N09, Cn3, v020
	.byte W02
	.byte VOL, 11
	.byte W02
	.byte 12 @ VOL
	.byte W03
	.byte 14 @ VOL
	.byte W02
	.byte 15 @ VOL
	.byte N09, Cn3, v032
	.byte W02
	.byte VOL, 17
	.byte W03
	.byte 19 @ VOL
	.byte W02
	.byte 21 @ VOL
	.byte W02
	.byte 23 @ VOL
	.byte N09, Cn3, v040
	.byte W02
	.byte VOL, 25
	.byte W03
	.byte 27 @ VOL
	.byte W01
	.byte 28 @ VOL
	.byte W03
	.byte 33 @ VOL
	.byte N04, Cn3, v052
	.byte W02
	.byte VOL, 38
	.byte W02
	.byte 40 @ VOL
	.byte N09, Cn3, v080
	.byte W02
	.byte VOL, 44
	.byte W02
	.byte 47 @ VOL
	.byte W01
	.byte 47 @ VOL
	.byte W02
	.byte 48 @ VOL
	.byte W02
	.byte 49 @ VOL
	.byte W02
	.byte 50 @ VOL
	.byte W01
	.byte 51 @ VOL
	.byte W48
	.byte W48
	.byte 0xB6

track_142_1:
	.byte KEYSH, 0
	.byte VOICE, 29
	.byte VOL, 0
	.byte PRIO, 127
	.byte N01, Cn3, v004
	.byte W60
	.byte PAN, c_v
	.byte N90, Cn3, v100
	.byte W02
	.byte VOL, 0
	.byte W02
	.byte 1 @ VOL
	.byte W02
	.byte 1 @ VOL
	.byte W03
	.byte 2 @ VOL
	.byte W02
	.byte 2 @ VOL
	.byte W02
	.byte 3 @ VOL
	.byte W02
	.byte 3 @ VOL
	.byte W03
	.byte 4 @ VOL
	.byte W02
	.byte 6 @ VOL
	.byte W02
	.byte 7 @ VOL
	.byte W03
	.byte 9 @ VOL
	.byte W02
	.byte 10 @ VOL
	.byte W02
	.byte 12 @ VOL
	.byte W01
	.byte 12 @ VOL
	.byte W02
	.byte 14 @ VOL
	.byte W03
	.byte 17 @ VOL
	.byte W01
	.byte W01
	.byte 19 @ VOL
	.byte W02
	.byte 22 @ VOL
	.byte W02
	.byte 24 @ VOL
	.byte W03
	.byte 26 @ VOL
	.byte W02
	.byte 29 @ VOL
	.byte W02
	.byte 33 @ VOL
	.byte W03
	.byte 38 @ VOL
	.byte W02
	.byte 42 @ VOL
	.byte W02
	.byte 47 @ VOL
	.byte W02
	.byte 59 @ VOL
	.byte W02
	.byte 70 @ VOL
	.byte W03
	.byte 64 @ VOL
	.byte W02
	.byte 59 @ VOL
	.byte W02
	.byte 54 @ VOL
	.byte W03
	.byte 49 @ VOL
	.byte W02
	.byte 44 @ VOL
	.byte W02
	.byte 39 @ VOL
	.byte W02
	.byte 34 @ VOL
	.byte W03
	.byte 29 @ VOL
	.byte W02
	.byte 24 @ VOL
	.byte W02
	.byte 19 @ VOL
	.byte W03
	.byte 14 @ VOL
	.byte W02
	.byte 9 @ VOL
	.byte W02
	.byte 4 @ VOL
	.byte W02
	.byte 1 @ VOL
	.byte W40
	.byte W01
	.byte W48
	.byte 0xB6

track_142_2:
	.byte KEYSH, 0
	.byte VOICE, 29
	.byte VOL, 0
	.byte PAN, c_v
	.byte PRIO, 127
	.byte N01, Cn3, v004
	.byte W96
	.byte N56, Cn4, v088
	.byte W02
	.byte VOL, 1
	.byte W02
	.byte 2 @ VOL
	.byte W03
	.byte 3 @ VOL
	.byte W02
	.byte 4 @ VOL
	.byte W01
	.byte 4 @ VOL
	.byte W02
	.byte 7 @ VOL
	.byte W02
	.byte 9 @ VOL
	.byte W03
	.byte 12 @ VOL
	.byte W01
	.byte 14 @ VOL
	.byte W02
	.byte 17 @ VOL
	.byte W02
	.byte 20 @ VOL
	.byte W03
	.byte 24 @ VOL
	.byte W02
	.byte 30 @ VOL
	.byte W02
	.byte 36 @ VOL
	.byte W03
	.byte 45 @ VOL
	.byte W02
	.byte 57 @ VOL
	.byte W02
	.byte 70 @ VOL
	.byte W60
	.byte W48
	.byte 0xB6

track_142_3:
	.byte KEYSH, 0
	.byte VOICE, 30
	.byte VOL, 10
	.byte PAN, c_v
	.byte BENDR, 0
	.byte PRIO, 127
	.byte TIE, Cn1, v052
	.byte W02
	.byte VOL, 10
	.byte W02
	.byte 10 @ VOL
	.byte W02
	.byte 10 @ VOL
	.byte W03
	.byte 10 @ VOL
	.byte W02
	.byte 10 @ VOL
	.byte W02
	.byte 11 @ VOL
	.byte W03
	.byte 11 @ VOL
	.byte W02
	.byte 11 @ VOL
	.byte W02
	.byte 11 @ VOL
	.byte W02
	.byte 11 @ VOL
	.byte W03
	.byte 11 @ VOL
	.byte W02
	.byte 11 @ VOL
	.byte W02
	.byte 11 @ VOL
	.byte W03
	.byte 11 @ VOL
	.byte W02
	.byte 11 @ VOL
	.byte W02
	.byte 11 @ VOL
	.byte W02
	.byte 11 @ VOL
	.byte W03
	.byte 12 @ VOL
	.byte W02
	.byte 12 @ VOL
	.byte W02
	.byte 12 @ VOL
	.byte W03
	.byte 12 @ VOL
	.byte W02
	.byte 12 @ VOL
	.byte W02
	.byte 12 @ VOL
	.byte W02
	.byte 13 @ VOL
	.byte W02
	.byte 13 @ VOL
	.byte W03
	.byte 13 @ VOL
	.byte W02
	.byte 13 @ VOL
	.byte W02
	.byte 13 @ VOL
	.byte W02
	.byte 14 @ VOL
	.byte W03
	.byte 14 @ VOL
	.byte W02
	.byte 14 @ VOL
	.byte W02
	.byte 14 @ VOL
	.byte W03
	.byte 14 @ VOL
	.byte W02
	.byte 15 @ VOL
	.byte W02
	.byte 15 @ VOL
	.byte W02
	.byte 15 @ VOL
	.byte W03
	.byte 15 @ VOL
	.byte W01
	.byte 16 @ VOL
	.byte W03
	.byte 17 @ VOL
	.byte W02
	.byte 18 @ VOL
	.byte W02
	.byte 19 @ VOL
	.byte W02
	.byte 20 @ VOL
	.byte W02
	.byte W01
	.byte 22 @ VOL
	.byte W02
	.byte 23 @ VOL
	.byte W02
	.byte 24 @ VOL
	.byte W03
	.byte 25 @ VOL
	.byte W01
	.byte 26 @ VOL
	.byte W03
	.byte 28 @ VOL
	.byte W02
	.byte 30 @ VOL
	.byte W02
	.byte 31 @ VOL
	.byte W03
	.byte 34 @ VOL
	.byte W01
	.byte 35 @ VOL
	.byte W03
	.byte 39 @ VOL
	.byte W02
	.byte 43 @ VOL
	.byte W02
	.byte 47 @ VOL
	.byte W02
	.byte 53 @ VOL
	.byte W01
	.byte 55 @ VOL
	.byte W18
	.byte EOT @ Cn1, v052
	.byte W48
	.byte W48
	.byte 0xB6

track_142_4:
	.byte KEYSH, 0
	.byte VOICE, 36
	.byte VOL, 5
	.byte PAN, c_v
	.byte PRIO, 127
	.byte W28
	.byte W01
	.byte N05, Cn3, v127
	.byte W02
	.byte VOL, 6
	.byte W03
	.byte VOICE, 35
	.byte N05 @ Cn3, v127
	.byte W05
	.byte VOICE, 34
	.byte N05 @ Cn3, v127
	.byte W05
	.byte VOICE, 36
	.byte N05 @ Cn3, v127
	.byte W03
	.byte VOL, 6
	.byte W02
	.byte VOICE, 35
	.byte VOL, 7
	.byte N05 @ Cn3, v127
	.byte W05
	.byte VOICE, 34
	.byte VOL, 7
	.byte N05 @ Cn3, v127
	.byte W02
	.byte VOL, 8
	.byte W03
	.byte VOICE, 32
	.byte N05 @ Cn3, v127
	.byte W05
	.byte VOICE, 36
	.byte N05 @ Cn3, v127
	.byte W01
	.byte VOL, 9
	.byte W04
	.byte VOICE, 35
	.byte N05 @ Cn3, v127
	.byte W01
	.byte VOL, 10
	.byte W04
	.byte VOICE, 32
	.byte VOL, 11
	.byte N05 @ Cn3, v127
	.byte W03
	.byte VOL, 11
	.byte W02
	.byte VOICE, 35
	.byte VOL, 12
	.byte N05 @ Cn3, v127
	.byte W02
	.byte VOL, 12
	.byte W02
	.byte 13 @ VOL
	.byte W01
	.byte VOICE, 36
	.byte N05 @ Cn3, v127
	.byte W02
	.byte VOL, 14
	.byte W02
	.byte 15 @ VOL
	.byte W01
	.byte VOICE, 34
	.byte N05 @ Cn3, v127
	.byte W01
	.byte VOL, 15
	.byte W03
	.byte 17 @ VOL
	.byte W01
	.byte VOICE, 35
	.byte N05 @ Cn3, v127
	.byte W01
	.byte VOL, 19
	.byte W01
	.byte W01
	.byte 20 @ VOL
	.byte W02
	.byte VOICE, 36
	.byte VOL, 22
	.byte N05 @ Cn3, v127
	.byte W03
	.byte VOL, 24
	.byte W02
	.byte VOICE, 35
	.byte VOL, 28
	.byte N05 @ Cn3, v127
	.byte W02
	.byte VOL, 30
	.byte W14
	.byte VOICE, 38
	.byte VOL, 70
	.byte N05 @ Cn3, v127
	.byte W05
	.byte VOICE, 37
	.byte N05 @ Cn3, v127
	.byte W66
	.byte W01
	.byte W48
	.byte 0xB6

.align 2

track_142:
	.byte 5
	.byte 0
	.byte 255
	.byte 208
	.word 0x80a682c
	.word track_142_0
	.word track_142_1
	.word track_142_2
	.word track_142_3
	.word track_142_4

.align 2
