.align 2

.global track_11

track_11_0:
	.byte KEYSH, 0
track_11_lbl_25ed6e:
	.byte TEMPO, 30
	.byte VOICE, 0
	.byte VOL, 34
	.byte PAN, c_v
	.byte PRIO, 109
	.byte N96, Cn2, v060
	.byte W01
	.byte VOL, 32
	.byte W03
	.byte 31 @ VOL
	.byte W04
	.byte 31 @ VOL
	.byte W05
	.byte 30 @ VOL
	.byte W04
	.byte 29 @ VOL
	.byte W05
	.byte 29 @ VOL
	.byte W05
	.byte 28 @ VOL
	.byte W04
	.byte 27 @ VOL
	.byte W05
	.byte 26 @ VOL
	.byte W09
	.byte 25 @ VOL
	.byte W04
	.byte 24 @ VOL
	.byte W05
	.byte 24 @ VOL
	.byte W04
	.byte 23 @ VOL
	.byte W05
	.byte 22 @ VOL
	.byte W04
	.byte 21 @ VOL
	.byte W05
	.byte 21 @ VOL
	.byte W05
	.byte 20 @ VOL
	.byte W04
	.byte 19 @ VOL
	.byte W05
	.byte 19 @ VOL
	.byte W04
	.byte 18 @ VOL
	.byte W05
	.byte 17 @ VOL
	.byte W01
	.byte N96 @ Cn2, v060
	.byte W03
	.byte VOL, 17
	.byte W05
	.byte 16 @ VOL
	.byte W04
	.byte 15 @ VOL
	.byte W05
	.byte 14 @ VOL
	.byte W04
	.byte 14 @ VOL
	.byte W05
	.byte 13 @ VOL
	.byte W05
	.byte 12 @ VOL
	.byte W04
	.byte 12 @ VOL
	.byte W05
	.byte 11 @ VOL
	.byte W04
	.byte 10 @ VOL
	.byte W05
	.byte 9 @ VOL
	.byte W04
	.byte 9 @ VOL
	.byte W05
	.byte 8 @ VOL
	.byte W04
	.byte 7 @ VOL
	.byte W05
	.byte 7 @ VOL
	.byte W05
	.byte 6 @ VOL
	.byte W04
	.byte 5 @ VOL
	.byte W05
	.byte 4 @ VOL
	.byte W04
	.byte 4 @ VOL
	.byte W05
	.byte 3 @ VOL
	.byte W04
	.byte 2 @ VOL
	.byte W02
	.byte N96 @ Cn2, v060
	.byte W17
	.byte VOL, 4
	.byte W10
	.byte 5 @ VOL
	.byte W10
	.byte 6 @ VOL
	.byte W11
	.byte 7 @ VOL
	.byte W10
	.byte 8 @ VOL
	.byte W08
	.byte 9 @ VOL
	.byte W08
	.byte 11 @ VOL
	.byte W08
	.byte 12 @ VOL
	.byte W08
	.byte 13 @ VOL
	.byte W06
	.byte N96 @ Cn2, v060
	.byte W02
	.byte VOL, 14
	.byte W07
	.byte 15 @ VOL
	.byte W06
	.byte 17 @ VOL
	.byte W06
	.byte 18 @ VOL
	.byte W06
	.byte 19 @ VOL
	.byte W06
	.byte 20 @ VOL
	.byte W06
	.byte 21 @ VOL
	.byte W04
	.byte 22 @ VOL
	.byte W03
	.byte 24 @ VOL
	.byte W04
	.byte 25 @ VOL
	.byte W04
	.byte 26 @ VOL
	.byte W04
	.byte 27 @ VOL
	.byte W03
	.byte 28 @ VOL
	.byte W02
	.byte 29 @ VOL
	.byte W03
	.byte 31 @ VOL
	.byte W02
	.byte 32 @ VOL
	.byte W02
	.byte 34 @ VOL
	.byte W03
	.byte 34 @ VOL
	.byte W02
	.byte 35 @ VOL
	.byte W02
	.byte 36 @ VOL
	.byte W01
	.byte 38 @ VOL
	.byte W02
	.byte 39 @ VOL
	.byte W02
	.byte 41 @ VOL
	.byte W02
	.byte 41 @ VOL
	.byte W01
	.byte 42 @ VOL
	.byte W01
	.byte 43 @ VOL
	.byte W02
	.byte 45 @ VOL
	.byte W01
	.byte 46 @ VOL
	.byte W02
	.byte 48 @ VOL
	.byte W01
	.byte 49 @ VOL
	.byte W01
	.byte 51 @ VOL
	.byte W01
	.byte 52 @ VOL
	.byte W01
	.byte 53 @ VOL
	.byte W01
	.byte 48 @ VOL
	.byte N96 @ Cn2, v060
	.byte W01
	.byte VOL, 45
	.byte W01
	.byte 41 @ VOL
	.byte W01
	.byte 39 @ VOL
	.byte W01
	.byte 36 @ VOL
	.byte W01
	.byte 34 @ VOL
	.byte W01
	.byte 31 @ VOL
	.byte W01
	.byte 29 @ VOL
	.byte W01
	.byte 27 @ VOL
	.byte W01
	.byte 26 @ VOL
	.byte W01
	.byte 25 @ VOL
	.byte W01
	.byte 24 @ VOL
	.byte W01
	.byte 22 @ VOL
	.byte W01
	.byte 21 @ VOL
	.byte W01
	.byte 20 @ VOL
	.byte W01
	.byte 19 @ VOL
	.byte W02
	.byte 18 @ VOL
	.byte W01
	.byte 17 @ VOL
	.byte W02
	.byte 15 @ VOL
	.byte W02
	.byte 14 @ VOL
	.byte W02
	.byte 13 @ VOL
	.byte W04
	.byte 12 @ VOL
	.byte W03
	.byte 11 @ VOL
	.byte W04
	.byte 9 @ VOL
	.byte W06
	.byte 8 @ VOL
	.byte W06
	.byte 7 @ VOL
	.byte W08
	.byte 6 @ VOL
	.byte W12
	.byte 5 @ VOL
	.byte W12
	.byte 4 @ VOL
	.byte W11
	.byte 2 @ VOL
	.byte W06
	.byte 2 @ VOL
	.byte N96 @ Cn2, v060
	.byte W01
	.byte VOL, 4
	.byte W01
	.byte 6 @ VOL
	.byte W01
	.byte 7 @ VOL
	.byte W01
	.byte 9 @ VOL
	.byte W01
	.byte 11 @ VOL
	.byte W01
	.byte 13 @ VOL
	.byte W01
	.byte 14 @ VOL
	.byte W01
	.byte 17 @ VOL
	.byte W01
	.byte 18 @ VOL
	.byte W01
	.byte 19 @ VOL
	.byte W01
	.byte 20 @ VOL
	.byte W01
	.byte 21 @ VOL
	.byte W01
	.byte 22 @ VOL
	.byte W01
	.byte 24 @ VOL
	.byte W01
	.byte 25 @ VOL
	.byte W01
	.byte 26 @ VOL
	.byte W01
	.byte 27 @ VOL
	.byte W01
	.byte 28 @ VOL
	.byte W01
	.byte 29 @ VOL
	.byte W01
	.byte 31 @ VOL
	.byte W02
	.byte 32 @ VOL
	.byte W01
	.byte 34 @ VOL
	.byte W02
	.byte 34 @ VOL
	.byte W02
	.byte 35 @ VOL
	.byte W02
	.byte 36 @ VOL
	.byte W01
	.byte 38 @ VOL
	.byte W02
	.byte 39 @ VOL
	.byte W05
	.byte 41 @ VOL
	.byte W04
	.byte 41 @ VOL
	.byte W15
	.byte 42 @ VOL
	.byte W24
	.byte W02
	.byte 43 @ VOL
	.byte W14
	.byte N96 @ Cn2, v060
	.byte W01
	.byte VOL, 41
	.byte W01
	.byte 41 @ VOL
	.byte W02
	.byte 39 @ VOL
	.byte W02
	.byte 38 @ VOL
	.byte W02
	.byte 36 @ VOL
	.byte W01
	.byte 35 @ VOL
	.byte W02
	.byte 34 @ VOL
	.byte W02
	.byte 34 @ VOL
	.byte W02
	.byte 32 @ VOL
	.byte W02
	.byte 31 @ VOL
	.byte W02
	.byte 29 @ VOL
	.byte W01
	.byte 28 @ VOL
	.byte W02
	.byte 27 @ VOL
	.byte W02
	.byte 26 @ VOL
	.byte W02
	.byte 25 @ VOL
	.byte W02
	.byte 24 @ VOL
	.byte W02
	.byte 22 @ VOL
	.byte W02
	.byte 21 @ VOL
	.byte W02
	.byte 20 @ VOL
	.byte W02
	.byte 19 @ VOL
	.byte W02
	.byte 18 @ VOL
	.byte W02
	.byte 17 @ VOL
	.byte W02
	.byte 15 @ VOL
	.byte W02
	.byte 14 @ VOL
	.byte W02
	.byte 13 @ VOL
	.byte W03
	.byte 12 @ VOL
	.byte W02
	.byte 11 @ VOL
	.byte W03
	.byte 9 @ VOL
	.byte W02
	.byte 8 @ VOL
	.byte W02
	.byte 7 @ VOL
	.byte W04
	.byte 6 @ VOL
	.byte W04
	.byte 5 @ VOL
	.byte W03
	.byte 4 @ VOL
	.byte W24
	.byte W03
	.byte N96 @ Cn2, v060
	.byte W12
	.byte VOL, 4
	.byte W02
	.byte 5 @ VOL
	.byte W02
	.byte 6 @ VOL
	.byte W02
	.byte 7 @ VOL
	.byte W02
	.byte 7 @ VOL
	.byte W02
	.byte 8 @ VOL
	.byte W02
	.byte 9 @ VOL
	.byte W02
	.byte 9 @ VOL
	.byte W02
	.byte 10 @ VOL
	.byte W02
	.byte 11 @ VOL
	.byte W02
	.byte 12 @ VOL
	.byte W02
	.byte 12 @ VOL
	.byte W02
	.byte 13 @ VOL
	.byte W02
	.byte 14 @ VOL
	.byte W02
	.byte 14 @ VOL
	.byte W01
	.byte 15 @ VOL
	.byte W02
	.byte 16 @ VOL
	.byte W02
	.byte 17 @ VOL
	.byte W02
	.byte 17 @ VOL
	.byte W02
	.byte 18 @ VOL
	.byte W02
	.byte 19 @ VOL
	.byte W02
	.byte 19 @ VOL
	.byte W02
	.byte 20 @ VOL
	.byte W02
	.byte 21 @ VOL
	.byte W02
	.byte 21 @ VOL
	.byte W02
	.byte 22 @ VOL
	.byte W02
	.byte 23 @ VOL
	.byte W02
	.byte 24 @ VOL
	.byte W02
	.byte 24 @ VOL
	.byte W02
	.byte 25 @ VOL
	.byte W02
	.byte 26 @ VOL
	.byte W02
	.byte 26 @ VOL
	.byte W02
	.byte 27 @ VOL
	.byte W02
	.byte 28 @ VOL
	.byte W02
	.byte 29 @ VOL
	.byte W01
	.byte 29 @ VOL
	.byte W02
	.byte 30 @ VOL
	.byte W02
	.byte 31 @ VOL
	.byte W02
	.byte 31 @ VOL
	.byte W02
	.byte 32 @ VOL
	.byte W02
	.byte 33 @ VOL
	.byte W02
	.byte 34 @ VOL
	.byte W02
	.byte 34 @ VOL
	.byte W02
	.byte N96 @ Cn2, v060
	.byte W96
	.byte N96 @ Cn2, v060
	.byte W96
	.byte GOTO
		.word track_11_lbl_25ed6e
	.byte FINE

track_11_1:
	.byte KEYSH, 0
track_11_lbl_25ef5a:
	.byte VOICE, 2
	.byte VOL, 9
	.byte PAN, c_v
	.byte PRIO, 110
	.byte N96, As3, v032, 74
	.byte W02
	.byte VOL, 11
	.byte W01
	.byte 12 @ VOL
	.byte W01
	.byte 14 @ VOL
	.byte W01
	.byte 15 @ VOL
	.byte W01
	.byte 17 @ VOL
	.byte W01
	.byte 18 @ VOL
	.byte W01
	.byte 19 @ VOL
	.byte W01
	.byte 20 @ VOL
	.byte W01
	.byte 21 @ VOL
	.byte W01
	.byte 23 @ VOL
	.byte W01
	.byte 24 @ VOL
	.byte W01
	.byte 26 @ VOL
	.byte W01
	.byte 27 @ VOL
	.byte W01
	.byte 29 @ VOL
	.byte W01
	.byte 30 @ VOL
	.byte W01
	.byte 31 @ VOL
	.byte W01
	.byte 32 @ VOL
	.byte W01
	.byte 34 @ VOL
	.byte W01
	.byte 35 @ VOL
	.byte W01
	.byte 36 @ VOL
	.byte W01
	.byte 38 @ VOL
	.byte W01
	.byte 39 @ VOL
	.byte W01
	.byte 41 @ VOL
	.byte W01
	.byte 39 @ VOL
	.byte W01
	.byte 38 @ VOL
	.byte W01
	.byte 36 @ VOL
	.byte W01
	.byte 35 @ VOL
	.byte W01
	.byte 34 @ VOL
	.byte W01
	.byte 32 @ VOL
	.byte W01
	.byte 31 @ VOL
	.byte W01
	.byte 29 @ VOL
	.byte W01
	.byte 28 @ VOL
	.byte W01
	.byte 26 @ VOL
	.byte W01
	.byte 25 @ VOL
	.byte W01
	.byte 24 @ VOL
	.byte W01
	.byte 21 @ VOL
	.byte W01
	.byte 20 @ VOL
	.byte W01
	.byte 19 @ VOL
	.byte W01
	.byte 17 @ VOL
	.byte W01
	.byte 16 @ VOL
	.byte W01
	.byte 14 @ VOL
	.byte W01
	.byte 13 @ VOL
	.byte W01
	.byte 12 @ VOL
	.byte W01
	.byte 10 @ VOL
	.byte W01
	.byte 9 @ VOL
	.byte W01
	.byte 7 @ VOL
	.byte W03
	.byte 8 @ VOL
	.byte W01
	.byte 8 @ VOL
	.byte W01
	.byte 9 @ VOL
	.byte W01
	.byte 9 @ VOL
	.byte W01
	.byte 10 @ VOL
	.byte W01
	.byte 11 @ VOL
	.byte W01
	.byte 12 @ VOL
	.byte W02
	.byte 12 @ VOL
	.byte W01
	.byte 13 @ VOL
	.byte W08
	.byte 14 @ VOL
	.byte W08
	.byte 15 @ VOL
	.byte W01
	.byte 16 @ VOL
	.byte W01
	.byte 17 @ VOL
	.byte W01
	.byte 18 @ VOL
	.byte W01
	.byte 19 @ VOL
	.byte W01
	.byte 20 @ VOL
	.byte W01
	.byte 21 @ VOL
	.byte W01
	.byte 22 @ VOL
	.byte W01
	.byte 24 @ VOL
	.byte W01
	.byte 26 @ VOL
	.byte W02
	.byte 25 @ VOL
	.byte W01
	.byte 24 @ VOL
	.byte W02
	.byte 24 @ VOL
	.byte W01
	.byte 22 @ VOL
	.byte W01
	.byte 21 @ VOL
	.byte W02
	.byte 21 @ VOL
	.byte W01
	.byte 20 @ VOL
	.byte W02
	.byte 19 @ VOL
	.byte N96, As3 @ v032
	.byte N96, Dn4 @ v032
	.byte W01
	.byte VOL, 19
	.byte W02
	.byte 18 @ VOL
	.byte W01
	.byte 17 @ VOL
	.byte W02
	.byte 17 @ VOL
	.byte W01
	.byte 16 @ VOL
	.byte W02
	.byte 15 @ VOL
	.byte W01
	.byte 14 @ VOL
	.byte W03
	.byte 14 @ VOL
	.byte W01
	.byte 13 @ VOL
	.byte W03
	.byte 12 @ VOL
	.byte W02
	.byte 12 @ VOL
	.byte W11
	.byte 11 @ VOL
	.byte W07
	.byte 12 @ VOL
	.byte W07
	.byte 12 @ VOL
	.byte W03
	.byte 13 @ VOL
	.byte W04
	.byte 14 @ VOL
	.byte W02
	.byte 14 @ VOL
	.byte W03
	.byte 15 @ VOL
	.byte W01
	.byte 16 @ VOL
	.byte W03
	.byte 17 @ VOL
	.byte W01
	.byte 17 @ VOL
	.byte W01
	.byte 18 @ VOL
	.byte W01
	.byte 19 @ VOL
	.byte W01
	.byte 19 @ VOL
	.byte W01
	.byte 20 @ VOL
	.byte W01
	.byte 21 @ VOL
	.byte W01
	.byte 21 @ VOL
	.byte W01
	.byte 24 @ VOL
	.byte W01
	.byte 25 @ VOL
	.byte W01
	.byte 26 @ VOL
	.byte W01
	.byte 28 @ VOL
	.byte W01
	.byte 30 @ VOL
	.byte W01
	.byte 33 @ VOL
	.byte W23
	.byte 33 @ VOL
	.byte N96, As3 @ v032
	.byte N96, Dn4 @ v032
	.byte W01
	.byte VOL, 31
	.byte W01
	.byte 29 @ VOL
	.byte W01
	.byte 27 @ VOL
	.byte W01
	.byte 26 @ VOL
	.byte W01
	.byte 24 @ VOL
	.byte W01
	.byte 23 @ VOL
	.byte W01
	.byte 21 @ VOL
	.byte W02
	.byte 20 @ VOL
	.byte W02
	.byte 19 @ VOL
	.byte W02
	.byte 18 @ VOL
	.byte W01
	.byte 17 @ VOL
	.byte W02
	.byte 17 @ VOL
	.byte W02
	.byte 16 @ VOL
	.byte W05
	.byte 15 @ VOL
	.byte W03
	.byte 14 @ VOL
	.byte W07
	.byte 14 @ VOL
	.byte W06
	.byte 13 @ VOL
	.byte W09
	.byte 12 @ VOL
	.byte W01
	.byte 12 @ VOL
	.byte W02
	.byte 13 @ VOL
	.byte W02
	.byte 14 @ VOL
	.byte W01
	.byte 14 @ VOL
	.byte W02
	.byte 15 @ VOL
	.byte W02
	.byte 16 @ VOL
	.byte W01
	.byte 17 @ VOL
	.byte W02
	.byte 17 @ VOL
	.byte W02
	.byte 18 @ VOL
	.byte W01
	.byte 19 @ VOL
	.byte W02
	.byte 19 @ VOL
	.byte W02
	.byte 20 @ VOL
	.byte W01
	.byte 21 @ VOL
	.byte W02
	.byte 21 @ VOL
	.byte W01
	.byte 22 @ VOL
	.byte W02
	.byte 23 @ VOL
	.byte W02
	.byte 24 @ VOL
	.byte W01
	.byte 24 @ VOL
	.byte W02
	.byte 25 @ VOL
	.byte W02
	.byte 26 @ VOL
	.byte W01
	.byte 26 @ VOL
	.byte W02
	.byte 27 @ VOL
	.byte W02
	.byte 28 @ VOL
	.byte W01
	.byte 29 @ VOL
	.byte W02
	.byte 29 @ VOL
	.byte W02
	.byte 30 @ VOL
	.byte W01
	.byte 31 @ VOL
	.byte W02
	.byte 31 @ VOL
	.byte W02
	.byte 32 @ VOL
	.byte N96, As3 @ v032
	.byte N96, Dn4 @ v032
	.byte W01
	.byte VOL, 31
	.byte W02
	.byte 31 @ VOL
	.byte W02
	.byte 30 @ VOL
	.byte W02
	.byte 29 @ VOL
	.byte W02
	.byte 29 @ VOL
	.byte W02
	.byte 28 @ VOL
	.byte W02
	.byte 27 @ VOL
	.byte W02
	.byte 26 @ VOL
	.byte W02
	.byte 26 @ VOL
	.byte W02
	.byte 25 @ VOL
	.byte W02
	.byte 24 @ VOL
	.byte W02
	.byte 24 @ VOL
	.byte W02
	.byte 23 @ VOL
	.byte W02
	.byte 22 @ VOL
	.byte W02
	.byte 21 @ VOL
	.byte W02
	.byte 21 @ VOL
	.byte W02
	.byte 20 @ VOL
	.byte W02
	.byte 19 @ VOL
	.byte W02
	.byte 19 @ VOL
	.byte W02
	.byte 18 @ VOL
	.byte W01
	.byte 17 @ VOL
	.byte W02
	.byte 17 @ VOL
	.byte W02
	.byte 16 @ VOL
	.byte W02
	.byte 15 @ VOL
	.byte W02
	.byte 14 @ VOL
	.byte W02
	.byte 14 @ VOL
	.byte W02
	.byte 13 @ VOL
	.byte W02
	.byte 12 @ VOL
	.byte W02
	.byte 12 @ VOL
	.byte W02
	.byte 11 @ VOL
	.byte W02
	.byte 10 @ VOL
	.byte W02
	.byte 9 @ VOL
	.byte W02
	.byte 9 @ VOL
	.byte W17
	.byte 8 @ VOL
	.byte W15
	.byte N96, As3 @ v032
	.byte N96, Dn4 @ v032
	.byte W11
	.byte VOL, 9
	.byte W08
	.byte 9 @ VOL
	.byte W03
	.byte 10 @ VOL
	.byte W07
	.byte 11 @ VOL
	.byte W03
	.byte 12 @ VOL
	.byte W05
	.byte 12 @ VOL
	.byte W03
	.byte 13 @ VOL
	.byte W05
	.byte 14 @ VOL
	.byte W02
	.byte 14 @ VOL
	.byte W05
	.byte 15 @ VOL
	.byte W02
	.byte 16 @ VOL
	.byte W03
	.byte 17 @ VOL
	.byte W02
	.byte 17 @ VOL
	.byte W04
	.byte 18 @ VOL
	.byte W02
	.byte 19 @ VOL
	.byte W03
	.byte 19 @ VOL
	.byte W01
	.byte 20 @ VOL
	.byte W03
	.byte 21 @ VOL
	.byte W02
	.byte 21 @ VOL
	.byte W03
	.byte 22 @ VOL
	.byte W01
	.byte 23 @ VOL
	.byte W01
	.byte 24 @ VOL
	.byte W01
	.byte 24 @ VOL
	.byte W02
	.byte 25 @ VOL
	.byte W02
	.byte 26 @ VOL
	.byte W02
	.byte 26 @ VOL
	.byte W01
	.byte 27 @ VOL
	.byte W02
	.byte 28 @ VOL
	.byte W01
	.byte 29 @ VOL
	.byte W01
	.byte 29 @ VOL
	.byte W01
	.byte 30 @ VOL
	.byte W02
	.byte 31 @ VOL
	.byte W01
	.byte 31 @ VOL
	.byte W01
	.byte 31 @ VOL
	.byte N96, As3 @ v032
	.byte N96, Dn4 @ v032
	.byte W01
	.byte VOL, 31
	.byte W02
	.byte 30 @ VOL
	.byte W02
	.byte 29 @ VOL
	.byte W02
	.byte 29 @ VOL
	.byte W02
	.byte 28 @ VOL
	.byte W02
	.byte 27 @ VOL
	.byte W02
	.byte 26 @ VOL
	.byte W02
	.byte 26 @ VOL
	.byte W02
	.byte 25 @ VOL
	.byte W02
	.byte 24 @ VOL
	.byte W02
	.byte 24 @ VOL
	.byte W02
	.byte 23 @ VOL
	.byte W02
	.byte 22 @ VOL
	.byte W02
	.byte 21 @ VOL
	.byte W02
	.byte 21 @ VOL
	.byte W02
	.byte 20 @ VOL
	.byte W02
	.byte 19 @ VOL
	.byte W02
	.byte 19 @ VOL
	.byte W02
	.byte 18 @ VOL
	.byte W02
	.byte 17 @ VOL
	.byte W02
	.byte 17 @ VOL
	.byte W02
	.byte 16 @ VOL
	.byte W02
	.byte 15 @ VOL
	.byte W02
	.byte 14 @ VOL
	.byte W02
	.byte 14 @ VOL
	.byte W02
	.byte 13 @ VOL
	.byte W02
	.byte 12 @ VOL
	.byte W02
	.byte 12 @ VOL
	.byte W02
	.byte 11 @ VOL
	.byte W02
	.byte 10 @ VOL
	.byte W02
	.byte 9 @ VOL
	.byte W04
	.byte 9 @ VOL
	.byte W09
	.byte 8 @ VOL
	.byte W16
	.byte 7 @ VOL
	.byte W06
	.byte N96, As3 @ v032
	.byte N96, Dn4 @ v032
	.byte W07
	.byte VOL, 8
	.byte W03
	.byte 9 @ VOL
	.byte W08
	.byte 9 @ VOL
	.byte W03
	.byte 10 @ VOL
	.byte W07
	.byte 11 @ VOL
	.byte W03
	.byte 12 @ VOL
	.byte W06
	.byte 12 @ VOL
	.byte W02
	.byte 13 @ VOL
	.byte W05
	.byte 14 @ VOL
	.byte W02
	.byte 14 @ VOL
	.byte W05
	.byte 15 @ VOL
	.byte W02
	.byte 16 @ VOL
	.byte W04
	.byte 17 @ VOL
	.byte W02
	.byte 17 @ VOL
	.byte W04
	.byte 18 @ VOL
	.byte W02
	.byte 19 @ VOL
	.byte W03
	.byte 19 @ VOL
	.byte W01
	.byte 20 @ VOL
	.byte W03
	.byte 21 @ VOL
	.byte W01
	.byte 21 @ VOL
	.byte W03
	.byte 22 @ VOL
	.byte W02
	.byte 23 @ VOL
	.byte W01
	.byte 24 @ VOL
	.byte W01
	.byte 24 @ VOL
	.byte W02
	.byte 25 @ VOL
	.byte W01
	.byte 26 @ VOL
	.byte W02
	.byte 26 @ VOL
	.byte W02
	.byte 27 @ VOL
	.byte W02
	.byte 28 @ VOL
	.byte W01
	.byte 29 @ VOL
	.byte W01
	.byte 29 @ VOL
	.byte W01
	.byte 30 @ VOL
	.byte W02
	.byte 31 @ VOL
	.byte W01
	.byte 31 @ VOL
	.byte W01
	.byte 31 @ VOL
	.byte N96, As3 @ v032
	.byte N96, Dn4 @ v032
	.byte W02
	.byte VOL, 30
	.byte W02
	.byte 29 @ VOL
	.byte W02
	.byte 29 @ VOL
	.byte W02
	.byte 28 @ VOL
	.byte W02
	.byte 27 @ VOL
	.byte W02
	.byte 26 @ VOL
	.byte W02
	.byte 26 @ VOL
	.byte W02
	.byte 25 @ VOL
	.byte W02
	.byte 24 @ VOL
	.byte W02
	.byte 24 @ VOL
	.byte W02
	.byte 23 @ VOL
	.byte W03
	.byte 22 @ VOL
	.byte W02
	.byte 21 @ VOL
	.byte W02
	.byte 21 @ VOL
	.byte W02
	.byte 20 @ VOL
	.byte W02
	.byte 19 @ VOL
	.byte W02
	.byte 19 @ VOL
	.byte W02
	.byte 18 @ VOL
	.byte W02
	.byte 17 @ VOL
	.byte W02
	.byte 17 @ VOL
	.byte W02
	.byte 16 @ VOL
	.byte W02
	.byte 15 @ VOL
	.byte W03
	.byte 14 @ VOL
	.byte W02
	.byte 14 @ VOL
	.byte W02
	.byte 13 @ VOL
	.byte W02
	.byte 12 @ VOL
	.byte W02
	.byte 12 @ VOL
	.byte W02
	.byte 11 @ VOL
	.byte W02
	.byte 10 @ VOL
	.byte W02
	.byte 9 @ VOL
	.byte W02
	.byte 9 @ VOL
	.byte W08
	.byte 8 @ VOL
	.byte W16
	.byte 7 @ VOL
	.byte W08
	.byte N96, As3 @ v032
	.byte N96, Dn4 @ v032
	.byte W01
	.byte VOL, 8
	.byte W15
	.byte 9 @ VOL
	.byte W08
	.byte 9 @ VOL
	.byte W04
	.byte 10 @ VOL
	.byte W06
	.byte 11 @ VOL
	.byte W03
	.byte 12 @ VOL
	.byte W05
	.byte 12 @ VOL
	.byte W02
	.byte 13 @ VOL
	.byte W05
	.byte 14 @ VOL
	.byte W03
	.byte 14 @ VOL
	.byte W03
	.byte 15 @ VOL
	.byte W02
	.byte 16 @ VOL
	.byte W04
	.byte 17 @ VOL
	.byte W02
	.byte 17 @ VOL
	.byte W03
	.byte 18 @ VOL
	.byte W01
	.byte 19 @ VOL
	.byte W03
	.byte 19 @ VOL
	.byte W01
	.byte 20 @ VOL
	.byte W03
	.byte 21 @ VOL
	.byte W01
	.byte 21 @ VOL
	.byte W03
	.byte 22 @ VOL
	.byte W01
	.byte 23 @ VOL
	.byte W01
	.byte 24 @ VOL
	.byte W01
	.byte 24 @ VOL
	.byte W02
	.byte 25 @ VOL
	.byte W01
	.byte 26 @ VOL
	.byte W02
	.byte 26 @ VOL
	.byte W01
	.byte 27 @ VOL
	.byte W02
	.byte 28 @ VOL
	.byte W01
	.byte 29 @ VOL
	.byte W02
	.byte 29 @ VOL
	.byte W01
	.byte 30 @ VOL
	.byte W02
	.byte 31 @ VOL
	.byte W01
	.byte N96, As3 @ v032
	.byte N96, Dn4 @ v032
	.byte W01
	.byte VOL, 30
	.byte W02
	.byte 29 @ VOL
	.byte W02
	.byte 29 @ VOL
	.byte W02
	.byte 28 @ VOL
	.byte W02
	.byte 27 @ VOL
	.byte W02
	.byte 26 @ VOL
	.byte W02
	.byte 26 @ VOL
	.byte W02
	.byte 25 @ VOL
	.byte W02
	.byte 24 @ VOL
	.byte W02
	.byte 24 @ VOL
	.byte W03
	.byte 23 @ VOL
	.byte W02
	.byte 22 @ VOL
	.byte W02
	.byte 21 @ VOL
	.byte W02
	.byte 21 @ VOL
	.byte W02
	.byte 20 @ VOL
	.byte W02
	.byte 19 @ VOL
	.byte W02
	.byte 19 @ VOL
	.byte W02
	.byte 18 @ VOL
	.byte W02
	.byte 17 @ VOL
	.byte W03
	.byte 17 @ VOL
	.byte W02
	.byte 16 @ VOL
	.byte W02
	.byte 15 @ VOL
	.byte W02
	.byte 14 @ VOL
	.byte W02
	.byte 14 @ VOL
	.byte W02
	.byte 13 @ VOL
	.byte W02
	.byte 12 @ VOL
	.byte W02
	.byte 12 @ VOL
	.byte W02
	.byte 11 @ VOL
	.byte W03
	.byte 10 @ VOL
	.byte W02
	.byte 9 @ VOL
	.byte W02
	.byte 9 @ VOL
	.byte W32
	.byte GOTO
		.word track_11_lbl_25ef5a
	.byte FINE

track_11_2:
	.byte KEYSH, 0
track_11_lbl_25f2ab:
	.byte VOICE, 2
	.byte VOL, 9
	.byte PAN, c_v
	.byte PRIO, 30
	.byte N96, Fn3, v032
	.byte W02
	.byte VOL, 11
	.byte W01
	.byte 12 @ VOL
	.byte W01
	.byte 14 @ VOL
	.byte W01
	.byte 15 @ VOL
	.byte W01
	.byte 17 @ VOL
	.byte W01
	.byte 18 @ VOL
	.byte W01
	.byte 19 @ VOL
	.byte W01
	.byte 20 @ VOL
	.byte W01
	.byte 21 @ VOL
	.byte W01
	.byte 23 @ VOL
	.byte W01
	.byte 24 @ VOL
	.byte W01
	.byte 26 @ VOL
	.byte W01
	.byte 27 @ VOL
	.byte W01
	.byte 29 @ VOL
	.byte W01
	.byte 30 @ VOL
	.byte W01
	.byte 31 @ VOL
	.byte W01
	.byte 32 @ VOL
	.byte W01
	.byte 34 @ VOL
	.byte W01
	.byte 35 @ VOL
	.byte W01
	.byte 36 @ VOL
	.byte W01
	.byte 38 @ VOL
	.byte W01
	.byte 39 @ VOL
	.byte W01
	.byte 41 @ VOL
	.byte W01
	.byte 39 @ VOL
	.byte W01
	.byte 38 @ VOL
	.byte W01
	.byte 36 @ VOL
	.byte W01
	.byte 35 @ VOL
	.byte W01
	.byte 34 @ VOL
	.byte W01
	.byte 32 @ VOL
	.byte W01
	.byte 31 @ VOL
	.byte W01
	.byte 29 @ VOL
	.byte W01
	.byte 28 @ VOL
	.byte W01
	.byte 26 @ VOL
	.byte W01
	.byte 25 @ VOL
	.byte W01
	.byte 24 @ VOL
	.byte W01
	.byte 21 @ VOL
	.byte W01
	.byte 20 @ VOL
	.byte W01
	.byte 19 @ VOL
	.byte W01
	.byte 17 @ VOL
	.byte W01
	.byte 16 @ VOL
	.byte W01
	.byte 14 @ VOL
	.byte W01
	.byte 13 @ VOL
	.byte W01
	.byte 12 @ VOL
	.byte W01
	.byte 10 @ VOL
	.byte W01
	.byte 9 @ VOL
	.byte W01
	.byte 7 @ VOL
	.byte W03
	.byte 8 @ VOL
	.byte W01
	.byte 8 @ VOL
	.byte W01
	.byte 9 @ VOL
	.byte W01
	.byte 9 @ VOL
	.byte W01
	.byte 10 @ VOL
	.byte W01
	.byte 11 @ VOL
	.byte W01
	.byte 12 @ VOL
	.byte W02
	.byte 12 @ VOL
	.byte W01
	.byte 13 @ VOL
	.byte W08
	.byte 14 @ VOL
	.byte W08
	.byte 15 @ VOL
	.byte W01
	.byte 16 @ VOL
	.byte W01
	.byte 17 @ VOL
	.byte W01
	.byte 18 @ VOL
	.byte W01
	.byte 19 @ VOL
	.byte W01
	.byte 20 @ VOL
	.byte W01
	.byte 21 @ VOL
	.byte W01
	.byte 22 @ VOL
	.byte W01
	.byte 24 @ VOL
	.byte W01
	.byte 26 @ VOL
	.byte W02
	.byte 25 @ VOL
	.byte W01
	.byte 24 @ VOL
	.byte W02
	.byte 24 @ VOL
	.byte W01
	.byte 22 @ VOL
	.byte W01
	.byte 21 @ VOL
	.byte W02
	.byte 21 @ VOL
	.byte W01
	.byte 20 @ VOL
	.byte W02
	.byte 19 @ VOL
	.byte N96 @ Fn3, v032
	.byte W01
	.byte VOL, 19
	.byte W02
	.byte 18 @ VOL
	.byte W01
	.byte 17 @ VOL
	.byte W02
	.byte 17 @ VOL
	.byte W01
	.byte 16 @ VOL
	.byte W02
	.byte 15 @ VOL
	.byte W01
	.byte 14 @ VOL
	.byte W03
	.byte 14 @ VOL
	.byte W01
	.byte 13 @ VOL
	.byte W03
	.byte 12 @ VOL
	.byte W02
	.byte 12 @ VOL
	.byte W11
	.byte 11 @ VOL
	.byte W07
	.byte 12 @ VOL
	.byte W07
	.byte 12 @ VOL
	.byte W03
	.byte 13 @ VOL
	.byte W04
	.byte 14 @ VOL
	.byte W02
	.byte 14 @ VOL
	.byte W03
	.byte 15 @ VOL
	.byte W01
	.byte 16 @ VOL
	.byte W03
	.byte 17 @ VOL
	.byte W01
	.byte 17 @ VOL
	.byte W01
	.byte 18 @ VOL
	.byte W01
	.byte 19 @ VOL
	.byte W01
	.byte 19 @ VOL
	.byte W01
	.byte 20 @ VOL
	.byte W01
	.byte 21 @ VOL
	.byte W01
	.byte 21 @ VOL
	.byte W01
	.byte 24 @ VOL
	.byte W01
	.byte 25 @ VOL
	.byte W01
	.byte 26 @ VOL
	.byte W01
	.byte 28 @ VOL
	.byte W01
	.byte 30 @ VOL
	.byte W01
	.byte 33 @ VOL
	.byte W23
	.byte 33 @ VOL
	.byte N96 @ Fn3, v032
	.byte W01
	.byte VOL, 31
	.byte W01
	.byte 29 @ VOL
	.byte W01
	.byte 27 @ VOL
	.byte W01
	.byte 26 @ VOL
	.byte W01
	.byte 24 @ VOL
	.byte W01
	.byte 23 @ VOL
	.byte W01
	.byte 21 @ VOL
	.byte W02
	.byte 20 @ VOL
	.byte W02
	.byte 19 @ VOL
	.byte W02
	.byte 18 @ VOL
	.byte W01
	.byte 17 @ VOL
	.byte W02
	.byte 17 @ VOL
	.byte W02
	.byte 16 @ VOL
	.byte W05
	.byte 15 @ VOL
	.byte W03
	.byte 14 @ VOL
	.byte W07
	.byte 14 @ VOL
	.byte W06
	.byte 13 @ VOL
	.byte W09
	.byte 12 @ VOL
	.byte W01
	.byte 12 @ VOL
	.byte W02
	.byte 13 @ VOL
	.byte W02
	.byte 14 @ VOL
	.byte W01
	.byte 14 @ VOL
	.byte W02
	.byte 15 @ VOL
	.byte W02
	.byte 16 @ VOL
	.byte W01
	.byte 17 @ VOL
	.byte W02
	.byte 17 @ VOL
	.byte W02
	.byte 18 @ VOL
	.byte W01
	.byte 19 @ VOL
	.byte W02
	.byte 19 @ VOL
	.byte W02
	.byte 20 @ VOL
	.byte W01
	.byte 21 @ VOL
	.byte W02
	.byte 21 @ VOL
	.byte W01
	.byte 22 @ VOL
	.byte W02
	.byte 23 @ VOL
	.byte W02
	.byte 24 @ VOL
	.byte W01
	.byte 24 @ VOL
	.byte W02
	.byte 25 @ VOL
	.byte W02
	.byte 26 @ VOL
	.byte W01
	.byte 26 @ VOL
	.byte W02
	.byte 27 @ VOL
	.byte W02
	.byte 28 @ VOL
	.byte W01
	.byte 29 @ VOL
	.byte W02
	.byte 29 @ VOL
	.byte W02
	.byte 30 @ VOL
	.byte W01
	.byte 31 @ VOL
	.byte W02
	.byte 31 @ VOL
	.byte W02
	.byte 32 @ VOL
	.byte N96 @ Fn3, v032
	.byte W01
	.byte VOL, 31
	.byte W02
	.byte 31 @ VOL
	.byte W02
	.byte 30 @ VOL
	.byte W02
	.byte 29 @ VOL
	.byte W02
	.byte 29 @ VOL
	.byte W02
	.byte 28 @ VOL
	.byte W02
	.byte 27 @ VOL
	.byte W02
	.byte 26 @ VOL
	.byte W02
	.byte 26 @ VOL
	.byte W02
	.byte 25 @ VOL
	.byte W02
	.byte 24 @ VOL
	.byte W02
	.byte 24 @ VOL
	.byte W02
	.byte 23 @ VOL
	.byte W02
	.byte 22 @ VOL
	.byte W02
	.byte 21 @ VOL
	.byte W02
	.byte 21 @ VOL
	.byte W02
	.byte 20 @ VOL
	.byte W02
	.byte 19 @ VOL
	.byte W02
	.byte 19 @ VOL
	.byte W02
	.byte 18 @ VOL
	.byte W01
	.byte 17 @ VOL
	.byte W02
	.byte 17 @ VOL
	.byte W02
	.byte 16 @ VOL
	.byte W02
	.byte 15 @ VOL
	.byte W02
	.byte 14 @ VOL
	.byte W02
	.byte 14 @ VOL
	.byte W02
	.byte 13 @ VOL
	.byte W02
	.byte 12 @ VOL
	.byte W02
	.byte 12 @ VOL
	.byte W02
	.byte 11 @ VOL
	.byte W02
	.byte 10 @ VOL
	.byte W02
	.byte 9 @ VOL
	.byte W02
	.byte 9 @ VOL
	.byte W17
	.byte 8 @ VOL
	.byte W15
	.byte N96 @ Fn3, v032
	.byte W11
	.byte VOL, 9
	.byte W08
	.byte 9 @ VOL
	.byte W03
	.byte 10 @ VOL
	.byte W07
	.byte 11 @ VOL
	.byte W03
	.byte 12 @ VOL
	.byte W05
	.byte 12 @ VOL
	.byte W03
	.byte 13 @ VOL
	.byte W05
	.byte 14 @ VOL
	.byte W02
	.byte 14 @ VOL
	.byte W05
	.byte 15 @ VOL
	.byte W02
	.byte 16 @ VOL
	.byte W03
	.byte 17 @ VOL
	.byte W02
	.byte 17 @ VOL
	.byte W04
	.byte 18 @ VOL
	.byte W02
	.byte 19 @ VOL
	.byte W03
	.byte 19 @ VOL
	.byte W01
	.byte 20 @ VOL
	.byte W03
	.byte 21 @ VOL
	.byte W02
	.byte 21 @ VOL
	.byte W03
	.byte 22 @ VOL
	.byte W01
	.byte 23 @ VOL
	.byte W01
	.byte 24 @ VOL
	.byte W01
	.byte 24 @ VOL
	.byte W02
	.byte 25 @ VOL
	.byte W02
	.byte 26 @ VOL
	.byte W02
	.byte 26 @ VOL
	.byte W01
	.byte 27 @ VOL
	.byte W02
	.byte 28 @ VOL
	.byte W01
	.byte 29 @ VOL
	.byte W01
	.byte 29 @ VOL
	.byte W01
	.byte 30 @ VOL
	.byte W02
	.byte 31 @ VOL
	.byte W01
	.byte 31 @ VOL
	.byte W01
	.byte 31 @ VOL
	.byte N96 @ Fn3, v032
	.byte W01
	.byte VOL, 31
	.byte W02
	.byte 30 @ VOL
	.byte W02
	.byte 29 @ VOL
	.byte W02
	.byte 29 @ VOL
	.byte W02
	.byte 28 @ VOL
	.byte W02
	.byte 27 @ VOL
	.byte W02
	.byte 26 @ VOL
	.byte W02
	.byte 26 @ VOL
	.byte W02
	.byte 25 @ VOL
	.byte W02
	.byte 24 @ VOL
	.byte W02
	.byte 24 @ VOL
	.byte W02
	.byte 23 @ VOL
	.byte W02
	.byte 22 @ VOL
	.byte W02
	.byte 21 @ VOL
	.byte W02
	.byte 21 @ VOL
	.byte W02
	.byte 20 @ VOL
	.byte W02
	.byte 19 @ VOL
	.byte W02
	.byte 19 @ VOL
	.byte W02
	.byte 18 @ VOL
	.byte W02
	.byte 17 @ VOL
	.byte W02
	.byte 17 @ VOL
	.byte W02
	.byte 16 @ VOL
	.byte W02
	.byte 15 @ VOL
	.byte W02
	.byte 14 @ VOL
	.byte W02
	.byte 14 @ VOL
	.byte W02
	.byte 13 @ VOL
	.byte W02
	.byte 12 @ VOL
	.byte W02
	.byte 12 @ VOL
	.byte W02
	.byte 11 @ VOL
	.byte W02
	.byte 10 @ VOL
	.byte W02
	.byte 9 @ VOL
	.byte W04
	.byte 9 @ VOL
	.byte W09
	.byte 8 @ VOL
	.byte W16
	.byte 7 @ VOL
	.byte W06
	.byte N96 @ Fn3, v032
	.byte W07
	.byte VOL, 8
	.byte W03
	.byte 9 @ VOL
	.byte W08
	.byte 9 @ VOL
	.byte W03
	.byte 10 @ VOL
	.byte W07
	.byte 11 @ VOL
	.byte W03
	.byte 12 @ VOL
	.byte W06
	.byte 12 @ VOL
	.byte W02
	.byte 13 @ VOL
	.byte W05
	.byte 14 @ VOL
	.byte W02
	.byte 14 @ VOL
	.byte W05
	.byte 15 @ VOL
	.byte W02
	.byte 16 @ VOL
	.byte W04
	.byte 17 @ VOL
	.byte W02
	.byte 17 @ VOL
	.byte W04
	.byte 18 @ VOL
	.byte W02
	.byte 19 @ VOL
	.byte W03
	.byte 19 @ VOL
	.byte W01
	.byte 20 @ VOL
	.byte W03
	.byte 21 @ VOL
	.byte W01
	.byte 21 @ VOL
	.byte W03
	.byte 22 @ VOL
	.byte W02
	.byte 23 @ VOL
	.byte W01
	.byte 24 @ VOL
	.byte W01
	.byte 24 @ VOL
	.byte W02
	.byte 25 @ VOL
	.byte W01
	.byte 26 @ VOL
	.byte W02
	.byte 26 @ VOL
	.byte W02
	.byte 27 @ VOL
	.byte W02
	.byte 28 @ VOL
	.byte W01
	.byte 29 @ VOL
	.byte W01
	.byte 29 @ VOL
	.byte W01
	.byte 30 @ VOL
	.byte W02
	.byte 31 @ VOL
	.byte W01
	.byte 31 @ VOL
	.byte W01
	.byte 31 @ VOL
	.byte N96 @ Fn3, v032
	.byte W02
	.byte VOL, 30
	.byte W02
	.byte 29 @ VOL
	.byte W02
	.byte 29 @ VOL
	.byte W02
	.byte 28 @ VOL
	.byte W02
	.byte 27 @ VOL
	.byte W02
	.byte 26 @ VOL
	.byte W02
	.byte 26 @ VOL
	.byte W02
	.byte 25 @ VOL
	.byte W02
	.byte 24 @ VOL
	.byte W02
	.byte 24 @ VOL
	.byte W02
	.byte 23 @ VOL
	.byte W03
	.byte 22 @ VOL
	.byte W02
	.byte 21 @ VOL
	.byte W02
	.byte 21 @ VOL
	.byte W02
	.byte 20 @ VOL
	.byte W02
	.byte 19 @ VOL
	.byte W02
	.byte 19 @ VOL
	.byte W02
	.byte 18 @ VOL
	.byte W02
	.byte 17 @ VOL
	.byte W02
	.byte 17 @ VOL
	.byte W02
	.byte 16 @ VOL
	.byte W02
	.byte 15 @ VOL
	.byte W03
	.byte 14 @ VOL
	.byte W02
	.byte 14 @ VOL
	.byte W02
	.byte 13 @ VOL
	.byte W02
	.byte 12 @ VOL
	.byte W02
	.byte 12 @ VOL
	.byte W02
	.byte 11 @ VOL
	.byte W02
	.byte 10 @ VOL
	.byte W02
	.byte 9 @ VOL
	.byte W02
	.byte 9 @ VOL
	.byte W08
	.byte 8 @ VOL
	.byte W16
	.byte 7 @ VOL
	.byte W08
	.byte N96 @ Fn3, v032
	.byte W01
	.byte VOL, 8
	.byte W15
	.byte 9 @ VOL
	.byte W08
	.byte 9 @ VOL
	.byte W04
	.byte 10 @ VOL
	.byte W06
	.byte 11 @ VOL
	.byte W03
	.byte 12 @ VOL
	.byte W05
	.byte 12 @ VOL
	.byte W02
	.byte 13 @ VOL
	.byte W05
	.byte 14 @ VOL
	.byte W03
	.byte 14 @ VOL
	.byte W03
	.byte 15 @ VOL
	.byte W02
	.byte 16 @ VOL
	.byte W04
	.byte 17 @ VOL
	.byte W02
	.byte 17 @ VOL
	.byte W03
	.byte 18 @ VOL
	.byte W01
	.byte 19 @ VOL
	.byte W03
	.byte 19 @ VOL
	.byte W01
	.byte 20 @ VOL
	.byte W03
	.byte 21 @ VOL
	.byte W01
	.byte 21 @ VOL
	.byte W03
	.byte 22 @ VOL
	.byte W01
	.byte 23 @ VOL
	.byte W01
	.byte 24 @ VOL
	.byte W01
	.byte 24 @ VOL
	.byte W02
	.byte 25 @ VOL
	.byte W01
	.byte 26 @ VOL
	.byte W02
	.byte 26 @ VOL
	.byte W01
	.byte 27 @ VOL
	.byte W02
	.byte 28 @ VOL
	.byte W01
	.byte 29 @ VOL
	.byte W02
	.byte 29 @ VOL
	.byte W01
	.byte 30 @ VOL
	.byte W02
	.byte 31 @ VOL
	.byte W01
	.byte N96 @ Fn3, v032
	.byte W01
	.byte VOL, 30
	.byte W02
	.byte 29 @ VOL
	.byte W02
	.byte 29 @ VOL
	.byte W02
	.byte 28 @ VOL
	.byte W02
	.byte 27 @ VOL
	.byte W02
	.byte 26 @ VOL
	.byte W02
	.byte 26 @ VOL
	.byte W02
	.byte 25 @ VOL
	.byte W02
	.byte 24 @ VOL
	.byte W02
	.byte 24 @ VOL
	.byte W03
	.byte 23 @ VOL
	.byte W02
	.byte 22 @ VOL
	.byte W02
	.byte 21 @ VOL
	.byte W02
	.byte 21 @ VOL
	.byte W02
	.byte 20 @ VOL
	.byte W02
	.byte 19 @ VOL
	.byte W02
	.byte 19 @ VOL
	.byte W02
	.byte 18 @ VOL
	.byte W02
	.byte 17 @ VOL
	.byte W03
	.byte 17 @ VOL
	.byte W02
	.byte 16 @ VOL
	.byte W02
	.byte 15 @ VOL
	.byte W02
	.byte 14 @ VOL
	.byte W02
	.byte 14 @ VOL
	.byte W02
	.byte 13 @ VOL
	.byte W02
	.byte 12 @ VOL
	.byte W02
	.byte 12 @ VOL
	.byte W02
	.byte 11 @ VOL
	.byte W03
	.byte 10 @ VOL
	.byte W02
	.byte 9 @ VOL
	.byte W02
	.byte 9 @ VOL
	.byte W32
	.byte GOTO
		.word track_11_lbl_25f2ab
	.byte FINE

track_11_3:
	.byte KEYSH, 0
track_11_lbl_25f5e0:
	.byte VOICE, 3
	.byte VOL, 70
	.byte PRIO, 30
	.byte W48
	.byte PAN, c_v
	.byte N01, Cn4, v064
	.byte W05
	.byte Cs3 @ N01, v064
	.byte W05
	.byte Fn3 @ N01, v064
	.byte W05
	.byte Bn3 @ N01, v064
	.byte W05
	.byte As3 @ N01, v064
	.byte W05
	.byte En3 @ N01, v064
	.byte W23
	.byte W84
	.byte W01
	.byte VOICE, 5
	.byte VOL, 49
	.byte PAN, c_v-24
	.byte N02, An4, v052
	.byte W10
	.byte As3 @ N02, v052
	.byte W01
	.byte W08
	.byte Ds4 @ N02, v052
	.byte W08
	.byte As4 @ N02, v052
	.byte W80
	.byte W96
	.byte VOICE, 3
	.byte VOL, 70
	.byte PAN, c_v
	.byte N01, Cn4, v064
	.byte W05
	.byte Cs3 @ N01, v064
	.byte W05
	.byte Fn3 @ N01, v064
	.byte W05
	.byte Bn3 @ N01, v064
	.byte W05
	.byte As3 @ N01, v064
	.byte W05
	.byte En3 @ N01, v064
	.byte W68
	.byte W03
	.byte W96
	.byte W01
	.byte VOICE, 5
	.byte VOL, 49
	.byte W14
	.byte N02, An4, v052
	.byte W10
	.byte As3 @ N02, v052
	.byte W09
	.byte Ds4 @ N02, v052
	.byte W08
	.byte As4 @ N02, v052
	.byte W54
	.byte W96
	.byte VOICE, 3
	.byte VOL, 70
	.byte PAN, c_v
	.byte W48
	.byte N01, Cn4, v064
	.byte W05
	.byte Cs3 @ N01, v064
	.byte W05
	.byte Fn3 @ N01, v064
	.byte W05
	.byte Bn3 @ N01, v064
	.byte W05
	.byte As3 @ N01, v064
	.byte W05
	.byte En3 @ N01, v064
	.byte W23
	.byte W96
	.byte GOTO
		.word track_11_lbl_25f5e0
	.byte FINE

track_11_4:
	.byte KEYSH, 0
track_11_lbl_25f650:
	.byte VOICE, 4
	.byte VOL, 49
	.byte PRIO, 29
	.byte BEND, c_v+6
	.byte W56
	.byte PAN, c_v
	.byte N01, Cn4, v052
	.byte W05
	.byte Cs3 @ N01, v052
	.byte W05
	.byte Fn3 @ N01, v052
	.byte W05
	.byte Bn3 @ N01, v052
	.byte W05
	.byte As3 @ N01, v052
	.byte W05
	.byte En3 @ N01, v052
	.byte W15
	.byte W84
	.byte W01
	.byte VOICE, 6
	.byte VOL, 49
	.byte PAN, c_v+36
	.byte BEND, c_v
	.byte N02, Gn3 @ v052
	.byte W10
	.byte Cn3 @ N02, v052
	.byte W01
	.byte W08
	.byte En3 @ N02, v052
	.byte W08
	.byte Bn3 @ N02, v052
	.byte W80
	.byte W96
	.byte VOICE, 4
	.byte VOL, 49
	.byte PAN, c_v
	.byte BEND, c_v+6
	.byte W08
	.byte N01, Cn4 @ v052
	.byte W05
	.byte Cs3 @ N01, v052
	.byte W05
	.byte Fn3 @ N01, v052
	.byte W05
	.byte Bn3 @ N01, v052
	.byte W05
	.byte As3 @ N01, v052
	.byte W05
	.byte En3 @ N01, v052
	.byte W60
	.byte W03
	.byte W96
	.byte VOICE, 6
	.byte VOL, 49
	.byte BEND, c_v
	.byte W01
	.byte PAN, c_v
	.byte W14
	.byte N02, Gn3 @ v052
	.byte W10
	.byte Cn3 @ N02, v052
	.byte W09
	.byte En3 @ N02, v052
	.byte W08
	.byte Bn3 @ N02, v052
	.byte W54
	.byte W96
	.byte VOICE, 4
	.byte VOL, 49
	.byte PAN, c_v
	.byte BEND, c_v+6
	.byte W56
	.byte N01, Cn4 @ v052
	.byte W05
	.byte Cs3 @ N01, v052
	.byte W05
	.byte Fn3 @ N01, v052
	.byte W05
	.byte Bn3 @ N01, v052
	.byte W05
	.byte As3 @ N01, v052
	.byte W05
	.byte En3 @ N01, v052
	.byte W15
	.byte W96
	.byte GOTO
		.word track_11_lbl_25f650
	.byte FINE

.align 2

track_11:
	.byte 5
	.byte 11
	.byte 130
	.byte 128
	.word 0x80a5f68
	.word track_11_0
	.word track_11_1
	.word track_11_2
	.word track_11_3
	.word track_11_4

.align 2
