.align 2

.global track_9

track_9_0:
	.byte KEYSH, 0
	.byte TEMPO, 55
	.byte VOICE, 17
	.byte VOL, 94
	.byte PAN, c_v
	.byte PRIO, 110
	.byte TIE, As2, v100
	.byte W72
	.byte W02
	.byte VOL, 92
	.byte W01
	.byte 90 @ VOL
	.byte W01
	.byte 88 @ VOL
	.byte W01
	.byte 86 @ VOL
	.byte W01
	.byte 84 @ VOL
	.byte W01
	.byte 82 @ VOL
	.byte W01
	.byte 80 @ VOL
	.byte W01
	.byte 78 @ VOL
	.byte W01
	.byte 76 @ VOL
	.byte W01
	.byte 74 @ VOL
	.byte W01
	.byte 72 @ VOL
	.byte W01
	.byte 70 @ VOL
	.byte W01
	.byte 68 @ VOL
	.byte W01
	.byte 66 @ VOL
	.byte W01
	.byte 64 @ VOL
	.byte W01
	.byte 62 @ VOL
	.byte W01
	.byte 60 @ VOL
	.byte W01
	.byte 58 @ VOL
	.byte W01
	.byte 56 @ VOL
	.byte W01
	.byte 54 @ VOL
	.byte W01
	.byte 52 @ VOL
	.byte W01
	.byte 50 @ VOL
	.byte W01
	.byte 48 @ VOL
	.byte W01
	.byte 46 @ VOL
	.byte W01
	.byte 44 @ VOL
	.byte W01
	.byte 42 @ VOL
	.byte W01
	.byte 40 @ VOL
	.byte W01
	.byte 38 @ VOL
	.byte W01
	.byte 37 @ VOL
	.byte W01
	.byte 34 @ VOL
	.byte W01
	.byte 33 @ VOL
	.byte W01
	.byte 30 @ VOL
	.byte W01
	.byte 29 @ VOL
	.byte W01
	.byte 26 @ VOL
	.byte W01
	.byte 24 @ VOL
	.byte W01
	.byte 22 @ VOL
	.byte W01
	.byte 20 @ VOL
	.byte W01
	.byte 18 @ VOL
	.byte W01
	.byte 16 @ VOL
	.byte W01
	.byte 14 @ VOL
	.byte W01
	.byte 12 @ VOL
	.byte W01
	.byte 11 @ VOL
	.byte W01
	.byte 8 @ VOL
	.byte W01
	.byte 7 @ VOL
	.byte W01
	.byte 4 @ VOL
	.byte W01
	.byte 3 @ VOL
	.byte W01
	.byte EOT @ As2, v100
	.byte VOL, 0
	.byte W72
track_9_lbl_25b97a:
	.byte VOICE, 6
	.byte VOL, 92
	.byte PAN, c_v-10
	.byte W12
	.byte N12, An2, v080
	.byte W12
	.byte As2 @ N12, v080
	.byte W12
	.byte N48, En3, v072
	.byte W48
	.byte N12, An2, v080
	.byte W12
	.byte PEND
track_9_lbl_25b990:
	.byte N12, As2, v080
	.byte W12
	.byte N72, Fn3, v052
	.byte W72
	.byte N12, An2, v080
	.byte W12
	.byte PEND
track_9_lbl_25b99d:
	.byte N12, As2, v080
	.byte W12
	.byte N72, Gn3, v052
	.byte W72
	.byte N12, An2, v080
	.byte W12
	.byte PEND
track_9_lbl_25b9aa:
	.byte N12, As2, v080
	.byte W12
	.byte N60, Fn3, v052
	.byte W60
	.byte N12, Dn3, v080
	.byte W12
	.byte N24, En3, v060
	.byte W12
	.byte PEND
	.byte W96
track_9_lbl_25b9bc:
	.byte VOICE, 9
	.byte VOL, 62
	.byte PAN, c_v-4
	.byte N84, As2, v127
	.byte W01
	.byte VOL, 66
	.byte W01
	.byte 70 @ VOL
	.byte W01
	.byte 72 @ VOL
	.byte W01
	.byte 75 @ VOL
	.byte W01
	.byte 77 @ VOL
	.byte W01
	.byte 77 @ VOL
	.byte W01
	.byte 78 @ VOL
	.byte W02
	.byte 80 @ VOL
	.byte W03
	.byte 81 @ VOL
	.byte W05
	.byte 80 @ VOL
	.byte W08
	.byte 78 @ VOL
	.byte W03
	.byte 77 @ VOL
	.byte W02
	.byte 77 @ VOL
	.byte W03
	.byte 75 @ VOL
	.byte W03
	.byte 74 @ VOL
	.byte W02
	.byte 73 @ VOL
	.byte W01
	.byte 74 @ VOL
	.byte W02
	.byte 74 @ VOL
	.byte W01
	.byte 75 @ VOL
	.byte W01
	.byte 76 @ VOL
	.byte W02
	.byte 77 @ VOL
	.byte W01
	.byte 77 @ VOL
	.byte W02
	.byte 78 @ VOL
	.byte W01
	.byte 79 @ VOL
	.byte W01
	.byte 80 @ VOL
	.byte W02
	.byte 81 @ VOL
	.byte W01
	.byte 81 @ VOL
	.byte W01
	.byte 82 @ VOL
	.byte W01
	.byte 82 @ VOL
	.byte W01
	.byte 83 @ VOL
	.byte W01
	.byte 84 @ VOL
	.byte W01
	.byte 85 @ VOL
	.byte W01
	.byte 85 @ VOL
	.byte W01
	.byte 85 @ VOL
	.byte W01
	.byte 86 @ VOL
	.byte W01
	.byte 87 @ VOL
	.byte W02
	.byte 88 @ VOL
	.byte W01
	.byte 88 @ VOL
	.byte W01
	.byte 89 @ VOL
	.byte W01
	.byte 89 @ VOL
	.byte W01
	.byte 90 @ VOL
	.byte W01
	.byte 91 @ VOL
	.byte W01
	.byte 92 @ VOL
	.byte W02
	.byte 92 @ VOL
	.byte W01
	.byte 93 @ VOL
	.byte W01
	.byte 94 @ VOL
	.byte W02
	.byte 95 @ VOL
	.byte W01
	.byte 96 @ VOL
	.byte W01
	.byte 96 @ VOL
	.byte W02
	.byte 97 @ VOL
	.byte W01
	.byte 98 @ VOL
	.byte W01
	.byte 99 @ VOL
	.byte W02
	.byte N96, Cn3 @ v127
	.byte W12
	.byte PEND
track_9_lbl_25ba33:
	.byte VOL, 97
	.byte W01
	.byte 92 @ VOL
	.byte W01
	.byte 88 @ VOL
	.byte W01
	.byte 85 @ VOL
	.byte W01
	.byte 80 @ VOL
	.byte W01
	.byte 77 @ VOL
	.byte W01
	.byte 75 @ VOL
	.byte W01
	.byte 72 @ VOL
	.byte W01
	.byte 70 @ VOL
	.byte W01
	.byte 70 @ VOL
	.byte W01
	.byte 69 @ VOL
	.byte W01
	.byte 67 @ VOL
	.byte W01
	.byte 66 @ VOL
	.byte W01
	.byte 64 @ VOL
	.byte W02
	.byte 62 @ VOL
	.byte W03
	.byte 62 @ VOL
	.byte W04
	.byte 61 @ VOL
	.byte W06
	.byte 62 @ VOL
	.byte W06
	.byte 62 @ VOL
	.byte W04
	.byte 64 @ VOL
	.byte W03
	.byte 66 @ VOL
	.byte W03
	.byte 67 @ VOL
	.byte W03
	.byte 69 @ VOL
	.byte W04
	.byte 70 @ VOL
	.byte W02
	.byte 70 @ VOL
	.byte W02
	.byte 72 @ VOL
	.byte W03
	.byte 74 @ VOL
	.byte W02
	.byte 75 @ VOL
	.byte W03
	.byte 77 @ VOL
	.byte W02
	.byte 77 @ VOL
	.byte W02
	.byte 78 @ VOL
	.byte W03
	.byte 80 @ VOL
	.byte W02
	.byte 81 @ VOL
	.byte W02
	.byte 83 @ VOL
	.byte W02
	.byte 85 @ VOL
	.byte W02
	.byte 85 @ VOL
	.byte W02
	.byte 86 @ VOL
	.byte W02
	.byte 88 @ VOL
	.byte W02
	.byte N96, As2, v127
	.byte W01
	.byte VOL, 89
	.byte W02
	.byte 91 @ VOL
	.byte W02
	.byte 92 @ VOL
	.byte W02
	.byte 93 @ VOL
	.byte W02
	.byte 94 @ VOL
	.byte W03
	.byte PEND
track_9_lbl_25ba90:
	.byte VOL, 80
	.byte W01
	.byte 81 @ VOL
	.byte W01
	.byte 83 @ VOL
	.byte W01
	.byte 85 @ VOL
	.byte W01
	.byte 85 @ VOL
	.byte W01
	.byte 86 @ VOL
	.byte W02
	.byte 88 @ VOL
	.byte W02
	.byte 89 @ VOL
	.byte W01
	.byte 91 @ VOL
	.byte W02
	.byte 92 @ VOL
	.byte W04
	.byte 93 @ VOL
	.byte W03
	.byte 94 @ VOL
	.byte W06
	.byte 96 @ VOL
	.byte W09
	.byte 94 @ VOL
	.byte W05
	.byte 93 @ VOL
	.byte W04
	.byte 92 @ VOL
	.byte W03
	.byte 91 @ VOL
	.byte W02
	.byte 89 @ VOL
	.byte W02
	.byte 88 @ VOL
	.byte W02
	.byte 86 @ VOL
	.byte W02
	.byte 85 @ VOL
	.byte W03
	.byte 85 @ VOL
	.byte W01
	.byte 83 @ VOL
	.byte W02
	.byte 81 @ VOL
	.byte W02
	.byte 80 @ VOL
	.byte W01
	.byte 78 @ VOL
	.byte W02
	.byte 77 @ VOL
	.byte W01
	.byte 77 @ VOL
	.byte W02
	.byte 75 @ VOL
	.byte W01
	.byte 74 @ VOL
	.byte W02
	.byte 72 @ VOL
	.byte W01
	.byte 70 @ VOL
	.byte W02
	.byte 70 @ VOL
	.byte W01
	.byte 69 @ VOL
	.byte W02
	.byte 67 @ VOL
	.byte W01
	.byte 66 @ VOL
	.byte W01
	.byte 64 @ VOL
	.byte W01
	.byte 62 @ VOL
	.byte W02
	.byte 62 @ VOL
	.byte W01
	.byte 61 @ VOL
	.byte W01
	.byte 59 @ VOL
	.byte W02
	.byte 58 @ VOL
	.byte W01
	.byte 56 @ VOL
	.byte W01
	.byte 55 @ VOL
	.byte W01
	.byte 54 @ VOL
	.byte W02
	.byte 53 @ VOL
	.byte W01
	.byte 51 @ VOL
	.byte W01
	.byte 50 @ VOL
	.byte W03
	.byte PEND
track_9_lbl_25baf2:
	.byte PATT
		.word track_9_lbl_25b97a
	.byte PATT
		.word track_9_lbl_25b990
	.byte PATT
		.word track_9_lbl_25b99d
	.byte PATT
		.word track_9_lbl_25b9aa
	.byte W96
	.byte VOICE, 9
	.byte VOL, 50
	.byte PAN, c_v-4
	.byte N84, As2, v127
	.byte W01
	.byte VOL, 96
	.byte W01
	.byte 92 @ VOL
	.byte W01
	.byte 88 @ VOL
	.byte W01
	.byte 85 @ VOL
	.byte W01
	.byte 81 @ VOL
	.byte W01
	.byte 78 @ VOL
	.byte W01
	.byte 75 @ VOL
	.byte W01
	.byte 71 @ VOL
	.byte W01
	.byte 68 @ VOL
	.byte W01
	.byte 65 @ VOL
	.byte W01
	.byte 61 @ VOL
	.byte W01
	.byte 58 @ VOL
	.byte W02
	.byte 59 @ VOL
	.byte W01
	.byte 59 @ VOL
	.byte W01
	.byte 59 @ VOL
	.byte W01
	.byte 60 @ VOL
	.byte W01
	.byte 61 @ VOL
	.byte W01
	.byte 62 @ VOL
	.byte W01
	.byte 62 @ VOL
	.byte W01
	.byte 62 @ VOL
	.byte W01
	.byte 63 @ VOL
	.byte W01
	.byte 64 @ VOL
	.byte W02
	.byte 65 @ VOL
	.byte W01
	.byte 66 @ VOL
	.byte W01
	.byte 66 @ VOL
	.byte W02
	.byte 67 @ VOL
	.byte W01
	.byte 68 @ VOL
	.byte W01
	.byte 69 @ VOL
	.byte W02
	.byte 70 @ VOL
	.byte W01
	.byte 70 @ VOL
	.byte W01
	.byte 71 @ VOL
	.byte W02
	.byte 72 @ VOL
	.byte W01
	.byte 73 @ VOL
	.byte W01
	.byte 74 @ VOL
	.byte W02
	.byte 74 @ VOL
	.byte W01
	.byte 75 @ VOL
	.byte W01
	.byte 76 @ VOL
	.byte W02
	.byte 77 @ VOL
	.byte W01
	.byte 77 @ VOL
	.byte W02
	.byte 78 @ VOL
	.byte W01
	.byte 79 @ VOL
	.byte W01
	.byte 80 @ VOL
	.byte W02
	.byte 81 @ VOL
	.byte W01
	.byte 81 @ VOL
	.byte W01
	.byte 82 @ VOL
	.byte W01
	.byte 82 @ VOL
	.byte W01
	.byte 83 @ VOL
	.byte W01
	.byte 84 @ VOL
	.byte W01
	.byte 85 @ VOL
	.byte W01
	.byte 85 @ VOL
	.byte W01
	.byte 85 @ VOL
	.byte W01
	.byte 86 @ VOL
	.byte W01
	.byte 87 @ VOL
	.byte W02
	.byte 88 @ VOL
	.byte W01
	.byte 88 @ VOL
	.byte W01
	.byte 89 @ VOL
	.byte W01
	.byte 89 @ VOL
	.byte W01
	.byte 90 @ VOL
	.byte W01
	.byte 91 @ VOL
	.byte W01
	.byte 92 @ VOL
	.byte W02
	.byte 92 @ VOL
	.byte W01
	.byte 93 @ VOL
	.byte W01
	.byte 94 @ VOL
	.byte W02
	.byte 95 @ VOL
	.byte W01
	.byte 96 @ VOL
	.byte W01
	.byte 96 @ VOL
	.byte W02
	.byte 97 @ VOL
	.byte W01
	.byte 98 @ VOL
	.byte W01
	.byte 99 @ VOL
	.byte W02
	.byte N96, Cn3 @ v127
	.byte W12
	.byte PATT
		.word track_9_lbl_25ba33
	.byte PATT
		.word track_9_lbl_25ba90
	.byte W12
	.byte VOICE, 6
	.byte VOL, 92
	.byte PAN, c_v-10
	.byte N12, En3, v088
	.byte W12
	.byte Fn3 @ N12, v088
	.byte W12
	.byte N60, Dn4, v072
	.byte W60
	.byte W12
	.byte N12, En3, v100
	.byte W12
	.byte Fn3, v080 @ N12
	.byte W12
	.byte N48, Cn4, v072
	.byte W60
	.byte W12
	.byte N12, En3, v080
	.byte W12
	.byte Fn3 @ N12, v080
	.byte W12
	.byte N60, Bn3 @ v080
	.byte W60
	.byte W12
	.byte N12, En3, v076
	.byte W12
	.byte Fn3, v080 @ N12
	.byte W12
	.byte N60, As3, v040
	.byte W60
	.byte W12
	.byte N12, An2, v080
	.byte W12
	.byte As2 @ N12, v080
	.byte W12
	.byte N48, En3 @ v080
	.byte W48
	.byte N12, An2 @ v080
	.byte W12
track_9_lbl_25bbe9:
	.byte N12, As2, v080
	.byte W12
	.byte N72, Fn3 @ v080
	.byte W72
	.byte N12, An2 @ v080
	.byte W12
	.byte PEND
	.byte As2 @ N12, v080
	.byte W12
	.byte N72, Gn3 @ v080
	.byte W44
	.byte W01
	.byte VOL, 97
	.byte W01
	.byte 96 @ VOL
	.byte W01
	.byte 94 @ VOL
	.byte W01
	.byte 92 @ VOL
	.byte W01
	.byte 91 @ VOL
	.byte W01
	.byte 89 @ VOL
	.byte W01
	.byte 88 @ VOL
	.byte W01
	.byte 87 @ VOL
	.byte W01
	.byte 85 @ VOL
	.byte W01
	.byte 84 @ VOL
	.byte W01
	.byte 82 @ VOL
	.byte W01
	.byte 81 @ VOL
	.byte W01
	.byte 79 @ VOL
	.byte W01
	.byte 77 @ VOL
	.byte W01
	.byte 76 @ VOL
	.byte W01
	.byte 74 @ VOL
	.byte W01
	.byte 73 @ VOL
	.byte W01
	.byte 71 @ VOL
	.byte W01
	.byte 70 @ VOL
	.byte W01
	.byte 68 @ VOL
	.byte W01
	.byte 67 @ VOL
	.byte W01
	.byte 66 @ VOL
	.byte W01
	.byte 64 @ VOL
	.byte W01
	.byte 62 @ VOL
	.byte W01
	.byte 61 @ VOL
	.byte W03
	.byte 100 @ VOL
	.byte N12, An2 @ v080
	.byte W12
	.byte As2 @ N12, v080
	.byte W12
	.byte N84, Fn3 @ v080
	.byte W84
	.byte VOICE, 9
	.byte VOL, 7
	.byte BEND, c_v
	.byte N03, An3 @ v080
	.byte W06
	.byte Dn4 @ N03, v080
	.byte W01
	.byte VOL, 8
	.byte W02
	.byte 9 @ VOL
	.byte W02
	.byte 10 @ VOL
	.byte W01
	.byte N03, An4 @ v080
	.byte W01
	.byte VOL, 11
	.byte W03
	.byte 11 @ VOL
	.byte W02
	.byte 12 @ VOL
	.byte N03, En5 @ v080
	.byte W02
	.byte VOL, 13
	.byte W02
	.byte 14 @ VOL
	.byte W02
	.byte 14 @ VOL
	.byte N03, An3 @ v080
	.byte W03
	.byte VOL, 15
	.byte W02
	.byte 16 @ VOL
	.byte W01
	.byte N03, Dn4 @ v080
	.byte W01
	.byte VOL, 17
	.byte W02
	.byte 18 @ VOL
	.byte W02
	.byte 18 @ VOL
	.byte W01
	.byte N03, An4 @ v080
	.byte W01
	.byte VOL, 19
	.byte W03
	.byte 20 @ VOL
	.byte W02
	.byte 21 @ VOL
	.byte N03, En5 @ v080
	.byte W02
	.byte VOL, 22
	.byte W02
	.byte 22 @ VOL
	.byte W02
	.byte 23 @ VOL
	.byte N03, An3 @ v080
	.byte W02
	.byte VOL, 24
	.byte W03
	.byte 25 @ VOL
	.byte W01
	.byte N03, Dn4 @ v080
	.byte W01
	.byte VOL, 25
	.byte W02
	.byte 26 @ VOL
	.byte W02
	.byte 27 @ VOL
	.byte W01
	.byte N03, An4 @ v080
	.byte W01
	.byte VOL, 28
	.byte W02
	.byte 29 @ VOL
	.byte W03
	.byte 29 @ VOL
	.byte N03, En5 @ v080
	.byte W02
	.byte VOL, 30
	.byte W02
	.byte 31 @ VOL
	.byte W02
	.byte 32 @ VOL
	.byte N03, An3 @ v080
	.byte W02
	.byte VOL, 33
	.byte W03
	.byte 33 @ VOL
	.byte W01
	.byte N03, Dn4 @ v080
	.byte W01
	.byte VOL, 34
	.byte W02
	.byte 35 @ VOL
	.byte W02
	.byte 36 @ VOL
	.byte W01
	.byte N03, An4 @ v080
	.byte W01
	.byte VOL, 37
	.byte W02
	.byte 37 @ VOL
	.byte W03
	.byte 38 @ VOL
	.byte N03, En5 @ v080
	.byte W02
	.byte VOL, 39
	.byte W02
	.byte 40 @ VOL
	.byte W02
track_9_lbl_25bcc5:
	.byte VOL, 40
	.byte N03, An3, v080
	.byte W02
	.byte VOL, 41
	.byte W02
	.byte 42 @ VOL
	.byte W02
	.byte N03, Dn4 @ v080
	.byte W01
	.byte VOL, 43
	.byte W02
	.byte 44 @ VOL
	.byte W01
	.byte 39 @ VOL
	.byte W01
	.byte 36 @ VOL
	.byte W01
	.byte 34 @ VOL
	.byte N03, An4 @ v080
	.byte W01
	.byte VOL, 33
	.byte W01
	.byte 31 @ VOL
	.byte W01
	.byte 30 @ VOL
	.byte W01
	.byte 28 @ VOL
	.byte W02
	.byte 26 @ VOL
	.byte N03, En5 @ v080
	.byte W01
	.byte VOL, 25
	.byte W01
	.byte 23 @ VOL
	.byte W01
	.byte 22 @ VOL
	.byte W02
	.byte 22 @ VOL
	.byte W01
	.byte 20 @ VOL
	.byte N03, An3 @ v080
	.byte W02
	.byte VOL, 18
	.byte W03
	.byte 17 @ VOL
	.byte W01
	.byte N03, Dn4 @ v080
	.byte W01
	.byte VOL, 15
	.byte W03
	.byte 14 @ VOL
	.byte W02
	.byte N03, An4 @ v080
	.byte W01
	.byte VOL, 14
	.byte W04
	.byte 12 @ VOL
	.byte W01
	.byte N03, En5 @ v080
	.byte W03
	.byte VOL, 11
	.byte W03
	.byte N03, An3 @ v080
	.byte W01
	.byte VOL, 9
	.byte W05
	.byte 7 @ VOL
	.byte N03, Dn4 @ v080
	.byte W06
	.byte VOL, 7
	.byte N03, An4 @ v080
	.byte W06
	.byte En5 @ N03, v080
	.byte W01
	.byte VOL, 6
	.byte W05
	.byte N03, An3 @ v080
	.byte W01
	.byte VOL, 4
	.byte W05
	.byte N03, Dn4 @ v080
	.byte W05
	.byte VOL, 3
	.byte W01
	.byte N03, An4 @ v080
	.byte W06
	.byte En5 @ N03, v080
	.byte W02
	.byte VOL, 1
	.byte W02
	.byte 0 @ VOL
	.byte W02
	.byte PEND
	.byte PAN, c_v-4
	.byte N03, An3 @ v080
	.byte W06
	.byte VOL, 8
	.byte N03, Dn4 @ v080
	.byte W01
	.byte VOL, 9
	.byte W01
	.byte 10 @ VOL
	.byte W01
	.byte 11 @ VOL
	.byte W01
	.byte 11 @ VOL
	.byte W01
	.byte 12 @ VOL
	.byte W01
	.byte 13 @ VOL
	.byte N03, An4 @ v080
	.byte W02
	.byte VOL, 14
	.byte W01
	.byte 14 @ VOL
	.byte W01
	.byte 15 @ VOL
	.byte W01
	.byte 16 @ VOL
	.byte W01
	.byte 17 @ VOL
	.byte N03, En5 @ v080
	.byte W01
	.byte VOL, 18
	.byte W01
	.byte 18 @ VOL
	.byte W01
	.byte 19 @ VOL
	.byte W01
	.byte 20 @ VOL
	.byte W01
	.byte 21 @ VOL
	.byte W01
	.byte 22 @ VOL
	.byte N03, An3 @ v080
	.byte W01
	.byte VOL, 22
	.byte W01
	.byte 23 @ VOL
	.byte W01
	.byte 24 @ VOL
	.byte W02
	.byte 25 @ VOL
	.byte W01
	.byte 25 @ VOL
	.byte N03, Dn4 @ v080
	.byte W01
	.byte VOL, 26
	.byte W01
	.byte 27 @ VOL
	.byte W01
	.byte 28 @ VOL
	.byte W01
	.byte 29 @ VOL
	.byte W01
	.byte 29 @ VOL
	.byte W01
	.byte 30 @ VOL
	.byte N03, An4 @ v080
	.byte W01
	.byte VOL, 31
	.byte W01
	.byte 32 @ VOL
	.byte W01
	.byte 33 @ VOL
	.byte W01
	.byte 33 @ VOL
	.byte W01
	.byte 34 @ VOL
	.byte W01
	.byte 35 @ VOL
	.byte N03, En5 @ v080
	.byte W02
	.byte VOL, 36
	.byte W01
	.byte 37 @ VOL
	.byte W01
	.byte 37 @ VOL
	.byte W01
	.byte 38 @ VOL
	.byte W01
	.byte 39 @ VOL
	.byte N03, An3 @ v080
	.byte W01
	.byte VOL, 40
	.byte W01
	.byte 40 @ VOL
	.byte W01
	.byte 41 @ VOL
	.byte W01
	.byte 42 @ VOL
	.byte W01
	.byte 43 @ VOL
	.byte W01
	.byte 44 @ VOL
	.byte N03, Dn4 @ v080
	.byte W01
	.byte VOL, 44
	.byte W01
	.byte 45 @ VOL
	.byte W01
	.byte 46 @ VOL
	.byte W02
	.byte 47 @ VOL
	.byte W01
	.byte 48 @ VOL
	.byte N03, An4 @ v080
	.byte W01
	.byte VOL, 48
	.byte W01
	.byte 49 @ VOL
	.byte W01
	.byte 50 @ VOL
	.byte W01
	.byte 51 @ VOL
	.byte W01
	.byte 51 @ VOL
	.byte W01
	.byte 52 @ VOL
	.byte N03, En5 @ v080
	.byte W01
	.byte VOL, 53
	.byte W01
	.byte 54 @ VOL
	.byte W01
	.byte 55 @ VOL
	.byte W01
	.byte 55 @ VOL
	.byte W01
	.byte 56 @ VOL
	.byte W01
	.byte 57 @ VOL
	.byte N03, An3 @ v080
	.byte W01
	.byte VOL, 57
	.byte W01
	.byte 58 @ VOL
	.byte W01
	.byte 59 @ VOL
	.byte W01
	.byte 59 @ VOL
	.byte W01
	.byte 60 @ VOL
	.byte W01
	.byte 61 @ VOL
	.byte N03, Dn4 @ v080
	.byte W01
	.byte VOL, 62
	.byte W01
	.byte 62 @ VOL
	.byte W01
	.byte 63 @ VOL
	.byte W01
	.byte 64 @ VOL
	.byte W01
	.byte 65 @ VOL
	.byte W01
	.byte 66 @ VOL
	.byte N03, An4 @ v080
	.byte W01
	.byte VOL, 66
	.byte W01
	.byte 67 @ VOL
	.byte W01
	.byte 68 @ VOL
	.byte W01
	.byte 68 @ VOL
	.byte W01
	.byte 69 @ VOL
	.byte W01
	.byte 70 @ VOL
	.byte N03, En5 @ v080
	.byte W01
	.byte VOL, 70
	.byte W01
	.byte 71 @ VOL
	.byte W01
	.byte 72 @ VOL
	.byte W01
	.byte 73 @ VOL
	.byte W01
	.byte 74 @ VOL
	.byte W01
	.byte 74 @ VOL
	.byte N03, An3 @ v080
	.byte W01
	.byte VOL, 75
	.byte W01
	.byte 69 @ VOL
	.byte W01
	.byte 61 @ VOL
	.byte W01
	.byte 56 @ VOL
	.byte W01
	.byte 51 @ VOL
	.byte W01
	.byte 48 @ VOL
	.byte N03, Dn4 @ v080
	.byte W01
	.byte VOL, 46
	.byte W01
	.byte 42 @ VOL
	.byte W01
	.byte 40 @ VOL
	.byte W01
	.byte 39 @ VOL
	.byte W01
	.byte 36 @ VOL
	.byte W01
	.byte 34 @ VOL
	.byte N03, An4 @ v080
	.byte W01
	.byte VOL, 33
	.byte W01
	.byte 31 @ VOL
	.byte W01
	.byte 30 @ VOL
	.byte W01
	.byte 28 @ VOL
	.byte W02
	.byte 26 @ VOL
	.byte N03, En5 @ v080
	.byte W01
	.byte VOL, 25
	.byte W01
	.byte 23 @ VOL
	.byte W01
	.byte 22 @ VOL
	.byte W02
	.byte 22 @ VOL
	.byte W01
	.byte 20 @ VOL
	.byte N03, An3 @ v080
	.byte W02
	.byte VOL, 18
	.byte W03
	.byte 17 @ VOL
	.byte W01
	.byte N03, Dn4 @ v080
	.byte W01
	.byte VOL, 15
	.byte W03
	.byte 14 @ VOL
	.byte W02
	.byte N03, An4 @ v080
	.byte W01
	.byte VOL, 14
	.byte W04
	.byte 12 @ VOL
	.byte W01
	.byte N03, En5 @ v080
	.byte W03
	.byte VOL, 11
	.byte W03
	.byte N03, An3 @ v080
	.byte W01
	.byte VOL, 9
	.byte W05
	.byte 7 @ VOL
	.byte N03, Dn4 @ v080
	.byte W06
	.byte VOL, 7
	.byte N03, An4 @ v080
	.byte W06
	.byte En5 @ N03, v080
	.byte W01
	.byte VOL, 6
	.byte W05
	.byte N03, An3 @ v080
	.byte W01
	.byte VOL, 4
	.byte W05
	.byte N03, Dn4 @ v080
	.byte W05
	.byte VOL, 3
	.byte W01
	.byte N03, An4 @ v080
	.byte W06
	.byte En5 @ N03, v080
	.byte W02
	.byte VOL, 1
	.byte W02
	.byte 0 @ VOL
	.byte W02
	.byte PAN, c_v
	.byte N03, An3 @ v080
	.byte W01
	.byte VOL, 6
	.byte W02
	.byte 7 @ VOL
	.byte W02
	.byte 7 @ VOL
	.byte W01
	.byte N03, Dn4 @ v080
	.byte W01
	.byte VOL, 8
	.byte W02
	.byte 9 @ VOL
	.byte W02
	.byte 10 @ VOL
	.byte W01
	.byte N03, An4 @ v080
	.byte W01
	.byte VOL, 11
	.byte W03
	.byte 11 @ VOL
	.byte W02
	.byte 12 @ VOL
	.byte N03, En5 @ v080
	.byte W02
	.byte VOL, 13
	.byte W02
	.byte 14 @ VOL
	.byte W02
	.byte 14 @ VOL
	.byte N03, An3 @ v080
	.byte W03
	.byte VOL, 15
	.byte W02
	.byte 16 @ VOL
	.byte W01
	.byte N03, Dn4 @ v080
	.byte W01
	.byte VOL, 17
	.byte W02
	.byte 18 @ VOL
	.byte W02
	.byte 18 @ VOL
	.byte W01
	.byte N03, An4 @ v080
	.byte W01
	.byte VOL, 19
	.byte W03
	.byte 20 @ VOL
	.byte W02
	.byte 21 @ VOL
	.byte N03, En5 @ v080
	.byte W02
	.byte VOL, 22
	.byte W02
	.byte 22 @ VOL
	.byte W02
	.byte 23 @ VOL
	.byte N03, An3 @ v080
	.byte W02
	.byte VOL, 24
	.byte W03
	.byte 25 @ VOL
	.byte W01
	.byte N03, Dn4 @ v080
	.byte W01
	.byte VOL, 25
	.byte W02
	.byte 26 @ VOL
	.byte W02
	.byte 27 @ VOL
	.byte W01
	.byte N03, An4 @ v080
	.byte W01
	.byte VOL, 28
	.byte W02
	.byte 29 @ VOL
	.byte W03
	.byte 29 @ VOL
	.byte N03, En5 @ v080
	.byte W02
	.byte VOL, 30
	.byte W02
	.byte 31 @ VOL
	.byte W02
	.byte 32 @ VOL
	.byte N03, An3 @ v080
	.byte W02
	.byte VOL, 33
	.byte W03
	.byte 33 @ VOL
	.byte W01
	.byte N03, Dn4 @ v080
	.byte W01
	.byte VOL, 34
	.byte W02
	.byte 35 @ VOL
	.byte W02
	.byte 36 @ VOL
	.byte W01
	.byte N03, An4 @ v080
	.byte W01
	.byte VOL, 37
	.byte W02
	.byte 37 @ VOL
	.byte W03
	.byte 38 @ VOL
	.byte N03, En5 @ v080
	.byte W02
	.byte VOL, 39
	.byte W02
	.byte 40 @ VOL
	.byte W02
	.byte PATT
		.word track_9_lbl_25bcc5
	.byte PAN, c_v+6
	.byte N03, An3, v080
	.byte W01
	.byte VOL, 6
	.byte W02
	.byte 7 @ VOL
	.byte W02
	.byte 7 @ VOL
	.byte W01
	.byte N03, Dn4 @ v080
	.byte W01
	.byte VOL, 8
	.byte W02
	.byte 9 @ VOL
	.byte W02
	.byte 10 @ VOL
	.byte W01
	.byte N03, An4 @ v080
	.byte W01
	.byte VOL, 11
	.byte W03
	.byte 11 @ VOL
	.byte W02
	.byte 12 @ VOL
	.byte N03, En5 @ v080
	.byte W02
	.byte VOL, 13
	.byte W02
	.byte 14 @ VOL
	.byte W02
	.byte 14 @ VOL
	.byte N03, An3 @ v080
	.byte W03
	.byte VOL, 15
	.byte W02
	.byte 16 @ VOL
	.byte W01
	.byte N03, Dn4 @ v080
	.byte W01
	.byte VOL, 17
	.byte W02
	.byte 18 @ VOL
	.byte W02
	.byte 18 @ VOL
	.byte W01
	.byte N03, An4 @ v080
	.byte W01
	.byte VOL, 19
	.byte W03
	.byte 20 @ VOL
	.byte W02
	.byte 21 @ VOL
	.byte N03, En5 @ v080
	.byte W02
	.byte VOL, 22
	.byte W02
	.byte 22 @ VOL
	.byte W02
	.byte 23 @ VOL
	.byte N03, An3 @ v080
	.byte W02
	.byte VOL, 24
	.byte W03
	.byte 25 @ VOL
	.byte W01
	.byte N03, Dn4 @ v080
	.byte W01
	.byte VOL, 25
	.byte W02
	.byte 26 @ VOL
	.byte W02
	.byte 27 @ VOL
	.byte W01
	.byte N03, An4 @ v080
	.byte W01
	.byte VOL, 28
	.byte W02
	.byte 29 @ VOL
	.byte W03
	.byte 29 @ VOL
	.byte N03, En5 @ v080
	.byte W02
	.byte VOL, 30
	.byte W02
	.byte 31 @ VOL
	.byte W02
	.byte 32 @ VOL
	.byte N03, An3 @ v080
	.byte W02
	.byte VOL, 33
	.byte W03
	.byte 33 @ VOL
	.byte W01
	.byte N03, Dn4 @ v080
	.byte W01
	.byte VOL, 34
	.byte W02
	.byte 35 @ VOL
	.byte W02
	.byte 36 @ VOL
	.byte W01
	.byte N03, An4 @ v080
	.byte W01
	.byte VOL, 37
	.byte W02
	.byte 37 @ VOL
	.byte W03
	.byte 38 @ VOL
	.byte N03, En5 @ v080
	.byte W02
	.byte VOL, 39
	.byte W02
	.byte 40 @ VOL
	.byte W02
	.byte 40 @ VOL
	.byte N03, An3 @ v080
	.byte W02
	.byte VOL, 41
	.byte W02
	.byte 42 @ VOL
	.byte W02
	.byte N03, Dn4 @ v080
	.byte W01
	.byte VOL, 43
	.byte W02
	.byte 44 @ VOL
	.byte W01
	.byte 39 @ VOL
	.byte W01
	.byte 36 @ VOL
	.byte W01
	.byte 34 @ VOL
	.byte N03, An4 @ v080
	.byte W01
	.byte VOL, 33
	.byte W01
	.byte 31 @ VOL
	.byte W01
	.byte 30 @ VOL
	.byte W01
	.byte 28 @ VOL
	.byte W02
	.byte 26 @ VOL
	.byte N03, En5 @ v080
	.byte W01
	.byte VOL, 25
	.byte W01
	.byte 23 @ VOL
	.byte W01
	.byte 22 @ VOL
	.byte W02
	.byte 22 @ VOL
	.byte W01
	.byte 20 @ VOL
	.byte N03, An3 @ v080
	.byte W02
	.byte VOL, 18
	.byte W03
	.byte 17 @ VOL
	.byte W01
	.byte N03, Dn4 @ v080
	.byte W01
	.byte VOL, 15
	.byte W03
	.byte 14 @ VOL
	.byte W02
	.byte N03, An4 @ v080
	.byte W01
	.byte VOL, 14
	.byte W04
	.byte 12 @ VOL
	.byte W01
	.byte N03, En5 @ v080
	.byte W03
	.byte VOL, 11
	.byte W03
	.byte N03, An3 @ v080
	.byte W03
	.byte VOL, 12
	.byte W02
	.byte 14 @ VOL
	.byte W01
	.byte N03, Dn4 @ v080
	.byte W01
	.byte VOL, 15
	.byte W02
	.byte 17 @ VOL
	.byte W02
	.byte 18 @ VOL
	.byte W01
	.byte N03, An4 @ v080
	.byte W01
	.byte VOL, 20
	.byte W02
	.byte 22 @ VOL
	.byte W03
	.byte 23 @ VOL
	.byte N03, En5 @ v080
	.byte W02
	.byte VOL, 25
	.byte W02
	.byte 26 @ VOL
	.byte W02
	.byte 28 @ VOL
	.byte N03, An3 @ v080
	.byte W02
	.byte VOL, 29
	.byte W02
	.byte 31 @ VOL
	.byte W02
	.byte 33 @ VOL
	.byte N03, Dn4 @ v080
	.byte W02
	.byte VOL, 34
	.byte W02
	.byte 36 @ VOL
	.byte W02
	.byte 37 @ VOL
	.byte N03, An4 @ v080
	.byte W02
	.byte VOL, 39
	.byte W02
	.byte 40 @ VOL
	.byte W02
	.byte 42 @ VOL
	.byte N03, En5 @ v080
	.byte W03
	.byte VOL, 44
	.byte W03
	.byte 78 @ VOL
	.byte PAN, c_v-10
	.byte N06, An3, v092
	.byte W06
	.byte En3, v072 @ N06
	.byte W06
	.byte Gn3, v052 @ N06
	.byte W06
	.byte An3, v044 @ N06
	.byte W12
	.byte En3, v040 @ N06
	.byte W06
	.byte Gn3 @ N06, v040
	.byte W06
	.byte An3 @ N06, v040
	.byte W12
	.byte En3 @ N06, v040
	.byte W06
	.byte Gn3 @ N06, v040
	.byte W06
	.byte An3 @ N06, v040
	.byte W12
	.byte En3 @ N06, v040
	.byte W06
	.byte Gn3 @ N06, v040
	.byte W06
	.byte An3 @ N06, v040
	.byte W06
track_9_lbl_25c082:
	.byte W06
	.byte N06, En3, v040
	.byte W06
	.byte Gn3 @ N06, v040
	.byte W06
	.byte An3 @ N06, v040
	.byte W12
	.byte En3, v032 @ N06
	.byte W06
	.byte Gn3 @ N06, v032
	.byte W06
	.byte An3 @ N06, v032
	.byte W12
	.byte En3, v020 @ N06
	.byte W06
	.byte Gn3 @ N06, v020
	.byte W06
	.byte An3 @ N06, v020
	.byte W30
	.byte PEND
track_9_lbl_25c09a:
	.byte N06, An3, v052
	.byte W06
	.byte En3 @ N06, v052
	.byte W06
	.byte Gn3 @ N06, v052
	.byte W06
	.byte An3, v044 @ N06
	.byte W12
	.byte En3, v040 @ N06
	.byte W06
	.byte Gn3 @ N06, v040
	.byte W06
	.byte An3 @ N06, v040
	.byte W12
	.byte En3 @ N06, v040
	.byte W06
	.byte Gn3 @ N06, v040
	.byte W06
	.byte An3 @ N06, v040
	.byte W12
	.byte En3 @ N06, v040
	.byte W06
	.byte Gn3 @ N06, v040
	.byte W06
	.byte An3 @ N06, v040
	.byte W06
	.byte PEND
	.byte PATT
		.word track_9_lbl_25c082
	.byte PATT
		.word track_9_lbl_25c09a
	.byte PATT
		.word track_9_lbl_25c082
	.byte W96
	.byte W96
	.byte PATT
		.word track_9_lbl_25c09a
	.byte PATT
		.word track_9_lbl_25c082
	.byte N06, An3, v032
	.byte W06
	.byte En3 @ N06, v032
	.byte W06
	.byte Gn3, v036 @ N06
	.byte W06
	.byte An3 @ N06, v036
	.byte W12
	.byte En3, v040 @ N06
	.byte W06
	.byte Gn3, v044 @ N06
	.byte W06
	.byte An3, v048 @ N06
	.byte W12
	.byte En3, v052 @ N06
	.byte W06
	.byte Gn3 @ N06, v052
	.byte W06
	.byte An3, v048 @ N06
	.byte W12
	.byte En3, v044 @ N06
	.byte W06
	.byte Gn3, v040 @ N06
	.byte W06
	.byte An3, v036 @ N06
	.byte W06
	.byte W06
	.byte En3 @ N06, v036
	.byte W06
	.byte Gn3 @ N06, v036
	.byte W06
	.byte An3, v032 @ N06
	.byte W12
	.byte En3 @ N06, v032
	.byte W06
	.byte Gn3 @ N06, v032
	.byte W06
	.byte An3 @ N06, v032
	.byte W12
	.byte En3, v020 @ N06
	.byte W06
	.byte Gn3 @ N06, v020
	.byte W06
	.byte An3 @ N06, v020
	.byte W30
	.byte W96
	.byte W96
	.byte W96
	.byte W96
	.byte PATT
		.word track_9_lbl_25c09a
	.byte PATT
		.word track_9_lbl_25c082
	.byte PATT
		.word track_9_lbl_25c09a
	.byte PATT
		.word track_9_lbl_25c082
	.byte W96
	.byte W96
	.byte W96
	.byte W96
	.byte W12
	.byte VOICE, 6
	.byte VOL, 92
	.byte N12, An2, v080
	.byte W12
	.byte As2 @ N12, v080
	.byte W12
	.byte N48, En3 @ v080
	.byte W48
	.byte N12, An2 @ v080
	.byte W12
	.byte PATT
		.word track_9_lbl_25bbe9
	.byte N12, As2, v080
	.byte W12
	.byte N72, Gn3 @ v080
	.byte W72
	.byte N12, An2 @ v080
	.byte W12
	.byte As2 @ N12, v080
	.byte W12
	.byte N60, Fn3 @ v080
	.byte W60
	.byte N12, Dn3 @ v080
	.byte W12
	.byte N24, En3 @ v080
	.byte W12
	.byte W96
	.byte PATT
		.word track_9_lbl_25b9bc
	.byte PATT
		.word track_9_lbl_25ba33
	.byte PATT
		.word track_9_lbl_25ba90
	.byte GOTO
		.word track_9_lbl_25baf2
	.byte FINE

track_9_1:
	.byte KEYSH, 0
	.byte VOICE, 9
	.byte VOL, 62
	.byte PAN, c_v-10
	.byte PRIO, 108
	.byte BEND, c_v
	.byte N04, Cn4, v020
	.byte W06
	.byte Gn4 @ N04, v020
	.byte W06
	.byte As4 @ N04, v020
	.byte W06
	.byte Cn5 @ N04, v020
	.byte W06
	.byte Cn4 @ N04, v020
	.byte W06
	.byte Gn4 @ N04, v020
	.byte W06
	.byte As4 @ N04, v020
	.byte W06
	.byte Cn5 @ N04, v020
	.byte W06
	.byte Cn4 @ N04, v020
	.byte W06
	.byte Gn4 @ N04, v020
	.byte W06
	.byte As4, v024 @ N04
	.byte W06
	.byte Cn5, v028 @ N04
	.byte W06
	.byte Cn4 @ N04, v028
	.byte W06
	.byte Gn4 @ N04, v028
	.byte W06
	.byte As4, v032 @ N04
	.byte W06
	.byte Cn5 @ N04, v032
	.byte W06
	.byte PAN, c_v-4
	.byte N04, Cn4, v036
	.byte W06
	.byte Gn4 @ N04, v036
	.byte W06
	.byte As4, v040 @ N04
	.byte W06
	.byte Cn5 @ N04, v040
	.byte W06
	.byte Cn4, v044 @ N04
	.byte W06
	.byte Gn4 @ N04, v044
	.byte W06
	.byte As4 @ N04, v044
	.byte W06
	.byte Cn5, v048 @ N04
	.byte W06
	.byte Cn4 @ N04, v048
	.byte W06
	.byte Gn4, v052 @ N04
	.byte W06
	.byte As4 @ N04, v052
	.byte W06
	.byte Cn5, v056 @ N04
	.byte W06
	.byte Cn4 @ N04, v056
	.byte W06
	.byte Gn4, v060 @ N04
	.byte W06
	.byte As4 @ N04, v060
	.byte W06
	.byte Cn5 @ N04, v060
	.byte W06
	.byte PAN, c_v
	.byte N04, Cn4, v064
	.byte W06
	.byte Gn4, v060 @ N04
	.byte W06
	.byte As4, v052 @ N04
	.byte W06
	.byte Cn5, v048 @ N04
	.byte W06
	.byte Cn4, v052 @ N04
	.byte W06
	.byte Gn4, v048 @ N04
	.byte W06
	.byte As4, v040 @ N04
	.byte W06
	.byte Cn5, v032 @ N04
	.byte W06
	.byte Cn4, v028 @ N04
	.byte W06
	.byte Gn4 @ N04, v028
	.byte W06
	.byte As4 @ N04, v028
	.byte W06
	.byte Cn5 @ N04, v028
	.byte W06
	.byte Cn4, v024 @ N04
	.byte W06
	.byte Gn4 @ N04, v024
	.byte W06
	.byte As4 @ N04, v024
	.byte W06
	.byte Cn5 @ N04, v024
	.byte W06
	.byte W36
	.byte VOICE, 17
	.byte VOL, 94
	.byte PAN, c_v+6
	.byte N60, Gs2, v112
	.byte W60
track_9_lbl_25c1fe:
	.byte N96, Gn2, v060
	.byte W72
	.byte W02
	.byte VOL, 92
	.byte W01
	.byte 90 @ VOL
	.byte W01
	.byte 88 @ VOL
	.byte W01
	.byte 86 @ VOL
	.byte W01
	.byte 84 @ VOL
	.byte W01
	.byte 82 @ VOL
	.byte W01
	.byte 80 @ VOL
	.byte W01
	.byte 78 @ VOL
	.byte W01
	.byte 76 @ VOL
	.byte W01
	.byte 74 @ VOL
	.byte W01
	.byte 72 @ VOL
	.byte W01
	.byte 70 @ VOL
	.byte W01
	.byte 68 @ VOL
	.byte W01
	.byte 66 @ VOL
	.byte W01
	.byte 64 @ VOL
	.byte W01
	.byte 62 @ VOL
	.byte W01
	.byte 60 @ VOL
	.byte W01
	.byte 58 @ VOL
	.byte W01
	.byte 56 @ VOL
	.byte W01
	.byte 54 @ VOL
	.byte W01
	.byte 52 @ VOL
	.byte W01
	.byte 50 @ VOL
	.byte W01
	.byte PEND
track_9_lbl_25c231:
	.byte W12
	.byte VOL, 94
	.byte N60, Fn2, v092
	.byte W24
	.byte W02
	.byte VOL, 92
	.byte W01
	.byte 90 @ VOL
	.byte W01
	.byte 88 @ VOL
	.byte W01
	.byte 86 @ VOL
	.byte W01
	.byte 84 @ VOL
	.byte W01
	.byte 82 @ VOL
	.byte W01
	.byte 80 @ VOL
	.byte W01
	.byte 78 @ VOL
	.byte W01
	.byte 76 @ VOL
	.byte W01
	.byte 74 @ VOL
	.byte W01
	.byte 72 @ VOL
	.byte W01
	.byte 70 @ VOL
	.byte W01
	.byte 68 @ VOL
	.byte W01
	.byte 66 @ VOL
	.byte W01
	.byte 64 @ VOL
	.byte W01
	.byte 62 @ VOL
	.byte W01
	.byte 60 @ VOL
	.byte W01
	.byte 58 @ VOL
	.byte W01
	.byte 56 @ VOL
	.byte W01
	.byte 54 @ VOL
	.byte W01
	.byte 52 @ VOL
	.byte W01
	.byte 50 @ VOL
	.byte W36
	.byte W01
	.byte PEND
	.byte VOICE, 17
	.byte VOL, 85
	.byte TIE, Gn2, v060
	.byte W72
	.byte W01
	.byte VOL, 85
	.byte W01
	.byte 83 @ VOL
	.byte W01
	.byte 81 @ VOL
	.byte W01
	.byte 79 @ VOL
	.byte W01
	.byte 77 @ VOL
	.byte W01
	.byte 76 @ VOL
	.byte W01
	.byte 74 @ VOL
	.byte W01
	.byte 72 @ VOL
	.byte W01
	.byte 70 @ VOL
	.byte W01
	.byte 68 @ VOL
	.byte W01
	.byte 66 @ VOL
	.byte W01
	.byte 65 @ VOL
	.byte W01
	.byte 62 @ VOL
	.byte W01
	.byte 61 @ VOL
	.byte W01
	.byte 59 @ VOL
	.byte W01
	.byte 58 @ VOL
	.byte W01
	.byte 55 @ VOL
	.byte W01
	.byte 54 @ VOL
	.byte W01
	.byte 52 @ VOL
	.byte W01
	.byte 50 @ VOL
	.byte W01
	.byte 48 @ VOL
	.byte W01
	.byte 47 @ VOL
	.byte W01
	.byte 44 @ VOL
	.byte W01
	.byte 43 @ VOL
	.byte W01
	.byte 41 @ VOL
	.byte W01
	.byte 40 @ VOL
	.byte W01
	.byte 37 @ VOL
	.byte W01
	.byte 36 @ VOL
	.byte W01
	.byte 34 @ VOL
	.byte W01
	.byte 32 @ VOL
	.byte W01
	.byte 30 @ VOL
	.byte W01
	.byte 29 @ VOL
	.byte W01
	.byte 26 @ VOL
	.byte W01
	.byte 25 @ VOL
	.byte W01
	.byte 23 @ VOL
	.byte W01
	.byte 22 @ VOL
	.byte W01
	.byte 19 @ VOL
	.byte W01
	.byte 18 @ VOL
	.byte W01
	.byte 16 @ VOL
	.byte W01
	.byte 14 @ VOL
	.byte W01
	.byte 12 @ VOL
	.byte W01
	.byte 11 @ VOL
	.byte W01
	.byte 8 @ VOL
	.byte W01
	.byte 7 @ VOL
	.byte W01
	.byte 5 @ VOL
	.byte W01
	.byte 3 @ VOL
	.byte W01
	.byte 1 @ VOL
	.byte W01
	.byte EOT @ Gn2, v060
	.byte W24
	.byte VOICE, 10
	.byte VOL, 94
	.byte PAN, c_v
	.byte N06, An0, v120
	.byte W12
	.byte An0, v116 @ N06
	.byte W36
	.byte N12, An0, v127
	.byte W36
	.byte N12 @ An0, v127
	.byte W60
	.byte W48
	.byte N06, Gn0, v120
	.byte W12
	.byte Gn0, v116 @ N06
	.byte W24
	.byte N12, As0 @ v116
	.byte W12
track_9_lbl_25c2f0:
	.byte VOICE, 17
	.byte VOL, 94
	.byte PAN, c_v+6
	.byte TIE, Gn2, v060
	.byte W72
	.byte W02
	.byte VOL, 92
	.byte W01
	.byte 90 @ VOL
	.byte W01
	.byte 88 @ VOL
	.byte W01
	.byte 86 @ VOL
	.byte W01
	.byte 84 @ VOL
	.byte W01
	.byte 82 @ VOL
	.byte W01
	.byte 80 @ VOL
	.byte W01
	.byte 78 @ VOL
	.byte W01
	.byte 76 @ VOL
	.byte W01
	.byte 74 @ VOL
	.byte W01
	.byte 72 @ VOL
	.byte W01
	.byte 70 @ VOL
	.byte W01
	.byte 68 @ VOL
	.byte W01
	.byte 66 @ VOL
	.byte W01
	.byte 64 @ VOL
	.byte W01
	.byte 62 @ VOL
	.byte W01
	.byte 60 @ VOL
	.byte W01
	.byte 58 @ VOL
	.byte W01
	.byte 56 @ VOL
	.byte W01
	.byte 54 @ VOL
	.byte W01
	.byte 52 @ VOL
	.byte W01
	.byte 50 @ VOL
	.byte W01
	.byte PEND
	.byte 48 @ VOL
	.byte W01
	.byte 46 @ VOL
	.byte W01
	.byte 44 @ VOL
	.byte W01
	.byte 42 @ VOL
	.byte W01
	.byte 40 @ VOL
	.byte W01
	.byte 38 @ VOL
	.byte W01
	.byte 37 @ VOL
	.byte W01
	.byte 34 @ VOL
	.byte W01
	.byte 33 @ VOL
	.byte W01
	.byte 30 @ VOL
	.byte W01
	.byte 29 @ VOL
	.byte W01
	.byte 26 @ VOL
	.byte W01
	.byte 24 @ VOL
	.byte W01
	.byte 22 @ VOL
	.byte W01
	.byte 20 @ VOL
	.byte W01
	.byte 18 @ VOL
	.byte W01
	.byte 16 @ VOL
	.byte W01
	.byte 14 @ VOL
	.byte W01
	.byte 12 @ VOL
	.byte W01
	.byte 11 @ VOL
	.byte W01
	.byte 8 @ VOL
	.byte W01
	.byte 7 @ VOL
	.byte W01
	.byte 4 @ VOL
	.byte W01
	.byte 3 @ VOL
	.byte W01
	.byte EOT @ Gn2, v060
	.byte VOL, 0
	.byte W12
	.byte 94 @ VOL
	.byte N60, Gs2 @ v060
	.byte W60
track_9_lbl_25c361:
	.byte VOL, 94
	.byte N96, Gn2, v060
	.byte W72
	.byte W02
	.byte VOL, 92
	.byte W01
	.byte 90 @ VOL
	.byte W01
	.byte 88 @ VOL
	.byte W01
	.byte 86 @ VOL
	.byte W01
	.byte 84 @ VOL
	.byte W01
	.byte 82 @ VOL
	.byte W01
	.byte 80 @ VOL
	.byte W01
	.byte 78 @ VOL
	.byte W01
	.byte 76 @ VOL
	.byte W01
	.byte 74 @ VOL
	.byte W01
	.byte 72 @ VOL
	.byte W01
	.byte 70 @ VOL
	.byte W01
	.byte 68 @ VOL
	.byte W01
	.byte 66 @ VOL
	.byte W01
	.byte 64 @ VOL
	.byte W01
	.byte 62 @ VOL
	.byte W01
	.byte 60 @ VOL
	.byte W01
	.byte 58 @ VOL
	.byte W01
	.byte 56 @ VOL
	.byte W01
	.byte 54 @ VOL
	.byte W01
	.byte 52 @ VOL
	.byte W01
	.byte 50 @ VOL
	.byte W01
	.byte PEND
track_9_lbl_25c396:
	.byte VOL, 94
	.byte N60, Fn2, v060
	.byte W36
	.byte W02
	.byte VOL, 92
	.byte W01
	.byte 90 @ VOL
	.byte W01
	.byte 88 @ VOL
	.byte W01
	.byte 86 @ VOL
	.byte W01
	.byte 84 @ VOL
	.byte W01
	.byte 82 @ VOL
	.byte W01
	.byte 80 @ VOL
	.byte W01
	.byte 78 @ VOL
	.byte W01
	.byte 76 @ VOL
	.byte W01
	.byte 74 @ VOL
	.byte W01
	.byte 72 @ VOL
	.byte W01
	.byte 70 @ VOL
	.byte W01
	.byte 68 @ VOL
	.byte W01
	.byte 66 @ VOL
	.byte W01
	.byte 64 @ VOL
	.byte W01
	.byte 62 @ VOL
	.byte W01
	.byte 60 @ VOL
	.byte W01
	.byte 58 @ VOL
	.byte W01
	.byte 56 @ VOL
	.byte W01
	.byte 54 @ VOL
	.byte W01
	.byte 52 @ VOL
	.byte W01
	.byte 50 @ VOL
	.byte W36
	.byte W01
	.byte PEND
	.byte VOICE, 10
	.byte VOL, 94
	.byte N12, An0, v100
	.byte W18
	.byte An0, v096 @ N12
	.byte W78
	.byte VOICE, 9
	.byte VOL, 62
	.byte PAN, c_v+16
	.byte N84, An2, v127
	.byte W01
	.byte VOL, 96
	.byte W01
	.byte 92 @ VOL
	.byte W01
	.byte 88 @ VOL
	.byte W01
	.byte 85 @ VOL
	.byte W01
	.byte 81 @ VOL
	.byte W01
	.byte 78 @ VOL
	.byte W01
	.byte 75 @ VOL
	.byte W01
	.byte 71 @ VOL
	.byte W01
	.byte 68 @ VOL
	.byte W01
	.byte 65 @ VOL
	.byte W01
	.byte 61 @ VOL
	.byte W01
	.byte 58 @ VOL
	.byte W02
	.byte 59 @ VOL
	.byte W01
	.byte 59 @ VOL
	.byte W01
	.byte 59 @ VOL
	.byte W01
	.byte 60 @ VOL
	.byte W01
	.byte 61 @ VOL
	.byte W01
	.byte 62 @ VOL
	.byte W01
	.byte 62 @ VOL
	.byte W01
	.byte 62 @ VOL
	.byte W01
	.byte 63 @ VOL
	.byte W01
	.byte 64 @ VOL
	.byte W02
	.byte 65 @ VOL
	.byte W01
	.byte 66 @ VOL
	.byte W01
	.byte 66 @ VOL
	.byte W02
	.byte 67 @ VOL
	.byte W01
	.byte 68 @ VOL
	.byte W01
	.byte 69 @ VOL
	.byte W02
	.byte 70 @ VOL
	.byte W01
	.byte 70 @ VOL
	.byte W01
	.byte 71 @ VOL
	.byte W02
	.byte 72 @ VOL
	.byte W01
	.byte 73 @ VOL
	.byte W01
	.byte 74 @ VOL
	.byte W02
	.byte 74 @ VOL
	.byte W01
	.byte 75 @ VOL
	.byte W01
	.byte 76 @ VOL
	.byte W02
	.byte 77 @ VOL
	.byte W01
	.byte 77 @ VOL
	.byte W02
	.byte 78 @ VOL
	.byte W01
	.byte 79 @ VOL
	.byte W01
	.byte 80 @ VOL
	.byte W02
	.byte 81 @ VOL
	.byte W01
	.byte 81 @ VOL
	.byte W01
	.byte 82 @ VOL
	.byte W01
	.byte 82 @ VOL
	.byte W01
	.byte 83 @ VOL
	.byte W01
	.byte 84 @ VOL
	.byte W01
	.byte 85 @ VOL
	.byte W01
	.byte 85 @ VOL
	.byte W01
	.byte 85 @ VOL
	.byte W01
	.byte 86 @ VOL
	.byte W01
	.byte 87 @ VOL
	.byte W02
	.byte 88 @ VOL
	.byte W01
	.byte 88 @ VOL
	.byte W01
	.byte 89 @ VOL
	.byte W01
	.byte 89 @ VOL
	.byte W01
	.byte 90 @ VOL
	.byte W01
	.byte 91 @ VOL
	.byte W01
	.byte 92 @ VOL
	.byte W02
	.byte 92 @ VOL
	.byte W01
	.byte 93 @ VOL
	.byte W01
	.byte 94 @ VOL
	.byte W02
	.byte 95 @ VOL
	.byte W01
	.byte 96 @ VOL
	.byte W01
	.byte 96 @ VOL
	.byte W02
	.byte 97 @ VOL
	.byte W01
	.byte 98 @ VOL
	.byte W01
	.byte 99 @ VOL
	.byte W02
	.byte N96 @ An2, v127
	.byte W12
	.byte VOL, 97
	.byte W01
	.byte 92 @ VOL
	.byte W01
	.byte 88 @ VOL
	.byte W01
	.byte 85 @ VOL
	.byte W01
	.byte 80 @ VOL
	.byte W01
	.byte 77 @ VOL
	.byte W01
	.byte 75 @ VOL
	.byte W01
	.byte 72 @ VOL
	.byte W01
	.byte 70 @ VOL
	.byte W01
	.byte 70 @ VOL
	.byte W01
	.byte 69 @ VOL
	.byte W01
	.byte 67 @ VOL
	.byte W01
	.byte 66 @ VOL
	.byte W01
	.byte 64 @ VOL
	.byte W02
	.byte 62 @ VOL
	.byte W03
	.byte 62 @ VOL
	.byte W04
	.byte 61 @ VOL
	.byte W06
	.byte 62 @ VOL
	.byte W06
	.byte 62 @ VOL
	.byte W04
	.byte 64 @ VOL
	.byte W03
	.byte 66 @ VOL
	.byte W03
	.byte 67 @ VOL
	.byte W03
	.byte 69 @ VOL
	.byte W04
	.byte 70 @ VOL
	.byte W02
	.byte 70 @ VOL
	.byte W02
	.byte 72 @ VOL
	.byte W03
	.byte 74 @ VOL
	.byte W02
	.byte 75 @ VOL
	.byte W03
	.byte 77 @ VOL
	.byte W02
	.byte 77 @ VOL
	.byte W02
	.byte 78 @ VOL
	.byte W03
	.byte 80 @ VOL
	.byte W02
	.byte 81 @ VOL
	.byte W02
	.byte 83 @ VOL
	.byte W02
	.byte 85 @ VOL
	.byte W02
	.byte 85 @ VOL
	.byte W02
	.byte 86 @ VOL
	.byte W02
	.byte 88 @ VOL
	.byte W02
	.byte N96, Gn2 @ v127
	.byte W01
	.byte VOL, 89
	.byte W02
	.byte 91 @ VOL
	.byte W02
	.byte 92 @ VOL
	.byte W02
	.byte 93 @ VOL
	.byte W02
	.byte 94 @ VOL
	.byte W03
	.byte 80 @ VOL
	.byte W01
	.byte 81 @ VOL
	.byte W01
	.byte 83 @ VOL
	.byte W01
	.byte 85 @ VOL
	.byte W01
	.byte 85 @ VOL
	.byte W01
	.byte 86 @ VOL
	.byte W02
	.byte 88 @ VOL
	.byte W02
	.byte 89 @ VOL
	.byte W01
	.byte 91 @ VOL
	.byte W02
	.byte 92 @ VOL
	.byte W04
	.byte 93 @ VOL
	.byte W03
	.byte 94 @ VOL
	.byte W06
	.byte 96 @ VOL
	.byte W09
	.byte 94 @ VOL
	.byte W05
	.byte 93 @ VOL
	.byte W04
	.byte 92 @ VOL
	.byte W03
	.byte 91 @ VOL
	.byte W02
	.byte 89 @ VOL
	.byte W02
	.byte 88 @ VOL
	.byte W02
	.byte 86 @ VOL
	.byte W02
	.byte 85 @ VOL
	.byte W03
	.byte 85 @ VOL
	.byte W01
	.byte 83 @ VOL
	.byte W02
	.byte 81 @ VOL
	.byte W02
	.byte 80 @ VOL
	.byte W01
	.byte 78 @ VOL
	.byte W02
	.byte 77 @ VOL
	.byte W01
	.byte 77 @ VOL
	.byte W02
	.byte 75 @ VOL
	.byte W01
	.byte 74 @ VOL
	.byte W02
	.byte 72 @ VOL
	.byte W01
	.byte 70 @ VOL
	.byte W02
	.byte 70 @ VOL
	.byte W01
	.byte 69 @ VOL
	.byte W02
	.byte 67 @ VOL
	.byte W01
	.byte 66 @ VOL
	.byte W01
	.byte 64 @ VOL
	.byte W01
	.byte 62 @ VOL
	.byte W02
	.byte 62 @ VOL
	.byte W01
	.byte 61 @ VOL
	.byte W01
	.byte 59 @ VOL
	.byte W02
	.byte 58 @ VOL
	.byte W01
	.byte 56 @ VOL
	.byte W01
	.byte 55 @ VOL
	.byte W01
	.byte 54 @ VOL
	.byte W02
	.byte 53 @ VOL
	.byte W01
	.byte 51 @ VOL
	.byte W01
	.byte 50 @ VOL
	.byte W03
	.byte VOICE, 11
	.byte VOL, 3
	.byte BEND, c_v
	.byte TIE, Cn5, v020
	.byte W09
	.byte VOL, 3
	.byte W03
	.byte 4 @ VOL
	.byte W04
	.byte 5 @ VOL
	.byte W03
	.byte 6 @ VOL
	.byte W03
	.byte 7 @ VOL
	.byte W03
	.byte 7 @ VOL
	.byte W04
	.byte 8 @ VOL
	.byte W03
	.byte 9 @ VOL
	.byte W03
	.byte 10 @ VOL
	.byte W03
	.byte 11 @ VOL
	.byte W04
	.byte 11 @ VOL
	.byte W03
	.byte 12 @ VOL
	.byte W03
	.byte 13 @ VOL
	.byte W03
	.byte 14 @ VOL
	.byte W04
	.byte 14 @ VOL
	.byte W03
	.byte 15 @ VOL
	.byte W03
	.byte 16 @ VOL
	.byte W03
	.byte 17 @ VOL
	.byte W04
	.byte 18 @ VOL
	.byte W03
	.byte 18 @ VOL
	.byte W06
	.byte 20 @ VOL
	.byte W04
	.byte 21 @ VOL
	.byte W03
	.byte 22 @ VOL
	.byte W03
	.byte 22 @ VOL
	.byte W04
	.byte 23 @ VOL
	.byte W03
	.byte 24 @ VOL
	.byte W02
	.byte W01
	.byte 25 @ VOL
	.byte W03
	.byte 25 @ VOL
	.byte W04
	.byte 26 @ VOL
	.byte W03
	.byte 27 @ VOL
	.byte W03
	.byte 28 @ VOL
	.byte W03
	.byte 29 @ VOL
	.byte W04
	.byte 29 @ VOL
	.byte W03
	.byte 30 @ VOL
	.byte W03
	.byte 31 @ VOL
	.byte W03
	.byte 32 @ VOL
	.byte W04
	.byte 33 @ VOL
	.byte W03
	.byte 33 @ VOL
	.byte W03
	.byte 34 @ VOL
	.byte W03
	.byte 35 @ VOL
	.byte W04
	.byte 36 @ VOL
	.byte W03
	.byte 37 @ VOL
	.byte W03
	.byte 37 @ VOL
	.byte W03
	.byte 38 @ VOL
	.byte W04
	.byte 39 @ VOL
	.byte W03
	.byte 40 @ VOL
	.byte W03
	.byte 40 @ VOL
	.byte W03
	.byte 41 @ VOL
	.byte W04
	.byte 42 @ VOL
	.byte W03
	.byte 43 @ VOL
	.byte W03
	.byte 44 @ VOL
	.byte W03
	.byte 44 @ VOL
	.byte W04
	.byte 45 @ VOL
	.byte W03
	.byte 46 @ VOL
	.byte W07
	.byte W36
	.byte W02
	.byte BEND, c_v-2
	.byte W01
	.byte c_v-3 @ BEND
	.byte W03
	.byte c_v-4 @ BEND
	.byte W04
	.byte c_v-5 @ BEND
	.byte W04
	.byte c_v-6 @ BEND
	.byte W04
	.byte c_v-7 @ BEND
	.byte W04
	.byte c_v-8 @ BEND
	.byte W04
	.byte c_v-9 @ BEND
	.byte W04
	.byte c_v-10 @ BEND
	.byte W01
	.byte VOL, 45
	.byte W02
	.byte 44 @ VOL
	.byte W01
	.byte BEND, c_v-11
	.byte W01
	.byte VOL, 44
	.byte W02
	.byte 43 @ VOL
	.byte W01
	.byte 42 @ VOL
	.byte BEND, c_v-12
	.byte W02
	.byte VOL, 41
	.byte W01
	.byte BEND, c_v-13
	.byte W01
	.byte VOL, 40
	.byte W02
	.byte 40 @ VOL
	.byte W01
	.byte 39 @ VOL
	.byte BEND, c_v-14
	.byte W02
	.byte VOL, 38
	.byte W02
	.byte 37 @ VOL
	.byte BEND, c_v-15
	.byte W02
	.byte VOL, 37
	.byte W01
	.byte 36 @ VOL
	.byte W01
	.byte BEND, c_v-16
	.byte W01
	.byte VOL, 35
	.byte W02
	.byte 34 @ VOL
	.byte W01
	.byte BEND, c_v-17
	.byte W01
	.byte VOL, 33
	.byte W01
	.byte 33 @ VOL
	.byte W01
	.byte W01
	.byte 32 @ VOL
	.byte BEND, c_v-18
	.byte W02
	.byte VOL, 31
	.byte W02
	.byte 30 @ VOL
	.byte BEND, c_v-19
	.byte W01
	.byte VOL, 29
	.byte W02
	.byte 29 @ VOL
	.byte W01
	.byte BEND, c_v-20
	.byte W01
	.byte VOL, 28
	.byte W02
	.byte 27 @ VOL
	.byte W01
	.byte 26 @ VOL
	.byte BEND, c_v-21
	.byte W02
	.byte VOL, 25
	.byte W01
	.byte BEND, c_v-22
	.byte W01
	.byte VOL, 25
	.byte W02
	.byte 24 @ VOL
	.byte W01
	.byte 23 @ VOL
	.byte BEND, c_v-23
	.byte W02
	.byte VOL, 22
	.byte W02
	.byte 22 @ VOL
	.byte BEND, c_v-24
	.byte W02
	.byte VOL, 21
	.byte W01
	.byte 20 @ VOL
	.byte W01
	.byte BEND, c_v-25
	.byte W01
	.byte VOL, 19
	.byte W02
	.byte 18 @ VOL
	.byte W01
	.byte 18 @ VOL
	.byte BEND, c_v-26
	.byte W02
	.byte VOL, 17
	.byte W02
	.byte 16 @ VOL
	.byte BEND, c_v-27
	.byte W02
	.byte VOL, 15
	.byte W01
	.byte 14 @ VOL
	.byte W01
	.byte BEND, c_v-28
	.byte W01
	.byte VOL, 14
	.byte W02
	.byte 13 @ VOL
	.byte W01
	.byte BEND, c_v-29
	.byte W01
	.byte VOL, 12
	.byte W01
	.byte 11 @ VOL
	.byte W02
	.byte EOT @ Cn5, v020
	.byte W24
	.byte BEND, c_v
	.byte W24
	.byte PATT
		.word track_9_lbl_25c2f0
	.byte VOL, 48
	.byte W01
	.byte 46 @ VOL
	.byte W01
	.byte 44 @ VOL
	.byte W01
	.byte 42 @ VOL
	.byte W01
	.byte 40 @ VOL
	.byte W01
	.byte 38 @ VOL
	.byte W01
	.byte 37 @ VOL
	.byte W01
	.byte 34 @ VOL
	.byte W01
	.byte 33 @ VOL
	.byte W01
	.byte 30 @ VOL
	.byte W01
	.byte 29 @ VOL
	.byte W01
	.byte 26 @ VOL
	.byte W01
	.byte 24 @ VOL
	.byte W01
	.byte 22 @ VOL
	.byte W01
	.byte 20 @ VOL
	.byte W01
	.byte 18 @ VOL
	.byte W01
	.byte 16 @ VOL
	.byte W01
	.byte 14 @ VOL
	.byte W01
	.byte 12 @ VOL
	.byte W01
	.byte 11 @ VOL
	.byte W01
	.byte 8 @ VOL
	.byte W01
	.byte 7 @ VOL
	.byte W01
	.byte 4 @ VOL
	.byte W01
	.byte 3 @ VOL
	.byte W01
	.byte EOT @ Cn5, v020
	.byte VOL, 0
	.byte W24
	.byte 94 @ VOL
	.byte N48, Gs2, v060
	.byte W48
	.byte PATT
		.word track_9_lbl_25c361
	.byte PATT
		.word track_9_lbl_25c396
	.byte W96
	.byte W96
	.byte W96
	.byte W96
	.byte W96
	.byte W96
	.byte W48
	.byte VOICE, 18
	.byte VOL, 7
	.byte TIE, As2, v100
	.byte W03
	.byte VOL, 10
	.byte W01
	.byte 13 @ VOL
	.byte W01
	.byte 17 @ VOL
	.byte W01
	.byte 20 @ VOL
	.byte W01
	.byte 24 @ VOL
	.byte W01
	.byte 27 @ VOL
	.byte W01
	.byte 31 @ VOL
	.byte W01
	.byte 34 @ VOL
	.byte W01
	.byte 38 @ VOL
	.byte W01
	.byte 41 @ VOL
	.byte W01
	.byte 45 @ VOL
	.byte W01
	.byte 48 @ VOL
	.byte W01
	.byte 52 @ VOL
	.byte W01
	.byte 55 @ VOL
	.byte W01
	.byte 59 @ VOL
	.byte W01
	.byte 62 @ VOL
	.byte W01
	.byte 66 @ VOL
	.byte W01
	.byte 70 @ VOL
	.byte W01
	.byte 74 @ VOL
	.byte W01
	.byte 77 @ VOL
	.byte W01
	.byte 81 @ VOL
	.byte W01
	.byte 85 @ VOL
	.byte W24
	.byte W72
	.byte 85 @ VOL
	.byte W01
	.byte 83 @ VOL
	.byte W01
	.byte 81 @ VOL
	.byte W01
	.byte 80 @ VOL
	.byte W01
	.byte 78 @ VOL
	.byte W01
	.byte 76 @ VOL
	.byte W01
	.byte 74 @ VOL
	.byte W01
	.byte 73 @ VOL
	.byte W01
	.byte 71 @ VOL
	.byte W01
	.byte 69 @ VOL
	.byte W01
	.byte 67 @ VOL
	.byte W01
	.byte 66 @ VOL
	.byte W01
	.byte 64 @ VOL
	.byte W01
	.byte 62 @ VOL
	.byte W01
	.byte 60 @ VOL
	.byte W01
	.byte 59 @ VOL
	.byte W01
	.byte 57 @ VOL
	.byte W01
	.byte 55 @ VOL
	.byte W01
	.byte 53 @ VOL
	.byte W01
	.byte 51 @ VOL
	.byte W01
	.byte 50 @ VOL
	.byte W01
	.byte 48 @ VOL
	.byte W01
	.byte 46 @ VOL
	.byte W01
	.byte 44 @ VOL
	.byte W01
	.byte 43 @ VOL
	.byte W01
	.byte 41 @ VOL
	.byte W01
	.byte 40 @ VOL
	.byte W01
	.byte 37 @ VOL
	.byte W01
	.byte 36 @ VOL
	.byte W01
	.byte 34 @ VOL
	.byte W01
	.byte 33 @ VOL
	.byte W01
	.byte 30 @ VOL
	.byte W01
	.byte 29 @ VOL
	.byte W01
	.byte 27 @ VOL
	.byte W01
	.byte 25 @ VOL
	.byte W01
	.byte 24 @ VOL
	.byte W01
	.byte 22 @ VOL
	.byte W01
	.byte 20 @ VOL
	.byte W01
	.byte 18 @ VOL
	.byte W01
	.byte 17 @ VOL
	.byte W01
	.byte 14 @ VOL
	.byte W01
	.byte 13 @ VOL
	.byte W01
	.byte 11 @ VOL
	.byte W01
	.byte 10 @ VOL
	.byte W01
	.byte 7 @ VOL
	.byte W01
	.byte 6 @ VOL
	.byte W01
	.byte 4 @ VOL
	.byte W01
	.byte 3 @ VOL
	.byte W01
	.byte EOT @ As2, v100
	.byte VOL, 1
	.byte W72
	.byte W96
	.byte W96
	.byte W96
	.byte VOICE, 12
	.byte VOL, 11
	.byte PAN, c_v-4
	.byte TIE, En3, v020
	.byte W03
	.byte VOL, 24
	.byte W02
	.byte 25 @ VOL
	.byte W02
	.byte 25 @ VOL
	.byte W02
	.byte 26 @ VOL
	.byte W02
	.byte 27 @ VOL
	.byte W02
	.byte 28 @ VOL
	.byte W02
	.byte 29 @ VOL
	.byte W02
	.byte 29 @ VOL
	.byte W02
	.byte 30 @ VOL
	.byte W02
	.byte 31 @ VOL
	.byte W02
	.byte 32 @ VOL
	.byte W02
	.byte 33 @ VOL
	.byte W02
	.byte 33 @ VOL
	.byte W02
	.byte 34 @ VOL
	.byte W02
	.byte 35 @ VOL
	.byte W02
	.byte 36 @ VOL
	.byte W02
	.byte 37 @ VOL
	.byte W02
	.byte 37 @ VOL
	.byte W02
	.byte 38 @ VOL
	.byte W02
	.byte 39 @ VOL
	.byte W02
	.byte 40 @ VOL
	.byte W02
	.byte 40 @ VOL
	.byte W02
	.byte 41 @ VOL
	.byte W02
	.byte 42 @ VOL
	.byte W02
	.byte 43 @ VOL
	.byte W02
	.byte 44 @ VOL
	.byte W02
	.byte 44 @ VOL
	.byte W02
	.byte 45 @ VOL
	.byte W01
	.byte 46 @ VOL
	.byte W02
	.byte 47 @ VOL
	.byte W02
	.byte 48 @ VOL
	.byte W02
	.byte 48 @ VOL
	.byte W02
	.byte 49 @ VOL
	.byte W02
	.byte 50 @ VOL
	.byte W02
	.byte 51 @ VOL
	.byte W02
	.byte 51 @ VOL
	.byte W02
	.byte 52 @ VOL
	.byte W02
	.byte 53 @ VOL
	.byte W02
	.byte 54 @ VOL
	.byte W02
	.byte 55 @ VOL
	.byte W02
	.byte 55 @ VOL
	.byte W02
	.byte 56 @ VOL
	.byte W02
	.byte 57 @ VOL
	.byte W02
	.byte 58 @ VOL
	.byte W02
	.byte 59 @ VOL
	.byte W02
	.byte 59 @ VOL
	.byte W02
	.byte 60 @ VOL
	.byte W02
	.byte 61 @ VOL
	.byte W02
	.byte 62 @ VOL
	.byte W02
	.byte 62 @ VOL
	.byte W02
	.byte 63 @ VOL
	.byte W02
	.byte 64 @ VOL
	.byte W02
	.byte 65 @ VOL
	.byte W02
	.byte 66 @ VOL
	.byte W02
	.byte 66 @ VOL
	.byte W02
	.byte 67 @ VOL
	.byte W01
	.byte 68 @ VOL
	.byte W02
	.byte 69 @ VOL
	.byte W02
	.byte 70 @ VOL
	.byte W02
	.byte 70 @ VOL
	.byte W02
	.byte 71 @ VOL
	.byte W02
	.byte 72 @ VOL
	.byte W02
	.byte 73 @ VOL
	.byte W02
	.byte 74 @ VOL
	.byte W02
	.byte 74 @ VOL
	.byte W02
	.byte 75 @ VOL
	.byte W02
	.byte 76 @ VOL
	.byte W02
	.byte 77 @ VOL
	.byte W02
	.byte 77 @ VOL
	.byte W02
	.byte 78 @ VOL
	.byte W02
	.byte 79 @ VOL
	.byte W02
	.byte 80 @ VOL
	.byte W01
	.byte EOT @ En3, v020
	.byte W01
	.byte VOL, 81
	.byte W02
	.byte 81 @ VOL
	.byte W02
	.byte 82 @ VOL
	.byte W02
	.byte 83 @ VOL
	.byte W05
	.byte 79 @ VOL
	.byte N12, An3 @ v020
	.byte W01
	.byte VOL, 77
	.byte W01
	.byte 76 @ VOL
	.byte W01
	.byte 74 @ VOL
	.byte W01
	.byte 74 @ VOL
	.byte W01
	.byte 72 @ VOL
	.byte W01
	.byte 70 @ VOL
	.byte W01
	.byte 69 @ VOL
	.byte W01
	.byte 68 @ VOL
	.byte W01
	.byte 66 @ VOL
	.byte W01
	.byte 65 @ VOL
	.byte W01
	.byte 63 @ VOL
	.byte W01
	.byte 62 @ VOL
	.byte W01
	.byte 61 @ VOL
	.byte W01
	.byte 59 @ VOL
	.byte W01
	.byte 58 @ VOL
	.byte W01
	.byte 57 @ VOL
	.byte W01
	.byte 55 @ VOL
	.byte W01
	.byte 54 @ VOL
	.byte W01
	.byte 53 @ VOL
	.byte W01
	.byte 51 @ VOL
	.byte W01
	.byte 50 @ VOL
	.byte W01
	.byte 48 @ VOL
	.byte W01
	.byte 48 @ VOL
	.byte W01
	.byte N48, Gn3 @ v020
	.byte W12
	.byte W13
	.byte VOL, 47
	.byte W01
	.byte 46 @ VOL
	.byte W01
	.byte 45 @ VOL
	.byte W01
	.byte 44 @ VOL
	.byte W01
	.byte 43 @ VOL
	.byte W01
	.byte 42 @ VOL
	.byte W01
	.byte 41 @ VOL
	.byte W01
	.byte 40 @ VOL
	.byte W01
	.byte 40 @ VOL
	.byte W01
	.byte 39 @ VOL
	.byte W01
	.byte 37 @ VOL
	.byte W01
	.byte 37 @ VOL
	.byte W01
	.byte 36 @ VOL
	.byte W01
	.byte 35 @ VOL
	.byte W01
	.byte 34 @ VOL
	.byte W01
	.byte 33 @ VOL
	.byte W01
	.byte 33 @ VOL
	.byte W01
	.byte 31 @ VOL
	.byte W01
	.byte 30 @ VOL
	.byte W05
	.byte 47 @ VOL
	.byte N36, Dn3 @ v020
	.byte W36
	.byte N72, Fn3 @ v020
	.byte W24
	.byte W60
	.byte N12, Gn3, v032
	.byte W15
	.byte VOL, 47
	.byte W01
	.byte 45 @ VOL
	.byte W01
	.byte 44 @ VOL
	.byte W01
	.byte 41 @ VOL
	.byte W01
	.byte 40 @ VOL
	.byte W01
	.byte 38 @ VOL
	.byte W01
	.byte 37 @ VOL
	.byte W01
	.byte 35 @ VOL
	.byte W01
	.byte 33 @ VOL
	.byte W01
	.byte 47 @ VOL
	.byte N96, En3, v020
	.byte W02
	.byte VOL, 45
	.byte W02
	.byte 44 @ VOL
	.byte W02
	.byte 44 @ VOL
	.byte W01
	.byte 43 @ VOL
	.byte W02
	.byte 42 @ VOL
	.byte W01
	.byte 41 @ VOL
	.byte W02
	.byte 40 @ VOL
	.byte W02
	.byte 40 @ VOL
	.byte W01
	.byte 39 @ VOL
	.byte W02
	.byte 38 @ VOL
	.byte W02
	.byte 37 @ VOL
	.byte W01
	.byte 37 @ VOL
	.byte W02
	.byte 36 @ VOL
	.byte W01
	.byte 35 @ VOL
	.byte W02
	.byte 34 @ VOL
	.byte W02
	.byte 33 @ VOL
	.byte W01
	.byte 33 @ VOL
	.byte W02
	.byte 32 @ VOL
	.byte W02
	.byte 31 @ VOL
	.byte W01
	.byte 30 @ VOL
	.byte W02
	.byte 29 @ VOL
	.byte W01
	.byte 29 @ VOL
	.byte W02
	.byte 28 @ VOL
	.byte W02
	.byte 27 @ VOL
	.byte W01
	.byte 26 @ VOL
	.byte W02
	.byte 25 @ VOL
	.byte W02
	.byte 25 @ VOL
	.byte W01
	.byte 24 @ VOL
	.byte W02
	.byte 23 @ VOL
	.byte W01
	.byte 22 @ VOL
	.byte W02
	.byte 22 @ VOL
	.byte W02
	.byte 21 @ VOL
	.byte W01
	.byte 20 @ VOL
	.byte W02
	.byte 19 @ VOL
	.byte W02
	.byte 18 @ VOL
	.byte W01
	.byte 18 @ VOL
	.byte W02
	.byte 17 @ VOL
	.byte W03
	.byte 15 @ VOL
	.byte W02
	.byte 14 @ VOL
	.byte W01
	.byte 14 @ VOL
	.byte W02
	.byte 13 @ VOL
	.byte W02
	.byte 12 @ VOL
	.byte W03
	.byte 11 @ VOL
	.byte W03
	.byte 9 @ VOL
	.byte W03
	.byte 7 @ VOL
	.byte W04
	.byte 6 @ VOL
	.byte W03
	.byte 4 @ VOL
	.byte W03
	.byte 3 @ VOL
	.byte W18
	.byte W96
	.byte W96
	.byte W96
	.byte VOICE, 12
	.byte VOL, 24
	.byte TIE @ En3, v020
	.byte W05
	.byte VOL, 25
	.byte W04
	.byte 26 @ VOL
	.byte W04
	.byte 28 @ VOL
	.byte W04
	.byte 29 @ VOL
	.byte W04
	.byte 31 @ VOL
	.byte W04
	.byte 33 @ VOL
	.byte W04
	.byte 34 @ VOL
	.byte W04
	.byte 36 @ VOL
	.byte W04
	.byte 37 @ VOL
	.byte W04
	.byte 39 @ VOL
	.byte W04
	.byte 40 @ VOL
	.byte W04
	.byte 42 @ VOL
	.byte W04
	.byte 44 @ VOL
	.byte W04
	.byte 45 @ VOL
	.byte W03
	.byte 47 @ VOL
	.byte W04
	.byte 48 @ VOL
	.byte W04
	.byte 50 @ VOL
	.byte W04
	.byte 51 @ VOL
	.byte W04
	.byte 53 @ VOL
	.byte W04
	.byte 55 @ VOL
	.byte W04
	.byte 56 @ VOL
	.byte W04
	.byte 58 @ VOL
	.byte W04
	.byte 59 @ VOL
	.byte W04
	.byte 61 @ VOL
	.byte W04
	.byte 62 @ VOL
	.byte W04
	.byte 64 @ VOL
	.byte W04
	.byte 66 @ VOL
	.byte W04
	.byte 67 @ VOL
	.byte W03
	.byte 69 @ VOL
	.byte W04
	.byte 70 @ VOL
	.byte W04
	.byte 72 @ VOL
	.byte W04
	.byte 74 @ VOL
	.byte W04
	.byte 75 @ VOL
	.byte W04
	.byte 77 @ VOL
	.byte W04
	.byte 78 @ VOL
	.byte W04
	.byte 80 @ VOL
	.byte W01
	.byte EOT @ En3, v020
	.byte W03
	.byte VOL, 81
	.byte W04
	.byte 83 @ VOL
	.byte W05
	.byte 79 @ VOL
	.byte N12, An3 @ v020
	.byte W01
	.byte VOL, 77
	.byte W01
	.byte 76 @ VOL
	.byte W01
	.byte 74 @ VOL
	.byte W01
	.byte 74 @ VOL
	.byte W01
	.byte 72 @ VOL
	.byte W01
	.byte 70 @ VOL
	.byte W01
	.byte 69 @ VOL
	.byte W01
	.byte 68 @ VOL
	.byte W01
	.byte 66 @ VOL
	.byte W01
	.byte 65 @ VOL
	.byte W01
	.byte 63 @ VOL
	.byte W01
	.byte 62 @ VOL
	.byte W01
	.byte 61 @ VOL
	.byte W01
	.byte 59 @ VOL
	.byte W01
	.byte 58 @ VOL
	.byte W01
	.byte 57 @ VOL
	.byte W01
	.byte 55 @ VOL
	.byte W01
	.byte 54 @ VOL
	.byte W01
	.byte 53 @ VOL
	.byte W01
	.byte 51 @ VOL
	.byte W01
	.byte 50 @ VOL
	.byte W01
	.byte 48 @ VOL
	.byte W02
	.byte N48, Gn3 @ v020
	.byte W12
	.byte W13
	.byte VOL, 47
	.byte W02
	.byte 45 @ VOL
	.byte W02
	.byte 43 @ VOL
	.byte W02
	.byte 41 @ VOL
	.byte W02
	.byte 40 @ VOL
	.byte W02
	.byte 37 @ VOL
	.byte W02
	.byte 36 @ VOL
	.byte W02
	.byte 34 @ VOL
	.byte W02
	.byte 33 @ VOL
	.byte W01
	.byte 31 @ VOL
	.byte W06
	.byte 47 @ VOL
	.byte N36, Dn3 @ v020
	.byte W36
	.byte N72, Fn3 @ v020
	.byte W24
	.byte W60
	.byte N12, Gn3 @ v020
	.byte W15
	.byte VOL, 47
	.byte W01
	.byte 45 @ VOL
	.byte W01
	.byte 44 @ VOL
	.byte W01
	.byte 41 @ VOL
	.byte W01
	.byte 40 @ VOL
	.byte W01
	.byte 38 @ VOL
	.byte W01
	.byte 37 @ VOL
	.byte W01
	.byte 35 @ VOL
	.byte W01
	.byte 33 @ VOL
	.byte W01
	.byte 47 @ VOL
	.byte N60, En3 @ v020
	.byte W12
	.byte W48
	.byte N12, Cn3 @ v020
	.byte W24
	.byte Dn3 @ N12, v020
	.byte W12
	.byte N60, An2 @ v020
	.byte W12
	.byte W60
	.byte N12, Cn3 @ v020
	.byte W24
	.byte N84, As2 @ v020
	.byte W12
	.byte W84
	.byte N60, Gn2, v032
	.byte W12
	.byte W60
	.byte N12, As2 @ v032
	.byte W24
	.byte TIE, An2 @ v032
	.byte W12
	.byte W96
	.byte W36
	.byte EOT @ An2, v032
	.byte W60
	.byte W96
	.byte W92
	.byte W03
	.byte VOICE, 17
	.byte W01
	.byte VOL, 94
	.byte PAN, c_v+6
	.byte TIE, Gn2, v060
	.byte W72
	.byte W02
	.byte VOL, 92
	.byte W01
	.byte 90 @ VOL
	.byte W01
	.byte 88 @ VOL
	.byte W01
	.byte 86 @ VOL
	.byte W01
	.byte 84 @ VOL
	.byte W01
	.byte 82 @ VOL
	.byte W01
	.byte 80 @ VOL
	.byte W01
	.byte 78 @ VOL
	.byte W01
	.byte 76 @ VOL
	.byte W01
	.byte 74 @ VOL
	.byte W01
	.byte 72 @ VOL
	.byte W01
	.byte 70 @ VOL
	.byte W01
	.byte 68 @ VOL
	.byte W01
	.byte 66 @ VOL
	.byte W01
	.byte 64 @ VOL
	.byte W01
	.byte 62 @ VOL
	.byte W01
	.byte 60 @ VOL
	.byte W01
	.byte 58 @ VOL
	.byte W01
	.byte 56 @ VOL
	.byte W01
	.byte 54 @ VOL
	.byte W01
	.byte 52 @ VOL
	.byte W01
	.byte 50 @ VOL
	.byte W01
	.byte 48 @ VOL
	.byte W01
	.byte 46 @ VOL
	.byte W01
	.byte 44 @ VOL
	.byte W01
	.byte 42 @ VOL
	.byte W01
	.byte 40 @ VOL
	.byte W01
	.byte 38 @ VOL
	.byte W01
	.byte 37 @ VOL
	.byte W01
	.byte 34 @ VOL
	.byte W01
	.byte 33 @ VOL
	.byte W01
	.byte 30 @ VOL
	.byte W01
	.byte 29 @ VOL
	.byte W01
	.byte 26 @ VOL
	.byte W01
	.byte 24 @ VOL
	.byte W01
	.byte 22 @ VOL
	.byte W01
	.byte 20 @ VOL
	.byte W01
	.byte 18 @ VOL
	.byte W01
	.byte 16 @ VOL
	.byte W01
	.byte 14 @ VOL
	.byte W01
	.byte 12 @ VOL
	.byte W01
	.byte 11 @ VOL
	.byte W01
	.byte 8 @ VOL
	.byte W01
	.byte 7 @ VOL
	.byte W01
	.byte 4 @ VOL
	.byte W01
	.byte 3 @ VOL
	.byte W01
	.byte EOT @ Gn2, v060
	.byte VOL, 0
	.byte W12
	.byte 94 @ VOL
	.byte N60, Gs2, v112
	.byte W60
	.byte PATT
		.word track_9_lbl_25c1fe
	.byte PATT
		.word track_9_lbl_25c231
	.byte VOL, 85
	.byte TIE, Gn2, v060
	.byte W72
	.byte W01
	.byte VOL, 85
	.byte W01
	.byte 83 @ VOL
	.byte W01
	.byte 81 @ VOL
	.byte W01
	.byte 79 @ VOL
	.byte W01
	.byte 77 @ VOL
	.byte W01
	.byte 76 @ VOL
	.byte W01
	.byte 74 @ VOL
	.byte W01
	.byte 72 @ VOL
	.byte W01
	.byte 70 @ VOL
	.byte W01
	.byte 68 @ VOL
	.byte W01
	.byte 66 @ VOL
	.byte W01
	.byte 65 @ VOL
	.byte W01
	.byte 62 @ VOL
	.byte W01
	.byte 61 @ VOL
	.byte W01
	.byte 59 @ VOL
	.byte W01
	.byte 58 @ VOL
	.byte W01
	.byte 55 @ VOL
	.byte W01
	.byte 54 @ VOL
	.byte W01
	.byte 52 @ VOL
	.byte W01
	.byte 50 @ VOL
	.byte W01
	.byte 48 @ VOL
	.byte W01
	.byte 47 @ VOL
	.byte W01
	.byte 44 @ VOL
	.byte W01
	.byte 43 @ VOL
	.byte W01
	.byte 41 @ VOL
	.byte W01
	.byte 40 @ VOL
	.byte W01
	.byte 37 @ VOL
	.byte W01
	.byte 36 @ VOL
	.byte W01
	.byte 34 @ VOL
	.byte W01
	.byte 32 @ VOL
	.byte W01
	.byte 30 @ VOL
	.byte W01
	.byte 29 @ VOL
	.byte W01
	.byte 26 @ VOL
	.byte W01
	.byte 25 @ VOL
	.byte W01
	.byte 23 @ VOL
	.byte W01
	.byte 22 @ VOL
	.byte W01
	.byte 19 @ VOL
	.byte W01
	.byte 18 @ VOL
	.byte W01
	.byte 16 @ VOL
	.byte W01
	.byte 14 @ VOL
	.byte W01
	.byte 12 @ VOL
	.byte W01
	.byte 11 @ VOL
	.byte W01
	.byte 8 @ VOL
	.byte W01
	.byte 7 @ VOL
	.byte W01
	.byte 5 @ VOL
	.byte W01
	.byte 3 @ VOL
	.byte W01
	.byte 1 @ VOL
	.byte W01
	.byte EOT @ Gn2, v060
	.byte VOL, 0
	.byte W24
	.byte VOICE, 10
	.byte VOL, 94
	.byte PAN, c_v
	.byte N06, An0, v100
	.byte W12
	.byte An0, v096 @ N06
	.byte W36
	.byte N12, An0, v108
	.byte W36
	.byte An0, v127 @ N12
	.byte W60
	.byte W48
	.byte N06, An0, v100
	.byte W12
	.byte An0, v096 @ N06
	.byte W24
	.byte N12, An1, v112
	.byte W12
	.byte GOTO
		.word track_9_lbl_25c2f0
	.byte FINE

track_9_2:
	.byte KEYSH, 0
	.byte PAN, c_v+6
	.byte PRIO, 109
	.byte W24
	.byte VOICE, 18
	.byte W24
	.byte VOL, 0
	.byte TIE, As2, v100
	.byte W02
	.byte VOL, 5
	.byte W01
	.byte 8 @ VOL
	.byte W01
	.byte 12 @ VOL
	.byte W01
	.byte 15 @ VOL
	.byte W01
	.byte 19 @ VOL
	.byte W01
	.byte 22 @ VOL
	.byte W01
	.byte 26 @ VOL
	.byte W01
	.byte 29 @ VOL
	.byte W01
	.byte 33 @ VOL
	.byte W01
	.byte 37 @ VOL
	.byte W01
	.byte 40 @ VOL
	.byte W01
	.byte 44 @ VOL
	.byte W01
	.byte 48 @ VOL
	.byte W01
	.byte 51 @ VOL
	.byte W01
	.byte 55 @ VOL
	.byte W01
	.byte 58 @ VOL
	.byte W01
	.byte 62 @ VOL
	.byte W01
	.byte 65 @ VOL
	.byte W01
	.byte 69 @ VOL
	.byte W01
	.byte 72 @ VOL
	.byte W01
	.byte 76 @ VOL
	.byte W01
	.byte 79 @ VOL
	.byte W01
	.byte 83 @ VOL
	.byte W24
	.byte W40
	.byte 83 @ VOL
	.byte W01
	.byte 81 @ VOL
	.byte W01
	.byte 81 @ VOL
	.byte W01
	.byte 79 @ VOL
	.byte W01
	.byte 77 @ VOL
	.byte W01
	.byte 77 @ VOL
	.byte W01
	.byte 75 @ VOL
	.byte W01
	.byte 74 @ VOL
	.byte W01
	.byte 73 @ VOL
	.byte W01
	.byte 71 @ VOL
	.byte W01
	.byte 70 @ VOL
	.byte W01
	.byte 69 @ VOL
	.byte W01
	.byte 67 @ VOL
	.byte W01
	.byte 66 @ VOL
	.byte W01
	.byte 65 @ VOL
	.byte W01
	.byte 63 @ VOL
	.byte W01
	.byte 62 @ VOL
	.byte W01
	.byte 61 @ VOL
	.byte W01
	.byte 59 @ VOL
	.byte W01
	.byte 58 @ VOL
	.byte W01
	.byte 57 @ VOL
	.byte W01
	.byte 55 @ VOL
	.byte W01
	.byte 54 @ VOL
	.byte W01
	.byte 53 @ VOL
	.byte W01
	.byte 51 @ VOL
	.byte W01
	.byte 50 @ VOL
	.byte W01
	.byte 49 @ VOL
	.byte W01
	.byte 48 @ VOL
	.byte W01
	.byte 46 @ VOL
	.byte W01
	.byte 45 @ VOL
	.byte W01
	.byte 44 @ VOL
	.byte W01
	.byte 42 @ VOL
	.byte W01
	.byte 41 @ VOL
	.byte W01
	.byte 40 @ VOL
	.byte W01
	.byte 38 @ VOL
	.byte W01
	.byte 37 @ VOL
	.byte W01
	.byte 36 @ VOL
	.byte W01
	.byte 34 @ VOL
	.byte W01
	.byte 33 @ VOL
	.byte W01
	.byte 32 @ VOL
	.byte W01
	.byte 30 @ VOL
	.byte W01
	.byte 29 @ VOL
	.byte W01
	.byte 28 @ VOL
	.byte W01
	.byte 26 @ VOL
	.byte W01
	.byte 25 @ VOL
	.byte W01
	.byte 24 @ VOL
	.byte W01
	.byte 22 @ VOL
	.byte W01
	.byte 22 @ VOL
	.byte W01
	.byte 20 @ VOL
	.byte W01
	.byte 18 @ VOL
	.byte W01
	.byte 18 @ VOL
	.byte W01
	.byte 16 @ VOL
	.byte W01
	.byte 14 @ VOL
	.byte W01
	.byte 14 @ VOL
	.byte W01
	.byte 12 @ VOL
	.byte W01
	.byte 11 @ VOL
	.byte W01
	.byte EOT @ As2, v100
	.byte VOICE, 10
	.byte VOL, 94
	.byte PAN, c_v
	.byte BENDR, 12
	.byte BEND, c_v
	.byte N72, An0, v127
	.byte W84
	.byte N12, An1, v120
	.byte W12
	.byte W12
	.byte N06, An0, v096
	.byte W84
track_9_lbl_25cb89:
	.byte N08, An0, v127
	.byte W36
	.byte N36 @ An0, v127
	.byte W48
	.byte N12, En1, v112
	.byte W12
	.byte PEND
track_9_lbl_25cb94:
	.byte W12
	.byte N36, Gn0, v127
	.byte W42
	.byte N06, En1, v076
	.byte W06
	.byte Gn1, v080 @ N06
	.byte W06
	.byte An1, v104 @ N06
	.byte W06
	.byte N18, Cn2, v076
	.byte W09
	.byte BEND, c_v-4
	.byte W01
	.byte c_v-8 @ BEND
	.byte W01
	.byte c_v-12 @ BEND
	.byte W01
	.byte c_v-16 @ BEND
	.byte W01
	.byte c_v-20 @ BEND
	.byte W01
	.byte c_v-24 @ BEND
	.byte W01
	.byte c_v-29 @ BEND
	.byte W01
	.byte c_v-33 @ BEND
	.byte W01
	.byte c_v-37 @ BEND
	.byte W01
	.byte c_v-41 @ BEND
	.byte W01
	.byte c_v-45 @ BEND
	.byte W01
	.byte c_v-49 @ BEND
	.byte W01
	.byte c_v-53 @ BEND
	.byte W01
	.byte c_v-57 @ BEND
	.byte W01
	.byte c_v-61 @ BEND
	.byte W01
	.byte PEND
track_9_lbl_25cbc7:
	.byte BEND, c_v
	.byte N12, An0, v120
	.byte W18
	.byte An0, v116 @ N12
	.byte W78
	.byte PEND
	.byte VOICE, 9
	.byte VOL, 62
	.byte PAN, c_v+16
	.byte N84, An2, v127
	.byte W01
	.byte VOL, 66
	.byte W01
	.byte 70 @ VOL
	.byte W01
	.byte 72 @ VOL
	.byte W01
	.byte 75 @ VOL
	.byte W01
	.byte 77 @ VOL
	.byte W01
	.byte 77 @ VOL
	.byte W01
	.byte 78 @ VOL
	.byte W02
	.byte 80 @ VOL
	.byte W03
	.byte 81 @ VOL
	.byte W05
	.byte 80 @ VOL
	.byte W08
	.byte 78 @ VOL
	.byte W03
	.byte 77 @ VOL
	.byte W02
	.byte 77 @ VOL
	.byte W03
	.byte 75 @ VOL
	.byte W03
	.byte 74 @ VOL
	.byte W02
	.byte 73 @ VOL
	.byte W01
	.byte 74 @ VOL
	.byte W02
	.byte 74 @ VOL
	.byte W01
	.byte 75 @ VOL
	.byte W01
	.byte 76 @ VOL
	.byte W02
	.byte 77 @ VOL
	.byte W01
	.byte 77 @ VOL
	.byte W02
	.byte 78 @ VOL
	.byte W01
	.byte 79 @ VOL
	.byte W01
	.byte 80 @ VOL
	.byte W02
	.byte 81 @ VOL
	.byte W01
	.byte 81 @ VOL
	.byte W01
	.byte 82 @ VOL
	.byte W01
	.byte 82 @ VOL
	.byte W01
	.byte 83 @ VOL
	.byte W01
	.byte 84 @ VOL
	.byte W01
	.byte 85 @ VOL
	.byte W01
	.byte 85 @ VOL
	.byte W01
	.byte 85 @ VOL
	.byte W01
	.byte 86 @ VOL
	.byte W01
	.byte 87 @ VOL
	.byte W02
	.byte 88 @ VOL
	.byte W01
	.byte 88 @ VOL
	.byte W01
	.byte 89 @ VOL
	.byte W01
	.byte 89 @ VOL
	.byte W01
	.byte 90 @ VOL
	.byte W01
	.byte 91 @ VOL
	.byte W01
	.byte 92 @ VOL
	.byte W02
	.byte 92 @ VOL
	.byte W01
	.byte 93 @ VOL
	.byte W01
	.byte 94 @ VOL
	.byte W02
	.byte 95 @ VOL
	.byte W01
	.byte 96 @ VOL
	.byte W01
	.byte 96 @ VOL
	.byte W02
	.byte 97 @ VOL
	.byte W01
	.byte 98 @ VOL
	.byte W01
	.byte 99 @ VOL
	.byte W02
	.byte N96 @ An2, v127
	.byte W12
track_9_lbl_25cc46:
	.byte VOL, 97
	.byte W01
	.byte 92 @ VOL
	.byte W01
	.byte 88 @ VOL
	.byte W01
	.byte 85 @ VOL
	.byte W01
	.byte 80 @ VOL
	.byte W01
	.byte 77 @ VOL
	.byte W01
	.byte 75 @ VOL
	.byte W01
	.byte 72 @ VOL
	.byte W01
	.byte 70 @ VOL
	.byte W01
	.byte 70 @ VOL
	.byte W01
	.byte 69 @ VOL
	.byte W01
	.byte 67 @ VOL
	.byte W01
	.byte 66 @ VOL
	.byte W01
	.byte 64 @ VOL
	.byte W02
	.byte 62 @ VOL
	.byte W03
	.byte 62 @ VOL
	.byte W04
	.byte 61 @ VOL
	.byte W06
	.byte 62 @ VOL
	.byte W06
	.byte 62 @ VOL
	.byte W04
	.byte 64 @ VOL
	.byte W03
	.byte 66 @ VOL
	.byte W03
	.byte 67 @ VOL
	.byte W03
	.byte 69 @ VOL
	.byte W04
	.byte 70 @ VOL
	.byte W02
	.byte 70 @ VOL
	.byte W02
	.byte 72 @ VOL
	.byte W03
	.byte 74 @ VOL
	.byte W02
	.byte 75 @ VOL
	.byte W03
	.byte 77 @ VOL
	.byte W02
	.byte 77 @ VOL
	.byte W02
	.byte 78 @ VOL
	.byte W03
	.byte 80 @ VOL
	.byte W02
	.byte 81 @ VOL
	.byte W02
	.byte 83 @ VOL
	.byte W02
	.byte 85 @ VOL
	.byte W02
	.byte 85 @ VOL
	.byte W02
	.byte 86 @ VOL
	.byte W02
	.byte 88 @ VOL
	.byte W02
	.byte N96, Gn2, v127
	.byte W01
	.byte VOL, 89
	.byte W02
	.byte 91 @ VOL
	.byte W02
	.byte 92 @ VOL
	.byte W02
	.byte 93 @ VOL
	.byte W02
	.byte 94 @ VOL
	.byte W03
	.byte PEND
track_9_lbl_25cca3:
	.byte VOL, 80
	.byte W01
	.byte 81 @ VOL
	.byte W01
	.byte 83 @ VOL
	.byte W01
	.byte 85 @ VOL
	.byte W01
	.byte 85 @ VOL
	.byte W01
	.byte 86 @ VOL
	.byte W02
	.byte 88 @ VOL
	.byte W02
	.byte 89 @ VOL
	.byte W01
	.byte 91 @ VOL
	.byte W02
	.byte 92 @ VOL
	.byte W04
	.byte 93 @ VOL
	.byte W03
	.byte 94 @ VOL
	.byte W06
	.byte 96 @ VOL
	.byte W09
	.byte 94 @ VOL
	.byte W05
	.byte 93 @ VOL
	.byte W04
	.byte 92 @ VOL
	.byte W03
	.byte 91 @ VOL
	.byte W02
	.byte 89 @ VOL
	.byte W02
	.byte 88 @ VOL
	.byte W02
	.byte 86 @ VOL
	.byte W02
	.byte 85 @ VOL
	.byte W03
	.byte 85 @ VOL
	.byte W01
	.byte 83 @ VOL
	.byte W02
	.byte 81 @ VOL
	.byte W02
	.byte 80 @ VOL
	.byte W01
	.byte 78 @ VOL
	.byte W02
	.byte 77 @ VOL
	.byte W01
	.byte 77 @ VOL
	.byte W02
	.byte 75 @ VOL
	.byte W01
	.byte 74 @ VOL
	.byte W02
	.byte 72 @ VOL
	.byte W01
	.byte 70 @ VOL
	.byte W02
	.byte 70 @ VOL
	.byte W01
	.byte 69 @ VOL
	.byte W02
	.byte 67 @ VOL
	.byte W01
	.byte 66 @ VOL
	.byte W01
	.byte 64 @ VOL
	.byte W01
	.byte 62 @ VOL
	.byte W02
	.byte 62 @ VOL
	.byte W01
	.byte 61 @ VOL
	.byte W01
	.byte 59 @ VOL
	.byte W02
	.byte 58 @ VOL
	.byte W01
	.byte 56 @ VOL
	.byte W01
	.byte 55 @ VOL
	.byte W01
	.byte 54 @ VOL
	.byte W02
	.byte 53 @ VOL
	.byte W01
	.byte 51 @ VOL
	.byte W01
	.byte 50 @ VOL
	.byte W03
	.byte PEND
track_9_lbl_25cd05:
	.byte VOICE, 10
	.byte VOL, 94
	.byte PAN, c_v
	.byte N72, An0, v108
	.byte W84
	.byte N12, An1, v100
	.byte W12
	.byte W06
	.byte N06, An0, v092
	.byte W18
	.byte An0, v116 @ N06
	.byte W12
	.byte N48, An0, v092
	.byte W60
track_9_lbl_25cd1f:
	.byte N12, An0, v116
	.byte W36
	.byte N36, An0, v112
	.byte W48
	.byte N12, En1, v092
	.byte W12
	.byte PEND
track_9_lbl_25cd2c:
	.byte N06, An0, v108
	.byte W18
	.byte N06 @ An0, v108
	.byte W12
	.byte N05 @ An0, v108
	.byte W06
	.byte N05 @ An0, v108
	.byte W12
	.byte N06 @ An0, v108
	.byte W12
	.byte N36, Gn0, v127
	.byte W36
	.byte PEND
	.byte VOICE, 17
	.byte VOL, 85
	.byte TIE, Gn2, v092
	.byte W72
	.byte W01
	.byte VOL, 85
	.byte W01
	.byte 83 @ VOL
	.byte W01
	.byte 81 @ VOL
	.byte W01
	.byte 79 @ VOL
	.byte W01
	.byte 77 @ VOL
	.byte W01
	.byte 76 @ VOL
	.byte W01
	.byte 74 @ VOL
	.byte W01
	.byte 72 @ VOL
	.byte W01
	.byte 70 @ VOL
	.byte W01
	.byte 68 @ VOL
	.byte W01
	.byte 66 @ VOL
	.byte W01
	.byte 65 @ VOL
	.byte W01
	.byte 62 @ VOL
	.byte W01
	.byte 61 @ VOL
	.byte W01
	.byte 59 @ VOL
	.byte W01
	.byte 58 @ VOL
	.byte W01
	.byte 55 @ VOL
	.byte W01
	.byte 54 @ VOL
	.byte W01
	.byte 52 @ VOL
	.byte W01
	.byte 50 @ VOL
	.byte W01
	.byte 48 @ VOL
	.byte W01
	.byte 47 @ VOL
	.byte W01
	.byte 44 @ VOL
	.byte W01
	.byte 43 @ VOL
	.byte W01
	.byte 41 @ VOL
	.byte W01
	.byte 40 @ VOL
	.byte W01
	.byte 37 @ VOL
	.byte W01
	.byte 36 @ VOL
	.byte W01
	.byte 34 @ VOL
	.byte W01
	.byte 32 @ VOL
	.byte W01
	.byte 30 @ VOL
	.byte W01
	.byte 29 @ VOL
	.byte W01
	.byte 26 @ VOL
	.byte W01
	.byte 25 @ VOL
	.byte W01
	.byte 23 @ VOL
	.byte W01
	.byte 22 @ VOL
	.byte W01
	.byte 19 @ VOL
	.byte W01
	.byte 18 @ VOL
	.byte W01
	.byte 16 @ VOL
	.byte W01
	.byte 14 @ VOL
	.byte W01
	.byte 12 @ VOL
	.byte W01
	.byte 11 @ VOL
	.byte W01
	.byte 8 @ VOL
	.byte W01
	.byte 7 @ VOL
	.byte W01
	.byte 5 @ VOL
	.byte W01
	.byte 3 @ VOL
	.byte W01
	.byte 1 @ VOL
	.byte W01
	.byte EOT @ Gn2, v092
	.byte VOL, 0
	.byte W24
	.byte VOICE, 10
	.byte VOL, 94
	.byte N06, An0, v100
	.byte W12
	.byte An0, v096 @ N06
	.byte W36
	.byte N12, An0, v108
	.byte W36
	.byte N06, An0, v127
	.byte W60
	.byte W48
	.byte An0, v100 @ N06
	.byte W12
	.byte An0, v096 @ N06
	.byte W24
	.byte N12, An1, v127
	.byte W12
	.byte N36, Dn1 @ v127
	.byte W36
	.byte N36 @ Dn1, v127
	.byte W48
	.byte N12, An1 @ v127
	.byte W12
	.byte N36, Dn1 @ v127
	.byte W36
	.byte N36 @ Dn1, v127
	.byte W48
	.byte N15, Gs1 @ v127
	.byte W12
	.byte N36, Dn1 @ v127
	.byte W36
	.byte N36 @ Dn1, v127
	.byte W48
	.byte N15, Gs1, v120
	.byte W12
	.byte N36, Dn1, v127
	.byte W36
	.byte N36 @ Dn1, v127
	.byte W48
	.byte N12, As1, v100
	.byte W12
	.byte N72, An0, v108
	.byte W84
	.byte N12, An1, v100
	.byte W12
	.byte W06
	.byte N06, An0, v076
	.byte W18
	.byte N12, An0, v116
	.byte W12
	.byte N48, As0, v084
	.byte W60
	.byte PATT
		.word track_9_lbl_25cd1f
	.byte PATT
		.word track_9_lbl_25cd2c
	.byte VOICE, 12
	.byte VOL, 22
	.byte PAN, c_v-4
	.byte TIE, An1, v076
	.byte W03
	.byte VOL, 24
	.byte W01
	.byte 25 @ VOL
	.byte W01
	.byte 27 @ VOL
	.byte W01
	.byte 28 @ VOL
	.byte W01
	.byte 29 @ VOL
	.byte W01
	.byte 31 @ VOL
	.byte W01
	.byte 33 @ VOL
	.byte W01
	.byte 34 @ VOL
	.byte W01
	.byte 36 @ VOL
	.byte W01
	.byte 37 @ VOL
	.byte W01
	.byte 38 @ VOL
	.byte W01
	.byte 40 @ VOL
	.byte W01
	.byte 41 @ VOL
	.byte W01
	.byte 43 @ VOL
	.byte W01
	.byte 44 @ VOL
	.byte W01
	.byte 45 @ VOL
	.byte W01
	.byte 47 @ VOL
	.byte W01
	.byte 48 @ VOL
	.byte W01
	.byte 50 @ VOL
	.byte W01
	.byte 51 @ VOL
	.byte W01
	.byte 53 @ VOL
	.byte W01
	.byte 55 @ VOL
	.byte W01
	.byte 55 @ VOL
	.byte W01
	.byte 57 @ VOL
	.byte W01
	.byte 59 @ VOL
	.byte W01
	.byte 60 @ VOL
	.byte W01
	.byte 62 @ VOL
	.byte W01
	.byte 63 @ VOL
	.byte W01
	.byte 64 @ VOL
	.byte W01
	.byte 66 @ VOL
	.byte W01
	.byte 67 @ VOL
	.byte W01
	.byte 69 @ VOL
	.byte W01
	.byte 70 @ VOL
	.byte W60
	.byte W01
	.byte W48
	.byte EOT @ An1, v076
	.byte N48, As1 @ v076
	.byte W48
	.byte N96, Gn1, v060
	.byte W96
	.byte VOL, 78
	.byte N54, As0, v127
	.byte W60
	.byte N36, Cn1 @ v127
	.byte W36
	.byte TIE, An0 @ v127
	.byte W96
	.byte W32
	.byte W01
	.byte VOL, 75
	.byte W01
	.byte 74 @ VOL
	.byte W01
	.byte 73 @ VOL
	.byte W01
	.byte 72 @ VOL
	.byte W01
	.byte 71 @ VOL
	.byte W01
	.byte 70 @ VOL
	.byte W01
	.byte 69 @ VOL
	.byte W01
	.byte 68 @ VOL
	.byte W01
	.byte 66 @ VOL
	.byte W01
	.byte 66 @ VOL
	.byte W01
	.byte 65 @ VOL
	.byte W01
	.byte 63 @ VOL
	.byte W01
	.byte 62 @ VOL
	.byte W01
	.byte 62 @ VOL
	.byte W01
	.byte 60 @ VOL
	.byte W01
	.byte 59 @ VOL
	.byte W01
	.byte 59 @ VOL
	.byte W01
	.byte 57 @ VOL
	.byte W01
	.byte 56 @ VOL
	.byte W01
	.byte 55 @ VOL
	.byte W01
	.byte 54 @ VOL
	.byte W01
	.byte 53 @ VOL
	.byte W01
	.byte 52 @ VOL
	.byte W01
	.byte 51 @ VOL
	.byte W01
	.byte 50 @ VOL
	.byte W01
	.byte 49 @ VOL
	.byte W01
	.byte 48 @ VOL
	.byte W01
	.byte 47 @ VOL
	.byte W01
	.byte 45 @ VOL
	.byte W01
	.byte 44 @ VOL
	.byte W01
	.byte 44 @ VOL
	.byte W01
	.byte 42 @ VOL
	.byte W01
	.byte 41 @ VOL
	.byte W01
	.byte 40 @ VOL
	.byte W01
	.byte 39 @ VOL
	.byte W01
	.byte 38 @ VOL
	.byte W01
	.byte 37 @ VOL
	.byte W01
	.byte 36 @ VOL
	.byte W01
	.byte 35 @ VOL
	.byte W01
	.byte 34 @ VOL
	.byte W01
	.byte 33 @ VOL
	.byte W01
	.byte 32 @ VOL
	.byte W01
	.byte 31 @ VOL
	.byte W01
	.byte 29 @ VOL
	.byte W01
	.byte 29 @ VOL
	.byte W01
	.byte 28 @ VOL
	.byte W01
	.byte 26 @ VOL
	.byte W01
	.byte 25 @ VOL
	.byte W01
	.byte 25 @ VOL
	.byte W01
	.byte 23 @ VOL
	.byte W01
	.byte 22 @ VOL
	.byte W01
	.byte 22 @ VOL
	.byte W01
	.byte 20 @ VOL
	.byte W01
	.byte 19 @ VOL
	.byte W01
	.byte 18 @ VOL
	.byte W01
	.byte 17 @ VOL
	.byte W01
	.byte 16 @ VOL
	.byte W01
	.byte 15 @ VOL
	.byte W01
	.byte 14 @ VOL
	.byte W01
	.byte 13 @ VOL
	.byte W01
	.byte 12 @ VOL
	.byte W01
	.byte 11 @ VOL
	.byte W02
	.byte EOT @ An0, v127
	.byte VOICE, 17
	.byte VOL, 100
	.byte TIE, As2, v100
	.byte W72
	.byte W02
	.byte VOL, 92
	.byte W01
	.byte 90 @ VOL
	.byte W01
	.byte 88 @ VOL
	.byte W01
	.byte 86 @ VOL
	.byte W01
	.byte 84 @ VOL
	.byte W01
	.byte 82 @ VOL
	.byte W01
	.byte 80 @ VOL
	.byte W01
	.byte 78 @ VOL
	.byte W01
	.byte 76 @ VOL
	.byte W01
	.byte 74 @ VOL
	.byte W01
	.byte 72 @ VOL
	.byte W01
	.byte 70 @ VOL
	.byte W01
	.byte 68 @ VOL
	.byte W01
	.byte 66 @ VOL
	.byte W01
	.byte 64 @ VOL
	.byte W01
	.byte 62 @ VOL
	.byte W01
	.byte 60 @ VOL
	.byte W01
	.byte 58 @ VOL
	.byte W01
	.byte 56 @ VOL
	.byte W01
	.byte 54 @ VOL
	.byte W01
	.byte 52 @ VOL
	.byte W01
	.byte 50 @ VOL
	.byte W01
	.byte 48 @ VOL
	.byte W01
	.byte 46 @ VOL
	.byte W01
	.byte 44 @ VOL
	.byte W01
	.byte 42 @ VOL
	.byte W01
	.byte 40 @ VOL
	.byte W01
	.byte 38 @ VOL
	.byte W01
	.byte 37 @ VOL
	.byte W01
	.byte 34 @ VOL
	.byte W01
	.byte 33 @ VOL
	.byte W01
	.byte 30 @ VOL
	.byte W01
	.byte 29 @ VOL
	.byte W01
	.byte 26 @ VOL
	.byte W01
	.byte 24 @ VOL
	.byte W01
	.byte 22 @ VOL
	.byte W01
	.byte 20 @ VOL
	.byte W01
	.byte 18 @ VOL
	.byte W01
	.byte 16 @ VOL
	.byte W01
	.byte 14 @ VOL
	.byte W01
	.byte 12 @ VOL
	.byte W01
	.byte 11 @ VOL
	.byte W01
	.byte 8 @ VOL
	.byte W01
	.byte 7 @ VOL
	.byte W01
	.byte 4 @ VOL
	.byte W01
	.byte 3 @ VOL
	.byte W01
	.byte EOT @ As2, v100
	.byte VOL, 0
	.byte W72
	.byte VOICE, 10
	.byte VOL, 94
	.byte PAN, c_v
	.byte N72, An0, v096
	.byte W84
	.byte N12, An1 @ v096
	.byte W12
	.byte W08
	.byte N06, En1, v088
	.byte W04
	.byte N05, Gn1, v092
	.byte W06
	.byte N06, An1, v116
	.byte W06
	.byte N12, An0, v127
	.byte W18
	.byte N48, An0, v092
	.byte W54
	.byte N08, An0, v124
	.byte W36
	.byte N36 @ An0, v124
	.byte W48
	.byte N12, An1, v100
	.byte W12
	.byte N48, An0, v116
	.byte W60
	.byte N24, Gn0, v127
	.byte W24
	.byte BEND, c_v
	.byte W12
track_9_lbl_25cf8d:
	.byte N72, An0, v116
	.byte W84
	.byte N12, An1, v072
	.byte W12
	.byte PEND
track_9_lbl_25cf96:
	.byte W08
	.byte N04, En1, v088
	.byte W04
	.byte N05, Gn1, v092
	.byte W06
	.byte N06, An1, v116
	.byte W06
	.byte N12, An0, v127
	.byte W18
	.byte N24, An0, v092
	.byte W54
	.byte PEND
track_9_lbl_25cfac:
	.byte N08, An0, v124
	.byte W36
	.byte N36 @ An0, v124
	.byte W48
	.byte N10, Gn0, v080
	.byte W12
	.byte PEND
track_9_lbl_25cfb7:
	.byte W12
	.byte N60, An0, v116
	.byte W72
	.byte N06, An0, v100
	.byte W12
	.byte PEND
	.byte N72, An0, v096
	.byte W84
	.byte N12, As0, v088
	.byte W12
	.byte W12
	.byte N05, An0, v092
	.byte W12
	.byte N06, An0, v127
	.byte W12
	.byte An0, v092 @ N06
	.byte W60
	.byte N72, An0, v096
	.byte W84
	.byte N12, An1, v076
	.byte W12
	.byte W12
	.byte Gn1, v064 @ N12
	.byte W12
	.byte N06, An1, v048
	.byte W24
	.byte N12, Dn1, v080
	.byte W12
	.byte N08, Ds1, v076
	.byte W12
	.byte En1, v080 @ N08
	.byte W24
	.byte PATT
		.word track_9_lbl_25cf8d
	.byte W08
	.byte N06, En1, v088
	.byte W04
	.byte N05, Gn1, v092
	.byte W06
	.byte N06, An1, v116
	.byte W06
	.byte N12, An0, v127
	.byte W18
	.byte N24, An0, v092
	.byte W54
	.byte PATT
		.word track_9_lbl_25cfac
	.byte PATT
		.word track_9_lbl_25cfb7
	.byte N08, An0, v124
	.byte W36
	.byte N36 @ An0, v124
	.byte W48
	.byte N12, Gn0, v100
	.byte W12
	.byte W12
	.byte N24, An0, v116
	.byte W48
	.byte N06, En1, v080
	.byte W24
	.byte N72, An0, v116
	.byte W12
	.byte W84
	.byte N12, An1, v072
	.byte W12
	.byte PATT
		.word track_9_lbl_25cf96
	.byte PATT
		.word track_9_lbl_25cfac
	.byte W12
	.byte N60, An0, v116
	.byte W72
	.byte N18, An0, v100
	.byte W12
	.byte W36
	.byte N32, An0, v124
	.byte W36
	.byte N24, An0, v080
	.byte W24
	.byte W48
	.byte N08, Gn0, v096
	.byte W12
	.byte N10, Gn0, v104
	.byte W36
	.byte W60
	.byte VOICE, 3
	.byte VOL, 94
	.byte N12, Fs3, v016
	.byte W24
	.byte VOICE, 10
	.byte VOL, 94
	.byte N12, An1, v092
	.byte W12
	.byte W12
	.byte N06, An0, v120
	.byte W84
	.byte PATT
		.word track_9_lbl_25cb89
	.byte PATT
		.word track_9_lbl_25cb94
	.byte PATT
		.word track_9_lbl_25cbc7
	.byte VOICE, 9
	.byte VOL, 94
	.byte PAN, c_v+16
	.byte BENDR, 12
	.byte N84, An2, v127
	.byte W01
	.byte VOL, 66
	.byte W01
	.byte 70 @ VOL
	.byte W01
	.byte 72 @ VOL
	.byte W01
	.byte 75 @ VOL
	.byte W01
	.byte 77 @ VOL
	.byte W01
	.byte 77 @ VOL
	.byte W01
	.byte 78 @ VOL
	.byte W02
	.byte 80 @ VOL
	.byte W03
	.byte 81 @ VOL
	.byte W05
	.byte 80 @ VOL
	.byte W08
	.byte 78 @ VOL
	.byte W03
	.byte 77 @ VOL
	.byte W02
	.byte 77 @ VOL
	.byte W03
	.byte 75 @ VOL
	.byte W03
	.byte 74 @ VOL
	.byte W02
	.byte 73 @ VOL
	.byte W01
	.byte 74 @ VOL
	.byte W02
	.byte 74 @ VOL
	.byte W01
	.byte 75 @ VOL
	.byte W01
	.byte 76 @ VOL
	.byte W02
	.byte 77 @ VOL
	.byte W01
	.byte 77 @ VOL
	.byte W02
	.byte 78 @ VOL
	.byte W01
	.byte 79 @ VOL
	.byte W01
	.byte 80 @ VOL
	.byte W02
	.byte 81 @ VOL
	.byte W01
	.byte 81 @ VOL
	.byte W01
	.byte 82 @ VOL
	.byte W01
	.byte 82 @ VOL
	.byte W01
	.byte 83 @ VOL
	.byte W01
	.byte 84 @ VOL
	.byte W01
	.byte 85 @ VOL
	.byte W01
	.byte 85 @ VOL
	.byte W01
	.byte 85 @ VOL
	.byte W01
	.byte 86 @ VOL
	.byte W01
	.byte 87 @ VOL
	.byte W02
	.byte 88 @ VOL
	.byte W01
	.byte 88 @ VOL
	.byte W01
	.byte 89 @ VOL
	.byte W01
	.byte 89 @ VOL
	.byte W01
	.byte 90 @ VOL
	.byte W01
	.byte 91 @ VOL
	.byte W01
	.byte 92 @ VOL
	.byte W02
	.byte 92 @ VOL
	.byte W01
	.byte 93 @ VOL
	.byte W01
	.byte 94 @ VOL
	.byte W02
	.byte 95 @ VOL
	.byte W01
	.byte 96 @ VOL
	.byte W01
	.byte 96 @ VOL
	.byte W02
	.byte 97 @ VOL
	.byte W01
	.byte 98 @ VOL
	.byte W01
	.byte 99 @ VOL
	.byte W02
	.byte N96 @ An2, v127
	.byte W12
	.byte PATT
		.word track_9_lbl_25cc46
	.byte PATT
		.word track_9_lbl_25cca3
	.byte GOTO
		.word track_9_lbl_25cd05
	.byte FINE

track_9_3:
	.byte KEYSH, 0
	.byte PAN, c_v
	.byte PRIO, 30
	.byte W96
	.byte W96
	.byte VOICE, 17
	.byte VOL, 94
	.byte TIE, Gn2, v060
	.byte W72
	.byte W02
	.byte VOL, 92
	.byte W01
	.byte 90 @ VOL
	.byte W01
	.byte 88 @ VOL
	.byte W01
	.byte 86 @ VOL
	.byte W01
	.byte 84 @ VOL
	.byte W01
	.byte 82 @ VOL
	.byte W01
	.byte 80 @ VOL
	.byte W01
	.byte 78 @ VOL
	.byte W01
	.byte 76 @ VOL
	.byte W01
	.byte 74 @ VOL
	.byte W01
	.byte 72 @ VOL
	.byte W01
	.byte 70 @ VOL
	.byte W01
	.byte 68 @ VOL
	.byte W01
	.byte 66 @ VOL
	.byte W01
	.byte 64 @ VOL
	.byte W01
	.byte 62 @ VOL
	.byte W01
	.byte 60 @ VOL
	.byte W01
	.byte 58 @ VOL
	.byte W01
	.byte 56 @ VOL
	.byte W01
	.byte 54 @ VOL
	.byte W01
	.byte 52 @ VOL
	.byte W01
	.byte 50 @ VOL
	.byte W01
	.byte 48 @ VOL
	.byte W01
	.byte 46 @ VOL
	.byte W01
	.byte 44 @ VOL
	.byte W01
	.byte 42 @ VOL
	.byte W01
	.byte 40 @ VOL
	.byte W01
	.byte 38 @ VOL
	.byte W01
	.byte 37 @ VOL
	.byte W01
	.byte 34 @ VOL
	.byte W01
	.byte 33 @ VOL
	.byte W01
	.byte 30 @ VOL
	.byte W01
	.byte 29 @ VOL
	.byte W01
	.byte 26 @ VOL
	.byte W01
	.byte 24 @ VOL
	.byte W01
	.byte 22 @ VOL
	.byte W01
	.byte 20 @ VOL
	.byte W01
	.byte 18 @ VOL
	.byte W01
	.byte 16 @ VOL
	.byte W01
	.byte 14 @ VOL
	.byte W01
	.byte 12 @ VOL
	.byte W01
	.byte 11 @ VOL
	.byte W01
	.byte 8 @ VOL
	.byte W01
	.byte 7 @ VOL
	.byte W01
	.byte 4 @ VOL
	.byte W01
	.byte 3 @ VOL
	.byte W01
	.byte EOT @ Gn2, v060
	.byte VOL, 0
	.byte W36
	.byte VOICE, 3
	.byte VOL, 31
	.byte N12, Fs3, v016
	.byte W24
	.byte N12 @ Fs3, v016
	.byte W12
track_9_lbl_25d17d:
	.byte W12
	.byte N12, Fs3, v020
	.byte W24
	.byte N12 @ Fs3, v020
	.byte W24
	.byte Fs3, v016 @ N12
	.byte W24
	.byte N12 @ Fs3, v016
	.byte W12
	.byte PEND
	.byte PATT
		.word track_9_lbl_25d17d
	.byte W96
	.byte W24
	.byte VOL, 0
	.byte W72
	.byte W96
	.byte W96
track_9_lbl_25d196:
	.byte W48
	.byte VOICE, 18
	.byte VOL, 10
	.byte PAN, c_v
	.byte N84, Gn2, v060
	.byte W04
	.byte VOL, 14
	.byte W01
	.byte 18 @ VOL
	.byte W01
	.byte 23 @ VOL
	.byte W01
	.byte 28 @ VOL
	.byte W01
	.byte 33 @ VOL
	.byte W01
	.byte 37 @ VOL
	.byte W01
	.byte 41 @ VOL
	.byte W01
	.byte 46 @ VOL
	.byte W01
	.byte 51 @ VOL
	.byte W01
	.byte 55 @ VOL
	.byte W01
	.byte 60 @ VOL
	.byte W01
	.byte 65 @ VOL
	.byte W01
	.byte 69 @ VOL
	.byte W01
	.byte 74 @ VOL
	.byte W30
	.byte W01
	.byte PEND
	.byte W96
track_9_lbl_25d1c1:
	.byte W48
	.byte VOL, 5
	.byte N48, Gn2, v060
	.byte W03
	.byte VOL, 10
	.byte W01
	.byte 14 @ VOL
	.byte W01
	.byte 18 @ VOL
	.byte W01
	.byte 23 @ VOL
	.byte W01
	.byte 28 @ VOL
	.byte W01
	.byte 33 @ VOL
	.byte W01
	.byte 37 @ VOL
	.byte W01
	.byte 41 @ VOL
	.byte W01
	.byte 46 @ VOL
	.byte W01
	.byte 51 @ VOL
	.byte W01
	.byte 55 @ VOL
	.byte W01
	.byte 60 @ VOL
	.byte W01
	.byte 65 @ VOL
	.byte W01
	.byte 69 @ VOL
	.byte W01
	.byte 74 @ VOL
	.byte W30
	.byte W01
	.byte PEND
	.byte W96
track_9_lbl_25d1ea:
	.byte W48
	.byte TIE, Gn2, v060
	.byte W03
	.byte VOL, 10
	.byte W01
	.byte 14 @ VOL
	.byte W01
	.byte 18 @ VOL
	.byte W01
	.byte 23 @ VOL
	.byte W01
	.byte 28 @ VOL
	.byte W01
	.byte 33 @ VOL
	.byte W01
	.byte 37 @ VOL
	.byte W01
	.byte 41 @ VOL
	.byte W01
	.byte 46 @ VOL
	.byte W01
	.byte 51 @ VOL
	.byte W36
	.byte PEND
track_9_lbl_25d205:
	.byte W24
	.byte VOL, 50
	.byte W01
	.byte 48 @ VOL
	.byte W01
	.byte 48 @ VOL
	.byte W01
	.byte 46 @ VOL
	.byte W01
	.byte 45 @ VOL
	.byte W01
	.byte 44 @ VOL
	.byte W01
	.byte 43 @ VOL
	.byte W01
	.byte 41 @ VOL
	.byte W01
	.byte 40 @ VOL
	.byte W01
	.byte 39 @ VOL
	.byte W01
	.byte 38 @ VOL
	.byte W01
	.byte 37 @ VOL
	.byte W01
	.byte 36 @ VOL
	.byte W01
	.byte 34 @ VOL
	.byte W01
	.byte 33 @ VOL
	.byte W01
	.byte 32 @ VOL
	.byte W01
	.byte 31 @ VOL
	.byte W01
	.byte 29 @ VOL
	.byte W01
	.byte 29 @ VOL
	.byte W01
	.byte 27 @ VOL
	.byte W01
	.byte 26 @ VOL
	.byte W01
	.byte 25 @ VOL
	.byte W01
	.byte 24 @ VOL
	.byte W01
	.byte 22 @ VOL
	.byte W01
	.byte 22 @ VOL
	.byte W01
	.byte 20 @ VOL
	.byte W01
	.byte 19 @ VOL
	.byte W01
	.byte 18 @ VOL
	.byte W01
	.byte 17 @ VOL
	.byte W01
	.byte 15 @ VOL
	.byte W01
	.byte 14 @ VOL
	.byte W01
	.byte 13 @ VOL
	.byte W01
	.byte 12 @ VOL
	.byte W01
	.byte 11 @ VOL
	.byte W01
	.byte 9 @ VOL
	.byte W01
	.byte 8 @ VOL
	.byte W01
	.byte EOT @ Gn2, v060
	.byte VOL, 7
	.byte W36
	.byte PEND
	.byte W96
	.byte W96
	.byte VOICE, 9
	.byte VOL, 62
	.byte BEND, c_v
	.byte N03, Dn4, v060
	.byte W06
	.byte Dn3 @ N03, v060
	.byte W06
	.byte Dn4 @ N03, v060
	.byte W06
	.byte N03 @ Dn4, v060
	.byte W18
	.byte Dn3 @ N03, v060
	.byte W12
	.byte N03 @ Dn3, v060
	.byte W06
	.byte N03 @ Dn3, v060
	.byte W06
	.byte Dn4 @ N03, v060
	.byte W06
	.byte N03 @ Dn4, v060
	.byte W18
	.byte Dn3 @ N03, v060
	.byte W12
	.byte Dn4 @ N03, v060
	.byte W06
	.byte Dn3 @ N03, v060
	.byte W06
	.byte Dn4 @ N03, v060
	.byte W06
	.byte N03 @ Dn4, v060
	.byte W18
	.byte Dn3 @ N03, v060
	.byte W12
	.byte N03 @ Dn3, v060
	.byte W06
	.byte N03 @ Dn3, v060
	.byte W06
	.byte Dn4 @ N03, v060
	.byte W03
	.byte BEND, c_v+2
	.byte W02
	.byte c_v+3 @ BEND
	.byte W01
	.byte N03 @ Dn4, v060
	.byte W02
	.byte BEND, c_v+4
	.byte W02
	.byte c_v+5 @ BEND
	.byte W03
	.byte c_v+6 @ BEND
	.byte W03
	.byte c_v+7 @ BEND
	.byte W03
	.byte c_v+8 @ BEND
	.byte W03
	.byte c_v+9 @ BEND
	.byte W02
	.byte c_v+10 @ BEND
	.byte N03, Dn3 @ v060
	.byte W03
	.byte BEND, c_v+11
	.byte W03
	.byte c_v+12 @ BEND
	.byte W03
	.byte c_v+13 @ BEND
	.byte W03
	.byte c_v+14 @ BEND
	.byte N03, Dn4 @ v060
	.byte W02
	.byte BEND, c_v+15
	.byte W03
	.byte c_v+16 @ BEND
	.byte W01
	.byte N03, Dn3 @ v060
	.byte W02
	.byte BEND, c_v+17
	.byte W03
	.byte c_v+18 @ BEND
	.byte W01
	.byte N03, Dn4, v056
	.byte W02
	.byte BEND, c_v+19
	.byte W02
	.byte c_v+20 @ BEND
	.byte W02
	.byte N03 @ Dn4, v056
	.byte W01
	.byte BEND, c_v+21
	.byte W03
	.byte c_v+22 @ BEND
	.byte W03
	.byte c_v+23 @ BEND
	.byte W03
	.byte c_v+24 @ BEND
	.byte W02
	.byte c_v+25 @ BEND
	.byte W03
	.byte c_v+26 @ BEND
	.byte W03
	.byte c_v+27 @ BEND
	.byte N03, Dn3, v048
	.byte W03
	.byte BEND, c_v+28
	.byte W03
	.byte c_v+29 @ BEND
	.byte W02
	.byte c_v+30 @ BEND
	.byte W03
	.byte c_v+31 @ BEND
	.byte W01
	.byte N03, Dn3, v044
	.byte W02
	.byte BEND, c_v+32
	.byte W03
	.byte c_v+33 @ BEND
	.byte W01
	.byte N03 @ Dn3, v044
	.byte W02
	.byte BEND, c_v+34
	.byte W02
	.byte c_v+35 @ BEND
	.byte W02
	.byte N03, Dn4, v040
	.byte W01
	.byte BEND, c_v+36
	.byte W03
	.byte c_v+37 @ BEND
	.byte W02
	.byte N03 @ Dn4, v040
	.byte W01
	.byte BEND, c_v+38
	.byte W03
	.byte c_v+39 @ BEND
	.byte W02
	.byte c_v+40 @ BEND
	.byte W03
	.byte c_v+41 @ BEND
	.byte W03
	.byte c_v+42 @ BEND
	.byte W03
	.byte c_v+43 @ BEND
	.byte W03
	.byte c_v+44 @ BEND
	.byte N03, Dn3, v032
	.byte W02
	.byte BEND, c_v+45
	.byte W03
	.byte c_v+46 @ BEND
	.byte W03
	.byte c_v+47 @ BEND
	.byte W03
	.byte c_v+48 @ BEND
	.byte W01
	.byte c_v @ BEND
	.byte W96
	.byte W48
	.byte VOICE, 18
	.byte VOL, 10
	.byte N96, Gn2, v060
	.byte W04
	.byte VOL, 14
	.byte W01
	.byte 18 @ VOL
	.byte W01
	.byte 23 @ VOL
	.byte W01
	.byte 28 @ VOL
	.byte W01
	.byte 33 @ VOL
	.byte W01
	.byte 37 @ VOL
	.byte W01
	.byte 41 @ VOL
	.byte W01
	.byte 46 @ VOL
	.byte W01
	.byte 51 @ VOL
	.byte W01
	.byte 55 @ VOL
	.byte W01
	.byte 60 @ VOL
	.byte W01
	.byte 65 @ VOL
	.byte W01
	.byte 69 @ VOL
	.byte W01
	.byte 74 @ VOL
	.byte W30
	.byte W01
	.byte W96
	.byte PATT
		.word track_9_lbl_25d1c1
	.byte W96
	.byte W96
	.byte W96
	.byte W96
	.byte W96
	.byte W96
	.byte W96
	.byte W96
	.byte W96
	.byte W96
	.byte W96
	.byte W96
	.byte W96
	.byte VOICE, 12
	.byte VOL, 11
	.byte PAN, c_v+16
	.byte TIE, An2, v020
	.byte W03
	.byte VOL, 24
	.byte W02
	.byte 25 @ VOL
	.byte W04
	.byte 26 @ VOL
	.byte W04
	.byte 28 @ VOL
	.byte W04
	.byte 29 @ VOL
	.byte W04
	.byte 31 @ VOL
	.byte W04
	.byte 33 @ VOL
	.byte W04
	.byte 34 @ VOL
	.byte W04
	.byte 36 @ VOL
	.byte W04
	.byte 37 @ VOL
	.byte W04
	.byte 39 @ VOL
	.byte W04
	.byte 40 @ VOL
	.byte W04
	.byte 42 @ VOL
	.byte W04
	.byte 44 @ VOL
	.byte W04
	.byte 45 @ VOL
	.byte W03
	.byte 47 @ VOL
	.byte W04
	.byte 48 @ VOL
	.byte W04
	.byte 50 @ VOL
	.byte W04
	.byte 51 @ VOL
	.byte W04
	.byte 53 @ VOL
	.byte W04
	.byte 55 @ VOL
	.byte W04
	.byte 56 @ VOL
	.byte W04
	.byte 58 @ VOL
	.byte W04
	.byte 59 @ VOL
	.byte W04
	.byte 61 @ VOL
	.byte W02
	.byte 62 @ VOL
	.byte W02
	.byte 62 @ VOL
	.byte W04
	.byte 64 @ VOL
	.byte W04
	.byte 66 @ VOL
	.byte W04
	.byte 67 @ VOL
	.byte W03
	.byte 69 @ VOL
	.byte W04
	.byte 70 @ VOL
	.byte W04
	.byte 72 @ VOL
	.byte W04
	.byte 74 @ VOL
	.byte W04
	.byte 75 @ VOL
	.byte W04
	.byte 77 @ VOL
	.byte W04
	.byte 78 @ VOL
	.byte W04
	.byte 80 @ VOL
	.byte W01
	.byte EOT @ An2, v020
	.byte W03
	.byte VOL, 81
	.byte W04
	.byte 83 @ VOL
	.byte W05
	.byte 79 @ VOL
	.byte N12, En3 @ v020
	.byte W01
	.byte VOL, 77
	.byte W01
	.byte 76 @ VOL
	.byte W01
	.byte 74 @ VOL
	.byte W01
	.byte 74 @ VOL
	.byte W01
	.byte 72 @ VOL
	.byte W01
	.byte 70 @ VOL
	.byte W01
	.byte 69 @ VOL
	.byte W01
	.byte 68 @ VOL
	.byte W01
	.byte 66 @ VOL
	.byte W01
	.byte 65 @ VOL
	.byte W01
	.byte 63 @ VOL
	.byte W01
	.byte 62 @ VOL
	.byte W01
	.byte 61 @ VOL
	.byte W01
	.byte 59 @ VOL
	.byte W01
	.byte 58 @ VOL
	.byte W01
	.byte 57 @ VOL
	.byte W01
	.byte 55 @ VOL
	.byte W01
	.byte 54 @ VOL
	.byte W01
	.byte 53 @ VOL
	.byte W01
	.byte 51 @ VOL
	.byte W01
	.byte 50 @ VOL
	.byte W01
	.byte 48 @ VOL
	.byte W01
	.byte 48 @ VOL
	.byte W01
	.byte N48, Dn3 @ v020
	.byte W12
track_9_lbl_25d3de:
	.byte W13
	.byte VOL, 47
	.byte W01
	.byte 46 @ VOL
	.byte W01
	.byte 45 @ VOL
	.byte W01
	.byte 44 @ VOL
	.byte W01
	.byte 43 @ VOL
	.byte W01
	.byte 42 @ VOL
	.byte W01
	.byte 41 @ VOL
	.byte W01
	.byte 40 @ VOL
	.byte W01
	.byte 40 @ VOL
	.byte W01
	.byte 39 @ VOL
	.byte W01
	.byte 37 @ VOL
	.byte W01
	.byte 37 @ VOL
	.byte W01
	.byte 36 @ VOL
	.byte W01
	.byte 35 @ VOL
	.byte W01
	.byte 34 @ VOL
	.byte W01
	.byte 33 @ VOL
	.byte W01
	.byte 33 @ VOL
	.byte W01
	.byte 31 @ VOL
	.byte W01
	.byte 30 @ VOL
	.byte W05
	.byte 47 @ VOL
	.byte N36, Gn2, v020
	.byte W36
	.byte N72, As2 @ v020
	.byte W24
	.byte PEND
	.byte W60
	.byte N12, Cn3, v032
	.byte W15
	.byte VOL, 47
	.byte W01
	.byte 45 @ VOL
	.byte W01
	.byte 44 @ VOL
	.byte W01
	.byte 41 @ VOL
	.byte W01
	.byte 40 @ VOL
	.byte W01
	.byte 38 @ VOL
	.byte W01
	.byte 37 @ VOL
	.byte W01
	.byte 35 @ VOL
	.byte W01
	.byte 33 @ VOL
	.byte W01
	.byte 31 @ VOL
	.byte W01
	.byte 29 @ VOL
	.byte W01
	.byte 28 @ VOL
	.byte W01
	.byte 25 @ VOL
	.byte W01
	.byte 24 @ VOL
	.byte W01
	.byte 22 @ VOL
	.byte W01
	.byte 21 @ VOL
	.byte W01
	.byte 19 @ VOL
	.byte W01
	.byte 17 @ VOL
	.byte W01
	.byte 15 @ VOL
	.byte W01
	.byte 14 @ VOL
	.byte W01
	.byte 12 @ VOL
	.byte W01
	.byte W96
	.byte W96
	.byte W96
	.byte W96
	.byte VOICE, 12
	.byte VOL, 74
	.byte PAN, c_v+6
	.byte TIE, An2, v020
	.byte W03
	.byte VOL, 24
	.byte W02
	.byte 25 @ VOL
	.byte W02
	.byte 25 @ VOL
	.byte W02
	.byte 26 @ VOL
	.byte W02
	.byte 27 @ VOL
	.byte W02
	.byte 28 @ VOL
	.byte W02
	.byte 29 @ VOL
	.byte W02
	.byte 29 @ VOL
	.byte W02
	.byte 30 @ VOL
	.byte W02
	.byte 31 @ VOL
	.byte W02
	.byte 32 @ VOL
	.byte W02
	.byte 33 @ VOL
	.byte W02
	.byte 33 @ VOL
	.byte W02
	.byte 34 @ VOL
	.byte W02
	.byte 35 @ VOL
	.byte W02
	.byte 36 @ VOL
	.byte W02
	.byte 37 @ VOL
	.byte W02
	.byte 37 @ VOL
	.byte W02
	.byte 38 @ VOL
	.byte W02
	.byte 39 @ VOL
	.byte W02
	.byte 40 @ VOL
	.byte W02
	.byte 40 @ VOL
	.byte W02
	.byte 41 @ VOL
	.byte W02
	.byte 42 @ VOL
	.byte W02
	.byte 43 @ VOL
	.byte W02
	.byte 44 @ VOL
	.byte W02
	.byte 44 @ VOL
	.byte W02
	.byte 45 @ VOL
	.byte W01
	.byte 46 @ VOL
	.byte W02
	.byte 47 @ VOL
	.byte W02
	.byte 48 @ VOL
	.byte W02
	.byte 48 @ VOL
	.byte W02
	.byte 49 @ VOL
	.byte W02
	.byte 50 @ VOL
	.byte W02
	.byte 51 @ VOL
	.byte W02
	.byte 51 @ VOL
	.byte W02
	.byte 52 @ VOL
	.byte W02
	.byte 53 @ VOL
	.byte W02
	.byte 54 @ VOL
	.byte W02
	.byte 55 @ VOL
	.byte W02
	.byte 55 @ VOL
	.byte W02
	.byte 56 @ VOL
	.byte W02
	.byte 57 @ VOL
	.byte W02
	.byte 58 @ VOL
	.byte W02
	.byte 59 @ VOL
	.byte W02
	.byte 59 @ VOL
	.byte W02
	.byte 60 @ VOL
	.byte W02
	.byte 61 @ VOL
	.byte W02
	.byte 62 @ VOL
	.byte W02
	.byte 62 @ VOL
	.byte W02
	.byte 63 @ VOL
	.byte W02
	.byte 64 @ VOL
	.byte W02
	.byte 65 @ VOL
	.byte W02
	.byte 66 @ VOL
	.byte W02
	.byte 66 @ VOL
	.byte W02
	.byte 67 @ VOL
	.byte W01
	.byte 68 @ VOL
	.byte W02
	.byte 69 @ VOL
	.byte W02
	.byte 70 @ VOL
	.byte W02
	.byte 70 @ VOL
	.byte W02
	.byte 71 @ VOL
	.byte W02
	.byte 72 @ VOL
	.byte W02
	.byte 73 @ VOL
	.byte W02
	.byte 74 @ VOL
	.byte W02
	.byte 74 @ VOL
	.byte W02
	.byte 75 @ VOL
	.byte W02
	.byte 76 @ VOL
	.byte W02
	.byte 77 @ VOL
	.byte W02
	.byte 77 @ VOL
	.byte W02
	.byte 78 @ VOL
	.byte W02
	.byte 79 @ VOL
	.byte W02
	.byte 80 @ VOL
	.byte W01
	.byte EOT @ An2, v020
	.byte W01
	.byte VOL, 81
	.byte W02
	.byte 81 @ VOL
	.byte W02
	.byte 82 @ VOL
	.byte W02
	.byte 83 @ VOL
	.byte W05
	.byte 79 @ VOL
	.byte N12, En3 @ v020
	.byte W01
	.byte VOL, 77
	.byte W01
	.byte 76 @ VOL
	.byte W01
	.byte 74 @ VOL
	.byte W01
	.byte 74 @ VOL
	.byte W01
	.byte 72 @ VOL
	.byte W01
	.byte 70 @ VOL
	.byte W01
	.byte 69 @ VOL
	.byte W01
	.byte 68 @ VOL
	.byte W01
	.byte 66 @ VOL
	.byte W01
	.byte 65 @ VOL
	.byte W01
	.byte 63 @ VOL
	.byte W01
	.byte 62 @ VOL
	.byte W01
	.byte 61 @ VOL
	.byte W01
	.byte 59 @ VOL
	.byte W01
	.byte 58 @ VOL
	.byte W01
	.byte 57 @ VOL
	.byte W01
	.byte 55 @ VOL
	.byte W01
	.byte 54 @ VOL
	.byte W01
	.byte 53 @ VOL
	.byte W01
	.byte 51 @ VOL
	.byte W01
	.byte 50 @ VOL
	.byte W01
	.byte 48 @ VOL
	.byte W01
	.byte 48 @ VOL
	.byte W01
	.byte N48, Dn3 @ v020
	.byte W12
	.byte PATT
		.word track_9_lbl_25d3de
	.byte W60
	.byte N12, Cn3, v020
	.byte W24
	.byte N60, An2 @ v020
	.byte W12
	.byte W48
	.byte N12, Gn2 @ v020
	.byte W24
	.byte An2 @ N12, v020
	.byte W12
	.byte N60, En2 @ v020
	.byte W12
	.byte W60
	.byte N12, Gn2 @ v020
	.byte W24
	.byte N84, Fn2 @ v020
	.byte W12
	.byte W84
	.byte N60, Dn2, v032
	.byte W12
	.byte W60
	.byte N12, Fn2 @ v032
	.byte W24
	.byte TIE, En2 @ v032
	.byte W12
	.byte W96
	.byte W36
	.byte EOT @ En2, v032
	.byte W60
	.byte W96
	.byte W96
	.byte PATT
		.word track_9_lbl_25d196
	.byte W96
	.byte PATT
		.word track_9_lbl_25d1c1
	.byte W96
	.byte PATT
		.word track_9_lbl_25d1ea
	.byte PATT
		.word track_9_lbl_25d205
	.byte W96
	.byte W96
	.byte GOTO
		.word track_9_lbl_25d196
	.byte FINE

track_9_4:
	.byte KEYSH, 0
	.byte PAN, c_v
	.byte PRIO, 29
	.byte W96
	.byte W96
	.byte W48
	.byte VOICE, 18
	.byte VOL, 5
	.byte N84, Gn2, v060
	.byte W03
	.byte VOL, 10
	.byte W01
	.byte 14 @ VOL
	.byte W01
	.byte 18 @ VOL
	.byte W01
	.byte 23 @ VOL
	.byte W01
	.byte 28 @ VOL
	.byte W01
	.byte 33 @ VOL
	.byte W01
	.byte 37 @ VOL
	.byte W01
	.byte 41 @ VOL
	.byte W01
	.byte 46 @ VOL
	.byte W01
	.byte 51 @ VOL
	.byte W01
	.byte 55 @ VOL
	.byte W01
	.byte 60 @ VOL
	.byte W01
	.byte 65 @ VOL
	.byte W01
	.byte 69 @ VOL
	.byte W01
	.byte 74 @ VOL
	.byte W30
	.byte W01
	.byte W96
	.byte W48
	.byte 5 @ VOL
	.byte N48 @ Gn2, v060
	.byte W03
	.byte VOL, 10
	.byte W01
	.byte 14 @ VOL
	.byte W01
	.byte 18 @ VOL
	.byte W01
	.byte 23 @ VOL
	.byte W01
	.byte 28 @ VOL
	.byte W01
	.byte 33 @ VOL
	.byte W01
	.byte 37 @ VOL
	.byte W01
	.byte 41 @ VOL
	.byte W01
	.byte 46 @ VOL
	.byte W01
	.byte 51 @ VOL
	.byte W01
	.byte 55 @ VOL
	.byte W01
	.byte 60 @ VOL
	.byte W01
	.byte 65 @ VOL
	.byte W01
	.byte 69 @ VOL
	.byte W01
	.byte 74 @ VOL
	.byte W30
	.byte W01
	.byte W96
	.byte W48
	.byte 10 @ VOL
	.byte TIE @ Gn2, v060
	.byte W04
	.byte VOL, 14
	.byte W01
	.byte 18 @ VOL
	.byte W01
	.byte 23 @ VOL
	.byte W01
	.byte 28 @ VOL
	.byte W01
	.byte 33 @ VOL
	.byte W01
	.byte 37 @ VOL
	.byte W01
	.byte 41 @ VOL
	.byte W01
	.byte 46 @ VOL
	.byte W01
	.byte 51 @ VOL
	.byte W36
	.byte W24
	.byte 50 @ VOL
	.byte W01
	.byte 48 @ VOL
	.byte W01
	.byte 48 @ VOL
	.byte W01
	.byte 46 @ VOL
	.byte W01
	.byte 45 @ VOL
	.byte W01
	.byte 44 @ VOL
	.byte W01
	.byte 43 @ VOL
	.byte W01
	.byte 41 @ VOL
	.byte W01
	.byte 40 @ VOL
	.byte W01
	.byte 39 @ VOL
	.byte W01
	.byte 38 @ VOL
	.byte W01
	.byte 37 @ VOL
	.byte W01
	.byte 36 @ VOL
	.byte W01
	.byte 34 @ VOL
	.byte W01
	.byte 33 @ VOL
	.byte W01
	.byte 32 @ VOL
	.byte W01
	.byte 31 @ VOL
	.byte W01
	.byte 29 @ VOL
	.byte W01
	.byte 29 @ VOL
	.byte W01
	.byte 27 @ VOL
	.byte W01
	.byte 26 @ VOL
	.byte W01
	.byte 25 @ VOL
	.byte W01
	.byte 24 @ VOL
	.byte W01
	.byte 22 @ VOL
	.byte W01
	.byte 22 @ VOL
	.byte W01
	.byte 20 @ VOL
	.byte W01
	.byte 19 @ VOL
	.byte W01
	.byte 18 @ VOL
	.byte W01
	.byte 17 @ VOL
	.byte W01
	.byte 15 @ VOL
	.byte W01
	.byte 14 @ VOL
	.byte W01
	.byte 13 @ VOL
	.byte W01
	.byte 12 @ VOL
	.byte W01
	.byte 11 @ VOL
	.byte W01
	.byte 9 @ VOL
	.byte W01
	.byte 8 @ VOL
	.byte W01
	.byte EOT @ Gn2, v060
	.byte VOL, 7
	.byte W36
	.byte W96
	.byte W12
	.byte VOICE, 3
	.byte VOL, 31
	.byte N10, Fs3, v016
	.byte W24
	.byte Fs3, v020 @ N10
	.byte W24
	.byte Fs3, v024 @ N10
	.byte W24
	.byte Fs3, v032 @ N10
	.byte W12
track_9_lbl_25d63a:
	.byte W12
	.byte VOICE, 3
	.byte VOL, 31
	.byte N12, Fs3, v028
	.byte W24
	.byte Fs3, v020 @ N12
	.byte W60
	.byte VOICE, 0
	.byte VOL, 47
	.byte W24
	.byte N06, Cn1, v112
	.byte W24
	.byte Dn1 @ N06, v112
	.byte W12
	.byte Dn1, v040 @ N06
	.byte W36
track_9_lbl_25d654:
	.byte N06, Cn1, v112
	.byte W24
	.byte N06 @ Cn1, v112
	.byte W24
	.byte Dn1 @ N06, v112
	.byte W48
	.byte PEND
track_9_lbl_25d65d:
	.byte W24
	.byte N06, Cn1, v112
	.byte W24
	.byte Dn1 @ N06, v112
	.byte W12
	.byte Dn1, v072 @ N06
	.byte W36
	.byte PEND
track_9_lbl_25d668:
	.byte N06, Cn1, v116
	.byte W36
	.byte Cn1, v108 @ N06
	.byte W24
	.byte Cn1, v104 @ N06
	.byte W36
	.byte PEND
track_9_lbl_25d673:
	.byte W12
	.byte N06, Cn1, v112
	.byte W36
	.byte Cn1, v104 @ N06
	.byte W12
	.byte N06 @ Cn1, v104
	.byte W36
	.byte PEND
track_9_lbl_25d67e:
	.byte N06, Cn1, v104
	.byte W36
	.byte Cn1, v088 @ N06
	.byte W24
	.byte Cn1, v100 @ N06
	.byte W36
	.byte PEND
track_9_lbl_25d689:
	.byte W12
	.byte N06, Cn1, v112
	.byte W36
	.byte Cn1, v100 @ N06
	.byte W12
	.byte Cn1, v112 @ N06
	.byte W36
	.byte PEND
	.byte PATT
		.word track_9_lbl_25d668
	.byte PATT
		.word track_9_lbl_25d673
	.byte PATT
		.word track_9_lbl_25d67e
	.byte PATT
		.word track_9_lbl_25d689
	.byte N06, Cn1, v112
	.byte W24
	.byte N06 @ Cn1, v112
	.byte W24
	.byte Dn1, v080 @ N06
	.byte W48
track_9_lbl_25d6b2:
	.byte W24
	.byte N06, Cn1, v112
	.byte W24
	.byte Dn1 @ N06, v112
	.byte W12
	.byte Dn1, v040 @ N06
	.byte W36
	.byte PEND
	.byte PATT
		.word track_9_lbl_25d654
	.byte PATT
		.word track_9_lbl_25d65d
	.byte N06, Cn1, v116
	.byte W48
	.byte Cn1, v108 @ N06
	.byte W12
	.byte Cn1, v104 @ N06
	.byte W24
	.byte Cn1, v112 @ N06
	.byte W12
track_9_lbl_25d6d4:
	.byte W48
	.byte N06, Cn1, v104
	.byte W12
	.byte N06 @ Cn1, v104
	.byte W36
	.byte PEND
	.byte N06 @ Cn1, v104
	.byte W48
	.byte Cn1, v088 @ N06
	.byte W12
	.byte Cn1, v100 @ N06
	.byte W24
	.byte Cn1, v112 @ N06
	.byte W12
	.byte W48
	.byte Cn1, v100 @ N06
	.byte W12
	.byte N06 @ Cn1, v100
	.byte W36
	.byte PATT
		.word track_9_lbl_25d668
	.byte PATT
		.word track_9_lbl_25d673
	.byte PATT
		.word track_9_lbl_25d668
	.byte PATT
		.word track_9_lbl_25d689
	.byte W96
	.byte W96
	.byte PATT
		.word track_9_lbl_25d654
	.byte PATT
		.word track_9_lbl_25d6b2
track_9_lbl_25d70d:
	.byte VOICE, 0
	.byte VOL, 47
	.byte N06, Cn1, v112
	.byte W12
	.byte N06 @ Cn1, v112
	.byte W36
	.byte Dn1 @ N06, v112
	.byte W48
	.byte PEND
track_9_lbl_25d71a:
	.byte W24
	.byte N06, Cn1, v112
	.byte W24
	.byte Dn1, v060 @ N06
	.byte W12
	.byte Dn1, v052 @ N06
	.byte W36
	.byte PEND
track_9_lbl_25d726:
	.byte N06, Cn1, v112
	.byte W24
	.byte N06 @ Cn1, v112
	.byte W24
	.byte Cn2 @ N06, v112
	.byte W48
	.byte PEND
track_9_lbl_25d72f:
	.byte W24
	.byte N06, Cn1, v112
	.byte W24
	.byte Cn2 @ N06, v112
	.byte W12
	.byte Cn2, v072 @ N06
	.byte W36
	.byte PEND
	.byte PATT
		.word track_9_lbl_25d70d
	.byte PATT
		.word track_9_lbl_25d71a
	.byte PATT
		.word track_9_lbl_25d70d
	.byte W24
	.byte N06, Cn1, v112
	.byte W24
	.byte Dn1, v060 @ N06
	.byte W12
	.byte Dn1, v052 @ N06
	.byte W24
	.byte Cn1, v112 @ N06
	.byte W12
	.byte PATT
		.word track_9_lbl_25d70d
	.byte PATT
		.word track_9_lbl_25d71a
	.byte PATT
		.word track_9_lbl_25d726
	.byte PATT
		.word track_9_lbl_25d72f
	.byte PATT
		.word track_9_lbl_25d654
	.byte PATT
		.word track_9_lbl_25d6b2
	.byte N06, Cn1, v112
	.byte W12
	.byte N06 @ Cn1, v112
	.byte W36
	.byte Dn1 @ N06, v112
	.byte W48
	.byte W24
	.byte Cn1 @ N06, v112
	.byte W24
	.byte Dn1, v060 @ N06
	.byte W48
	.byte PATT
		.word track_9_lbl_25d726
	.byte PATT
		.word track_9_lbl_25d72f
	.byte N06, Cn1, v016
	.byte W24
	.byte N06 @ Cn1, v016
	.byte W24
	.byte Cn2 @ N06, v016
	.byte W48
	.byte W24
	.byte Cn1 @ N06, v016
	.byte W24
	.byte Cn2 @ N06, v016
	.byte W12
	.byte N06 @ Cn2, v016
	.byte W36
	.byte W96
	.byte PATT
		.word track_9_lbl_25d6d4
	.byte N06, Cn1, v104
	.byte W48
	.byte Cn1, v088 @ N06
	.byte W12
	.byte Cn1, v100 @ N06
	.byte W36
	.byte Cn1, v112 @ N06
	.byte W48
	.byte Cn1, v100 @ N06
	.byte W12
	.byte Cn1, v112 @ N06
	.byte W36
	.byte PATT
		.word track_9_lbl_25d668
	.byte PATT
		.word track_9_lbl_25d673
	.byte PATT
		.word track_9_lbl_25d67e
	.byte PATT
		.word track_9_lbl_25d689
	.byte GOTO
		.word track_9_lbl_25d63a
	.byte FINE

track_9_5:
	.byte KEYSH, 0
	.byte VOICE, 3
	.byte VOL, 31
	.byte PAN, c_v
	.byte PRIO, 1
	.byte W12
	.byte N12, Fs3, v032
	.byte W24
	.byte N12 @ Fs3, v032
	.byte W24
	.byte N12 @ Fs3, v032
	.byte W24
	.byte N12 @ Fs3, v032
	.byte W12
	.byte W12
	.byte Fs3, v028 @ N12
	.byte W24
	.byte N12 @ Fs3, v028
	.byte W24
	.byte Fs3, v024 @ N12
	.byte W24
	.byte Fs3, v020 @ N12
	.byte W12
	.byte VOICE, 0
	.byte N06, Cn1, v116
	.byte W12
	.byte VOICE, 3
	.byte N12, Fs3, v020
	.byte W24
	.byte N12 @ Fs3, v020
	.byte W12
	.byte VOICE, 0
	.byte VOL, 47
	.byte N06, Cn1, v108
	.byte W12
	.byte Cn1, v104 @ N06
	.byte W36
	.byte W12
	.byte VOICE, 3
	.byte VOL, 31
	.byte N12, Fs3, v020
	.byte W24
	.byte N12 @ Fs3, v020
	.byte W12
	.byte VOICE, 0
	.byte VOL, 47
	.byte N06, Cn1, v104
	.byte W12
	.byte N06 @ Cn1, v104
	.byte W36
	.byte N06 @ Cn1, v104
	.byte W48
	.byte Cn1, v088 @ N06
	.byte W12
	.byte Cn1, v100 @ N06
	.byte W36
	.byte Cn1, v112 @ N06
	.byte W48
	.byte Cn1, v100 @ N06
	.byte W12
	.byte Cn1, v112 @ N06
	.byte W36
	.byte Fn1, v096 @ N06
	.byte W36
	.byte Fn1, v088 @ N06
	.byte W24
	.byte Fn1, v084 @ N06
	.byte W36
	.byte W12
	.byte Fn1, v092 @ N06
	.byte W36
	.byte Fn1, v084 @ N06
	.byte W12
	.byte N06 @ Fn1, v084
	.byte W36
	.byte N06 @ Fn1, v084
	.byte W36
	.byte Fn1, v068 @ N06
	.byte W24
	.byte Fn1, v080 @ N06
	.byte W36
	.byte W12
	.byte Fn1, v092 @ N06
	.byte W36
	.byte Fn1, v080 @ N06
	.byte W12
	.byte Fn1, v052 @ N06
	.byte W36
track_9_lbl_25d853:
	.byte VOICE, 0
	.byte VOL, 47
	.byte N06, Cn1, v112
	.byte W24
	.byte N06 @ Cn1, v112
	.byte W24
	.byte Dn1 @ N06, v112
	.byte W12
	.byte VOICE, 3
	.byte VOL, 31
	.byte N12, Fs3, v016
	.byte W24
	.byte Fs3, v012 @ N12
	.byte W12
track_9_lbl_25d86a:
	.byte W12
	.byte N12, Fs3, v020
	.byte W24
	.byte N12 @ Fs3, v020
	.byte W24
	.byte Fs3, v016 @ N12
	.byte W24
	.byte N12 @ Fs3, v016
	.byte W12
	.byte PEND
track_9_lbl_25d877:
	.byte N12, Fs3, v016
	.byte W12
	.byte Fs3, v024 @ N12
	.byte W12
	.byte Fs3, v012 @ N12
	.byte W12
	.byte Fs3, v024 @ N12
	.byte W12
	.byte Fs3, v016 @ N12
	.byte W12
	.byte Fs3, v028 @ N12
	.byte W12
	.byte Fs3, v016 @ N12
	.byte W12
	.byte Fs3, v028 @ N12
	.byte W12
	.byte PEND
track_9_lbl_25d891:
	.byte N12, Fs3, v020
	.byte W12
	.byte Fs3, v028 @ N12
	.byte W12
	.byte Fs3, v008 @ N12
	.byte W12
	.byte Fs3, v020 @ N12
	.byte W12
	.byte Fs3, v008 @ N12
	.byte W12
	.byte Fs3, v016 @ N12
	.byte W12
	.byte Fs3, v008 @ N12
	.byte W12
	.byte Fs3, v012 @ N12
	.byte W12
	.byte PEND
	.byte PATT
		.word track_9_lbl_25d891
track_9_lbl_25d8b0:
	.byte N12, Fs3, v008
	.byte W12
	.byte Fs3, v020 @ N12
	.byte W12
	.byte Fs3, v008 @ N12
	.byte W12
	.byte Fs3, v020 @ N12
	.byte W12
	.byte Fs3, v008 @ N12
	.byte W12
	.byte Fs3, v016 @ N12
	.byte W12
	.byte Fs3, v008 @ N12
	.byte W12
	.byte Fs3, v016 @ N12
	.byte W12
	.byte PEND
	.byte PATT
		.word track_9_lbl_25d877
	.byte PATT
		.word track_9_lbl_25d891
	.byte PATT
		.word track_9_lbl_25d891
	.byte PATT
		.word track_9_lbl_25d8b0
	.byte PATT
		.word track_9_lbl_25d877
	.byte PATT
		.word track_9_lbl_25d891
track_9_lbl_25d8e8:
	.byte W12
	.byte N12, Fs3, v028
	.byte W24
	.byte Fs3, v020 @ N12
	.byte W24
	.byte Fs3, v016 @ N12
	.byte W24
	.byte Fs3, v012 @ N12
	.byte W12
	.byte PEND
	.byte PATT
		.word track_9_lbl_25d86a
	.byte PATT
		.word track_9_lbl_25d877
	.byte PATT
		.word track_9_lbl_25d891
	.byte PATT
		.word track_9_lbl_25d8e8
	.byte PATT
		.word track_9_lbl_25d86a
track_9_lbl_25d910:
	.byte W12
	.byte N12, Fs3, v024
	.byte W24
	.byte N12 @ Fs3, v024
	.byte W24
	.byte Fs3, v028 @ N12
	.byte W24
	.byte N12 @ Fs3, v028
	.byte W12
	.byte PEND
	.byte PATT
		.word track_9_lbl_25d8e8
	.byte PATT
		.word track_9_lbl_25d8e8
	.byte PATT
		.word track_9_lbl_25d86a
	.byte PATT
		.word track_9_lbl_25d910
	.byte PATT
		.word track_9_lbl_25d8e8
	.byte PATT
		.word track_9_lbl_25d8e8
track_9_lbl_25d93b:
	.byte W12
	.byte N12, Fs3, v024
	.byte W24
	.byte Fs3, v020 @ N12
	.byte W24
	.byte Fs3, v016 @ N12
	.byte W24
	.byte N12 @ Fs3, v016
	.byte W12
	.byte PEND
	.byte PATT
		.word track_9_lbl_25d910
	.byte PATT
		.word track_9_lbl_25d8e8
track_9_lbl_25d953:
	.byte W12
	.byte VOICE, 3
	.byte N12, Fs3, v028
	.byte W24
	.byte Fs3, v020 @ N12
	.byte W24
	.byte Fs3, v016 @ N12
	.byte W24
	.byte Fs3, v012 @ N12
	.byte W12
	.byte PEND
	.byte PATT
		.word track_9_lbl_25d93b
	.byte PATT
		.word track_9_lbl_25d910
	.byte PATT
		.word track_9_lbl_25d8e8
	.byte PATT
		.word track_9_lbl_25d8e8
	.byte PATT
		.word track_9_lbl_25d93b
	.byte PATT
		.word track_9_lbl_25d8e8
	.byte PATT
		.word track_9_lbl_25d93b
	.byte PATT
		.word track_9_lbl_25d953
	.byte PATT
		.word track_9_lbl_25d93b
	.byte PATT
		.word track_9_lbl_25d910
	.byte PATT
		.word track_9_lbl_25d8e8
	.byte PATT
		.word track_9_lbl_25d910
	.byte PATT
		.word track_9_lbl_25d8e8
	.byte PATT
		.word track_9_lbl_25d953
	.byte PATT
		.word track_9_lbl_25d93b
	.byte PATT
		.word track_9_lbl_25d910
	.byte PATT
		.word track_9_lbl_25d8e8
	.byte W12
	.byte N12, Fs3, v016
	.byte W24
	.byte Fs3, v020 @ N12
	.byte W24
	.byte Fs3, v024 @ N12
	.byte W24
	.byte Fs3, v028 @ N12
	.byte W12
	.byte W12
	.byte N12 @ Fs3, v028
	.byte W24
	.byte Fs3, v024 @ N12
	.byte W24
	.byte Fs3, v020 @ N12
	.byte W24
	.byte Fs3, v016 @ N12
	.byte W12
	.byte VOICE, 0
	.byte VOL, 47
	.byte N06, Cn1, v116
	.byte W12
	.byte VOICE, 3
	.byte VOL, 31
	.byte N12, Fs3, v028
	.byte W24
	.byte Fs3, v020 @ N12
	.byte W12
	.byte VOICE, 0
	.byte VOL, 47
	.byte N06, Cn1, v108
	.byte W12
	.byte Cn1, v104 @ N06
	.byte W24
	.byte VOICE, 3
	.byte VOL, 31
	.byte N12, Fs3, v012
	.byte W12
	.byte W12
	.byte VOICE, 3
	.byte N12, Fs3, v020
	.byte W24
	.byte N12 @ Fs3, v020
	.byte W24
	.byte Fs3, v016 @ N12
	.byte W24
	.byte N12 @ Fs3, v016
	.byte W12
	.byte PATT
		.word track_9_lbl_25d877
	.byte PATT
		.word track_9_lbl_25d891
	.byte PATT
		.word track_9_lbl_25d891
	.byte PATT
		.word track_9_lbl_25d8b0
	.byte PATT
		.word track_9_lbl_25d877
	.byte PATT
		.word track_9_lbl_25d891
	.byte GOTO
		.word track_9_lbl_25d853
	.byte FINE

track_9_6:
	.byte KEYSH, 0
	.byte VOICE, 13
	.byte VOL, 62
	.byte PAN, c_v
	.byte W96
	.byte W96
	.byte TIE, An1, v060
	.byte W96
track_9_lbl_25da39:
	.byte W36
	.byte EOT @ An1, v060
	.byte N48, As1, v060
	.byte W48
	.byte N96, An1 @ v060
	.byte W12
	.byte PEND
	.byte W96
track_9_lbl_25da44:
	.byte W12
	.byte N36, Gn1, v060
	.byte W48
	.byte As1, v064 @ N36
	.byte W36
	.byte PEND
track_9_lbl_25da4d:
	.byte N72, An1, v056
	.byte W96
	.byte PEND
	.byte W96
	.byte W96
	.byte W96
track_9_lbl_25da55:
	.byte TIE, An1, v060
	.byte W96
	.byte PATT
		.word track_9_lbl_25da39
	.byte W96
	.byte PATT
		.word track_9_lbl_25da44
	.byte PATT
		.word track_9_lbl_25da4d
	.byte W96
	.byte W96
	.byte W96
	.byte W96
	.byte W96
	.byte W96
	.byte W96
	.byte TIE, An1, v060
	.byte W96
	.byte PATT
		.word track_9_lbl_25da39
	.byte W96
	.byte W96
	.byte W96
	.byte W96
	.byte W96
	.byte W96
	.byte W96
	.byte W96
	.byte W96
	.byte W96
	.byte W96
	.byte W96
	.byte W96
	.byte W96
	.byte W96
	.byte W96
	.byte W96
	.byte W96
	.byte W96
	.byte W96
	.byte W96
	.byte W96
	.byte W96
	.byte W96
	.byte W96
	.byte W96
	.byte W96
	.byte W96
	.byte W96
	.byte W96
	.byte W96
	.byte W96
	.byte W96
	.byte W96
	.byte W96
	.byte W96
	.byte W96
	.byte W96
	.byte W96
	.byte W96
	.byte W96
	.byte W96
	.byte GOTO
		.word track_9_lbl_25da55
	.byte FINE

.align 2

track_9:
	.byte 7
	.byte 9
	.byte 130
	.byte 128
	.word 0x80a6544
	.word track_9_0
	.word track_9_1
	.word track_9_2
	.word track_9_3
	.word track_9_4
	.word track_9_5
	.word track_9_6

.align 2
