.align 2

.global track_27

track_27_0:
	.byte KEYSH, 0
track_27_lbl_274c16:
	.byte TEMPO, 76
	.byte VOICE, 0
	.byte VOL, 127
	.byte PAN, c_v
	.byte PRIO, 0
	.byte N06, Cn2, v072, 55
	.byte Cn1 @ N06, v072
	.byte W06
	.byte N02, Dn2, v016
	.byte W06
	.byte N06, Cn2, v064
	.byte N02, Dn2, v016
	.byte W06
	.byte N02 @ Dn2, v016
	.byte W06
	.byte N12, An3 @ v016
	.byte W12
	.byte N06, Cn2, v048
	.byte N02, Dn2, v016
	.byte W06
	.byte N06, Gn2, v024
	.byte W06
	.byte N02, Dn2, v016
	.byte W12
	.byte N06, Gn2, v036
	.byte W06
	.byte N02, Dn2, v016
	.byte W06
track_27_lbl_274c4d:
	.byte N06, Cn2, v072
	.byte W06
	.byte N02, Dn2, v016
	.byte W06
	.byte N06, Cn2, v064
	.byte N02, Dn2, v016
	.byte W12
	.byte N06, Gn2, v036
	.byte N12, An3, v016
	.byte W12
	.byte N02, Dn2 @ v016
	.byte W06
	.byte N06, Gn2, v036
	.byte W06
	.byte N02, Dn2, v016
	.byte W06
	.byte N06, Cn2, v048
	.byte W06
	.byte Gn2, v036 @ N06
	.byte N12, An3, v016
	.byte W12
	.byte PEND
track_27_lbl_274c79:
	.byte N06, Cn2, v072, 55
	.byte Cn1 @ N06, v072
	.byte W06
	.byte N02, Dn2, v016
	.byte W06
	.byte N06, Cn2, v064
	.byte N02, Dn2, v016
	.byte W06
	.byte N02 @ Dn2, v016
	.byte W06
	.byte N12, An3 @ v016
	.byte W12
	.byte N06, Cn2, v048
	.byte N02, Dn2, v016
	.byte W06
	.byte N06, Gn2, v024
	.byte W06
	.byte N02, Dn2, v016
	.byte W12
	.byte N06, Gn2, v036
	.byte W06
	.byte N02, Dn2, v016
	.byte W06
	.byte PEND
track_27_lbl_274ca7:
	.byte N06, Cn2, v072
	.byte N02, Dn2, v016
	.byte W06
	.byte N02 @ Dn2, v016
	.byte W06
	.byte N06, Cn2, v064
	.byte N02, Dn2, v016
	.byte W12
	.byte N06, Gn2, v036
	.byte N12, An3, v016
	.byte W12
	.byte N02, Dn2 @ v016
	.byte W06
	.byte N06, Gn2, v036
	.byte W06
	.byte N02, Dn2, v016
	.byte W06
	.byte N06, Cn2, v048
	.byte W06
	.byte Gn2, v036 @ N06
	.byte N12, An3, v016
	.byte W12
	.byte PEND
	.byte PATT
		.word track_27_lbl_274c79
	.byte PATT
		.word track_27_lbl_274c4d
	.byte PATT
		.word track_27_lbl_274c79
track_27_lbl_274ce3:
	.byte N06, Cn2, v072
	.byte N02, Dn2, v016
	.byte W06
	.byte N02 @ Dn2, v016
	.byte W06
	.byte N06, Cn2, v064
	.byte N02, Dn2, v016
	.byte W12
	.byte N06, Gn2, v036
	.byte N12, An3, v016
	.byte W12
	.byte N02, Dn2 @ v016
	.byte W06
	.byte N06, Cn2, v048
	.byte W06
	.byte PRIO, 110
	.byte Gn2, v032 @ N06
	.byte W06
	.byte Gn2, v036 @ N06
	.byte W06
	.byte Gn2, v040 @ N06
	.byte W06
	.byte Gn2, v044 @ N06
	.byte W06
	.byte PEND
	.byte PRIO, 0
	.byte Cn2, v072, 55 @ N06
	.byte Cn1 @ N06, v072
	.byte W06
	.byte N02, Dn2, v016
	.byte W06
	.byte N06, Cn2, v064
	.byte N02, Dn2, v016
	.byte W06
	.byte N02 @ Dn2, v016
	.byte W06
	.byte N12, An3 @ v016
	.byte W12
	.byte N06, Cn2, v048
	.byte N02, Dn2, v016
	.byte W06
	.byte N06, Gn2, v024
	.byte W06
	.byte N02, Dn2, v016
	.byte W12
	.byte N06, Gn2, v036
	.byte W06
	.byte N02, Dn2, v016
	.byte W06
	.byte PATT
		.word track_27_lbl_274c4d
	.byte PATT
		.word track_27_lbl_274c79
	.byte PATT
		.word track_27_lbl_274ca7
	.byte PATT
		.word track_27_lbl_274c79
	.byte PATT
		.word track_27_lbl_274c4d
	.byte PRIO, 110
	.byte N06, Cn2, v072, 55
	.byte Cn1 @ N06, v072
	.byte W06
	.byte N02, Dn2, v016
	.byte W06
	.byte N06, Cn2, v064
	.byte N02, Dn2, v016
	.byte W06
	.byte N02 @ Dn2, v016
	.byte W06
	.byte N12, An3 @ v016
	.byte W12
	.byte N06, Cn2, v048
	.byte N02, Dn2, v016
	.byte W06
	.byte N06, Gn2, v024
	.byte W06
	.byte N02, Dn2, v016
	.byte W12
	.byte N06, Gn2, v036
	.byte W06
	.byte N02, Dn2, v016
	.byte W06
	.byte PATT
		.word track_27_lbl_274ce3
	.byte GOTO
		.word track_27_lbl_274c16
	.byte FINE

track_27_1:
	.byte KEYSH, 0
track_27_lbl_274d93:
	.byte VOICE, 9
	.byte VOL, 127
	.byte PRIO, 0
	.byte W24
	.byte PAN, c_v-1
	.byte PRIO, 110
	.byte N18, Cn3, v076
	.byte W18
	.byte PRIO, 0
	.byte W06
	.byte Cn3, v012 @ N18
	.byte W24
track_27_lbl_274da8:
	.byte W12
	.byte PAN, c_v-14
	.byte PRIO, 110
	.byte N12, Cn3, v048
	.byte W12
	.byte PRIO, 0
	.byte W12
	.byte Cn3, v012 @ N12
	.byte W12
	.byte PAN, c_v-1
	.byte PRIO, 110
	.byte N18, As2, v068
	.byte W18
	.byte PRIO, 0
	.byte W06
	.byte PEND
track_27_lbl_274dc3:
	.byte PRIO, 0
	.byte N18, As2, v012
	.byte W24
	.byte PAN, c_v-1
	.byte PRIO, 110
	.byte N18, Cn3, v076
	.byte W18
	.byte PRIO, 0
	.byte W06
	.byte Cn3, v012 @ N18
	.byte W24
	.byte PEND
	.byte W12
	.byte PAN, c_v+14
	.byte PRIO, 110
	.byte N12, Cn3, v048
	.byte W12
	.byte PRIO, 0
	.byte W12
	.byte Cn3, v012 @ N12
	.byte W12
	.byte PAN, c_v-1
	.byte PRIO, 110
	.byte N18, Cs3, v068
	.byte W18
	.byte PRIO, 0
	.byte W06
	.byte PRIO, 0
	.byte Cs3, v012 @ N18
	.byte W24
	.byte PAN, c_v-1
	.byte PRIO, 110
	.byte N18, Cn3, v076
	.byte W18
	.byte PRIO, 0
	.byte W06
	.byte Cn3, v012 @ N18
	.byte W24
track_27_lbl_274e05:
	.byte W12
	.byte PAN, c_v-14
	.byte PRIO, 110
	.byte N12, Cn3, v048
	.byte W12
	.byte PRIO, 0
	.byte W12
	.byte Cn3, v012 @ N12
	.byte W12
	.byte PAN, c_v-1
	.byte PRIO, 110
	.byte N18, Cn3, v068
	.byte W18
	.byte PRIO, 0
	.byte W06
	.byte PEND
track_27_lbl_274e20:
	.byte PRIO, 0
	.byte N18, Bn2, v012
	.byte W24
	.byte PAN, c_v-1
	.byte PRIO, 110
	.byte N18, Bn2, v076
	.byte W18
	.byte PRIO, 0
	.byte W06
	.byte Bn2, v012 @ N18
	.byte W24
	.byte PEND
track_27_lbl_274e35:
	.byte W12
	.byte PAN, c_v+14
	.byte PRIO, 110
	.byte N12, Bn2, v048
	.byte W12
	.byte PRIO, 0
	.byte W12
	.byte Bn2, v012 @ N12
	.byte W12
	.byte PAN, c_v-1
	.byte PRIO, 110
	.byte N18, Bn2, v068
	.byte W18
	.byte PRIO, 0
	.byte W06
	.byte PEND
	.byte PRIO, 0
	.byte Bn2, v012 @ N18
	.byte W24
	.byte PAN, c_v-1
	.byte PRIO, 110
	.byte N18, Cn3, v076
	.byte W18
	.byte PRIO, 0
	.byte W06
	.byte Cn3, v012 @ N18
	.byte W24
	.byte PATT
		.word track_27_lbl_274da8
	.byte PATT
		.word track_27_lbl_274dc3
	.byte W12
	.byte PAN, c_v+14
	.byte PRIO, 110
	.byte N12, Cn3, v048
	.byte W12
	.byte PRIO, 0
	.byte W12
	.byte Cn3, v012 @ N12
	.byte W12
	.byte PAN, c_v-1
	.byte PRIO, 110
	.byte N18, Ds3, v068
	.byte W18
	.byte PRIO, 0
	.byte W06
	.byte PRIO, 0
	.byte Ds3, v012 @ N18
	.byte W24
	.byte PAN, c_v-1
	.byte PRIO, 110
	.byte N18, Cn3, v076
	.byte W18
	.byte PRIO, 0
	.byte W06
	.byte Cn3, v012 @ N18
	.byte W24
	.byte PATT
		.word track_27_lbl_274e05
	.byte PATT
		.word track_27_lbl_274e20
	.byte PATT
		.word track_27_lbl_274e35
	.byte GOTO
		.word track_27_lbl_274d93
	.byte FINE

track_27_2:
	.byte KEYSH, 0
track_27_lbl_274eb1:
	.byte VOICE, 42
	.byte VOL, 127
	.byte PRIO, 110
	.byte BEND, c_v
	.byte W24
	.byte PAN, c_v-1
	.byte TIE, Cn3, v036
	.byte W01
	.byte PAN, c_v-2
	.byte W01
	.byte c_v-3 @ PAN
	.byte W03
	.byte c_v-4 @ PAN
	.byte W01
	.byte c_v-5 @ PAN
	.byte W01
	.byte c_v-6 @ PAN
	.byte W03
	.byte c_v-7 @ PAN
	.byte W01
	.byte c_v-8 @ PAN
	.byte W01
	.byte c_v-9 @ PAN
	.byte W04
	.byte c_v-10 @ PAN
	.byte W01
	.byte c_v-11 @ PAN
	.byte W01
	.byte c_v-12 @ PAN
	.byte W03
	.byte c_v-13 @ PAN
	.byte W01
	.byte c_v-14 @ PAN
	.byte W01
	.byte c_v-15 @ PAN
	.byte W04
	.byte c_v-16 @ PAN
	.byte W01
	.byte c_v-17 @ PAN
	.byte W01
	.byte c_v-18 @ PAN
	.byte W03
	.byte c_v-19 @ PAN
	.byte W01
	.byte c_v-20 @ PAN
	.byte W01
	.byte c_v-21 @ PAN
	.byte W04
	.byte c_v-22 @ PAN
	.byte W01
	.byte c_v-23 @ PAN
	.byte W01
	.byte c_v-24 @ PAN
	.byte W03
	.byte c_v-25 @ PAN
	.byte W01
	.byte c_v-26 @ PAN
	.byte W01
	.byte c_v-27 @ PAN
	.byte W03
	.byte c_v-28 @ PAN
	.byte W01
	.byte c_v-29 @ PAN
	.byte W01
	.byte c_v-30 @ PAN
	.byte W04
	.byte c_v-31 @ PAN
	.byte W01
	.byte c_v-32 @ PAN
	.byte W01
	.byte c_v-33 @ PAN
	.byte W03
	.byte c_v-34 @ PAN
	.byte W01
	.byte c_v-35 @ PAN
	.byte W01
	.byte c_v-36 @ PAN
	.byte W04
	.byte c_v-37 @ PAN
	.byte W01
	.byte c_v-38 @ PAN
	.byte W01
	.byte c_v-39 @ PAN
	.byte W03
	.byte c_v-40 @ PAN
	.byte W01
	.byte c_v-41 @ PAN
	.byte W01
	.byte c_v-42 @ PAN
	.byte W04
	.byte c_v-43 @ PAN
	.byte W01
	.byte c_v-44 @ PAN
	.byte W01
	.byte c_v-45 @ PAN
	.byte W03
	.byte c_v-46 @ PAN
	.byte W01
	.byte c_v-47 @ PAN
	.byte W01
	.byte c_v-48 @ PAN
	.byte W03
	.byte c_v-49 @ PAN
	.byte W01
	.byte c_v-50 @ PAN
	.byte W01
	.byte c_v-51 @ PAN
	.byte W04
	.byte c_v-52 @ PAN
	.byte W01
	.byte c_v-53 @ PAN
	.byte W01
	.byte c_v-54 @ PAN
	.byte W03
	.byte c_v-55 @ PAN
	.byte W01
	.byte c_v-56 @ PAN
	.byte W01
	.byte c_v-57 @ PAN
	.byte W04
	.byte c_v-58 @ PAN
	.byte W01
	.byte c_v-59 @ PAN
	.byte W01
	.byte c_v-60 @ PAN
	.byte W03
	.byte c_v-61 @ PAN
	.byte W01
	.byte c_v-62 @ PAN
	.byte W01
	.byte c_v-63 @ PAN
	.byte W04
	.byte EOT @ Cn3, v036
	.byte PAN, c_v-64
	.byte W06
	.byte W72
	.byte W72
	.byte W72
	.byte W72
	.byte W24
	.byte c_v-64 @ PAN
	.byte TIE, Bn2 @ v036
	.byte W01
	.byte PAN, c_v-63
	.byte W02
	.byte c_v-62 @ PAN
	.byte W02
	.byte c_v-61 @ PAN
	.byte W02
	.byte c_v-60 @ PAN
	.byte W02
	.byte c_v-59 @ PAN
	.byte W01
	.byte c_v-58 @ PAN
	.byte W02
	.byte c_v-57 @ PAN
	.byte W02
	.byte c_v-56 @ PAN
	.byte W02
	.byte c_v-55 @ PAN
	.byte W02
	.byte c_v-54 @ PAN
	.byte W01
	.byte c_v-53 @ PAN
	.byte W02
	.byte c_v-52 @ PAN
	.byte W02
	.byte c_v-51 @ PAN
	.byte W02
	.byte c_v-50 @ PAN
	.byte W02
	.byte c_v-49 @ PAN
	.byte W01
	.byte c_v-48 @ PAN
	.byte W02
	.byte c_v-47 @ PAN
	.byte W02
	.byte c_v-46 @ PAN
	.byte W02
	.byte c_v-45 @ PAN
	.byte W02
	.byte c_v-44 @ PAN
	.byte W02
	.byte c_v-43 @ PAN
	.byte W01
	.byte c_v-42 @ PAN
	.byte W02
	.byte c_v-41 @ PAN
	.byte W02
	.byte c_v-40 @ PAN
	.byte W02
	.byte c_v-39 @ PAN
	.byte W02
	.byte c_v-38 @ PAN
	.byte W01
	.byte c_v-37 @ PAN
	.byte W02
	.byte c_v-36 @ PAN
	.byte W02
	.byte c_v-35 @ PAN
	.byte W02
	.byte c_v-34 @ PAN
	.byte W02
	.byte c_v-33 @ PAN
	.byte W01
	.byte c_v-32 @ PAN
	.byte W02
	.byte c_v-31 @ PAN
	.byte W02
	.byte c_v-30 @ PAN
	.byte W02
	.byte c_v-29 @ PAN
	.byte W02
	.byte c_v-28 @ PAN
	.byte W01
	.byte c_v-27 @ PAN
	.byte W02
	.byte c_v-26 @ PAN
	.byte W02
	.byte c_v-25 @ PAN
	.byte W02
	.byte c_v-24 @ PAN
	.byte W02
	.byte c_v-23 @ PAN
	.byte W02
	.byte c_v-22 @ PAN
	.byte W01
	.byte c_v-21 @ PAN
	.byte W02
	.byte c_v-20 @ PAN
	.byte W02
	.byte c_v-19 @ PAN
	.byte W02
	.byte c_v-18 @ PAN
	.byte W02
	.byte c_v-17 @ PAN
	.byte W01
	.byte c_v-16 @ PAN
	.byte W02
	.byte c_v-15 @ PAN
	.byte W02
	.byte c_v-14 @ PAN
	.byte W02
	.byte c_v-13 @ PAN
	.byte W02
	.byte c_v-12 @ PAN
	.byte W01
	.byte c_v-11 @ PAN
	.byte W02
	.byte c_v-10 @ PAN
	.byte W02
	.byte c_v-9 @ PAN
	.byte W02
	.byte c_v-8 @ PAN
	.byte W02
	.byte c_v-7 @ PAN
	.byte W01
	.byte c_v-6 @ PAN
	.byte W02
	.byte c_v-5 @ PAN
	.byte W02
	.byte c_v-4 @ PAN
	.byte W02
	.byte c_v-3 @ PAN
	.byte W02
	.byte c_v-2 @ PAN
	.byte W02
	.byte EOT @ Bn2, v036
	.byte PAN, c_v-1
	.byte W06
	.byte W24
	.byte c_v-1 @ PAN
	.byte TIE, Cn3 @ v036
	.byte W01
	.byte PAN, c_v
	.byte W02
	.byte c_v+1 @ PAN
	.byte W02
	.byte c_v+2 @ PAN
	.byte W02
	.byte c_v+3 @ PAN
	.byte W01
	.byte c_v+4 @ PAN
	.byte W02
	.byte c_v+5 @ PAN
	.byte W02
	.byte c_v+6 @ PAN
	.byte W02
	.byte c_v+7 @ PAN
	.byte W02
	.byte c_v+8 @ PAN
	.byte W01
	.byte c_v+9 @ PAN
	.byte W02
	.byte c_v+10 @ PAN
	.byte W02
	.byte c_v+11 @ PAN
	.byte W02
	.byte c_v+12 @ PAN
	.byte W01
	.byte c_v+13 @ PAN
	.byte W02
	.byte c_v+14 @ PAN
	.byte W02
	.byte c_v+15 @ PAN
	.byte W02
	.byte c_v+16 @ PAN
	.byte W02
	.byte c_v+17 @ PAN
	.byte W01
	.byte c_v+18 @ PAN
	.byte W02
	.byte c_v+19 @ PAN
	.byte W02
	.byte c_v+20 @ PAN
	.byte W02
	.byte c_v+21 @ PAN
	.byte W01
	.byte c_v+22 @ PAN
	.byte W02
	.byte c_v+23 @ PAN
	.byte W02
	.byte c_v+24 @ PAN
	.byte W02
	.byte c_v+25 @ PAN
	.byte W02
	.byte c_v+26 @ PAN
	.byte W01
	.byte c_v+27 @ PAN
	.byte W02
	.byte c_v+28 @ PAN
	.byte W02
	.byte c_v+29 @ PAN
	.byte W02
	.byte c_v+30 @ PAN
	.byte W02
	.byte c_v+31 @ PAN
	.byte W01
	.byte c_v+32 @ PAN
	.byte W02
	.byte c_v+33 @ PAN
	.byte W02
	.byte c_v+34 @ PAN
	.byte W02
	.byte c_v+35 @ PAN
	.byte W01
	.byte c_v+36 @ PAN
	.byte W02
	.byte c_v+37 @ PAN
	.byte W02
	.byte c_v+38 @ PAN
	.byte W02
	.byte c_v+39 @ PAN
	.byte W02
	.byte c_v+40 @ PAN
	.byte W01
	.byte c_v+41 @ PAN
	.byte W02
	.byte c_v+42 @ PAN
	.byte W02
	.byte c_v+43 @ PAN
	.byte W02
	.byte c_v+44 @ PAN
	.byte W01
	.byte c_v+45 @ PAN
	.byte W02
	.byte c_v+46 @ PAN
	.byte W02
	.byte c_v+47 @ PAN
	.byte W02
	.byte c_v+48 @ PAN
	.byte W02
	.byte c_v+49 @ PAN
	.byte W01
	.byte c_v+50 @ PAN
	.byte W02
	.byte c_v+51 @ PAN
	.byte W02
	.byte c_v+52 @ PAN
	.byte W02
	.byte c_v+53 @ PAN
	.byte W01
	.byte c_v+54 @ PAN
	.byte W02
	.byte c_v+55 @ PAN
	.byte W02
	.byte c_v+56 @ PAN
	.byte W02
	.byte c_v+57 @ PAN
	.byte W02
	.byte c_v+58 @ PAN
	.byte W01
	.byte c_v+59 @ PAN
	.byte W02
	.byte c_v+60 @ PAN
	.byte W02
	.byte c_v+61 @ PAN
	.byte W02
	.byte c_v+62 @ PAN
	.byte W02
	.byte EOT @ Cn3, v036
	.byte PAN, c_v+63
	.byte W06
	.byte W72
	.byte W72
	.byte W72
	.byte W72
	.byte W24
	.byte c_v+63 @ PAN
	.byte TIE, Bn2 @ v036
	.byte W01
	.byte PAN, c_v+61
	.byte W01
	.byte c_v+59 @ PAN
	.byte W01
	.byte c_v+58 @ PAN
	.byte W01
	.byte c_v+56 @ PAN
	.byte W01
	.byte c_v+55 @ PAN
	.byte W01
	.byte c_v+53 @ PAN
	.byte W01
	.byte c_v+52 @ PAN
	.byte W01
	.byte c_v+50 @ PAN
	.byte W01
	.byte c_v+49 @ PAN
	.byte W01
	.byte c_v+47 @ PAN
	.byte W01
	.byte c_v+46 @ PAN
	.byte W01
	.byte c_v+44 @ PAN
	.byte W01
	.byte c_v+43 @ PAN
	.byte W01
	.byte c_v+41 @ PAN
	.byte W01
	.byte c_v+40 @ PAN
	.byte W01
	.byte c_v+38 @ PAN
	.byte W01
	.byte c_v+37 @ PAN
	.byte W01
	.byte c_v+35 @ PAN
	.byte W01
	.byte c_v+34 @ PAN
	.byte W01
	.byte c_v+32 @ PAN
	.byte W01
	.byte c_v+31 @ PAN
	.byte W01
	.byte c_v+29 @ PAN
	.byte W01
	.byte c_v+27 @ PAN
	.byte W01
	.byte c_v+26 @ PAN
	.byte W01
	.byte c_v+24 @ PAN
	.byte W01
	.byte c_v+23 @ PAN
	.byte W01
	.byte c_v+21 @ PAN
	.byte W01
	.byte c_v+20 @ PAN
	.byte W01
	.byte c_v+18 @ PAN
	.byte W01
	.byte c_v+17 @ PAN
	.byte W01
	.byte c_v+15 @ PAN
	.byte W01
	.byte c_v+14 @ PAN
	.byte W01
	.byte c_v+12 @ PAN
	.byte W01
	.byte c_v+11 @ PAN
	.byte W01
	.byte c_v+9 @ PAN
	.byte W01
	.byte c_v+8 @ PAN
	.byte W01
	.byte c_v+6 @ PAN
	.byte W01
	.byte c_v+5 @ PAN
	.byte W01
	.byte c_v+3 @ PAN
	.byte W01
	.byte c_v+2 @ PAN
	.byte W01
	.byte c_v @ PAN
	.byte W01
	.byte c_v-1 @ PAN
	.byte W06
	.byte W66
	.byte EOT @ Bn2, v036
	.byte W06
	.byte GOTO
		.word track_27_lbl_274eb1
	.byte FINE

track_27_3:
	.byte KEYSH, 0
track_27_lbl_2750bc:
	.byte VOICE, 18
	.byte VOL, 127
	.byte PAN, c_v
	.byte PRIO, 110
	.byte N24, Cn3, v116
	.byte W72
	.byte W72
	.byte W72
	.byte W72
	.byte W72
	.byte W72
	.byte W72
track_27_lbl_2750ce:
	.byte W48
	.byte N06, Fs2, v080
	.byte W06
	.byte Fs2, v092 @ N06
	.byte W06
	.byte Fs2, v108 @ N06
	.byte W06
	.byte Fs2, v116 @ N06
	.byte W06
	.byte PEND
	.byte N24, Cn3 @ v116
	.byte W72
	.byte W72
	.byte W72
	.byte W72
	.byte W72
	.byte W72
	.byte W72
	.byte PATT
		.word track_27_lbl_2750ce
	.byte GOTO
		.word track_27_lbl_2750bc
	.byte FINE

track_27_4:
	.byte KEYSH, 0
track_27_lbl_2750f3:
	.byte VOICE, 4
	.byte VOL, 127
	.byte PAN, c_v
	.byte PRIO, 110
	.byte N07, Cn3, v108
	.byte W18
	.byte N06 @ Cn3, v108
	.byte W06
	.byte VOICE, 5
	.byte PRIO, 0
	.byte W06
	.byte N07 @ Cn3, v108
	.byte W12
	.byte PRIO, 110
	.byte W06
	.byte N07 @ Cn3, v108
	.byte W12
	.byte As2 @ N07, v108
	.byte W12
	.byte PEND
track_27_lbl_275110:
	.byte N07, Cn3, v108
	.byte W12
	.byte PRIO, 0
	.byte W06
	.byte N06 @ Cn3, v108
	.byte W06
	.byte PRIO, 110
	.byte W06
	.byte VOICE, 4
	.byte N07 @ Cn3, v108
	.byte W18
	.byte PRIO, 0
	.byte N07 @ Cn3, v108
	.byte W12
	.byte VOICE, 3
	.byte N07, Cs3 @ v108
	.byte W06
	.byte PRIO, 110
	.byte W06
	.byte PEND
track_27_lbl_27512d:
	.byte VOICE, 4
	.byte PRIO, 110
	.byte N07, Cn3, v108
	.byte W18
	.byte N06 @ Cn3, v108
	.byte W06
	.byte VOICE, 5
	.byte PRIO, 0
	.byte W06
	.byte N07 @ Cn3, v108
	.byte W12
	.byte PRIO, 110
	.byte W06
	.byte N07 @ Cn3, v108
	.byte W12
	.byte As2 @ N07, v108
	.byte W12
	.byte PEND
track_27_lbl_275146:
	.byte N07, Cn3, v108
	.byte W12
	.byte PRIO, 0
	.byte W06
	.byte N06 @ Cn3, v108
	.byte W06
	.byte PRIO, 110
	.byte W06
	.byte VOICE, 4
	.byte N07 @ Cn3, v108
	.byte W18
	.byte PRIO, 0
	.byte N07 @ Cn3, v108
	.byte W12
	.byte VOICE, 3
	.byte N07, As2 @ v108
	.byte W06
	.byte PRIO, 110
	.byte W06
	.byte PEND
	.byte PATT
		.word track_27_lbl_27512d
track_27_lbl_275168:
	.byte N07, Cn3, v108
	.byte W12
	.byte PRIO, 0
	.byte W06
	.byte N06 @ Cn3, v108
	.byte W06
	.byte PRIO, 110
	.byte W06
	.byte VOICE, 4
	.byte N07 @ Cn3, v108
	.byte W18
	.byte PRIO, 0
	.byte N07 @ Cn3, v108
	.byte W12
	.byte VOICE, 3
	.byte N07 @ Cn3, v108
	.byte W06
	.byte PRIO, 110
	.byte W06
	.byte PEND
track_27_lbl_275184:
	.byte VOICE, 4
	.byte PRIO, 110
	.byte N07, Bn2, v108
	.byte W18
	.byte N06 @ Bn2, v108
	.byte W06
	.byte VOICE, 5
	.byte PRIO, 0
	.byte W06
	.byte N07 @ Bn2, v108
	.byte W12
	.byte PRIO, 110
	.byte W06
	.byte N07 @ Bn2, v108
	.byte W12
	.byte An2 @ N07, v108
	.byte W12
	.byte PEND
track_27_lbl_27519d:
	.byte N07, Bn2, v108
	.byte W12
	.byte PRIO, 0
	.byte W06
	.byte N06 @ Bn2, v108
	.byte W06
	.byte PRIO, 110
	.byte W06
	.byte VOICE, 4
	.byte N07 @ Bn2, v108
	.byte W18
	.byte PRIO, 0
	.byte N07 @ Bn2, v108
	.byte W12
	.byte VOICE, 3
	.byte N07, Cs3 @ v108
	.byte W06
	.byte PRIO, 110
	.byte W06
	.byte PEND
	.byte PATT
		.word track_27_lbl_2750f3
	.byte PATT
		.word track_27_lbl_275110
	.byte PATT
		.word track_27_lbl_27512d
	.byte PATT
		.word track_27_lbl_275146
	.byte PATT
		.word track_27_lbl_27512d
	.byte PATT
		.word track_27_lbl_275168
	.byte PATT
		.word track_27_lbl_275184
	.byte PATT
		.word track_27_lbl_27519d
	.byte GOTO
		.word track_27_lbl_2750f3
	.byte FINE

track_27_5:
	.byte KEYSH, 0
track_27_lbl_2751ea:
	.byte VOICE, 14
	.byte VOL, 127
	.byte PAN, c_v
	.byte N03, Cn5, v036
	.byte W06
	.byte Cn6 @ N03, v036
	.byte W12
	.byte Dn6 @ N03, v036
	.byte W12
	.byte En6 @ N03, v036
	.byte W12
	.byte Fs6 @ N03, v036
	.byte W12
	.byte Gs6 @ N03, v036
	.byte W06
	.byte As6 @ N03, v036
	.byte W06
	.byte Cn7 @ N03, v036
	.byte W06
track_27_lbl_275202:
	.byte N03, Cn5, v036
	.byte W12
	.byte Cn6 @ N03, v036
	.byte W06
	.byte Dn6 @ N03, v036
	.byte W12
	.byte En6 @ N03, v036
	.byte W12
	.byte Fs6 @ N03, v036
	.byte W12
	.byte Gs6 @ N03, v036
	.byte W06
	.byte As6 @ N03, v036
	.byte W06
	.byte Cn7 @ N03, v036
	.byte W06
	.byte PEND
track_27_lbl_275215:
	.byte N03, Cn5, v036
	.byte W06
	.byte Cn6 @ N03, v036
	.byte W12
	.byte Dn6 @ N03, v036
	.byte W12
	.byte En6 @ N03, v036
	.byte W12
	.byte Fs6 @ N03, v036
	.byte W12
	.byte Gs6 @ N03, v036
	.byte W06
	.byte As6 @ N03, v036
	.byte W06
	.byte Cn7 @ N03, v036
	.byte W06
	.byte PEND
	.byte PATT
		.word track_27_lbl_275202
	.byte PATT
		.word track_27_lbl_275215
	.byte PATT
		.word track_27_lbl_275202
track_27_lbl_275237:
	.byte N03, Bn4, v036
	.byte W06
	.byte Bn5 @ N03, v036
	.byte W12
	.byte Cs6 @ N03, v036
	.byte W12
	.byte Ds6 @ N03, v036
	.byte W12
	.byte Fn6 @ N03, v036
	.byte W12
	.byte Gn6 @ N03, v036
	.byte W06
	.byte An6 @ N03, v036
	.byte W06
	.byte Bn6 @ N03, v036
	.byte W06
	.byte PEND
track_27_lbl_27524a:
	.byte N03, Bn4, v036
	.byte W12
	.byte Bn5 @ N03, v036
	.byte W06
	.byte Cs6 @ N03, v036
	.byte W12
	.byte Ds6 @ N03, v036
	.byte W12
	.byte Fn6 @ N03, v036
	.byte W12
	.byte Gn6 @ N03, v036
	.byte W06
	.byte An6 @ N03, v036
	.byte W06
	.byte Bn6 @ N03, v036
	.byte W06
	.byte PEND
	.byte PATT
		.word track_27_lbl_275215
	.byte PATT
		.word track_27_lbl_275202
	.byte PATT
		.word track_27_lbl_275215
	.byte PATT
		.word track_27_lbl_275202
	.byte PATT
		.word track_27_lbl_275215
	.byte PATT
		.word track_27_lbl_275202
	.byte PATT
		.word track_27_lbl_275237
	.byte PATT
		.word track_27_lbl_27524a
	.byte GOTO
		.word track_27_lbl_2751ea
	.byte FINE

track_27_6:
	.byte KEYSH, 0
track_27_lbl_27528d:
	.byte VOICE, 15
	.byte MOD, 1
	.byte VOL, 127
	.byte PAN, c_v
	.byte LFOS, 127
	.byte BEND, c_v+6
	.byte W12
	.byte N03, Cn5, v020
	.byte W06
	.byte Cn6 @ N03, v020
	.byte W12
	.byte Dn6 @ N03, v020
	.byte W12
	.byte En6 @ N03, v020
	.byte W12
	.byte Fs6 @ N03, v020
	.byte W12
	.byte Gs6 @ N03, v020
	.byte W06
track_27_lbl_2752a8:
	.byte N03, As6, v020
	.byte W06
	.byte Cn7 @ N03, v020
	.byte W06
	.byte Cn5 @ N03, v020
	.byte W12
	.byte Cn6 @ N03, v020
	.byte W06
	.byte Dn6 @ N03, v020
	.byte W12
	.byte En6 @ N03, v020
	.byte W12
	.byte Fs6 @ N03, v020
	.byte W12
	.byte Gs6 @ N03, v020
	.byte W06
	.byte PEND
track_27_lbl_2752bb:
	.byte N03, As6, v020
	.byte W06
	.byte Cn7 @ N03, v020
	.byte W06
	.byte Cn5 @ N03, v020
	.byte W06
	.byte Cn6 @ N03, v020
	.byte W12
	.byte Dn6 @ N03, v020
	.byte W12
	.byte En6 @ N03, v020
	.byte W12
	.byte Fs6 @ N03, v020
	.byte W12
	.byte Gs6 @ N03, v020
	.byte W06
	.byte PEND
	.byte PATT
		.word track_27_lbl_2752a8
	.byte PATT
		.word track_27_lbl_2752bb
	.byte PATT
		.word track_27_lbl_2752a8
track_27_lbl_2752dd:
	.byte N03, As6, v020
	.byte W06
	.byte Cn7 @ N03, v020
	.byte W06
	.byte Bn4 @ N03, v020
	.byte W06
	.byte Bn5 @ N03, v020
	.byte W12
	.byte Cs6 @ N03, v020
	.byte W12
	.byte Ds6 @ N03, v020
	.byte W12
	.byte Fn6 @ N03, v020
	.byte W12
	.byte Gn6 @ N03, v020
	.byte W06
	.byte PEND
track_27_lbl_2752f0:
	.byte N03, An6, v020
	.byte W06
	.byte Bn6 @ N03, v020
	.byte W06
	.byte Bn4 @ N03, v020
	.byte W12
	.byte Bn5 @ N03, v020
	.byte W06
	.byte Cs6 @ N03, v020
	.byte W12
	.byte Ds6 @ N03, v020
	.byte W12
	.byte Fn6 @ N03, v020
	.byte W12
	.byte Gn6 @ N03, v020
	.byte W06
	.byte PEND
	.byte An6 @ N03, v020
	.byte W06
	.byte Bn6 @ N03, v020
	.byte W06
	.byte Cn5 @ N03, v020
	.byte W06
	.byte Cn6 @ N03, v020
	.byte W12
	.byte Dn6 @ N03, v020
	.byte W12
	.byte En6 @ N03, v020
	.byte W12
	.byte Fs6 @ N03, v020
	.byte W12
	.byte Gs6 @ N03, v020
	.byte W06
	.byte PATT
		.word track_27_lbl_2752a8
	.byte PATT
		.word track_27_lbl_2752bb
	.byte PATT
		.word track_27_lbl_2752a8
	.byte PATT
		.word track_27_lbl_2752bb
	.byte PATT
		.word track_27_lbl_2752a8
	.byte PATT
		.word track_27_lbl_2752dd
	.byte PATT
		.word track_27_lbl_2752f0
	.byte GOTO
		.word track_27_lbl_27528d
	.byte FINE

.align 2

track_27:
	.byte 7
	.byte 27
	.byte 130
	.byte 128
	.word 0x80a8554
	.word track_27_0
	.word track_27_1
	.word track_27_2
	.word track_27_3
	.word track_27_4
	.word track_27_5
	.word track_27_6

.align 2
