.align 2

.global track_56

track_56_0:
	.byte KEYSH, 0
	.byte TEMPO, 127
	.byte VOICE, 107
	.byte VOL, 127
	.byte PRIO, 110
	.byte W60
	.byte W60
	.byte W60
	.byte W60
	.byte W60
	.byte W60
	.byte W60
	.byte W60
track_56_lbl_276b52:
	.byte VOL, 48
	.byte N08, Fs2, v096
	.byte W12
	.byte Cn2 @ N08, v096
	.byte W12
	.byte Ds2 @ N08, v096
	.byte W12
	.byte N60, Gn1 @ v096
	.byte W12
	.byte W48
	.byte N08, Gs1 @ v096
	.byte W12
	.byte As1 @ N08, v096
	.byte W12
	.byte Cn2 @ N08, v096
	.byte W12
	.byte N60, Gn2 @ v096
	.byte W12
	.byte W48
	.byte N08, Fs2 @ v096
	.byte W12
	.byte Dn2 @ N08, v096
	.byte W12
	.byte N72, An2 @ v096
	.byte W24
	.byte VOL, 48
	.byte W06
	.byte 49 @ VOL
	.byte W06
	.byte 51 @ VOL
	.byte W06
	.byte 52 @ VOL
	.byte W06
	.byte 54 @ VOL
	.byte W06
	.byte 56 @ VOL
	.byte W06
	.byte 57 @ VOL
	.byte W06
	.byte 59 @ VOL
	.byte W06
	.byte 60 @ VOL
	.byte N36, As2 @ v096
	.byte W06
	.byte VOL, 62
	.byte W06
	.byte 64 @ VOL
	.byte W06
	.byte 65 @ VOL
	.byte W06
	.byte 67 @ VOL
	.byte W06
	.byte 68 @ VOL
	.byte W06
	.byte 70 @ VOL
	.byte N36, Bn2 @ v096
	.byte W06
	.byte VOL, 72
	.byte W06
	.byte 73 @ VOL
	.byte W06
	.byte 75 @ VOL
	.byte W06
	.byte 76 @ VOL
	.byte W06
	.byte 78 @ VOL
	.byte W06
	.byte 127 @ VOL
	.byte W60
	.byte W60
	.byte W60
	.byte W60
	.byte W60
	.byte W60
	.byte W60
	.byte W60
	.byte W60
	.byte W60
	.byte W60
	.byte W60
	.byte W60
	.byte W60
	.byte W60
	.byte W60
	.byte 48 @ VOL
	.byte N48, As2 @ v096
	.byte W36
track_56_lbl_276bb7:
	.byte W12
	.byte N08, An2, v096
	.byte W08
	.byte As2 @ N08, v096
	.byte W08
	.byte An2 @ N08, v096
	.byte W08
	.byte PEND
	.byte N48, Fs2 @ v096
	.byte W36
	.byte W12
	.byte N24, An2 @ v096
	.byte W24
	.byte N48, As2 @ v096
	.byte W36
	.byte PATT
		.word track_56_lbl_276bb7
	.byte N48, Fs2, v096
	.byte W36
	.byte W12
	.byte N24, An2 @ v096
	.byte W24
	.byte N48, Cs3 @ v096
	.byte W36
	.byte W12
	.byte N08, Cn3 @ v096
	.byte W08
	.byte Cs3 @ N08, v096
	.byte W08
	.byte Cn3 @ N08, v096
	.byte W08
	.byte N48, An2 @ v096
	.byte W36
	.byte W12
	.byte N24, Cn3 @ v096
	.byte W24
	.byte N48, Ds3 @ v096
	.byte W36
	.byte W12
	.byte N08, Dn3 @ v096
	.byte W08
	.byte Ds3 @ N08, v096
	.byte W08
	.byte Dn3 @ N08, v096
	.byte W08
	.byte N48, Fs3 @ v096
	.byte W36
	.byte VOL, 48
	.byte W06
	.byte 49 @ VOL
	.byte W06
	.byte 50 @ VOL
	.byte N08, Fn3 @ v096
	.byte W06
	.byte VOL, 52
	.byte W02
	.byte N08, Fs3 @ v096
	.byte W04
	.byte VOL, 53
	.byte W04
	.byte N08, Fn3 @ v096
	.byte W02
	.byte VOL, 55
	.byte W06
	.byte 56 @ VOL
	.byte N12, Ds3 @ v096
	.byte W06
	.byte VOL, 58
	.byte W06
	.byte 59 @ VOL
	.byte N12, Dn3 @ v096
	.byte W06
	.byte VOL, 61
	.byte W06
	.byte 62 @ VOL
	.byte N12, Fs3 @ v096
	.byte W06
	.byte VOL, 64
	.byte W06
	.byte 65 @ VOL
	.byte N12, Fn3 @ v096
	.byte W06
	.byte VOL, 66
	.byte W06
	.byte 68 @ VOL
	.byte N12, Ds3 @ v096
	.byte W06
	.byte VOL, 69
	.byte W06
	.byte 71 @ VOL
	.byte N12, Dn3 @ v096
	.byte W06
	.byte VOL, 72
	.byte W06
	.byte 74 @ VOL
	.byte N12, Fs3 @ v096
	.byte W06
	.byte VOL, 75
	.byte W06
	.byte 77 @ VOL
	.byte N12, Fn3 @ v096
	.byte W06
	.byte VOL, 78
	.byte W06
	.byte 127 @ VOL
	.byte W60
	.byte W60
	.byte W60
	.byte W60
	.byte W60
	.byte W60
	.byte W60
	.byte W60
	.byte W60
	.byte W60
	.byte W60
	.byte W60
	.byte W60
	.byte W60
	.byte W60
	.byte W60
	.byte GOTO
		.word track_56_lbl_276b52
	.byte FINE

track_56_1:
	.byte KEYSH, 0
	.byte VOICE, 107
	.byte VOL, 127
	.byte W60
	.byte W60
	.byte W60
	.byte W60
	.byte W60
	.byte W60
	.byte W60
	.byte W60
track_56_lbl_276c6d:
	.byte VOL, 48
	.byte W18
	.byte BEND, c_v
	.byte N08, Fs2, v024
	.byte W12
	.byte Cn2 @ N08, v024
	.byte W12
	.byte Ds2 @ N08, v024
	.byte W06
	.byte W06
	.byte N60, Gn1 @ v024
	.byte W42
	.byte W18
	.byte N08, Gs1 @ v024
	.byte W12
	.byte As1 @ N08, v024
	.byte W12
	.byte Cn2 @ N08, v024
	.byte W06
	.byte W06
	.byte N60, Gn2 @ v024
	.byte W42
	.byte W18
	.byte N08, Fs2 @ v024
	.byte W12
	.byte Dn2 @ N08, v024
	.byte W12
	.byte N72, An2 @ v024
	.byte W06
	.byte VOL, 48
	.byte W06
	.byte 49 @ VOL
	.byte W06
	.byte 51 @ VOL
	.byte W06
	.byte 52 @ VOL
	.byte W06
	.byte 54 @ VOL
	.byte W06
	.byte 56 @ VOL
	.byte W06
	.byte 57 @ VOL
	.byte W06
	.byte 59 @ VOL
	.byte W06
	.byte 60 @ VOL
	.byte W06
	.byte 62 @ VOL
	.byte W06
	.byte 64 @ VOL
	.byte W06
	.byte 65 @ VOL
	.byte N36, As2 @ v024
	.byte W06
	.byte VOL, 67
	.byte W06
	.byte 68 @ VOL
	.byte W06
	.byte 70 @ VOL
	.byte W06
	.byte 72 @ VOL
	.byte W06
	.byte 73 @ VOL
	.byte W06
	.byte 75 @ VOL
	.byte N36, Bn2 @ v024
	.byte W06
	.byte VOL, 76
	.byte W06
	.byte 78 @ VOL
	.byte W06
	.byte 127 @ VOL
	.byte W60
	.byte W60
	.byte W60
	.byte W60
	.byte W60
	.byte W60
	.byte W60
	.byte W60
	.byte W60
	.byte W60
	.byte W60
	.byte W60
	.byte W60
	.byte W60
	.byte W60
	.byte W60
	.byte 48 @ VOL
	.byte W18
	.byte N48, As2 @ v024
	.byte W18
	.byte W30
	.byte N08, An2 @ v024
	.byte W06
track_56_lbl_276cdc:
	.byte W02
	.byte N08, As2, v024
	.byte W08
	.byte An2 @ N08, v024
	.byte W08
	.byte N48, Fs2 @ v024
	.byte W18
	.byte PEND
track_56_lbl_276ce7:
	.byte W30
	.byte N24, An2, v024
	.byte W06
	.byte PEND
	.byte W18
	.byte N48, As2 @ v024
	.byte W18
	.byte W30
	.byte N08, An2 @ v024
	.byte W06
	.byte PATT
		.word track_56_lbl_276cdc
	.byte PATT
		.word track_56_lbl_276ce7
	.byte W18
	.byte N48, Cs3, v024
	.byte W18
	.byte W30
	.byte N08, Cn3 @ v024
	.byte W06
	.byte W02
	.byte Cs3 @ N08, v024
	.byte W08
	.byte Cn3 @ N08, v024
	.byte W08
	.byte N48, An2 @ v024
	.byte W18
	.byte W30
	.byte N24, Cn3 @ v024
	.byte W06
	.byte W18
	.byte N48, Ds3 @ v024
	.byte W18
	.byte W30
	.byte N08, Dn3 @ v024
	.byte W06
	.byte W02
	.byte Ds3 @ N08, v024
	.byte W08
	.byte Dn3 @ N08, v024
	.byte W08
	.byte N48, Fs3 @ v024
	.byte W18
	.byte VOL, 48
	.byte W06
	.byte 49 @ VOL
	.byte W06
	.byte 50 @ VOL
	.byte W06
	.byte 52 @ VOL
	.byte W06
	.byte 53 @ VOL
	.byte W06
	.byte 55 @ VOL
	.byte N08, Fn3 @ v024
	.byte W06
	.byte VOL, 56
	.byte W02
	.byte N08, Fs3 @ v024
	.byte W04
	.byte VOL, 58
	.byte W04
	.byte N08, Fn3 @ v024
	.byte W02
	.byte VOL, 59
	.byte W06
	.byte 61 @ VOL
	.byte N12, Ds3 @ v024
	.byte W06
	.byte VOL, 62
	.byte W06
	.byte 64 @ VOL
	.byte N12, Dn3 @ v024
	.byte W06
	.byte VOL, 65
	.byte W06
	.byte 66 @ VOL
	.byte N12, Fs3 @ v024
	.byte W06
	.byte VOL, 68
	.byte W06
	.byte 69 @ VOL
	.byte N12, Fn3 @ v024
	.byte W06
	.byte VOL, 71
	.byte W06
	.byte 72 @ VOL
	.byte N12, Ds3 @ v024
	.byte W06
	.byte VOL, 74
	.byte W06
	.byte 75 @ VOL
	.byte N12, Dn3 @ v024
	.byte W06
	.byte VOL, 77
	.byte W06
	.byte 78 @ VOL
	.byte N12, Fs3 @ v024
	.byte W06
	.byte VOL, 127
	.byte W60
	.byte W60
	.byte W60
	.byte W60
	.byte W60
	.byte W60
	.byte W60
	.byte W60
	.byte W60
	.byte W60
	.byte W60
	.byte W60
	.byte W60
	.byte W60
	.byte W60
	.byte W60
	.byte GOTO
		.word track_56_lbl_276c6d
	.byte FINE

track_56_2:
	.byte KEYSH, 0
	.byte VOICE, 26
	.byte VOL, 127
	.byte PAN, c_v+32
	.byte PRIO, 110
	.byte N12, Cn3, v056
	.byte W01
	.byte PAN, c_v+31
	.byte W05
	.byte VOL, 123
	.byte W06
	.byte 119 @ VOL
	.byte N12, Cn2 @ v056
	.byte W03
	.byte PAN, c_v+30
	.byte W01
	.byte c_v+29 @ PAN
	.byte W02
	.byte VOL, 115
	.byte W06
	.byte 111 @ VOL
	.byte N12 @ Cn2, v056
	.byte W06
	.byte VOL, 107
	.byte PAN, c_v+28
	.byte W01
	.byte c_v+27 @ PAN
	.byte W05
	.byte VOL, 103
	.byte N12, Cn3 @ v056
	.byte W06
	.byte VOL, 99
	.byte W03
	.byte PAN, c_v+26
	.byte W01
	.byte c_v+25 @ PAN
	.byte W02
	.byte VOL, 95
	.byte N12, Cn2 @ v056
	.byte W06
	.byte VOL, 91
	.byte W06
track_56_lbl_276dc7:
	.byte VOL, 87
	.byte PAN, c_v+24
	.byte N12, Cn2, v056
	.byte W01
	.byte PAN, c_v+23
	.byte W05
	.byte VOL, 83
	.byte W06
	.byte 79 @ VOL
	.byte N12, Cs3 @ v056
	.byte W03
	.byte PAN, c_v+22
	.byte W01
	.byte c_v+21 @ PAN
	.byte W02
	.byte VOL, 75
	.byte W06
	.byte 71 @ VOL
	.byte N12, Cs2 @ v056
	.byte W06
	.byte VOL, 67
	.byte PAN, c_v+20
	.byte W01
	.byte c_v+19 @ PAN
	.byte W05
	.byte VOL, 63
	.byte N12, As2 @ v056
	.byte W06
	.byte VOL, 59
	.byte W03
	.byte PAN, c_v+18
	.byte W01
	.byte c_v+17 @ PAN
	.byte W02
	.byte VOL, 55
	.byte N12, As1 @ v056
	.byte W06
	.byte VOL, 51
	.byte W06
	.byte PEND
track_56_lbl_276e02:
	.byte VOL, 48
	.byte PAN, c_v+16
	.byte N12, Cn3, v056
	.byte W01
	.byte PAN, c_v+15
	.byte W05
	.byte VOL, 49
	.byte W06
	.byte 50 @ VOL
	.byte N12, Cn2 @ v056
	.byte W03
	.byte PAN, c_v+14
	.byte W01
	.byte c_v+13 @ PAN
	.byte W02
	.byte VOL, 51
	.byte W06
	.byte 53 @ VOL
	.byte N12 @ Cn2, v056
	.byte W06
	.byte VOL, 54
	.byte PAN, c_v+12
	.byte W01
	.byte c_v+11 @ PAN
	.byte W05
	.byte VOL, 55
	.byte N12, Cn3 @ v056
	.byte W06
	.byte VOL, 57
	.byte W03
	.byte PAN, c_v+10
	.byte W01
	.byte c_v+9 @ PAN
	.byte W02
	.byte VOL, 58
	.byte N12, Cn2 @ v056
	.byte W06
	.byte VOL, 59
	.byte W06
	.byte PEND
track_56_lbl_276e3c:
	.byte VOL, 61
	.byte PAN, c_v+8
	.byte N12, Cn2, v056
	.byte W01
	.byte PAN, c_v+7
	.byte W05
	.byte VOL, 62
	.byte W06
	.byte 63 @ VOL
	.byte N12, Cs3 @ v056
	.byte W03
	.byte PAN, c_v+6
	.byte W01
	.byte c_v+5 @ PAN
	.byte W02
	.byte VOL, 65
	.byte W06
	.byte 66 @ VOL
	.byte N12, Cs2 @ v056
	.byte W06
	.byte VOL, 67
	.byte PAN, c_v+4
	.byte W01
	.byte c_v+3 @ PAN
	.byte W05
	.byte VOL, 69
	.byte N12, As2 @ v056
	.byte W06
	.byte VOL, 70
	.byte W03
	.byte PAN, c_v+2
	.byte W01
	.byte c_v+1 @ PAN
	.byte W02
	.byte VOL, 71
	.byte N12, As1 @ v056
	.byte W06
	.byte VOL, 73
	.byte W06
	.byte PEND
track_56_lbl_276e77:
	.byte VOL, 74
	.byte PAN, c_v
	.byte N12, Cn3, v056
	.byte W01
	.byte PAN, c_v-1
	.byte W05
	.byte VOL, 75
	.byte W06
	.byte 76 @ VOL
	.byte N12, Cn2 @ v056
	.byte W03
	.byte PAN, c_v-2
	.byte W01
	.byte c_v-3 @ PAN
	.byte W02
	.byte VOL, 78
	.byte W06
	.byte 79 @ VOL
	.byte N12 @ Cn2, v056
	.byte W06
	.byte VOL, 80
	.byte PAN, c_v-4
	.byte W01
	.byte c_v-5 @ PAN
	.byte W05
	.byte VOL, 82
	.byte N12, Cn3 @ v056
	.byte W06
	.byte VOL, 83
	.byte W03
	.byte PAN, c_v-6
	.byte W01
	.byte c_v-7 @ PAN
	.byte W02
	.byte VOL, 84
	.byte N12, Cn2 @ v056
	.byte W06
	.byte VOL, 86
	.byte W06
	.byte PEND
track_56_lbl_276eb1:
	.byte VOL, 87
	.byte PAN, c_v-8
	.byte N12, Cn2, v056
	.byte W01
	.byte PAN, c_v-9
	.byte W05
	.byte VOL, 88
	.byte W06
	.byte 90 @ VOL
	.byte N12, Cs3 @ v056
	.byte W03
	.byte PAN, c_v-10
	.byte W01
	.byte c_v-11 @ PAN
	.byte W02
	.byte VOL, 91
	.byte W06
	.byte 92 @ VOL
	.byte N12, Cs2 @ v056
	.byte W06
	.byte VOL, 94
	.byte PAN, c_v-12
	.byte W01
	.byte c_v-13 @ PAN
	.byte W05
	.byte VOL, 95
	.byte N12, As2 @ v056
	.byte W06
	.byte VOL, 96
	.byte W03
	.byte PAN, c_v-14
	.byte W01
	.byte c_v-15 @ PAN
	.byte W02
	.byte VOL, 98
	.byte N12, As1 @ v056
	.byte W06
	.byte VOL, 99
	.byte W06
	.byte PEND
track_56_lbl_276eec:
	.byte VOL, 100
	.byte PAN, c_v-16
	.byte N12, Cn3, v056
	.byte W01
	.byte PAN, c_v-17
	.byte W05
	.byte VOL, 101
	.byte W06
	.byte 103 @ VOL
	.byte N12, Cn2 @ v056
	.byte W03
	.byte PAN, c_v-18
	.byte W01
	.byte c_v-19 @ PAN
	.byte W02
	.byte VOL, 104
	.byte W06
	.byte 105 @ VOL
	.byte N12 @ Cn2, v056
	.byte W06
	.byte VOL, 107
	.byte PAN, c_v-20
	.byte W01
	.byte c_v-21 @ PAN
	.byte W05
	.byte VOL, 108
	.byte N12, Cn3 @ v056
	.byte W06
	.byte VOL, 109
	.byte W03
	.byte PAN, c_v-22
	.byte W01
	.byte c_v-23 @ PAN
	.byte W02
	.byte VOL, 111
	.byte N12, Cn2 @ v056
	.byte W06
	.byte VOL, 112
	.byte W06
	.byte PEND
track_56_lbl_276f26:
	.byte VOL, 113
	.byte PAN, c_v-24
	.byte N12, Cn2, v056
	.byte W01
	.byte PAN, c_v-25
	.byte W05
	.byte VOL, 115
	.byte W06
	.byte 116 @ VOL
	.byte N12, Cs3 @ v056
	.byte W03
	.byte PAN, c_v-26
	.byte W01
	.byte c_v-27 @ PAN
	.byte W02
	.byte VOL, 117
	.byte W06
	.byte 119 @ VOL
	.byte N12, Cs2 @ v056
	.byte W06
	.byte VOL, 120
	.byte PAN, c_v-28
	.byte W01
	.byte c_v-29 @ PAN
	.byte W05
	.byte VOL, 121
	.byte N12, As2 @ v056
	.byte W06
	.byte VOL, 123
	.byte W03
	.byte PAN, c_v-30
	.byte W01
	.byte c_v-31 @ PAN
	.byte W02
	.byte VOL, 124
	.byte N12, As1 @ v056
	.byte W06
	.byte VOL, 125
	.byte W06
	.byte PEND
track_56_lbl_276f61:
	.byte VOICE, 26
	.byte VOL, 48
	.byte PAN, c_v-32
	.byte N96, Gn1, v124
	.byte W48
	.byte W48
	.byte Gs1 @ N96, v124
	.byte W48
	.byte W48
	.byte An1 @ N96, v124
	.byte W48
	.byte VOL, 48
	.byte W06
	.byte 49 @ VOL
	.byte W06
	.byte 51 @ VOL
	.byte W06
	.byte 52 @ VOL
	.byte W06
	.byte 54 @ VOL
	.byte W06
	.byte 56 @ VOL
	.byte W06
	.byte 57 @ VOL
	.byte W06
	.byte 59 @ VOL
	.byte W06
	.byte 60 @ VOL
	.byte N36, As1 @ v124
	.byte W06
	.byte VOL, 62
	.byte W06
	.byte 64 @ VOL
	.byte W06
	.byte 65 @ VOL
	.byte W06
	.byte 67 @ VOL
	.byte W06
	.byte 68 @ VOL
	.byte W06
	.byte 70 @ VOL
	.byte N36, Bn1 @ v124
	.byte W06
	.byte VOL, 72
	.byte W06
	.byte 73 @ VOL
	.byte W06
	.byte 75 @ VOL
	.byte W06
	.byte 76 @ VOL
	.byte W06
	.byte 78 @ VOL
	.byte W06
	.byte 127 @ VOL
	.byte PAN, c_v-32
	.byte N12, Ds3, v056
	.byte W06
	.byte VOL, 123
	.byte W01
	.byte PAN, c_v-31
	.byte W05
	.byte VOL, 119
	.byte N12, Ds2 @ v056
	.byte W03
	.byte PAN, c_v-30
	.byte W03
	.byte VOL, 115
	.byte W04
	.byte PAN, c_v-29
	.byte W02
	.byte VOL, 111
	.byte N12 @ Ds2, v056
	.byte W06
	.byte VOL, 107
	.byte PAN, c_v-28
	.byte W06
	.byte VOL, 103
	.byte N12, Ds3 @ v056
	.byte W01
	.byte PAN, c_v-27
	.byte W05
	.byte VOL, 99
	.byte W03
	.byte PAN, c_v-26
	.byte W03
	.byte VOL, 95
	.byte N12, Ds2 @ v056
	.byte W04
	.byte PAN, c_v-25
	.byte W02
	.byte VOL, 91
	.byte W06
	.byte 87 @ VOL
	.byte PAN, c_v-24
	.byte N12 @ Ds2, v056
	.byte W06
	.byte VOL, 83
	.byte W01
	.byte PAN, c_v-23
	.byte W05
	.byte VOL, 79
	.byte N12, En3 @ v056
	.byte W03
	.byte PAN, c_v-22
	.byte W03
	.byte VOL, 75
	.byte W04
	.byte PAN, c_v-21
	.byte W02
	.byte VOL, 71
	.byte N12, En2 @ v056
	.byte W06
	.byte VOL, 67
	.byte PAN, c_v-20
	.byte W06
	.byte VOL, 63
	.byte N12, Cs3 @ v056
	.byte W01
	.byte PAN, c_v-19
	.byte W05
	.byte VOL, 59
	.byte W03
	.byte PAN, c_v-18
	.byte W03
	.byte VOL, 55
	.byte N12, Cs2 @ v056
	.byte W04
	.byte PAN, c_v-17
	.byte W02
	.byte VOL, 51
	.byte W06
	.byte 48 @ VOL
	.byte PAN, c_v-16
	.byte N12, Ds3 @ v056
	.byte W06
	.byte VOL, 49
	.byte W01
	.byte PAN, c_v-15
	.byte W05
	.byte VOL, 50
	.byte N12, Ds2 @ v056
	.byte W03
	.byte PAN, c_v-14
	.byte W03
	.byte VOL, 51
	.byte W04
	.byte PAN, c_v-13
	.byte W02
	.byte VOL, 53
	.byte N12 @ Ds2, v056
	.byte W06
	.byte VOL, 54
	.byte PAN, c_v-12
	.byte W06
	.byte VOL, 55
	.byte N12, Ds3 @ v056
	.byte W01
	.byte PAN, c_v-11
	.byte W05
	.byte VOL, 57
	.byte W03
	.byte PAN, c_v-10
	.byte W03
	.byte VOL, 58
	.byte N12, Ds2 @ v056
	.byte W04
	.byte PAN, c_v-9
	.byte W02
	.byte VOL, 59
	.byte W06
	.byte 61 @ VOL
	.byte PAN, c_v-8
	.byte N12 @ Ds2, v056
	.byte W06
	.byte VOL, 62
	.byte W01
	.byte PAN, c_v-7
	.byte W05
	.byte VOL, 63
	.byte N12, En3 @ v056
	.byte W03
	.byte PAN, c_v-6
	.byte W03
	.byte VOL, 65
	.byte W04
	.byte PAN, c_v-5
	.byte W02
	.byte VOL, 66
	.byte N12, En2 @ v056
	.byte W06
	.byte VOL, 67
	.byte PAN, c_v-4
	.byte W06
	.byte VOL, 69
	.byte N12, Cs3 @ v056
	.byte W01
	.byte PAN, c_v-3
	.byte W05
	.byte VOL, 70
	.byte W03
	.byte PAN, c_v-2
	.byte W03
	.byte VOL, 71
	.byte N12, Cs2 @ v056
	.byte W04
	.byte PAN, c_v-1
	.byte W02
	.byte VOL, 73
	.byte W06
	.byte 74 @ VOL
	.byte PAN, c_v
	.byte N12, Ds3 @ v056
	.byte W06
	.byte VOL, 75
	.byte W01
	.byte PAN, c_v+1
	.byte W05
	.byte VOL, 76
	.byte N12, Ds2 @ v056
	.byte W03
	.byte PAN, c_v+2
	.byte W03
	.byte VOL, 78
	.byte W04
	.byte PAN, c_v+3
	.byte W02
	.byte VOL, 79
	.byte N12 @ Ds2, v056
	.byte W06
	.byte VOL, 80
	.byte PAN, c_v+4
	.byte W06
	.byte VOL, 82
	.byte N12, Ds3 @ v056
	.byte W01
	.byte PAN, c_v+5
	.byte W05
	.byte VOL, 83
	.byte W03
	.byte PAN, c_v+6
	.byte W03
	.byte VOL, 84
	.byte N12, Ds2 @ v056
	.byte W04
	.byte PAN, c_v+7
	.byte W02
	.byte VOL, 86
	.byte W06
	.byte 87 @ VOL
	.byte PAN, c_v+8
	.byte N12 @ Ds2, v056
	.byte W06
	.byte VOL, 88
	.byte W01
	.byte PAN, c_v+9
	.byte W05
	.byte VOL, 90
	.byte N12, En3 @ v056
	.byte W03
	.byte PAN, c_v+10
	.byte W03
	.byte VOL, 91
	.byte W04
	.byte PAN, c_v+11
	.byte W02
	.byte VOL, 92
	.byte N12, En2 @ v056
	.byte W06
	.byte VOL, 94
	.byte PAN, c_v+12
	.byte W06
	.byte VOL, 95
	.byte N12, Cs3 @ v056
	.byte W01
	.byte PAN, c_v+13
	.byte W05
	.byte VOL, 96
	.byte W03
	.byte PAN, c_v+14
	.byte W03
	.byte VOL, 98
	.byte N12, Cs2 @ v056
	.byte W04
	.byte PAN, c_v+15
	.byte W02
	.byte VOL, 99
	.byte W06
	.byte 100 @ VOL
	.byte PAN, c_v+16
	.byte N12, Ds3 @ v056
	.byte W06
	.byte VOL, 101
	.byte W01
	.byte PAN, c_v+17
	.byte W05
	.byte VOL, 103
	.byte N12, Ds2 @ v056
	.byte W03
	.byte PAN, c_v+18
	.byte W03
	.byte VOL, 104
	.byte W04
	.byte PAN, c_v+19
	.byte W02
	.byte VOL, 105
	.byte N12 @ Ds2, v056
	.byte W06
	.byte VOL, 107
	.byte PAN, c_v+20
	.byte W06
	.byte VOL, 108
	.byte N12, Ds3 @ v056
	.byte W01
	.byte PAN, c_v+21
	.byte W05
	.byte VOL, 109
	.byte W03
	.byte PAN, c_v+22
	.byte W03
	.byte VOL, 111
	.byte N12, Ds2 @ v056
	.byte W04
	.byte PAN, c_v+23
	.byte W02
	.byte VOL, 112
	.byte W06
	.byte 113 @ VOL
	.byte PAN, c_v+24
	.byte N12 @ Ds2, v056
	.byte W06
	.byte VOL, 115
	.byte W01
	.byte PAN, c_v+25
	.byte W05
	.byte VOL, 116
	.byte N12, En3 @ v056
	.byte W03
	.byte PAN, c_v+26
	.byte W03
	.byte VOL, 117
	.byte W04
	.byte PAN, c_v+27
	.byte W02
	.byte VOL, 119
	.byte N12, En2 @ v056
	.byte W06
	.byte VOL, 120
	.byte PAN, c_v+28
	.byte W06
	.byte VOL, 121
	.byte N12, Cs3 @ v056
	.byte W01
	.byte PAN, c_v+29
	.byte W05
	.byte VOL, 123
	.byte W03
	.byte PAN, c_v+30
	.byte W03
	.byte VOL, 124
	.byte N12, Cs2 @ v056
	.byte W04
	.byte PAN, c_v+31
	.byte W02
	.byte VOL, 125
	.byte W06
	.byte 127 @ VOL
	.byte N12, Cn3 @ v056
	.byte W01
	.byte PAN, c_v+31
	.byte W05
	.byte VOL, 123
	.byte W06
	.byte 119 @ VOL
	.byte N12, Cn2 @ v056
	.byte W03
	.byte PAN, c_v+30
	.byte W01
	.byte c_v+29 @ PAN
	.byte W02
	.byte VOL, 115
	.byte W06
	.byte 111 @ VOL
	.byte N12 @ Cn2, v056
	.byte W06
	.byte VOL, 107
	.byte PAN, c_v+28
	.byte W01
	.byte c_v+27 @ PAN
	.byte W05
	.byte VOL, 103
	.byte N12, Cn3 @ v056
	.byte W06
	.byte VOL, 99
	.byte W03
	.byte PAN, c_v+26
	.byte W01
	.byte c_v+25 @ PAN
	.byte W02
	.byte VOL, 95
	.byte N12, Cn2 @ v056
	.byte W06
	.byte VOL, 91
	.byte W06
	.byte PATT
		.word track_56_lbl_276dc7
	.byte PATT
		.word track_56_lbl_276e02
	.byte PATT
		.word track_56_lbl_276e3c
	.byte PATT
		.word track_56_lbl_276e77
	.byte PATT
		.word track_56_lbl_276eb1
	.byte PATT
		.word track_56_lbl_276eec
	.byte PATT
		.word track_56_lbl_276f26
	.byte VOICE, 26
	.byte VOL, 48
	.byte PAN, c_v-32
	.byte N72, Ds1, v124
	.byte W36
	.byte W36
	.byte Cn1 @ N72, v124
	.byte W36
	.byte W36
	.byte Ds1 @ N72, v124
	.byte W36
	.byte W36
	.byte Fs1 @ N72, v124
	.byte W36
	.byte W36
	.byte An1 @ N72, v124
	.byte W36
	.byte W36
	.byte Fs1 @ N72, v124
	.byte W36
	.byte W36
	.byte An1 @ N72, v124
	.byte W36
	.byte W36
	.byte Cn2 @ N72, v124
	.byte W36
	.byte VOL, 48
	.byte W06
	.byte 49 @ VOL
	.byte W06
	.byte 50 @ VOL
	.byte W06
	.byte 52 @ VOL
	.byte W06
	.byte 53 @ VOL
	.byte W06
	.byte 55 @ VOL
	.byte W06
	.byte 56 @ VOL
	.byte N36, Ds2, v127
	.byte W06
	.byte VOL, 58
	.byte W06
	.byte 59 @ VOL
	.byte W06
	.byte 61 @ VOL
	.byte W06
	.byte 62 @ VOL
	.byte W06
	.byte 64 @ VOL
	.byte W06
	.byte 65 @ VOL
	.byte N24, Fs2 @ v127
	.byte W06
	.byte VOL, 66
	.byte W06
	.byte 68 @ VOL
	.byte W06
	.byte 69 @ VOL
	.byte W06
	.byte 71 @ VOL
	.byte N36, An2 @ v127
	.byte W06
	.byte VOL, 72
	.byte W06
	.byte 74 @ VOL
	.byte W06
	.byte 75 @ VOL
	.byte W06
	.byte 77 @ VOL
	.byte W06
	.byte 78 @ VOL
	.byte W06
	.byte VOICE, 26
	.byte VOL, 127
	.byte PAN, c_v-32
	.byte N12, Cn3, v056
	.byte W06
	.byte VOL, 123
	.byte W01
	.byte PAN, c_v-31
	.byte W05
	.byte VOL, 119
	.byte N12, Cn2 @ v056
	.byte W03
	.byte PAN, c_v-30
	.byte W03
	.byte VOL, 115
	.byte W04
	.byte PAN, c_v-29
	.byte W02
	.byte VOL, 111
	.byte N12 @ Cn2, v056
	.byte W06
	.byte VOL, 107
	.byte PAN, c_v-28
	.byte W06
	.byte VOL, 103
	.byte N12, Cn3 @ v056
	.byte W01
	.byte PAN, c_v-27
	.byte W05
	.byte VOL, 99
	.byte W03
	.byte PAN, c_v-26
	.byte W03
	.byte VOL, 95
	.byte N12, Cn2 @ v056
	.byte W04
	.byte PAN, c_v-25
	.byte W02
	.byte VOL, 91
	.byte W06
	.byte 87 @ VOL
	.byte PAN, c_v-24
	.byte N12 @ Cn2, v056
	.byte W06
	.byte VOL, 83
	.byte W01
	.byte PAN, c_v-23
	.byte W05
	.byte VOL, 79
	.byte N12, Cs3 @ v056
	.byte W03
	.byte PAN, c_v-22
	.byte W03
	.byte VOL, 75
	.byte W04
	.byte PAN, c_v-21
	.byte W02
	.byte VOL, 71
	.byte N12, Cs2 @ v056
	.byte W06
	.byte VOL, 67
	.byte PAN, c_v-20
	.byte W06
	.byte VOL, 63
	.byte N12, As2 @ v056
	.byte W01
	.byte PAN, c_v-19
	.byte W05
	.byte VOL, 59
	.byte W03
	.byte PAN, c_v-18
	.byte W03
	.byte VOL, 55
	.byte N12, As1 @ v056
	.byte W04
	.byte PAN, c_v-17
	.byte W02
	.byte VOL, 51
	.byte W06
	.byte 48 @ VOL
	.byte PAN, c_v-16
	.byte N12, Cn3 @ v056
	.byte W06
	.byte VOL, 49
	.byte W01
	.byte PAN, c_v-15
	.byte W05
	.byte VOL, 50
	.byte N12, Cn2 @ v056
	.byte W03
	.byte PAN, c_v-14
	.byte W03
	.byte VOL, 51
	.byte W04
	.byte PAN, c_v-13
	.byte W02
	.byte VOL, 53
	.byte N12 @ Cn2, v056
	.byte W06
	.byte VOL, 54
	.byte PAN, c_v-12
	.byte W06
	.byte VOL, 55
	.byte N12, Cn3 @ v056
	.byte W01
	.byte PAN, c_v-11
	.byte W05
	.byte VOL, 57
	.byte W03
	.byte PAN, c_v-10
	.byte W03
	.byte VOL, 58
	.byte N12, Cn2 @ v056
	.byte W04
	.byte PAN, c_v-9
	.byte W02
	.byte VOL, 59
	.byte W06
	.byte 61 @ VOL
	.byte PAN, c_v-8
	.byte N12 @ Cn2, v056
	.byte W06
	.byte VOL, 62
	.byte W01
	.byte PAN, c_v-7
	.byte W05
	.byte VOL, 63
	.byte N12, Cs3 @ v056
	.byte W03
	.byte PAN, c_v-6
	.byte W03
	.byte VOL, 65
	.byte W04
	.byte PAN, c_v-5
	.byte W02
	.byte VOL, 66
	.byte N12, Cs2 @ v056
	.byte W06
	.byte VOL, 67
	.byte PAN, c_v-4
	.byte W06
	.byte VOL, 69
	.byte N12, As2 @ v056
	.byte W01
	.byte PAN, c_v-3
	.byte W05
	.byte VOL, 70
	.byte W03
	.byte PAN, c_v-2
	.byte W03
	.byte VOL, 71
	.byte N12, As1 @ v056
	.byte W04
	.byte PAN, c_v-1
	.byte W02
	.byte VOL, 73
	.byte W06
	.byte 74 @ VOL
	.byte PAN, c_v
	.byte N12, Cn3 @ v056
	.byte W06
	.byte VOL, 75
	.byte W01
	.byte PAN, c_v+1
	.byte W05
	.byte VOL, 76
	.byte N12, Cn2 @ v056
	.byte W03
	.byte PAN, c_v+2
	.byte W03
	.byte VOL, 78
	.byte W04
	.byte PAN, c_v+3
	.byte W02
	.byte VOL, 79
	.byte N12 @ Cn2, v056
	.byte W06
	.byte VOL, 80
	.byte PAN, c_v+4
	.byte W06
	.byte VOL, 82
	.byte N12, Cn3 @ v056
	.byte W01
	.byte PAN, c_v+5
	.byte W05
	.byte VOL, 83
	.byte W03
	.byte PAN, c_v+6
	.byte W03
	.byte VOL, 84
	.byte N12, Cn2 @ v056
	.byte W04
	.byte PAN, c_v+7
	.byte W02
	.byte VOL, 86
	.byte W06
	.byte 87 @ VOL
	.byte PAN, c_v+8
	.byte N12 @ Cn2, v056
	.byte W06
	.byte VOL, 88
	.byte W01
	.byte PAN, c_v+9
	.byte W05
	.byte VOL, 90
	.byte N12, Cs3 @ v056
	.byte W03
	.byte PAN, c_v+10
	.byte W03
	.byte VOL, 91
	.byte W04
	.byte PAN, c_v+11
	.byte W02
	.byte VOL, 92
	.byte N12, Cs2 @ v056
	.byte W06
	.byte VOL, 94
	.byte PAN, c_v+12
	.byte W06
	.byte VOL, 95
	.byte N12, As2 @ v056
	.byte W01
	.byte PAN, c_v+13
	.byte W05
	.byte VOL, 96
	.byte W03
	.byte PAN, c_v+14
	.byte W03
	.byte VOL, 98
	.byte N12, As1 @ v056
	.byte W04
	.byte PAN, c_v+15
	.byte W02
	.byte VOL, 99
	.byte W06
	.byte 100 @ VOL
	.byte PAN, c_v+16
	.byte N12, Cn3 @ v056
	.byte W06
	.byte VOL, 101
	.byte W01
	.byte PAN, c_v+17
	.byte W05
	.byte VOL, 103
	.byte N12, Cn2 @ v056
	.byte W03
	.byte PAN, c_v+18
	.byte W03
	.byte VOL, 104
	.byte W04
	.byte PAN, c_v+19
	.byte W02
	.byte VOL, 105
	.byte N12 @ Cn2, v056
	.byte W06
	.byte VOL, 107
	.byte PAN, c_v+20
	.byte W06
	.byte VOL, 108
	.byte N12, Cn3 @ v056
	.byte W01
	.byte PAN, c_v+21
	.byte W05
	.byte VOL, 109
	.byte W03
	.byte PAN, c_v+22
	.byte W03
	.byte VOL, 111
	.byte N12, Cn2 @ v056
	.byte W04
	.byte PAN, c_v+23
	.byte W02
	.byte VOL, 112
	.byte W06
	.byte 113 @ VOL
	.byte PAN, c_v+24
	.byte N12 @ Cn2, v056
	.byte W06
	.byte VOL, 115
	.byte W01
	.byte PAN, c_v+25
	.byte W05
	.byte VOL, 116
	.byte N12, Cs3 @ v056
	.byte W03
	.byte PAN, c_v+26
	.byte W03
	.byte VOL, 117
	.byte W04
	.byte PAN, c_v+27
	.byte W02
	.byte VOL, 119
	.byte N12, Cs2 @ v056
	.byte W06
	.byte VOL, 120
	.byte PAN, c_v+28
	.byte W06
	.byte VOL, 121
	.byte N12, As2 @ v056
	.byte W01
	.byte PAN, c_v+29
	.byte W05
	.byte VOL, 123
	.byte W03
	.byte PAN, c_v+30
	.byte W03
	.byte VOL, 124
	.byte N12, As1 @ v056
	.byte W04
	.byte PAN, c_v+31
	.byte W02
	.byte VOL, 125
	.byte W06
	.byte VOICE, 26
	.byte VOL, 127
	.byte N12, Cn3 @ v056
	.byte W01
	.byte PAN, c_v+31
	.byte W05
	.byte VOL, 123
	.byte W06
	.byte 119 @ VOL
	.byte N12, Cn2 @ v056
	.byte W03
	.byte PAN, c_v+30
	.byte W01
	.byte c_v+29 @ PAN
	.byte W02
	.byte VOL, 115
	.byte W06
	.byte 111 @ VOL
	.byte N12 @ Cn2, v056
	.byte W06
	.byte VOL, 107
	.byte PAN, c_v+28
	.byte W01
	.byte c_v+27 @ PAN
	.byte W05
	.byte VOL, 103
	.byte N12, Cn3 @ v056
	.byte W06
	.byte VOL, 99
	.byte W03
	.byte PAN, c_v+26
	.byte W01
	.byte c_v+25 @ PAN
	.byte W02
	.byte VOL, 95
	.byte N12, Cn2 @ v056
	.byte W06
	.byte VOL, 91
	.byte W06
	.byte PATT
		.word track_56_lbl_276dc7
	.byte PATT
		.word track_56_lbl_276e02
	.byte PATT
		.word track_56_lbl_276e3c
	.byte PATT
		.word track_56_lbl_276e77
	.byte PATT
		.word track_56_lbl_276eb1
	.byte PATT
		.word track_56_lbl_276eec
	.byte PATT
		.word track_56_lbl_276f26
	.byte GOTO
		.word track_56_lbl_276f61
	.byte PAN, c_v-32
	.byte FINE

track_56_3:
	.byte KEYSH, 0
	.byte VOICE, 30
	.byte VOL, 127
	.byte PAN, c_v-32
	.byte PRIO, 110
	.byte N08, Cn3, v076
	.byte W06
	.byte VOL, 123
	.byte W01
	.byte PAN, c_v-31
	.byte W05
	.byte VOL, 119
	.byte W03
	.byte PAN, c_v-30
	.byte W03
	.byte VOL, 115
	.byte W04
	.byte PAN, c_v-29
	.byte W02
	.byte VOL, 111
	.byte N08, Cn3, v020
	.byte W06
	.byte VOL, 107
	.byte PAN, c_v-28
	.byte W06
	.byte VOICE, 29
	.byte VOL, 103
	.byte N08, Cn3, v076
	.byte W01
	.byte PAN, c_v-27
	.byte W05
	.byte VOL, 99
	.byte W03
	.byte PAN, c_v-26
	.byte W03
	.byte VOL, 95
	.byte W04
	.byte PAN, c_v-25
	.byte W02
	.byte VOL, 91
	.byte W06
track_56_lbl_2774bb:
	.byte VOL, 87
	.byte PAN, c_v-24
	.byte N08, Cn3, v020
	.byte W06
	.byte VOL, 83
	.byte W01
	.byte PAN, c_v-23
	.byte W05
	.byte VOL, 79
	.byte N08, Cs3, v076
	.byte W03
	.byte PAN, c_v-22
	.byte W03
	.byte VOL, 75
	.byte W04
	.byte PAN, c_v-21
	.byte W02
	.byte VOL, 71
	.byte W06
	.byte 67 @ VOL
	.byte PAN, c_v-20
	.byte W06
	.byte VOL, 63
	.byte N08, As2 @ v076
	.byte W01
	.byte PAN, c_v-19
	.byte W05
	.byte VOL, 59
	.byte W03
	.byte PAN, c_v-18
	.byte W03
	.byte VOL, 55
	.byte W04
	.byte PAN, c_v-17
	.byte W02
	.byte VOL, 51
	.byte W06
	.byte PEND
track_56_lbl_2774f7:
	.byte VOL, 48
	.byte PAN, c_v-16
	.byte N08, Cn3, v076
	.byte W06
	.byte VOL, 49
	.byte W01
	.byte PAN, c_v-15
	.byte W05
	.byte VOICE, 30
	.byte VOL, 50
	.byte W03
	.byte PAN, c_v-14
	.byte W03
	.byte VOL, 51
	.byte W04
	.byte PAN, c_v-13
	.byte W02
	.byte VOL, 53
	.byte N08, Cn3, v020
	.byte W06
	.byte VOL, 54
	.byte PAN, c_v-12
	.byte W06
	.byte VOL, 55
	.byte N08, Cn3, v076
	.byte W01
	.byte PAN, c_v-11
	.byte W05
	.byte VOL, 57
	.byte W03
	.byte PAN, c_v-10
	.byte W03
	.byte VOL, 58
	.byte W04
	.byte PAN, c_v-9
	.byte W02
	.byte VOL, 59
	.byte W06
	.byte PEND
track_56_lbl_277537:
	.byte VOL, 61
	.byte PAN, c_v-8
	.byte N08, Cn3, v020
	.byte W06
	.byte VOL, 62
	.byte W01
	.byte PAN, c_v-7
	.byte W05
	.byte VOL, 63
	.byte N08, Cs3, v076
	.byte W03
	.byte PAN, c_v-6
	.byte W03
	.byte VOL, 65
	.byte W04
	.byte PAN, c_v-5
	.byte W02
	.byte VOL, 66
	.byte W06
	.byte 67 @ VOL
	.byte PAN, c_v-4
	.byte W06
	.byte VOL, 69
	.byte N08, As2 @ v076
	.byte W01
	.byte PAN, c_v-3
	.byte W05
	.byte VOL, 70
	.byte W03
	.byte PAN, c_v-2
	.byte W03
	.byte VOL, 71
	.byte W04
	.byte PAN, c_v-1
	.byte W02
	.byte VOL, 73
	.byte W06
	.byte PEND
track_56_lbl_277573:
	.byte VOL, 74
	.byte PAN, c_v
	.byte N08, Cn3, v076
	.byte W06
	.byte VOL, 75
	.byte W01
	.byte PAN, c_v+1
	.byte W05
	.byte VOL, 76
	.byte W03
	.byte PAN, c_v+2
	.byte W03
	.byte VOL, 78
	.byte W04
	.byte PAN, c_v+3
	.byte W02
	.byte VOICE, 31
	.byte VOL, 79
	.byte N08, Cn3, v020
	.byte W06
	.byte VOL, 80
	.byte PAN, c_v+4
	.byte W06
	.byte VOL, 82
	.byte N08, Cn3, v076
	.byte W01
	.byte PAN, c_v+5
	.byte W05
	.byte VOL, 83
	.byte W03
	.byte PAN, c_v+6
	.byte W03
	.byte VOL, 84
	.byte W04
	.byte PAN, c_v+7
	.byte W02
	.byte VOL, 86
	.byte W06
	.byte PEND
track_56_lbl_2775b3:
	.byte VOL, 87
	.byte PAN, c_v+8
	.byte N08, Cn3, v020
	.byte W06
	.byte VOL, 88
	.byte W01
	.byte PAN, c_v+9
	.byte W05
	.byte VOL, 90
	.byte N08, Cs3, v076
	.byte W03
	.byte PAN, c_v+10
	.byte W03
	.byte VOL, 91
	.byte W04
	.byte PAN, c_v+11
	.byte W02
	.byte VOL, 92
	.byte W06
	.byte 94 @ VOL
	.byte PAN, c_v+12
	.byte W06
	.byte VOL, 95
	.byte N08, As2 @ v076
	.byte W01
	.byte PAN, c_v+13
	.byte W05
	.byte VOL, 96
	.byte W03
	.byte PAN, c_v+14
	.byte W03
	.byte VOL, 98
	.byte W04
	.byte PAN, c_v+15
	.byte W02
	.byte VOL, 99
	.byte W06
	.byte PEND
track_56_lbl_2775ef:
	.byte VOL, 100
	.byte PAN, c_v+16
	.byte N08, Cn3, v076
	.byte W06
	.byte VOL, 101
	.byte W01
	.byte PAN, c_v+17
	.byte W05
	.byte VOL, 103
	.byte W03
	.byte PAN, c_v+18
	.byte W03
	.byte VOL, 104
	.byte W04
	.byte PAN, c_v+19
	.byte W02
	.byte VOICE, 30
	.byte VOL, 105
	.byte N08, Cn3, v020
	.byte W06
	.byte VOL, 107
	.byte PAN, c_v+20
	.byte W06
	.byte VOL, 108
	.byte N08, Cn3, v076
	.byte W01
	.byte PAN, c_v+21
	.byte W05
	.byte VOL, 109
	.byte W03
	.byte PAN, c_v+22
	.byte W03
	.byte VOL, 111
	.byte W04
	.byte PAN, c_v+23
	.byte W02
	.byte VOL, 112
	.byte W06
	.byte PEND
track_56_lbl_27762f:
	.byte VOL, 113
	.byte PAN, c_v+24
	.byte N08, Cn3, v020
	.byte W06
	.byte VOL, 115
	.byte W01
	.byte PAN, c_v+25
	.byte W05
	.byte VOICE, 29
	.byte VOL, 116
	.byte N08, Cs3, v076
	.byte W03
	.byte PAN, c_v+26
	.byte W03
	.byte VOL, 117
	.byte W04
	.byte PAN, c_v+27
	.byte W02
	.byte VOL, 119
	.byte W06
	.byte 120 @ VOL
	.byte PAN, c_v+28
	.byte W06
	.byte VOICE, 28
	.byte VOL, 121
	.byte N08, As2 @ v076
	.byte W01
	.byte PAN, c_v+29
	.byte W05
	.byte VOL, 123
	.byte W03
	.byte PAN, c_v+30
	.byte W03
	.byte VOL, 124
	.byte W04
	.byte PAN, c_v+31
	.byte W02
	.byte VOL, 125
	.byte W06
	.byte PEND
track_56_lbl_27766f:
	.byte VOICE, 24
	.byte MOD, 3
	.byte VOL, 48
	.byte PAN, c_v+32
	.byte LFOS, 64
	.byte LFODL, 20
	.byte N96, Fs3, v096
	.byte W48
	.byte W48
	.byte Gn3 @ N96, v096
	.byte W48
	.byte W48
	.byte Gs3 @ N96, v096
	.byte W48
	.byte VOL, 48
	.byte W06
	.byte 49 @ VOL
	.byte W06
	.byte 51 @ VOL
	.byte W06
	.byte 52 @ VOL
	.byte W06
	.byte 54 @ VOL
	.byte W06
	.byte 56 @ VOL
	.byte W06
	.byte 57 @ VOL
	.byte W06
	.byte 59 @ VOL
	.byte W06
	.byte 60 @ VOL
	.byte N36, An3 @ v096
	.byte W06
	.byte VOL, 62
	.byte W06
	.byte 64 @ VOL
	.byte W06
	.byte 65 @ VOL
	.byte W06
	.byte 67 @ VOL
	.byte W06
	.byte 68 @ VOL
	.byte W06
	.byte 70 @ VOL
	.byte N36, As3 @ v096
	.byte W06
	.byte VOL, 72
	.byte W06
	.byte 73 @ VOL
	.byte W06
	.byte 75 @ VOL
	.byte W06
	.byte 76 @ VOL
	.byte W06
	.byte 78 @ VOL
	.byte W06
	.byte 127 @ VOL
	.byte PAN, c_v+32
	.byte N08, Ds3, v076
	.byte W01
	.byte PAN, c_v+31
	.byte W05
	.byte VOL, 123
	.byte W06
	.byte 119 @ VOL
	.byte W03
	.byte PAN, c_v+30
	.byte W01
	.byte c_v+29 @ PAN
	.byte W02
	.byte VOL, 115
	.byte W06
	.byte 111 @ VOL
	.byte N08, Ds3, v020
	.byte W06
	.byte VOL, 107
	.byte PAN, c_v+28
	.byte W01
	.byte c_v+27 @ PAN
	.byte W05
	.byte VOICE, 29
	.byte VOL, 103
	.byte N08, Ds3, v076
	.byte W06
	.byte VOL, 99
	.byte W03
	.byte PAN, c_v+26
	.byte W01
	.byte c_v+25 @ PAN
	.byte W02
	.byte VOL, 95
	.byte W06
	.byte 91 @ VOL
	.byte W06
	.byte 87 @ VOL
	.byte PAN, c_v+24
	.byte N08, Ds3, v020
	.byte W01
	.byte PAN, c_v+23
	.byte W05
	.byte VOL, 83
	.byte W06
	.byte 79 @ VOL
	.byte N08, En3, v076
	.byte W03
	.byte PAN, c_v+22
	.byte W01
	.byte c_v+21 @ PAN
	.byte W02
	.byte VOL, 75
	.byte W06
	.byte 71 @ VOL
	.byte W06
	.byte 67 @ VOL
	.byte PAN, c_v+20
	.byte W01
	.byte c_v+19 @ PAN
	.byte W05
	.byte VOL, 63
	.byte N08, Cs3 @ v076
	.byte W06
	.byte VOL, 59
	.byte W03
	.byte PAN, c_v+18
	.byte W01
	.byte c_v+17 @ PAN
	.byte W02
	.byte VOL, 55
	.byte W06
	.byte 51 @ VOL
	.byte W06
	.byte 48 @ VOL
	.byte PAN, c_v+16
	.byte N08, Ds3 @ v076
	.byte W01
	.byte PAN, c_v+15
	.byte W05
	.byte VOL, 49
	.byte W06
	.byte VOICE, 30
	.byte VOL, 50
	.byte W03
	.byte PAN, c_v+14
	.byte W01
	.byte c_v+13 @ PAN
	.byte W02
	.byte VOL, 51
	.byte W06
	.byte 53 @ VOL
	.byte N08, Ds3, v020
	.byte W06
	.byte VOL, 54
	.byte PAN, c_v+12
	.byte W01
	.byte c_v+11 @ PAN
	.byte W05
	.byte VOL, 55
	.byte N08, Ds3, v076
	.byte W06
	.byte VOL, 57
	.byte W03
	.byte PAN, c_v+10
	.byte W01
	.byte c_v+9 @ PAN
	.byte W02
	.byte VOL, 58
	.byte W06
	.byte 59 @ VOL
	.byte W06
	.byte 61 @ VOL
	.byte PAN, c_v+8
	.byte N08, Ds3, v020
	.byte W01
	.byte PAN, c_v+7
	.byte W05
	.byte VOL, 62
	.byte W06
	.byte 63 @ VOL
	.byte N08, En3, v076
	.byte W03
	.byte PAN, c_v+6
	.byte W01
	.byte c_v+5 @ PAN
	.byte W02
	.byte VOL, 65
	.byte W06
	.byte 66 @ VOL
	.byte W06
	.byte 67 @ VOL
	.byte PAN, c_v+4
	.byte W01
	.byte c_v+3 @ PAN
	.byte W05
	.byte VOL, 69
	.byte N08, Cs3 @ v076
	.byte W06
	.byte VOL, 70
	.byte W03
	.byte PAN, c_v+2
	.byte W01
	.byte c_v+1 @ PAN
	.byte W02
	.byte VOL, 71
	.byte W06
	.byte 73 @ VOL
	.byte W06
	.byte 74 @ VOL
	.byte PAN, c_v
	.byte N08, Ds3 @ v076
	.byte W01
	.byte PAN, c_v-1
	.byte W05
	.byte VOL, 75
	.byte W06
	.byte 76 @ VOL
	.byte W03
	.byte PAN, c_v-2
	.byte W01
	.byte c_v-3 @ PAN
	.byte W02
	.byte VOL, 78
	.byte W06
	.byte VOICE, 31
	.byte VOL, 79
	.byte N08, Ds3, v020
	.byte W06
	.byte VOL, 80
	.byte PAN, c_v-4
	.byte W01
	.byte c_v-5 @ PAN
	.byte W05
	.byte VOL, 82
	.byte N08, Ds3, v076
	.byte W06
	.byte VOL, 83
	.byte W03
	.byte PAN, c_v-6
	.byte W01
	.byte c_v-7 @ PAN
	.byte W02
	.byte VOL, 84
	.byte W06
	.byte 86 @ VOL
	.byte W06
	.byte 87 @ VOL
	.byte PAN, c_v-8
	.byte N08, Ds3, v020
	.byte W01
	.byte PAN, c_v-9
	.byte W05
	.byte VOL, 88
	.byte W06
	.byte 90 @ VOL
	.byte N08, En3, v076
	.byte W03
	.byte PAN, c_v-10
	.byte W01
	.byte c_v-11 @ PAN
	.byte W02
	.byte VOL, 91
	.byte W06
	.byte 92 @ VOL
	.byte W06
	.byte 94 @ VOL
	.byte PAN, c_v-12
	.byte W01
	.byte c_v-13 @ PAN
	.byte W05
	.byte VOL, 95
	.byte N08, Cs3 @ v076
	.byte W06
	.byte VOL, 96
	.byte W03
	.byte PAN, c_v-14
	.byte W01
	.byte c_v-15 @ PAN
	.byte W02
	.byte VOL, 98
	.byte W06
	.byte 99 @ VOL
	.byte W06
	.byte 100 @ VOL
	.byte PAN, c_v-16
	.byte N08, Ds3 @ v076
	.byte W01
	.byte PAN, c_v-17
	.byte W05
	.byte VOL, 101
	.byte W06
	.byte 103 @ VOL
	.byte W03
	.byte PAN, c_v-18
	.byte W01
	.byte c_v-19 @ PAN
	.byte W02
	.byte VOL, 104
	.byte W06
	.byte VOICE, 30
	.byte VOL, 105
	.byte N08, Ds3, v020
	.byte W06
	.byte VOL, 107
	.byte PAN, c_v-20
	.byte W01
	.byte c_v-21 @ PAN
	.byte W05
	.byte VOL, 108
	.byte N08, Ds3, v076
	.byte W06
	.byte VOL, 109
	.byte W03
	.byte PAN, c_v-22
	.byte W01
	.byte c_v-23 @ PAN
	.byte W02
	.byte VOL, 111
	.byte W06
	.byte 112 @ VOL
	.byte W06
	.byte 113 @ VOL
	.byte PAN, c_v-24
	.byte N08, Ds3, v020
	.byte W01
	.byte PAN, c_v-25
	.byte W05
	.byte VOL, 115
	.byte W06
	.byte VOICE, 29
	.byte VOL, 116
	.byte N08, En3, v076
	.byte W03
	.byte PAN, c_v-26
	.byte W01
	.byte c_v-27 @ PAN
	.byte W02
	.byte VOL, 117
	.byte W06
	.byte 119 @ VOL
	.byte W06
	.byte 120 @ VOL
	.byte PAN, c_v-28
	.byte W01
	.byte c_v-29 @ PAN
	.byte W05
	.byte VOICE, 28
	.byte VOL, 121
	.byte N08, Cs3 @ v076
	.byte W06
	.byte VOL, 123
	.byte W03
	.byte PAN, c_v-30
	.byte W01
	.byte c_v-31 @ PAN
	.byte W02
	.byte VOL, 124
	.byte W06
	.byte 125 @ VOL
	.byte W06
	.byte 127 @ VOL
	.byte N08, Cn3 @ v076
	.byte W06
	.byte VOL, 123
	.byte W01
	.byte PAN, c_v-31
	.byte W05
	.byte VOL, 119
	.byte W03
	.byte PAN, c_v-30
	.byte W03
	.byte VOL, 115
	.byte W04
	.byte PAN, c_v-29
	.byte W02
	.byte VOL, 111
	.byte N08, Cn3, v020
	.byte W06
	.byte VOL, 107
	.byte PAN, c_v-28
	.byte W06
	.byte VOICE, 29
	.byte VOL, 103
	.byte N08, Cn3, v076
	.byte W01
	.byte PAN, c_v-27
	.byte W05
	.byte VOL, 99
	.byte W03
	.byte PAN, c_v-26
	.byte W03
	.byte VOL, 95
	.byte W04
	.byte PAN, c_v-25
	.byte W02
	.byte VOL, 91
	.byte W06
	.byte PATT
		.word track_56_lbl_2774bb
	.byte PATT
		.word track_56_lbl_2774f7
	.byte PATT
		.word track_56_lbl_277537
	.byte PATT
		.word track_56_lbl_277573
	.byte PATT
		.word track_56_lbl_2775b3
	.byte PATT
		.word track_56_lbl_2775ef
	.byte PATT
		.word track_56_lbl_27762f
	.byte VOICE, 24
	.byte MOD, 0
	.byte VOL, 48
	.byte PAN, c_v+32
	.byte LFOS, 0
	.byte LFODL, 0
	.byte N72, Cn3, v088
	.byte W36
	.byte W36
	.byte Ds3 @ N72, v088
	.byte W36
	.byte W36
	.byte Fs3 @ N72, v088
	.byte W36
	.byte W36
	.byte An3 @ N72, v088
	.byte W36
	.byte W36
	.byte N72 @ An3, v088
	.byte W36
	.byte W36
	.byte Fs3 @ N72, v088
	.byte W36
	.byte W36
	.byte An3 @ N72, v088
	.byte W36
	.byte W36
	.byte Cn4 @ N72, v088
	.byte W36
	.byte VOL, 48
	.byte W06
	.byte 49 @ VOL
	.byte W06
	.byte 50 @ VOL
	.byte W06
	.byte 52 @ VOL
	.byte W06
	.byte 53 @ VOL
	.byte W06
	.byte 55 @ VOL
	.byte W06
	.byte MOD, 3
	.byte VOL, 56
	.byte LFOS, 64
	.byte LFODL, 20
	.byte N36, Ds4 @ v088
	.byte W06
	.byte VOL, 58
	.byte W06
	.byte 59 @ VOL
	.byte W06
	.byte 61 @ VOL
	.byte W06
	.byte 62 @ VOL
	.byte W06
	.byte 64 @ VOL
	.byte W06
	.byte 65 @ VOL
	.byte N24, Fs4 @ v088
	.byte W06
	.byte VOL, 66
	.byte W06
	.byte 68 @ VOL
	.byte W06
	.byte 69 @ VOL
	.byte W06
	.byte 71 @ VOL
	.byte N36, An4 @ v088
	.byte W06
	.byte VOL, 72
	.byte W06
	.byte 74 @ VOL
	.byte W06
	.byte 75 @ VOL
	.byte W06
	.byte 77 @ VOL
	.byte W06
	.byte 78 @ VOL
	.byte W06
	.byte VOICE, 30
	.byte VOL, 127
	.byte PAN, c_v+32
	.byte N08, Cn3, v076
	.byte W01
	.byte PAN, c_v+31
	.byte W05
	.byte VOL, 123
	.byte W06
	.byte 119 @ VOL
	.byte W03
	.byte PAN, c_v+30
	.byte W01
	.byte c_v+29 @ PAN
	.byte W02
	.byte VOL, 115
	.byte W06
	.byte 111 @ VOL
	.byte N08, Cn3, v020
	.byte W06
	.byte VOL, 107
	.byte PAN, c_v+28
	.byte W01
	.byte c_v+27 @ PAN
	.byte W05
	.byte VOICE, 29
	.byte VOL, 103
	.byte N08, Cn3, v076
	.byte W06
	.byte VOL, 99
	.byte W03
	.byte PAN, c_v+26
	.byte W01
	.byte c_v+25 @ PAN
	.byte W02
	.byte VOL, 95
	.byte W06
	.byte 91 @ VOL
	.byte W06
	.byte 87 @ VOL
	.byte PAN, c_v+24
	.byte N08, Cn3, v020
	.byte W01
	.byte PAN, c_v+23
	.byte W05
	.byte VOL, 83
	.byte W06
	.byte 79 @ VOL
	.byte N08, Cs3, v076
	.byte W03
	.byte PAN, c_v+22
	.byte W01
	.byte c_v+21 @ PAN
	.byte W02
	.byte VOL, 75
	.byte W06
	.byte 71 @ VOL
	.byte W06
	.byte 67 @ VOL
	.byte PAN, c_v+20
	.byte W01
	.byte c_v+19 @ PAN
	.byte W05
	.byte VOL, 63
	.byte N08, As2 @ v076
	.byte W06
	.byte VOL, 59
	.byte W03
	.byte PAN, c_v+18
	.byte W01
	.byte c_v+17 @ PAN
	.byte W02
	.byte VOL, 55
	.byte W06
	.byte 51 @ VOL
	.byte W06
	.byte 48 @ VOL
	.byte PAN, c_v+16
	.byte N08, Cn3 @ v076
	.byte W01
	.byte PAN, c_v+15
	.byte W05
	.byte VOL, 49
	.byte W06
	.byte VOICE, 30
	.byte VOL, 50
	.byte W03
	.byte PAN, c_v+14
	.byte W01
	.byte c_v+13 @ PAN
	.byte W02
	.byte VOL, 51
	.byte W06
	.byte 53 @ VOL
	.byte N08, Cn3, v020
	.byte W06
	.byte VOL, 54
	.byte PAN, c_v+12
	.byte W01
	.byte c_v+11 @ PAN
	.byte W05
	.byte VOL, 55
	.byte N08, Cn3, v076
	.byte W06
	.byte VOL, 57
	.byte W03
	.byte PAN, c_v+10
	.byte W01
	.byte c_v+9 @ PAN
	.byte W02
	.byte VOL, 58
	.byte W06
	.byte 59 @ VOL
	.byte W06
	.byte 61 @ VOL
	.byte PAN, c_v+8
	.byte N08, Cn3, v020
	.byte W01
	.byte PAN, c_v+7
	.byte W05
	.byte VOL, 62
	.byte W06
	.byte 63 @ VOL
	.byte N08, Cs3, v076
	.byte W03
	.byte PAN, c_v+6
	.byte W01
	.byte c_v+5 @ PAN
	.byte W02
	.byte VOL, 65
	.byte W06
	.byte 66 @ VOL
	.byte W06
	.byte 67 @ VOL
	.byte PAN, c_v+4
	.byte W01
	.byte c_v+3 @ PAN
	.byte W05
	.byte VOL, 69
	.byte N08, As2 @ v076
	.byte W06
	.byte VOL, 70
	.byte W03
	.byte PAN, c_v+2
	.byte W01
	.byte c_v+1 @ PAN
	.byte W02
	.byte VOL, 71
	.byte W06
	.byte 73 @ VOL
	.byte W06
	.byte 74 @ VOL
	.byte PAN, c_v
	.byte N08, Cn3 @ v076
	.byte W01
	.byte PAN, c_v-1
	.byte W05
	.byte VOL, 75
	.byte W06
	.byte 76 @ VOL
	.byte W03
	.byte PAN, c_v-2
	.byte W01
	.byte c_v-3 @ PAN
	.byte W02
	.byte VOL, 78
	.byte W06
	.byte VOICE, 31
	.byte VOL, 79
	.byte N08, Cn3, v020
	.byte W06
	.byte VOL, 80
	.byte PAN, c_v-4
	.byte W01
	.byte c_v-5 @ PAN
	.byte W05
	.byte VOL, 82
	.byte N08, Cn3, v076
	.byte W06
	.byte VOL, 83
	.byte W03
	.byte PAN, c_v-6
	.byte W01
	.byte c_v-7 @ PAN
	.byte W02
	.byte VOL, 84
	.byte W06
	.byte 86 @ VOL
	.byte W06
	.byte 87 @ VOL
	.byte PAN, c_v-8
	.byte N08, Cn3, v020
	.byte W01
	.byte PAN, c_v-9
	.byte W05
	.byte VOL, 88
	.byte W06
	.byte 90 @ VOL
	.byte N08, Cs3, v076
	.byte W03
	.byte PAN, c_v-10
	.byte W01
	.byte c_v-11 @ PAN
	.byte W02
	.byte VOL, 91
	.byte W06
	.byte 92 @ VOL
	.byte W06
	.byte 94 @ VOL
	.byte PAN, c_v-12
	.byte W01
	.byte c_v-13 @ PAN
	.byte W05
	.byte VOL, 95
	.byte N08, As2 @ v076
	.byte W06
	.byte VOL, 96
	.byte W03
	.byte PAN, c_v-14
	.byte W01
	.byte c_v-15 @ PAN
	.byte W02
	.byte VOL, 98
	.byte W06
	.byte 99 @ VOL
	.byte W06
	.byte 100 @ VOL
	.byte PAN, c_v-16
	.byte N08, Cn3 @ v076
	.byte W01
	.byte PAN, c_v-17
	.byte W05
	.byte VOL, 101
	.byte W06
	.byte 103 @ VOL
	.byte W03
	.byte PAN, c_v-18
	.byte W01
	.byte c_v-19 @ PAN
	.byte W02
	.byte VOL, 104
	.byte W06
	.byte VOICE, 30
	.byte VOL, 105
	.byte N08, Cn3, v020
	.byte W06
	.byte VOL, 107
	.byte PAN, c_v-20
	.byte W01
	.byte c_v-21 @ PAN
	.byte W05
	.byte VOL, 108
	.byte N08, Cn3, v076
	.byte W06
	.byte VOL, 109
	.byte W03
	.byte PAN, c_v-22
	.byte W01
	.byte c_v-23 @ PAN
	.byte W02
	.byte VOL, 111
	.byte W06
	.byte 112 @ VOL
	.byte W06
	.byte 113 @ VOL
	.byte PAN, c_v-24
	.byte N08, Cn3, v020
	.byte W01
	.byte PAN, c_v-25
	.byte W05
	.byte VOL, 115
	.byte W06
	.byte VOICE, 29
	.byte VOL, 116
	.byte N08, Cs3, v076
	.byte W03
	.byte PAN, c_v-26
	.byte W01
	.byte c_v-27 @ PAN
	.byte W02
	.byte VOL, 117
	.byte W06
	.byte 119 @ VOL
	.byte W06
	.byte 120 @ VOL
	.byte PAN, c_v-28
	.byte W01
	.byte c_v-29 @ PAN
	.byte W05
	.byte VOICE, 28
	.byte VOL, 121
	.byte N08, As2 @ v076
	.byte W06
	.byte VOL, 123
	.byte W03
	.byte PAN, c_v-30
	.byte W01
	.byte c_v-31 @ PAN
	.byte W02
	.byte VOL, 124
	.byte W06
	.byte 125 @ VOL
	.byte W06
	.byte VOICE, 30
	.byte VOL, 127
	.byte N08, Cn3 @ v076
	.byte W06
	.byte VOL, 123
	.byte W01
	.byte PAN, c_v-31
	.byte W05
	.byte VOL, 119
	.byte W03
	.byte PAN, c_v-30
	.byte W03
	.byte VOL, 115
	.byte W04
	.byte PAN, c_v-29
	.byte W02
	.byte VOL, 111
	.byte N08, Cn3, v020
	.byte W06
	.byte VOL, 107
	.byte PAN, c_v-28
	.byte W06
	.byte VOICE, 29
	.byte VOL, 103
	.byte N08, Cn3, v076
	.byte W01
	.byte PAN, c_v-27
	.byte W05
	.byte VOL, 99
	.byte W03
	.byte PAN, c_v-26
	.byte W03
	.byte VOL, 95
	.byte W04
	.byte PAN, c_v-25
	.byte W02
	.byte VOL, 91
	.byte W06
	.byte PATT
		.word track_56_lbl_2774bb
	.byte PATT
		.word track_56_lbl_2774f7
	.byte PATT
		.word track_56_lbl_277537
	.byte PATT
		.word track_56_lbl_277573
	.byte PATT
		.word track_56_lbl_2775b3
	.byte PATT
		.word track_56_lbl_2775ef
	.byte PATT
		.word track_56_lbl_27762f
	.byte GOTO
		.word track_56_lbl_27766f
	.byte PAN, c_v+32
	.byte FINE

track_56_4:
	.byte KEYSH, 0
	.byte VOICE, 52
	.byte VOL, 127
	.byte PRIO, 110
	.byte N12, Cn3, v120
	.byte W06
	.byte VOL, 123
	.byte W06
	.byte 119 @ VOL
	.byte N12, Cn2, v108
	.byte W06
	.byte VOL, 115
	.byte W06
	.byte 111 @ VOL
	.byte N12, Cn2, v052
	.byte W06
	.byte VOL, 107
	.byte W06
	.byte 103 @ VOL
	.byte N12, Cn3, v120
	.byte W06
	.byte VOL, 99
	.byte W06
	.byte 95 @ VOL
	.byte N12, Cn2, v108
	.byte W06
	.byte VOL, 91
	.byte W06
track_56_lbl_277b79:
	.byte VOL, 87
	.byte N12, Cn2, v052
	.byte W06
	.byte VOL, 83
	.byte W06
	.byte 79 @ VOL
	.byte N12, Cs3, v120
	.byte W06
	.byte VOL, 75
	.byte W06
	.byte 71 @ VOL
	.byte N12, Cs2, v108
	.byte W06
	.byte VOL, 67
	.byte W06
	.byte 63 @ VOL
	.byte N12, As2, v120
	.byte W06
	.byte VOL, 59
	.byte W06
	.byte 55 @ VOL
	.byte N12, As1, v108
	.byte W06
	.byte VOL, 51
	.byte W06
	.byte PEND
track_56_lbl_277ba3:
	.byte VOL, 48
	.byte N12, Cn3, v120
	.byte W06
	.byte VOL, 49
	.byte W06
	.byte 50 @ VOL
	.byte N12, Cn2, v108
	.byte W06
	.byte VOL, 51
	.byte W06
	.byte 53 @ VOL
	.byte N12, Cn2, v052
	.byte W06
	.byte VOL, 54
	.byte W06
	.byte 55 @ VOL
	.byte N12, Cn3, v120
	.byte W06
	.byte VOL, 57
	.byte W06
	.byte 58 @ VOL
	.byte N12, Cn2, v108
	.byte W06
	.byte VOL, 59
	.byte W06
	.byte PEND
track_56_lbl_277bcd:
	.byte VOL, 61
	.byte N12, Cn2, v052
	.byte W06
	.byte VOL, 62
	.byte W06
	.byte 63 @ VOL
	.byte N12, Cs3, v120
	.byte W06
	.byte VOL, 65
	.byte W06
	.byte 66 @ VOL
	.byte N12, Cs2, v108
	.byte W06
	.byte VOL, 67
	.byte W06
	.byte 69 @ VOL
	.byte N12, As2, v120
	.byte W06
	.byte VOL, 70
	.byte W06
	.byte 71 @ VOL
	.byte N12, As1, v108
	.byte W06
	.byte VOL, 73
	.byte W06
	.byte PEND
track_56_lbl_277bf7:
	.byte VOL, 74
	.byte N12, Cn3, v120
	.byte W06
	.byte VOL, 75
	.byte W06
	.byte 76 @ VOL
	.byte N12, Cn2, v108
	.byte W06
	.byte VOL, 78
	.byte W06
	.byte 79 @ VOL
	.byte N12, Cn2, v052
	.byte W06
	.byte VOL, 80
	.byte W06
	.byte 82 @ VOL
	.byte N12, Cn3, v120
	.byte W06
	.byte VOL, 83
	.byte W06
	.byte 84 @ VOL
	.byte N12, Cn2, v108
	.byte W06
	.byte VOL, 86
	.byte W06
	.byte PEND
track_56_lbl_277c21:
	.byte VOL, 87
	.byte N12, Cn2, v052
	.byte W06
	.byte VOL, 88
	.byte W06
	.byte 90 @ VOL
	.byte N12, Cs3, v120
	.byte W06
	.byte VOL, 91
	.byte W06
	.byte 92 @ VOL
	.byte N12, Cs2, v108
	.byte W06
	.byte VOL, 94
	.byte W06
	.byte 95 @ VOL
	.byte N12, As2, v120
	.byte W06
	.byte VOL, 96
	.byte W06
	.byte 98 @ VOL
	.byte N12, As1, v108
	.byte W06
	.byte VOL, 99
	.byte W06
	.byte PEND
track_56_lbl_277c4b:
	.byte VOL, 100
	.byte N12, Cn3, v120
	.byte W06
	.byte VOL, 101
	.byte W06
	.byte 103 @ VOL
	.byte N12, Cn2, v108
	.byte W06
	.byte VOL, 104
	.byte W06
	.byte 105 @ VOL
	.byte N12, Cn2, v052
	.byte W06
	.byte VOL, 107
	.byte W06
	.byte 108 @ VOL
	.byte N12, Cn3, v120
	.byte W06
	.byte VOL, 109
	.byte W06
	.byte 111 @ VOL
	.byte N12, Cn2, v108
	.byte W06
	.byte VOL, 112
	.byte W06
	.byte PEND
track_56_lbl_277c75:
	.byte VOL, 113
	.byte N12, Cn2, v052
	.byte W06
	.byte VOL, 115
	.byte W06
	.byte 116 @ VOL
	.byte N12, Cs3, v120
	.byte W06
	.byte VOL, 117
	.byte W06
	.byte 119 @ VOL
	.byte N12, Cs2, v108
	.byte W06
	.byte VOL, 120
	.byte W06
	.byte 121 @ VOL
	.byte N12, As2, v120
	.byte W06
	.byte VOL, 123
	.byte W06
	.byte 124 @ VOL
	.byte N12, As1, v108
	.byte W06
	.byte VOL, 125
	.byte W06
	.byte PEND
track_56_lbl_277c9f:
	.byte VOL, 127
	.byte W48
	.byte W48
	.byte W48
	.byte W48
	.byte W48
	.byte W48
	.byte W36
	.byte W36
	.byte 127 @ VOL
	.byte N12, Ds3, v120
	.byte W06
	.byte VOL, 123
	.byte W06
	.byte 119 @ VOL
	.byte N12, Ds2, v108
	.byte W06
	.byte VOL, 115
	.byte W06
	.byte 111 @ VOL
	.byte N12, Ds2, v052
	.byte W06
	.byte VOL, 107
	.byte W06
	.byte 103 @ VOL
	.byte N12, Ds3, v120
	.byte W06
	.byte VOL, 99
	.byte W06
	.byte 95 @ VOL
	.byte N12, Ds2, v108
	.byte W06
	.byte VOL, 91
	.byte W06
	.byte 87 @ VOL
	.byte N12, Ds2, v052
	.byte W06
	.byte VOL, 83
	.byte W06
	.byte 79 @ VOL
	.byte N12, En3, v120
	.byte W06
	.byte VOL, 75
	.byte W06
	.byte 71 @ VOL
	.byte N12, En2, v108
	.byte W06
	.byte VOL, 67
	.byte W06
	.byte 63 @ VOL
	.byte N12, Cs3, v120
	.byte W06
	.byte VOL, 59
	.byte W06
	.byte 55 @ VOL
	.byte N12, Cs2, v108
	.byte W06
	.byte VOL, 51
	.byte W06
	.byte 48 @ VOL
	.byte N12, Ds3, v120
	.byte W06
	.byte VOL, 49
	.byte W06
	.byte 50 @ VOL
	.byte N12, Ds2, v108
	.byte W06
	.byte VOL, 51
	.byte W06
	.byte 53 @ VOL
	.byte N12, Ds2, v052
	.byte W06
	.byte VOL, 54
	.byte W06
	.byte 55 @ VOL
	.byte N12, Ds3, v120
	.byte W06
	.byte VOL, 57
	.byte W06
	.byte 58 @ VOL
	.byte N12, Ds2, v108
	.byte W06
	.byte VOL, 59
	.byte W06
	.byte 61 @ VOL
	.byte N12, Ds2, v052
	.byte W06
	.byte VOL, 62
	.byte W06
	.byte 63 @ VOL
	.byte N12, En3, v120
	.byte W06
	.byte VOL, 65
	.byte W06
	.byte 66 @ VOL
	.byte N12, En2, v108
	.byte W06
	.byte VOL, 67
	.byte W06
	.byte 69 @ VOL
	.byte N12, Cs3, v120
	.byte W06
	.byte VOL, 70
	.byte W06
	.byte 71 @ VOL
	.byte N12, Cs2, v108
	.byte W06
	.byte VOL, 73
	.byte W06
	.byte 74 @ VOL
	.byte N12, Ds3, v120
	.byte W06
	.byte VOL, 75
	.byte W06
	.byte 76 @ VOL
	.byte N12, Ds2, v108
	.byte W06
	.byte VOL, 78
	.byte W06
	.byte 79 @ VOL
	.byte N12, Ds2, v052
	.byte W06
	.byte VOL, 80
	.byte W06
	.byte 82 @ VOL
	.byte N12, Ds3, v120
	.byte W06
	.byte VOL, 83
	.byte W06
	.byte 84 @ VOL
	.byte N12, Ds2, v108
	.byte W06
	.byte VOL, 86
	.byte W06
	.byte 87 @ VOL
	.byte N12, Ds2, v052
	.byte W06
	.byte VOL, 88
	.byte W06
	.byte 90 @ VOL
	.byte N12, En3, v120
	.byte W06
	.byte VOL, 91
	.byte W06
	.byte 92 @ VOL
	.byte N12, En2, v108
	.byte W06
	.byte VOL, 94
	.byte W06
	.byte 95 @ VOL
	.byte N12, Cs3, v120
	.byte W06
	.byte VOL, 96
	.byte W06
	.byte 98 @ VOL
	.byte N12, Cs2, v108
	.byte W06
	.byte VOL, 99
	.byte W06
	.byte 100 @ VOL
	.byte N12, Ds3, v120
	.byte W06
	.byte VOL, 101
	.byte W06
	.byte 103 @ VOL
	.byte N12, Ds2, v108
	.byte W06
	.byte VOL, 104
	.byte W06
	.byte 105 @ VOL
	.byte N12, Ds2, v052
	.byte W06
	.byte VOL, 107
	.byte W06
	.byte 108 @ VOL
	.byte N12, Ds3, v120
	.byte W06
	.byte VOL, 109
	.byte W06
	.byte 111 @ VOL
	.byte N12, Ds2, v108
	.byte W06
	.byte VOL, 112
	.byte W06
	.byte 113 @ VOL
	.byte N12, Ds2, v052
	.byte W06
	.byte VOL, 115
	.byte W06
	.byte 116 @ VOL
	.byte N12, En3, v120
	.byte W06
	.byte VOL, 117
	.byte W06
	.byte 119 @ VOL
	.byte N12, En2, v108
	.byte W06
	.byte VOL, 120
	.byte W06
	.byte 121 @ VOL
	.byte N12, Cs3, v120
	.byte W06
	.byte VOL, 123
	.byte W06
	.byte 124 @ VOL
	.byte N12, Cs2, v108
	.byte W06
	.byte VOL, 125
	.byte W06
	.byte 127 @ VOL
	.byte N12, Cn3, v120
	.byte W06
	.byte VOL, 123
	.byte W06
	.byte 119 @ VOL
	.byte N12, Cn2, v108
	.byte W06
	.byte VOL, 115
	.byte W06
	.byte 111 @ VOL
	.byte N12, Cn2, v052
	.byte W06
	.byte VOL, 107
	.byte W06
	.byte 103 @ VOL
	.byte N12, Cn3, v120
	.byte W06
	.byte VOL, 99
	.byte W06
	.byte 95 @ VOL
	.byte N12, Cn2, v108
	.byte W06
	.byte VOL, 91
	.byte W06
	.byte PATT
		.word track_56_lbl_277b79
	.byte PATT
		.word track_56_lbl_277ba3
	.byte PATT
		.word track_56_lbl_277bcd
	.byte PATT
		.word track_56_lbl_277bf7
	.byte PATT
		.word track_56_lbl_277c21
	.byte PATT
		.word track_56_lbl_277c4b
	.byte PATT
		.word track_56_lbl_277c75
	.byte W36
	.byte W36
	.byte W36
	.byte W36
	.byte W36
	.byte W36
	.byte W36
	.byte W36
	.byte W36
	.byte W36
	.byte W36
	.byte W36
	.byte W36
	.byte W36
	.byte W36
	.byte W36
	.byte W48
	.byte W48
track_56_lbl_277e46:
	.byte VOICE, 52
	.byte VOL, 127
	.byte N12, Cn3, v120
	.byte W06
	.byte VOL, 123
	.byte W06
	.byte 119 @ VOL
	.byte N12, Cn2, v108
	.byte W06
	.byte VOL, 115
	.byte W06
	.byte 111 @ VOL
	.byte N12, Cn2, v052
	.byte W06
	.byte VOL, 107
	.byte W06
	.byte 103 @ VOL
	.byte N12, Cn3, v120
	.byte W06
	.byte VOL, 99
	.byte W06
	.byte 95 @ VOL
	.byte N12, Cn2, v108
	.byte W06
	.byte VOL, 91
	.byte W06
	.byte PEND
	.byte PATT
		.word track_56_lbl_277b79
	.byte PATT
		.word track_56_lbl_277ba3
	.byte PATT
		.word track_56_lbl_277bcd
	.byte PATT
		.word track_56_lbl_277bf7
	.byte PATT
		.word track_56_lbl_277c21
	.byte PATT
		.word track_56_lbl_277c4b
	.byte PATT
		.word track_56_lbl_277c75
	.byte PATT
		.word track_56_lbl_277e46
	.byte PATT
		.word track_56_lbl_277b79
	.byte PATT
		.word track_56_lbl_277ba3
	.byte PATT
		.word track_56_lbl_277bcd
	.byte PATT
		.word track_56_lbl_277bf7
	.byte PATT
		.word track_56_lbl_277c21
	.byte PATT
		.word track_56_lbl_277c4b
	.byte PATT
		.word track_56_lbl_277c75
	.byte GOTO
		.word track_56_lbl_277c9f
	.byte FINE

.align 2

track_56:
	.byte 5
	.byte 56
	.byte 130
	.byte 128
	.word 0x80a8554
	.word track_56_0
	.word track_56_1
	.word track_56_2
	.word track_56_3
	.word track_56_4

.align 2
