.align 2

.global track_91

track_91_0:
	.byte KEYSH, 0
	.byte TEMPO, 56
	.byte PAN, c_v-4
	.byte PRIO, 110
	.byte W24
	.byte VOICE, 27
	.byte W24
	.byte VOL, 21
	.byte N48, En4, v072
	.byte W01
	.byte VOL, 22
	.byte W01
	.byte 22 @ VOL
	.byte W01
	.byte 23 @ VOL
	.byte W01
	.byte 24 @ VOL
	.byte W01
	.byte 25 @ VOL
	.byte W01
	.byte 25 @ VOL
	.byte W01
	.byte 26 @ VOL
	.byte W01
	.byte 27 @ VOL
	.byte W01
	.byte 28 @ VOL
	.byte W01
	.byte 28 @ VOL
	.byte W36
	.byte W02
	.byte N24, Bn3 @ v072
	.byte W24
track_91_lbl_26d883:
	.byte N15, As3, v072
	.byte W24
	.byte N48, Fs4, v060
	.byte W48
	.byte N24, Fs3 @ v060
	.byte W24
	.byte PEND
track_91_lbl_26d88f:
	.byte VOICE, 27
	.byte VOL, 8
	.byte N96, Bn4, v052
	.byte W04
	.byte VOL, 10
	.byte W03
	.byte 11 @ VOL
	.byte W03
	.byte 13 @ VOL
	.byte W04
	.byte 14 @ VOL
	.byte W03
	.byte 16 @ VOL
	.byte W03
	.byte 17 @ VOL
	.byte W04
	.byte 19 @ VOL
	.byte W03
	.byte 20 @ VOL
	.byte W03
	.byte 22 @ VOL
	.byte W03
	.byte 23 @ VOL
	.byte W04
	.byte 25 @ VOL
	.byte W03
	.byte 26 @ VOL
	.byte W03
	.byte 28 @ VOL
	.byte W03
	.byte 29 @ VOL
	.byte W04
	.byte 31 @ VOL
	.byte W03
	.byte 32 @ VOL
	.byte W03
	.byte 34 @ VOL
	.byte W03
	.byte 35 @ VOL
	.byte W04
	.byte 37 @ VOL
	.byte W03
	.byte 38 @ VOL
	.byte W03
	.byte 39 @ VOL
	.byte W04
	.byte 41 @ VOL
	.byte W03
	.byte 42 @ VOL
	.byte W03
	.byte 44 @ VOL
	.byte W03
	.byte 45 @ VOL
	.byte W04
	.byte 47 @ VOL
	.byte W03
	.byte 48 @ VOL
	.byte W03
	.byte 50 @ VOL
	.byte W04
	.byte N72, As4 @ v052
	.byte W02
	.byte VOL, 48
	.byte W03
	.byte 47 @ VOL
	.byte W02
	.byte 46 @ VOL
	.byte W02
	.byte 45 @ VOL
	.byte W03
	.byte 44 @ VOL
	.byte W04
	.byte 42 @ VOL
	.byte W03
	.byte 41 @ VOL
	.byte W03
	.byte 39 @ VOL
	.byte W04
	.byte 38 @ VOL
	.byte W03
	.byte 37 @ VOL
	.byte W03
	.byte 35 @ VOL
	.byte W04
	.byte 34 @ VOL
	.byte W03
	.byte 32 @ VOL
	.byte W04
	.byte 31 @ VOL
	.byte W03
	.byte 29 @ VOL
	.byte W03
	.byte 28 @ VOL
	.byte W04
	.byte 26 @ VOL
	.byte W03
	.byte 25 @ VOL
	.byte W03
	.byte 23 @ VOL
	.byte W04
	.byte 22 @ VOL
	.byte W03
	.byte 20 @ VOL
	.byte W04
	.byte 19 @ VOL
	.byte W24
	.byte W02
	.byte W24
	.byte 22 @ VOL
	.byte N48, En4, v072
	.byte W02
	.byte VOL, 22
	.byte W01
	.byte 23 @ VOL
	.byte W01
	.byte 24 @ VOL
	.byte W01
	.byte 25 @ VOL
	.byte W01
	.byte 25 @ VOL
	.byte W01
	.byte 26 @ VOL
	.byte W01
	.byte 27 @ VOL
	.byte W01
	.byte 28 @ VOL
	.byte W01
	.byte 28 @ VOL
	.byte W36
	.byte W02
	.byte N24, Bn3 @ v072
	.byte W24
	.byte PATT
		.word track_91_lbl_26d883
	.byte VOL, 8
	.byte N96, Bn4, v052
	.byte W04
	.byte VOL, 10
	.byte W03
	.byte 11 @ VOL
	.byte W03
	.byte 13 @ VOL
	.byte W04
	.byte 14 @ VOL
	.byte W03
	.byte 16 @ VOL
	.byte W03
	.byte 17 @ VOL
	.byte W04
	.byte 19 @ VOL
	.byte W03
	.byte 20 @ VOL
	.byte W03
	.byte 22 @ VOL
	.byte W03
	.byte 23 @ VOL
	.byte W04
	.byte 25 @ VOL
	.byte W03
	.byte 26 @ VOL
	.byte W03
	.byte 28 @ VOL
	.byte W03
	.byte 29 @ VOL
	.byte W04
	.byte 31 @ VOL
	.byte W03
	.byte 32 @ VOL
	.byte W03
	.byte 34 @ VOL
	.byte W03
	.byte 35 @ VOL
	.byte W04
	.byte 37 @ VOL
	.byte W03
	.byte 38 @ VOL
	.byte W03
	.byte 39 @ VOL
	.byte W04
	.byte 41 @ VOL
	.byte W03
	.byte 42 @ VOL
	.byte W03
	.byte 44 @ VOL
	.byte W03
	.byte 45 @ VOL
	.byte W04
	.byte 47 @ VOL
	.byte W03
	.byte 48 @ VOL
	.byte W03
	.byte 50 @ VOL
	.byte W04
	.byte N72, Cs5 @ v052
	.byte W02
	.byte VOL, 48
	.byte W03
	.byte 47 @ VOL
	.byte W02
	.byte 46 @ VOL
	.byte W02
	.byte 45 @ VOL
	.byte W03
	.byte 44 @ VOL
	.byte W04
	.byte 42 @ VOL
	.byte W03
	.byte 41 @ VOL
	.byte W03
	.byte 39 @ VOL
	.byte W04
	.byte 38 @ VOL
	.byte W03
	.byte 37 @ VOL
	.byte W03
	.byte 35 @ VOL
	.byte W04
	.byte 34 @ VOL
	.byte W03
	.byte 32 @ VOL
	.byte W04
	.byte 31 @ VOL
	.byte W03
	.byte 29 @ VOL
	.byte W03
	.byte 28 @ VOL
	.byte W04
	.byte 26 @ VOL
	.byte W03
	.byte 25 @ VOL
	.byte W03
	.byte 23 @ VOL
	.byte W04
	.byte 22 @ VOL
	.byte W03
	.byte 20 @ VOL
	.byte W04
	.byte 19 @ VOL
	.byte W24
	.byte W02
	.byte W24
	.byte 29 @ VOL
	.byte N48, Dn4, v060
	.byte W48
	.byte N24, Gn3 @ v060
	.byte W24
	.byte VOL, 16
	.byte N48, Cs4 @ v060
	.byte W06
	.byte VOL, 17
	.byte W04
	.byte 19 @ VOL
	.byte W05
	.byte 20 @ VOL
	.byte W04
	.byte 22 @ VOL
	.byte W02
	.byte 22 @ VOL
	.byte W03
	.byte 23 @ VOL
	.byte W04
	.byte 25 @ VOL
	.byte W04
	.byte 26 @ VOL
	.byte W03
	.byte 27 @ VOL
	.byte W02
	.byte 28 @ VOL
	.byte W04
	.byte 29 @ VOL
	.byte W05
	.byte 31 @ VOL
	.byte W24
	.byte W02
	.byte 37 @ VOL
	.byte N08 @ Cs4, v060
	.byte W08
	.byte Dn4 @ N08, v060
	.byte W08
	.byte En4 @ N08, v060
	.byte W08
	.byte N96, Dn4 @ v060
	.byte W08
	.byte VOL, 35
	.byte W07
	.byte 34 @ VOL
	.byte W07
	.byte 32 @ VOL
	.byte W04
	.byte 31 @ VOL
	.byte W04
	.byte 31 @ VOL
	.byte W07
	.byte 29 @ VOL
	.byte W07
	.byte 28 @ VOL
	.byte W07
	.byte 26 @ VOL
	.byte W08
	.byte 25 @ VOL
	.byte W07
	.byte 23 @ VOL
	.byte W07
	.byte 22 @ VOL
	.byte W07
	.byte 20 @ VOL
	.byte W08
	.byte 19 @ VOL
	.byte W07
	.byte 17 @ VOL
	.byte W01
	.byte 14 @ VOL
	.byte N60, En4 @ v060
	.byte W02
	.byte VOL, 16
	.byte W02
	.byte 17 @ VOL
	.byte W02
	.byte 19 @ VOL
	.byte W02
	.byte 20 @ VOL
	.byte W03
	.byte 21 @ VOL
	.byte W02
	.byte 22 @ VOL
	.byte W03
	.byte 23 @ VOL
	.byte W02
	.byte 25 @ VOL
	.byte W02
	.byte 26 @ VOL
	.byte W02
	.byte 28 @ VOL
	.byte W03
	.byte 28 @ VOL
	.byte W02
	.byte 29 @ VOL
	.byte W03
	.byte 31 @ VOL
	.byte W02
	.byte 32 @ VOL
	.byte W03
	.byte 34 @ VOL
	.byte W03
	.byte 35 @ VOL
	.byte W03
	.byte 36 @ VOL
	.byte W02
	.byte 37 @ VOL
	.byte W03
	.byte 38 @ VOL
	.byte W04
	.byte 39 @ VOL
	.byte W03
	.byte 41 @ VOL
	.byte W03
	.byte 42 @ VOL
	.byte W05
	.byte 43 @ VOL
	.byte W06
	.byte 44 @ VOL
	.byte W05
	.byte N08 @ En4, v060
	.byte W08
	.byte Dn4 @ N08, v060
	.byte W03
	.byte VOL, 45
	.byte W05
	.byte N08, En4 @ v060
	.byte W08
	.byte VOL, 51
	.byte N96, Fs4, v044
	.byte W06
	.byte VOL, 50
	.byte W03
	.byte 48 @ VOL
	.byte W01
	.byte 47 @ VOL
	.byte W01
	.byte 45 @ VOL
	.byte W01
	.byte 44 @ VOL
	.byte W02
	.byte 43 @ VOL
	.byte W01
	.byte 42 @ VOL
	.byte W01
	.byte 41 @ VOL
	.byte W01
	.byte 39 @ VOL
	.byte W02
	.byte 38 @ VOL
	.byte W01
	.byte 37 @ VOL
	.byte W01
	.byte 36 @ VOL
	.byte W02
	.byte 35 @ VOL
	.byte W02
	.byte 34 @ VOL
	.byte W02
	.byte 32 @ VOL
	.byte W02
	.byte 31 @ VOL
	.byte W03
	.byte 29 @ VOL
	.byte W02
	.byte 28 @ VOL
	.byte W03
	.byte 28 @ VOL
	.byte W04
	.byte 26 @ VOL
	.byte W03
	.byte 25 @ VOL
	.byte W04
	.byte 23 @ VOL
	.byte W04
	.byte 22 @ VOL
	.byte W05
	.byte 21 @ VOL
	.byte W06
	.byte 20 @ VOL
	.byte W05
	.byte 19 @ VOL
	.byte W05
	.byte 17 @ VOL
	.byte W07
	.byte 16 @ VOL
	.byte W07
	.byte 14 @ VOL
	.byte W06
	.byte 14 @ VOL
	.byte W01
	.byte 13 @ VOL
	.byte W02
	.byte VOICE, 36
	.byte VOL, 66
	.byte N96, Bn3, v036
	.byte W07
	.byte VOL, 68
	.byte W07
	.byte 69 @ VOL
	.byte W07
	.byte 71 @ VOL
	.byte W07
	.byte 72 @ VOL
	.byte W06
	.byte 74 @ VOL
	.byte W07
	.byte 75 @ VOL
	.byte W07
	.byte 76 @ VOL
	.byte W07
	.byte 78 @ VOL
	.byte W07
	.byte 79 @ VOL
	.byte W07
	.byte 81 @ VOL
	.byte W06
	.byte 82 @ VOL
	.byte W07
	.byte 84 @ VOL
	.byte W07
	.byte 85 @ VOL
	.byte W07
	.byte 83 @ VOL
	.byte N96 @ Bn3, v036
	.byte W01
	.byte VOL, 82
	.byte W01
	.byte 81 @ VOL
	.byte W01
	.byte 79 @ VOL
	.byte W01
	.byte 78 @ VOL
	.byte W01
	.byte 76 @ VOL
	.byte W01
	.byte 76 @ VOL
	.byte W01
	.byte 75 @ VOL
	.byte W02
	.byte 74 @ VOL
	.byte W02
	.byte 72 @ VOL
	.byte W01
	.byte 71 @ VOL
	.byte W02
	.byte 69 @ VOL
	.byte W02
	.byte 68 @ VOL
	.byte W02
	.byte 68 @ VOL
	.byte W02
	.byte 66 @ VOL
	.byte W02
	.byte 65 @ VOL
	.byte W03
	.byte 63 @ VOL
	.byte W03
	.byte 62 @ VOL
	.byte W02
	.byte 61 @ VOL
	.byte W03
	.byte 60 @ VOL
	.byte W03
	.byte 59 @ VOL
	.byte W03
	.byte 57 @ VOL
	.byte W05
	.byte 56 @ VOL
	.byte W04
	.byte 54 @ VOL
	.byte W05
	.byte 54 @ VOL
	.byte W04
	.byte 53 @ VOL
	.byte W07
	.byte 51 @ VOL
	.byte W07
	.byte 50 @ VOL
	.byte W07
	.byte 48 @ VOL
	.byte W07
	.byte 47 @ VOL
	.byte W07
	.byte 46 @ VOL
	.byte W04
	.byte N96 @ Bn3, v036
	.byte W06
	.byte VOL, 45
	.byte W09
	.byte 44 @ VOL
	.byte W09
	.byte 42 @ VOL
	.byte W10
	.byte 41 @ VOL
	.byte W10
	.byte 39 @ VOL
	.byte W23
	.byte 38 @ VOL
	.byte W12
	.byte 37 @ VOL
	.byte W11
	.byte 35 @ VOL
	.byte W05
	.byte 37 @ VOL
	.byte W01
	.byte VOICE, 27
	.byte VOL, 23
	.byte N96, Ds4, v040
	.byte W05
	.byte VOL, 22
	.byte W06
	.byte 20 @ VOL
	.byte W06
	.byte 19 @ VOL
	.byte W06
	.byte 17 @ VOL
	.byte W06
	.byte 16 @ VOL
	.byte W06
	.byte 14 @ VOL
	.byte W03
	.byte 14 @ VOL
	.byte W03
	.byte 13 @ VOL
	.byte W01
	.byte 14 @ VOL
	.byte W42
	.byte 14 @ VOL
	.byte W12
	.byte N96, Fn4 @ v040
	.byte W14
	.byte VOL, 16
	.byte W16
	.byte 17 @ VOL
	.byte W13
	.byte 19 @ VOL
	.byte W08
	.byte 20 @ VOL
	.byte W07
	.byte 21 @ VOL
	.byte W06
	.byte 22 @ VOL
	.byte W05
	.byte 23 @ VOL
	.byte W05
	.byte 25 @ VOL
	.byte W03
	.byte 26 @ VOL
	.byte W03
	.byte 28 @ VOL
	.byte W03
	.byte 28 @ VOL
	.byte W02
	.byte 29 @ VOL
	.byte W02
	.byte 31 @ VOL
	.byte W02
	.byte 32 @ VOL
	.byte W01
	.byte 34 @ VOL
	.byte W01
	.byte 35 @ VOL
	.byte W02
	.byte 36 @ VOL
	.byte W03
	.byte 37 @ VOL
	.byte N96, Ds4 @ v040
	.byte W01
	.byte VOL, 36
	.byte W01
	.byte 35 @ VOL
	.byte W01
	.byte 34 @ VOL
	.byte W02
	.byte 32 @ VOL
	.byte W01
	.byte 31 @ VOL
	.byte W03
	.byte 29 @ VOL
	.byte W02
	.byte 28 @ VOL
	.byte W03
	.byte 28 @ VOL
	.byte W02
	.byte 26 @ VOL
	.byte W04
	.byte 25 @ VOL
	.byte W07
	.byte 23 @ VOL
	.byte W07
	.byte 22 @ VOL
	.byte W07
	.byte 21 @ VOL
	.byte W09
	.byte 20 @ VOL
	.byte W12
	.byte 19 @ VOL
	.byte W13
	.byte 17 @ VOL
	.byte W12
	.byte 16 @ VOL
	.byte W08
	.byte 17 @ VOL
	.byte W01
	.byte 25 @ VOL
	.byte N96, Cs4 @ v040
	.byte W06
	.byte VOL, 23
	.byte W08
	.byte 22 @ VOL
	.byte W09
	.byte 20 @ VOL
	.byte W08
	.byte 19 @ VOL
	.byte W08
	.byte 17 @ VOL
	.byte W09
	.byte 16 @ VOL
	.byte W08
	.byte 14 @ VOL
	.byte W08
	.byte 13 @ VOL
	.byte W09
	.byte 11 @ VOL
	.byte W08
	.byte 10 @ VOL
	.byte W09
	.byte 8 @ VOL
	.byte W06
	.byte 29 @ VOL
	.byte N96, En3, v052
	.byte W96
	.byte N92, Fs3 @ v052
	.byte W03
	.byte VOL, 30
	.byte W02
	.byte 31 @ VOL
	.byte W02
	.byte 31 @ VOL
	.byte W03
	.byte 32 @ VOL
	.byte W04
	.byte 34 @ VOL
	.byte W05
	.byte 35 @ VOL
	.byte W05
	.byte 37 @ VOL
	.byte W04
	.byte 38 @ VOL
	.byte W05
	.byte 39 @ VOL
	.byte W05
	.byte 41 @ VOL
	.byte W04
	.byte 42 @ VOL
	.byte W05
	.byte 44 @ VOL
	.byte W05
	.byte 45 @ VOL
	.byte W04
	.byte 47 @ VOL
	.byte W05
	.byte 48 @ VOL
	.byte W05
	.byte 50 @ VOL
	.byte W04
	.byte 51 @ VOL
	.byte W05
	.byte 53 @ VOL
	.byte W04
	.byte 54 @ VOL
	.byte W05
	.byte 56 @ VOL
	.byte W05
	.byte 57 @ VOL
	.byte W04
	.byte 59 @ VOL
	.byte W03
	.byte N96, Gs3, v044
	.byte W96
	.byte N72, As3 @ v044
	.byte W96
	.byte VOL, 29
	.byte N96, En4, v040
	.byte W56
	.byte W03
	.byte VOL, 31
	.byte W07
	.byte 32 @ VOL
	.byte W07
	.byte 34 @ VOL
	.byte W06
	.byte 35 @ VOL
	.byte W07
	.byte 37 @ VOL
	.byte W06
	.byte 38 @ VOL
	.byte W04
	.byte N96, Fs4 @ v040
	.byte W03
	.byte VOL, 39
	.byte W06
	.byte 41 @ VOL
	.byte W07
	.byte 42 @ VOL
	.byte W06
	.byte 44 @ VOL
	.byte W07
	.byte 45 @ VOL
	.byte W07
	.byte 47 @ VOL
	.byte W06
	.byte 48 @ VOL
	.byte W07
	.byte 50 @ VOL
	.byte W06
	.byte 51 @ VOL
	.byte W07
	.byte 53 @ VOL
	.byte W06
	.byte 54 @ VOL
	.byte W07
	.byte 56 @ VOL
	.byte W06
	.byte 57 @ VOL
	.byte W07
	.byte 59 @ VOL
	.byte W07
	.byte 60 @ VOL
	.byte W01
	.byte N68, Gn4 @ v040
	.byte W72
	.byte N08 @ Gn4, v040
	.byte W02
	.byte VOL, 59
	.byte W01
	.byte 56 @ VOL
	.byte W01
	.byte 55 @ VOL
	.byte W01
	.byte 53 @ VOL
	.byte W01
	.byte 51 @ VOL
	.byte W01
	.byte 50 @ VOL
	.byte W01
	.byte 48 @ VOL
	.byte W01
	.byte 46 @ VOL
	.byte W01
	.byte 44 @ VOL
	.byte W01
	.byte 45 @ VOL
	.byte W01
	.byte 45 @ VOL
	.byte N08 @ Gn4, v040
	.byte W01
	.byte VOL, 46
	.byte W01
	.byte 48 @ VOL
	.byte W01
	.byte 48 @ VOL
	.byte W02
	.byte 50 @ VOL
	.byte W01
	.byte 51 @ VOL
	.byte W02
	.byte 53 @ VOL
	.byte W01
	.byte 54 @ VOL
	.byte W01
	.byte 55 @ VOL
	.byte W01
	.byte 56 @ VOL
	.byte W01
	.byte 36 @ VOL
	.byte N60, An4 @ v040
	.byte W02
	.byte VOL, 37
	.byte W04
	.byte 38 @ VOL
	.byte W04
	.byte 39 @ VOL
	.byte W04
	.byte 41 @ VOL
	.byte W04
	.byte 42 @ VOL
	.byte W03
	.byte 44 @ VOL
	.byte W04
	.byte 45 @ VOL
	.byte W04
	.byte 47 @ VOL
	.byte W04
	.byte 48 @ VOL
	.byte W03
	.byte 50 @ VOL
	.byte W04
	.byte 51 @ VOL
	.byte W04
	.byte 53 @ VOL
	.byte W04
	.byte 54 @ VOL
	.byte W04
	.byte 56 @ VOL
	.byte W03
	.byte 57 @ VOL
	.byte W04
	.byte 59 @ VOL
	.byte W13
	.byte N16 @ An4, v040
	.byte W10
	.byte VOL, 58
	.byte W01
	.byte 56 @ VOL
	.byte W01
	.byte 55 @ VOL
	.byte W01
	.byte 54 @ VOL
	.byte W01
	.byte 52 @ VOL
	.byte W01
	.byte 51 @ VOL
	.byte W09
	.byte W24
	.byte 14 @ VOL
	.byte N48, En4, v092
	.byte W02
	.byte VOL, 16
	.byte W03
	.byte 17 @ VOL
	.byte W02
	.byte 19 @ VOL
	.byte W02
	.byte 20 @ VOL
	.byte W03
	.byte 22 @ VOL
	.byte W02
	.byte 23 @ VOL
	.byte W01
	.byte 24 @ VOL
	.byte W32
	.byte W01
	.byte N24, Bn3, v076
	.byte W24
	.byte N10, As3, v064
	.byte W24
	.byte VOL, 20
	.byte N48, Fs4 @ v064
	.byte W04
	.byte VOL, 22
	.byte W03
	.byte 23 @ VOL
	.byte W02
	.byte 25 @ VOL
	.byte W03
	.byte 26 @ VOL
	.byte W03
	.byte 28 @ VOL
	.byte W08
	.byte 29 @ VOL
	.byte W24
	.byte W01
	.byte N24, Fs3 @ v064
	.byte W02
	.byte VOL, 28
	.byte W05
	.byte 28 @ VOL
	.byte W03
	.byte 26 @ VOL
	.byte W03
	.byte 25 @ VOL
	.byte W03
	.byte 23 @ VOL
	.byte W02
	.byte 22 @ VOL
	.byte W04
	.byte 20 @ VOL
	.byte W02
	.byte GOTO
		.word track_91_lbl_26d88f
	.byte FINE

track_91_1:
	.byte KEYSH, 0
	.byte VOICE, 6
	.byte PAN, c_v+4
	.byte PRIO, 109
	.byte W24
	.byte VOL, 43
	.byte N92, En1, v108
	.byte W04
	.byte VOL, 25
	.byte W01
	.byte 26 @ VOL
	.byte W01
	.byte 28 @ VOL
	.byte W01
	.byte 29 @ VOL
	.byte W01
	.byte 31 @ VOL
	.byte W01
	.byte 32 @ VOL
	.byte W01
	.byte 34 @ VOL
	.byte W01
	.byte 34 @ VOL
	.byte W01
	.byte 36 @ VOL
	.byte W01
	.byte 37 @ VOL
	.byte W01
	.byte 39 @ VOL
	.byte W01
	.byte 40 @ VOL
	.byte W01
	.byte 42 @ VOL
	.byte W01
	.byte 43 @ VOL
	.byte W01
	.byte 45 @ VOL
	.byte W01
	.byte 46 @ VOL
	.byte W01
	.byte 48 @ VOL
	.byte W01
	.byte 49 @ VOL
	.byte W01
	.byte 51 @ VOL
	.byte W01
	.byte 52 @ VOL
	.byte W01
	.byte 54 @ VOL
	.byte W01
	.byte 55 @ VOL
	.byte W01
	.byte 56 @ VOL
	.byte W01
	.byte 58 @ VOL
	.byte W01
	.byte 59 @ VOL
	.byte W01
	.byte 60 @ VOL
	.byte W01
	.byte 62 @ VOL
	.byte W01
	.byte 63 @ VOL
	.byte W01
	.byte 65 @ VOL
	.byte W01
	.byte 66 @ VOL
	.byte W01
	.byte 68 @ VOL
	.byte W01
	.byte 69 @ VOL
	.byte W01
	.byte 71 @ VOL
	.byte W01
	.byte 74 @ VOL
	.byte W56
	.byte W03
track_91_lbl_26dcd9:
	.byte N92, En1, v116
	.byte W02
	.byte VOL, 72
	.byte W04
	.byte 71 @ VOL
	.byte W04
	.byte 69 @ VOL
	.byte W04
	.byte 68 @ VOL
	.byte W05
	.byte 66 @ VOL
	.byte W04
	.byte 65 @ VOL
	.byte W04
	.byte 63 @ VOL
	.byte W04
	.byte 62 @ VOL
	.byte W05
	.byte 60 @ VOL
	.byte W04
	.byte 59 @ VOL
	.byte W04
	.byte 57 @ VOL
	.byte W04
	.byte 56 @ VOL
	.byte W05
	.byte 54 @ VOL
	.byte W04
	.byte 53 @ VOL
	.byte W04
	.byte 51 @ VOL
	.byte W04
	.byte 50 @ VOL
	.byte W04
	.byte 48 @ VOL
	.byte W05
	.byte 47 @ VOL
	.byte W04
	.byte 45 @ VOL
	.byte W04
	.byte 44 @ VOL
	.byte W04
	.byte 42 @ VOL
	.byte W05
	.byte 41 @ VOL
	.byte W04
	.byte 39 @ VOL
	.byte W01
	.byte PEND
track_91_lbl_26dd0d:
	.byte VOICE, 6
	.byte VOL, 38
	.byte N92, En1, v116
	.byte W04
	.byte VOL, 39
	.byte W04
	.byte 41 @ VOL
	.byte W04
	.byte 42 @ VOL
	.byte W05
	.byte 44 @ VOL
	.byte W04
	.byte 45 @ VOL
	.byte W05
	.byte 47 @ VOL
	.byte W04
	.byte 48 @ VOL
	.byte W04
	.byte 50 @ VOL
	.byte W05
	.byte 51 @ VOL
	.byte W04
	.byte 53 @ VOL
	.byte W04
	.byte 54 @ VOL
	.byte W05
	.byte 56 @ VOL
	.byte W04
	.byte 57 @ VOL
	.byte W04
	.byte 59 @ VOL
	.byte W05
	.byte 60 @ VOL
	.byte W04
	.byte 62 @ VOL
	.byte W05
	.byte 63 @ VOL
	.byte W04
	.byte 65 @ VOL
	.byte W04
	.byte 66 @ VOL
	.byte W05
	.byte 68 @ VOL
	.byte W04
	.byte 69 @ VOL
	.byte W04
	.byte 69 @ VOL
	.byte W01
track_91_lbl_26dd42:
	.byte N92, En1, v116
	.byte W02
	.byte VOL, 68
	.byte W04
	.byte 66 @ VOL
	.byte W04
	.byte 65 @ VOL
	.byte W03
	.byte 63 @ VOL
	.byte W04
	.byte 62 @ VOL
	.byte W04
	.byte 60 @ VOL
	.byte W04
	.byte 59 @ VOL
	.byte W03
	.byte 57 @ VOL
	.byte W04
	.byte 56 @ VOL
	.byte W04
	.byte 54 @ VOL
	.byte W04
	.byte 53 @ VOL
	.byte W03
	.byte 51 @ VOL
	.byte W04
	.byte 50 @ VOL
	.byte W04
	.byte 48 @ VOL
	.byte W04
	.byte 47 @ VOL
	.byte W03
	.byte 45 @ VOL
	.byte W04
	.byte 44 @ VOL
	.byte W04
	.byte 42 @ VOL
	.byte W03
	.byte 41 @ VOL
	.byte W04
	.byte 39 @ VOL
	.byte W04
	.byte 38 @ VOL
	.byte W04
	.byte 37 @ VOL
	.byte W03
	.byte 35 @ VOL
	.byte W04
	.byte 34 @ VOL
	.byte W04
	.byte 32 @ VOL
	.byte W04
	.byte PEND
	.byte N92, En1, v108
	.byte W04
	.byte VOL, 25
	.byte W01
	.byte 26 @ VOL
	.byte W01
	.byte 28 @ VOL
	.byte W01
	.byte 29 @ VOL
	.byte W01
	.byte 31 @ VOL
	.byte W01
	.byte 32 @ VOL
	.byte W01
	.byte 34 @ VOL
	.byte W01
	.byte 34 @ VOL
	.byte W01
	.byte 36 @ VOL
	.byte W01
	.byte 37 @ VOL
	.byte W01
	.byte 39 @ VOL
	.byte W01
	.byte 40 @ VOL
	.byte W01
	.byte 42 @ VOL
	.byte W01
	.byte 43 @ VOL
	.byte W01
	.byte 45 @ VOL
	.byte W01
	.byte 46 @ VOL
	.byte W01
	.byte 48 @ VOL
	.byte W01
	.byte 49 @ VOL
	.byte W01
	.byte 51 @ VOL
	.byte W01
	.byte 52 @ VOL
	.byte W01
	.byte 54 @ VOL
	.byte W01
	.byte 55 @ VOL
	.byte W01
	.byte 56 @ VOL
	.byte W01
	.byte 58 @ VOL
	.byte W01
	.byte 59 @ VOL
	.byte W01
	.byte 60 @ VOL
	.byte W01
	.byte 62 @ VOL
	.byte W01
	.byte 63 @ VOL
	.byte W01
	.byte 65 @ VOL
	.byte W01
	.byte 66 @ VOL
	.byte W01
	.byte 68 @ VOL
	.byte W01
	.byte 69 @ VOL
	.byte W01
	.byte 71 @ VOL
	.byte W01
	.byte 74 @ VOL
	.byte W56
	.byte W03
	.byte PATT
		.word track_91_lbl_26dcd9
	.byte VOL, 38
	.byte N92, En1, v116
	.byte W04
	.byte VOL, 39
	.byte W04
	.byte 41 @ VOL
	.byte W04
	.byte 42 @ VOL
	.byte W05
	.byte 44 @ VOL
	.byte W04
	.byte 45 @ VOL
	.byte W05
	.byte 47 @ VOL
	.byte W04
	.byte 48 @ VOL
	.byte W04
	.byte 50 @ VOL
	.byte W05
	.byte 51 @ VOL
	.byte W04
	.byte 53 @ VOL
	.byte W04
	.byte 54 @ VOL
	.byte W05
	.byte 56 @ VOL
	.byte W04
	.byte 57 @ VOL
	.byte W04
	.byte 59 @ VOL
	.byte W05
	.byte 60 @ VOL
	.byte W04
	.byte 62 @ VOL
	.byte W05
	.byte 63 @ VOL
	.byte W04
	.byte 65 @ VOL
	.byte W04
	.byte 66 @ VOL
	.byte W05
	.byte 68 @ VOL
	.byte W04
	.byte 69 @ VOL
	.byte W04
	.byte 69 @ VOL
	.byte W01
	.byte PATT
		.word track_91_lbl_26dd42
	.byte VOICE, 37
	.byte VOL, 74
	.byte N72, Gn1, v100
	.byte W96
	.byte N72 @ Gn1, v100
	.byte W72
	.byte N24 @ Gn1, v100
	.byte W24
	.byte N48 @ Gn1, v100
	.byte W48
	.byte N12 @ Gn1, v100
	.byte W48
	.byte W96
	.byte VOICE, 36
	.byte VOL, 45
	.byte N96, Fs4, v020
	.byte W02
	.byte VOL, 41
	.byte W05
	.byte 42 @ VOL
	.byte W06
	.byte 44 @ VOL
	.byte W06
	.byte 45 @ VOL
	.byte W06
	.byte 47 @ VOL
	.byte W07
	.byte 48 @ VOL
	.byte W06
	.byte 50 @ VOL
	.byte W06
	.byte 51 @ VOL
	.byte W06
	.byte 53 @ VOL
	.byte W06
	.byte 54 @ VOL
	.byte W06
	.byte 56 @ VOL
	.byte W06
	.byte 57 @ VOL
	.byte W06
	.byte 59 @ VOL
	.byte W06
	.byte 60 @ VOL
	.byte W07
	.byte 62 @ VOL
	.byte W06
	.byte 63 @ VOL
	.byte W03
	.byte N96, Gs4 @ v020
	.byte W03
	.byte VOL, 65
	.byte W06
	.byte 66 @ VOL
	.byte W06
	.byte 68 @ VOL
	.byte W06
	.byte 69 @ VOL
	.byte W72
	.byte W03
	.byte N96, Fs4 @ v020
	.byte W92
	.byte W03
	.byte VOL, 68
	.byte W01
	.byte N96, Fn4 @ v020
	.byte W06
	.byte VOL, 66
	.byte W08
	.byte 65 @ VOL
	.byte W09
	.byte 63 @ VOL
	.byte W08
	.byte 62 @ VOL
	.byte W08
	.byte 60 @ VOL
	.byte W09
	.byte 59 @ VOL
	.byte W08
	.byte 57 @ VOL
	.byte W09
	.byte 56 @ VOL
	.byte W08
	.byte 54 @ VOL
	.byte W08
	.byte 53 @ VOL
	.byte W09
	.byte 51 @ VOL
	.byte W06
	.byte VOICE, 37
	.byte TIE, Bn1, v080
	.byte W04
	.byte VOL, 72
	.byte W04
	.byte 71 @ VOL
	.byte W04
	.byte 69 @ VOL
	.byte W03
	.byte 68 @ VOL
	.byte W05
	.byte 66 @ VOL
	.byte W05
	.byte 65 @ VOL
	.byte W04
	.byte 63 @ VOL
	.byte W04
	.byte 62 @ VOL
	.byte W05
	.byte 60 @ VOL
	.byte W04
	.byte 59 @ VOL
	.byte W05
	.byte 57 @ VOL
	.byte W04
	.byte 56 @ VOL
	.byte W04
	.byte 54 @ VOL
	.byte W05
	.byte 53 @ VOL
	.byte W04
	.byte 51 @ VOL
	.byte W04
	.byte 50 @ VOL
	.byte W05
	.byte 48 @ VOL
	.byte W04
	.byte 47 @ VOL
	.byte W05
	.byte 45 @ VOL
	.byte W04
	.byte 44 @ VOL
	.byte W10
	.byte W72
	.byte EOT @ Bn1, v080
	.byte W12
	.byte VOL, 74
	.byte N12, Fs1 @ v080
	.byte W12
	.byte TIE, Bn0, v096
	.byte W96
	.byte W72
	.byte EOT @ Bn0, v096
	.byte W12
	.byte N08, Bn1, v080
	.byte W12
	.byte N48, En1 @ v080
	.byte W48
	.byte TIE, En2, v060
	.byte W04
	.byte VOL, 72
	.byte W04
	.byte 71 @ VOL
	.byte W05
	.byte 69 @ VOL
	.byte W04
	.byte 68 @ VOL
	.byte W05
	.byte 66 @ VOL
	.byte W04
	.byte 65 @ VOL
	.byte W05
	.byte 63 @ VOL
	.byte W04
	.byte 62 @ VOL
	.byte W05
	.byte 60 @ VOL
	.byte W04
	.byte 59 @ VOL
	.byte W04
	.byte W01
	.byte 57 @ VOL
	.byte W04
	.byte 56 @ VOL
	.byte W05
	.byte 54 @ VOL
	.byte W04
	.byte 53 @ VOL
	.byte W05
	.byte 51 @ VOL
	.byte W04
	.byte 50 @ VOL
	.byte W05
	.byte 48 @ VOL
	.byte W04
	.byte 47 @ VOL
	.byte W05
	.byte 45 @ VOL
	.byte W04
	.byte 44 @ VOL
	.byte W05
	.byte 42 @ VOL
	.byte W04
	.byte 41 @ VOL
	.byte W05
	.byte 39 @ VOL
	.byte W04
	.byte 38 @ VOL
	.byte W05
	.byte 37 @ VOL
	.byte W04
	.byte 35 @ VOL
	.byte W05
	.byte 34 @ VOL
	.byte W04
	.byte 32 @ VOL
	.byte W05
	.byte 31 @ VOL
	.byte W04
	.byte 29 @ VOL
	.byte W05
	.byte 28 @ VOL
	.byte W04
	.byte 26 @ VOL
	.byte W01
	.byte EOT @ En2, v060
	.byte VOICE, 14
	.byte VOL, 88
	.byte N12, En1, v112
	.byte W12
	.byte N24 @ En1, v112
	.byte W24
	.byte N24 @ En1, v112
	.byte W24
	.byte N24 @ En1, v112
	.byte W24
	.byte N24 @ En1, v112
	.byte W12
	.byte W12
	.byte N24 @ En1, v112
	.byte W24
	.byte N24 @ En1, v112
	.byte W24
	.byte N12 @ En1, v112
	.byte W12
	.byte N08 @ En1, v112
	.byte W08
	.byte N08 @ En1, v112
	.byte W08
	.byte N20 @ En1, v112
	.byte W08
track_91_lbl_26df12:
	.byte W12
	.byte N24, Cn1, v112
	.byte W24
	.byte N24 @ Cn1, v112
	.byte W24
	.byte N24 @ Cn1, v112
	.byte W24
	.byte N24 @ Cn1, v112
	.byte W12
	.byte PEND
	.byte PATT
		.word track_91_lbl_26df12
	.byte PATT
		.word track_91_lbl_26df12
	.byte W12
	.byte N24, Cn1, v112
	.byte W24
	.byte N24 @ Cn1, v112
	.byte W24
	.byte N12 @ Cn1, v112
	.byte W12
	.byte N12 @ Cn1, v112
	.byte W12
	.byte N12 @ Cn1, v112
	.byte W12
	.byte VOICE, 6
	.byte VOL, 23
	.byte N92, En1, v108
	.byte W04
	.byte VOL, 25
	.byte W01
	.byte 26 @ VOL
	.byte W01
	.byte 28 @ VOL
	.byte W01
	.byte 29 @ VOL
	.byte W01
	.byte 31 @ VOL
	.byte W01
	.byte 32 @ VOL
	.byte W01
	.byte 34 @ VOL
	.byte W02
	.byte 36 @ VOL
	.byte W01
	.byte 37 @ VOL
	.byte W01
	.byte 39 @ VOL
	.byte W01
	.byte 40 @ VOL
	.byte W01
	.byte 42 @ VOL
	.byte W01
	.byte 43 @ VOL
	.byte W01
	.byte 45 @ VOL
	.byte W01
	.byte 46 @ VOL
	.byte W01
	.byte 48 @ VOL
	.byte W01
	.byte 49 @ VOL
	.byte W01
	.byte 51 @ VOL
	.byte W01
	.byte 52 @ VOL
	.byte W01
	.byte 54 @ VOL
	.byte W01
	.byte 55 @ VOL
	.byte W01
	.byte 56 @ VOL
	.byte W01
	.byte 58 @ VOL
	.byte W01
	.byte 59 @ VOL
	.byte W01
	.byte 60 @ VOL
	.byte W01
	.byte 62 @ VOL
	.byte W01
	.byte 63 @ VOL
	.byte W01
	.byte 65 @ VOL
	.byte W01
	.byte 66 @ VOL
	.byte W01
	.byte 68 @ VOL
	.byte W01
	.byte 69 @ VOL
	.byte W01
	.byte 71 @ VOL
	.byte W01
	.byte 74 @ VOL
	.byte W56
	.byte W03
	.byte N92, En1, v096
	.byte W02
	.byte VOL, 72
	.byte W04
	.byte 71 @ VOL
	.byte W04
	.byte 69 @ VOL
	.byte W04
	.byte 68 @ VOL
	.byte W05
	.byte 66 @ VOL
	.byte W04
	.byte 65 @ VOL
	.byte W04
	.byte 63 @ VOL
	.byte W04
	.byte 62 @ VOL
	.byte W05
	.byte 60 @ VOL
	.byte W04
	.byte 59 @ VOL
	.byte W04
	.byte 57 @ VOL
	.byte W04
	.byte 56 @ VOL
	.byte W05
	.byte 54 @ VOL
	.byte W04
	.byte 53 @ VOL
	.byte W04
	.byte 51 @ VOL
	.byte W04
	.byte 50 @ VOL
	.byte W04
	.byte 48 @ VOL
	.byte W05
	.byte 47 @ VOL
	.byte W04
	.byte 45 @ VOL
	.byte W04
	.byte 44 @ VOL
	.byte W04
	.byte 42 @ VOL
	.byte W05
	.byte 41 @ VOL
	.byte W04
	.byte 39 @ VOL
	.byte W01
	.byte GOTO
		.word track_91_lbl_26dd0d
	.byte FINE

track_91_2:
	.byte KEYSH, 0
	.byte VOICE, 6
	.byte VOL, 29
	.byte PAN, c_v+10
	.byte PRIO, 108
	.byte W24
	.byte W96
	.byte VOL, 1
	.byte N96, Cs3, v056
	.byte W05
	.byte VOL, 2
	.byte W05
	.byte 4 @ VOL
	.byte W06
	.byte 5 @ VOL
	.byte W06
	.byte 7 @ VOL
	.byte W05
	.byte 8 @ VOL
	.byte W06
	.byte 10 @ VOL
	.byte W06
	.byte 11 @ VOL
	.byte W06
	.byte 13 @ VOL
	.byte W05
	.byte 14 @ VOL
	.byte W06
	.byte 16 @ VOL
	.byte W06
	.byte 17 @ VOL
	.byte W05
	.byte 19 @ VOL
	.byte W06
	.byte 20 @ VOL
	.byte W06
	.byte 22 @ VOL
	.byte W05
	.byte 23 @ VOL
	.byte W06
	.byte 25 @ VOL
	.byte W06
track_91_lbl_26dfed:
	.byte VOICE, 6
	.byte VOL, 26
	.byte N96, Bn2, v068
	.byte W05
	.byte VOL, 28
	.byte W06
	.byte 29 @ VOL
	.byte W06
	.byte 31 @ VOL
	.byte W05
	.byte 32 @ VOL
	.byte W06
	.byte 34 @ VOL
	.byte W06
	.byte 35 @ VOL
	.byte W05
	.byte 37 @ VOL
	.byte W06
	.byte 38 @ VOL
	.byte W06
	.byte 37 @ VOL
	.byte W05
	.byte 35 @ VOL
	.byte W06
	.byte 34 @ VOL
	.byte W06
	.byte 32 @ VOL
	.byte W06
	.byte 31 @ VOL
	.byte W05
	.byte 29 @ VOL
	.byte W06
	.byte 28 @ VOL
	.byte W06
	.byte 26 @ VOL
	.byte W05
track_91_lbl_26e016:
	.byte VOL, 25
	.byte N96, As2, v068
	.byte W06
	.byte VOL, 23
	.byte W06
	.byte 22 @ VOL
	.byte W05
	.byte 20 @ VOL
	.byte W06
	.byte 19 @ VOL
	.byte W06
	.byte 17 @ VOL
	.byte W05
	.byte 16 @ VOL
	.byte W06
	.byte 14 @ VOL
	.byte W06
	.byte 13 @ VOL
	.byte W05
	.byte 11 @ VOL
	.byte W06
	.byte 10 @ VOL
	.byte W06
	.byte 8 @ VOL
	.byte W05
	.byte 7 @ VOL
	.byte W06
	.byte 5 @ VOL
	.byte W06
	.byte 4 @ VOL
	.byte W16
	.byte PEND
	.byte W96
	.byte 1 @ VOL
	.byte N96, Cs3, v056
	.byte W05
	.byte VOL, 2
	.byte W05
	.byte 4 @ VOL
	.byte W06
	.byte 5 @ VOL
	.byte W06
	.byte 7 @ VOL
	.byte W05
	.byte 8 @ VOL
	.byte W06
	.byte 10 @ VOL
	.byte W06
	.byte 11 @ VOL
	.byte W06
	.byte 13 @ VOL
	.byte W05
	.byte 14 @ VOL
	.byte W06
	.byte 16 @ VOL
	.byte W06
	.byte 17 @ VOL
	.byte W05
	.byte 19 @ VOL
	.byte W06
	.byte 20 @ VOL
	.byte W06
	.byte 22 @ VOL
	.byte W05
	.byte 23 @ VOL
	.byte W06
	.byte 25 @ VOL
	.byte W06
	.byte 26 @ VOL
	.byte N96, Bn2, v068
	.byte W05
	.byte VOL, 28
	.byte W06
	.byte 29 @ VOL
	.byte W06
	.byte 31 @ VOL
	.byte W05
	.byte 32 @ VOL
	.byte W06
	.byte 34 @ VOL
	.byte W06
	.byte 35 @ VOL
	.byte W05
	.byte 37 @ VOL
	.byte W06
	.byte 38 @ VOL
	.byte W06
	.byte 37 @ VOL
	.byte W05
	.byte 35 @ VOL
	.byte W06
	.byte 34 @ VOL
	.byte W06
	.byte 32 @ VOL
	.byte W06
	.byte 31 @ VOL
	.byte W05
	.byte 29 @ VOL
	.byte W06
	.byte 28 @ VOL
	.byte W06
	.byte 26 @ VOL
	.byte W05
	.byte PATT
		.word track_91_lbl_26e016
	.byte W24
	.byte VOICE, 27
	.byte VOL, 29
	.byte N48, Bn3, v060
	.byte W48
	.byte N24, Dn3 @ v060
	.byte W03
	.byte VOL, 31
	.byte W03
	.byte 32 @ VOL
	.byte W02
	.byte 34 @ VOL
	.byte W02
	.byte 35 @ VOL
	.byte W02
	.byte 37 @ VOL
	.byte W03
	.byte 38 @ VOL
	.byte W02
	.byte 39 @ VOL
	.byte W02
	.byte 41 @ VOL
	.byte W02
	.byte 42 @ VOL
	.byte W01
	.byte 43 @ VOL
	.byte W02
	.byte 26 @ VOL
	.byte N68, As3 @ v060
	.byte W36
	.byte VOL, 28
	.byte W24
	.byte W01
	.byte 28 @ VOL
	.byte W11
	.byte 29 @ VOL
	.byte N24 @ As3, v060
	.byte W24
	.byte N96, Bn3 @ v060
	.byte W96
	.byte N68, Cs4 @ v060
	.byte W72
	.byte N24 @ Cs4, v060
	.byte W24
	.byte N92, Fs4 @ v060
	.byte W96
	.byte Fs4, v068 @ N92
	.byte W96
	.byte Fs4, v060 @ N92
	.byte W96
	.byte N92 @ Fs4, v060
	.byte W96
	.byte VOICE, 36
	.byte VOL, 38
	.byte N96, Bn3, v036
	.byte W15
	.byte VOL, 39
	.byte W08
	.byte 41 @ VOL
	.byte W09
	.byte 42 @ VOL
	.byte W09
	.byte 44 @ VOL
	.byte W08
	.byte 45 @ VOL
	.byte W09
	.byte 47 @ VOL
	.byte W09
	.byte 48 @ VOL
	.byte W08
	.byte 50 @ VOL
	.byte W09
	.byte 51 @ VOL
	.byte W09
	.byte 53 @ VOL
	.byte W03
	.byte N96 @ Bn3, v036
	.byte W05
	.byte VOL, 54
	.byte W09
	.byte 56 @ VOL
	.byte W09
	.byte 57 @ VOL
	.byte W56
	.byte W01
	.byte 56 @ VOL
	.byte W16
	.byte N96 @ Bn3, v036
	.byte W02
	.byte VOL, 54
	.byte W07
	.byte 53 @ VOL
	.byte W08
	.byte 51 @ VOL
	.byte W08
	.byte 50 @ VOL
	.byte W08
	.byte 48 @ VOL
	.byte W08
	.byte 47 @ VOL
	.byte W09
	.byte 45 @ VOL
	.byte W08
	.byte 44 @ VOL
	.byte W08
	.byte 42 @ VOL
	.byte W08
	.byte 41 @ VOL
	.byte W08
	.byte 39 @ VOL
	.byte W08
	.byte 38 @ VOL
	.byte W06
	.byte N72 @ Bn3, v036
	.byte W03
	.byte VOL, 37
	.byte W08
	.byte 35 @ VOL
	.byte W08
	.byte 34 @ VOL
	.byte W08
	.byte 32 @ VOL
	.byte W08
	.byte 31 @ VOL
	.byte W09
	.byte 29 @ VOL
	.byte W08
	.byte 28 @ VOL
	.byte W08
	.byte 26 @ VOL
	.byte W08
	.byte 25 @ VOL
	.byte W08
	.byte 23 @ VOL
	.byte W20
	.byte W48
	.byte VOICE, 27
	.byte VOL, 29
	.byte N72, Bn2, v052
	.byte W48
	.byte W03
	.byte VOL, 30
	.byte W02
	.byte 31 @ VOL
	.byte W02
	.byte 31 @ VOL
	.byte W03
	.byte 32 @ VOL
	.byte W04
	.byte 34 @ VOL
	.byte W05
	.byte 35 @ VOL
	.byte W76
	.byte W01
	.byte VOICE, 27
	.byte VOL, 7
	.byte TIE, Bn5, v040
	.byte W06
	.byte VOL, 8
	.byte W07
	.byte 10 @ VOL
	.byte W06
	.byte 11 @ VOL
	.byte W07
	.byte 13 @ VOL
	.byte W07
	.byte 14 @ VOL
	.byte W07
	.byte 16 @ VOL
	.byte W07
	.byte 17 @ VOL
	.byte W07
	.byte 19 @ VOL
	.byte W07
	.byte 20 @ VOL
	.byte W07
	.byte 22 @ VOL
	.byte W07
	.byte 23 @ VOL
	.byte W06
	.byte 25 @ VOL
	.byte W07
	.byte 26 @ VOL
	.byte W07
	.byte 28 @ VOL
	.byte W01
	.byte W05
	.byte 26 @ VOL
	.byte W07
	.byte 25 @ VOL
	.byte W06
	.byte 23 @ VOL
	.byte W07
	.byte 22 @ VOL
	.byte W06
	.byte 20 @ VOL
	.byte W07
	.byte 19 @ VOL
	.byte W07
	.byte 17 @ VOL
	.byte W06
	.byte 16 @ VOL
	.byte W07
	.byte 14 @ VOL
	.byte W06
	.byte 13 @ VOL
	.byte W07
	.byte 11 @ VOL
	.byte W01
	.byte EOT @ Bn5, v040
	.byte W24
	.byte VOL, 29
	.byte N96, Cn4 @ v040
	.byte W56
	.byte W03
	.byte VOL, 31
	.byte W07
	.byte 32 @ VOL
	.byte W07
	.byte 34 @ VOL
	.byte W06
	.byte 35 @ VOL
	.byte W07
	.byte 37 @ VOL
	.byte W06
	.byte 38 @ VOL
	.byte W04
	.byte N96 @ Cn4, v040
	.byte W03
	.byte VOL, 39
	.byte W06
	.byte 41 @ VOL
	.byte W07
	.byte 42 @ VOL
	.byte W06
	.byte 44 @ VOL
	.byte W07
	.byte 45 @ VOL
	.byte W07
	.byte 47 @ VOL
	.byte W06
	.byte 48 @ VOL
	.byte W07
	.byte 50 @ VOL
	.byte W06
	.byte 51 @ VOL
	.byte W07
	.byte 53 @ VOL
	.byte W06
	.byte 54 @ VOL
	.byte W07
	.byte 56 @ VOL
	.byte W06
	.byte 57 @ VOL
	.byte W07
	.byte 59 @ VOL
	.byte W07
	.byte 60 @ VOL
	.byte W01
	.byte N68, En4 @ v040
	.byte W72
	.byte N08 @ En4, v040
	.byte W02
	.byte VOL, 59
	.byte W01
	.byte 56 @ VOL
	.byte W01
	.byte 55 @ VOL
	.byte W01
	.byte 53 @ VOL
	.byte W01
	.byte 51 @ VOL
	.byte W01
	.byte 50 @ VOL
	.byte W01
	.byte 48 @ VOL
	.byte W01
	.byte 46 @ VOL
	.byte W01
	.byte 44 @ VOL
	.byte W01
	.byte 45 @ VOL
	.byte W01
	.byte 45 @ VOL
	.byte N08 @ En4, v040
	.byte W01
	.byte VOL, 46
	.byte W01
	.byte 48 @ VOL
	.byte W01
	.byte 48 @ VOL
	.byte W02
	.byte 50 @ VOL
	.byte W01
	.byte 51 @ VOL
	.byte W02
	.byte 53 @ VOL
	.byte W01
	.byte 54 @ VOL
	.byte W01
	.byte 55 @ VOL
	.byte W01
	.byte 56 @ VOL
	.byte W01
	.byte 36 @ VOL
	.byte N60, Fs4 @ v040
	.byte W02
	.byte VOL, 37
	.byte W04
	.byte 38 @ VOL
	.byte W04
	.byte 39 @ VOL
	.byte W04
	.byte 41 @ VOL
	.byte W04
	.byte 42 @ VOL
	.byte W03
	.byte 44 @ VOL
	.byte W04
	.byte 45 @ VOL
	.byte W04
	.byte 47 @ VOL
	.byte W04
	.byte 48 @ VOL
	.byte W03
	.byte 50 @ VOL
	.byte W04
	.byte 51 @ VOL
	.byte W04
	.byte 53 @ VOL
	.byte W04
	.byte 54 @ VOL
	.byte W04
	.byte 56 @ VOL
	.byte W03
	.byte 57 @ VOL
	.byte W04
	.byte 59 @ VOL
	.byte W13
	.byte N16 @ Fs4, v040
	.byte W10
	.byte VOL, 58
	.byte W01
	.byte 56 @ VOL
	.byte W01
	.byte 55 @ VOL
	.byte W01
	.byte 54 @ VOL
	.byte W01
	.byte 52 @ VOL
	.byte W01
	.byte 51 @ VOL
	.byte W09
	.byte VOICE, 27
	.byte VOL, 48
	.byte N72, Bn4, v052
	.byte W01
	.byte VOL, 47
	.byte W01
	.byte 45 @ VOL
	.byte W01
	.byte 44 @ VOL
	.byte W01
	.byte 42 @ VOL
	.byte W01
	.byte 41 @ VOL
	.byte W01
	.byte 39 @ VOL
	.byte W01
	.byte 38 @ VOL
	.byte W01
	.byte 37 @ VOL
	.byte W01
	.byte 35 @ VOL
	.byte W01
	.byte 34 @ VOL
	.byte W01
	.byte 32 @ VOL
	.byte W01
	.byte 31 @ VOL
	.byte W01
	.byte 29 @ VOL
	.byte W01
	.byte 28 @ VOL
	.byte W01
	.byte 26 @ VOL
	.byte W01
	.byte 25 @ VOL
	.byte W01
	.byte 23 @ VOL
	.byte W01
	.byte 22 @ VOL
	.byte W78
	.byte 2 @ VOL
	.byte N96, Cs3, v036
	.byte W10
	.byte VOL, 4
	.byte W06
	.byte 5 @ VOL
	.byte W06
	.byte 7 @ VOL
	.byte W05
	.byte 8 @ VOL
	.byte W06
	.byte 10 @ VOL
	.byte W06
	.byte 11 @ VOL
	.byte W06
	.byte 13 @ VOL
	.byte W05
	.byte 14 @ VOL
	.byte W06
	.byte 16 @ VOL
	.byte W06
	.byte 17 @ VOL
	.byte W05
	.byte 19 @ VOL
	.byte W06
	.byte 20 @ VOL
	.byte W06
	.byte 22 @ VOL
	.byte W05
	.byte 23 @ VOL
	.byte W06
	.byte 25 @ VOL
	.byte W06
	.byte GOTO
		.word track_91_lbl_26dfed
	.byte FINE

track_91_3:
	.byte KEYSH, 0
	.byte VOICE, 6
	.byte VOL, 29
	.byte PAN, c_v-10
	.byte PRIO, 30
	.byte W24
	.byte W96
	.byte VOL, 1
	.byte N96, As2, v056
	.byte W05
	.byte VOL, 2
	.byte W05
	.byte 4 @ VOL
	.byte W06
	.byte 5 @ VOL
	.byte W06
	.byte 7 @ VOL
	.byte W05
	.byte 8 @ VOL
	.byte W06
	.byte 10 @ VOL
	.byte W06
	.byte 11 @ VOL
	.byte W06
	.byte 13 @ VOL
	.byte W05
	.byte 14 @ VOL
	.byte W06
	.byte 16 @ VOL
	.byte W06
	.byte 17 @ VOL
	.byte W05
	.byte 19 @ VOL
	.byte W06
	.byte 20 @ VOL
	.byte W06
	.byte 22 @ VOL
	.byte W05
	.byte 23 @ VOL
	.byte W06
	.byte 25 @ VOL
	.byte W06
track_91_lbl_26e2a0:
	.byte VOICE, 6
	.byte VOL, 26
	.byte N96, Gs2, v068
	.byte W05
	.byte VOL, 28
	.byte W06
	.byte 29 @ VOL
	.byte W06
	.byte 31 @ VOL
	.byte W05
	.byte 32 @ VOL
	.byte W06
	.byte 34 @ VOL
	.byte W06
	.byte 35 @ VOL
	.byte W05
	.byte 37 @ VOL
	.byte W06
	.byte 38 @ VOL
	.byte W06
	.byte 37 @ VOL
	.byte W05
	.byte 35 @ VOL
	.byte W06
	.byte 34 @ VOL
	.byte W06
	.byte 32 @ VOL
	.byte W06
	.byte 31 @ VOL
	.byte W05
	.byte 29 @ VOL
	.byte W06
	.byte 28 @ VOL
	.byte W06
	.byte 26 @ VOL
	.byte W05
track_91_lbl_26e2c9:
	.byte VOL, 25
	.byte N96, Fs2, v068
	.byte W06
	.byte VOL, 23
	.byte W06
	.byte 22 @ VOL
	.byte W05
	.byte 20 @ VOL
	.byte W06
	.byte 19 @ VOL
	.byte W06
	.byte 17 @ VOL
	.byte W05
	.byte 16 @ VOL
	.byte W06
	.byte 14 @ VOL
	.byte W06
	.byte 13 @ VOL
	.byte W05
	.byte 11 @ VOL
	.byte W06
	.byte 10 @ VOL
	.byte W06
	.byte 8 @ VOL
	.byte W05
	.byte 7 @ VOL
	.byte W06
	.byte 5 @ VOL
	.byte W06
	.byte 4 @ VOL
	.byte W16
	.byte PEND
	.byte W96
	.byte 1 @ VOL
	.byte N96, As2, v056
	.byte W05
	.byte VOL, 2
	.byte W05
	.byte 4 @ VOL
	.byte W06
	.byte 5 @ VOL
	.byte W06
	.byte 7 @ VOL
	.byte W05
	.byte 8 @ VOL
	.byte W06
	.byte 10 @ VOL
	.byte W06
	.byte 11 @ VOL
	.byte W06
	.byte 13 @ VOL
	.byte W05
	.byte 14 @ VOL
	.byte W06
	.byte 16 @ VOL
	.byte W06
	.byte 17 @ VOL
	.byte W05
	.byte 19 @ VOL
	.byte W06
	.byte 20 @ VOL
	.byte W06
	.byte 22 @ VOL
	.byte W05
	.byte 23 @ VOL
	.byte W06
	.byte 25 @ VOL
	.byte W06
	.byte 26 @ VOL
	.byte N96, Gs2, v068
	.byte W05
	.byte VOL, 28
	.byte W06
	.byte 29 @ VOL
	.byte W06
	.byte 31 @ VOL
	.byte W05
	.byte 32 @ VOL
	.byte W06
	.byte 34 @ VOL
	.byte W06
	.byte 35 @ VOL
	.byte W05
	.byte 37 @ VOL
	.byte W06
	.byte 38 @ VOL
	.byte W06
	.byte 37 @ VOL
	.byte W05
	.byte 35 @ VOL
	.byte W06
	.byte 34 @ VOL
	.byte W06
	.byte 32 @ VOL
	.byte W06
	.byte 31 @ VOL
	.byte W05
	.byte 29 @ VOL
	.byte W06
	.byte 28 @ VOL
	.byte W06
	.byte 26 @ VOL
	.byte W05
	.byte PATT
		.word track_91_lbl_26e2c9
	.byte W24
	.byte VOICE, 27
	.byte VOL, 29
	.byte N48, Gn3, v060
	.byte W48
	.byte VOL, 29
	.byte W02
	.byte 30 @ VOL
	.byte W01
	.byte 31 @ VOL
	.byte W01
	.byte 31 @ VOL
	.byte W01
	.byte 31 @ VOL
	.byte W01
	.byte 32 @ VOL
	.byte W01
	.byte 33 @ VOL
	.byte W01
	.byte 34 @ VOL
	.byte W01
	.byte 34 @ VOL
	.byte W01
	.byte 35 @ VOL
	.byte W01
	.byte 36 @ VOL
	.byte W01
	.byte 37 @ VOL
	.byte W01
	.byte 37 @ VOL
	.byte W01
	.byte 37 @ VOL
	.byte W01
	.byte 38 @ VOL
	.byte W01
	.byte 39 @ VOL
	.byte W01
	.byte 39 @ VOL
	.byte W01
	.byte 40 @ VOL
	.byte W01
	.byte 41 @ VOL
	.byte W01
	.byte 42 @ VOL
	.byte W01
	.byte 42 @ VOL
	.byte W01
	.byte 43 @ VOL
	.byte W02
	.byte 26 @ VOL
	.byte N68 @ Gn3, v060
	.byte W36
	.byte VOL, 28
	.byte W36
	.byte 29 @ VOL
	.byte N24 @ Gn3, v060
	.byte W24
	.byte N96 @ Gn3, v060
	.byte W96
	.byte N68 @ Gn3, v060
	.byte W72
	.byte N24 @ Gn3, v060
	.byte W24
	.byte VOICE, 36
	.byte VOL, 45
	.byte N96, Bn3, v036
	.byte W07
	.byte VOL, 47
	.byte W07
	.byte 48 @ VOL
	.byte W07
	.byte 50 @ VOL
	.byte W07
	.byte 51 @ VOL
	.byte W07
	.byte 53 @ VOL
	.byte W07
	.byte 54 @ VOL
	.byte W06
	.byte 56 @ VOL
	.byte W07
	.byte 57 @ VOL
	.byte W07
	.byte 59 @ VOL
	.byte W07
	.byte 60 @ VOL
	.byte W07
	.byte 62 @ VOL
	.byte W07
	.byte 63 @ VOL
	.byte W06
	.byte 65 @ VOL
	.byte W07
	.byte W96
	.byte W96
	.byte W96
	.byte VOICE, 34
	.byte VOL, 59
	.byte N07, Fs2, v080
	.byte W08
	.byte Bn2, v076 @ N07
	.byte W08
	.byte Ds3, v072 @ N07
	.byte W08
	.byte Fs3, v068 @ N07
	.byte W08
	.byte Bn3, v064 @ N07
	.byte W08
	.byte Ds4, v052 @ N07
	.byte W08
	.byte Bn4, v020 @ N07
	.byte W08
	.byte Fs4, v040 @ N07
	.byte W08
	.byte Ds4, v060 @ N07
	.byte W08
	.byte Bn3 @ N07, v060
	.byte W08
	.byte Fs3, v072 @ N07
	.byte W08
	.byte Ds3, v080 @ N07
	.byte W08
	.byte Fs2 @ N07, v080
	.byte W08
	.byte Bn2, v076 @ N07
	.byte W08
	.byte Ds3, v072 @ N07
	.byte W08
	.byte Fs3, v068 @ N07
	.byte W08
	.byte Bn3, v064 @ N07
	.byte W08
	.byte Ds4, v060 @ N07
	.byte W08
	.byte Bn4, v020 @ N07
	.byte W08
	.byte Fs4, v052 @ N07
	.byte W08
	.byte Ds4, v060 @ N07
	.byte W08
	.byte Bn3 @ N07, v060
	.byte W08
	.byte Fs3, v072 @ N07
	.byte W08
	.byte Ds3, v080 @ N07
	.byte W08
	.byte Fs2 @ N07, v080
	.byte W08
	.byte Bn2, v076 @ N07
	.byte W08
	.byte Ds3, v072 @ N07
	.byte W08
	.byte Fs3, v068 @ N07
	.byte W08
	.byte Bn3, v064 @ N07
	.byte W08
	.byte Ds4, v056 @ N07
	.byte W08
	.byte Bn4, v020 @ N07
	.byte W08
	.byte Fs4, v048 @ N07
	.byte W08
	.byte Ds4, v056 @ N07
	.byte W08
	.byte Bn3 @ N07, v056
	.byte W08
	.byte Fs3, v064 @ N07
	.byte W08
	.byte Ds3, v072 @ N07
	.byte W08
	.byte Fs2, v068 @ N07
	.byte W08
	.byte Bn2, v064 @ N07
	.byte W08
	.byte Ds3, v060 @ N07
	.byte W08
	.byte Fs3, v056 @ N07
	.byte W08
	.byte Bn3, v052 @ N07
	.byte W08
	.byte Ds4, v048 @ N07
	.byte W08
	.byte Bn4, v016 @ N07
	.byte W08
	.byte Fs4, v040 @ N07
	.byte W08
	.byte Ds4, v048 @ N07
	.byte W08
	.byte Bn3, v044 @ N07
	.byte W08
	.byte Fs3, v052 @ N07
	.byte W08
	.byte Ds3, v060 @ N07
	.byte W08
	.byte W96
	.byte VOICE, 27
	.byte VOL, 29
	.byte N96, Cs3, v052
	.byte W05
	.byte VOL, 31
	.byte W05
	.byte 32 @ VOL
	.byte W04
	.byte 34 @ VOL
	.byte W05
	.byte 35 @ VOL
	.byte W05
	.byte 37 @ VOL
	.byte W04
	.byte 38 @ VOL
	.byte W05
	.byte 39 @ VOL
	.byte W05
	.byte 41 @ VOL
	.byte W04
	.byte 42 @ VOL
	.byte W05
	.byte 44 @ VOL
	.byte W05
	.byte 45 @ VOL
	.byte W04
	.byte 47 @ VOL
	.byte W05
	.byte 48 @ VOL
	.byte W05
	.byte 50 @ VOL
	.byte W04
	.byte 51 @ VOL
	.byte W05
	.byte 53 @ VOL
	.byte W04
	.byte 54 @ VOL
	.byte W05
	.byte 56 @ VOL
	.byte W05
	.byte 57 @ VOL
	.byte W04
	.byte 59 @ VOL
	.byte W03
	.byte VOICE, 27
	.byte VOL, 29
	.byte N96, En3, v044
	.byte W96
	.byte N72 @ En3, v044
	.byte W96
	.byte VOL, 29
	.byte N96, Cn3, v040
	.byte W56
	.byte W03
	.byte VOL, 31
	.byte W07
	.byte 32 @ VOL
	.byte W07
	.byte 34 @ VOL
	.byte W06
	.byte 35 @ VOL
	.byte W07
	.byte 37 @ VOL
	.byte W06
	.byte 38 @ VOL
	.byte W04
	.byte N96 @ Cn3, v040
	.byte W03
	.byte VOL, 39
	.byte W06
	.byte 41 @ VOL
	.byte W07
	.byte 42 @ VOL
	.byte W06
	.byte 44 @ VOL
	.byte W07
	.byte 45 @ VOL
	.byte W07
	.byte 47 @ VOL
	.byte W06
	.byte 48 @ VOL
	.byte W07
	.byte 50 @ VOL
	.byte W06
	.byte 51 @ VOL
	.byte W07
	.byte 53 @ VOL
	.byte W06
	.byte 54 @ VOL
	.byte W07
	.byte 56 @ VOL
	.byte W06
	.byte 57 @ VOL
	.byte W07
	.byte 59 @ VOL
	.byte W07
	.byte 60 @ VOL
	.byte W01
	.byte N96 @ Cn3, v040
	.byte W72
	.byte W02
	.byte VOL, 59
	.byte W01
	.byte 56 @ VOL
	.byte W01
	.byte 55 @ VOL
	.byte W01
	.byte 53 @ VOL
	.byte W01
	.byte 51 @ VOL
	.byte W01
	.byte 50 @ VOL
	.byte W01
	.byte 48 @ VOL
	.byte W01
	.byte 46 @ VOL
	.byte W01
	.byte 44 @ VOL
	.byte W01
	.byte 45 @ VOL
	.byte W01
	.byte 45 @ VOL
	.byte W01
	.byte 46 @ VOL
	.byte W01
	.byte 48 @ VOL
	.byte W01
	.byte 48 @ VOL
	.byte W02
	.byte 50 @ VOL
	.byte W01
	.byte 51 @ VOL
	.byte W02
	.byte 53 @ VOL
	.byte W01
	.byte 54 @ VOL
	.byte W01
	.byte 55 @ VOL
	.byte W01
	.byte 56 @ VOL
	.byte W01
	.byte 36 @ VOL
	.byte N96 @ Cn3, v040
	.byte W02
	.byte VOL, 37
	.byte W04
	.byte 38 @ VOL
	.byte W04
	.byte 39 @ VOL
	.byte W04
	.byte 41 @ VOL
	.byte W04
	.byte 42 @ VOL
	.byte W03
	.byte 44 @ VOL
	.byte W04
	.byte 45 @ VOL
	.byte W04
	.byte 47 @ VOL
	.byte W04
	.byte 48 @ VOL
	.byte W03
	.byte 50 @ VOL
	.byte W04
	.byte 51 @ VOL
	.byte W04
	.byte 53 @ VOL
	.byte W04
	.byte 54 @ VOL
	.byte W04
	.byte 56 @ VOL
	.byte W03
	.byte 57 @ VOL
	.byte W04
	.byte 59 @ VOL
	.byte W23
	.byte 58 @ VOL
	.byte W01
	.byte 56 @ VOL
	.byte W01
	.byte 55 @ VOL
	.byte W01
	.byte 54 @ VOL
	.byte W01
	.byte 52 @ VOL
	.byte W01
	.byte 51 @ VOL
	.byte W09
	.byte VOICE, 27
	.byte VOL, 51
	.byte N72, Bn3, v052
	.byte W01
	.byte VOL, 47
	.byte W01
	.byte 45 @ VOL
	.byte W01
	.byte 44 @ VOL
	.byte W01
	.byte 42 @ VOL
	.byte W01
	.byte 41 @ VOL
	.byte W01
	.byte 39 @ VOL
	.byte W01
	.byte 38 @ VOL
	.byte W01
	.byte 37 @ VOL
	.byte W01
	.byte 35 @ VOL
	.byte W01
	.byte 34 @ VOL
	.byte W01
	.byte 32 @ VOL
	.byte W01
	.byte 31 @ VOL
	.byte W01
	.byte 29 @ VOL
	.byte W01
	.byte 28 @ VOL
	.byte W01
	.byte 27 @ VOL
	.byte W01
	.byte 25 @ VOL
	.byte W01
	.byte 24 @ VOL
	.byte W01
	.byte 22 @ VOL
	.byte W01
	.byte 21 @ VOL
	.byte W01
	.byte 19 @ VOL
	.byte W01
	.byte 18 @ VOL
	.byte W01
	.byte 17 @ VOL
	.byte W01
	.byte 15 @ VOL
	.byte W01
	.byte 14 @ VOL
	.byte W01
	.byte 12 @ VOL
	.byte W01
	.byte 11 @ VOL
	.byte W01
	.byte 9 @ VOL
	.byte W01
	.byte 8 @ VOL
	.byte W01
	.byte 6 @ VOL
	.byte W01
	.byte 5 @ VOL
	.byte W01
	.byte 3 @ VOL
	.byte W01
	.byte 2 @ VOL
	.byte W01
	.byte 0 @ VOL
	.byte W60
	.byte W03
	.byte VOICE, 6
	.byte VOL, 4
	.byte N96, As2, v036
	.byte W16
	.byte VOL, 5
	.byte W06
	.byte 7 @ VOL
	.byte W05
	.byte 8 @ VOL
	.byte W06
	.byte 10 @ VOL
	.byte W06
	.byte 11 @ VOL
	.byte W06
	.byte 13 @ VOL
	.byte W05
	.byte 14 @ VOL
	.byte W06
	.byte 16 @ VOL
	.byte W06
	.byte 17 @ VOL
	.byte W05
	.byte 19 @ VOL
	.byte W06
	.byte 20 @ VOL
	.byte W06
	.byte 22 @ VOL
	.byte W05
	.byte 23 @ VOL
	.byte W06
	.byte 25 @ VOL
	.byte W06
	.byte GOTO
		.word track_91_lbl_26e2a0
	.byte FINE

track_91_4:
	.byte KEYSH, 0
	.byte VOICE, 14
	.byte VOL, 88
	.byte PAN, c_v-6
	.byte PRIO, 29
	.byte N06, Bn1, v084
	.byte W08
	.byte Bn1, v104 @ N06
	.byte W08
	.byte Bn1, v127 @ N06
	.byte W08
	.byte VOICE, 14
	.byte VOL, 88
	.byte N08, En1 @ v127
	.byte W12
	.byte N12, En1, v108
	.byte W36
	.byte VOICE, 0
	.byte VOL, 74
	.byte N36, Cs2, v032
	.byte W48
	.byte W96
track_91_lbl_26e5a6:
	.byte W24
	.byte VOICE, 0
	.byte VOL, 74
	.byte N08, Bn5, v020
	.byte W08
	.byte Bn5, v036 @ N08
	.byte W08
	.byte Bn5, v044 @ N08
	.byte W08
	.byte Bn5, v056 @ N08
	.byte W12
	.byte Bn5, v064 @ N08
	.byte W24
	.byte Bn5, v056 @ N08
	.byte W12
	.byte N08 @ Bn5, v056
	.byte W12
	.byte Bn5, v052 @ N08
	.byte W24
	.byte Bn5, v040 @ N08
	.byte W24
	.byte Bn5, v036 @ N08
	.byte W24
	.byte Bn5, v020 @ N08
	.byte W12
	.byte VOICE, 14
	.byte VOL, 88
	.byte N08, En1, v096
	.byte W12
	.byte N12, En1, v076
	.byte W36
	.byte VOICE, 0
	.byte VOL, 74
	.byte N36, Cs2, v032
	.byte W48
	.byte W96
	.byte W24
	.byte N08, Bn5, v020
	.byte W08
	.byte Bn5, v036 @ N08
	.byte W08
	.byte Bn5, v044 @ N08
	.byte W08
	.byte Bn5, v056 @ N08
	.byte W12
	.byte Bn5, v064 @ N08
	.byte W24
	.byte Bn5, v056 @ N08
	.byte W12
	.byte N08 @ Bn5, v056
	.byte W12
	.byte Bn5, v052 @ N08
	.byte W12
	.byte VOICE, 14
	.byte VOL, 88
	.byte N12, En1, v092
	.byte W12
	.byte VOICE, 0
	.byte VOL, 74
	.byte N08, Bn5, v040
	.byte W12
	.byte VOICE, 14
	.byte VOL, 88
	.byte N12, En1, v092
	.byte W12
	.byte VOICE, 0
	.byte VOL, 74
	.byte N08, Bn5, v036
	.byte W12
	.byte VOICE, 14
	.byte VOL, 88
	.byte N08, En1, v112
	.byte W08
	.byte N08 @ En1, v112
	.byte W08
	.byte Fs1 @ N08, v112
	.byte W08
	.byte W24
	.byte N44, Gn1, v092
	.byte W48
	.byte N06 @ Gn1, v092
	.byte W08
	.byte N06 @ Gn1, v092
	.byte W08
	.byte N06 @ Gn1, v092
	.byte W08
	.byte W96
	.byte W72
	.byte N24 @ Gn1, v092
	.byte W24
	.byte N24 @ Gn1, v092
	.byte W24
	.byte N24 @ Gn1, v092
	.byte W24
	.byte N24 @ Gn1, v092
	.byte W24
	.byte N08 @ Gn1, v092
	.byte W08
	.byte N08 @ Gn1, v092
	.byte W08
	.byte N08 @ Gn1, v092
	.byte W08
	.byte W36
	.byte N06, Bn1 @ v092
	.byte W06
	.byte N06 @ Bn1, v092
	.byte W06
	.byte N12 @ Bn1, v092
	.byte W12
	.byte N12 @ Bn1, v092
	.byte W12
	.byte N08 @ Bn1, v092
	.byte W08
	.byte N08 @ Bn1, v092
	.byte W08
	.byte N44 @ Bn1, v092
	.byte W08
	.byte W36
	.byte N06 @ Bn1, v092
	.byte W06
	.byte N06 @ Bn1, v092
	.byte W06
	.byte N12 @ Bn1, v092
	.byte W12
	.byte N12 @ Bn1, v092
	.byte W12
	.byte N08 @ Bn1, v092
	.byte W08
	.byte N08 @ Bn1, v092
	.byte W08
	.byte N08 @ Bn1, v092
	.byte W08
	.byte N12 @ Bn1, v092
	.byte W12
	.byte N24 @ Bn1, v092
	.byte W24
	.byte N24 @ Bn1, v092
	.byte W24
	.byte N12 @ Bn1, v092
	.byte W12
	.byte N08 @ Bn1, v092
	.byte W08
	.byte N08 @ Bn1, v092
	.byte W08
	.byte N08 @ Bn1, v092
	.byte W08
	.byte N12 @ Bn1, v092
	.byte W12
	.byte N24, Bn1, v084
	.byte W24
	.byte Bn1, v076 @ N24
	.byte W24
	.byte Bn1, v068 @ N24
	.byte W24
	.byte N12, Bn1, v060
	.byte W12
	.byte W96
	.byte W96
	.byte W96
	.byte W96
	.byte W96
	.byte W72
	.byte VOICE, 14
	.byte VOL, 88
	.byte N08, En1, v092
	.byte W08
	.byte N08 @ En1, v092
	.byte W08
	.byte N08 @ En1, v092
	.byte W08
	.byte VOICE, 27
	.byte VOL, 29
	.byte N48, Bn2, v044
	.byte W48
	.byte VOICE, 0
	.byte VOL, 74
	.byte N36, Cs2, v080
	.byte W48
	.byte W96
	.byte W48
	.byte N36 @ Cs2, v080
	.byte W48
	.byte W96
	.byte VOL, 60
	.byte N68, Gn3, v040
	.byte W72
	.byte N08 @ Gn3, v040
	.byte W02
	.byte VOL, 59
	.byte W01
	.byte 56 @ VOL
	.byte W01
	.byte 55 @ VOL
	.byte W01
	.byte 53 @ VOL
	.byte W01
	.byte 51 @ VOL
	.byte W01
	.byte 50 @ VOL
	.byte W01
	.byte 48 @ VOL
	.byte W01
	.byte 46 @ VOL
	.byte W01
	.byte 44 @ VOL
	.byte W01
	.byte 45 @ VOL
	.byte W01
	.byte 45 @ VOL
	.byte N08 @ Gn3, v040
	.byte W01
	.byte VOL, 46
	.byte W01
	.byte 48 @ VOL
	.byte W01
	.byte 48 @ VOL
	.byte W02
	.byte 50 @ VOL
	.byte W01
	.byte 51 @ VOL
	.byte W02
	.byte 53 @ VOL
	.byte W01
	.byte 54 @ VOL
	.byte W01
	.byte 55 @ VOL
	.byte W01
	.byte 56 @ VOL
	.byte W01
	.byte 36 @ VOL
	.byte N60, An3 @ v040
	.byte W02
	.byte VOL, 37
	.byte W04
	.byte 38 @ VOL
	.byte W04
	.byte 39 @ VOL
	.byte W04
	.byte 41 @ VOL
	.byte W04
	.byte 42 @ VOL
	.byte W03
	.byte 44 @ VOL
	.byte W04
	.byte 45 @ VOL
	.byte W04
	.byte 47 @ VOL
	.byte W04
	.byte 48 @ VOL
	.byte W03
	.byte 50 @ VOL
	.byte W04
	.byte 51 @ VOL
	.byte W04
	.byte 53 @ VOL
	.byte W04
	.byte 54 @ VOL
	.byte W04
	.byte 56 @ VOL
	.byte W03
	.byte 57 @ VOL
	.byte W04
	.byte 59 @ VOL
	.byte W13
	.byte N16 @ An3, v040
	.byte W10
	.byte VOL, 58
	.byte W01
	.byte 56 @ VOL
	.byte W01
	.byte 55 @ VOL
	.byte W01
	.byte 54 @ VOL
	.byte W01
	.byte 52 @ VOL
	.byte W01
	.byte 51 @ VOL
	.byte W09
	.byte VOICE, 14
	.byte VOL, 88
	.byte N08, En1, v112
	.byte W12
	.byte N12, En1, v076
	.byte W36
	.byte VOICE, 0
	.byte VOL, 74
	.byte N36, Cs2, v032
	.byte W48
	.byte W96
	.byte GOTO
		.word track_91_lbl_26e5a6
	.byte FINE

track_91_5:
	.byte KEYSH, 0
	.byte VOICE, 1
	.byte VOL, 74
	.byte PAN, c_v
	.byte PRIO, 30
	.byte W24
	.byte W96
	.byte VOL, 23
	.byte N96, En2, v076
	.byte W05
	.byte VOL, 25
	.byte W05
	.byte 26 @ VOL
	.byte W06
	.byte 28 @ VOL
	.byte W06
	.byte 29 @ VOL
	.byte W05
	.byte 31 @ VOL
	.byte W06
	.byte 32 @ VOL
	.byte W06
	.byte 34 @ VOL
	.byte W06
	.byte 35 @ VOL
	.byte W05
	.byte 37 @ VOL
	.byte W06
	.byte 38 @ VOL
	.byte W06
	.byte 39 @ VOL
	.byte W05
	.byte 41 @ VOL
	.byte W06
	.byte 42 @ VOL
	.byte W06
	.byte 44 @ VOL
	.byte W05
	.byte 45 @ VOL
	.byte W06
	.byte 47 @ VOL
	.byte W06
track_91_lbl_26e75a:
	.byte VOICE, 1
	.byte VOL, 48
	.byte N96, En2, v076
	.byte W05
	.byte VOL, 50
	.byte W06
	.byte 51 @ VOL
	.byte W06
	.byte 53 @ VOL
	.byte W05
	.byte 54 @ VOL
	.byte W06
	.byte 56 @ VOL
	.byte W06
	.byte 57 @ VOL
	.byte W05
	.byte 59 @ VOL
	.byte W06
	.byte 60 @ VOL
	.byte W06
	.byte 59 @ VOL
	.byte W05
	.byte 57 @ VOL
	.byte W06
	.byte 56 @ VOL
	.byte W06
	.byte 54 @ VOL
	.byte W06
	.byte 53 @ VOL
	.byte W05
	.byte 51 @ VOL
	.byte W06
	.byte 50 @ VOL
	.byte W06
	.byte 48 @ VOL
	.byte W05
track_91_lbl_26e783:
	.byte VOL, 47
	.byte N96, En2, v076
	.byte W06
	.byte VOL, 45
	.byte W06
	.byte 44 @ VOL
	.byte W05
	.byte 42 @ VOL
	.byte W06
	.byte 41 @ VOL
	.byte W06
	.byte 39 @ VOL
	.byte W05
	.byte 38 @ VOL
	.byte W06
	.byte 37 @ VOL
	.byte W06
	.byte 35 @ VOL
	.byte W05
	.byte 34 @ VOL
	.byte W06
	.byte 32 @ VOL
	.byte W06
	.byte 31 @ VOL
	.byte W05
	.byte 29 @ VOL
	.byte W06
	.byte 28 @ VOL
	.byte W06
	.byte 26 @ VOL
	.byte W16
	.byte PEND
	.byte W96
	.byte 23 @ VOL
	.byte N96 @ En2, v076
	.byte W05
	.byte VOL, 25
	.byte W05
	.byte 26 @ VOL
	.byte W06
	.byte 28 @ VOL
	.byte W06
	.byte 29 @ VOL
	.byte W05
	.byte 31 @ VOL
	.byte W06
	.byte 32 @ VOL
	.byte W06
	.byte 34 @ VOL
	.byte W06
	.byte 35 @ VOL
	.byte W05
	.byte 37 @ VOL
	.byte W06
	.byte 38 @ VOL
	.byte W06
	.byte 39 @ VOL
	.byte W05
	.byte 41 @ VOL
	.byte W06
	.byte 42 @ VOL
	.byte W06
	.byte 44 @ VOL
	.byte W05
	.byte 45 @ VOL
	.byte W06
	.byte 47 @ VOL
	.byte W06
	.byte 48 @ VOL
	.byte N96 @ En2, v076
	.byte W05
	.byte VOL, 50
	.byte W06
	.byte 51 @ VOL
	.byte W06
	.byte 53 @ VOL
	.byte W05
	.byte 54 @ VOL
	.byte W06
	.byte 56 @ VOL
	.byte W06
	.byte 57 @ VOL
	.byte W05
	.byte 59 @ VOL
	.byte W06
	.byte 60 @ VOL
	.byte W06
	.byte 59 @ VOL
	.byte W05
	.byte 57 @ VOL
	.byte W06
	.byte 56 @ VOL
	.byte W06
	.byte 54 @ VOL
	.byte W06
	.byte 53 @ VOL
	.byte W05
	.byte 51 @ VOL
	.byte W06
	.byte 50 @ VOL
	.byte W06
	.byte 48 @ VOL
	.byte W05
	.byte PATT
		.word track_91_lbl_26e783
	.byte W96
	.byte W96
	.byte W96
	.byte W96
	.byte W96
	.byte W96
	.byte W96
	.byte W96
	.byte W96
	.byte W96
	.byte W96
	.byte W96
	.byte W96
	.byte W96
	.byte W96
	.byte N72, Cs3, v044
	.byte W96
	.byte VOL, 29
	.byte N96, Gn3, v040
	.byte W56
	.byte W03
	.byte VOL, 31
	.byte W07
	.byte 32 @ VOL
	.byte W07
	.byte 34 @ VOL
	.byte W06
	.byte 35 @ VOL
	.byte W07
	.byte 37 @ VOL
	.byte W06
	.byte 38 @ VOL
	.byte W04
	.byte N96 @ Gn3, v040
	.byte W03
	.byte VOL, 39
	.byte W06
	.byte 41 @ VOL
	.byte W07
	.byte 42 @ VOL
	.byte W06
	.byte 44 @ VOL
	.byte W07
	.byte 45 @ VOL
	.byte W07
	.byte 47 @ VOL
	.byte W06
	.byte 48 @ VOL
	.byte W07
	.byte 50 @ VOL
	.byte W06
	.byte 51 @ VOL
	.byte W07
	.byte 53 @ VOL
	.byte W06
	.byte 54 @ VOL
	.byte W07
	.byte 56 @ VOL
	.byte W06
	.byte 57 @ VOL
	.byte W07
	.byte 59 @ VOL
	.byte W07
	.byte 60 @ VOL
	.byte W01
	.byte N68, Cn4 @ v040
	.byte W72
	.byte N08 @ Cn4, v040
	.byte W12
	.byte N08 @ Cn4, v040
	.byte W12
	.byte VOL, 59
	.byte N60, En4 @ v040
	.byte W72
	.byte N16 @ En4, v040
	.byte W24
	.byte W96
	.byte VOL, 23
	.byte N96, En2, v056
	.byte W05
	.byte VOL, 25
	.byte W05
	.byte 26 @ VOL
	.byte W06
	.byte 28 @ VOL
	.byte W06
	.byte 29 @ VOL
	.byte W05
	.byte 31 @ VOL
	.byte W06
	.byte 32 @ VOL
	.byte W06
	.byte 34 @ VOL
	.byte W06
	.byte 35 @ VOL
	.byte W05
	.byte 37 @ VOL
	.byte W06
	.byte 38 @ VOL
	.byte W06
	.byte 39 @ VOL
	.byte W05
	.byte 41 @ VOL
	.byte W06
	.byte 42 @ VOL
	.byte W06
	.byte 44 @ VOL
	.byte W05
	.byte 45 @ VOL
	.byte W06
	.byte 47 @ VOL
	.byte W06
	.byte GOTO
		.word track_91_lbl_26e75a
	.byte FINE

.align 2

track_91:
	.byte 6
	.byte 91
	.byte 130
	.byte 128
	.word 0x80a62f8
	.word track_91_0
	.word track_91_1
	.word track_91_2
	.word track_91_3
	.word track_91_4
	.word track_91_5

.align 2
