.align 2

.global track_64

track_64_0:
	.byte KEYSH, 0
	.byte TEMPO, 66
	.byte VOICE, 81
	.byte VOL, 127
	.byte BEND, c_v
	.byte W12
	.byte PAN, c_v+36
	.byte N60, Cn3, v080
	.byte W01
	.byte PAN, c_v+34
	.byte W01
	.byte c_v+33 @ PAN
	.byte W01
	.byte c_v+32 @ PAN
	.byte W01
	.byte c_v+31 @ PAN
	.byte W01
	.byte c_v+30 @ PAN
	.byte W01
	.byte c_v+29 @ PAN
	.byte W01
	.byte c_v+27 @ PAN
	.byte W01
	.byte c_v+26 @ PAN
	.byte W01
	.byte c_v+25 @ PAN
	.byte W01
	.byte c_v+24 @ PAN
	.byte W01
	.byte c_v+23 @ PAN
	.byte W01
	.byte c_v+22 @ PAN
	.byte W01
	.byte c_v+20 @ PAN
	.byte W01
	.byte c_v+19 @ PAN
	.byte W01
	.byte c_v+18 @ PAN
	.byte W01
	.byte c_v+17 @ PAN
	.byte W01
	.byte c_v+16 @ PAN
	.byte W01
	.byte c_v+15 @ PAN
	.byte W01
	.byte c_v+13 @ PAN
	.byte W01
	.byte c_v+12 @ PAN
	.byte W01
	.byte c_v+11 @ PAN
	.byte W01
	.byte c_v+10 @ PAN
	.byte W01
	.byte c_v+9 @ PAN
	.byte W01
	.byte c_v+8 @ PAN
	.byte W01
	.byte c_v+6 @ PAN
	.byte W01
	.byte c_v+5 @ PAN
	.byte W01
	.byte c_v+4 @ PAN
	.byte W01
	.byte c_v+3 @ PAN
	.byte W01
	.byte c_v+2 @ PAN
	.byte W01
	.byte c_v+1 @ PAN
	.byte W01
	.byte c_v-1 @ PAN
	.byte W01
	.byte c_v-2 @ PAN
	.byte W01
	.byte c_v-3 @ PAN
	.byte W01
	.byte c_v-4 @ PAN
	.byte W01
	.byte c_v-5 @ PAN
	.byte W01
	.byte c_v-6 @ PAN
	.byte W01
	.byte c_v-8 @ PAN
	.byte W01
	.byte c_v-9 @ PAN
	.byte W01
	.byte c_v-10 @ PAN
	.byte W01
	.byte c_v-11 @ PAN
	.byte W01
	.byte c_v-12 @ PAN
	.byte W01
	.byte c_v-13 @ PAN
	.byte W01
	.byte c_v-15 @ PAN
	.byte W01
	.byte c_v-16 @ PAN
	.byte W01
	.byte c_v-17 @ PAN
	.byte W01
	.byte c_v-18 @ PAN
	.byte W01
	.byte c_v-19 @ PAN
	.byte W01
	.byte c_v-20 @ PAN
	.byte W01
	.byte c_v-22 @ PAN
	.byte W01
	.byte c_v-23 @ PAN
	.byte W01
	.byte c_v-24 @ PAN
	.byte W01
	.byte c_v-25 @ PAN
	.byte W01
	.byte c_v-26 @ PAN
	.byte W01
	.byte c_v-27 @ PAN
	.byte W01
	.byte c_v-29 @ PAN
	.byte W01
	.byte c_v-30 @ PAN
	.byte W01
	.byte c_v-31 @ PAN
	.byte W01
	.byte c_v-32 @ PAN
	.byte W01
	.byte c_v-33 @ PAN
	.byte W01
	.byte c_v-34 @ PAN
	.byte W12
	.byte TEMPO, 52
	.byte VOICE, 0
	.byte MOD, 24
	.byte VOL, 79
	.byte PAN, c_v-1
	.byte BENDR, 12
	.byte LFOS, 120
	.byte PRIO, 110
	.byte N06, Cn3, v084
	.byte W06
	.byte VOL, 124
	.byte W06
	.byte 121 @ VOL
	.byte N03, Dn2, v020
	.byte W06
	.byte VOL, 119
	.byte N03 @ Dn2, v020
	.byte N06, Cn3, v084
	.byte W06
	.byte VOL, 116
	.byte N06 @ Cn3, v084
	.byte W06
	.byte VOL, 113
	.byte N03, Dn2, v020
	.byte W06
	.byte VOL, 111
	.byte N03 @ Dn2, v020
	.byte N12, Gn2, v056
	.byte W06
	.byte VOL, 108
	.byte W06
	.byte 106 @ VOL
	.byte W06
	.byte 103 @ VOL
	.byte N03, Dn2, v020
	.byte N06, Cn3, v084
	.byte W06
	.byte VOL, 100
	.byte W06
	.byte 98 @ VOL
	.byte W06
track_64_lbl_272600:
	.byte VOL, 95
	.byte N06, Cn3, v084
	.byte W06
	.byte VOL, 92
	.byte W06
	.byte 90 @ VOL
	.byte N03, Dn2, v020
	.byte W06
	.byte VOL, 87
	.byte N03 @ Dn2, v020
	.byte N06, Cn3, v084
	.byte W06
	.byte VOL, 85
	.byte W06
	.byte 82 @ VOL
	.byte N03, Dn2, v020
	.byte W06
	.byte VOL, 79
	.byte N12, Gn2, v056
	.byte W06
	.byte VOL, 77
	.byte W06
	.byte 74 @ VOL
	.byte N03, Dn2, v020
	.byte W06
	.byte VOL, 71
	.byte W06
	.byte 69 @ VOL
	.byte N06, Cn3, v084
	.byte W06
	.byte VOL, 66
	.byte W06
	.byte PEND
track_64_lbl_272637:
	.byte VOL, 64
	.byte PRIO, 0
	.byte N06, Cn3, v084
	.byte W06
	.byte VOL, 66
	.byte W06
	.byte 69 @ VOL
	.byte N03, Dn2, v020
	.byte W06
	.byte VOL, 71
	.byte N06, Cn3, v084
	.byte W06
	.byte VOL, 74
	.byte N06 @ Cn3, v084
	.byte W06
	.byte VOL, 77
	.byte N03, Dn2, v020
	.byte W06
	.byte VOL, 79
	.byte PRIO, 110
	.byte N12, Gn2, v056
	.byte W06
	.byte VOL, 82
	.byte W06
	.byte 85 @ VOL
	.byte PRIO, 0
	.byte W06
	.byte 87 @ VOL
	.byte N06, Cn3, v084
	.byte W06
	.byte VOL, 90
	.byte W06
	.byte 92 @ VOL
	.byte W06
track_64_lbl_272670:
	.byte VOL, 95
	.byte PRIO, 0
	.byte N06, Cn3, v084
	.byte W06
	.byte VOL, 98
	.byte W06
	.byte 100 @ VOL
	.byte N03, Dn2, v020
	.byte W06
	.byte VOL, 103
	.byte N06, Cn3, v084
	.byte W06
	.byte VOL, 106
	.byte W06
	.byte 108 @ VOL
	.byte N03, Dn2, v020
	.byte W06
	.byte VOL, 111
	.byte PRIO, 110
	.byte N12, Gn2, v056
	.byte W06
	.byte VOL, 113
	.byte W06
	.byte 116 @ VOL
	.byte PRIO, 0
	.byte N03, Dn2, v020
	.byte W06
	.byte VOL, 119
	.byte W06
	.byte 121 @ VOL
	.byte N06, Cn3, v084
	.byte W06
	.byte VOL, 124
	.byte W06
	.byte PEND
track_64_lbl_2726ac:
	.byte PRIO, 0
	.byte N06, Cn3, v084
	.byte W06
	.byte VOL, 124
	.byte W06
	.byte 121 @ VOL
	.byte N03, Dn2, v020
	.byte W06
	.byte VOL, 119
	.byte N03 @ Dn2, v020
	.byte W06
	.byte VOL, 116
	.byte N06, Cn3, v084
	.byte W06
	.byte VOL, 113
	.byte N03, Dn2, v020
	.byte W06
	.byte VOL, 111
	.byte PRIO, 110
	.byte N12, Gn2, v056
	.byte W06
	.byte VOL, 108
	.byte W06
	.byte 106 @ VOL
	.byte PRIO, 0
	.byte N06, Cn3, v084
	.byte W06
	.byte VOL, 103
	.byte N03, Dn2, v020
	.byte W06
	.byte VOL, 100
	.byte W06
	.byte 98 @ VOL
	.byte W06
	.byte PEND
track_64_lbl_2726e8:
	.byte VOL, 95
	.byte PRIO, 0
	.byte N06, Cn3, v084
	.byte W06
	.byte VOL, 92
	.byte W06
	.byte 90 @ VOL
	.byte N03, Dn2, v020
	.byte W06
	.byte VOL, 87
	.byte N06, Cn3, v084
	.byte W06
	.byte VOL, 85
	.byte W06
	.byte 82 @ VOL
	.byte N03, Dn2, v020
	.byte W06
	.byte VOL, 79
	.byte PRIO, 110
	.byte N12, Gn2, v056
	.byte W06
	.byte VOL, 77
	.byte W06
	.byte 74 @ VOL
	.byte PRIO, 0
	.byte N03, Dn2, v020
	.byte W06
	.byte VOL, 71
	.byte W06
	.byte 69 @ VOL
	.byte N06, Cn3, v084
	.byte W06
	.byte VOL, 66
	.byte W06
	.byte PEND
track_64_lbl_272724:
	.byte PRIO, 0
	.byte N06, Cn3, v084
	.byte W06
	.byte VOL, 66
	.byte W06
	.byte 69 @ VOL
	.byte N03, Dn2, v020
	.byte W06
	.byte VOL, 71
	.byte N06, Cn3, v084
	.byte W06
	.byte VOL, 74
	.byte N06 @ Cn3, v084
	.byte W06
	.byte VOL, 77
	.byte N03, Dn2, v020
	.byte W06
	.byte VOL, 79
	.byte PRIO, 110
	.byte N12, Gn2, v056
	.byte W06
	.byte VOL, 82
	.byte W06
	.byte 85 @ VOL
	.byte PRIO, 0
	.byte W06
	.byte 87 @ VOL
	.byte N06, Cn3, v084
	.byte W06
	.byte VOL, 90
	.byte W06
	.byte 92 @ VOL
	.byte W06
	.byte PEND
	.byte PATT
		.word track_64_lbl_272670
	.byte PATT
		.word track_64_lbl_2726ac
	.byte PATT
		.word track_64_lbl_2726e8
	.byte PATT
		.word track_64_lbl_272724
	.byte PATT
		.word track_64_lbl_272670
	.byte PRIO, 0
	.byte N06, Cn3, v084
	.byte W06
	.byte VOL, 124
	.byte W06
	.byte 121 @ VOL
	.byte N03, Dn2, v020
	.byte W06
	.byte VOL, 119
	.byte N06, Cn3, v084
	.byte W06
	.byte VOL, 116
	.byte N06 @ Cn3, v084
	.byte W06
	.byte VOL, 113
	.byte N03, Dn2, v020
	.byte W06
	.byte VOL, 111
	.byte PRIO, 110
	.byte N12, Gn2, v056
	.byte W06
	.byte VOL, 108
	.byte W06
	.byte 106 @ VOL
	.byte PRIO, 0
	.byte W06
	.byte 103 @ VOL
	.byte N06, Cn3, v084
	.byte W06
	.byte VOL, 100
	.byte W06
	.byte 98 @ VOL
	.byte W06
	.byte PATT
		.word track_64_lbl_2726e8
	.byte PRIO, 0
	.byte N06, Cn3, v084
	.byte W06
	.byte VOL, 66
	.byte W06
	.byte 69 @ VOL
	.byte N03, Dn2, v020
	.byte W06
	.byte VOL, 71
	.byte N03 @ Dn2, v020
	.byte W06
	.byte VOL, 74
	.byte N06, Cn3, v084
	.byte W06
	.byte VOL, 77
	.byte N03, Dn2, v020
	.byte W06
	.byte VOL, 79
	.byte PRIO, 110
	.byte N12, Gn2, v056
	.byte W06
	.byte VOL, 82
	.byte W06
	.byte 85 @ VOL
	.byte PRIO, 0
	.byte W06
	.byte 87 @ VOL
	.byte N06, Cn3, v084
	.byte W06
	.byte VOL, 90
	.byte W06
	.byte 92 @ VOL
	.byte W06
	.byte PATT
		.word track_64_lbl_272670
	.byte PRIO, 0
	.byte N06, Cn3, v084
	.byte W06
	.byte VOL, 121
	.byte W06
	.byte 116 @ VOL
	.byte N03, Dn2, v020
	.byte W06
	.byte VOL, 111
	.byte N06, Cn3, v084
	.byte W06
	.byte VOL, 106
	.byte N06 @ Cn3, v084
	.byte W06
	.byte VOL, 100
	.byte N03, Dn2, v020
	.byte W06
	.byte VOL, 95
	.byte PRIO, 110
	.byte N12, Gn2, v056
	.byte W06
	.byte VOL, 90
	.byte W06
	.byte 85 @ VOL
	.byte PRIO, 0
	.byte W06
	.byte 79 @ VOL
	.byte W06
	.byte 74 @ VOL
	.byte W06
	.byte 69 @ VOL
	.byte W06
	.byte 64 @ VOL
	.byte PRIO, 0
	.byte N12, Cs4, v052
	.byte W06
	.byte VOL, 66
	.byte W06
	.byte 69 @ VOL
	.byte W06
	.byte 71 @ VOL
	.byte N06 @ Cs4, v052
	.byte W06
	.byte VOL, 74
	.byte N06, Cn4, v044
	.byte W06
	.byte VOL, 77
	.byte N06, Dn4, v048
	.byte W06
	.byte VOL, 79
	.byte PRIO, 110
	.byte N12, Ds4 @ v048
	.byte W06
	.byte VOL, 82
	.byte W06
	.byte 85 @ VOL
	.byte PRIO, 0
	.byte N12, Cs4 @ v048
	.byte W06
	.byte VOL, 87
	.byte W06
	.byte 90 @ VOL
	.byte W06
	.byte 92 @ VOL
	.byte N06, Cn4, v044
	.byte W06
track_64_lbl_272855:
	.byte VOL, 95
	.byte PRIO, 0
	.byte N12, Cs4, v052
	.byte W06
	.byte VOL, 98
	.byte W06
	.byte 100 @ VOL
	.byte W06
	.byte 103 @ VOL
	.byte N06 @ Cs4, v052
	.byte W06
	.byte VOL, 106
	.byte N06, Cn4, v044
	.byte W06
	.byte VOL, 108
	.byte N06, Dn4, v048
	.byte W06
	.byte VOL, 111
	.byte PRIO, 110
	.byte N12, Ds4 @ v048
	.byte W06
	.byte VOL, 113
	.byte W06
	.byte 116 @ VOL
	.byte PRIO, 0
	.byte N12, Cs4 @ v048
	.byte W06
	.byte VOL, 119
	.byte W06
	.byte 121 @ VOL
	.byte N06, Cn4, v072
	.byte W06
	.byte VOL, 124
	.byte N06 @ Cn4, v072
	.byte W06
	.byte PEND
	.byte VOL, 127
	.byte PRIO, 0
	.byte N12, Cs4, v052
	.byte W06
	.byte VOL, 94
	.byte W06
	.byte 93 @ VOL
	.byte W06
	.byte 92 @ VOL
	.byte N06 @ Cs4, v052
	.byte W06
	.byte VOL, 90
	.byte N06, Cn4, v044
	.byte W06
	.byte VOL, 89
	.byte N06, Dn4, v048
	.byte W06
	.byte VOL, 88
	.byte PRIO, 110
	.byte N12, Ds4 @ v048
	.byte W06
	.byte VOL, 86
	.byte W06
	.byte 85 @ VOL
	.byte PRIO, 0
	.byte N12, Cs4 @ v048
	.byte W06
	.byte VOL, 84
	.byte W06
	.byte 82 @ VOL
	.byte W06
	.byte 81 @ VOL
	.byte N06, Cn4, v044
	.byte W06
	.byte VOL, 80
	.byte PRIO, 0
	.byte N12, Cs4, v052
	.byte W06
	.byte VOL, 78
	.byte W06
	.byte 77 @ VOL
	.byte W06
	.byte 76 @ VOL
	.byte N06 @ Cs4, v052
	.byte W06
	.byte VOL, 74
	.byte N06, Cn4, v044
	.byte W06
	.byte VOL, 73
	.byte N06, Dn4, v048
	.byte W06
	.byte VOL, 72
	.byte PRIO, 110
	.byte N12, Ds4 @ v048
	.byte W06
	.byte VOL, 70
	.byte W06
	.byte 69 @ VOL
	.byte PRIO, 0
	.byte N12, Cs4 @ v048
	.byte W06
	.byte VOL, 68
	.byte W06
	.byte 66 @ VOL
	.byte N03, Cn4, v052
	.byte W03
	.byte Cn4, v060 @ N03
	.byte W03
	.byte VOL, 65
	.byte N06, Cn4, v072
	.byte W06
track_64_lbl_272901:
	.byte PRIO, 0
	.byte N12, Cs4, v052
	.byte W06
	.byte VOL, 66
	.byte W06
	.byte 69 @ VOL
	.byte W06
	.byte 71 @ VOL
	.byte N06 @ Cs4, v052
	.byte W06
	.byte VOL, 74
	.byte N06, Cn4, v044
	.byte W06
	.byte VOL, 77
	.byte N06, Dn4, v048
	.byte W06
	.byte VOL, 79
	.byte PRIO, 110
	.byte N12, Ds4 @ v048
	.byte W06
	.byte VOL, 82
	.byte W06
	.byte 85 @ VOL
	.byte PRIO, 0
	.byte N12, Cs4 @ v048
	.byte W06
	.byte VOL, 87
	.byte W06
	.byte 90 @ VOL
	.byte W06
	.byte 92 @ VOL
	.byte N06, Cn4, v044
	.byte W06
	.byte PEND
	.byte PATT
		.word track_64_lbl_272855
	.byte PRIO, 0
	.byte N12, Cs4, v052
	.byte W06
	.byte VOL, 124
	.byte W06
	.byte 121 @ VOL
	.byte W06
	.byte 119 @ VOL
	.byte N06 @ Cs4, v052
	.byte W06
	.byte VOL, 116
	.byte N06, Cn4, v044
	.byte W06
	.byte VOL, 113
	.byte N06, Dn4, v048
	.byte W06
	.byte VOL, 111
	.byte PRIO, 110
	.byte N12, Ds4 @ v048
	.byte W06
	.byte VOL, 108
	.byte W06
	.byte 106 @ VOL
	.byte PRIO, 0
	.byte N12, Cs4 @ v048
	.byte W06
	.byte VOL, 103
	.byte W06
	.byte 100 @ VOL
	.byte W06
	.byte 98 @ VOL
	.byte N06, Cn4, v044
	.byte W06
	.byte VOL, 95
	.byte PRIO, 0
	.byte N12, Cs4, v052
	.byte W06
	.byte VOL, 92
	.byte W06
	.byte 90 @ VOL
	.byte W06
	.byte 87 @ VOL
	.byte N06 @ Cs4, v052
	.byte W06
	.byte VOL, 85
	.byte N06, Cn4, v044
	.byte W06
	.byte VOL, 82
	.byte N06, Dn4, v048
	.byte W06
	.byte VOL, 79
	.byte PRIO, 110
	.byte N12, Ds4 @ v048
	.byte W06
	.byte VOL, 77
	.byte W06
	.byte 74 @ VOL
	.byte PRIO, 0
	.byte N12, Cs4 @ v048
	.byte W06
	.byte VOL, 71
	.byte W06
	.byte 69 @ VOL
	.byte N06, Cn4, v072
	.byte W06
	.byte VOL, 66
	.byte N06 @ Cn4, v072
	.byte W06
	.byte PATT
		.word track_64_lbl_272901
	.byte VOL, 95
	.byte PRIO, 0
	.byte N12, Cs4, v052
	.byte W06
	.byte VOL, 98
	.byte W06
	.byte 100 @ VOL
	.byte W06
	.byte 103 @ VOL
	.byte N06 @ Cs4, v052
	.byte W06
	.byte VOL, 106
	.byte N06, Cn4, v044
	.byte W06
	.byte VOL, 108
	.byte N06, Dn4, v048
	.byte W06
	.byte VOL, 111
	.byte PRIO, 110
	.byte N12, Ds4 @ v048
	.byte W06
	.byte VOL, 113
	.byte W06
	.byte 116 @ VOL
	.byte PRIO, 0
	.byte N12, Cs4 @ v048
	.byte W06
	.byte VOL, 119
	.byte W06
	.byte 121 @ VOL
	.byte N03, Cn4, v052
	.byte W03
	.byte Cn4, v060 @ N03
	.byte W03
	.byte VOL, 124
	.byte N06, Cn4, v072
	.byte W06
	.byte VOL, 64
	.byte PRIO, 110
	.byte N06, Cn3, v084
	.byte W06
	.byte VOL, 124
	.byte W06
	.byte 121 @ VOL
	.byte N03, Dn2, v020
	.byte W06
	.byte VOL, 119
	.byte N03 @ Dn2, v020
	.byte N06, Cn3, v084
	.byte W06
	.byte VOL, 116
	.byte N06 @ Cn3, v084
	.byte W06
	.byte VOL, 113
	.byte N03, Dn2, v020
	.byte W06
	.byte VOL, 111
	.byte N03 @ Dn2, v020
	.byte N12, Gn2, v056
	.byte W06
	.byte VOL, 108
	.byte W06
	.byte 106 @ VOL
	.byte W06
	.byte 103 @ VOL
	.byte N03, Dn2, v020
	.byte N06, Cn3, v084
	.byte W06
	.byte VOL, 100
	.byte W06
	.byte 98 @ VOL
	.byte W06
	.byte PATT
		.word track_64_lbl_272600
	.byte GOTO
		.word track_64_lbl_272637
	.byte FINE

track_64_1:
	.byte KEYSH, 0
	.byte VOICE, 81
	.byte VOL, 127
	.byte PAN, c_v
	.byte BENDR, 10
	.byte BEND, c_v+9
	.byte W24
	.byte N60, Cn3, v024
	.byte W60
	.byte VOICE, 23
	.byte VOL, 126
	.byte PAN, c_v-1
	.byte PRIO, 110
	.byte BEND, c_v
	.byte N06, Bn1, v056
	.byte W06
	.byte VOL, 124
	.byte PAN, c_v-14
	.byte N06, Bn2, v060
	.byte W06
	.byte VOL, 121
	.byte PAN, c_v-1
	.byte N06, Cn2, v064
	.byte W06
	.byte VOL, 119
	.byte PAN, c_v+12
	.byte N06, Cn3, v068
	.byte W06
	.byte VOL, 116
	.byte PAN, c_v-1
	.byte N06, Cs2, v076
	.byte W06
	.byte VOL, 113
	.byte PAN, c_v-24
	.byte N06, Cs3, v084
	.byte W06
	.byte VOL, 111
	.byte PAN, c_v-1
	.byte N06, Bn1, v092
	.byte W06
	.byte VOL, 108
	.byte PAN, c_v+21
	.byte N06, Bn2, v100
	.byte W06
	.byte VOL, 106
	.byte PAN, c_v-1
	.byte N06, Cn2, v108
	.byte W06
	.byte VOL, 103
	.byte PAN, c_v-34
	.byte N06, Cn3, v116
	.byte W06
	.byte VOL, 100
	.byte PAN, c_v-1
	.byte N06, Cs2, v127
	.byte W06
	.byte VOL, 98
	.byte PAN, c_v+34
	.byte N06, Cs3 @ v127
	.byte W06
track_64_lbl_272aa4:
	.byte VOL, 95
	.byte PAN, c_v-1
	.byte N06, Bn1, v127
	.byte W06
	.byte VOL, 92
	.byte PAN, c_v-34
	.byte N06, Bn2 @ v127
	.byte W06
	.byte VOL, 90
	.byte PAN, c_v-1
	.byte N06, Cn2, v116
	.byte W06
	.byte VOL, 87
	.byte PAN, c_v+34
	.byte N06, Cn3, v108
	.byte W06
	.byte VOL, 85
	.byte PAN, c_v-1
	.byte N06, Cs2, v100
	.byte W06
	.byte VOL, 82
	.byte PAN, c_v-24
	.byte N06, Cs3, v092
	.byte W06
	.byte VOL, 79
	.byte PAN, c_v-1
	.byte N06, Bn1, v088
	.byte W06
	.byte VOL, 77
	.byte PAN, c_v+21
	.byte N06, Bn2, v084
	.byte W06
	.byte VOL, 74
	.byte PAN, c_v-1
	.byte N06, Cn2, v076
	.byte W06
	.byte VOL, 71
	.byte PAN, c_v-14
	.byte N06, Cn3, v068
	.byte W06
	.byte VOL, 69
	.byte PAN, c_v-1
	.byte N06, Cs2, v064
	.byte W06
	.byte VOL, 66
	.byte PAN, c_v+12
	.byte N06, Cs3, v060
	.byte W06
	.byte PEND
track_64_lbl_272b04:
	.byte VOL, 64
	.byte PAN, c_v-1
	.byte PRIO, 110
	.byte N06, Bn1, v056
	.byte W06
	.byte VOL, 66
	.byte PAN, c_v-14
	.byte N06, Bn2, v060
	.byte W06
	.byte VOL, 69
	.byte PAN, c_v-1
	.byte N06, Cn2, v064
	.byte W06
	.byte VOL, 71
	.byte PAN, c_v+12
	.byte N06, Cn3, v068
	.byte W06
	.byte VOL, 74
	.byte PAN, c_v-1
	.byte N06, Cs2, v076
	.byte W06
	.byte VOL, 77
	.byte PAN, c_v-24
	.byte N06, Cs3, v084
	.byte W06
	.byte VOL, 79
	.byte PAN, c_v-1
	.byte PRIO, 0
	.byte N06, Bn1, v092
	.byte W06
	.byte VOL, 82
	.byte PAN, c_v+21
	.byte N06, Bn2, v100
	.byte W06
	.byte VOL, 85
	.byte PAN, c_v-1
	.byte PRIO, 110
	.byte N06, Cn2, v108
	.byte W06
	.byte VOL, 87
	.byte PAN, c_v-34
	.byte N06, Cn3, v116
	.byte W06
	.byte VOL, 90
	.byte PAN, c_v-1
	.byte N06, Cs2, v127
	.byte W06
	.byte VOL, 92
	.byte PAN, c_v+34
	.byte N06, Cs3 @ v127
	.byte W06
track_64_lbl_272b69:
	.byte VOL, 95
	.byte PAN, c_v-1
	.byte PRIO, 110
	.byte N06, Bn1, v127
	.byte W06
	.byte VOL, 98
	.byte PAN, c_v-34
	.byte N06, Bn2 @ v127
	.byte W06
	.byte VOL, 100
	.byte PAN, c_v-1
	.byte N06, Cn2, v116
	.byte W06
	.byte VOL, 103
	.byte PAN, c_v+34
	.byte N06, Cn3, v108
	.byte W06
	.byte VOL, 106
	.byte PAN, c_v-1
	.byte N06, Cs2, v100
	.byte W06
	.byte VOL, 108
	.byte PAN, c_v-24
	.byte N06, Cs3, v092
	.byte W06
	.byte VOL, 111
	.byte PAN, c_v-1
	.byte PRIO, 0
	.byte N06, Bn1, v088
	.byte W06
	.byte VOL, 113
	.byte PAN, c_v+21
	.byte N06, Bn2, v084
	.byte W06
	.byte VOL, 116
	.byte PAN, c_v-1
	.byte PRIO, 110
	.byte N06, Cn2, v076
	.byte W06
	.byte VOL, 119
	.byte PAN, c_v-14
	.byte N06, Cn3, v068
	.byte W06
	.byte VOL, 121
	.byte PAN, c_v-1
	.byte N06, Cs2, v064
	.byte W06
	.byte VOL, 124
	.byte PAN, c_v+12
	.byte N06, Cs3, v060
	.byte W06
	.byte PEND
track_64_lbl_272bcf:
	.byte PAN, c_v-1
	.byte PRIO, 110
	.byte N06, Bn1, v056
	.byte W06
	.byte VOL, 124
	.byte PAN, c_v-14
	.byte N06, Bn2, v060
	.byte W06
	.byte VOL, 121
	.byte PAN, c_v-1
	.byte N06, Cn2, v064
	.byte W06
	.byte VOL, 119
	.byte PAN, c_v+12
	.byte N06, Cn3, v068
	.byte W06
	.byte VOL, 116
	.byte PAN, c_v-1
	.byte N06, Cs2, v076
	.byte W06
	.byte VOL, 113
	.byte PAN, c_v-24
	.byte N06, Cs3, v084
	.byte W06
	.byte VOL, 111
	.byte PAN, c_v-1
	.byte PRIO, 0
	.byte N06, Bn1, v092
	.byte W06
	.byte VOL, 108
	.byte PAN, c_v+21
	.byte N06, Bn2, v100
	.byte W06
	.byte VOL, 106
	.byte PAN, c_v-1
	.byte PRIO, 110
	.byte N06, Cn2, v108
	.byte W06
	.byte VOL, 103
	.byte PAN, c_v-34
	.byte N06, Cn3, v116
	.byte W06
	.byte VOL, 100
	.byte PAN, c_v-1
	.byte N06, Cs2, v127
	.byte W06
	.byte VOL, 98
	.byte PAN, c_v+34
	.byte N06, Cs3 @ v127
	.byte W06
	.byte PEND
track_64_lbl_272c33:
	.byte VOL, 95
	.byte PAN, c_v-1
	.byte PRIO, 110
	.byte N06, Bn1, v127
	.byte W06
	.byte VOL, 92
	.byte PAN, c_v-34
	.byte N06, Bn2 @ v127
	.byte W06
	.byte VOL, 90
	.byte PAN, c_v-1
	.byte N06, Cn2, v116
	.byte W06
	.byte VOL, 87
	.byte PAN, c_v+34
	.byte N06, Cn3, v108
	.byte W06
	.byte VOL, 85
	.byte PAN, c_v-1
	.byte N06, Cs2, v100
	.byte W06
	.byte VOL, 82
	.byte PAN, c_v-24
	.byte N06, Cs3, v092
	.byte W06
	.byte VOL, 79
	.byte PAN, c_v-1
	.byte PRIO, 0
	.byte N06, Bn1, v088
	.byte W06
	.byte VOL, 77
	.byte PAN, c_v+21
	.byte N06, Bn2, v084
	.byte W06
	.byte VOL, 74
	.byte PAN, c_v-1
	.byte PRIO, 110
	.byte N06, Cn2, v076
	.byte W06
	.byte VOL, 71
	.byte PAN, c_v-14
	.byte N06, Cn3, v068
	.byte W06
	.byte VOL, 69
	.byte PAN, c_v-1
	.byte N06, Cs2, v064
	.byte W06
	.byte VOL, 66
	.byte PAN, c_v+12
	.byte N06, Cs3, v060
	.byte W06
	.byte PEND
track_64_lbl_272c99:
	.byte PAN, c_v-1
	.byte PRIO, 110
	.byte N06, Bn1, v056
	.byte W06
	.byte VOL, 66
	.byte PAN, c_v-14
	.byte N06, Bn2, v060
	.byte W06
	.byte VOL, 69
	.byte PAN, c_v-1
	.byte N06, Cn2, v064
	.byte W06
	.byte VOL, 71
	.byte PAN, c_v+12
	.byte N06, Cn3, v068
	.byte W06
	.byte VOL, 74
	.byte PAN, c_v-1
	.byte N06, Cs2, v076
	.byte W06
	.byte VOL, 77
	.byte PAN, c_v-24
	.byte N06, Cs3, v084
	.byte W06
	.byte VOL, 79
	.byte PAN, c_v-1
	.byte PRIO, 0
	.byte N06, Bn1, v092
	.byte W06
	.byte VOL, 82
	.byte PAN, c_v+21
	.byte N06, Bn2, v100
	.byte W06
	.byte VOL, 85
	.byte PAN, c_v-1
	.byte PRIO, 110
	.byte N06, Cn2, v108
	.byte W06
	.byte VOL, 87
	.byte PAN, c_v-34
	.byte N06, Cn3, v116
	.byte W06
	.byte VOL, 90
	.byte PAN, c_v-1
	.byte N06, Cs2, v127
	.byte W06
	.byte VOL, 92
	.byte PAN, c_v+34
	.byte N06, Cs3 @ v127
	.byte W06
	.byte PEND
	.byte PATT
		.word track_64_lbl_272b69
	.byte PATT
		.word track_64_lbl_272bcf
	.byte PATT
		.word track_64_lbl_272c33
	.byte PATT
		.word track_64_lbl_272c99
	.byte PATT
		.word track_64_lbl_272b69
	.byte PATT
		.word track_64_lbl_272bcf
	.byte PATT
		.word track_64_lbl_272c33
	.byte PATT
		.word track_64_lbl_272c99
	.byte PATT
		.word track_64_lbl_272b69
	.byte PAN, c_v-1
	.byte PRIO, 110
	.byte N06, Bn1, v056
	.byte W06
	.byte VOL, 121
	.byte PAN, c_v-14
	.byte N06, Bn2, v052
	.byte W06
	.byte VOL, 116
	.byte PAN, c_v-1
	.byte N06, Cn2, v048
	.byte W06
	.byte VOL, 111
	.byte PAN, c_v+12
	.byte N06, Cn3, v044
	.byte W06
	.byte VOL, 106
	.byte PAN, c_v-1
	.byte N06, Cs2, v040
	.byte W06
	.byte VOL, 100
	.byte PAN, c_v-24
	.byte N06, Cs3, v036
	.byte W06
	.byte VOL, 95
	.byte PAN, c_v-1
	.byte PRIO, 0
	.byte N06, Bn1, v032
	.byte W06
	.byte VOL, 90
	.byte PAN, c_v+21
	.byte N06, Bn2, v028
	.byte W06
	.byte VOL, 85
	.byte PAN, c_v-1
	.byte PRIO, 110
	.byte N06, Cn2, v024
	.byte W06
	.byte VOL, 79
	.byte PAN, c_v-34
	.byte N06, Cn3, v020
	.byte W06
	.byte VOL, 74
	.byte PAN, c_v-1
	.byte N06, Cs2, v016
	.byte W06
	.byte VOL, 69
	.byte PAN, c_v+34
	.byte N06, Cs3, v012
	.byte W06
	.byte VOL, 64
	.byte PAN, c_v
	.byte W72
	.byte W72
	.byte W72
	.byte W72
	.byte W72
	.byte W72
	.byte W72
	.byte W72
	.byte W72
	.byte W72
	.byte VOICE, 23
	.byte VOL, 127
	.byte PAN, c_v-1
	.byte PRIO, 0
	.byte N06, Bn1, v056
	.byte W06
	.byte VOL, 124
	.byte PAN, c_v-14
	.byte N06, Bn2, v060
	.byte W06
	.byte VOL, 121
	.byte PAN, c_v-1
	.byte N06, Cn2, v064
	.byte W06
	.byte VOL, 119
	.byte PAN, c_v+12
	.byte N06, Cn3, v068
	.byte W06
	.byte VOL, 116
	.byte PAN, c_v-1
	.byte N06, Cs2, v076
	.byte W06
	.byte VOL, 113
	.byte PAN, c_v-24
	.byte N06, Cs3, v084
	.byte W06
	.byte VOL, 111
	.byte PAN, c_v-1
	.byte N06, Bn1, v092
	.byte W06
	.byte VOL, 108
	.byte PAN, c_v+21
	.byte N06, Bn2, v100
	.byte W06
	.byte VOL, 106
	.byte PAN, c_v-1
	.byte N06, Cn2, v108
	.byte W06
	.byte VOL, 103
	.byte PAN, c_v-34
	.byte N06, Cn3, v116
	.byte W06
	.byte VOL, 100
	.byte PAN, c_v-1
	.byte N06, Cs2, v127
	.byte W06
	.byte VOL, 98
	.byte PAN, c_v+34
	.byte N06, Cs3 @ v127
	.byte W06
	.byte PATT
		.word track_64_lbl_272aa4
	.byte GOTO
		.word track_64_lbl_272b04
	.byte FINE

track_64_2:
	.byte KEYSH, 0
	.byte VOICE, 81
	.byte VOL, 127
	.byte BENDR, 10
	.byte BEND, c_v+18
	.byte W36
	.byte PAN, c_v+36
	.byte N60, Cn3, v012
	.byte W01
	.byte PAN, c_v+34
	.byte W01
	.byte c_v+33 @ PAN
	.byte W01
	.byte c_v+32 @ PAN
	.byte W01
	.byte c_v+31 @ PAN
	.byte W01
	.byte c_v+30 @ PAN
	.byte W01
	.byte c_v+29 @ PAN
	.byte W01
	.byte c_v+27 @ PAN
	.byte W01
	.byte c_v+26 @ PAN
	.byte W01
	.byte c_v+25 @ PAN
	.byte W01
	.byte c_v+24 @ PAN
	.byte W01
	.byte c_v+23 @ PAN
	.byte W01
	.byte c_v+22 @ PAN
	.byte W01
	.byte c_v+20 @ PAN
	.byte W01
	.byte c_v+19 @ PAN
	.byte W01
	.byte c_v+18 @ PAN
	.byte W01
	.byte c_v+17 @ PAN
	.byte W01
	.byte c_v+16 @ PAN
	.byte W01
	.byte c_v+15 @ PAN
	.byte W01
	.byte c_v+13 @ PAN
	.byte W01
	.byte c_v+12 @ PAN
	.byte W01
	.byte c_v+11 @ PAN
	.byte W01
	.byte c_v+10 @ PAN
	.byte W01
	.byte c_v+9 @ PAN
	.byte W01
	.byte c_v+8 @ PAN
	.byte W01
	.byte c_v+6 @ PAN
	.byte W01
	.byte c_v+5 @ PAN
	.byte W01
	.byte c_v+4 @ PAN
	.byte W01
	.byte c_v+3 @ PAN
	.byte W01
	.byte c_v+2 @ PAN
	.byte W01
	.byte c_v+1 @ PAN
	.byte W01
	.byte c_v-1 @ PAN
	.byte W01
	.byte c_v-2 @ PAN
	.byte W01
	.byte c_v-3 @ PAN
	.byte W01
	.byte c_v-4 @ PAN
	.byte W01
	.byte c_v-5 @ PAN
	.byte W01
	.byte c_v-6 @ PAN
	.byte W01
	.byte c_v-8 @ PAN
	.byte W01
	.byte c_v-9 @ PAN
	.byte W01
	.byte c_v-10 @ PAN
	.byte W01
	.byte c_v-11 @ PAN
	.byte W01
	.byte c_v-12 @ PAN
	.byte W01
	.byte c_v-13 @ PAN
	.byte W01
	.byte c_v-15 @ PAN
	.byte W01
	.byte c_v-16 @ PAN
	.byte W01
	.byte c_v-17 @ PAN
	.byte W01
	.byte c_v-18 @ PAN
	.byte W01
	.byte c_v-19 @ PAN
	.byte W01
	.byte c_v-20 @ PAN
	.byte W01
	.byte c_v-22 @ PAN
	.byte W01
	.byte c_v-23 @ PAN
	.byte W01
	.byte c_v-24 @ PAN
	.byte W01
	.byte c_v-25 @ PAN
	.byte W01
	.byte c_v-26 @ PAN
	.byte W01
	.byte c_v-27 @ PAN
	.byte W01
	.byte c_v-29 @ PAN
	.byte W01
	.byte c_v-30 @ PAN
	.byte W01
	.byte c_v-31 @ PAN
	.byte W01
	.byte c_v-32 @ PAN
	.byte W01
	.byte c_v-33 @ PAN
	.byte W01
	.byte c_v-34 @ PAN
	.byte W60
	.byte W72
track_64_lbl_272e95:
	.byte VOICE, 37
	.byte VOL, 64
	.byte PAN, c_v
	.byte PRIO, 110
	.byte BEND, c_v
	.byte W06
	.byte VOL, 69
	.byte W06
	.byte 74 @ VOL
	.byte W06
	.byte 79 @ VOL
	.byte W06
	.byte 85 @ VOL
	.byte W06
	.byte 90 @ VOL
	.byte LFOS, 0
	.byte LFODL, 0
	.byte N03, Gn2, v040
	.byte W03
	.byte An2 @ N03, v040
	.byte W03
	.byte VOL, 95
	.byte N36, As2, v076
	.byte N30, Cn3, v060
	.byte W06
	.byte VOL, 100
	.byte W06
	.byte 106 @ VOL
	.byte W06
	.byte 111 @ VOL
	.byte W06
	.byte 116 @ VOL
	.byte W06
	.byte 121 @ VOL
	.byte N03, Gn2, v052
	.byte W03
	.byte En2 @ N03, v052
	.byte W03
track_64_lbl_272ecd:
	.byte N72, As1, v068, 48
	.byte En2 @ N72, v068
	.byte W06
	.byte VOL, 121
	.byte W06
	.byte 116 @ VOL
	.byte W06
	.byte 111 @ VOL
	.byte W06
	.byte 106 @ VOL
	.byte W06
	.byte 100 @ VOL
	.byte W06
	.byte 95 @ VOL
	.byte W06
	.byte 90 @ VOL
	.byte W06
	.byte 85 @ VOL
	.byte W06
	.byte 79 @ VOL
	.byte W06
	.byte 74 @ VOL
	.byte W06
	.byte 69 @ VOL
	.byte W06
	.byte PEND
	.byte 64 @ VOL
	.byte W72
	.byte W72
	.byte W72
	.byte W72
	.byte W72
	.byte W72
	.byte 64 @ VOL
	.byte W06
	.byte 69 @ VOL
	.byte W06
	.byte 74 @ VOL
	.byte W06
	.byte 79 @ VOL
	.byte W06
	.byte 85 @ VOL
	.byte W06
	.byte 90 @ VOL
	.byte N03, Gn2, v040
	.byte W03
	.byte An2 @ N03, v040
	.byte W03
	.byte VOL, 95
	.byte N36, As2, v076
	.byte N30, Cn3, v060
	.byte W06
	.byte VOL, 100
	.byte W06
	.byte 106 @ VOL
	.byte W06
	.byte 111 @ VOL
	.byte W06
	.byte 116 @ VOL
	.byte W06
	.byte 121 @ VOL
	.byte N03, Gn2, v052
	.byte W03
	.byte En2 @ N03, v052
	.byte W03
	.byte PATT
		.word track_64_lbl_272ecd
	.byte VOL, 64
	.byte W72
	.byte W72
	.byte W72
	.byte W72
	.byte W72
	.byte W72
	.byte W72
	.byte W72
	.byte W72
	.byte W72
	.byte W72
	.byte W72
	.byte W72
	.byte W72
	.byte W72
	.byte W72
	.byte W72
	.byte GOTO
		.word track_64_lbl_272e95
	.byte FINE

track_64_3:
	.byte KEYSH, 0
	.byte VOICE, 8
	.byte VOL, 127
	.byte PAN, c_v
	.byte BENDR, 10
	.byte W84
	.byte W72
	.byte W72
track_64_lbl_272f47:
	.byte VOICE, 33
	.byte VOL, 127
	.byte PRIO, 110
	.byte BEND, c_v
	.byte W72
	.byte W72
	.byte W36
	.byte PAN, c_v-14
	.byte LFOS, 0
	.byte LFODL, 0
	.byte N02, Gs1, v024, 58
	.byte Cn1 @ N02, v024
	.byte W06
	.byte PAN, c_v-14
	.byte N06, Gs1, v028, 58
	.byte En1 @ N06, v028
	.byte W12
	.byte PAN, c_v-14
	.byte N02, Gs1, v024, 58
	.byte Cn1 @ N02, v024
	.byte W06
	.byte PAN, c_v-14
	.byte N02, Gs1, v028, 58
	.byte En1 @ N02, v028
	.byte W06
	.byte PAN, c_v-14
	.byte N04, Gs1, v028, 58
	.byte En1 @ N04, v028
	.byte W06
	.byte W72
	.byte W72
	.byte W72
	.byte W72
	.byte W72
	.byte W72
	.byte W72
	.byte W36
	.byte PAN, c_v-14
	.byte N02, Gs1, v024, 58
	.byte Cn1 @ N02, v024
	.byte W06
	.byte PAN, c_v-14
	.byte N06, Gs1, v028, 58
	.byte En1 @ N06, v028
	.byte W12
	.byte PAN, c_v-14
	.byte N02, Gs1, v024, 58
	.byte Cn1 @ N02, v024
	.byte W06
	.byte PAN, c_v-14
	.byte N02, Gs1, v028, 58
	.byte En1 @ N02, v028
	.byte W06
	.byte PAN, c_v-14
	.byte N04, Gs1, v028, 58
	.byte En1 @ N04, v028
	.byte W06
	.byte W72
	.byte W72
	.byte W72
	.byte W72
	.byte W72
	.byte W72
	.byte W72
	.byte W72
	.byte W72
	.byte W72
	.byte W72
	.byte W72
	.byte W72
	.byte W72
	.byte W72
	.byte W72
	.byte GOTO
		.word track_64_lbl_272f47
	.byte FINE

track_64_4:
	.byte KEYSH, 0
	.byte PAN, c_v
	.byte W84
	.byte W72
	.byte W72
track_64_lbl_272fcb:
	.byte VOICE, 33
	.byte VOL, 127
	.byte W72
	.byte W72
track_64_lbl_272fd1:
	.byte W36
	.byte PAN, c_v-14
	.byte N02, En2, v036
	.byte W06
	.byte PAN, c_v-14
	.byte N06, En2, v040
	.byte W12
	.byte PAN, c_v-14
	.byte N02, En2, v036
	.byte W06
	.byte PAN, c_v-14
	.byte N02, En2, v040
	.byte W06
	.byte PAN, c_v-14
	.byte N04 @ En2, v040
	.byte W06
	.byte PEND
	.byte W72
	.byte W72
	.byte W72
	.byte W72
	.byte W72
	.byte W72
	.byte W72
	.byte PATT
		.word track_64_lbl_272fd1
	.byte W72
	.byte W72
	.byte W72
	.byte W72
	.byte W72
	.byte W72
	.byte W72
	.byte W72
	.byte W72
	.byte W72
	.byte W72
	.byte W72
	.byte W72
	.byte W72
	.byte W72
	.byte W72
	.byte GOTO
		.word track_64_lbl_272fcb
	.byte FINE

track_64_5:
	.byte KEYSH, 0
	.byte PAN, c_v
	.byte W84
	.byte W72
	.byte W72
track_64_lbl_273018:
	.byte VOICE, 35
	.byte PRIO, 0
	.byte W72
	.byte W72
	.byte W72
track_64_lbl_27301f:
	.byte VOL, 64
	.byte PAN, c_v+24
	.byte W06
	.byte VOL, 69
	.byte W06
	.byte 74 @ VOL
	.byte W06
	.byte 79 @ VOL
	.byte W06
	.byte 85 @ VOL
	.byte W06
	.byte 90 @ VOL
	.byte W06
	.byte 95 @ VOL
	.byte N03, Bn4, v064
	.byte W06
	.byte VOL, 100
	.byte N03, En4, v072
	.byte W06
	.byte VOL, 106
	.byte N03, Fn4, v076
	.byte W06
	.byte VOL, 111
	.byte N03, An4, v072
	.byte W06
	.byte VOL, 116
	.byte N03, Gs4, v064
	.byte W06
	.byte VOL, 121
	.byte N03, Dn4, v052
	.byte W06
	.byte PEND
	.byte VOL, 127
	.byte W72
	.byte W72
	.byte W72
	.byte W72
	.byte W72
	.byte W72
	.byte W72
	.byte PATT
		.word track_64_lbl_27301f
	.byte W72
	.byte W72
	.byte W72
	.byte VOICE, 19
	.byte VOL, 64
	.byte PRIO, 110
	.byte N06, Gs2, v004
	.byte W06
	.byte VOL, 66
	.byte N06, An2 @ v004
	.byte W06
	.byte VOL, 69
	.byte N06, As2 @ v004
	.byte W06
	.byte VOL, 71
	.byte N06, Gs2, v008
	.byte W06
	.byte VOL, 74
	.byte N06, An2 @ v008
	.byte W06
	.byte VOL, 77
	.byte N06, As2 @ v008
	.byte W06
	.byte VOL, 79
	.byte N06, Gs2, v012
	.byte W06
	.byte VOL, 82
	.byte N06, An2 @ v012
	.byte W06
	.byte VOL, 85
	.byte N06, As2 @ v012
	.byte W06
	.byte VOL, 87
	.byte N06, Gs2, v016
	.byte W06
	.byte VOL, 90
	.byte N06, An2 @ v016
	.byte W06
	.byte VOL, 92
	.byte N06, As2 @ v016
	.byte W06
	.byte VOL, 95
	.byte N06, Gs2 @ v016
	.byte W06
	.byte VOL, 98
	.byte N06, An2 @ v016
	.byte W06
	.byte VOL, 100
	.byte N06, As2 @ v016
	.byte W06
	.byte VOL, 103
	.byte N06, Gs2 @ v016
	.byte W06
	.byte VOL, 106
	.byte N06, An2 @ v016
	.byte W06
	.byte VOL, 108
	.byte N06, As2 @ v016
	.byte W06
	.byte VOL, 111
	.byte N06, Gs2, v012
	.byte W06
	.byte VOL, 113
	.byte N06, An2 @ v012
	.byte W06
	.byte VOL, 116
	.byte N06, As2 @ v012
	.byte W06
	.byte VOL, 119
	.byte N06, Gs2, v008
	.byte W06
	.byte VOL, 121
	.byte N06, An2 @ v008
	.byte W06
	.byte VOL, 124
	.byte N06, As2 @ v008
	.byte W06
	.byte VOL, 127
	.byte N06, Gs2, v004
	.byte W06
	.byte VOL, 94
	.byte N06, An2 @ v004
	.byte W06
	.byte VOL, 93
	.byte N06, As2 @ v004
	.byte W06
	.byte VOL, 92
	.byte N06, Gs2, v008
	.byte W06
	.byte VOL, 90
	.byte N06, An2 @ v008
	.byte W06
	.byte VOL, 89
	.byte N06, As2 @ v008
	.byte W06
	.byte VOL, 88
	.byte N06, Gs2, v012
	.byte W06
	.byte VOL, 86
	.byte N06, An2 @ v012
	.byte W06
	.byte VOL, 85
	.byte N06, As2 @ v012
	.byte W06
	.byte VOL, 84
	.byte N06, Gs2, v016
	.byte W06
	.byte VOL, 82
	.byte N06, An2 @ v016
	.byte W06
	.byte VOL, 81
	.byte N06, As2 @ v016
	.byte W06
	.byte VOL, 80
	.byte N06, Gs2 @ v016
	.byte W06
	.byte VOL, 78
	.byte N06, An2 @ v016
	.byte W06
	.byte VOL, 77
	.byte N06, As2 @ v016
	.byte W06
	.byte VOL, 76
	.byte N06, Gs2 @ v016
	.byte W06
	.byte VOL, 74
	.byte N06, An2 @ v016
	.byte W06
	.byte VOL, 73
	.byte N06, As2 @ v016
	.byte W06
	.byte VOL, 72
	.byte N06, Gs2, v012
	.byte W06
	.byte VOL, 70
	.byte N06, An2 @ v012
	.byte W06
	.byte VOL, 69
	.byte N06, As2 @ v012
	.byte W06
	.byte VOL, 68
	.byte N06, Gs2, v008
	.byte W06
	.byte VOL, 66
	.byte N06, An2 @ v008
	.byte W06
	.byte VOL, 65
	.byte N06, As2 @ v008
	.byte W06
track_64_lbl_273164:
	.byte N06, Cs3, v004
	.byte W06
	.byte VOL, 66
	.byte N06, Dn3 @ v004
	.byte W06
	.byte VOL, 69
	.byte N06, Ds3 @ v004
	.byte W06
	.byte VOL, 71
	.byte N06, Cs3, v008
	.byte W06
	.byte VOL, 74
	.byte N06, Dn3 @ v008
	.byte W06
	.byte VOL, 77
	.byte N06, Ds3 @ v008
	.byte W06
	.byte VOL, 79
	.byte N06, Cs3, v012
	.byte W06
	.byte VOL, 82
	.byte N06, Dn3 @ v012
	.byte W06
	.byte VOL, 85
	.byte N06, Ds3 @ v012
	.byte W06
	.byte VOL, 87
	.byte N06, Cs3, v016
	.byte W06
	.byte VOL, 90
	.byte N06, Dn3 @ v016
	.byte W06
	.byte VOL, 92
	.byte N06, Ds3 @ v016
	.byte W06
	.byte PEND
track_64_lbl_2731a3:
	.byte VOL, 95
	.byte N06, Cs3, v016
	.byte W06
	.byte VOL, 98
	.byte N06, Dn3 @ v016
	.byte W06
	.byte VOL, 100
	.byte N06, Ds3 @ v016
	.byte W06
	.byte VOL, 103
	.byte N06, Cs3 @ v016
	.byte W06
	.byte VOL, 106
	.byte N06, Dn3 @ v016
	.byte W06
	.byte VOL, 108
	.byte N06, Ds3 @ v016
	.byte W06
	.byte VOL, 111
	.byte N06, Cs3, v012
	.byte W06
	.byte VOL, 113
	.byte N06, Dn3 @ v012
	.byte W06
	.byte VOL, 116
	.byte N06, Ds3 @ v012
	.byte W06
	.byte VOL, 119
	.byte N06, Cs3, v008
	.byte W06
	.byte VOL, 121
	.byte N06, Dn3 @ v008
	.byte W06
	.byte VOL, 124
	.byte N06, Ds3 @ v008
	.byte W06
	.byte PEND
	.byte Cs3, v004 @ N06
	.byte W06
	.byte VOL, 124
	.byte N06, Dn3 @ v004
	.byte W06
	.byte VOL, 121
	.byte N06, Ds3 @ v004
	.byte W06
	.byte VOL, 119
	.byte N06, Cs3, v008
	.byte W06
	.byte VOL, 116
	.byte N06, Dn3 @ v008
	.byte W06
	.byte VOL, 113
	.byte N06, Ds3 @ v008
	.byte W06
	.byte VOL, 111
	.byte N06, Cs3, v012
	.byte W06
	.byte VOL, 108
	.byte N06, Dn3 @ v012
	.byte W06
	.byte VOL, 106
	.byte N06, Ds3 @ v012
	.byte W06
	.byte VOL, 103
	.byte N06, Cs3, v016
	.byte W06
	.byte VOL, 100
	.byte N06, Dn3 @ v016
	.byte W06
	.byte VOL, 98
	.byte N06, Ds3 @ v016
	.byte W06
	.byte VOL, 95
	.byte N06, Cs3 @ v016
	.byte W06
	.byte VOL, 92
	.byte N06, Dn3 @ v016
	.byte W06
	.byte VOL, 90
	.byte N06, Ds3 @ v016
	.byte W06
	.byte VOL, 87
	.byte N06, Cs3 @ v016
	.byte W06
	.byte VOL, 85
	.byte N06, Dn3 @ v016
	.byte W06
	.byte VOL, 82
	.byte N06, Ds3 @ v016
	.byte W06
	.byte VOL, 79
	.byte N06, Cs3, v012
	.byte W06
	.byte VOL, 77
	.byte N06, Dn3 @ v012
	.byte W06
	.byte VOL, 74
	.byte N06, Ds3 @ v012
	.byte W06
	.byte VOL, 71
	.byte N06, Cs3, v008
	.byte W06
	.byte VOL, 69
	.byte N06, Dn3 @ v008
	.byte W06
	.byte VOL, 66
	.byte N06, Ds3 @ v008
	.byte W06
	.byte PATT
		.word track_64_lbl_273164
	.byte PATT
		.word track_64_lbl_2731a3
	.byte VOL, 127
	.byte W72
	.byte W72
	.byte GOTO
		.word track_64_lbl_273018
	.byte FINE

track_64_6:
	.byte KEYSH, 0
	.byte PAN, c_v
	.byte W84
	.byte W72
	.byte W72
track_64_lbl_273279:
	.byte VOICE, 41
	.byte VOL, 127
	.byte PRIO, 110
	.byte W72
	.byte W72
	.byte W72
	.byte W72
	.byte 64 @ VOL
	.byte PAN, c_v-1
	.byte N36, Ds2, v028, 59
	.byte Cn1 @ N36, v028
	.byte W06
	.byte VOL, 67
	.byte W06
	.byte 70 @ VOL
	.byte W06
	.byte 73 @ VOL
	.byte W06
	.byte 76 @ VOL
	.byte W06
	.byte 79 @ VOL
	.byte W06
	.byte 82 @ VOL
	.byte TIE, Cs2, v024
	.byte TIE, An2, v028
	.byte W06
	.byte VOL, 86
	.byte W06
	.byte 89 @ VOL
	.byte W06
	.byte 92 @ VOL
	.byte W06
	.byte 95 @ VOL
	.byte W06
	.byte 98 @ VOL
	.byte W06
	.byte 101 @ VOL
	.byte W06
	.byte 104 @ VOL
	.byte W06
	.byte 108 @ VOL
	.byte W06
	.byte 111 @ VOL
	.byte W06
	.byte 114 @ VOL
	.byte W06
	.byte 117 @ VOL
	.byte W06
	.byte 120 @ VOL
	.byte W06
	.byte 123 @ VOL
	.byte W12
	.byte 119 @ VOL
	.byte W06
	.byte 111 @ VOL
	.byte W06
	.byte 103 @ VOL
	.byte W06
	.byte 95 @ VOL
	.byte W06
	.byte 87 @ VOL
	.byte W06
	.byte 79 @ VOL
	.byte W06
	.byte 71 @ VOL
	.byte W06
	.byte 63 @ VOL
	.byte W06
	.byte 55 @ VOL
	.byte W06
	.byte 47 @ VOL
	.byte W06
	.byte 39 @ VOL
	.byte W06
	.byte 31 @ VOL
	.byte W06
	.byte 23 @ VOL
	.byte W06
	.byte 15 @ VOL
	.byte W06
	.byte 7 @ VOL
	.byte W06
	.byte EOT, Cs2, v057
	.byte VOL, 0
	.byte W72
	.byte W72
	.byte W72
	.byte W72
	.byte W72
	.byte 64 @ VOL
	.byte PAN, c_v-1
	.byte N36, Ds2 @ v057
	.byte N36, Bn2, v036
	.byte W06
	.byte VOL, 67
	.byte W06
	.byte 71 @ VOL
	.byte W06
	.byte 75 @ VOL
	.byte W06
	.byte 79 @ VOL
	.byte W06
	.byte 83 @ VOL
	.byte W06
	.byte 87 @ VOL
	.byte TIE, Cs2, v024
	.byte TIE, An2, v028
	.byte W06
	.byte VOL, 91
	.byte W06
	.byte 95 @ VOL
	.byte W06
	.byte 99 @ VOL
	.byte W06
	.byte 103 @ VOL
	.byte W06
	.byte 107 @ VOL
	.byte W06
	.byte 111 @ VOL
	.byte W06
	.byte 115 @ VOL
	.byte W06
	.byte 119 @ VOL
	.byte W06
	.byte 123 @ VOL
	.byte W12
	.byte 127 @ VOL
	.byte W06
	.byte 118 @ VOL
	.byte W06
	.byte 110 @ VOL
	.byte W06
	.byte 101 @ VOL
	.byte W06
	.byte 93 @ VOL
	.byte W06
	.byte 84 @ VOL
	.byte W06
	.byte 76 @ VOL
	.byte W06
	.byte 67 @ VOL
	.byte W06
	.byte 59 @ VOL
	.byte W06
	.byte 50 @ VOL
	.byte W06
	.byte 42 @ VOL
	.byte W06
	.byte 33 @ VOL
	.byte W06
	.byte 25 @ VOL
	.byte W06
	.byte 16 @ VOL
	.byte W06
	.byte 8 @ VOL
	.byte W30
	.byte EOT, Cs2, v057
	.byte VOICE, 36
	.byte VOL, 64
	.byte PAN, c_v-14
	.byte PRIO, 110
	.byte N06, Dn3, v076
	.byte W06
	.byte VOL, 66
	.byte N06, Ds3 @ v076
	.byte W06
	.byte VOL, 69
	.byte N06, En3 @ v076
	.byte W06
	.byte VOL, 71
	.byte N06, Fn3 @ v076
	.byte W06
	.byte VOL, 74
	.byte N06, Dn3 @ v076
	.byte W06
	.byte VOL, 77
	.byte N06, Ds3 @ v076
	.byte W06
	.byte VOL, 79
	.byte PRIO, 0
	.byte N06, En3 @ v076
	.byte W06
	.byte VOL, 82
	.byte N06, Fn3 @ v076
	.byte W06
	.byte VOL, 85
	.byte PRIO, 110
	.byte N06, Dn3 @ v076
	.byte W06
	.byte VOL, 87
	.byte N06, Ds3 @ v076
	.byte W06
	.byte VOL, 90
	.byte N06, En3 @ v076
	.byte W06
	.byte VOL, 92
	.byte N06, Fn3 @ v076
	.byte W06
	.byte VOL, 95
	.byte PRIO, 110
	.byte N06, Dn3 @ v076
	.byte W06
	.byte VOL, 98
	.byte N06, Ds3 @ v076
	.byte W06
	.byte VOL, 100
	.byte N06, En3 @ v076
	.byte W06
	.byte VOL, 103
	.byte N06, Fn3 @ v076
	.byte W06
	.byte VOL, 106
	.byte N06, Dn3 @ v076
	.byte W06
	.byte VOL, 108
	.byte N06, Ds3 @ v076
	.byte W06
	.byte VOL, 111
	.byte PRIO, 0
	.byte N06, En3 @ v076
	.byte W06
	.byte VOL, 113
	.byte N06, Fn3 @ v076
	.byte W06
	.byte VOL, 116
	.byte PRIO, 110
	.byte N06, Dn3 @ v076
	.byte W06
	.byte VOL, 119
	.byte N06, Ds3 @ v076
	.byte W06
	.byte VOL, 121
	.byte N06, En3 @ v076
	.byte W06
	.byte VOL, 124
	.byte N06, Fn3 @ v076
	.byte W06
	.byte VOL, 127
	.byte PRIO, 110
	.byte N06, Dn3 @ v076
	.byte W06
	.byte VOL, 94
	.byte N06, Ds3 @ v076
	.byte W06
	.byte VOL, 93
	.byte N06, En3 @ v076
	.byte W06
	.byte VOL, 92
	.byte N06, Fn3 @ v076
	.byte W06
	.byte VOL, 90
	.byte N06, Dn3 @ v076
	.byte W06
	.byte VOL, 89
	.byte N06, Ds3 @ v076
	.byte W06
	.byte VOL, 88
	.byte PRIO, 0
	.byte N06, En3 @ v076
	.byte W06
	.byte VOL, 86
	.byte N06, Fn3 @ v076
	.byte W06
	.byte VOL, 85
	.byte PRIO, 110
	.byte N06, Dn3 @ v076
	.byte W06
	.byte VOL, 84
	.byte N06, Ds3 @ v076
	.byte W06
	.byte VOL, 82
	.byte N06, En3 @ v076
	.byte W06
	.byte VOL, 81
	.byte N06, Fn3 @ v076
	.byte W06
	.byte VOL, 80
	.byte PRIO, 110
	.byte N06, Dn3 @ v076
	.byte W06
	.byte VOL, 78
	.byte N06, Ds3 @ v076
	.byte W06
	.byte VOL, 77
	.byte N06, En3 @ v076
	.byte W06
	.byte VOL, 76
	.byte N06, Fn3 @ v076
	.byte W06
	.byte VOL, 74
	.byte N06, Dn3 @ v076
	.byte W06
	.byte VOL, 73
	.byte N06, Ds3 @ v076
	.byte W06
	.byte VOL, 72
	.byte PRIO, 0
	.byte N06, En3 @ v076
	.byte W06
	.byte VOL, 70
	.byte N06, Fn3 @ v076
	.byte W06
	.byte VOL, 69
	.byte PRIO, 110
	.byte N06, Dn3 @ v076
	.byte W06
	.byte VOL, 68
	.byte N06, Ds3 @ v076
	.byte W06
	.byte VOL, 66
	.byte N06, En3 @ v076
	.byte W06
	.byte VOL, 65
	.byte N06, Fn3 @ v076
	.byte W06
track_64_lbl_27343f:
	.byte PRIO, 110
	.byte N06, Fs3, v076
	.byte W06
	.byte VOL, 66
	.byte N06, Gn3 @ v076
	.byte W06
	.byte VOL, 69
	.byte N06, Gs3 @ v076
	.byte W06
	.byte VOL, 71
	.byte N06, An3 @ v076
	.byte W06
	.byte VOL, 74
	.byte N06, Fs3 @ v076
	.byte W06
	.byte VOL, 77
	.byte N06, Gn3 @ v076
	.byte W06
	.byte VOL, 79
	.byte PRIO, 0
	.byte N06, Gs3 @ v076
	.byte W06
	.byte VOL, 82
	.byte N06, An3 @ v076
	.byte W06
	.byte VOL, 85
	.byte PRIO, 110
	.byte N06, Fs3 @ v076
	.byte W06
	.byte VOL, 87
	.byte N06, Gn3 @ v076
	.byte W06
	.byte VOL, 90
	.byte N06, Gs3 @ v076
	.byte W06
	.byte VOL, 92
	.byte N06, An3 @ v076
	.byte W06
	.byte PEND
track_64_lbl_273481:
	.byte VOL, 95
	.byte PRIO, 110
	.byte N06, Fs3, v076
	.byte W06
	.byte VOL, 98
	.byte N06, Gn3 @ v076
	.byte W06
	.byte VOL, 100
	.byte N06, Gs3 @ v076
	.byte W06
	.byte VOL, 103
	.byte N06, An3 @ v076
	.byte W06
	.byte VOL, 106
	.byte N06, Fs3 @ v076
	.byte W06
	.byte VOL, 108
	.byte N06, Gn3 @ v076
	.byte W06
	.byte VOL, 111
	.byte PRIO, 0
	.byte N06, Gs3 @ v076
	.byte W06
	.byte VOL, 113
	.byte N06, An3 @ v076
	.byte W06
	.byte VOL, 116
	.byte PRIO, 110
	.byte N06, Fs3 @ v076
	.byte W06
	.byte VOL, 119
	.byte N06, Gn3 @ v076
	.byte W06
	.byte VOL, 121
	.byte N06, Gs3 @ v076
	.byte W06
	.byte VOL, 124
	.byte N06, An3 @ v076
	.byte W06
	.byte PEND
	.byte PRIO, 110
	.byte Fs3 @ N06, v076
	.byte W06
	.byte VOL, 124
	.byte N06, Gn3 @ v076
	.byte W06
	.byte VOL, 121
	.byte N06, Gs3 @ v076
	.byte W06
	.byte VOL, 119
	.byte N06, An3 @ v076
	.byte W06
	.byte VOL, 116
	.byte N06, Fs3 @ v076
	.byte W06
	.byte VOL, 113
	.byte N06, Gn3 @ v076
	.byte W06
	.byte VOL, 111
	.byte PRIO, 0
	.byte N06, Gs3 @ v076
	.byte W06
	.byte VOL, 108
	.byte N06, An3 @ v076
	.byte W06
	.byte VOL, 106
	.byte PRIO, 110
	.byte N06, Fs3 @ v076
	.byte W06
	.byte VOL, 103
	.byte N06, Gn3 @ v076
	.byte W06
	.byte VOL, 100
	.byte N06, Gs3 @ v076
	.byte W06
	.byte VOL, 98
	.byte N06, An3 @ v076
	.byte W06
	.byte VOL, 95
	.byte PRIO, 110
	.byte N06, Fs3 @ v076
	.byte W06
	.byte VOL, 92
	.byte N06, Gn3 @ v076
	.byte W06
	.byte VOL, 90
	.byte N06, Gs3 @ v076
	.byte W06
	.byte VOL, 87
	.byte N06, An3 @ v076
	.byte W06
	.byte VOL, 85
	.byte N06, Fs3 @ v076
	.byte W06
	.byte VOL, 82
	.byte N06, Gn3 @ v076
	.byte W06
	.byte VOL, 79
	.byte PRIO, 0
	.byte N06, Gs3 @ v076
	.byte W06
	.byte VOL, 77
	.byte N06, An3 @ v076
	.byte W06
	.byte VOL, 74
	.byte PRIO, 110
	.byte N06, Fs3 @ v076
	.byte W06
	.byte VOL, 71
	.byte N06, Gn3 @ v076
	.byte W06
	.byte VOL, 69
	.byte N06, Gs3 @ v076
	.byte W06
	.byte VOL, 66
	.byte N06, An3 @ v076
	.byte W06
	.byte PATT
		.word track_64_lbl_27343f
	.byte PATT
		.word track_64_lbl_273481
	.byte VOL, 127
	.byte W72
	.byte W72
	.byte GOTO
		.word track_64_lbl_273279
	.byte FINE

track_64_7:
	.byte KEYSH, 0
	.byte PAN, c_v
	.byte W84
	.byte W72
	.byte W72
track_64_lbl_273561:
	.byte VOICE, 119
	.byte MOD, 2
	.byte VOL, 127
	.byte LFOS, 48
	.byte LFODL, 32
	.byte PRIO, 110
	.byte W72
	.byte W72
	.byte W72
	.byte W72
	.byte W72
	.byte W72
	.byte W72
	.byte W72
	.byte W72
	.byte W72
	.byte W72
	.byte W72
	.byte W72
	.byte W72
	.byte W72
	.byte VOL, 64
	.byte W06
	.byte 66 @ VOL
	.byte W06
	.byte 69 @ VOL
	.byte W06
	.byte 71 @ VOL
	.byte W06
	.byte 74 @ VOL
	.byte W06
	.byte 77 @ VOL
	.byte W06
	.byte 79 @ VOL
	.byte N60, Bn1, v040
	.byte W06
	.byte VOL, 82
	.byte W06
	.byte 85 @ VOL
	.byte W06
	.byte 87 @ VOL
	.byte W06
	.byte 90 @ VOL
	.byte W06
	.byte 92 @ VOL
	.byte W06
	.byte 95 @ VOL
	.byte W06
	.byte 98 @ VOL
	.byte W06
	.byte 100 @ VOL
	.byte W06
	.byte 103 @ VOL
	.byte W06
	.byte 106 @ VOL
	.byte N12, As1 @ v040
	.byte W06
	.byte VOL, 108
	.byte W06
	.byte 111 @ VOL
	.byte N12, Bn1 @ v040
	.byte W06
	.byte VOL, 113
	.byte W06
	.byte 116 @ VOL
	.byte N12, As1 @ v040
	.byte W06
	.byte VOL, 119
	.byte W06
	.byte 121 @ VOL
	.byte N12, An1 @ v040
	.byte W06
	.byte VOL, 124
	.byte W06
	.byte N36, Gs1 @ v040
	.byte W06
	.byte VOL, 124
	.byte W06
	.byte 121 @ VOL
	.byte W06
	.byte 119 @ VOL
	.byte W06
	.byte 116 @ VOL
	.byte W06
	.byte 113 @ VOL
	.byte W06
	.byte 111 @ VOL
	.byte N96, Gn1 @ v040
	.byte W06
	.byte VOL, 108
	.byte W06
	.byte 106 @ VOL
	.byte W06
	.byte 103 @ VOL
	.byte W06
	.byte 100 @ VOL
	.byte W06
	.byte 98 @ VOL
	.byte W06
	.byte 95 @ VOL
	.byte W06
	.byte 92 @ VOL
	.byte W06
	.byte 90 @ VOL
	.byte W06
	.byte 87 @ VOL
	.byte W06
	.byte 85 @ VOL
	.byte W06
	.byte 82 @ VOL
	.byte W06
	.byte 79 @ VOL
	.byte W06
	.byte 77 @ VOL
	.byte W06
	.byte 74 @ VOL
	.byte W06
	.byte 71 @ VOL
	.byte W06
	.byte 69 @ VOL
	.byte W06
	.byte 66 @ VOL
	.byte W06
	.byte W06
	.byte 66 @ VOL
	.byte W06
	.byte 69 @ VOL
	.byte W06
	.byte 71 @ VOL
	.byte W06
	.byte 74 @ VOL
	.byte W06
	.byte 77 @ VOL
	.byte W06
	.byte 79 @ VOL
	.byte N60, En2 @ v040
	.byte W06
	.byte VOL, 82
	.byte W06
	.byte 85 @ VOL
	.byte W06
	.byte 87 @ VOL
	.byte W06
	.byte 90 @ VOL
	.byte W06
	.byte 92 @ VOL
	.byte W06
	.byte 95 @ VOL
	.byte W06
	.byte 98 @ VOL
	.byte W06
	.byte 100 @ VOL
	.byte W06
	.byte 103 @ VOL
	.byte W06
	.byte 106 @ VOL
	.byte N12, Ds2 @ v040
	.byte W06
	.byte VOL, 108
	.byte W06
	.byte 111 @ VOL
	.byte N12, En2 @ v040
	.byte W06
	.byte VOL, 113
	.byte W06
	.byte 116 @ VOL
	.byte N12, Ds2 @ v040
	.byte W06
	.byte VOL, 119
	.byte W06
	.byte 121 @ VOL
	.byte N12, Dn2 @ v040
	.byte W06
	.byte VOL, 124
	.byte W06
	.byte N36, Cs2 @ v040
	.byte W06
	.byte VOL, 124
	.byte W06
	.byte 121 @ VOL
	.byte W06
	.byte 119 @ VOL
	.byte W06
	.byte 116 @ VOL
	.byte W06
	.byte 113 @ VOL
	.byte W06
	.byte 111 @ VOL
	.byte N60, Cn2 @ v040
	.byte W06
	.byte VOL, 108
	.byte W06
	.byte 106 @ VOL
	.byte W06
	.byte 103 @ VOL
	.byte W06
	.byte 100 @ VOL
	.byte W06
	.byte 98 @ VOL
	.byte W06
	.byte 95 @ VOL
	.byte W06
	.byte 92 @ VOL
	.byte W06
	.byte 90 @ VOL
	.byte W06
	.byte 87 @ VOL
	.byte W06
	.byte 85 @ VOL
	.byte W06
	.byte 82 @ VOL
	.byte W06
	.byte 79 @ VOL
	.byte N24, En2 @ v040
	.byte W06
	.byte VOL, 77
	.byte W06
	.byte 74 @ VOL
	.byte W06
	.byte 71 @ VOL
	.byte W06
	.byte 69 @ VOL
	.byte N12, Ds2 @ v040
	.byte W06
	.byte VOL, 66
	.byte W06
	.byte TIE, Fs2 @ v040
	.byte W06
	.byte VOL, 66
	.byte W06
	.byte 69 @ VOL
	.byte W06
	.byte 71 @ VOL
	.byte W06
	.byte 74 @ VOL
	.byte W06
	.byte 77 @ VOL
	.byte W06
	.byte 79 @ VOL
	.byte W06
	.byte 82 @ VOL
	.byte W06
	.byte 85 @ VOL
	.byte W06
	.byte 87 @ VOL
	.byte W06
	.byte 90 @ VOL
	.byte W06
	.byte 92 @ VOL
	.byte W06
	.byte 95 @ VOL
	.byte W06
	.byte 98 @ VOL
	.byte W06
	.byte 100 @ VOL
	.byte W06
	.byte 103 @ VOL
	.byte W06
	.byte 106 @ VOL
	.byte W06
	.byte 108 @ VOL
	.byte W06
	.byte 111 @ VOL
	.byte W06
	.byte 113 @ VOL
	.byte W06
	.byte 116 @ VOL
	.byte W06
	.byte 119 @ VOL
	.byte W06
	.byte EOT @ Fs2, v040
	.byte VOL, 121
	.byte W06
	.byte 124 @ VOL
	.byte W06
	.byte W72
	.byte W72
	.byte GOTO
		.word track_64_lbl_273561
	.byte FINE

track_64_8:
	.byte KEYSH, 0
	.byte PAN, c_v
	.byte W84
	.byte W72
	.byte W72
track_64_lbl_2736ae:
	.byte BEND, c_v+4
	.byte W12
	.byte VOICE, 37
	.byte VOL, 64
	.byte W06
	.byte 69 @ VOL
	.byte W06
	.byte 74 @ VOL
	.byte W06
	.byte 79 @ VOL
	.byte W06
	.byte 85 @ VOL
	.byte W06
	.byte 90 @ VOL
	.byte N03, Gn2, v012
	.byte W03
	.byte An2 @ N03, v012
	.byte W03
	.byte VOL, 95
	.byte N36, As2, v024
	.byte W06
	.byte VOL, 100
	.byte W06
	.byte 106 @ VOL
	.byte W06
	.byte 111 @ VOL
	.byte W06
track_64_lbl_2736d2:
	.byte VOL, 116
	.byte W06
	.byte 121 @ VOL
	.byte N03, Gn2, v016
	.byte W03
	.byte En2 @ N03, v016
	.byte W03
	.byte N72, As1, v020
	.byte W06
	.byte VOL, 121
	.byte W06
	.byte 116 @ VOL
	.byte W06
	.byte 111 @ VOL
	.byte W06
	.byte 106 @ VOL
	.byte W06
	.byte 100 @ VOL
	.byte W06
	.byte 95 @ VOL
	.byte W06
	.byte 90 @ VOL
	.byte W06
	.byte 85 @ VOL
	.byte W06
	.byte 79 @ VOL
	.byte W06
	.byte PEND
track_64_lbl_2736f4:
	.byte VOL, 74
	.byte W06
	.byte 69 @ VOL
	.byte W06
	.byte VOICE, 33
	.byte W36
	.byte VOL, 127
	.byte N02, As2, v012
	.byte W06
	.byte N06 @ As2, v012
	.byte W12
	.byte N02 @ As2, v012
	.byte W06
	.byte PEND
track_64_lbl_273707:
	.byte N02, As2, v012
	.byte W06
	.byte N04 @ As2, v012
	.byte W06
	.byte VOICE, 35
	.byte VOL, 64
	.byte W06
	.byte 69 @ VOL
	.byte W06
	.byte 74 @ VOL
	.byte W06
	.byte 79 @ VOL
	.byte W06
	.byte 85 @ VOL
	.byte W06
	.byte 90 @ VOL
	.byte W06
	.byte 95 @ VOL
	.byte N03, Bn4, v020
	.byte W06
	.byte VOL, 100
	.byte N03, En4, v024
	.byte W06
	.byte VOL, 106
	.byte N03, Fn4 @ v024
	.byte W06
	.byte VOL, 111
	.byte N03, An4 @ v024
	.byte W06
	.byte PEND
track_64_lbl_273732:
	.byte VOL, 116
	.byte N03, Gs4, v020
	.byte W06
	.byte VOL, 121
	.byte N03, Dn4, v016
	.byte W06
	.byte VOICE, 41
	.byte VOL, 64
	.byte N36, Bn2, v012
	.byte W06
	.byte VOL, 67
	.byte W06
	.byte 70 @ VOL
	.byte W06
	.byte 73 @ VOL
	.byte W06
	.byte 76 @ VOL
	.byte W06
	.byte 79 @ VOL
	.byte W06
	.byte 82 @ VOL
	.byte TIE, An2, v008
	.byte W06
	.byte VOL, 86
	.byte W06
	.byte 89 @ VOL
	.byte W06
	.byte 92 @ VOL
	.byte W06
	.byte PEND
track_64_lbl_27375e:
	.byte VOL, 95
	.byte W06
	.byte 98 @ VOL
	.byte W06
	.byte 101 @ VOL
	.byte W06
	.byte 104 @ VOL
	.byte W06
	.byte 108 @ VOL
	.byte W06
	.byte 111 @ VOL
	.byte W06
	.byte 114 @ VOL
	.byte W06
	.byte 117 @ VOL
	.byte W06
	.byte 120 @ VOL
	.byte W06
	.byte 123 @ VOL
	.byte W12
	.byte 119 @ VOL
	.byte W06
	.byte PEND
track_64_lbl_273776:
	.byte VOL, 111
	.byte W06
	.byte 103 @ VOL
	.byte W06
	.byte 95 @ VOL
	.byte W06
	.byte 87 @ VOL
	.byte W06
	.byte 79 @ VOL
	.byte W06
	.byte 71 @ VOL
	.byte W06
	.byte 63 @ VOL
	.byte W06
	.byte 55 @ VOL
	.byte W06
	.byte 47 @ VOL
	.byte W06
	.byte 39 @ VOL
	.byte W06
	.byte 31 @ VOL
	.byte W06
	.byte 23 @ VOL
	.byte W06
	.byte PEND
	.byte 15 @ VOL
	.byte W06
	.byte 7 @ VOL
	.byte W06
	.byte EOT @ An2, v008
	.byte W60
	.byte W12
	.byte VOICE, 37
	.byte VOL, 64
	.byte W06
	.byte 69 @ VOL
	.byte W06
	.byte 74 @ VOL
	.byte W06
	.byte 79 @ VOL
	.byte W06
	.byte 85 @ VOL
	.byte W06
	.byte 90 @ VOL
	.byte N03, Gn2, v012
	.byte W03
	.byte An2 @ N03, v012
	.byte W03
	.byte VOL, 95
	.byte N36, As2, v024
	.byte W06
	.byte VOL, 100
	.byte W06
	.byte 106 @ VOL
	.byte W06
	.byte 111 @ VOL
	.byte W06
	.byte PATT
		.word track_64_lbl_2736d2
	.byte PATT
		.word track_64_lbl_2736f4
	.byte PATT
		.word track_64_lbl_273707
	.byte PATT
		.word track_64_lbl_273732
	.byte PATT
		.word track_64_lbl_27375e
	.byte PATT
		.word track_64_lbl_273776
	.byte VOL, 15
	.byte W06
	.byte 7 @ VOL
	.byte W06
	.byte EOT @ As2, v024
	.byte VOICE, 119
	.byte VOL, 64
	.byte W06
	.byte 66 @ VOL
	.byte W06
	.byte 69 @ VOL
	.byte W06
	.byte 71 @ VOL
	.byte W06
	.byte 74 @ VOL
	.byte W06
	.byte 77 @ VOL
	.byte W06
	.byte 79 @ VOL
	.byte N60, Bn1, v012
	.byte W06
	.byte VOL, 82
	.byte W06
	.byte 85 @ VOL
	.byte W06
	.byte 87 @ VOL
	.byte W06
	.byte 90 @ VOL
	.byte W06
	.byte 92 @ VOL
	.byte W06
	.byte 95 @ VOL
	.byte W06
	.byte 98 @ VOL
	.byte W06
	.byte 100 @ VOL
	.byte W06
	.byte 103 @ VOL
	.byte W06
	.byte 106 @ VOL
	.byte N12, As1 @ v012
	.byte W06
	.byte VOL, 108
	.byte W06
	.byte 111 @ VOL
	.byte N12, Bn1 @ v012
	.byte W06
	.byte VOL, 113
	.byte W06
	.byte 116 @ VOL
	.byte N12, As1 @ v012
	.byte W06
	.byte VOL, 119
	.byte W06
	.byte 121 @ VOL
	.byte N12, An1 @ v012
	.byte W06
	.byte VOL, 124
	.byte W06
	.byte N36, Gs1 @ v012
	.byte W06
	.byte VOL, 124
	.byte W06
	.byte 121 @ VOL
	.byte W06
	.byte 119 @ VOL
	.byte W06
	.byte 116 @ VOL
	.byte W06
	.byte 113 @ VOL
	.byte W06
	.byte 111 @ VOL
	.byte N96, Gn1 @ v012
	.byte W06
	.byte VOL, 108
	.byte W06
	.byte 106 @ VOL
	.byte W06
	.byte 103 @ VOL
	.byte W06
	.byte 100 @ VOL
	.byte W06
	.byte 98 @ VOL
	.byte W06
	.byte 95 @ VOL
	.byte W06
	.byte 92 @ VOL
	.byte W06
	.byte 90 @ VOL
	.byte W06
	.byte 87 @ VOL
	.byte W06
	.byte 85 @ VOL
	.byte W06
	.byte 82 @ VOL
	.byte W06
	.byte 79 @ VOL
	.byte W06
	.byte 77 @ VOL
	.byte W06
	.byte 74 @ VOL
	.byte W06
	.byte 71 @ VOL
	.byte W06
	.byte 69 @ VOL
	.byte W06
	.byte 66 @ VOL
	.byte W12
	.byte 66 @ VOL
	.byte W06
	.byte 69 @ VOL
	.byte W06
	.byte 71 @ VOL
	.byte W06
	.byte 74 @ VOL
	.byte W06
	.byte 77 @ VOL
	.byte W06
	.byte 79 @ VOL
	.byte N60, En2 @ v012
	.byte W06
	.byte VOL, 82
	.byte W06
	.byte 85 @ VOL
	.byte W06
	.byte 87 @ VOL
	.byte W06
	.byte 90 @ VOL
	.byte W06
	.byte 92 @ VOL
	.byte W06
	.byte 95 @ VOL
	.byte W06
	.byte 98 @ VOL
	.byte W06
	.byte 100 @ VOL
	.byte W06
	.byte 103 @ VOL
	.byte W06
	.byte 106 @ VOL
	.byte N12, Ds2 @ v012
	.byte W06
	.byte VOL, 108
	.byte W06
	.byte 111 @ VOL
	.byte N12, En2 @ v012
	.byte W06
	.byte VOL, 113
	.byte W06
	.byte 116 @ VOL
	.byte N12, Ds2 @ v012
	.byte W06
	.byte VOL, 119
	.byte W06
	.byte 121 @ VOL
	.byte N12, Dn2 @ v012
	.byte W06
	.byte VOL, 124
	.byte W06
	.byte N36, Cs2 @ v012
	.byte W06
	.byte VOL, 124
	.byte W06
	.byte 121 @ VOL
	.byte W06
	.byte 119 @ VOL
	.byte W06
	.byte 116 @ VOL
	.byte W06
	.byte 113 @ VOL
	.byte W06
	.byte 111 @ VOL
	.byte N60, Cn2 @ v012
	.byte W06
	.byte VOL, 108
	.byte W06
	.byte 106 @ VOL
	.byte W06
	.byte 103 @ VOL
	.byte W06
	.byte 100 @ VOL
	.byte W06
	.byte 98 @ VOL
	.byte W06
	.byte 95 @ VOL
	.byte W06
	.byte 92 @ VOL
	.byte W06
	.byte 90 @ VOL
	.byte W06
	.byte 87 @ VOL
	.byte W06
	.byte 85 @ VOL
	.byte W06
	.byte 82 @ VOL
	.byte W06
	.byte 79 @ VOL
	.byte N24, En2 @ v012
	.byte W06
	.byte VOL, 77
	.byte W06
	.byte 74 @ VOL
	.byte W06
	.byte 71 @ VOL
	.byte W06
	.byte 69 @ VOL
	.byte N12, Ds2 @ v012
	.byte W06
	.byte VOL, 66
	.byte W06
	.byte TIE, Fs2 @ v012
	.byte W06
	.byte VOL, 66
	.byte W06
	.byte 69 @ VOL
	.byte W06
	.byte 71 @ VOL
	.byte W06
	.byte 74 @ VOL
	.byte W06
	.byte 77 @ VOL
	.byte W06
	.byte 79 @ VOL
	.byte W06
	.byte 82 @ VOL
	.byte W06
	.byte 85 @ VOL
	.byte W06
	.byte 87 @ VOL
	.byte W06
	.byte 90 @ VOL
	.byte W06
	.byte 92 @ VOL
	.byte W06
	.byte 95 @ VOL
	.byte W06
	.byte 98 @ VOL
	.byte W06
	.byte 100 @ VOL
	.byte W06
	.byte 103 @ VOL
	.byte W06
	.byte 106 @ VOL
	.byte W06
	.byte 108 @ VOL
	.byte W06
	.byte 111 @ VOL
	.byte W06
	.byte 113 @ VOL
	.byte W06
	.byte 116 @ VOL
	.byte W06
	.byte 119 @ VOL
	.byte W06
	.byte EOT @ Fs2, v012
	.byte VOL, 121
	.byte W06
	.byte 124 @ VOL
	.byte W66
	.byte W72
	.byte GOTO
		.word track_64_lbl_2736ae
	.byte FINE

.align 2

track_64:
	.byte 9
	.byte 64
	.byte 130
	.byte 128
	.word 0x80a8554
	.word track_64_0
	.word track_64_1
	.word track_64_2
	.word track_64_3
	.word track_64_4
	.word track_64_5
	.word track_64_6
	.word track_64_7
	.word track_64_8

.align 2
