.align 2

.global track_85

track_85_0:
	.byte KEYSH, 0
	.byte TEMPO, 65
	.byte W24
	.byte VOICE, 10
	.byte VOL, 62
	.byte PAN, c_v
	.byte N08, Gn3, v100
	.byte W24
	.byte Cn3, v060 @ N08
	.byte W24
	.byte N32, Dn3, v076
	.byte W32
	.byte N08, An2, v060
	.byte W08
	.byte Bn2 @ N08, v060
	.byte W08
	.byte Cn3, v076 @ N08
	.byte W16
	.byte VOICE, 11
	.byte N04, Fn3 @ v076
	.byte W08
	.byte N24, Fn3, v088
	.byte W36
	.byte N04, Fn3, v072
	.byte W12
	.byte VOICE, 10
	.byte N08, Fn3, v088
	.byte W08
	.byte En3 @ N08, v088
	.byte W08
	.byte Dn3, v076 @ N08
	.byte W08
	.byte En3, v088 @ N08
	.byte W16
	.byte N04, Cn3, v096
	.byte W08
	.byte N48, Gn2, v084
	.byte W72
	.byte VOL, 31
	.byte N08, Ds3, v072
	.byte W24
	.byte As2, v060 @ N08
	.byte W24
	.byte N32, Dn3, v048
	.byte W32
	.byte N08, Fn2, v076
	.byte W08
	.byte N06, As2, v084
	.byte W08
	.byte N08, Cn3, v056
	.byte W16
	.byte N04, Ds3, v080
	.byte W08
	.byte N24, Ds3, v084
	.byte W36
	.byte N08, Ds3, v096
	.byte W12
	.byte Ds3, v088 @ N08
	.byte W08
	.byte Gn3, v084 @ N08
	.byte W08
	.byte Gs3, v096 @ N08
	.byte W08
	.byte N72, Gn3 @ v096
	.byte W96
	.byte VOL, 47
	.byte N08, Bn3, v080
	.byte W24
	.byte Gn3 @ N08, v080
	.byte W24
	.byte N32, An3 @ v080
	.byte W32
	.byte N08, Cn4 @ v080
	.byte W08
	.byte En4, v092 @ N08
	.byte W08
	.byte Dn4, v080 @ N08
	.byte W24
	.byte N44, An4, v072
	.byte W48
	.byte N12, An4, v068
	.byte W24
	.byte N48, Gn4, v052
	.byte W48
	.byte Dn4 @ N48, v052
	.byte W48
	.byte N60, Fn4 @ v052
	.byte W80
	.byte N08, Cn4, v072
	.byte W08
	.byte Dn4 @ N08, v072
	.byte W08
	.byte N96, Ds4 @ v072
	.byte W48
	.byte VOL, 45
	.byte W03
	.byte 44 @ VOL
	.byte W04
	.byte 42 @ VOL
	.byte W04
	.byte 40 @ VOL
	.byte W04
	.byte 39 @ VOL
	.byte W04
	.byte 37 @ VOL
	.byte W04
	.byte 36 @ VOL
	.byte W04
	.byte 34 @ VOL
	.byte W04
	.byte 33 @ VOL
	.byte W04
	.byte 31 @ VOL
	.byte W04
	.byte 29 @ VOL
	.byte W04
	.byte 28 @ VOL
	.byte W04
	.byte 26 @ VOL
	.byte W01
	.byte 47 @ VOL
	.byte N72, Dn4 @ v072
	.byte W72
	.byte N24, An3 @ v072
	.byte W24
	.byte VOL, 29
	.byte N96, Cn4, v064
	.byte W06
	.byte VOL, 31
	.byte W06
	.byte 33 @ VOL
	.byte W06
	.byte 34 @ VOL
	.byte W06
	.byte 36 @ VOL
	.byte W06
	.byte 37 @ VOL
	.byte W07
	.byte 39 @ VOL
	.byte W06
	.byte 40 @ VOL
	.byte W06
	.byte 42 @ VOL
	.byte W06
	.byte 44 @ VOL
	.byte W06
	.byte 45 @ VOL
	.byte W06
	.byte 47 @ VOL
	.byte W06
	.byte 48 @ VOL
	.byte W06
	.byte 50 @ VOL
	.byte W06
	.byte 51 @ VOL
	.byte W06
	.byte 53 @ VOL
	.byte W05
	.byte N72, Bn3 @ v064
	.byte W01
	.byte VOL, 53
	.byte W07
	.byte 51 @ VOL
	.byte W06
	.byte 50 @ VOL
	.byte W07
	.byte 48 @ VOL
	.byte W06
	.byte 47 @ VOL
	.byte W06
	.byte 45 @ VOL
	.byte W07
	.byte 44 @ VOL
	.byte W06
	.byte 42 @ VOL
	.byte W07
	.byte 40 @ VOL
	.byte W06
	.byte 39 @ VOL
	.byte W07
	.byte 37 @ VOL
	.byte W06
	.byte 36 @ VOL
	.byte W07
	.byte 34 @ VOL
	.byte W06
	.byte 33 @ VOL
	.byte W07
	.byte 31 @ VOL
	.byte W04
	.byte VOICE, 10
	.byte VOL, 62
	.byte N08, Gn3, v080
	.byte W24
	.byte Cn3, v072 @ N08
	.byte W24
	.byte N32, Dn3, v088
	.byte W32
	.byte N08, An2, v072
	.byte W08
	.byte Bn2 @ N08, v072
	.byte W08
	.byte Cn3, v076 @ N08
	.byte W16
	.byte VOICE, 11
	.byte N04, Fn3 @ v076
	.byte W08
	.byte N24, Fn3, v088
	.byte W36
	.byte N04, Fn3, v072
	.byte W12
	.byte VOICE, 10
	.byte N08, Fn3, v088
	.byte W08
	.byte Gn3 @ N08, v088
	.byte W08
	.byte An3, v076 @ N08
	.byte W08
	.byte VOL, 31
	.byte N08, As3, v068
	.byte W96
	.byte W96
	.byte N48, Dn4, v108
	.byte W48
	.byte N44, En4, v096
	.byte W48
	.byte N48, Dn4, v100
	.byte W48
	.byte En4, v108 @ N48
	.byte W48
	.byte Fn4, v104 @ N48
	.byte W48
	.byte Gn4 @ N48, v104
	.byte W48
	.byte TEMPO, 57
	.byte W16
	.byte N10, Dn4, v096
	.byte W16
	.byte En4, v104 @ N10
	.byte W16
	.byte TEMPO, 56
	.byte Fn4, v096 @ N10
	.byte W24
	.byte Gn4, v092 @ N10
	.byte W24
	.byte TEMPO, 64
	.byte VOL, 39
	.byte N96, An4, v084
	.byte W60
	.byte W03
	.byte VOL, 37
	.byte W02
	.byte 36 @ VOL
	.byte W02
	.byte 34 @ VOL
	.byte W03
	.byte 33 @ VOL
	.byte W02
	.byte 31 @ VOL
	.byte W02
	.byte 29 @ VOL
	.byte W02
	.byte 28 @ VOL
	.byte W02
	.byte 26 @ VOL
	.byte W02
	.byte 25 @ VOL
	.byte W02
	.byte 23 @ VOL
	.byte W02
	.byte 22 @ VOL
	.byte W03
	.byte 20 @ VOL
	.byte W02
	.byte 18 @ VOL
	.byte W02
	.byte 17 @ VOL
	.byte W02
	.byte 15 @ VOL
	.byte W02
	.byte 14 @ VOL
	.byte W01
	.byte W96
	.byte W96
	.byte TEMPO, 60
	.byte W48
	.byte TEMPO, 50
	.byte W48
	.byte TEMPO, 55
	.byte VOICE, 8
	.byte VOL, 39
	.byte TIE, An4, v044
	.byte W96
	.byte W14
	.byte VOL, 37
	.byte W10
	.byte 36 @ VOL
	.byte W09
	.byte 34 @ VOL
	.byte W09
	.byte 33 @ VOL
	.byte W10
	.byte 31 @ VOL
	.byte W09
	.byte 29 @ VOL
	.byte W09
	.byte 28 @ VOL
	.byte W02
	.byte TEMPO, 46
	.byte W08
	.byte 26 @ VOL
	.byte W09
	.byte 25 @ VOL
	.byte W07
	.byte W02
	.byte 23 @ VOL
	.byte W09
	.byte 22 @ VOL
	.byte W10
	.byte 20 @ VOL
	.byte W09
	.byte 18 @ VOL
	.byte W09
	.byte 17 @ VOL
	.byte W56
	.byte W01
	.byte EOT @ An4, v044
	.byte N72, Cs4, v040
	.byte W02
	.byte VOL, 18
	.byte W03
	.byte 20 @ VOL
	.byte W03
	.byte 22 @ VOL
	.byte W02
	.byte 23 @ VOL
	.byte W03
	.byte 25 @ VOL
	.byte W02
	.byte 26 @ VOL
	.byte W03
	.byte 28 @ VOL
	.byte W02
	.byte 29 @ VOL
	.byte W03
	.byte 31 @ VOL
	.byte W03
	.byte 33 @ VOL
	.byte W02
	.byte 34 @ VOL
	.byte W03
	.byte 36 @ VOL
	.byte W02
	.byte 37 @ VOL
	.byte W03
	.byte 39 @ VOL
	.byte W60
	.byte 14 @ VOL
	.byte N60, Dn5, v036
	.byte W02
	.byte VOL, 15
	.byte W03
	.byte 17 @ VOL
	.byte W03
	.byte 18 @ VOL
	.byte W03
	.byte 20 @ VOL
	.byte W03
	.byte 22 @ VOL
	.byte W03
	.byte 23 @ VOL
	.byte W03
	.byte 25 @ VOL
	.byte W03
	.byte 26 @ VOL
	.byte W03
	.byte 28 @ VOL
	.byte W03
	.byte 29 @ VOL
	.byte W03
	.byte 31 @ VOL
	.byte W02
	.byte 33 @ VOL
	.byte W03
	.byte 34 @ VOL
	.byte W03
	.byte 36 @ VOL
	.byte W02
	.byte 37 @ VOL
	.byte W03
	.byte 39 @ VOL
	.byte W03
	.byte 40 @ VOL
	.byte W02
	.byte 42 @ VOL
	.byte W03
	.byte 44 @ VOL
	.byte W02
	.byte 45 @ VOL
	.byte W17
	.byte 31 @ VOL
	.byte N08, Dn5, v052
	.byte W08
	.byte Cs5, v048 @ N08
	.byte W08
	.byte Bn4 @ N08, v048
	.byte W08
	.byte N12, Cs5, v044
	.byte W12
	.byte N54, An4, v040
	.byte W06
	.byte VOL, 29
	.byte W04
	.byte 28 @ VOL
	.byte W03
	.byte 26 @ VOL
	.byte W04
	.byte 25 @ VOL
	.byte W03
	.byte 23 @ VOL
	.byte W04
	.byte 22 @ VOL
	.byte W04
	.byte 20 @ VOL
	.byte W03
	.byte 18 @ VOL
	.byte W04
	.byte 17 @ VOL
	.byte W36
	.byte W01
	.byte 28 @ VOL
	.byte N12 @ An4, v040
	.byte W12
	.byte N60, Bn4 @ v040
	.byte W72
	.byte VOL, 31
	.byte N08, Bn4, v036
	.byte W08
	.byte An4 @ N08, v036
	.byte W08
	.byte Gn4, v032 @ N08
	.byte W08
	.byte N72, An4 @ v032
	.byte W24
	.byte W01
	.byte VOL, 29
	.byte W03
	.byte 28 @ VOL
	.byte W03
	.byte 26 @ VOL
	.byte W03
	.byte 25 @ VOL
	.byte W04
	.byte 23 @ VOL
	.byte W03
	.byte 22 @ VOL
	.byte W03
	.byte 20 @ VOL
	.byte W03
	.byte 18 @ VOL
	.byte W04
	.byte 17 @ VOL
	.byte W03
	.byte 15 @ VOL
	.byte W03
	.byte 14 @ VOL
	.byte W04
	.byte 12 @ VOL
	.byte W03
	.byte 11 @ VOL
	.byte W03
	.byte 9 @ VOL
	.byte W03
	.byte 7 @ VOL
	.byte W14
	.byte 31 @ VOL
	.byte N12, Fs4, v044
	.byte W12
	.byte N60, An4, v032
	.byte W72
	.byte N08, An4, v052
	.byte W08
	.byte Gn4 @ N08, v052
	.byte W08
	.byte Fn4 @ N08, v052
	.byte W08
	.byte N12, Gn4 @ v052
	.byte W12
	.byte N60, En4, v056
	.byte W09
	.byte VOL, 29
	.byte W08
	.byte 28 @ VOL
	.byte W08
	.byte 26 @ VOL
	.byte W08
	.byte 25 @ VOL
	.byte W08
	.byte 23 @ VOL
	.byte W09
	.byte 22 @ VOL
	.byte W08
	.byte 20 @ VOL
	.byte W08
	.byte 18 @ VOL
	.byte W18
	.byte TIE, Dn4, v044
	.byte W96
	.byte W24
	.byte EOT @ Dn4, v044
	.byte W24
	.byte N10, Dn4, v056
	.byte W16
	.byte N10 @ Dn4, v056
	.byte W16
	.byte N10 @ Dn4, v056
	.byte W16
	.byte N72, Fs4 @ v056
	.byte W96
	.byte W96
	.byte W96
	.byte W96
	.byte W96
	.byte W96
	.byte W96
	.byte W96
	.byte VOL, 0
	.byte TIE, An4, v036
	.byte W02
	.byte VOL, 1
	.byte W04
	.byte 3 @ VOL
	.byte W04
	.byte 4 @ VOL
	.byte W04
	.byte 6 @ VOL
	.byte W04
	.byte 7 @ VOL
	.byte W04
	.byte 9 @ VOL
	.byte W04
	.byte 11 @ VOL
	.byte W04
	.byte 12 @ VOL
	.byte W04
	.byte 14 @ VOL
	.byte W04
	.byte 15 @ VOL
	.byte W04
	.byte 17 @ VOL
	.byte W04
	.byte 18 @ VOL
	.byte W48
	.byte W02
	.byte W96
	.byte W96
	.byte W96
	.byte W72
	.byte EOT @ An4, v036
	.byte W24
	.byte W96
	.byte W96
	.byte TEMPO, 64
	.byte VOICE, 5
	.byte VOL, 62
	.byte W24
	.byte N30, Dn4, v032
	.byte W48
	.byte N12, An3 @ v032
	.byte W24
	.byte Gn3 @ N12, v032
	.byte W24
	.byte N36, Cn4 @ v032
	.byte W48
	.byte N04, Gn3 @ v032
	.byte W08
	.byte N05 @ Gn3, v032
	.byte W08
	.byte An3 @ N05, v032
	.byte W08
	.byte N30, As3 @ v032
	.byte W48
	.byte Fn3 @ N30, v032
	.byte W48
	.byte N10, Ds3 @ v032
	.byte W24
	.byte N30, As3 @ v032
	.byte W48
	.byte N12 @ As3, v032
	.byte W24
	.byte N96, An3, v040
	.byte W96
	.byte As3 @ N96, v040
	.byte W96
	.byte Bn3 @ N96, v040
	.byte W96
	.byte N56, Cn4 @ v040
	.byte W72
	.byte N06, Cn4, v052
	.byte W08
	.byte N06 @ Cn4, v052
	.byte W08
	.byte N07, Cn4, v060
	.byte W08
	.byte VOICE, 0
	.byte VOL, 31
	.byte N06, Dn1, v080
	.byte W48
	.byte Dn1, v052 @ N06
	.byte W12
	.byte Dn1, v072 @ N06
	.byte W24
	.byte Dn1, v052 @ N06
	.byte W12
	.byte Dn1, v064 @ N06
	.byte W48
	.byte Dn1, v052 @ N06
	.byte W12
	.byte Dn1, v072 @ N06
	.byte W12
	.byte N08, Cs2, v080
	.byte W08
	.byte Cs2, v100 @ N08
	.byte W08
	.byte N12, Cs2, v120
	.byte W08
	.byte W48
	.byte N06, Dn1, v072
	.byte W12
	.byte Dn1, v092 @ N06
	.byte W24
	.byte N02, Dn1, v064
	.byte W03
	.byte N02 @ Dn1, v064
	.byte W03
	.byte N02 @ Dn1, v064
	.byte W03
	.byte N02 @ Dn1, v064
	.byte W03
	.byte N06, Dn1, v084
	.byte W24
	.byte Dn1, v064 @ N06
	.byte W08
	.byte Dn1, v044 @ N06
	.byte W08
	.byte N06 @ Dn1, v044
	.byte W08
	.byte Dn1, v072 @ N06
	.byte W12
	.byte Dn1, v092 @ N06
	.byte W12
	.byte N04, Dn1, v052
	.byte W04
	.byte Dn1, v048 @ N04
	.byte W04
	.byte Dn1, v056 @ N04
	.byte W04
	.byte Dn1, v064 @ N04
	.byte W04
	.byte Dn1, v072 @ N04
	.byte W04
	.byte Dn1, v080 @ N04
	.byte W04
	.byte W12
	.byte N08, Dn1, v088
	.byte W24
	.byte Dn1, v084 @ N08
	.byte W24
	.byte N06 @ Dn1, v084
	.byte W12
	.byte Dn1, v088 @ N06
	.byte W08
	.byte N06 @ Dn1, v088
	.byte W08
	.byte N06 @ Dn1, v088
	.byte W08
	.byte W24
	.byte N06 @ Dn1, v088
	.byte W08
	.byte N06 @ Dn1, v088
	.byte W08
	.byte N06 @ Dn1, v088
	.byte W08
	.byte N06 @ Dn1, v088
	.byte W12
	.byte N06 @ Dn1, v088
	.byte W12
	.byte N06 @ Dn1, v088
	.byte W08
	.byte N06 @ Dn1, v088
	.byte W08
	.byte N06 @ Dn1, v088
	.byte W08
	.byte W12
	.byte N06 @ Dn1, v088
	.byte W24
	.byte N08 @ Dn1, v088
	.byte W12
	.byte Dn1, v076 @ N08
	.byte W12
	.byte N08 @ Dn1, v076
	.byte W12
	.byte N08 @ Dn1, v076
	.byte W12
	.byte N08 @ Dn1, v076
	.byte W12
	.byte W24
	.byte N06, Dn1, v088
	.byte W08
	.byte N06 @ Dn1, v088
	.byte W08
	.byte N06 @ Dn1, v088
	.byte W08
	.byte TEMPO, 49
	.byte N12 @ Dn1, v088
	.byte W24
	.byte N06, Dn1, v100
	.byte W08
	.byte N06 @ Dn1, v100
	.byte W08
	.byte N06 @ Dn1, v100
	.byte W08
	.byte VOICE, 17
	.byte VOL, 86
	.byte W06
	.byte TIE @ Dn1, v100
	.byte W90
	.byte W48
	.byte W44
	.byte W01
	.byte EOT @ Dn1, v100
	.byte W48
	.byte W03
	.byte TEMPO, 44
	.byte W96
	.byte W96
	.byte TEMPO, 55
track_85_lbl_26b04e:
	.byte W96
	.byte W96
	.byte W96
	.byte W96
	.byte W96
	.byte W96
	.byte W96
	.byte W96
	.byte W96
	.byte W96
	.byte W96
	.byte W96
	.byte W96
	.byte W96
	.byte W96
	.byte W96
	.byte W96
	.byte W96
	.byte GOTO
		.word track_85_lbl_26b04e
	.byte FINE

track_85_1:
	.byte KEYSH, 0
	.byte W24
	.byte VOICE, 9
	.byte VOL, 78
	.byte PAN, c_v-4
	.byte W24
	.byte N08, Cn1, v104
	.byte W08
	.byte Cn1, v100 @ N08
	.byte W08
	.byte N08 @ Cn1, v100
	.byte W08
	.byte Cn1, v116 @ N08
	.byte W12
	.byte N08 @ Cn1, v116
	.byte W24
	.byte N08 @ Cn1, v116
	.byte W12
	.byte Cn2, v084 @ N08
	.byte W24
	.byte Cn1, v100 @ N08
	.byte W08
	.byte Cn1, v092 @ N08
	.byte W08
	.byte Cn1, v124 @ N08
	.byte W08
	.byte Cn1, v100 @ N08
	.byte W12
	.byte N08 @ Cn1, v100
	.byte W24
	.byte N08 @ Cn1, v100
	.byte W11
	.byte Cn1, v096 @ N08
	.byte W01
	.byte W24
	.byte Cn1, v100 @ N08
	.byte W08
	.byte Cn1, v092 @ N08
	.byte W08
	.byte N07, Cn1, v120
	.byte W08
	.byte N08 @ Cn1, v120
	.byte W12
	.byte Cn1, v127 @ N08
	.byte W12
	.byte Cn1, v120 @ N08
	.byte W08
	.byte Cn1, v127 @ N08
	.byte W08
	.byte N06, Dn1 @ v127
	.byte W08
	.byte N08, Ds1, v084
	.byte W12
	.byte Ds1, v088 @ N08
	.byte W24
	.byte Ds1, v072 @ N08
	.byte W24
	.byte Ds1, v084 @ N08
	.byte W24
	.byte N08 @ Ds1, v084
	.byte W12
	.byte W12
	.byte Ds1, v060 @ N08
	.byte W24
	.byte Ds1, v072 @ N08
	.byte W24
	.byte Ds1, v080 @ N08
	.byte W24
	.byte Ds1, v092 @ N08
	.byte W12
	.byte W12
	.byte Ds1, v100 @ N08
	.byte W24
	.byte Ds1, v112 @ N08
	.byte W24
	.byte Ds1, v120 @ N08
	.byte W12
	.byte Ds1, v124 @ N08
	.byte W08
	.byte N08 @ Ds1, v124
	.byte W08
	.byte N08 @ Ds1, v124
	.byte W08
	.byte Dn1, v092 @ N08
	.byte W24
	.byte Dn1, v112 @ N08
	.byte W08
	.byte N08 @ Dn1, v112
	.byte W08
	.byte Dn1, v100 @ N08
	.byte W08
	.byte Cs1, v108 @ N08
	.byte W12
	.byte Cs1, v084 @ N08
	.byte W24
	.byte Cs1, v104 @ N08
	.byte W12
	.byte Cn1, v080 @ N08
	.byte W12
	.byte Cn1, v096 @ N08
	.byte W24
	.byte Cn1, v104 @ N08
	.byte W24
	.byte Cn1, v116 @ N08
	.byte W12
	.byte Cn1, v112 @ N08
	.byte W08
	.byte N08 @ Cn1, v112
	.byte W08
	.byte Cn1, v100 @ N08
	.byte W08
	.byte Bn1, v096 @ N08
	.byte W12
	.byte Bn1, v108 @ N08
	.byte W24
	.byte Bn1, v096 @ N08
	.byte W12
	.byte As1, v092 @ N08
	.byte W12
	.byte As1, v080 @ N08
	.byte W24
	.byte N08 @ As1, v080
	.byte W12
	.byte An1, v092 @ N08
	.byte W12
	.byte N08 @ An1, v092
	.byte W24
	.byte N08 @ An1, v092
	.byte W12
	.byte Gs1 @ N08, v092
	.byte W12
	.byte N08 @ Gs1, v092
	.byte W24
	.byte N08 @ Gs1, v092
	.byte W12
	.byte Gn1 @ N08, v092
	.byte W12
	.byte N08 @ Gn1, v092
	.byte W24
	.byte N08 @ Gn1, v092
	.byte W12
	.byte N08 @ Gn1, v092
	.byte W12
	.byte N08 @ Gn1, v092
	.byte W24
	.byte N08 @ Gn1, v092
	.byte W12
	.byte Fs1 @ N08, v092
	.byte W12
	.byte N08 @ Fs1, v092
	.byte W24
	.byte N08 @ Fs1, v092
	.byte W12
	.byte N08 @ Fs1, v092
	.byte W12
	.byte N08 @ Fs1, v092
	.byte W24
	.byte N08 @ Fs1, v092
	.byte W12
	.byte Gn1, v088 @ N08
	.byte W12
	.byte Gn1, v084 @ N08
	.byte W24
	.byte Gn1, v092 @ N08
	.byte W12
	.byte Gn1, v072 @ N08
	.byte W12
	.byte Gn1, v064 @ N08
	.byte W12
	.byte Gn1, v084 @ N08
	.byte W12
	.byte N06, Gn1, v108
	.byte W06
	.byte Gn1, v088 @ N06
	.byte W06
	.byte N08, Gn1, v116
	.byte W24
	.byte N08 @ Gn1, v116
	.byte W08
	.byte Gn1, v100 @ N08
	.byte W08
	.byte Gn1, v116 @ N08
	.byte W08
	.byte Gn1, v120 @ N08
	.byte W12
	.byte N08 @ Gn1, v120
	.byte W12
	.byte Gn1, v116 @ N08
	.byte W08
	.byte Gn1, v100 @ N08
	.byte W08
	.byte N08 @ Gn1, v100
	.byte W08
	.byte VOICE, 9
	.byte VOL, 78
	.byte W24
	.byte N08, Cn1, v112
	.byte W08
	.byte Cn1, v108 @ N08
	.byte W08
	.byte N08 @ Cn1, v108
	.byte W08
	.byte Cn1, v124 @ N08
	.byte W12
	.byte N08 @ Cn1, v124
	.byte W24
	.byte N08 @ Cn1, v124
	.byte W12
	.byte Cn2, v084 @ N08
	.byte W24
	.byte Cn1, v100 @ N08
	.byte W08
	.byte Cn1, v092 @ N08
	.byte W08
	.byte Cn1, v124 @ N08
	.byte W08
	.byte Cn1, v100 @ N08
	.byte W12
	.byte N08 @ Cn1, v100
	.byte W24
	.byte N08 @ Cn1, v100
	.byte W12
	.byte Ds1 @ N08, v100
	.byte W24
	.byte N08 @ Ds1, v100
	.byte W08
	.byte N08 @ Ds1, v100
	.byte W08
	.byte N08 @ Ds1, v100
	.byte W08
	.byte N08 @ Ds1, v100
	.byte W12
	.byte N08 @ Ds1, v100
	.byte W24
	.byte N08 @ Ds1, v100
	.byte W12
	.byte Ds1, v064 @ N08
	.byte W12
	.byte Ds1, v068 @ N08
	.byte W24
	.byte Ds1, v096 @ N08
	.byte W24
	.byte Ds1, v088 @ N08
	.byte W12
	.byte N08 @ Ds1, v088
	.byte W12
	.byte N08 @ Ds1, v088
	.byte W12
	.byte W24
	.byte Gn1, v084 @ N08
	.byte W08
	.byte N08 @ Gn1, v084
	.byte W08
	.byte N08 @ Gn1, v084
	.byte W20
	.byte N08 @ Gn1, v084
	.byte W24
	.byte N08 @ Gn1, v084
	.byte W12
	.byte W24
	.byte Gn1, v096 @ N08
	.byte W08
	.byte Gn1, v088 @ N08
	.byte W08
	.byte Gn1, v096 @ N08
	.byte W20
	.byte Gn1, v104 @ N08
	.byte W12
	.byte N08 @ Gn1, v104
	.byte W08
	.byte Gn1, v096 @ N08
	.byte W08
	.byte N08 @ Gn1, v096
	.byte W08
	.byte As1, v124 @ N08
	.byte W24
	.byte As1, v104 @ N08
	.byte W08
	.byte As1, v108 @ N08
	.byte W08
	.byte As1, v116 @ N08
	.byte W08
	.byte As1, v124 @ N08
	.byte W12
	.byte N08 @ As1, v124
	.byte W24
	.byte As1, v088 @ N08
	.byte W12
	.byte As1, v104 @ N08
	.byte W16
	.byte As1, v112 @ N08
	.byte W32
	.byte As1, v108 @ N08
	.byte W24
	.byte As1, v112 @ N08
	.byte W24
track_85_lbl_26b1f2:
	.byte W36
	.byte N06, Dn1, v092
	.byte W06
	.byte N06 @ Dn1, v092
	.byte W06
	.byte N08, Dn1, v124
	.byte W12
	.byte N24, Dn1, v112
	.byte W36
	.byte PEND
	.byte PATT
		.word track_85_lbl_26b1f2
	.byte N08, Dn1, v100
	.byte W36
	.byte N06, Dn1, v080
	.byte W06
	.byte Dn1, v092 @ N06
	.byte W06
	.byte N08 @ Dn1, v092
	.byte W12
	.byte Dn1, v072 @ N08
	.byte W24
	.byte N12, Dn1, v080
	.byte W12
	.byte W12
	.byte N08, Dn1, v092
	.byte W24
	.byte N08 @ Dn1, v092
	.byte W24
	.byte Dn1, v080 @ N08
	.byte W24
	.byte N08 @ Dn1, v080
	.byte W12
	.byte N08 @ Dn1, v080
	.byte W96
	.byte W96
	.byte W96
	.byte W96
	.byte W96
	.byte W96
	.byte W96
	.byte W96
	.byte W96
	.byte W96
	.byte W96
	.byte W96
	.byte W96
	.byte W96
	.byte W96
	.byte W96
	.byte W96
	.byte W96
	.byte W96
	.byte W96
	.byte W96
	.byte W96
	.byte VOICE, 8
	.byte VOL, 23
	.byte TIE, An5, v024
	.byte W96
	.byte W96
	.byte W96
	.byte W96
	.byte W36
	.byte EOT @ An5, v024
	.byte W60
	.byte VOICE, 9
	.byte VOL, 78
	.byte N12, En1, v100
	.byte W24
	.byte N06 @ En1, v100
	.byte W08
	.byte N06 @ En1, v100
	.byte W08
	.byte N06 @ En1, v100
	.byte W08
	.byte N06 @ En1, v100
	.byte W12
	.byte N12 @ En1, v100
	.byte W24
	.byte N06 @ En1, v100
	.byte W12
	.byte N08 @ En1, v100
	.byte W24
	.byte N06 @ En1, v100
	.byte W08
	.byte N06 @ En1, v100
	.byte W08
	.byte N06 @ En1, v100
	.byte W08
	.byte N06 @ En1, v100
	.byte W12
	.byte N06 @ En1, v100
	.byte W12
	.byte N06 @ En1, v100
	.byte W12
	.byte N06 @ En1, v100
	.byte W12
	.byte N12, Fn1 @ v100
	.byte W24
	.byte N06 @ Fn1, v100
	.byte W08
	.byte N06 @ Fn1, v100
	.byte W08
	.byte N06 @ Fn1, v100
	.byte W08
	.byte N06 @ Fn1, v100
	.byte W12
	.byte N12 @ Fn1, v100
	.byte W24
	.byte N06 @ Fn1, v100
	.byte W12
	.byte N06 @ Fn1, v100
	.byte W12
	.byte N08 @ Fn1, v100
	.byte W24
	.byte N08 @ Fn1, v100
	.byte W24
	.byte N08 @ Fn1, v100
	.byte W24
	.byte N08 @ Fn1, v100
	.byte W12
	.byte N06, Fs1 @ v100
	.byte W12
	.byte N08 @ Fs1, v100
	.byte W24
	.byte N08 @ Fs1, v100
	.byte W12
	.byte N08 @ Fs1, v100
	.byte W12
	.byte N08 @ Fs1, v100
	.byte W24
	.byte N08 @ Fs1, v100
	.byte W12
	.byte Gn1 @ N08, v100
	.byte W12
	.byte N08 @ Gn1, v100
	.byte W24
	.byte N08 @ Gn1, v100
	.byte W12
	.byte N08 @ Gn1, v100
	.byte W12
	.byte N08 @ Gn1, v100
	.byte W24
	.byte N08 @ Gn1, v100
	.byte W12
	.byte Gs1 @ N08, v100
	.byte W12
	.byte N08 @ Gs1, v100
	.byte W24
	.byte N08 @ Gs1, v100
	.byte W12
	.byte N08 @ Gs1, v100
	.byte W12
	.byte N08 @ Gs1, v100
	.byte W24
	.byte N08 @ Gs1, v100
	.byte W12
	.byte N12, An1 @ v100
	.byte W24
	.byte N06 @ An1, v100
	.byte W08
	.byte N06 @ An1, v100
	.byte W08
	.byte N06 @ An1, v100
	.byte W08
	.byte N06 @ An1, v100
	.byte W12
	.byte N06 @ An1, v100
	.byte W12
	.byte N06 @ An1, v100
	.byte W08
	.byte N06 @ An1, v100
	.byte W08
	.byte N06 @ An1, v100
	.byte W08
	.byte N08, Dn1 @ v100
	.byte W24
	.byte N05 @ Dn1, v100
	.byte W08
	.byte N05 @ Dn1, v100
	.byte W08
	.byte N05 @ Dn1, v100
	.byte W08
	.byte N05 @ Dn1, v100
	.byte W12
	.byte N06 @ Dn1, v100
	.byte W24
	.byte N06 @ Dn1, v100
	.byte W12
track_85_lbl_26b2d0:
	.byte N08, Dn1, v100
	.byte W24
	.byte N05 @ Dn1, v100
	.byte W08
	.byte N05 @ Dn1, v100
	.byte W08
	.byte N05 @ Dn1, v100
	.byte W08
	.byte N05 @ Dn1, v100
	.byte W12
	.byte N06 @ Dn1, v100
	.byte W36
	.byte PEND
	.byte PATT
		.word track_85_lbl_26b2d0
	.byte N08, Dn1, v100
	.byte W24
	.byte N05 @ Dn1, v100
	.byte W08
	.byte N05 @ Dn1, v100
	.byte W08
	.byte N05 @ Dn1, v100
	.byte W08
	.byte N05 @ Dn1, v100
	.byte W12
	.byte N06 @ Dn1, v100
	.byte W12
	.byte N03, Dn1, v080
	.byte W04
	.byte Dn1, v088 @ N03
	.byte W04
	.byte Dn1, v096 @ N03
	.byte W04
	.byte Dn1, v100 @ N03
	.byte W04
	.byte N03 @ Dn1, v100
	.byte W04
	.byte N03 @ Dn1, v100
	.byte W04
	.byte W12
	.byte N08, Dn1, v060
	.byte W24
	.byte Dn1, v052 @ N08
	.byte W24
	.byte N06 @ Dn1, v052
	.byte W12
	.byte Dn1, v060 @ N06
	.byte W08
	.byte N06 @ Dn1, v060
	.byte W08
	.byte N06 @ Dn1, v060
	.byte W08
	.byte W24
	.byte Dn1, v056 @ N06
	.byte W08
	.byte N06 @ Dn1, v056
	.byte W08
	.byte N06 @ Dn1, v056
	.byte W08
	.byte N06 @ Dn1, v056
	.byte W12
	.byte N06 @ Dn1, v056
	.byte W12
	.byte N06 @ Dn1, v056
	.byte W08
	.byte N06 @ Dn1, v056
	.byte W08
	.byte N06 @ Dn1, v056
	.byte W08
	.byte W12
	.byte N06 @ Dn1, v056
	.byte W24
	.byte N08 @ Dn1, v056
	.byte W12
	.byte Dn1, v048 @ N08
	.byte W12
	.byte N08 @ Dn1, v048
	.byte W12
	.byte N08 @ Dn1, v048
	.byte W12
	.byte N08 @ Dn1, v048
	.byte W12
	.byte W24
	.byte N06, Dn1, v088
	.byte W08
	.byte N06 @ Dn1, v088
	.byte W08
	.byte N06 @ Dn1, v088
	.byte W08
	.byte N12 @ Dn1, v088
	.byte W48
	.byte VOICE, 18
	.byte VOL, 78
	.byte W06
	.byte N96, Cn3, v100
	.byte W90
	.byte W48
	.byte W96
	.byte W96
	.byte W96
track_85_lbl_26b34c:
	.byte W96
	.byte W96
	.byte W96
	.byte W96
	.byte W96
	.byte W96
	.byte W96
	.byte W96
	.byte W96
	.byte W96
	.byte W96
	.byte W96
	.byte W96
	.byte W96
	.byte W96
	.byte W96
	.byte W96
	.byte W96
	.byte GOTO
		.word track_85_lbl_26b34c
	.byte FINE

track_85_2:
	.byte KEYSH, 0
	.byte W24
	.byte VOICE, 8
	.byte VOL, 31
	.byte PAN, c_v+10
	.byte N08, Cn3, v080, 64
	.byte Cn5, v067 @ N08
	.byte W24
	.byte N06, Cn2, v096, 55
	.byte En5 @ N06, v096
	.byte W08
	.byte Cn2, v092, 55 @ N06
	.byte Gs4 @ N06, v092
	.byte W08
	.byte Cn2, v092, 55 @ N06
	.byte Gs4 @ N06, v092
	.byte W08
	.byte N48, Gn2, v072, 59
	.byte Gs3 @ N48, v072
	.byte W48
	.byte N04, Fn2, v088, 57
	.byte Gs3 @ N04, v088
	.byte W16
	.byte An2, v092, 60 @ N04
	.byte En5 @ N04, v092
	.byte W08
	.byte N24, An2, v080, 60
	.byte Cn5 @ N24, v080
	.byte W36
	.byte N04, An2 @ v080
	.byte N04, Cn3, v080
	.byte W12
	.byte N16, An2, v096, 60
	.byte Cn5 @ N16, v096
	.byte W24
	.byte N08, Gn2 @ v096
	.byte N08, En3, v092
	.byte W72
	.byte Cn2, v108 @ N08
	.byte W08
	.byte Cn2, v112 @ N08
	.byte W08
	.byte N06, Dn2, v120
	.byte W08
	.byte N08, Ds3, v080, 67
	.byte En3 @ N08, v080
	.byte W48
	.byte N48, As2, v052, 62
	.byte Gs2 @ N48, v052
	.byte W48
	.byte N08, Gs2, v048
	.byte W16
	.byte N04, Cn3 @ v048
	.byte N04, Ds3, v068
	.byte W08
	.byte N36, Cn3, v064, 63
	.byte Gs3 @ N36, v064
	.byte W48
	.byte N12, Gs2, v064, 60
	.byte En2 @ N12, v064
	.byte W16
	.byte N07, Ds3, v096
	.byte W08
	.byte N72, Ds3, v072
	.byte W48
	.byte W02
	.byte VOL, 33
	.byte W02
	.byte 34 @ VOL
	.byte W03
	.byte 36 @ VOL
	.byte W02
	.byte 37 @ VOL
	.byte W03
	.byte 39 @ VOL
	.byte W02
	.byte 40 @ VOL
	.byte W03
	.byte 42 @ VOL
	.byte W02
	.byte 44 @ VOL
	.byte W03
	.byte 45 @ VOL
	.byte W02
	.byte N08, Ds2, v124
	.byte W08
	.byte N08 @ Ds2, v124
	.byte W08
	.byte N08 @ Ds2, v124
	.byte W08
	.byte Dn3, v072, 67 @ N08
	.byte W48
	.byte N30, En3, v068
	.byte W32
	.byte N08, En3, v080
	.byte W08
	.byte N06, An3, v076
	.byte W08
	.byte N08, An3, v068
	.byte W24
	.byte N44, An3, v024, 74
	.byte Cn3 @ N44, v024
	.byte W48
	.byte N12, An3, v068, 74
	.byte Gs2 @ N12, v068
	.byte W24
	.byte N96, Gn3, v036, 74
	.byte En1 @ N96, v036
	.byte W96
	.byte N60, Fn3 @ v036
	.byte N60, Cn4 @ v036
	.byte W80
	.byte N06, Fn3, v060
	.byte W08
	.byte N06 @ Fn3, v060
	.byte W08
	.byte N96, Gn3, v052, 70
	.byte Cn3 @ N96, v052
	.byte W96
	.byte N48, An3, v056
	.byte W96
	.byte VOL, 44
	.byte TIE, Gn3, v044
	.byte TIE, Dn4, v032
	.byte W05
	.byte VOL, 45
	.byte W06
	.byte 47 @ VOL
	.byte W05
	.byte 48 @ VOL
	.byte W06
	.byte 50 @ VOL
	.byte W06
	.byte 51 @ VOL
	.byte W06
	.byte 53 @ VOL
	.byte W05
	.byte 55 @ VOL
	.byte W06
	.byte 56 @ VOL
	.byte W06
	.byte 58 @ VOL
	.byte W06
	.byte 59 @ VOL
	.byte W05
	.byte 61 @ VOL
	.byte W06
	.byte 62 @ VOL
	.byte W06
	.byte 64 @ VOL
	.byte W06
	.byte 66 @ VOL
	.byte W05
	.byte 67 @ VOL
	.byte W06
	.byte 69 @ VOL
	.byte W05
	.byte W05
	.byte 67 @ VOL
	.byte W04
	.byte 66 @ VOL
	.byte W05
	.byte 64 @ VOL
	.byte W04
	.byte 62 @ VOL
	.byte W05
	.byte 61 @ VOL
	.byte W04
	.byte 59 @ VOL
	.byte W04
	.byte 58 @ VOL
	.byte W05
	.byte 56 @ VOL
	.byte W04
	.byte 55 @ VOL
	.byte W05
	.byte 53 @ VOL
	.byte W04
	.byte 51 @ VOL
	.byte W04
	.byte 50 @ VOL
	.byte W05
	.byte 48 @ VOL
	.byte W04
	.byte 47 @ VOL
	.byte W04
	.byte 45 @ VOL
	.byte W05
	.byte 44 @ VOL
	.byte W01
	.byte EOT, Gn3, v074
	.byte W24
	.byte VOICE, 8
	.byte VOL, 31
	.byte N08, Cn3, v092, 64
	.byte N08, Gn3 @ v092
	.byte W24
	.byte N06, Cn2, v108, 55
	.byte Cn6 @ N06, v108
	.byte W08
	.byte Cn2, v100, 55 @ N06
	.byte Gs5 @ N06, v100
	.byte W08
	.byte Cn2, v100, 55 @ N06
	.byte Gs5 @ N06, v100
	.byte W08
	.byte N48, Gn2, v084, 59
	.byte Gs4 @ N48, v084
	.byte W48
	.byte N04, Fn2, v088, 57
	.byte Gs3 @ N04, v088
	.byte W16
	.byte An2, v092, 60 @ N04
	.byte En5 @ N04, v092
	.byte W08
	.byte N24, An2, v080, 60
	.byte Cn5 @ N24, v080
	.byte W36
	.byte N04, An2 @ v080
	.byte N04, Cn3, v080
	.byte W12
	.byte N16, An2, v096, 60
	.byte Cn5 @ N16, v096
	.byte N08, Fn3, v076
	.byte W08
	.byte Gn3 @ N08, v076
	.byte W08
	.byte An3, v068 @ N08
	.byte W08
	.byte Ds3, v076, 70 @ N08
	.byte Cn4 @ N08, v076
	.byte W48
	.byte N48, As2, v076
	.byte W48
	.byte Gs2, v056 @ N48
	.byte W16
	.byte N04, Ds3, v068
	.byte W08
	.byte N24 @ Ds3, v068
	.byte W36
	.byte N04, Cn3, v088, 68
	.byte W12
	.byte N06, Ds3 @ v088
	.byte N08, Gs3 @ v088
	.byte W08
	.byte N06, Ds3 @ v088
	.byte N08, As3 @ v088
	.byte W08
	.byte N06, Ds3, v096
	.byte N08, Cn4 @ v096
	.byte W08
	.byte N48, Dn3, v072, 71
	.byte En5 @ N48, v072
	.byte W48
	.byte N44, Gn3, v068, 73
	.byte En5 @ N44, v068
	.byte W48
	.byte N48, Gn3, v068, 71
	.byte En5 @ N48, v068
	.byte W48
	.byte Gn3, v064, 73 @ N48
	.byte En5 @ N48, v064
	.byte W48
	.byte As3, v064, 74 @ N48
	.byte En5 @ N48, v064
	.byte W48
	.byte As3, v064, 76 @ N48
	.byte En5 @ N48, v064
	.byte W48
	.byte W16
	.byte N10, Dn4, v096
	.byte W16
	.byte En4, v104 @ N10
	.byte W16
	.byte As3, v088, 74 @ N10
	.byte W24
	.byte As3 @ N10, v088
	.byte N10, Dn4 @ v088
	.byte W24
	.byte N96, Dn4, v080, 78
	.byte Cn4 @ N96, v080
	.byte W96
	.byte Bn3, v064, 80 @ N96
	.byte Gs3 @ N96, v064
	.byte W96
	.byte An3, v052, 74 @ N96
	.byte N96, Fs4 @ v052
	.byte W96
	.byte N92, Bn3, v032, 76
	.byte Gs1, v080, 48 @ N92
	.byte W96
	.byte VOICE, 8
	.byte VOL, 31
	.byte N96, Fs4, v020
	.byte W08
	.byte VOL, 29
	.byte W04
	.byte 28 @ VOL
	.byte W05
	.byte 26 @ VOL
	.byte W04
	.byte 25 @ VOL
	.byte W04
	.byte 23 @ VOL
	.byte W04
	.byte 22 @ VOL
	.byte W05
	.byte 20 @ VOL
	.byte W04
	.byte 18 @ VOL
	.byte W04
	.byte 17 @ VOL
	.byte W05
	.byte 15 @ VOL
	.byte W04
	.byte 14 @ VOL
	.byte W04
	.byte 12 @ VOL
	.byte W05
	.byte 11 @ VOL
	.byte W04
	.byte 9 @ VOL
	.byte W04
	.byte 7 @ VOL
	.byte W04
	.byte 6 @ VOL
	.byte W05
	.byte 4 @ VOL
	.byte W19
	.byte W96
	.byte 9 @ VOL
	.byte TIE, Fs4, v036
	.byte W07
	.byte VOL, 11
	.byte W07
	.byte 12 @ VOL
	.byte W07
	.byte 14 @ VOL
	.byte W07
	.byte 15 @ VOL
	.byte W07
	.byte 17 @ VOL
	.byte W07
	.byte 18 @ VOL
	.byte W07
	.byte 20 @ VOL
	.byte W07
	.byte 22 @ VOL
	.byte W08
	.byte 23 @ VOL
	.byte W07
	.byte 25 @ VOL
	.byte W07
	.byte 26 @ VOL
	.byte W07
	.byte 28 @ VOL
	.byte W07
	.byte 29 @ VOL
	.byte W04
	.byte W72
	.byte EOT @ Fs4, v036
	.byte W24
	.byte VOL, 31
	.byte N24, Bn3, v032
	.byte N84, Fs4 @ v032
	.byte W36
	.byte N52, Bn3 @ v032
	.byte W60
	.byte N24, Fs3 @ v032
	.byte N84, Cs4 @ v032
	.byte W40
	.byte N44, Fs3 @ v032
	.byte W56
	.byte N24, Gn3 @ v032
	.byte N60, Dn4 @ v032
	.byte W36
	.byte N52, Gn3 @ v032
	.byte W60
	.byte N24, Dn3 @ v032
	.byte N72, Fs4 @ v032
	.byte W36
	.byte VOL, 29
	.byte N52, Dn3, v040
	.byte W05
	.byte VOL, 28
	.byte W05
	.byte 26 @ VOL
	.byte W05
	.byte 25 @ VOL
	.byte W06
	.byte 23 @ VOL
	.byte W05
	.byte 22 @ VOL
	.byte W06
	.byte 20 @ VOL
	.byte W05
	.byte 18 @ VOL
	.byte W05
	.byte 17 @ VOL
	.byte W06
	.byte 15 @ VOL
	.byte W12
	.byte 31 @ VOL
	.byte N60, Cn4, v032, 77
	.byte Gs1 @ N60, v032
	.byte W96
	.byte N12, En4, v036
	.byte W12
	.byte N60, Cn4 @ v036
	.byte W84
	.byte N24, Fn3, v044
	.byte TIE, As3 @ v044
	.byte W36
	.byte N72, Fn3 @ v044
	.byte W60
	.byte W24
	.byte EOT, As3 @ v044
	.byte W24
	.byte N10, Fn3 @ v044
	.byte N10, As3 @ v044
	.byte W16
	.byte Fn3 @ N10, v044
	.byte N10, As3 @ v044
	.byte W16
	.byte Fn3 @ N10, v044
	.byte N10, As3 @ v044
	.byte W16
	.byte N84, An3 @ v044
	.byte N84, Dn4 @ v044
	.byte W06
	.byte VOL, 29
	.byte W08
	.byte 28 @ VOL
	.byte W07
	.byte 26 @ VOL
	.byte W08
	.byte 25 @ VOL
	.byte W07
	.byte 23 @ VOL
	.byte W08
	.byte 22 @ VOL
	.byte W07
	.byte 20 @ VOL
	.byte W08
	.byte 18 @ VOL
	.byte W08
	.byte 17 @ VOL
	.byte W07
	.byte 15 @ VOL
	.byte W08
	.byte 14 @ VOL
	.byte W14
	.byte 28 @ VOL
	.byte N24, Dn2, v036
	.byte N96, Bn2 @ v036
	.byte N96, En3 @ v036
	.byte N96, Gs3 @ v036
	.byte W36
	.byte N48, Dn2 @ v036
	.byte W23
	.byte VOL, 29
	.byte W06
	.byte 31 @ VOL
	.byte W06
	.byte 33 @ VOL
	.byte W07
	.byte 34 @ VOL
	.byte W06
	.byte 36 @ VOL
	.byte W06
	.byte 37 @ VOL
	.byte W06
	.byte N24 @ Dn2, v036
	.byte N96, An2 @ v036
	.byte N96, Dn3 @ v036
	.byte N96, Fs3 @ v036
	.byte W05
	.byte VOL, 36
	.byte W07
	.byte 34 @ VOL
	.byte W06
	.byte 33 @ VOL
	.byte W07
	.byte 31 @ VOL
	.byte W07
	.byte 29 @ VOL
	.byte W04
	.byte N48, Dn2 @ v036
	.byte W03
	.byte VOL, 28
	.byte W07
	.byte 26 @ VOL
	.byte W07
	.byte 25 @ VOL
	.byte W07
	.byte 23 @ VOL
	.byte W06
	.byte 22 @ VOL
	.byte W07
	.byte 20 @ VOL
	.byte W07
	.byte 18 @ VOL
	.byte W03
	.byte 17 @ VOL
	.byte W04
	.byte 18 @ VOL
	.byte W05
	.byte 20 @ VOL
	.byte W04
	.byte N24 @ Dn2, v036
	.byte N84, Gn2 @ v036
	.byte N84, Cn3 @ v036
	.byte N84, En3 @ v036
	.byte W01
	.byte VOL, 22
	.byte W05
	.byte 23 @ VOL
	.byte W05
	.byte 25 @ VOL
	.byte W05
	.byte 26 @ VOL
	.byte W05
	.byte 28 @ VOL
	.byte W05
	.byte 29 @ VOL
	.byte W05
	.byte 31 @ VOL
	.byte W05
	.byte 33 @ VOL
	.byte N48, Dn2 @ v036
	.byte W05
	.byte VOL, 34
	.byte W05
	.byte 36 @ VOL
	.byte W05
	.byte 37 @ VOL
	.byte W05
	.byte 39 @ VOL
	.byte W04
	.byte 40 @ VOL
	.byte W02
	.byte 39 @ VOL
	.byte W02
	.byte 37 @ VOL
	.byte W02
	.byte 36 @ VOL
	.byte W02
	.byte 34 @ VOL
	.byte W03
	.byte 31 @ VOL
	.byte W02
	.byte 29 @ VOL
	.byte W02
	.byte 28 @ VOL
	.byte W02
	.byte 26 @ VOL
	.byte W02
	.byte 25 @ VOL
	.byte W02
	.byte 23 @ VOL
	.byte W02
	.byte 22 @ VOL
	.byte W13
	.byte 18 @ VOL
	.byte N24 @ Dn2, v036
	.byte N96, An2 @ v036
	.byte N96, Dn3 @ v036
	.byte N96, Fs3 @ v036
	.byte W14
	.byte VOL, 20
	.byte W06
	.byte 22 @ VOL
	.byte W07
	.byte 23 @ VOL
	.byte W07
	.byte 25 @ VOL
	.byte W02
	.byte N48, Dn2 @ v036
	.byte W05
	.byte VOL, 26
	.byte W07
	.byte 28 @ VOL
	.byte W07
	.byte 29 @ VOL
	.byte W07
	.byte 31 @ VOL
	.byte W07
	.byte 33 @ VOL
	.byte W07
	.byte 34 @ VOL
	.byte W06
	.byte 36 @ VOL
	.byte W07
	.byte 37 @ VOL
	.byte W07
	.byte 39 @ VOL
	.byte N96, Bn2 @ v036
	.byte N96, En3 @ v036
	.byte N96, Gs3 @ v036
	.byte W07
	.byte VOL, 37
	.byte W07
	.byte 36 @ VOL
	.byte W08
	.byte 34 @ VOL
	.byte W07
	.byte 33 @ VOL
	.byte W07
	.byte 31 @ VOL
	.byte W08
	.byte 29 @ VOL
	.byte W07
	.byte 28 @ VOL
	.byte W07
	.byte 26 @ VOL
	.byte W07
	.byte 25 @ VOL
	.byte W08
	.byte 23 @ VOL
	.byte W07
	.byte 22 @ VOL
	.byte W07
	.byte 20 @ VOL
	.byte W08
	.byte 18 @ VOL
	.byte W01
	.byte 15 @ VOL
	.byte N96, An2 @ v036
	.byte N96, Dn3 @ v036
	.byte N96, Fs3 @ v036
	.byte W08
	.byte VOL, 17
	.byte W09
	.byte 18 @ VOL
	.byte W08
	.byte 20 @ VOL
	.byte W09
	.byte 22 @ VOL
	.byte W09
	.byte 23 @ VOL
	.byte W08
	.byte 25 @ VOL
	.byte W09
	.byte 26 @ VOL
	.byte W08
	.byte 28 @ VOL
	.byte W09
	.byte 29 @ VOL
	.byte W09
	.byte 31 @ VOL
	.byte W08
	.byte 33 @ VOL
	.byte W02
	.byte 31 @ VOL
	.byte N84, Gs2 @ v036
	.byte N84, Bn2 @ v036
	.byte N84, En3 @ v036
	.byte W13
	.byte VOL, 29
	.byte W16
	.byte 28 @ VOL
	.byte W16
	.byte 26 @ VOL
	.byte W16
	.byte 25 @ VOL
	.byte W17
	.byte 23 @ VOL
	.byte W16
	.byte 22 @ VOL
	.byte W02
	.byte N24, Dn2 @ v036
	.byte N96, An2 @ v036
	.byte N96, Dn3 @ v036
	.byte N96, Fs3 @ v036
	.byte W06
	.byte VOL, 23
	.byte W02
	.byte 25 @ VOL
	.byte W03
	.byte 28 @ VOL
	.byte W03
	.byte 30 @ VOL
	.byte W02
	.byte 33 @ VOL
	.byte W02
	.byte 34 @ VOL
	.byte W02
	.byte 36 @ VOL
	.byte W01
	.byte 37 @ VOL
	.byte W03
	.byte 36 @ VOL
	.byte W06
	.byte 34 @ VOL
	.byte W06
	.byte N48, Dn2 @ v036
	.byte W01
	.byte VOL, 33
	.byte W07
	.byte 31 @ VOL
	.byte W06
	.byte 29 @ VOL
	.byte W07
	.byte 28 @ VOL
	.byte W07
	.byte 26 @ VOL
	.byte W07
	.byte 25 @ VOL
	.byte W06
	.byte 23 @ VOL
	.byte W07
	.byte 22 @ VOL
	.byte W07
	.byte 20 @ VOL
	.byte W05
	.byte 19 @ VOL
	.byte N96, Bn2 @ v036
	.byte N96, Gs3 @ v036
	.byte W01
	.byte VOL, 18
	.byte W05
	.byte 20 @ VOL
	.byte W06
	.byte 22 @ VOL
	.byte W07
	.byte 23 @ VOL
	.byte W07
	.byte 25 @ VOL
	.byte W07
	.byte 26 @ VOL
	.byte W07
	.byte 28 @ VOL
	.byte W06
	.byte 29 @ VOL
	.byte W07
	.byte 31 @ VOL
	.byte W07
	.byte 33 @ VOL
	.byte W07
	.byte 34 @ VOL
	.byte W06
	.byte 36 @ VOL
	.byte W07
	.byte 37 @ VOL
	.byte W07
	.byte 39 @ VOL
	.byte W07
	.byte 40 @ VOL
	.byte W02
	.byte N96, An2 @ v036
	.byte N96, Fs3 @ v036
	.byte W04
	.byte VOL, 39
	.byte W07
	.byte 37 @ VOL
	.byte W06
	.byte 36 @ VOL
	.byte W07
	.byte 34 @ VOL
	.byte W06
	.byte 33 @ VOL
	.byte W06
	.byte 31 @ VOL
	.byte W07
	.byte 29 @ VOL
	.byte W06
	.byte 28 @ VOL
	.byte W07
	.byte 26 @ VOL
	.byte W06
	.byte 25 @ VOL
	.byte W07
	.byte 23 @ VOL
	.byte W06
	.byte 22 @ VOL
	.byte W07
	.byte 20 @ VOL
	.byte W06
	.byte 18 @ VOL
	.byte W06
	.byte 17 @ VOL
	.byte W02
	.byte N84, Gs2 @ v036
	.byte N84, En3 @ v036
	.byte W01
	.byte VOL, 15
	.byte W07
	.byte 17 @ VOL
	.byte W06
	.byte 18 @ VOL
	.byte W07
	.byte 20 @ VOL
	.byte W06
	.byte 22 @ VOL
	.byte W06
	.byte 23 @ VOL
	.byte W07
	.byte 25 @ VOL
	.byte W06
	.byte 26 @ VOL
	.byte W07
	.byte 28 @ VOL
	.byte W06
	.byte 29 @ VOL
	.byte W07
	.byte 31 @ VOL
	.byte W06
	.byte 33 @ VOL
	.byte W07
	.byte 34 @ VOL
	.byte W06
	.byte 36 @ VOL
	.byte W07
	.byte 37 @ VOL
	.byte W04
	.byte W96
	.byte W96
	.byte W96
	.byte VOICE, 8
	.byte VOL, 31
	.byte W24
	.byte N30, En3, v072, 69
	.byte N30, Dn4 @ v072
	.byte W48
	.byte N12, Bn2 @ v072
	.byte N12, En3 @ v072
	.byte N12, An3 @ v072
	.byte W24
	.byte An2 @ N12, v072
	.byte N12, Dn3 @ v072
	.byte N12, Gn3 @ v072
	.byte W24
	.byte N30, Dn3 @ v072
	.byte N30, Gn3 @ v072
	.byte W48
	.byte N04, An2 @ v072
	.byte N04, Dn3 @ v072
	.byte N04, Gn3 @ v072
	.byte W08
	.byte An2 @ N04, v072
	.byte N04, Dn3 @ v072
	.byte N05, Gn3 @ v072
	.byte W08
	.byte N04, En3 @ v072
	.byte N05, An3 @ v072
	.byte W08
	.byte N30, Cn3 @ v072
	.byte N30, Fn3 @ v072
	.byte N30, As3 @ v072
	.byte W48
	.byte Gn2 @ N30, v072
	.byte N30, Cn3 @ v072
	.byte W48
	.byte N12, Fn2 @ v072
	.byte N12, As2 @ v072
	.byte W24
	.byte N30, Cn3 @ v072
	.byte N30, Fn3 @ v072
	.byte N30, As3 @ v072
	.byte W48
	.byte N12, Cn3 @ v072
	.byte N12, Fn3 @ v072
	.byte N12, As3 @ v072
	.byte W24
	.byte N88, Bn2 @ v072
	.byte N88, En3 @ v072
	.byte N88, An3 @ v072
	.byte W96
	.byte N80, Cn3 @ v072
	.byte N80, Fn3 @ v072
	.byte N80, As3 @ v072
	.byte W96
	.byte Cs3 @ N80, v072
	.byte N80, Fs3 @ v072
	.byte N80, Bn3 @ v072
	.byte W96
	.byte N56, Dn3 @ v072
	.byte N56, Gn3 @ v072
	.byte N56, Cn4 @ v072
	.byte W72
	.byte N06, Dn3, v092, 67
	.byte N06, Cn4 @ v092
	.byte W08
	.byte Dn3 @ N06, v092
	.byte N06, Gn3 @ v092
	.byte N06, Cn4 @ v092
	.byte W08
	.byte N07, Dn3, v100, 67
	.byte N07, Cn4 @ v100
	.byte W08
	.byte An3, v088 @ N07
	.byte W24
	.byte Dn3 @ N07, v088
	.byte W24
	.byte N32, Ds3 @ v088
	.byte W32
	.byte N08, Gs3 @ v088
	.byte W08
	.byte As3 @ N08, v088
	.byte W08
	.byte An3 @ N08, v088
	.byte W08
	.byte Dn3, v076 @ N08
	.byte W08
	.byte An3 @ N08, v076
	.byte W08
	.byte Gn3 @ N08, v076
	.byte W08
	.byte Ds3 @ N08, v076
	.byte W08
	.byte As2 @ N08, v076
	.byte W08
	.byte Ds3, v072 @ N08
	.byte W08
	.byte Gn3 @ N08, v072
	.byte W08
	.byte As3 @ N08, v072
	.byte W08
	.byte Ds4 @ N08, v072
	.byte W08
	.byte Gn4 @ N08, v072
	.byte W08
	.byte As4, v076 @ N08
	.byte W08
	.byte N07, Cn5, v088
	.byte W24
	.byte Fn3 @ N07, v088
	.byte W24
	.byte N32, Fs3 @ v088
	.byte W32
	.byte N08, Bn3 @ v088
	.byte W08
	.byte Cs4 @ N08, v088
	.byte W08
	.byte Cn4 @ N08, v088
	.byte W08
	.byte Fn3, v076 @ N08
	.byte W08
	.byte Cn4 @ N08, v076
	.byte W08
	.byte N24, Dn4, v100
	.byte W40
	.byte N06 @ Dn4, v100
	.byte W08
	.byte N08, Gn4, v072
	.byte W08
	.byte Bn4 @ N08, v072
	.byte W08
	.byte Dn5, v076 @ N08
	.byte W08
	.byte N48, An4, v080
	.byte W60
	.byte N06, An4, v088
	.byte W12
	.byte N08, An4, v104
	.byte W08
	.byte Dn4 @ N08, v104
	.byte W08
	.byte An4, v116 @ N08
	.byte W08
	.byte N72, Bn4, v076
	.byte W96
	.byte N44, Cn5, v068
	.byte W48
	.byte N12, Cn5, v088
	.byte W24
	.byte N08, Cn5, v092
	.byte W08
	.byte Fn4 @ N08, v092
	.byte W08
	.byte Cn5, v108 @ N08
	.byte W08
	.byte N44, Dn5, v076
	.byte W48
	.byte N08 @ Dn5, v076
	.byte W24
	.byte VOICE, 3
	.byte N06 @ Dn5, v076
	.byte W08
	.byte Dn5, v068 @ N06
	.byte W08
	.byte Dn5, v072 @ N06
	.byte W08
	.byte VOICE, 17
	.byte VOL, 77
	.byte W06
	.byte N96, Dn1 @ v072
	.byte W90
	.byte W48
	.byte W96
	.byte W96
	.byte W96
track_85_lbl_26b8b8:
	.byte VOICE, 3
	.byte VOL, 4
	.byte TIE, Fn3, v060
	.byte W11
	.byte VOL, 6
	.byte W10
	.byte 7 @ VOL
	.byte W10
	.byte 9 @ VOL
	.byte W10
	.byte 11 @ VOL
	.byte W10
	.byte 12 @ VOL
	.byte W10
	.byte 14 @ VOL
	.byte W12
	.byte 15 @ VOL
	.byte W08
	.byte 17 @ VOL
	.byte W15
	.byte W96
	.byte EOT @ Fn3, v060
track_85_lbl_26b8d3:
	.byte N24, Bn3, v044
	.byte W24
	.byte TIE, As3, v060
	.byte W72
	.byte PEND
	.byte W84
	.byte EOT @ As3, v060
	.byte W12
track_85_lbl_26b8df:
	.byte N24, Gs3, v060
	.byte W24
	.byte TIE, An3, v052
	.byte W72
	.byte PEND
	.byte W96
	.byte EOT @ An3, v052
track_85_lbl_26b8ea:
	.byte N24, Cn4, v060
	.byte W24
	.byte TIE, Bn3, v052
	.byte W72
	.byte PEND
	.byte W84
	.byte EOT @ Bn3, v052
	.byte W12
	.byte TIE, Fn3, v060
	.byte W96
	.byte W96
	.byte EOT @ Fn3, v060
	.byte PATT
		.word track_85_lbl_26b8d3
	.byte W84
	.byte EOT @ Fn3, v060
	.byte W12
	.byte PATT
		.word track_85_lbl_26b8df
	.byte W96
	.byte EOT @ Fn3, v060
	.byte PATT
		.word track_85_lbl_26b8ea
	.byte W24
	.byte VOL, 15
	.byte W06
	.byte 14 @ VOL
	.byte W09
	.byte 12 @ VOL
	.byte W10
	.byte 11 @ VOL
	.byte W09
	.byte 9 @ VOL
	.byte W09
	.byte 7 @ VOL
	.byte W09
	.byte 6 @ VOL
	.byte W08
	.byte EOT @ Fn3, v060
	.byte W12
	.byte W96
	.byte W96
	.byte GOTO
		.word track_85_lbl_26b8b8
	.byte FINE

track_85_3:
	.byte KEYSH, 0
	.byte W24
	.byte VOICE, 5
	.byte VOL, 31
	.byte PAN, c_v-6
	.byte N10, Cn3, v112
	.byte W96
	.byte W96
	.byte W96
	.byte N08, As3, v072
	.byte W24
	.byte Ds3, v060 @ N08
	.byte W24
	.byte N32, Fn3, v048
	.byte W32
	.byte N08, Gs2, v076
	.byte W08
	.byte N07, Dn3, v084
	.byte W08
	.byte N08, Ds3, v068
	.byte W16
	.byte N04, Gs3, v080
	.byte W08
	.byte N24, Gs3, v084
	.byte W36
	.byte N07, Gs3, v096
	.byte W12
	.byte N08, Gs3, v088
	.byte W08
	.byte As3, v108 @ N08
	.byte W08
	.byte Cn4, v116 @ N08
	.byte W08
	.byte N72, As3, v096
	.byte W56
	.byte VOL, 33
	.byte W03
	.byte 34 @ VOL
	.byte W02
	.byte 36 @ VOL
	.byte W02
	.byte 37 @ VOL
	.byte W02
	.byte 39 @ VOL
	.byte W03
	.byte 40 @ VOL
	.byte W02
	.byte 42 @ VOL
	.byte W02
	.byte 44 @ VOL
	.byte W24
	.byte VOICE, 11
	.byte VOL, 78
	.byte N48, Dn2, v112
	.byte W48
	.byte Cs2 @ N48, v112
	.byte W48
	.byte N96, Cn2 @ v112
	.byte W96
	.byte N48, Bn1 @ v112
	.byte W48
	.byte As1 @ N48, v112
	.byte W48
	.byte An1 @ N48, v112
	.byte W48
	.byte Gs1 @ N48, v112
	.byte W48
	.byte N96, Gn1 @ v112
	.byte W96
	.byte Fs1 @ N96, v112
	.byte W96
	.byte VOL, 50
	.byte TIE, Gn1 @ v112
	.byte W96
	.byte W30
	.byte W01
	.byte VOL, 48
	.byte W03
	.byte 50 @ VOL
	.byte W04
	.byte 51 @ VOL
	.byte W04
	.byte 53 @ VOL
	.byte W04
	.byte 55 @ VOL
	.byte W03
	.byte 56 @ VOL
	.byte W04
	.byte 58 @ VOL
	.byte W04
	.byte 59 @ VOL
	.byte W04
	.byte 61 @ VOL
	.byte W03
	.byte 62 @ VOL
	.byte W04
	.byte 64 @ VOL
	.byte W04
	.byte EOT @ Gn1, v112
	.byte VOL, 66
	.byte W04
	.byte 67 @ VOL
	.byte W03
	.byte 69 @ VOL
	.byte W04
	.byte 70 @ VOL
	.byte W04
	.byte 72 @ VOL
	.byte W04
	.byte 74 @ VOL
	.byte W03
	.byte 75 @ VOL
	.byte W02
	.byte VOICE, 5
	.byte VOL, 31
	.byte N10, Cn3, v120
	.byte W96
	.byte W96
	.byte VOL, 47
	.byte N08, As3, v068
	.byte W24
	.byte As2, v088, 63 @ N08
	.byte W24
	.byte N24, Dn3, v056
	.byte N32, Fn3 @ v056
	.byte W32
	.byte N08, Cn3, v068
	.byte W08
	.byte Dn3, v072 @ N08
	.byte W08
	.byte Ds3, v088 @ N08
	.byte W16
	.byte N04, Cn3, v048, 68
	.byte Gs3 @ N04, v048
	.byte W08
	.byte N24, Cn3, v048, 68
	.byte Gs3 @ N24, v048
	.byte W36
	.byte N06, Cn3, v064, 68
	.byte Cn5 @ N06, v064
	.byte W12
	.byte N08, Gs3, v092
	.byte W08
	.byte As3 @ N08, v092
	.byte W08
	.byte Cn4, v096 @ N08
	.byte W08
	.byte N48, Gn3, v036, 74
	.byte Cn2 @ N48, v036
	.byte W48
	.byte N44, Cs4 @ v036
	.byte W48
	.byte N48, Bn3 @ v036
	.byte W48
	.byte Cs4 @ N48, v036
	.byte W48
	.byte Dn4 @ N48, v036
	.byte W48
	.byte En4 @ N48, v036
	.byte W48
	.byte W96
	.byte W96
	.byte W96
	.byte W96
	.byte W96
	.byte VOICE, 8
	.byte VOL, 31
	.byte N96, Dn4, v044
	.byte W96
	.byte W96
	.byte W96
	.byte W96
	.byte W96
	.byte W96
	.byte W96
	.byte W96
	.byte W96
	.byte W96
	.byte W96
	.byte W96
	.byte W96
	.byte W96
	.byte W96
	.byte W96
	.byte W96
	.byte W96
	.byte W96
	.byte W96
	.byte W96
	.byte W96
	.byte W96
	.byte W96
	.byte W96
	.byte W96
	.byte W96
	.byte W96
	.byte W96
	.byte W96
	.byte W96
	.byte W96
	.byte W96
	.byte W96
	.byte W96
	.byte VOICE, 5
	.byte VOL, 31
	.byte N48, An3, v052
	.byte W48
	.byte Gs3 @ N48, v052
	.byte W48
	.byte An3 @ N48, v052
	.byte W48
	.byte As3 @ N48, v052
	.byte W48
	.byte Cn4 @ N48, v052
	.byte W48
	.byte Bn3 @ N48, v052
	.byte W48
	.byte N12, Cn4 @ v052
	.byte W24
	.byte N32, Bn3 @ v052
	.byte W72
	.byte W96
	.byte W96
	.byte W96
	.byte N44, Bn4, v044
	.byte W48
	.byte N08, Bn4, v072
	.byte W24
	.byte N06 @ Bn4, v072
	.byte W08
	.byte Bn4, v064 @ N06
	.byte W08
	.byte Bn4, v068 @ N06
	.byte W08
	.byte W30
	.byte VOICE, 19
	.byte VOL, 11
	.byte W06
	.byte 12 @ VOL
	.byte TIE, Dn5, v040
	.byte W05
	.byte VOL, 14
	.byte W12
	.byte 15 @ VOL
	.byte W04
	.byte 17 @ VOL
	.byte W05
	.byte 18 @ VOL
	.byte W04
	.byte 20 @ VOL
	.byte W04
	.byte 22 @ VOL
	.byte W06
	.byte 23 @ VOL
	.byte W04
	.byte 25 @ VOL
	.byte W03
	.byte 26 @ VOL
	.byte W03
	.byte 28 @ VOL
	.byte W03
	.byte 29 @ VOL
	.byte W05
	.byte 31 @ VOL
	.byte W02
	.byte W01
	.byte 33 @ VOL
	.byte W02
	.byte 34 @ VOL
	.byte W02
	.byte 36 @ VOL
	.byte W03
	.byte 37 @ VOL
	.byte W04
	.byte 39 @ VOL
	.byte W02
	.byte 40 @ VOL
	.byte W02
	.byte 42 @ VOL
	.byte W02
	.byte 44 @ VOL
	.byte W01
	.byte 45 @ VOL
	.byte W04
	.byte 47 @ VOL
	.byte W01
	.byte 48 @ VOL
	.byte W02
	.byte 50 @ VOL
	.byte W01
	.byte 51 @ VOL
	.byte W02
	.byte 53 @ VOL
	.byte W02
	.byte 55 @ VOL
	.byte W02
	.byte 56 @ VOL
	.byte W01
	.byte 58 @ VOL
	.byte W01
	.byte 59 @ VOL
	.byte W01
	.byte 61 @ VOL
	.byte W03
	.byte 62 @ VOL
	.byte W01
	.byte 64 @ VOL
	.byte W01
	.byte 66 @ VOL
	.byte W01
	.byte 67 @ VOL
	.byte W01
	.byte 69 @ VOL
	.byte W02
	.byte 70 @ VOL
	.byte W01
	.byte 72 @ VOL
	.byte W01
	.byte 74 @ VOL
	.byte W01
	.byte W05
	.byte 81 @ VOL
	.byte W66
	.byte W01
	.byte EOT @ Dn5, v040
	.byte W24
	.byte VOL, 31
	.byte TIE, Fn3 @ v040
	.byte W96
	.byte W02
	.byte VOL, 29
	.byte W08
	.byte 28 @ VOL
	.byte W08
	.byte 26 @ VOL
	.byte W07
	.byte 25 @ VOL
	.byte W08
	.byte 23 @ VOL
	.byte W07
	.byte 22 @ VOL
	.byte W08
	.byte 20 @ VOL
	.byte W08
	.byte 18 @ VOL
	.byte W07
	.byte 17 @ VOL
	.byte W08
	.byte 15 @ VOL
	.byte W08
	.byte 14 @ VOL
	.byte W07
	.byte 12 @ VOL
	.byte W08
	.byte 11 @ VOL
	.byte W02
	.byte EOT @ Fn3, v040
track_85_lbl_26baf1:
	.byte VOICE, 3
	.byte VOL, 0
	.byte TIE, Dn3, v060
	.byte W04
	.byte VOL, 1
	.byte W08
	.byte 3 @ VOL
	.byte W08
	.byte 4 @ VOL
	.byte W08
	.byte 6 @ VOL
	.byte W08
	.byte 7 @ VOL
	.byte W08
	.byte 9 @ VOL
	.byte W09
	.byte 11 @ VOL
	.byte W08
	.byte 12 @ VOL
	.byte W08
	.byte 14 @ VOL
	.byte W08
	.byte 15 @ VOL
	.byte W19
	.byte W96
	.byte W96
	.byte W84
	.byte EOT @ Dn3, v060
	.byte W12
	.byte TIE @ Dn3, v060
	.byte W96
	.byte W96
	.byte W96
	.byte W84
	.byte EOT @ Dn3, v060
	.byte W12
	.byte TIE @ Dn3, v060
	.byte W96
	.byte W96
	.byte W96
	.byte W84
	.byte EOT @ Dn3, v060
	.byte W12
	.byte TIE @ Dn3, v060
	.byte W96
	.byte W96
	.byte W96
	.byte W32
	.byte W03
	.byte VOL, 12
	.byte W09
	.byte 11 @ VOL
	.byte W08
	.byte 9 @ VOL
	.byte W09
	.byte 7 @ VOL
	.byte W08
	.byte 6 @ VOL
	.byte W08
	.byte 4 @ VOL
	.byte W07
	.byte EOT @ Dn3, v060
	.byte W12
	.byte W96
	.byte W96
	.byte GOTO
		.word track_85_lbl_26baf1
	.byte FINE

track_85_4:
	.byte KEYSH, 0
	.byte W24
	.byte VOICE, 11
	.byte VOL, 78
	.byte PAN, c_v-10
	.byte W96
	.byte W96
	.byte W72
	.byte N16, Cn1, v100, 48
	.byte W16
	.byte N06, Dn1 @ v100
	.byte N06, Dn2 @ v100
	.byte W08
	.byte N12, Ds1, v112
	.byte W96
	.byte W96
	.byte W24
	.byte VOICE, 11
	.byte VOL, 31
	.byte N06, Ds3, v080
	.byte W06
	.byte Fn3, v072 @ N06
	.byte W06
	.byte Gn3 @ N06, v072
	.byte W06
	.byte Gs3 @ N06, v072
	.byte W06
	.byte As3, v076 @ N06
	.byte W06
	.byte Cn4 @ N06, v076
	.byte W06
	.byte Dn4, v080 @ N06
	.byte W06
	.byte Ds4, v084 @ N06
	.byte W06
	.byte Fn4, v088 @ N06
	.byte W06
	.byte Gn4, v092 @ N06
	.byte W06
	.byte Gs4 @ N06, v092
	.byte W06
	.byte As4 @ N06, v092
	.byte W06
	.byte VOL, 31
	.byte N72, Dn5, v088
	.byte W28
	.byte VOL, 29
	.byte W07
	.byte 28 @ VOL
	.byte W07
	.byte 26 @ VOL
	.byte W06
	.byte 25 @ VOL
	.byte W07
	.byte 23 @ VOL
	.byte W07
	.byte 22 @ VOL
	.byte W07
	.byte 20 @ VOL
	.byte W07
	.byte 18 @ VOL
	.byte W06
	.byte 17 @ VOL
	.byte W07
	.byte 15 @ VOL
	.byte W07
	.byte W96
	.byte W96
	.byte W96
	.byte W96
	.byte W96
	.byte W96
	.byte W96
	.byte VOICE, 11
	.byte VOL, 78
	.byte W96
	.byte W96
	.byte VOICE, 11
	.byte VOL, 44
	.byte N48, Ds2, v100
	.byte W48
	.byte N48 @ Ds2, v100
	.byte W48
	.byte N48 @ Ds2, v100
	.byte W48
	.byte N48 @ Ds2, v100
	.byte W48
	.byte W96
	.byte W96
	.byte VOICE, 8
	.byte VOL, 31
	.byte W96
	.byte N10, As1, v112
	.byte W16
	.byte N10 @ As1, v112
	.byte W80
	.byte W36
	.byte VOL, 78
	.byte N06, Dn1, v092
	.byte W06
	.byte N06 @ Dn1, v092
	.byte W06
	.byte N08 @ Dn1, v092
	.byte W12
	.byte N12 @ Dn1, v092
	.byte W36
	.byte W36
	.byte N06 @ Dn1, v092
	.byte W06
	.byte N06 @ Dn1, v092
	.byte W06
	.byte N08 @ Dn1, v092
	.byte W12
	.byte N12 @ Dn1, v092
	.byte W36
	.byte N08 @ Dn1, v092
	.byte W36
	.byte N06, Dn1, v080
	.byte W06
	.byte Dn1, v092 @ N06
	.byte W06
	.byte N08 @ Dn1, v092
	.byte W12
	.byte Dn1, v072 @ N08
	.byte W24
	.byte Dn1, v080 @ N08
	.byte W12
	.byte W12
	.byte Dn1, v100 @ N08
	.byte W24
	.byte N08 @ Dn1, v100
	.byte W24
	.byte Dn1, v080 @ N08
	.byte W24
	.byte N08 @ Dn1, v080
	.byte W12
	.byte N96 @ Dn1, v080
	.byte W96
	.byte W96
	.byte W96
	.byte W96
	.byte W96
	.byte W96
	.byte W96
	.byte W96
	.byte VOICE, 8
	.byte VOL, 31
	.byte N24, Cn2, v092
	.byte W36
	.byte N52 @ Cn2, v092
	.byte W60
	.byte N24 @ Cn2, v092
	.byte W36
	.byte N52 @ Cn2, v092
	.byte W60
	.byte N24 @ Cn2, v092
	.byte W36
	.byte N72 @ Cn2, v092
	.byte W60
	.byte W24
	.byte VOICE, 9
	.byte VOL, 78
	.byte N20, Cn1, v096
	.byte W24
	.byte N10 @ Cn1, v096
	.byte W16
	.byte N10 @ Cn1, v096
	.byte W16
	.byte N10 @ Cn1, v096
	.byte W16
	.byte N24, Dn1, v084
	.byte W36
	.byte N48 @ Dn1, v084
	.byte W60
	.byte W96
	.byte W96
	.byte W96
	.byte W84
	.byte N12, An1, v076
	.byte W12
	.byte N30, Dn1, v100
	.byte W36
	.byte N48, Dn1, v092
	.byte W60
	.byte N30 @ Dn1, v092
	.byte W36
	.byte N48, Dn1, v088
	.byte W60
track_85_lbl_26bc39:
	.byte N30, Dn1, v088
	.byte W36
	.byte N48, Dn1, v084
	.byte W60
	.byte PEND
	.byte PATT
		.word track_85_lbl_26bc39
	.byte N30, Dn1, v092
	.byte W36
	.byte N48, Dn1, v084
	.byte W60
	.byte N30, Dn1, v080
	.byte W36
	.byte N48, Dn1, v076
	.byte W60
track_85_lbl_26bc57:
	.byte N30, Dn1, v076
	.byte W36
	.byte N48, Dn1, v072
	.byte W60
	.byte PEND
	.byte PATT
		.word track_85_lbl_26bc57
	.byte W96
	.byte W96
	.byte W96
	.byte W96
	.byte W96
	.byte W96
	.byte W96
	.byte W96
	.byte W96
	.byte W96
	.byte VOICE, 6
	.byte VOL, 31
	.byte N48, Dn3, v064
	.byte W48
	.byte Ds3 @ N48, v064
	.byte W48
	.byte Dn3 @ N48, v064
	.byte W48
	.byte Ds3 @ N48, v064
	.byte W48
	.byte Fn3 @ N48, v064
	.byte W48
	.byte Fs3 @ N48, v064
	.byte W48
	.byte N12, Fn3 @ v064
	.byte W96
	.byte N48, Dn4, v072, 77
	.byte Gs2 @ N48, v072
	.byte W96
	.byte N72, Dn4, v064, 80
	.byte Gs1 @ N72, v064
	.byte W96
	.byte N44, Fn4, v072, 81
	.byte Gs1 @ N44, v072
	.byte W96
	.byte Gn4, v064 @ N44
	.byte W48
	.byte N08, Gn4, v068
	.byte W24
	.byte N06, Gn4, v088
	.byte W08
	.byte Gn4, v076 @ N06
	.byte W08
	.byte Gn4, v068 @ N06
	.byte W08
	.byte W30
	.byte VOICE, 19
	.byte VOL, 11
	.byte W06
	.byte 12 @ VOL
	.byte TIE, Dn3, v052
	.byte W05
	.byte VOL, 14
	.byte W07
	.byte 14 @ VOL
	.byte W05
	.byte 15 @ VOL
	.byte W04
	.byte 17 @ VOL
	.byte W05
	.byte 18 @ VOL
	.byte W04
	.byte 20 @ VOL
	.byte W04
	.byte 22 @ VOL
	.byte W03
	.byte 22 @ VOL
	.byte W03
	.byte 23 @ VOL
	.byte W04
	.byte 25 @ VOL
	.byte W03
	.byte 26 @ VOL
	.byte W03
	.byte 28 @ VOL
	.byte W03
	.byte 29 @ VOL
	.byte W02
	.byte 30 @ VOL
	.byte W03
	.byte 31 @ VOL
	.byte W02
	.byte W01
	.byte 33 @ VOL
	.byte W02
	.byte 34 @ VOL
	.byte W02
	.byte 36 @ VOL
	.byte W03
	.byte 37 @ VOL
	.byte W02
	.byte 38 @ VOL
	.byte W02
	.byte 39 @ VOL
	.byte W02
	.byte 40 @ VOL
	.byte W02
	.byte 42 @ VOL
	.byte W02
	.byte 44 @ VOL
	.byte W01
	.byte 45 @ VOL
	.byte W02
	.byte 46 @ VOL
	.byte W02
	.byte 47 @ VOL
	.byte W01
	.byte 48 @ VOL
	.byte W02
	.byte 50 @ VOL
	.byte W01
	.byte 51 @ VOL
	.byte W02
	.byte 53 @ VOL
	.byte W01
	.byte 54 @ VOL
	.byte W01
	.byte 55 @ VOL
	.byte W02
	.byte 56 @ VOL
	.byte W01
	.byte 58 @ VOL
	.byte W01
	.byte 59 @ VOL
	.byte W01
	.byte 61 @ VOL
	.byte W02
	.byte 62 @ VOL
	.byte W01
	.byte 62 @ VOL
	.byte W01
	.byte 64 @ VOL
	.byte W01
	.byte 66 @ VOL
	.byte W01
	.byte 67 @ VOL
	.byte W01
	.byte 69 @ VOL
	.byte W01
	.byte 70 @ VOL
	.byte W01
	.byte 70 @ VOL
	.byte W01
	.byte 72 @ VOL
	.byte W01
	.byte 74 @ VOL
	.byte W01
	.byte 75 @ VOL
	.byte W01
	.byte 77 @ VOL
	.byte W01
	.byte 77 @ VOL
	.byte W01
	.byte 78 @ VOL
	.byte W01
	.byte 80 @ VOL
	.byte W01
	.byte 81 @ VOL
	.byte W03
	.byte 80 @ VOL
	.byte W02
	.byte 78 @ VOL
	.byte W03
	.byte 77 @ VOL
	.byte W02
	.byte 75 @ VOL
	.byte W02
	.byte 74 @ VOL
	.byte W02
	.byte 72 @ VOL
	.byte W02
	.byte 70 @ VOL
	.byte W03
	.byte 69 @ VOL
	.byte W02
	.byte 67 @ VOL
	.byte W02
	.byte 66 @ VOL
	.byte W02
	.byte 64 @ VOL
	.byte W03
	.byte 62 @ VOL
	.byte W02
	.byte 61 @ VOL
	.byte W02
	.byte 59 @ VOL
	.byte W02
	.byte 58 @ VOL
	.byte W02
	.byte 56 @ VOL
	.byte W03
	.byte 55 @ VOL
	.byte W04
	.byte EOT @ Dn3, v052
	.byte W48
	.byte VOL, 31
	.byte TIE, Dn3, v040
	.byte W96
	.byte W02
	.byte VOL, 29
	.byte W08
	.byte 28 @ VOL
	.byte W08
	.byte 26 @ VOL
	.byte W07
	.byte 25 @ VOL
	.byte W08
	.byte 23 @ VOL
	.byte W07
	.byte 22 @ VOL
	.byte W08
	.byte 20 @ VOL
	.byte W08
	.byte 18 @ VOL
	.byte W07
	.byte 17 @ VOL
	.byte W08
	.byte 15 @ VOL
	.byte W08
	.byte 14 @ VOL
	.byte W07
	.byte 12 @ VOL
	.byte W08
	.byte 11 @ VOL
	.byte W02
	.byte EOT @ Dn3, v040
track_85_lbl_26bd65:
	.byte VOICE, 3
	.byte VOL, 15
	.byte W96
track_85_lbl_26bd6a:
	.byte VOICE, 6
	.byte VOL, 31
	.byte N96, Cs3, v056
	.byte W96
	.byte PEND
	.byte Cn3 @ N96, v056
	.byte W96
	.byte Bn2 @ N96, v056
	.byte W96
	.byte W96
	.byte Cs3 @ N96, v056
	.byte W96
	.byte Cn3 @ N96, v056
	.byte W96
	.byte N84, Bn2 @ v056
	.byte W96
	.byte VOICE, 3
	.byte VOL, 15
	.byte W96
	.byte PATT
		.word track_85_lbl_26bd6a
	.byte N96, Cn3, v056
	.byte W96
	.byte Bn2 @ N96, v056
	.byte W96
	.byte W96
	.byte Cs3 @ N96, v056
	.byte W96
	.byte Cn3 @ N96, v056
	.byte W96
	.byte N84, Bn2 @ v056
	.byte W23
	.byte VOL, 30
	.byte W01
	.byte 30 @ VOL
	.byte W01
	.byte 29 @ VOL
	.byte W01
	.byte 29 @ VOL
	.byte W01
	.byte 29 @ VOL
	.byte W01
	.byte 29 @ VOL
	.byte W01
	.byte 28 @ VOL
	.byte W01
	.byte 28 @ VOL
	.byte W01
	.byte 27 @ VOL
	.byte W01
	.byte 27 @ VOL
	.byte W01
	.byte 26 @ VOL
	.byte W01
	.byte 26 @ VOL
	.byte W01
	.byte 25 @ VOL
	.byte W01
	.byte 25 @ VOL
	.byte W01
	.byte 25 @ VOL
	.byte W01
	.byte 25 @ VOL
	.byte W01
	.byte 25 @ VOL
	.byte W01
	.byte 24 @ VOL
	.byte W01
	.byte 24 @ VOL
	.byte W01
	.byte 23 @ VOL
	.byte W01
	.byte 23 @ VOL
	.byte W01
	.byte 22 @ VOL
	.byte W01
	.byte 22 @ VOL
	.byte W01
	.byte 22 @ VOL
	.byte W01
	.byte 22 @ VOL
	.byte W01
	.byte 21 @ VOL
	.byte W01
	.byte 21 @ VOL
	.byte W01
	.byte 20 @ VOL
	.byte W01
	.byte 20 @ VOL
	.byte W01
	.byte 20 @ VOL
	.byte W01
	.byte 19 @ VOL
	.byte W01
	.byte 19 @ VOL
	.byte W01
	.byte 18 @ VOL
	.byte W01
	.byte 18 @ VOL
	.byte W01
	.byte 18 @ VOL
	.byte W01
	.byte 18 @ VOL
	.byte W01
	.byte 17 @ VOL
	.byte W01
	.byte 17 @ VOL
	.byte W01
	.byte 16 @ VOL
	.byte W01
	.byte 16 @ VOL
	.byte W01
	.byte 15 @ VOL
	.byte W01
	.byte 15 @ VOL
	.byte W01
	.byte 14 @ VOL
	.byte W01
	.byte 14 @ VOL
	.byte W01
	.byte 14 @ VOL
	.byte W01
	.byte 14 @ VOL
	.byte W01
	.byte 14 @ VOL
	.byte W01
	.byte 13 @ VOL
	.byte W01
	.byte 13 @ VOL
	.byte W01
	.byte 12 @ VOL
	.byte W01
	.byte 12 @ VOL
	.byte W01
	.byte 11 @ VOL
	.byte W01
	.byte 11 @ VOL
	.byte W01
	.byte 11 @ VOL
	.byte W01
	.byte 11 @ VOL
	.byte W01
	.byte 10 @ VOL
	.byte W01
	.byte 10 @ VOL
	.byte W01
	.byte 10 @ VOL
	.byte W01
	.byte 9 @ VOL
	.byte W01
	.byte 9 @ VOL
	.byte W01
	.byte 8 @ VOL
	.byte W13
	.byte W96
	.byte W96
	.byte GOTO
		.word track_85_lbl_26bd65
	.byte FINE

track_85_5:
	.byte KEYSH, 0
	.byte W24
	.byte VOICE, 0
	.byte VOL, 78
	.byte PAN, c_v
	.byte W96
	.byte W96
	.byte W96
	.byte W96
	.byte W96
	.byte W96
	.byte W96
	.byte W96
	.byte W96
	.byte W96
	.byte W96
	.byte W96
	.byte W96
	.byte W96
	.byte VOICE, 0
	.byte VOL, 78
	.byte W96
	.byte W96
	.byte W96
	.byte W96
	.byte W96
	.byte W96
	.byte W96
	.byte W96
	.byte W96
	.byte W96
	.byte W96
	.byte W96
	.byte W96
	.byte W96
	.byte W96
	.byte W96
	.byte W96
	.byte W96
	.byte W96
	.byte W96
	.byte W96
	.byte W96
	.byte W96
	.byte W96
	.byte W96
	.byte W96
	.byte W96
	.byte W96
	.byte W96
	.byte W96
	.byte W96
	.byte W96
	.byte W96
	.byte W96
	.byte W96
	.byte W96
	.byte W96
	.byte W96
	.byte W96
	.byte W96
	.byte W96
	.byte W96
	.byte W96
	.byte W96
	.byte W96
	.byte W96
	.byte W96
	.byte VOICE, 7
	.byte VOL, 78
	.byte TIE, Dn2, v040
	.byte W96
	.byte W92
	.byte W02
	.byte EOT @ Dn2, v040
	.byte W02
	.byte TIE, Dn1, v080
	.byte W96
	.byte W92
	.byte W02
	.byte EOT @ Dn1, v080
	.byte W02
	.byte VOICE, 13
	.byte N92 @ Dn1, v080
	.byte W96
	.byte Dn1, v100 @ N92
	.byte W96
	.byte Dn1, v096 @ N92
	.byte W36
	.byte W03
	.byte VOL, 77
	.byte W03
	.byte 75 @ VOL
	.byte W03
	.byte 74 @ VOL
	.byte W03
	.byte 72 @ VOL
	.byte W03
	.byte 70 @ VOL
	.byte W02
	.byte 69 @ VOL
	.byte W03
	.byte 67 @ VOL
	.byte W03
	.byte 66 @ VOL
	.byte W03
	.byte 64 @ VOL
	.byte W03
	.byte 62 @ VOL
	.byte W03
	.byte 61 @ VOL
	.byte W03
	.byte 59 @ VOL
	.byte W03
	.byte 58 @ VOL
	.byte W03
	.byte 56 @ VOL
	.byte W03
	.byte 55 @ VOL
	.byte W03
	.byte 53 @ VOL
	.byte W03
	.byte 51 @ VOL
	.byte W10
	.byte 78 @ VOL
	.byte N48, Dn1, v088
	.byte W72
	.byte N06, Dn1, v100
	.byte W08
	.byte N06 @ Dn1, v100
	.byte W08
	.byte N06 @ Dn1, v100
	.byte W08
	.byte W96
	.byte W48
	.byte W96
	.byte W96
	.byte W96
track_85_lbl_26beb8:
	.byte W96
	.byte W96
	.byte W96
	.byte W96
	.byte W96
	.byte W96
	.byte W96
	.byte W96
	.byte W96
	.byte W96
	.byte W96
	.byte W96
	.byte W96
	.byte W96
	.byte W96
	.byte W96
	.byte W96
	.byte W96
	.byte GOTO
		.word track_85_lbl_26beb8
	.byte FINE

.align 2

track_85:
	.byte 6
	.byte 85
	.byte 130
	.byte 128
	.word 0x80a6718
	.word track_85_0
	.word track_85_1
	.word track_85_2
	.word track_85_3
	.word track_85_4
	.word track_85_5

.align 2
