.align 2

.global track_278

track_278_0:
	.byte KEYSH, 0
	.byte TEMPO, 75
	.byte VOICE, 36
	.byte VOL, 22
	.byte PAN, c_v
track_278_lbl_27f21e:
	.byte N32, An2, v064
	.byte W32
	.byte W01
	.byte N44, An2, v127
	.byte W44
	.byte W03
	.byte An2, v064 @ N44
	.byte W16
	.byte W30
	.byte Gn2, v127 @ N44
	.byte W44
	.byte W02
	.byte En2, v064 @ N44
	.byte W20
	.byte W24
	.byte W02
	.byte N12, An2, v080
	.byte W12
	.byte GOTO
		.word track_278_lbl_27f21e
	.byte W01
	.byte FINE

track_278_1:
	.byte KEYSH, 0
	.byte VOICE, 34
	.byte VOL, 22
	.byte PAN, c_v
track_278_lbl_27f248:
	.byte N24, Cn2, v064
	.byte W01
	.byte VOL, 17
	.byte W03
	.byte 14 @ VOL
	.byte W02
	.byte 10 @ VOL
	.byte W03
	.byte 14 @ VOL
	.byte W02
	.byte 19 @ VOL
	.byte W01
	.byte 21 @ VOL
	.byte W03
	.byte 18 @ VOL
	.byte W02
	.byte 15 @ VOL
	.byte W02
	.byte 11 @ VOL
	.byte W02
	.byte 9 @ VOL
	.byte W03
	.byte 17 @ VOL
	.byte W03
	.byte VOICE, 35
	.byte VOL, 22
	.byte N02, An3, v020
	.byte W02
	.byte N03, En3, v052
	.byte W03
	.byte N04, An2, v080
	.byte W04
	.byte N03, An2, v040
	.byte W03
	.byte VOICE, 34
	.byte VOL, 22
	.byte N32, Cn2, v064
	.byte W02
	.byte VOL, 22
	.byte W02
	.byte 23 @ VOL
	.byte W01
	.byte 23 @ VOL
	.byte W03
	.byte 22 @ VOL
	.byte W02
	.byte 22 @ VOL
	.byte W02
	.byte 21 @ VOL
	.byte W02
	.byte 20 @ VOL
	.byte W02
	.byte 19 @ VOL
	.byte W02
	.byte 18 @ VOL
	.byte W02
	.byte 17 @ VOL
	.byte W02
	.byte 15 @ VOL
	.byte W03
	.byte 14 @ VOL
	.byte W02
	.byte 15 @ VOL
	.byte W03
	.byte 17 @ VOL
	.byte W03
	.byte 19 @ VOL
	.byte W02
	.byte VOICE, 35
	.byte VOL, 22
	.byte N03, An3, v080
	.byte W04
	.byte N04, An2 @ v080
	.byte W04
	.byte VOICE, 34
	.byte VOL, 22
	.byte N36, Cn2, v064
	.byte W02
	.byte VOL, 15
	.byte W02
	.byte 10 @ VOL
	.byte W02
	.byte 5 @ VOL
	.byte W02
	.byte 14 @ VOL
	.byte W01
	.byte 16 @ VOL
	.byte W02
	.byte 15 @ VOL
	.byte W02
	.byte 14 @ VOL
	.byte W01
	.byte W02
	.byte 13 @ VOL
	.byte W02
	.byte 12 @ VOL
	.byte W02
	.byte 11 @ VOL
	.byte W01
	.byte 11 @ VOL
	.byte W02
	.byte 22 @ VOL
	.byte W01
	.byte 23 @ VOL
	.byte W02
	.byte 21 @ VOL
	.byte W02
	.byte 19 @ VOL
	.byte W02
	.byte 17 @ VOL
	.byte W01
	.byte 16 @ VOL
	.byte W03
	.byte 18 @ VOL
	.byte W01
	.byte 19 @ VOL
	.byte W02
	.byte VOICE, 35
	.byte VOL, 22
	.byte N02, Bn2, v080
	.byte W02
	.byte N03, En3, v040
	.byte W03
	.byte N04, Bn3, v060
	.byte W04
	.byte VOICE, 34
	.byte VOL, 22
	.byte N32, Cn2, v064
	.byte W02
	.byte VOL, 21
	.byte W02
	.byte 21 @ VOL
	.byte W02
	.byte 21 @ VOL
	.byte W01
	.byte 21 @ VOL
	.byte W02
	.byte 20 @ VOL
	.byte W03
	.byte 20 @ VOL
	.byte W02
	.byte 19 @ VOL
	.byte W01
	.byte 19 @ VOL
	.byte W02
	.byte 18 @ VOL
	.byte W02
	.byte 17 @ VOL
	.byte W02
	.byte 16 @ VOL
	.byte W02
	.byte 14 @ VOL
	.byte W02
	.byte 13 @ VOL
	.byte W02
	.byte 12 @ VOL
	.byte W03
	.byte 9 @ VOL
	.byte W02
	.byte 6 @ VOL
	.byte W01
	.byte 5 @ VOL
	.byte W02
	.byte VOICE, 35
	.byte VOL, 22
	.byte N02, Bn3, v020
	.byte W03
	.byte N03, Fn3, v052
	.byte W04
	.byte N04, An2, v080
	.byte W04
	.byte VOICE, 34
	.byte VOL, 22
	.byte N42, Cn2, v064
	.byte W02
	.byte VOL, 23
	.byte W02
	.byte 24 @ VOL
	.byte W01
	.byte 25 @ VOL
	.byte W02
	.byte 17 @ VOL
	.byte W02
	.byte 9 @ VOL
	.byte W01
	.byte 6 @ VOL
	.byte W03
	.byte 11 @ VOL
	.byte W02
	.byte 16 @ VOL
	.byte W02
	.byte 21 @ VOL
	.byte W01
	.byte W01
	.byte 17 @ VOL
	.byte W03
	.byte 14 @ VOL
	.byte W02
	.byte 10 @ VOL
	.byte W02
	.byte 12 @ VOL
	.byte W01
	.byte 14 @ VOL
	.byte W02
	.byte 12 @ VOL
	.byte W02
	.byte 12 @ VOL
	.byte W02
	.byte 23 @ VOL
	.byte W01
	.byte 27 @ VOL
	.byte W02
	.byte 25 @ VOL
	.byte W02
	.byte 24 @ VOL
	.byte W01
	.byte 24 @ VOL
	.byte W03
	.byte VOICE, 35
	.byte VOL, 22
	.byte N04, Bn2, v072
	.byte W05
	.byte Gs3, v080 @ N04
	.byte W04
	.byte VOICE, 34
	.byte VOL, 22
	.byte N04, Cn2, v064
	.byte W05
	.byte GOTO
		.word track_278_lbl_27f248
	.byte W01
	.byte FINE

.align 2

track_278:
	.byte 2
	.byte 0
	.byte 190
	.byte 0
	.word 0x80a71ec
	.word track_278_0
	.word track_278_1

.align 2
