.align 2

.global track_66

track_66_0:
	.byte KEYSH, 0
	.byte TEMPO, 66
	.byte VOICE, 67
	.byte MOD, 24
	.byte VOL, 127
	.byte PAN, c_v-1
	.byte BENDR, 12
	.byte LFOS, 120
	.byte PRIO, 110
	.byte BEND, c_v
	.byte N84, Bn1, v048, 53
	.byte Cn3 @ N84, v048
	.byte W24
	.byte BEND, c_v
	.byte W01
	.byte c_v+1 @ BEND
	.byte W01
	.byte c_v+2 @ BEND
	.byte W01
	.byte c_v+3 @ BEND
	.byte W01
	.byte c_v+5 @ BEND
	.byte W01
	.byte c_v+6 @ BEND
	.byte W01
	.byte c_v+7 @ BEND
	.byte W01
	.byte c_v+9 @ BEND
	.byte W01
	.byte c_v+10 @ BEND
	.byte W01
	.byte c_v+11 @ BEND
	.byte W01
	.byte c_v+13 @ BEND
	.byte W01
	.byte c_v+14 @ BEND
	.byte W01
	.byte c_v+15 @ BEND
	.byte W01
	.byte c_v+16 @ BEND
	.byte W01
	.byte c_v+18 @ BEND
	.byte W01
	.byte c_v+19 @ BEND
	.byte W01
	.byte c_v+20 @ BEND
	.byte W01
	.byte c_v+22 @ BEND
	.byte W01
	.byte c_v+23 @ BEND
	.byte W01
	.byte c_v+24 @ BEND
	.byte W01
	.byte c_v+26 @ BEND
	.byte W01
	.byte c_v+27 @ BEND
	.byte W01
	.byte c_v+28 @ BEND
	.byte W01
	.byte c_v+29 @ BEND
	.byte W01
	.byte VOL, 127
	.byte BEND, c_v+31
	.byte W01
	.byte c_v+32 @ BEND
	.byte W01
	.byte c_v+33 @ BEND
	.byte W01
	.byte c_v+35 @ BEND
	.byte W01
	.byte c_v+36 @ BEND
	.byte W01
	.byte c_v+37 @ BEND
	.byte W01
	.byte VOL, 111
	.byte BEND, c_v+39
	.byte W01
	.byte c_v+40 @ BEND
	.byte W01
	.byte c_v+41 @ BEND
	.byte W01
	.byte c_v+42 @ BEND
	.byte W01
	.byte c_v+44 @ BEND
	.byte W01
	.byte c_v+45 @ BEND
	.byte W01
	.byte VOL, 95
	.byte BEND, c_v+46
	.byte W01
	.byte c_v+48 @ BEND
	.byte W01
	.byte c_v+49 @ BEND
	.byte W01
	.byte c_v+50 @ BEND
	.byte W01
	.byte c_v+52 @ BEND
	.byte W01
	.byte c_v+53 @ BEND
	.byte W01
	.byte VOL, 79
	.byte BEND, c_v+54
	.byte W01
	.byte c_v+55 @ BEND
	.byte W01
	.byte c_v+57 @ BEND
	.byte W01
	.byte c_v+58 @ BEND
	.byte W01
	.byte c_v+59 @ BEND
	.byte W01
	.byte c_v+61 @ BEND
	.byte W13
	.byte TEMPO, 93
	.byte VOICE, 12
	.byte VOL, 127
	.byte BENDR, 2
	.byte PRIO, 110
	.byte W60
	.byte W60
track_66_lbl_273f63:
	.byte W60
	.byte W60
	.byte MOD, 0
	.byte PAN, c_v-1
	.byte BEND, c_v
	.byte TIE, Gn1, v112
	.byte W04
	.byte BEND, c_v+32
	.byte W04
	.byte c_v @ BEND
	.byte W04
	.byte PAN, c_v-8
	.byte BEND, c_v+32
	.byte W04
	.byte c_v @ BEND
	.byte W04
	.byte c_v+32 @ BEND
	.byte W04
	.byte PAN, c_v-14
	.byte BEND, c_v
	.byte W04
	.byte c_v+32 @ BEND
	.byte W04
	.byte c_v @ BEND
	.byte W04
	.byte PAN, c_v-20
	.byte BEND, c_v+32
	.byte W04
	.byte c_v @ BEND
	.byte W04
	.byte c_v+32 @ BEND
	.byte W04
	.byte PAN, c_v-27
	.byte BEND, c_v
	.byte W04
	.byte c_v+32 @ BEND
	.byte W04
	.byte c_v @ BEND
	.byte W04
track_66_lbl_273f98:
	.byte PAN, c_v-33
	.byte BEND, c_v+32
	.byte W04
	.byte c_v @ BEND
	.byte W04
	.byte c_v+32 @ BEND
	.byte W04
	.byte PAN, c_v-39
	.byte BEND, c_v
	.byte W04
	.byte c_v+32 @ BEND
	.byte W04
	.byte c_v @ BEND
	.byte W04
	.byte PAN, c_v-46
	.byte BEND, c_v+32
	.byte W04
	.byte c_v @ BEND
	.byte W04
	.byte c_v+32 @ BEND
	.byte W04
	.byte PAN, c_v-52
	.byte BEND, c_v
	.byte W04
	.byte c_v+32 @ BEND
	.byte W04
	.byte c_v @ BEND
	.byte W04
	.byte PAN, c_v-58
	.byte BEND, c_v+32
	.byte W04
	.byte c_v @ BEND
	.byte W04
	.byte c_v+32 @ BEND
	.byte W04
	.byte PEND
track_66_lbl_273fc6:
	.byte BEND, c_v
	.byte W04
	.byte c_v+32 @ BEND
	.byte W04
	.byte c_v @ BEND
	.byte W04
	.byte PAN, c_v-58
	.byte BEND, c_v+32
	.byte W04
	.byte c_v @ BEND
	.byte W04
	.byte c_v+32 @ BEND
	.byte W04
	.byte PAN, c_v-52
	.byte BEND, c_v
	.byte W04
	.byte c_v+32 @ BEND
	.byte W04
	.byte c_v @ BEND
	.byte W04
	.byte PAN, c_v-46
	.byte BEND, c_v+32
	.byte W04
	.byte c_v @ BEND
	.byte W04
	.byte c_v+32 @ BEND
	.byte W04
	.byte PAN, c_v-39
	.byte BEND, c_v
	.byte W04
	.byte c_v+32 @ BEND
	.byte W04
	.byte c_v @ BEND
	.byte W04
	.byte PEND
track_66_lbl_273ff2:
	.byte PAN, c_v-33
	.byte BEND, c_v+32
	.byte W04
	.byte c_v @ BEND
	.byte W04
	.byte c_v+32 @ BEND
	.byte W04
	.byte PAN, c_v-27
	.byte BEND, c_v
	.byte W04
	.byte c_v+32 @ BEND
	.byte W04
	.byte c_v @ BEND
	.byte W04
	.byte PAN, c_v-20
	.byte BEND, c_v+32
	.byte W04
	.byte c_v @ BEND
	.byte W04
	.byte c_v+32 @ BEND
	.byte W04
	.byte EOT @ Gn1, v112
	.byte PAN, c_v-14
	.byte W12
	.byte c_v-8 @ PAN
	.byte W12
	.byte PEND
	.byte c_v-1 @ PAN
	.byte W60
	.byte W60
	.byte W60
	.byte W60
track_66_lbl_274019:
	.byte PAN, c_v-1
	.byte BEND, c_v+32
	.byte TIE, Gn1, v112
	.byte W04
	.byte BEND, c_v+32
	.byte W04
	.byte c_v @ BEND
	.byte W04
	.byte PAN, c_v+5
	.byte BEND, c_v+32
	.byte W04
	.byte c_v @ BEND
	.byte W04
	.byte c_v+32 @ BEND
	.byte W04
	.byte PAN, c_v+11
	.byte BEND, c_v
	.byte W04
	.byte c_v+32 @ BEND
	.byte W04
	.byte c_v @ BEND
	.byte W04
	.byte PAN, c_v+18
	.byte BEND, c_v+32
	.byte W04
	.byte c_v @ BEND
	.byte W04
	.byte c_v+32 @ BEND
	.byte W04
	.byte PAN, c_v+24
	.byte BEND, c_v
	.byte W04
	.byte c_v+32 @ BEND
	.byte W04
	.byte c_v @ BEND
	.byte W04
	.byte PEND
track_66_lbl_27404b:
	.byte PAN, c_v+31
	.byte BEND, c_v+32
	.byte W04
	.byte c_v @ BEND
	.byte W04
	.byte c_v+32 @ BEND
	.byte W04
	.byte PAN, c_v+37
	.byte BEND, c_v
	.byte W04
	.byte c_v+32 @ BEND
	.byte W04
	.byte c_v @ BEND
	.byte W04
	.byte PAN, c_v+43
	.byte BEND, c_v+32
	.byte W04
	.byte c_v @ BEND
	.byte W04
	.byte c_v+32 @ BEND
	.byte W04
	.byte PAN, c_v+50
	.byte BEND, c_v
	.byte W04
	.byte c_v+32 @ BEND
	.byte W04
	.byte c_v @ BEND
	.byte W04
	.byte PAN, c_v+56
	.byte BEND, c_v+32
	.byte W04
	.byte c_v @ BEND
	.byte W04
	.byte c_v+32 @ BEND
	.byte W04
	.byte PEND
track_66_lbl_274079:
	.byte BEND, c_v
	.byte W04
	.byte c_v+32 @ BEND
	.byte W04
	.byte c_v @ BEND
	.byte W04
	.byte PAN, c_v+56
	.byte BEND, c_v+32
	.byte W04
	.byte c_v @ BEND
	.byte W04
	.byte c_v+32 @ BEND
	.byte W04
	.byte PAN, c_v+50
	.byte BEND, c_v
	.byte W04
	.byte c_v+32 @ BEND
	.byte W04
	.byte c_v @ BEND
	.byte W04
	.byte PAN, c_v+43
	.byte BEND, c_v+32
	.byte W04
	.byte c_v @ BEND
	.byte W04
	.byte c_v+32 @ BEND
	.byte W04
	.byte PAN, c_v+37
	.byte BEND, c_v
	.byte W04
	.byte c_v+32 @ BEND
	.byte W04
	.byte c_v @ BEND
	.byte W04
	.byte PEND
track_66_lbl_2740a5:
	.byte PAN, c_v+31
	.byte BEND, c_v+32
	.byte W04
	.byte c_v @ BEND
	.byte W04
	.byte c_v+32 @ BEND
	.byte W04
	.byte PAN, c_v+24
	.byte BEND, c_v
	.byte W04
	.byte c_v+32 @ BEND
	.byte W04
	.byte c_v @ BEND
	.byte W04
	.byte PAN, c_v+18
	.byte BEND, c_v+32
	.byte W04
	.byte c_v @ BEND
	.byte W04
	.byte c_v+32 @ BEND
	.byte W04
	.byte EOT @ Gn1, v112
	.byte PAN, c_v+11
	.byte W12
	.byte c_v+5 @ PAN
	.byte W12
	.byte PEND
	.byte c_v-1 @ PAN
	.byte W48
	.byte W48
	.byte W48
	.byte W48
	.byte W48
	.byte W48
	.byte W36
	.byte W36
	.byte W60
	.byte W60
	.byte W60
	.byte W60
	.byte c_v-1 @ PAN
	.byte BEND, c_v+32
	.byte TIE, As1, v112
	.byte W04
	.byte BEND, c_v+32
	.byte W04
	.byte c_v @ BEND
	.byte W04
	.byte PAN, c_v-8
	.byte BEND, c_v+32
	.byte W04
	.byte c_v @ BEND
	.byte W04
	.byte c_v+32 @ BEND
	.byte W04
	.byte PAN, c_v-14
	.byte BEND, c_v
	.byte W04
	.byte c_v+32 @ BEND
	.byte W04
	.byte c_v @ BEND
	.byte W04
	.byte PAN, c_v-20
	.byte BEND, c_v+32
	.byte W04
	.byte c_v @ BEND
	.byte W04
	.byte c_v+32 @ BEND
	.byte W04
	.byte PAN, c_v-27
	.byte BEND, c_v
	.byte W04
	.byte c_v+32 @ BEND
	.byte W04
	.byte c_v @ BEND
	.byte W04
	.byte PATT
		.word track_66_lbl_273f98
	.byte PATT
		.word track_66_lbl_273fc6
	.byte PATT
		.word track_66_lbl_273ff2
	.byte PAN, c_v-1
	.byte W60
	.byte W60
	.byte W60
	.byte W60
	.byte PATT
		.word track_66_lbl_274019
	.byte PATT
		.word track_66_lbl_27404b
	.byte PATT
		.word track_66_lbl_274079
	.byte PATT
		.word track_66_lbl_2740a5
	.byte PAN, c_v-1
	.byte W36
	.byte W36
	.byte W36
	.byte W36
	.byte W36
	.byte W36
	.byte W36
	.byte W36
	.byte W36
	.byte W36
	.byte W36
	.byte W36
	.byte W36
	.byte W36
	.byte W36
	.byte W36
	.byte W48
	.byte W48
	.byte VOICE, 12
	.byte VOL, 127
	.byte PRIO, 110
	.byte W60
	.byte W60
	.byte GOTO
		.word track_66_lbl_273f63
	.byte FINE

track_66_1:
	.byte KEYSH, 0
	.byte VOICE, 42
	.byte VOL, 64
	.byte BENDR, 10
	.byte W01
	.byte VOL, 65
	.byte W01
	.byte 66 @ VOL
	.byte W02
	.byte 67 @ VOL
	.byte W01
	.byte 68 @ VOL
	.byte W01
	.byte 69 @ VOL
	.byte W02
	.byte 70 @ VOL
	.byte W01
	.byte 71 @ VOL
	.byte W01
	.byte 72 @ VOL
	.byte W02
	.byte 73 @ VOL
	.byte BEND, c_v
	.byte N08, An1, v020
	.byte W01
	.byte BEND, c_v+8
	.byte VOL, 74
	.byte W01
	.byte BEND, c_v+17
	.byte VOL, 75
	.byte W01
	.byte BEND, c_v+26
	.byte W01
	.byte VOL, 76
	.byte BEND, c_v+35
	.byte W01
	.byte c_v+44 @ BEND
	.byte VOL, 77
	.byte W01
	.byte BEND, c_v+53
	.byte VOL, 78
	.byte W01
	.byte BEND, c_v+62
	.byte W01
	.byte VOL, 79
	.byte BEND, c_v
	.byte N08, Cn2 @ v020
	.byte W01
	.byte BEND, c_v+8
	.byte VOL, 80
	.byte W01
	.byte BEND, c_v+17
	.byte VOL, 81
	.byte W01
	.byte BEND, c_v+26
	.byte W01
	.byte VOL, 82
	.byte BEND, c_v+35
	.byte W01
	.byte c_v+44 @ BEND
	.byte VOL, 83
	.byte W01
	.byte BEND, c_v+53
	.byte VOL, 84
	.byte W01
	.byte BEND, c_v+62
	.byte W01
	.byte VOL, 85
	.byte BEND, c_v
	.byte N08, Ds2, v024
	.byte W01
	.byte BEND, c_v+8
	.byte VOL, 86
	.byte W01
	.byte BEND, c_v+17
	.byte VOL, 87
	.byte W01
	.byte BEND, c_v+26
	.byte W01
	.byte VOL, 88
	.byte BEND, c_v+35
	.byte W01
	.byte c_v+44 @ BEND
	.byte VOL, 89
	.byte W01
	.byte BEND, c_v+53
	.byte VOL, 90
	.byte W01
	.byte BEND, c_v+62
	.byte W01
	.byte VOL, 91
	.byte BEND, c_v
	.byte N08, Fs2 @ v024
	.byte W01
	.byte BEND, c_v+8
	.byte VOL, 92
	.byte W01
	.byte BEND, c_v+17
	.byte VOL, 93
	.byte W01
	.byte BEND, c_v+26
	.byte W01
	.byte VOL, 94
	.byte BEND, c_v+35
	.byte W01
	.byte c_v+44 @ BEND
	.byte VOL, 95
	.byte W01
	.byte BEND, c_v+53
	.byte VOL, 96
	.byte W01
	.byte BEND, c_v+62
	.byte W01
	.byte VOL, 97
	.byte BEND, c_v
	.byte N08, An2, v028
	.byte W01
	.byte BEND, c_v+8
	.byte VOL, 98
	.byte W01
	.byte BEND, c_v+17
	.byte VOL, 99
	.byte W01
	.byte BEND, c_v+26
	.byte W01
	.byte VOL, 100
	.byte BEND, c_v+35
	.byte W01
	.byte c_v+44 @ BEND
	.byte VOL, 101
	.byte W01
	.byte BEND, c_v+53
	.byte VOL, 102
	.byte W01
	.byte BEND, c_v+62
	.byte W01
	.byte VOL, 103
	.byte BEND, c_v
	.byte N08, Cn3 @ v028
	.byte W01
	.byte BEND, c_v+8
	.byte VOL, 104
	.byte W01
	.byte BEND, c_v+17
	.byte VOL, 105
	.byte W01
	.byte BEND, c_v+26
	.byte W01
	.byte VOL, 106
	.byte BEND, c_v+35
	.byte W01
	.byte c_v+44 @ BEND
	.byte VOL, 107
	.byte W01
	.byte BEND, c_v+53
	.byte VOL, 108
	.byte W01
	.byte BEND, c_v+62
	.byte W01
	.byte VOL, 109
	.byte BEND, c_v
	.byte N06, Ds3, v024
	.byte W01
	.byte BEND, c_v+12
	.byte VOL, 110
	.byte W01
	.byte BEND, c_v+25
	.byte VOL, 111
	.byte W01
	.byte BEND, c_v+37
	.byte W01
	.byte VOL, 112
	.byte BEND, c_v+50
	.byte W01
	.byte c_v+62 @ BEND
	.byte VOL, 113
	.byte W01
	.byte BEND, c_v
	.byte VOL, 114
	.byte N06, Fs3 @ v024
	.byte W01
	.byte BEND, c_v+12
	.byte W01
	.byte VOL, 115
	.byte BEND, c_v+25
	.byte W01
	.byte c_v+37 @ BEND
	.byte VOL, 116
	.byte W01
	.byte BEND, c_v+50
	.byte VOL, 117
	.byte W01
	.byte BEND, c_v+62
	.byte W01
	.byte VOL, 118
	.byte BEND, c_v
	.byte N06, An3, v020
	.byte W01
	.byte BEND, c_v+12
	.byte VOL, 119
	.byte W01
	.byte BEND, c_v+25
	.byte VOL, 120
	.byte W01
	.byte BEND, c_v+37
	.byte W01
	.byte VOL, 121
	.byte BEND, c_v+50
	.byte W01
	.byte c_v+62 @ BEND
	.byte VOL, 122
	.byte W01
	.byte BEND, c_v
	.byte VOL, 123
	.byte N06, Cn4, v012
	.byte W01
	.byte BEND, c_v+12
	.byte W01
	.byte VOL, 124
	.byte BEND, c_v+25
	.byte W01
	.byte c_v+37 @ BEND
	.byte VOL, 125
	.byte W01
	.byte BEND, c_v+50
	.byte VOL, 126
	.byte W01
	.byte BEND, c_v+62
	.byte W01
	.byte VOICE, 9
	.byte VOL, 127
	.byte PRIO, 110
	.byte BEND, c_v
	.byte N36, Cn3, v068
	.byte W60
	.byte W60
track_66_lbl_2742c9:
	.byte W60
	.byte W60
	.byte W60
	.byte W60
	.byte W60
	.byte W36
	.byte N24, As2, v068
	.byte W24
	.byte N36, Cn3 @ v068
	.byte W60
	.byte W60
	.byte W60
	.byte W60
	.byte W60
	.byte W60
	.byte W60
	.byte W36
	.byte N24, As2 @ v068
	.byte W24
	.byte W48
	.byte W48
	.byte W48
	.byte W48
	.byte W48
	.byte W48
	.byte W36
	.byte W36
	.byte N36, Ds3 @ v068
	.byte W60
	.byte W60
	.byte W60
	.byte W60
	.byte W60
	.byte W60
	.byte W60
	.byte W36
	.byte N24, Cs3 @ v068
	.byte W24
	.byte N36, Cn3 @ v068
	.byte W60
	.byte W60
	.byte W60
	.byte W60
	.byte W60
	.byte W60
	.byte W60
	.byte W36
	.byte N24, As2 @ v068
	.byte W24
	.byte W36
	.byte W36
	.byte W36
	.byte W36
	.byte W36
	.byte W36
	.byte W36
	.byte W36
	.byte W36
	.byte W36
	.byte W36
	.byte W36
	.byte W36
	.byte W36
	.byte W36
	.byte W36
	.byte W48
	.byte W48
	.byte VOICE, 9
	.byte VOL, 127
	.byte PRIO, 110
	.byte N36, Cn3 @ v068
	.byte W60
	.byte W60
	.byte GOTO
		.word track_66_lbl_2742c9
	.byte FINE

track_66_2:
	.byte KEYSH, 0
	.byte VOICE, 7
	.byte VOL, 127
	.byte BENDR, 10
	.byte W12
	.byte LFOS, 0
	.byte LFODL, 0
	.byte BEND, c_v
	.byte N08, An1, v024
	.byte W01
	.byte BEND, c_v+8
	.byte W01
	.byte c_v+17 @ BEND
	.byte W01
	.byte c_v+26 @ BEND
	.byte W01
	.byte c_v+35 @ BEND
	.byte W01
	.byte c_v+44 @ BEND
	.byte W01
	.byte c_v+53 @ BEND
	.byte W01
	.byte c_v+62 @ BEND
	.byte W01
	.byte c_v @ BEND
	.byte N08, Cn2 @ v024
	.byte W01
	.byte BEND, c_v+8
	.byte W01
	.byte c_v+17 @ BEND
	.byte W01
	.byte c_v+26 @ BEND
	.byte W01
	.byte c_v+35 @ BEND
	.byte W01
	.byte c_v+44 @ BEND
	.byte W01
	.byte c_v+53 @ BEND
	.byte W01
	.byte c_v+62 @ BEND
	.byte W01
	.byte c_v @ BEND
	.byte N08, Ds2, v032
	.byte W01
	.byte BEND, c_v+8
	.byte W01
	.byte c_v+17 @ BEND
	.byte W01
	.byte c_v+26 @ BEND
	.byte W01
	.byte c_v+35 @ BEND
	.byte W01
	.byte c_v+44 @ BEND
	.byte W01
	.byte c_v+53 @ BEND
	.byte W01
	.byte c_v+62 @ BEND
	.byte W01
	.byte c_v @ BEND
	.byte N08, Fs2 @ v032
	.byte W01
	.byte BEND, c_v+8
	.byte W01
	.byte c_v+17 @ BEND
	.byte W01
	.byte c_v+26 @ BEND
	.byte W01
	.byte c_v+35 @ BEND
	.byte W01
	.byte c_v+44 @ BEND
	.byte W01
	.byte c_v+53 @ BEND
	.byte W01
	.byte c_v+62 @ BEND
	.byte W01
	.byte c_v @ BEND
	.byte N08, An2, v040
	.byte W01
	.byte BEND, c_v+8
	.byte W01
	.byte c_v+17 @ BEND
	.byte W01
	.byte c_v+26 @ BEND
	.byte W01
	.byte c_v+35 @ BEND
	.byte W01
	.byte c_v+44 @ BEND
	.byte W01
	.byte c_v+53 @ BEND
	.byte W01
	.byte c_v+62 @ BEND
	.byte W01
	.byte c_v @ BEND
	.byte N08, Cn3 @ v040
	.byte W01
	.byte BEND, c_v+8
	.byte W01
	.byte c_v+17 @ BEND
	.byte W01
	.byte c_v+26 @ BEND
	.byte W01
	.byte c_v+35 @ BEND
	.byte W01
	.byte c_v+44 @ BEND
	.byte W01
	.byte c_v+53 @ BEND
	.byte W01
	.byte c_v+62 @ BEND
	.byte W01
	.byte c_v @ BEND
	.byte N06, Ds3, v032
	.byte W01
	.byte BEND, c_v+12
	.byte W01
	.byte c_v+25 @ BEND
	.byte W01
	.byte c_v+37 @ BEND
	.byte W01
	.byte c_v+50 @ BEND
	.byte W01
	.byte c_v+62 @ BEND
	.byte W01
	.byte c_v @ BEND
	.byte N06, Fs3 @ v032
	.byte W01
	.byte BEND, c_v+12
	.byte W01
	.byte c_v+25 @ BEND
	.byte W01
	.byte c_v+37 @ BEND
	.byte W01
	.byte c_v+50 @ BEND
	.byte W01
	.byte c_v+62 @ BEND
	.byte W01
	.byte c_v @ BEND
	.byte N06, An3, v024
	.byte W01
	.byte BEND, c_v+12
	.byte W01
	.byte c_v+25 @ BEND
	.byte W01
	.byte c_v+37 @ BEND
	.byte W01
	.byte c_v+50 @ BEND
	.byte W01
	.byte c_v+62 @ BEND
	.byte W01
	.byte c_v @ BEND
	.byte N06, Cn4, v016
	.byte W01
	.byte BEND, c_v+12
	.byte W01
	.byte c_v+25 @ BEND
	.byte W01
	.byte c_v+37 @ BEND
	.byte W01
	.byte c_v+50 @ BEND
	.byte W01
	.byte c_v+62 @ BEND
	.byte W01
	.byte VOICE, 25
	.byte VOL, 127
	.byte PRIO, 110
	.byte W60
	.byte W60
track_66_lbl_2743ee:
	.byte W60
	.byte W60
	.byte W60
	.byte W60
	.byte W60
	.byte W60
	.byte W60
	.byte W60
	.byte W60
	.byte W60
	.byte W60
	.byte W60
	.byte W60
	.byte W60
	.byte MOD, 3
	.byte PAN, c_v-14
	.byte LFOS, 64
	.byte LFODL, 20
	.byte BEND, c_v
	.byte N08, Fs2, v040
	.byte W12
	.byte Cn2 @ N08, v040
	.byte W12
	.byte Ds2 @ N08, v040
	.byte W12
	.byte N60, Gn1 @ v040
	.byte W12
	.byte W48
	.byte N08, Gs1 @ v040
	.byte W12
	.byte As1 @ N08, v040
	.byte W12
	.byte Cn2 @ N08, v040
	.byte W12
	.byte N60, Gn2 @ v040
	.byte W12
	.byte W48
	.byte N08, Fs2 @ v040
	.byte W12
	.byte Dn2 @ N08, v040
	.byte W12
	.byte N72, An2 @ v040
	.byte W24
	.byte W48
	.byte N36, As2 @ v040
	.byte W36
	.byte Bn2 @ N36, v040
	.byte W36
	.byte W60
	.byte W60
	.byte W60
	.byte W60
	.byte W60
	.byte W60
	.byte W60
	.byte W60
	.byte W60
	.byte W60
	.byte W60
	.byte W60
	.byte W60
	.byte W60
	.byte W60
	.byte W60
	.byte N48, As2, v036
	.byte W36
track_66_lbl_27443f:
	.byte W12
	.byte N08, An2, v032
	.byte W08
	.byte As2 @ N08, v032
	.byte W08
	.byte An2 @ N08, v032
	.byte W08
	.byte PEND
track_66_lbl_274449:
	.byte N48, Fs2, v036
	.byte W36
	.byte PEND
track_66_lbl_27444e:
	.byte W12
	.byte N24, An2, v036
	.byte W24
	.byte PEND
	.byte N48, As2 @ v036
	.byte W36
	.byte PATT
		.word track_66_lbl_27443f
	.byte PATT
		.word track_66_lbl_274449
	.byte PATT
		.word track_66_lbl_27444e
	.byte N48, Cs3, v036
	.byte W36
	.byte W12
	.byte N08, Cn3, v032
	.byte W08
	.byte Cs3 @ N08, v032
	.byte W08
	.byte Cn3 @ N08, v032
	.byte W08
	.byte N48, An2, v036
	.byte W36
	.byte W12
	.byte N24, Cn3 @ v036
	.byte W24
	.byte N48, Ds3 @ v036
	.byte W36
	.byte W12
	.byte N08, Dn3, v032
	.byte W08
	.byte Ds3 @ N08, v032
	.byte W08
	.byte Dn3 @ N08, v032
	.byte W08
	.byte N48, Fs3, v036
	.byte W36
	.byte W12
	.byte N08, Fn3, v032
	.byte W08
	.byte Fs3 @ N08, v032
	.byte W08
	.byte Fn3 @ N08, v032
	.byte W08
	.byte N12, Ds3, v036
	.byte W12
	.byte Dn3 @ N12, v036
	.byte W12
	.byte Fs3 @ N12, v036
	.byte W12
	.byte Fn3 @ N12, v036
	.byte W12
	.byte Ds3, v032 @ N12
	.byte W12
	.byte Dn3 @ N12, v032
	.byte W12
	.byte Fs3 @ N12, v032
	.byte W12
	.byte Fn3 @ N12, v032
	.byte W12
	.byte VOICE, 25
	.byte VOL, 127
	.byte PRIO, 110
	.byte W60
	.byte W60
	.byte GOTO
		.word track_66_lbl_2743ee
	.byte FINE

track_66_3:
	.byte KEYSH, 0
	.byte VOICE, 8
	.byte VOL, 127
	.byte BENDR, 10
	.byte W12
	.byte LFOS, 0
	.byte LFODL, 0
	.byte BEND, c_v
	.byte N08, Ds1, v024
	.byte W01
	.byte BEND, c_v+8
	.byte W01
	.byte c_v+17 @ BEND
	.byte W01
	.byte c_v+26 @ BEND
	.byte W01
	.byte c_v+35 @ BEND
	.byte W01
	.byte c_v+44 @ BEND
	.byte W01
	.byte c_v+53 @ BEND
	.byte W01
	.byte c_v+62 @ BEND
	.byte W01
	.byte c_v @ BEND
	.byte N08, Fs1 @ v024
	.byte W01
	.byte BEND, c_v+8
	.byte W01
	.byte c_v+17 @ BEND
	.byte W01
	.byte c_v+26 @ BEND
	.byte W01
	.byte c_v+35 @ BEND
	.byte W01
	.byte c_v+44 @ BEND
	.byte W01
	.byte c_v+53 @ BEND
	.byte W01
	.byte c_v+62 @ BEND
	.byte W01
	.byte c_v @ BEND
	.byte N08, An1, v032
	.byte W01
	.byte BEND, c_v+8
	.byte W01
	.byte c_v+17 @ BEND
	.byte W01
	.byte c_v+26 @ BEND
	.byte W01
	.byte c_v+35 @ BEND
	.byte W01
	.byte c_v+44 @ BEND
	.byte W01
	.byte c_v+53 @ BEND
	.byte W01
	.byte c_v+62 @ BEND
	.byte W01
	.byte c_v @ BEND
	.byte N08, Cn2 @ v032
	.byte W01
	.byte BEND, c_v+8
	.byte W01
	.byte c_v+17 @ BEND
	.byte W01
	.byte c_v+26 @ BEND
	.byte W01
	.byte c_v+35 @ BEND
	.byte W01
	.byte c_v+44 @ BEND
	.byte W01
	.byte c_v+53 @ BEND
	.byte W01
	.byte c_v+62 @ BEND
	.byte W01
	.byte c_v @ BEND
	.byte N08, Ds2, v040
	.byte W01
	.byte BEND, c_v+8
	.byte W01
	.byte c_v+17 @ BEND
	.byte W01
	.byte c_v+26 @ BEND
	.byte W01
	.byte c_v+35 @ BEND
	.byte W01
	.byte c_v+44 @ BEND
	.byte W01
	.byte c_v+53 @ BEND
	.byte W01
	.byte c_v+62 @ BEND
	.byte W01
	.byte c_v @ BEND
	.byte N08, Fs2 @ v040
	.byte W01
	.byte BEND, c_v+8
	.byte W01
	.byte c_v+17 @ BEND
	.byte W01
	.byte c_v+26 @ BEND
	.byte W01
	.byte c_v+35 @ BEND
	.byte W01
	.byte c_v+44 @ BEND
	.byte W01
	.byte c_v+53 @ BEND
	.byte W01
	.byte c_v+62 @ BEND
	.byte W01
	.byte c_v @ BEND
	.byte N06, An2, v032
	.byte W01
	.byte BEND, c_v+12
	.byte W01
	.byte c_v+25 @ BEND
	.byte W01
	.byte c_v+37 @ BEND
	.byte W01
	.byte c_v+50 @ BEND
	.byte W01
	.byte c_v+62 @ BEND
	.byte W01
	.byte c_v @ BEND
	.byte N06, Cn3 @ v032
	.byte W01
	.byte BEND, c_v+12
	.byte W01
	.byte c_v+25 @ BEND
	.byte W01
	.byte c_v+37 @ BEND
	.byte W01
	.byte c_v+50 @ BEND
	.byte W01
	.byte c_v+62 @ BEND
	.byte W01
	.byte c_v @ BEND
	.byte N06, Ds3, v024
	.byte W01
	.byte BEND, c_v+12
	.byte W01
	.byte c_v+25 @ BEND
	.byte W01
	.byte c_v+37 @ BEND
	.byte W01
	.byte c_v+50 @ BEND
	.byte W01
	.byte c_v+62 @ BEND
	.byte W01
	.byte c_v @ BEND
	.byte N06, Fs3, v016
	.byte W01
	.byte BEND, c_v+12
	.byte W01
	.byte c_v+25 @ BEND
	.byte W01
	.byte c_v+37 @ BEND
	.byte W01
	.byte c_v+50 @ BEND
	.byte W01
	.byte c_v+62 @ BEND
	.byte W01
	.byte VOICE, 25
	.byte VOL, 127
	.byte W60
	.byte W60
track_66_lbl_27457d:
	.byte W60
	.byte W60
	.byte W60
	.byte W60
	.byte W60
	.byte W60
	.byte W60
	.byte W60
	.byte W60
	.byte W60
	.byte W60
	.byte W60
	.byte W60
	.byte W60
	.byte W18
	.byte MOD, 3
	.byte LFOS, 64
	.byte LFODL, 20
	.byte BEND, c_v
	.byte N08, Fs2, v020
	.byte W12
	.byte Cn2 @ N08, v020
	.byte W12
	.byte Ds2 @ N08, v020
	.byte W06
	.byte W06
	.byte N60, Gn1 @ v020
	.byte W42
	.byte W18
	.byte N08, Gs1 @ v020
	.byte W12
	.byte As1 @ N08, v020
	.byte W12
	.byte Cn2 @ N08, v020
	.byte W06
	.byte W06
	.byte N60, Gn2 @ v020
	.byte W42
	.byte W18
	.byte N08, Fs2 @ v020
	.byte W12
	.byte Dn2 @ N08, v020
	.byte W12
	.byte N72, An2 @ v020
	.byte W06
	.byte W48
	.byte W18
	.byte N36, As2 @ v020
	.byte W18
	.byte W18
	.byte Bn2 @ N36, v020
	.byte W18
	.byte W60
	.byte W60
	.byte W60
	.byte W60
	.byte W60
	.byte W60
	.byte W60
	.byte W60
	.byte W60
	.byte W60
	.byte W60
	.byte W60
	.byte W60
	.byte W60
	.byte W60
	.byte W60
	.byte W18
	.byte N48, As2 @ v020
	.byte W18
	.byte W30
	.byte N08, An2 @ v020
	.byte W06
track_66_lbl_2745d5:
	.byte W02
	.byte N08, As2, v020
	.byte W08
	.byte An2 @ N08, v020
	.byte W08
	.byte N48, Fs2 @ v020
	.byte W18
	.byte PEND
track_66_lbl_2745e0:
	.byte W30
	.byte N24, An2, v020
	.byte W06
	.byte PEND
	.byte W18
	.byte N48, As2 @ v020
	.byte W18
	.byte W30
	.byte N08, An2 @ v020
	.byte W06
	.byte PATT
		.word track_66_lbl_2745d5
	.byte PATT
		.word track_66_lbl_2745e0
	.byte W18
	.byte N48, Cs3, v020
	.byte W18
	.byte W30
	.byte N08, Cn3 @ v020
	.byte W06
	.byte W02
	.byte Cs3 @ N08, v020
	.byte W08
	.byte Cn3 @ N08, v020
	.byte W08
	.byte N48, An2 @ v020
	.byte W18
	.byte W30
	.byte N24, Cn3 @ v020
	.byte W06
	.byte W18
	.byte N48, Ds3 @ v020
	.byte W18
	.byte W30
	.byte N08, Dn3 @ v020
	.byte W06
	.byte W02
	.byte Ds3 @ N08, v020
	.byte W08
	.byte Dn3 @ N08, v020
	.byte W08
	.byte N48, Fs3 @ v020
	.byte W18
	.byte W30
	.byte N08, Fn3 @ v020
	.byte W06
	.byte W02
	.byte Fs3 @ N08, v020
	.byte W08
	.byte Fn3 @ N08, v020
	.byte W08
	.byte N12, Ds3 @ v020
	.byte W12
	.byte Dn3 @ N12, v020
	.byte W12
	.byte Fs3 @ N12, v020
	.byte W06
	.byte W06
	.byte Fn3 @ N12, v020
	.byte W12
	.byte Ds3 @ N12, v020
	.byte W12
	.byte Dn3 @ N12, v020
	.byte W12
	.byte Fs3 @ N12, v020
	.byte W06
	.byte VOICE, 25
	.byte VOL, 127
	.byte W60
	.byte W60
	.byte GOTO
		.word track_66_lbl_27457d
	.byte FINE

track_66_4:
	.byte KEYSH, 0
	.byte W84
	.byte VOICE, 26
	.byte VOL, 127
	.byte PAN, c_v-1
	.byte PRIO, 110
	.byte N12, Cn3, v068
	.byte W12
	.byte Cn2, v060 @ N12
	.byte W12
	.byte Cn2, v028 @ N12
	.byte W12
	.byte Cn3, v068 @ N12
	.byte W12
	.byte Cn2, v060 @ N12
	.byte W12
track_66_lbl_27465d:
	.byte N12, Cn2, v028
	.byte W12
	.byte Cs3, v068 @ N12
	.byte W12
	.byte Cs2, v060 @ N12
	.byte W12
	.byte As2, v068 @ N12
	.byte W12
	.byte As1, v060 @ N12
	.byte W12
	.byte PEND
track_66_lbl_27466e:
	.byte N12, Cn3, v068
	.byte W12
	.byte Cn2, v060 @ N12
	.byte W12
	.byte Cn2, v028 @ N12
	.byte W12
	.byte Cn3, v068 @ N12
	.byte W12
	.byte Cn2, v060 @ N12
	.byte W12
	.byte PEND
	.byte PATT
		.word track_66_lbl_27465d
	.byte PATT
		.word track_66_lbl_27466e
	.byte PATT
		.word track_66_lbl_27465d
	.byte PATT
		.word track_66_lbl_27466e
	.byte PATT
		.word track_66_lbl_27465d
	.byte PATT
		.word track_66_lbl_27466e
	.byte PATT
		.word track_66_lbl_27465d
	.byte PATT
		.word track_66_lbl_27466e
	.byte PATT
		.word track_66_lbl_27465d
	.byte PATT
		.word track_66_lbl_27466e
	.byte PATT
		.word track_66_lbl_27465d
	.byte PATT
		.word track_66_lbl_27466e
	.byte PATT
		.word track_66_lbl_27465d
	.byte VOICE, 26
	.byte N96, Gn1, v084
	.byte W48
	.byte W48
	.byte Gs1 @ N96, v084
	.byte W48
	.byte W48
	.byte An1 @ N96, v084
	.byte W48
	.byte W48
	.byte N36, As1 @ v084
	.byte W36
	.byte Bn1 @ N36, v084
	.byte W36
track_66_lbl_2746d2:
	.byte N12, Ds3, v068
	.byte W12
	.byte Ds2, v060 @ N12
	.byte W12
	.byte Ds2, v028 @ N12
	.byte W12
	.byte Ds3, v068 @ N12
	.byte W12
	.byte Ds2, v060 @ N12
	.byte W12
	.byte PEND
track_66_lbl_2746e3:
	.byte N12, Ds2, v028
	.byte W12
	.byte En3, v068 @ N12
	.byte W12
	.byte En2, v060 @ N12
	.byte W12
	.byte Cs3, v068 @ N12
	.byte W12
	.byte Cs2, v060 @ N12
	.byte W12
	.byte PEND
	.byte PATT
		.word track_66_lbl_2746d2
	.byte PATT
		.word track_66_lbl_2746e3
	.byte PATT
		.word track_66_lbl_2746d2
	.byte PATT
		.word track_66_lbl_2746e3
	.byte PATT
		.word track_66_lbl_2746d2
	.byte PATT
		.word track_66_lbl_2746e3
	.byte PATT
		.word track_66_lbl_27466e
	.byte PATT
		.word track_66_lbl_27465d
	.byte PATT
		.word track_66_lbl_27466e
	.byte PATT
		.word track_66_lbl_27465d
	.byte PATT
		.word track_66_lbl_27466e
	.byte PATT
		.word track_66_lbl_27465d
	.byte PATT
		.word track_66_lbl_27466e
	.byte PATT
		.word track_66_lbl_27465d
	.byte VOICE, 26
	.byte N72, Ds1, v084
	.byte W36
	.byte W36
	.byte Cn1 @ N72, v084
	.byte W36
	.byte W36
	.byte Ds1 @ N72, v084
	.byte W36
	.byte W36
	.byte Fs1 @ N72, v084
	.byte W36
	.byte W36
	.byte An1 @ N72, v084
	.byte W36
	.byte W36
	.byte Fs1 @ N72, v084
	.byte W36
	.byte W36
	.byte An1 @ N72, v084
	.byte W36
	.byte W36
	.byte Cn2 @ N72, v084
	.byte W36
	.byte W36
	.byte N36, Ds2 @ v084
	.byte W36
	.byte N24, Fs2 @ v084
	.byte W12
	.byte W12
	.byte N36, An2 @ v084
	.byte W36
	.byte VOICE, 26
	.byte VOL, 127
	.byte N12, Cn3, v068
	.byte W12
	.byte Cn2, v060 @ N12
	.byte W12
	.byte Cn2, v028 @ N12
	.byte W12
	.byte Cn3, v068 @ N12
	.byte W12
	.byte Cn2, v060 @ N12
	.byte W12
	.byte PATT
		.word track_66_lbl_27465d
	.byte GOTO
		.word track_66_lbl_27466e
	.byte FINE

track_66_5:
	.byte KEYSH, 0
	.byte W84
	.byte VOICE, 30
	.byte VOL, 127
	.byte PRIO, 0
	.byte N08, Cn3, v068
	.byte W24
	.byte Cn3, v024 @ N08
	.byte W12
	.byte VOICE, 29
	.byte N08, Cn3, v068
	.byte W24
track_66_lbl_274795:
	.byte N08, Cn3, v024
	.byte W12
	.byte Cs3, v068 @ N08
	.byte W24
	.byte As2 @ N08, v068
	.byte W24
	.byte PEND
track_66_lbl_27479f:
	.byte PRIO, 110
	.byte N08, Cn3, v068
	.byte W12
	.byte VOICE, 30
	.byte W12
	.byte N08, Cn3, v024
	.byte W12
	.byte Cn3, v068 @ N08
	.byte W24
	.byte PEND
	.byte PATT
		.word track_66_lbl_274795
track_66_lbl_2747b5:
	.byte PRIO, 0
	.byte N08, Cn3, v068
	.byte W24
	.byte VOICE, 31
	.byte N08, Cn3, v024
	.byte W12
	.byte Cn3, v068 @ N08
	.byte W24
	.byte PEND
	.byte PATT
		.word track_66_lbl_274795
track_66_lbl_2747ca:
	.byte N08, Cn3, v068
	.byte W24
	.byte VOICE, 30
	.byte N08, Cn3, v024
	.byte W12
	.byte Cn3, v068 @ N08
	.byte W24
	.byte PEND
track_66_lbl_2747d8:
	.byte N08, Cn3, v024
	.byte W12
	.byte VOICE, 29
	.byte N08, Cs3, v068
	.byte W24
	.byte VOICE, 28
	.byte N08, As2 @ v068
	.byte W24
	.byte PEND
track_66_lbl_2747e8:
	.byte N08, Cn3, v068
	.byte W24
	.byte Cn3, v024 @ N08
	.byte W12
	.byte VOICE, 29
	.byte N08, Cn3, v068
	.byte W24
	.byte PEND
	.byte PATT
		.word track_66_lbl_274795
	.byte PATT
		.word track_66_lbl_27479f
	.byte PATT
		.word track_66_lbl_274795
	.byte PATT
		.word track_66_lbl_2747b5
	.byte PATT
		.word track_66_lbl_274795
	.byte PATT
		.word track_66_lbl_2747ca
	.byte PATT
		.word track_66_lbl_2747d8
	.byte VOICE, 24
	.byte MOD, 3
	.byte PAN, c_v+13
	.byte LFOS, 64
	.byte LFODL, 20
	.byte PRIO, 110
	.byte N96, Fs3, v056
	.byte W48
	.byte W48
	.byte Gn3 @ N96, v056
	.byte W48
	.byte W48
	.byte Gs3 @ N96, v056
	.byte W48
	.byte W48
	.byte PRIO, 0
	.byte N36, An3 @ v056
	.byte W36
	.byte As3 @ N36, v056
	.byte W36
	.byte PAN, c_v-1
	.byte N08, Ds3, v068
	.byte W24
	.byte Ds3, v024 @ N08
	.byte W12
	.byte VOICE, 29
	.byte N08, Ds3, v068
	.byte W24
track_66_lbl_274846:
	.byte N08, Ds3, v024
	.byte W12
	.byte En3, v068 @ N08
	.byte W24
	.byte Cs3 @ N08, v068
	.byte W24
	.byte PEND
	.byte PRIO, 110
	.byte Ds3 @ N08, v068
	.byte W12
	.byte VOICE, 30
	.byte W12
	.byte N08, Ds3, v024
	.byte W12
	.byte Ds3, v068 @ N08
	.byte W24
	.byte PATT
		.word track_66_lbl_274846
	.byte PRIO, 0
	.byte N08, Ds3, v068
	.byte W24
	.byte VOICE, 31
	.byte N08, Ds3, v024
	.byte W12
	.byte Ds3, v068 @ N08
	.byte W24
	.byte PATT
		.word track_66_lbl_274846
	.byte N08, Ds3, v068
	.byte W24
	.byte VOICE, 30
	.byte N08, Ds3, v024
	.byte W12
	.byte Ds3, v068 @ N08
	.byte W24
	.byte Ds3, v024 @ N08
	.byte W12
	.byte VOICE, 29
	.byte N08, En3, v068
	.byte W24
	.byte VOICE, 28
	.byte N08, Cs3 @ v068
	.byte W24
	.byte PATT
		.word track_66_lbl_2747e8
	.byte PATT
		.word track_66_lbl_274795
	.byte PATT
		.word track_66_lbl_27479f
	.byte PATT
		.word track_66_lbl_274795
	.byte PATT
		.word track_66_lbl_2747b5
	.byte PATT
		.word track_66_lbl_274795
	.byte PATT
		.word track_66_lbl_2747ca
	.byte PATT
		.word track_66_lbl_2747d8
	.byte VOICE, 24
	.byte MOD, 0
	.byte PAN, c_v+13
	.byte LFOS, 0
	.byte LFODL, 0
	.byte PRIO, 110
	.byte N72, Cn3, v056
	.byte W36
	.byte W36
	.byte Ds3 @ N72, v056
	.byte W36
	.byte W36
	.byte Fs3 @ N72, v056
	.byte W36
	.byte W36
	.byte An3 @ N72, v056
	.byte W36
	.byte W36
	.byte N72 @ An3, v056
	.byte W36
	.byte W36
	.byte Fs3 @ N72, v056
	.byte W36
	.byte W36
	.byte An3 @ N72, v056
	.byte W36
	.byte W36
	.byte Cn4 @ N72, v056
	.byte W36
	.byte W36
	.byte MOD, 3
	.byte LFOS, 64
	.byte LFODL, 20
	.byte N36, Ds4 @ v056
	.byte W36
	.byte N24, Fs4 @ v056
	.byte W12
	.byte W12
	.byte N36, An4 @ v056
	.byte W36
	.byte VOICE, 30
	.byte VOL, 127
	.byte PAN, c_v
	.byte PRIO, 0
	.byte N08, Cn3, v068
	.byte W24
	.byte Cn3, v024 @ N08
	.byte W12
	.byte VOICE, 29
	.byte N08, Cn3, v068
	.byte W24
	.byte PATT
		.word track_66_lbl_274795
	.byte GOTO
		.word track_66_lbl_27479f
	.byte FINE

track_66_6:
	.byte KEYSH, 0
	.byte W84
track_66_lbl_274913:
	.byte VOICE, 14
	.byte VOL, 127
	.byte PAN, c_v
	.byte W24
	.byte N18, Gn5, v048
	.byte W36
	.byte PEND
	.byte W60
track_66_lbl_274920:
	.byte W60
	.byte W60
	.byte W60
	.byte W60
	.byte W60
	.byte W60
	.byte PATT
		.word track_66_lbl_274913
	.byte W60
	.byte W60
	.byte W60
	.byte W60
	.byte W60
	.byte W60
	.byte W60
	.byte W48
	.byte W48
	.byte W48
	.byte W48
	.byte W48
	.byte W48
	.byte W36
	.byte W36
	.byte VOICE, 14
	.byte VOL, 127
	.byte PAN, c_v
	.byte W24
	.byte N18, As5, v048
	.byte W36
	.byte W60
	.byte W60
	.byte W60
	.byte W60
	.byte W60
	.byte W60
	.byte W60
	.byte PATT
		.word track_66_lbl_274913
	.byte W60
	.byte W60
	.byte W60
	.byte W60
	.byte W60
	.byte W60
	.byte W60
	.byte W36
	.byte W36
	.byte W36
	.byte W36
	.byte W36
	.byte W36
	.byte W36
	.byte W36
	.byte W36
	.byte W36
	.byte W36
	.byte W36
	.byte W36
	.byte W36
	.byte W36
	.byte W36
	.byte W48
	.byte W48
	.byte PATT
		.word track_66_lbl_274913
	.byte W60
	.byte GOTO
		.word track_66_lbl_274920
	.byte FINE

track_66_7:
	.byte KEYSH, 0
	.byte W84
	.byte VOL, 127
	.byte W24
	.byte N18, Fn3, v040
	.byte W36
	.byte W60
track_66_lbl_274981:
	.byte W60
	.byte W60
	.byte W60
	.byte W60
	.byte W60
	.byte W60
	.byte W24
	.byte N18, Fn3, v040
	.byte W36
	.byte W60
	.byte W60
	.byte W60
	.byte W60
	.byte W60
	.byte W60
	.byte W60
	.byte W48
	.byte W48
	.byte W48
	.byte W48
	.byte W48
	.byte W48
	.byte W36
	.byte W36
	.byte W24
	.byte Gs3 @ N18, v040
	.byte W36
	.byte W60
	.byte W60
	.byte W60
	.byte W60
	.byte W60
	.byte W60
	.byte W60
	.byte W24
	.byte Fn3 @ N18, v040
	.byte W36
	.byte W60
	.byte W60
	.byte W60
	.byte W60
	.byte W60
	.byte W60
	.byte W60
	.byte W36
	.byte W36
	.byte W36
	.byte W36
	.byte W36
	.byte W36
	.byte W36
	.byte W36
	.byte W36
	.byte W36
	.byte W36
	.byte W36
	.byte W36
	.byte W36
	.byte W36
	.byte W36
	.byte W48
	.byte W48
	.byte VOL, 127
	.byte W24
	.byte N18 @ Fn3, v040
	.byte W36
	.byte W60
	.byte GOTO
		.word track_66_lbl_274981
	.byte FINE

track_66_8:
	.byte KEYSH, 0
	.byte W84
track_66_lbl_2749d0:
	.byte VOICE, 19
	.byte VOL, 127
	.byte PRIO, 110
	.byte W36
	.byte N84, Cn3, v036
	.byte W24
	.byte PEND
	.byte W60
track_66_lbl_2749dd:
	.byte W60
	.byte W60
	.byte W60
	.byte W60
	.byte W60
	.byte W60
	.byte W36
	.byte N84, Cn3, v036
	.byte W24
	.byte W60
	.byte W60
	.byte W60
	.byte W60
	.byte W60
	.byte W60
	.byte W60
	.byte PRIO, 0
	.byte N12, Fs2, v016
	.byte W12
	.byte Fs1 @ N12, v016
	.byte W12
	.byte Cn2 @ N12, v016
	.byte W12
	.byte Fs2 @ N12, v016
	.byte W12
	.byte N16, Cn3 @ v016
	.byte W16
	.byte Fs2 @ N16, v016
	.byte W16
	.byte Cn2 @ N16, v016
	.byte W16
	.byte N12, Gn2 @ v016
	.byte W12
	.byte Gn1 @ N12, v016
	.byte W12
	.byte Cs2 @ N12, v016
	.byte W12
	.byte Gn2 @ N12, v016
	.byte W12
	.byte N16, Cs3 @ v016
	.byte W16
	.byte Gn2 @ N16, v016
	.byte W16
	.byte Cs2 @ N16, v016
	.byte W16
	.byte N12, Gs2 @ v016
	.byte W12
	.byte Gs1 @ N12, v016
	.byte W12
	.byte Dn2 @ N12, v016
	.byte W12
	.byte Gs2 @ N12, v016
	.byte W12
	.byte N16, Dn3 @ v016
	.byte W16
	.byte Gs2 @ N16, v016
	.byte W16
	.byte Dn2 @ N16, v016
	.byte W16
	.byte N12, An1 @ v016
	.byte W12
	.byte Ds2 @ N12, v016
	.byte W12
	.byte An2 @ N12, v016
	.byte W12
	.byte N09, As1 @ v016
	.byte W09
	.byte En2 @ N09, v016
	.byte W09
	.byte As2 @ N09, v016
	.byte W09
	.byte En3 @ N09, v016
	.byte W09
	.byte PRIO, 110
	.byte W36
	.byte N84, Ds3, v036
	.byte W24
	.byte W60
	.byte W60
	.byte W60
	.byte W60
	.byte W60
	.byte W60
	.byte W60
	.byte W36
	.byte Cn3 @ N84, v036
	.byte W24
	.byte W60
	.byte W60
	.byte W60
	.byte W60
	.byte W60
	.byte W60
	.byte W60
	.byte PRIO, 0
	.byte N12, Ds1, v016
	.byte W12
	.byte An0 @ N12, v016
	.byte W12
	.byte Cn1 @ N12, v016
	.byte W12
track_66_lbl_274a54:
	.byte N12, Ds1, v016
	.byte W12
	.byte Cn2 @ N12, v016
	.byte W12
	.byte An1 @ N12, v016
	.byte W12
	.byte PEND
track_66_lbl_274a5d:
	.byte N18, An2, v016
	.byte W18
	.byte Ds2 @ N18, v016
	.byte W18
	.byte PEND
track_66_lbl_274a64:
	.byte N18, An1, v016
	.byte W18
	.byte Cn1 @ N18, v016
	.byte W18
	.byte PEND
	.byte N12, Ds1 @ v016
	.byte W12
	.byte An0 @ N12, v016
	.byte W12
	.byte Cn1 @ N12, v016
	.byte W12
	.byte PATT
		.word track_66_lbl_274a54
	.byte PATT
		.word track_66_lbl_274a5d
	.byte PATT
		.word track_66_lbl_274a64
	.byte N12, An1, v016
	.byte W12
	.byte Cn1 @ N12, v016
	.byte W12
	.byte Ds1 @ N12, v016
	.byte W12
	.byte An1 @ N12, v016
	.byte W12
	.byte Ds2 @ N12, v016
	.byte W12
	.byte Cn2 @ N12, v016
	.byte W12
	.byte N18, Cn3 @ v016
	.byte W18
	.byte An2 @ N18, v016
	.byte W18
	.byte Cn2 @ N18, v016
	.byte W18
	.byte Ds1 @ N18, v016
	.byte W18
	.byte N12, Cn2 @ v016
	.byte W12
	.byte Ds1 @ N12, v016
	.byte W12
	.byte An1 @ N12, v016
	.byte W12
	.byte Cn2 @ N12, v016
	.byte W12
	.byte An2 @ N12, v016
	.byte W12
	.byte Ds2 @ N12, v016
	.byte W12
	.byte N18, Ds3 @ v016
	.byte W18
	.byte Cn3 @ N18, v016
	.byte W18
	.byte Ds2 @ N18, v016
	.byte W18
	.byte An1 @ N18, v016
	.byte W18
	.byte PRIO, 0
	.byte N12, An0 @ v016
	.byte W12
	.byte An1 @ N12, v016
	.byte W12
	.byte Cn2 @ N12, v016
	.byte W12
	.byte Ds2 @ N12, v016
	.byte W12
	.byte N08, Cn1 @ v016
	.byte W08
	.byte Cn2 @ N08, v016
	.byte W08
	.byte Ds2 @ N08, v016
	.byte W08
	.byte An2 @ N08, v016
	.byte W08
	.byte Cn3 @ N08, v016
	.byte W08
	.byte Ds3 @ N08, v016
	.byte W08
	.byte PATT
		.word track_66_lbl_2749d0
	.byte W60
	.byte GOTO
		.word track_66_lbl_2749dd
	.byte FINE

track_66_9:
	.byte KEYSH, 0
	.byte W84
track_66_lbl_274ad5:
	.byte VOICE, 0
	.byte VOL, 127
	.byte PRIO, 110
	.byte N12, Cn2, v072
	.byte W24
	.byte Gn2, v028 @ N12
	.byte W12
	.byte Cn2, v072 @ N12
	.byte W24
	.byte PEND
track_66_lbl_274ae6:
	.byte N12, Cn2, v072
	.byte W12
	.byte Gn2, v028 @ N12
	.byte W24
	.byte N12 @ Gn2, v028
	.byte W24
	.byte PEND
track_66_lbl_274af0:
	.byte N12, Cn2, v072
	.byte W24
	.byte Gn2, v028 @ N12
	.byte W12
	.byte Cn2, v072 @ N12
	.byte W24
	.byte PEND
track_66_lbl_274afb:
	.byte N12, Cn2, v072
	.byte W12
	.byte Gn2, v028 @ N12
	.byte W12
	.byte Cn2, v072 @ N12
	.byte W24
	.byte Gn2, v028 @ N12
	.byte W12
	.byte PEND
	.byte PATT
		.word track_66_lbl_274af0
	.byte PATT
		.word track_66_lbl_274ae6
	.byte PATT
		.word track_66_lbl_274af0
track_66_lbl_274b18:
	.byte N12, Cn2, v072
	.byte W12
	.byte Gn2, v028 @ N12
	.byte W12
	.byte Cn2, v072 @ N12
	.byte W12
	.byte N24, Ds2, v044
	.byte W24
	.byte PEND
	.byte PATT
		.word track_66_lbl_274af0
	.byte PATT
		.word track_66_lbl_274ae6
	.byte PATT
		.word track_66_lbl_274af0
	.byte PATT
		.word track_66_lbl_274afb
	.byte PATT
		.word track_66_lbl_274af0
	.byte PATT
		.word track_66_lbl_274ae6
	.byte PATT
		.word track_66_lbl_274af0
	.byte PATT
		.word track_66_lbl_274b18
	.byte W48
	.byte W48
	.byte W48
	.byte W48
	.byte W48
	.byte W48
	.byte N12, Gn2, v028
	.byte W12
	.byte Cn2, v072 @ N12
	.byte W12
	.byte N12 @ Cn2, v072
	.byte W12
	.byte Gn2, v028 @ N12
	.byte W18
	.byte Cn2, v072 @ N12
	.byte W18
	.byte PATT
		.word track_66_lbl_274af0
	.byte PATT
		.word track_66_lbl_274ae6
	.byte PATT
		.word track_66_lbl_274af0
	.byte PATT
		.word track_66_lbl_274afb
	.byte PATT
		.word track_66_lbl_274af0
	.byte PATT
		.word track_66_lbl_274ae6
	.byte PATT
		.word track_66_lbl_274af0
	.byte PATT
		.word track_66_lbl_274b18
	.byte PATT
		.word track_66_lbl_274af0
	.byte PATT
		.word track_66_lbl_274ae6
	.byte PATT
		.word track_66_lbl_274af0
	.byte PATT
		.word track_66_lbl_274afb
	.byte PATT
		.word track_66_lbl_274af0
	.byte PATT
		.word track_66_lbl_274ae6
	.byte PATT
		.word track_66_lbl_274af0
	.byte PATT
		.word track_66_lbl_274b18
	.byte W36
	.byte W36
	.byte W36
	.byte W36
	.byte W36
	.byte W36
	.byte W36
	.byte W36
	.byte W36
	.byte W36
	.byte W36
	.byte W36
	.byte W36
	.byte W36
	.byte W36
	.byte W36
	.byte N12, Gn2, v028
	.byte W16
	.byte Cn2, v072 @ N12
	.byte W20
	.byte Gn2, v028 @ N12
	.byte W12
	.byte W24
	.byte N24, Ds2, v044
	.byte W24
	.byte PATT
		.word track_66_lbl_274ad5
	.byte PATT
		.word track_66_lbl_274ae6
	.byte GOTO
		.word track_66_lbl_274af0
	.byte FINE

.align 2

track_66:
	.byte 10
	.byte 66
	.byte 130
	.byte 128
	.word 0x80a8554
	.word track_66_0
	.word track_66_1
	.word track_66_2
	.word track_66_3
	.word track_66_4
	.word track_66_5
	.word track_66_6
	.word track_66_7
	.word track_66_8
	.word track_66_9

.align 2
