.align 2

.global track_540

track_540_0:
	.byte KEYSH, 0
	.byte TEMPO, 75
	.byte VOICE, 18
	.byte VOL, 121
	.byte PAN, c_v
	.byte BENDR, 10
	.byte PRIO, 1
	.byte BEND, c_v+43
	.byte N72, An2, v100
	.byte W03
	.byte VOL, 120
	.byte BEND, c_v+41
	.byte W03
	.byte VOL, 119
	.byte BEND, c_v+40
	.byte W03
	.byte c_v+37 @ BEND
	.byte W03
	.byte c_v+35 @ BEND
	.byte W03
	.byte VOL, 118
	.byte BEND, c_v+33
	.byte W03
	.byte VOL, 117
	.byte BEND, c_v+30
	.byte W03
	.byte VOL, 116
	.byte BEND, c_v+27
	.byte W03
	.byte VOL, 115
	.byte BEND, c_v+23
	.byte W03
	.byte VOL, 113
	.byte BEND, c_v+19
	.byte W02
	.byte c_v+15 @ BEND
	.byte W01
	.byte VOL, 111
	.byte W02
	.byte BEND, c_v+17
	.byte W01
	.byte VOL, 109
	.byte W02
	.byte BEND, c_v+20
	.byte W01
	.byte VOL, 105
	.byte W02
	.byte BEND, c_v+23
	.byte W01
	.byte VOL, 100
	.byte W02
	.byte BEND, c_v+25
	.byte W01
	.byte VOL, 94
	.byte W02
	.byte BEND, c_v+26
	.byte W01
	.byte VOL, 87
	.byte W02
	.byte BEND, c_v+27
	.byte W01
	.byte VOL, 66
	.byte W02
	.byte BEND, c_v+28
	.byte W01
	.byte VOL, 49
	.byte W02
	.byte BEND, c_v+29
	.byte W01
	.byte VOL, 35
	.byte W03
	.byte 25 @ VOL
	.byte W03
	.byte 19 @ VOL
	.byte W02
	.byte BEND, c_v+28
	.byte W01
	.byte VOL, 13
	.byte W02
	.byte BEND, c_v+27
	.byte W01
	.byte VOL, 7
	.byte W02
	.byte BEND, c_v+25
	.byte W01
	.byte VOL, 3
	.byte W02
	.byte 0 @ VOL
	.byte BEND, c_v+23
	.byte W01
	.byte VOL, 121
	.byte BEND, c_v+43
	.byte VOL, 121
	.byte N72, Cn3 @ v100
	.byte W03
	.byte VOL, 119
	.byte W03
	.byte BEND, c_v+42
	.byte VOL, 117
	.byte W03
	.byte BEND, c_v+41
	.byte VOL, 115
	.byte W03
	.byte 113 @ VOL
	.byte W03
	.byte 111 @ VOL
	.byte W03
	.byte BEND, c_v+40
	.byte VOL, 107
	.byte W03
	.byte BEND, c_v+39
	.byte VOL, 103
	.byte W03
	.byte 99 @ VOL
	.byte W03
	.byte BEND, c_v+37
	.byte VOL, 93
	.byte W03
	.byte 87 @ VOL
	.byte W03
	.byte BEND, c_v+35
	.byte VOL, 78
	.byte W03
	.byte 65 @ VOL
	.byte W03
	.byte BEND, c_v+33
	.byte VOL, 23
	.byte W03
	.byte 9 @ VOL
	.byte W03
	.byte BEND, c_v+31
	.byte VOL, 3
	.byte W02
	.byte 0 @ VOL
	.byte W72
	.byte W01
	.byte FINE

track_540_1:
	.byte KEYSH, 0
	.byte VOICE, 18
	.byte VOL, 121
	.byte PAN, c_v
	.byte BENDR, 10
	.byte PRIO, 1
	.byte BEND, c_v+43
	.byte W24
	.byte N60, An2, v040
	.byte W03
	.byte VOL, 120
	.byte BEND, c_v+41
	.byte W03
	.byte VOL, 119
	.byte BEND, c_v+40
	.byte W03
	.byte c_v+37 @ BEND
	.byte W03
	.byte c_v+35 @ BEND
	.byte W03
	.byte VOL, 118
	.byte BEND, c_v+33
	.byte W03
	.byte VOL, 117
	.byte BEND, c_v+30
	.byte W03
	.byte VOL, 116
	.byte BEND, c_v+27
	.byte W03
	.byte VOL, 115
	.byte BEND, c_v+23
	.byte W03
	.byte VOL, 113
	.byte BEND, c_v+19
	.byte W02
	.byte c_v+15 @ BEND
	.byte W01
	.byte VOL, 111
	.byte W02
	.byte BEND, c_v+17
	.byte W01
	.byte VOL, 109
	.byte W02
	.byte BEND, c_v+20
	.byte W01
	.byte VOL, 105
	.byte W02
	.byte BEND, c_v+23
	.byte W01
	.byte VOL, 100
	.byte W02
	.byte BEND, c_v+25
	.byte W01
	.byte VOL, 94
	.byte W02
	.byte BEND, c_v+26
	.byte VOL, 87
	.byte W03
	.byte BEND, c_v+27
	.byte VOL, 57
	.byte W01
	.byte 53 @ VOL
	.byte W02
	.byte BEND, c_v+28
	.byte W01
	.byte VOL, 37
	.byte W02
	.byte BEND, c_v+29
	.byte W01
	.byte VOL, 25
	.byte W03
	.byte 11 @ VOL
	.byte W03
	.byte 0 @ VOL
	.byte W01
	.byte BEND, c_v+28
	.byte W06
	.byte W01
	.byte c_v+43 @ BEND
	.byte N72, Cn3 @ v040
	.byte W04
	.byte VOL, 77
	.byte W02
	.byte 76 @ VOL
	.byte BEND, c_v+42
	.byte W03
	.byte VOL, 75
	.byte BEND, c_v+41
	.byte W03
	.byte VOL, 74
	.byte W03
	.byte 72 @ VOL
	.byte W03
	.byte 70 @ VOL
	.byte BEND, c_v+40
	.byte W03
	.byte VOL, 68
	.byte BEND, c_v+39
	.byte W03
	.byte VOL, 65
	.byte W03
	.byte 61 @ VOL
	.byte BEND, c_v+37
	.byte W03
	.byte VOL, 57
	.byte W03
	.byte 50 @ VOL
	.byte BEND, c_v+35
	.byte W03
	.byte VOL, 43
	.byte W03
	.byte 35 @ VOL
	.byte BEND, c_v+33
	.byte VOL, 34
	.byte W03
	.byte 20 @ VOL
	.byte W03
	.byte BEND, c_v+31
	.byte VOL, 13
	.byte W03
	.byte 8 @ VOL
	.byte W03
	.byte 5 @ VOL
	.byte W03
	.byte 3 @ VOL
	.byte W03
	.byte 1 @ VOL
	.byte W42
	.byte W01
	.byte FINE

track_540_2:
	.byte KEYSH, 0
	.byte VOICE, 1
	.byte VOL, 120
	.byte PAN, c_v
	.byte N15, Cn3, v127
	.byte W15
	.byte Cn3, v040 @ N15
	.byte W15
	.byte Cn3, v127 @ N15
	.byte W15
	.byte Cn3, v040 @ N15
	.byte W15
	.byte Cn3, v127 @ N15
	.byte W15
	.byte Cn3, v040 @ N15
	.byte W15
	.byte Cn3, v127 @ N15
	.byte W06
	.byte W09
	.byte Cn3, v040 @ N15
	.byte W15
	.byte Cn3, v080 @ N15
	.byte W15
	.byte Cn3, v020 @ N15
	.byte W56
	.byte W01
	.byte FINE

track_540_3:
	.byte KEYSH, 0
	.byte VOICE, 2
	.byte VOL, 120
	.byte PAN, c_v
	.byte PRIO, 1
	.byte N06, Cn3, v100
	.byte W06
	.byte N14, En3, v127
	.byte W14
	.byte N06, Cn3, v100
	.byte W06
	.byte N14, En3, v127
	.byte W14
	.byte N10, Cn3, v040
	.byte W10
	.byte N14, Dn3 @ v040
	.byte W14
	.byte N06, Cn3, v100
	.byte W06
	.byte N14, En3, v127
	.byte W14
	.byte N06, Cn3, v100
	.byte W06
	.byte N14, En3, v127
	.byte W06
	.byte W08
	.byte N10, Cn3, v040
	.byte W10
	.byte N14, Dn3 @ v040
	.byte W14
	.byte N06, Cn3, v080
	.byte W06
	.byte N14, En3, v020
	.byte W56
	.byte W02
	.byte FINE

track_540_4:
	.byte KEYSH, 0
	.byte VOICE, 10
	.byte VOL, 120
	.byte PAN, c_v
	.byte W05
	.byte N09, Fn2, v100
	.byte W09
	.byte VOICE, 11
	.byte W01
	.byte N05, Gs2 @ v100
	.byte W10
	.byte N03, Ds2, v127
	.byte W03
	.byte VOICE, 10
	.byte N09, Fn2 @ v127
	.byte W09
	.byte VOICE, 11
	.byte N05, Gs2, v100
	.byte W05
	.byte N03, Ds2, v127
	.byte W03
	.byte VOICE, 10
	.byte N09, Fn2 @ v127
	.byte W09
	.byte VOICE, 11
	.byte N05, Gs2, v100
	.byte W05
	.byte N03, Ds2, v127
	.byte W03
	.byte VOICE, 10
	.byte N09, Fn2 @ v127
	.byte W09
	.byte VOICE, 11
	.byte N05, Gs2, v100
	.byte W05
	.byte N03, Ds2, v127
	.byte W03
	.byte VOICE, 10
	.byte N09, Fn2 @ v127
	.byte W09
	.byte VOICE, 11
	.byte N05, Gs2, v100
	.byte W05
	.byte N03, Ds2, v127
	.byte W03
	.byte VOICE, 10
	.byte N09, Fn2 @ v127
	.byte W09
	.byte VOICE, 11
	.byte N05, Gs2, v100
	.byte W05
	.byte N03, Ds2, v127
	.byte W03
	.byte VOICE, 10
	.byte N09, Fn2 @ v127
	.byte W09
	.byte VOICE, 11
	.byte N05, Gs2 @ v127
	.byte W05
	.byte N15, Ds2 @ v127
	.byte W64
	.byte W01
	.byte FINE

track_540_5:
	.byte KEYSH, 0
	.byte VOICE, 5
	.byte VOL, 100
	.byte PAN, c_v
	.byte W02
	.byte N04, Cn3, v112
	.byte W05
	.byte N04 @ Cn3, v112
	.byte W05
	.byte N04 @ Cn3, v112
	.byte W04
	.byte VOICE, 6
	.byte N04 @ Cn3, v112
	.byte W04
	.byte VOICE, 7
	.byte N04 @ Cn3, v112
	.byte W04
	.byte VOICE, 5
	.byte VOL, 30
	.byte W02
	.byte N04 @ Cn3, v112
	.byte W05
	.byte N04 @ Cn3, v112
	.byte W04
	.byte VOICE, 6
	.byte W01
	.byte N04, Cn3, v072
	.byte W04
	.byte N04 @ Cn3, v072
	.byte W04
	.byte VOICE, 7
	.byte N04, Cn3, v032
	.byte W16
	.byte VOL, 90
	.byte W02
	.byte N04, Cn3, v112
	.byte W05
	.byte N04 @ Cn3, v112
	.byte W05
	.byte N04 @ Cn3, v112
	.byte W04
	.byte VOICE, 6
	.byte N04 @ Cn3, v112
	.byte W04
	.byte VOICE, 7
	.byte N04 @ Cn3, v112
	.byte W04
	.byte VOICE, 5
	.byte VOL, 30
	.byte W02
	.byte N04 @ Cn3, v112
	.byte W05
	.byte N04 @ Cn3, v112
	.byte W05
	.byte W05
	.byte VOICE, 18
	.byte VOL, 121
	.byte PAN, c_v
	.byte BENDR, 10
	.byte PRIO, 1
	.byte BEND, c_v+43
	.byte W16
	.byte c_v+43 @ BEND
	.byte N72, Cn3, v016
	.byte W04
	.byte VOL, 77
	.byte W02
	.byte 76 @ VOL
	.byte BEND, c_v+42
	.byte W03
	.byte VOL, 75
	.byte BEND, c_v+41
	.byte W03
	.byte VOL, 74
	.byte W03
	.byte 72 @ VOL
	.byte W03
	.byte 70 @ VOL
	.byte BEND, c_v+40
	.byte W03
	.byte VOL, 68
	.byte BEND, c_v+39
	.byte W03
	.byte VOL, 65
	.byte W03
	.byte 61 @ VOL
	.byte BEND, c_v+37
	.byte W03
	.byte VOL, 57
	.byte W03
	.byte 50 @ VOL
	.byte BEND, c_v+35
	.byte W03
	.byte VOL, 43
	.byte W03
	.byte 35 @ VOL
	.byte BEND, c_v+33
	.byte VOL, 34
	.byte W03
	.byte 20 @ VOL
	.byte W01
	.byte 8 @ VOL
	.byte W02
	.byte BEND, c_v+31
	.byte VOL, 13
	.byte W01
	.byte 5 @ VOL
	.byte W03
	.byte 3 @ VOL
	.byte W03
	.byte 1 @ VOL
	.byte W23
	.byte FINE

.align 2

track_540:
	.byte 6
	.byte 0
	.byte 251
	.byte 0
	.word 0x80a808c
	.word track_540_0
	.word track_540_1
	.word track_540_2
	.word track_540_3
	.word track_540_4
	.word track_540_5

.align 2
