.align 2

.global track_32

track_32_0:
	.byte KEYSH, 0
track_32_lbl_262962:
	.byte TEMPO, 78
	.byte VOICE, 4
	.byte VOL, 70
	.byte BENDR, 20
	.byte PRIO, 110
	.byte N96, Cn3, v060
	.byte W96
	.byte Cn3, v040 @ N96
	.byte W96
	.byte VOICE, 1
	.byte VOL, 14
	.byte PAN, c_v
	.byte N72, Cn3, v112
	.byte W03
	.byte VOL, 21
	.byte W03
	.byte 28 @ VOL
	.byte W03
	.byte 35 @ VOL
	.byte W03
	.byte 42 @ VOL
	.byte W02
	.byte 49 @ VOL
	.byte W02
	.byte 56 @ VOL
	.byte W02
	.byte 63 @ VOL
	.byte W06
	.byte 70 @ VOL
	.byte W03
	.byte 77 @ VOL
	.byte W03
	.byte 85 @ VOL
	.byte W18
	.byte 56 @ VOL
	.byte W06
	.byte 49 @ VOL
	.byte W04
	.byte 42 @ VOL
	.byte W04
	.byte 35 @ VOL
	.byte W04
	.byte 28 @ VOL
	.byte W03
	.byte 21 @ VOL
	.byte W03
	.byte TIE, Ds3 @ v112
	.byte W06
	.byte VOL, 28
	.byte W06
	.byte 35 @ VOL
	.byte W12
	.byte 42 @ VOL
	.byte W06
	.byte 49 @ VOL
	.byte W03
	.byte 56 @ VOL
	.byte W03
	.byte 63 @ VOL
	.byte W03
	.byte 70 @ VOL
	.byte W03
	.byte 77 @ VOL
	.byte W03
	.byte 85 @ VOL
	.byte W03
	.byte 90 @ VOL
	.byte W24
	.byte W03
	.byte 85 @ VOL
	.byte W03
	.byte 77 @ VOL
	.byte W06
	.byte 70 @ VOL
	.byte W03
	.byte W03
	.byte 56 @ VOL
	.byte W03
	.byte W03
	.byte 42 @ VOL
	.byte W03
	.byte 35 @ VOL
	.byte W03
	.byte 28 @ VOL
	.byte W03
	.byte 21 @ VOL
	.byte W03
	.byte 14 @ VOL
	.byte W12
	.byte EOT @ Ds3, v112
	.byte N96 @ Ds3, v112
	.byte W96
track_32_lbl_2629ce:
	.byte VOICE, 1
	.byte MOD, 0
	.byte N96, Cn3, v112
	.byte W03
	.byte VOL, 21
	.byte W03
	.byte 28 @ VOL
	.byte W03
	.byte 35 @ VOL
	.byte W03
	.byte 42 @ VOL
	.byte W02
	.byte 49 @ VOL
	.byte W02
	.byte 56 @ VOL
	.byte W02
	.byte 63 @ VOL
	.byte W06
	.byte 70 @ VOL
	.byte W03
	.byte 77 @ VOL
	.byte W03
	.byte 85 @ VOL
	.byte W42
	.byte 56 @ VOL
	.byte W06
	.byte 49 @ VOL
	.byte W04
	.byte 42 @ VOL
	.byte W04
	.byte 35 @ VOL
	.byte W04
	.byte 28 @ VOL
	.byte W03
	.byte 21 @ VOL
	.byte W03
	.byte PEND
	.byte VOICE, 1
	.byte MOD, 0
	.byte VOL, 14
	.byte N96 @ Cn3, v112
	.byte W03
	.byte VOL, 21
	.byte W03
	.byte 28 @ VOL
	.byte W03
	.byte 35 @ VOL
	.byte W03
	.byte 42 @ VOL
	.byte W02
	.byte 49 @ VOL
	.byte W02
	.byte 56 @ VOL
	.byte W02
	.byte 63 @ VOL
	.byte W06
	.byte 70 @ VOL
	.byte W03
	.byte 77 @ VOL
	.byte W03
	.byte 85 @ VOL
	.byte W42
	.byte 56 @ VOL
	.byte W06
	.byte 49 @ VOL
	.byte W04
	.byte 42 @ VOL
	.byte W04
	.byte 35 @ VOL
	.byte W04
	.byte 28 @ VOL
	.byte W03
	.byte 21 @ VOL
	.byte W03
	.byte N96, Ds3 @ v112
	.byte W06
	.byte VOL, 28
	.byte W06
	.byte 35 @ VOL
	.byte W12
	.byte 42 @ VOL
	.byte W06
	.byte 49 @ VOL
	.byte W03
	.byte 56 @ VOL
	.byte W03
	.byte 63 @ VOL
	.byte W03
	.byte 70 @ VOL
	.byte W03
	.byte 77 @ VOL
	.byte W03
	.byte 85 @ VOL
	.byte W03
	.byte 90 @ VOL
	.byte W03
	.byte 85 @ VOL
	.byte W03
	.byte 77 @ VOL
	.byte W06
	.byte 70 @ VOL
	.byte W03
	.byte W03
	.byte 56 @ VOL
	.byte W03
	.byte W03
	.byte 42 @ VOL
	.byte W03
	.byte 35 @ VOL
	.byte W03
	.byte 28 @ VOL
	.byte W06
	.byte 21 @ VOL
	.byte W06
	.byte 14 @ VOL
	.byte W06
	.byte TIE, Ds3, v080
	.byte W03
	.byte VOL, 21
	.byte W06
	.byte 28 @ VOL
	.byte W12
	.byte 35 @ VOL
	.byte W24
	.byte 42 @ VOL
	.byte W12
	.byte 49 @ VOL
	.byte W06
	.byte 56 @ VOL
	.byte W06
	.byte 63 @ VOL
	.byte W06
	.byte 70 @ VOL
	.byte W06
	.byte 77 @ VOL
	.byte W06
	.byte 85 @ VOL
	.byte W06
	.byte 90 @ VOL
	.byte W03
	.byte W03
	.byte 85 @ VOL
	.byte W06
	.byte 77 @ VOL
	.byte W12
	.byte 70 @ VOL
	.byte W06
	.byte W06
	.byte 56 @ VOL
	.byte W06
	.byte W06
	.byte 42 @ VOL
	.byte W06
	.byte 35 @ VOL
	.byte W06
	.byte 28 @ VOL
	.byte W12
	.byte 21 @ VOL
	.byte W12
	.byte 14 @ VOL
	.byte W15
	.byte EOT @ Ds3, v080
	.byte MOD, 20
	.byte VOL, 56
	.byte TIE, En3, v112
	.byte W96
	.byte W96
	.byte EOT @ En3, v112
	.byte N96 @ En3, v112
	.byte W96
	.byte Cn3, v052 @ N96
	.byte W12
	.byte VOICE, 4
	.byte VOL, 70
	.byte BENDR, 20
	.byte W60
	.byte VOL, 63
	.byte W06
	.byte 56 @ VOL
	.byte W06
	.byte 49 @ VOL
	.byte W06
	.byte 42 @ VOL
	.byte W06
	.byte 42 @ VOL
	.byte N96 @ Cn3, v052
	.byte W06
	.byte VOL, 49
	.byte W06
	.byte 56 @ VOL
	.byte W06
	.byte 63 @ VOL
	.byte W78
	.byte N96, Dn3, v060
	.byte W96
	.byte Dn3, v072 @ N96
	.byte W48
	.byte VOL, 63
	.byte W06
	.byte 56 @ VOL
	.byte W06
	.byte 49 @ VOL
	.byte W06
	.byte 42 @ VOL
	.byte W06
	.byte 35 @ VOL
	.byte W06
	.byte 28 @ VOL
	.byte W06
	.byte 21 @ VOL
	.byte W06
	.byte 14 @ VOL
	.byte W06
	.byte PATT
		.word track_32_lbl_2629ce
track_32_lbl_262ac4:
	.byte VOICE, 1
	.byte MOD, 20
	.byte VOL, 14
	.byte N96, Cn3, v112
	.byte W03
	.byte VOL, 21
	.byte W03
	.byte 28 @ VOL
	.byte W03
	.byte 35 @ VOL
	.byte W03
	.byte 42 @ VOL
	.byte W02
	.byte 49 @ VOL
	.byte W02
	.byte 56 @ VOL
	.byte W02
	.byte 63 @ VOL
	.byte W06
	.byte 70 @ VOL
	.byte W03
	.byte 77 @ VOL
	.byte W03
	.byte 85 @ VOL
	.byte W42
	.byte 56 @ VOL
	.byte W06
	.byte 49 @ VOL
	.byte W04
	.byte 42 @ VOL
	.byte W04
	.byte 35 @ VOL
	.byte W04
	.byte 28 @ VOL
	.byte W03
	.byte 21 @ VOL
	.byte W03
	.byte PEND
	.byte PATT
		.word track_32_lbl_262ac4
	.byte GOTO
		.word track_32_lbl_262962
	.byte FINE

track_32_1:
	.byte KEYSH, 0
track_32_lbl_262afd:
	.byte VOICE, 15
	.byte VOL, 70
	.byte PAN, c_v
	.byte PRIO, 109
	.byte N03, Cn4, v020
	.byte W36
	.byte N03 @ Cn4, v020
	.byte W24
	.byte N03 @ Cn4, v020
	.byte W12
	.byte N06, Cs4, v024
	.byte W24
	.byte Fn4, v052 @ N06
	.byte W36
	.byte N04 @ Fn4, v052
	.byte W24
	.byte N05 @ Fn4, v052
	.byte W12
	.byte Fs4 @ N05, v052
	.byte W24
	.byte N02, Cn5, v080
	.byte W36
	.byte N05 @ Cn5, v080
	.byte W24
	.byte N04 @ Cn5, v080
	.byte W12
	.byte N05, Cs5, v088
	.byte W24
	.byte Fn5, v100 @ N05
	.byte W36
	.byte N05 @ Fn5, v100
	.byte W24
	.byte N05 @ Fn5, v100
	.byte W12
	.byte Fs5, v096 @ N05
	.byte W24
	.byte Fn3, v120 @ N05
	.byte W06
	.byte En3, v100 @ N05
	.byte W06
	.byte Ds3, v080 @ N05
	.byte W06
	.byte Dn3, v060 @ N05
	.byte W06
	.byte Fn3, v052 @ N05
	.byte W06
	.byte En3 @ N05, v052
	.byte W06
	.byte Ds3, v056 @ N05
	.byte W06
	.byte Dn3, v060 @ N05
	.byte W06
	.byte Fn3 @ N05, v060
	.byte W06
	.byte En3 @ N05, v060
	.byte W06
	.byte Ds3 @ N05, v060
	.byte W06
	.byte Dn3 @ N05, v060
	.byte W06
	.byte Fn3 @ N05, v060
	.byte W06
	.byte En3 @ N05, v060
	.byte W06
	.byte Ds3 @ N05, v060
	.byte W06
	.byte Dn3 @ N05, v060
	.byte W06
	.byte Fn3 @ N05, v060
	.byte W06
	.byte En3 @ N05, v060
	.byte W06
	.byte Ds3 @ N05, v060
	.byte W06
	.byte Dn3 @ N05, v060
	.byte W06
	.byte Fn3 @ N05, v060
	.byte W06
	.byte En3 @ N05, v060
	.byte W06
	.byte Ds3 @ N05, v060
	.byte W06
	.byte Dn3 @ N05, v060
	.byte W06
	.byte Fn3 @ N05, v060
	.byte W06
	.byte En3 @ N05, v060
	.byte W06
	.byte Ds3 @ N05, v060
	.byte W06
	.byte Dn3 @ N05, v060
	.byte W06
	.byte Fn3 @ N05, v060
	.byte W06
	.byte En3 @ N05, v060
	.byte W06
	.byte Ds3 @ N05, v060
	.byte W06
	.byte Dn3 @ N05, v060
	.byte W06
	.byte Fn3 @ N05, v060
	.byte W06
	.byte En3, v064 @ N05
	.byte W06
	.byte Ds3, v068 @ N05
	.byte W06
	.byte Dn3, v072 @ N05
	.byte W06
	.byte Fn3, v076 @ N05
	.byte W06
	.byte En3, v080 @ N05
	.byte W06
	.byte Ds3, v084 @ N05
	.byte W06
	.byte Dn3, v088 @ N05
	.byte W06
	.byte Fn3, v092 @ N05
	.byte W06
	.byte En3, v096 @ N05
	.byte W06
	.byte Ds3, v100 @ N05
	.byte W06
	.byte Dn3, v104 @ N05
	.byte W06
	.byte Fn3, v108 @ N05
	.byte W06
	.byte En3, v112 @ N05
	.byte W06
	.byte Ds3 @ N05, v112
	.byte W06
	.byte Dn3, v116 @ N05
	.byte W06
	.byte N06, Gn2, v120
	.byte W12
	.byte Cn2, v092 @ N06
	.byte W12
	.byte N08, Cs3, v060
	.byte W12
	.byte Cs3, v076 @ N08
	.byte W12
	.byte N06, Cn2 @ v076
	.byte W12
	.byte Cn2, v092 @ N06
	.byte W12
	.byte N08, Fn3, v068
	.byte W12
	.byte N10, Fn3, v084
	.byte W12
	.byte N06, Cn2, v088
	.byte W12
	.byte N06 @ Cn2, v088
	.byte W12
	.byte N08, Fs3, v064
	.byte W12
	.byte N10, Fs3, v072
	.byte W12
	.byte N06, Cn2, v080
	.byte W12
	.byte Cn2, v088 @ N06
	.byte W12
	.byte N08, An3, v072
	.byte W12
	.byte N10, An3, v060
	.byte W12
	.byte N11, Cn3, v108
	.byte W12
	.byte Cn3, v088 @ N11
	.byte W12
	.byte N06, Fn3, v100
	.byte W12
	.byte N11 @ Fn3, v100
	.byte W12
	.byte Cn3, v092 @ N11
	.byte W12
	.byte Cn3, v084 @ N11
	.byte W12
	.byte N06, Fs3, v100
	.byte W12
	.byte N11 @ Fs3, v100
	.byte W12
	.byte Cn3, v120 @ N11
	.byte W12
	.byte Cn3, v116 @ N11
	.byte W12
	.byte N06, An3 @ v116
	.byte W12
	.byte N11, An3, v120
	.byte W12
	.byte Cn3, v127 @ N11
	.byte W12
	.byte N11 @ Cn3, v127
	.byte W12
	.byte N06, Cn4 @ v127
	.byte W12
	.byte N11 @ Cn4, v127
	.byte W12
	.byte N06, Bn3, v120
	.byte W06
	.byte As3, v100 @ N06
	.byte W06
	.byte An3, v080 @ N06
	.byte W06
	.byte Gs3, v072 @ N06
	.byte W06
	.byte Bn3, v060 @ N06
	.byte W06
	.byte As3, v052 @ N06
	.byte W06
	.byte An3 @ N06, v052
	.byte W06
	.byte Gs3 @ N06, v052
	.byte W06
	.byte Bn3 @ N06, v052
	.byte W06
	.byte As3 @ N06, v052
	.byte W06
	.byte An3 @ N06, v052
	.byte W06
	.byte Gs3 @ N06, v052
	.byte W06
	.byte Bn3 @ N06, v052
	.byte W06
	.byte As3 @ N06, v052
	.byte W06
	.byte An3 @ N06, v052
	.byte W06
	.byte Gs3 @ N06, v052
	.byte W06
	.byte Cn4 @ N06, v052
	.byte W06
	.byte Bn3 @ N06, v052
	.byte W06
	.byte As3 @ N06, v052
	.byte W06
	.byte An3 @ N06, v052
	.byte W06
	.byte Cn4 @ N06, v052
	.byte W06
	.byte Bn3 @ N06, v052
	.byte W06
	.byte As3 @ N06, v052
	.byte W06
	.byte An3 @ N06, v052
	.byte W06
	.byte Cn4 @ N06, v052
	.byte W06
	.byte Bn3 @ N06, v052
	.byte W06
	.byte As3 @ N06, v052
	.byte W06
	.byte An3 @ N06, v052
	.byte W06
	.byte Cn4 @ N06, v052
	.byte W06
	.byte Bn3 @ N06, v052
	.byte W06
	.byte As3 @ N06, v052
	.byte W06
	.byte An3 @ N06, v052
	.byte W06
	.byte N05, Cs4, v060
	.byte W06
	.byte Cn4 @ N05, v060
	.byte W06
	.byte Bn3 @ N05, v060
	.byte W06
	.byte As3 @ N05, v060
	.byte W06
	.byte Cs4 @ N05, v060
	.byte W06
	.byte Cn4 @ N05, v060
	.byte W06
	.byte Bn3 @ N05, v060
	.byte W06
	.byte As3 @ N05, v060
	.byte W06
	.byte Cs4, v072 @ N05
	.byte W06
	.byte Cn4 @ N05, v072
	.byte W06
	.byte Bn3 @ N05, v072
	.byte W06
	.byte As3 @ N05, v072
	.byte W06
	.byte Cs4 @ N05, v072
	.byte W06
	.byte Cn4 @ N05, v072
	.byte W06
	.byte Bn3 @ N05, v072
	.byte W06
	.byte As3 @ N05, v072
	.byte W06
	.byte N04, Dn4, v080
	.byte W06
	.byte Cs4, v084 @ N04
	.byte W06
	.byte Cn4, v088 @ N04
	.byte W06
	.byte Bn3, v092 @ N04
	.byte W06
	.byte Dn4, v096 @ N04
	.byte W06
	.byte Cs4, v100 @ N04
	.byte W06
	.byte Cn4, v104 @ N04
	.byte W06
	.byte Bn3, v108 @ N04
	.byte W06
	.byte Dn4, v112 @ N04
	.byte W06
	.byte Cs4, v116 @ N04
	.byte W06
	.byte Cn4, v120 @ N04
	.byte W06
	.byte Bn3, v124 @ N04
	.byte W06
	.byte Dn4, v127 @ N04
	.byte W06
	.byte Cs4 @ N04, v127
	.byte W06
	.byte Cn4 @ N04, v127
	.byte W06
	.byte Bn3 @ N04, v127
	.byte W06
	.byte N32, An3, v072
	.byte W36
	.byte N10, As3 @ v072
	.byte W12
	.byte N32, Cs4 @ v072
	.byte W36
	.byte N10, Cn4 @ v072
	.byte W12
	.byte N32, As3 @ v072
	.byte W36
	.byte N10, An3 @ v072
	.byte W12
	.byte N32, Cs4 @ v072
	.byte W36
	.byte N10, Cn4 @ v072
	.byte W12
	.byte N32, Ds4, v080
	.byte W36
	.byte N10, Dn4 @ v080
	.byte W12
	.byte N32, Fs4 @ v080
	.byte W36
	.byte N10, Fn4 @ v080
	.byte W12
	.byte N32, Ds4, v112
	.byte W36
	.byte N10, Dn4 @ v112
	.byte W12
	.byte N32, Fs4 @ v112
	.byte W36
	.byte N10, Fn4 @ v112
	.byte W12
	.byte An3, v052 @ N10
	.byte W12
	.byte Gs3, v044 @ N10
	.byte W12
	.byte N06, Cn4, v068
	.byte W08
	.byte Bn3, v072 @ N06
	.byte W08
	.byte As3, v080 @ N06
	.byte W08
	.byte Dn4, v088 @ N06
	.byte W08
	.byte Cs4, v092 @ N06
	.byte W08
	.byte Cn4, v100 @ N06
	.byte W08
	.byte En4, v108 @ N06
	.byte W08
	.byte Fn4, v116 @ N06
	.byte W08
	.byte Fs4, v120 @ N06
	.byte W08
	.byte GOTO
		.word track_32_lbl_262afd
	.byte FINE

track_32_2:
	.byte KEYSH, 0
track_32_lbl_262d03:
	.byte VOICE, 15
	.byte VOL, 90
	.byte PAN, c_v
	.byte PRIO, 108
	.byte N06, Cn2, v060
	.byte W36
	.byte N06 @ Cn2, v060
	.byte W24
	.byte N06 @ Cn2, v060
	.byte W12
	.byte Cs2, v076 @ N06
	.byte W24
	.byte Cn2 @ N06, v076
	.byte W36
	.byte N06 @ Cn2, v076
	.byte W24
	.byte N06 @ Cn2, v076
	.byte W12
	.byte Cs2, v096 @ N06
	.byte W24
	.byte N04, Cn3, v112
	.byte W36
	.byte N04 @ Cn3, v112
	.byte W24
	.byte Cn3, v100 @ N04
	.byte W12
	.byte Cs3, v112 @ N04
	.byte W24
	.byte Cn3, v104 @ N04
	.byte W36
	.byte N04 @ Cn3, v104
	.byte W24
	.byte Cn3, v112 @ N04
	.byte W12
	.byte Cs3 @ N04, v112
	.byte W24
	.byte W96
	.byte VOICE, 15
	.byte VOL, 70
	.byte PAN, c_v
	.byte N84, Bn2, v092
	.byte W84
	.byte W02
	.byte N05, As2 @ v092
	.byte W10
	.byte W02
	.byte N72, An2, v108
	.byte W80
	.byte W01
	.byte N03, Gs2, v096
	.byte W13
	.byte N06, Cn2, v120
	.byte W24
	.byte N08, Cn3, v060
	.byte W12
	.byte Cn3, v068 @ N08
	.byte W36
	.byte Cn3, v044 @ N08
	.byte W12
	.byte N10, Cn3, v068
	.byte W12
	.byte W24
	.byte N08, Cn3, v064
	.byte W12
	.byte N10 @ Cn3, v064
	.byte W36
	.byte N08 @ Cn3, v064
	.byte W12
	.byte N10 @ Cn3, v064
	.byte W12
	.byte N11, Cn2, v100
	.byte W12
	.byte Cn2, v088 @ N11
	.byte W12
	.byte N06, Cn3, v100
	.byte W12
	.byte N11 @ Cn3, v100
	.byte W12
	.byte Cn2, v084 @ N11
	.byte W12
	.byte N11 @ Cn2, v084
	.byte W12
	.byte N06, Cn3, v100
	.byte W12
	.byte N11 @ Cn3, v100
	.byte W12
	.byte Cn2, v112 @ N11
	.byte W12
	.byte N11 @ Cn2, v112
	.byte W12
	.byte N06, Cn3 @ v112
	.byte W12
	.byte N11, Cn3, v124
	.byte W12
	.byte Cn2, v127 @ N11
	.byte W12
	.byte N11 @ Cn2, v127
	.byte W12
	.byte N06, As3 @ v127
	.byte W12
	.byte N11 @ As3, v127
	.byte W12
	.byte W96
	.byte W96
	.byte VOICE, 0
	.byte VOL, 42
	.byte PAN, c_v
	.byte N04, En1, v100
	.byte W06
	.byte N03, En1, v080
	.byte W06
	.byte En1, v060 @ N03
	.byte W06
	.byte En1, v040 @ N03
	.byte W06
	.byte N03 @ En1, v040
	.byte W06
	.byte N03 @ En1, v040
	.byte W06
	.byte N03 @ En1, v040
	.byte W06
	.byte N03 @ En1, v040
	.byte W06
	.byte N03 @ En1, v040
	.byte W06
	.byte N03 @ En1, v040
	.byte W06
	.byte N03 @ En1, v040
	.byte W06
	.byte N03 @ En1, v040
	.byte W06
	.byte N03 @ En1, v040
	.byte W06
	.byte N03 @ En1, v040
	.byte W06
	.byte N03 @ En1, v040
	.byte W06
	.byte N03 @ En1, v040
	.byte W06
	.byte En1, v060 @ N03
	.byte W06
	.byte N03 @ En1, v060
	.byte W06
	.byte N03 @ En1, v060
	.byte W06
	.byte N03 @ En1, v060
	.byte W06
	.byte En1, v072 @ N03
	.byte W06
	.byte N03 @ En1, v072
	.byte W06
	.byte N03 @ En1, v072
	.byte W06
	.byte N03 @ En1, v072
	.byte W06
	.byte En1, v080 @ N03
	.byte W06
	.byte N03 @ En1, v080
	.byte W06
	.byte N03 @ En1, v080
	.byte W06
	.byte N03 @ En1, v080
	.byte W06
	.byte N02 @ En1, v080
	.byte W04
	.byte En1, v088 @ N02
	.byte W04
	.byte En1, v096 @ N02
	.byte W04
	.byte En1, v104 @ N02
	.byte W03
	.byte En1, v108 @ N02
	.byte W03
	.byte En1, v116 @ N02
	.byte W03
	.byte En1, v120 @ N02
	.byte W03
	.byte VOICE, 15
	.byte VOL, 70
	.byte PAN, c_v
	.byte N24, Cn3, v072
	.byte W24
	.byte Cn2, v076 @ N24
	.byte W24
	.byte Ds3, v072 @ N24
	.byte W24
	.byte Ds2, v088 @ N24
	.byte W24
	.byte Cn3 @ N24, v088
	.byte W24
	.byte Fs2, v092 @ N24
	.byte W24
	.byte Ds3, v100 @ N24
	.byte W24
	.byte An2, v092 @ N24
	.byte W24
	.byte Fs3, v064 @ N24
	.byte W24
	.byte Fs2, v092 @ N24
	.byte W24
	.byte Cn4, v080 @ N24
	.byte W24
	.byte An2 @ N24, v080
	.byte W24
	.byte N12, Fs3 @ v080
	.byte W12
	.byte N10, Cn2, v100
	.byte W12
	.byte N32, Cn3, v092
	.byte W24
	.byte N12, Cn4 @ v092
	.byte W12
	.byte N10, Ds2, v108
	.byte W12
	.byte N24, Ds3, v100
	.byte W24
	.byte W24
	.byte N06, An3, v068
	.byte W08
	.byte Gs3 @ N06, v068
	.byte W08
	.byte Gn3, v080 @ N06
	.byte W08
	.byte Bn3, v072 @ N06
	.byte W08
	.byte As3, v080 @ N06
	.byte W08
	.byte An3, v076 @ N06
	.byte W08
	.byte Cs4, v080 @ N06
	.byte W08
	.byte Dn4 @ N06, v080
	.byte W16
	.byte GOTO
		.word track_32_lbl_262d03
	.byte FINE

track_32_3:
	.byte KEYSH, 0
track_32_lbl_262e55:
	.byte VOICE, 18
	.byte VOL, 90
	.byte PAN, c_v
	.byte PRIO, 30
	.byte N03, Cn1, v100
	.byte W36
	.byte N03 @ Cn1, v100
	.byte W24
	.byte N03 @ Cn1, v100
	.byte W12
	.byte N05, Cs1 @ v100
	.byte W24
	.byte N04, Cn1, v116
	.byte W36
	.byte N04 @ Cn1, v116
	.byte W24
	.byte N04 @ Cn1, v116
	.byte W12
	.byte N06, Cs1 @ v116
	.byte W24
	.byte Cn2, v120 @ N06
	.byte W36
	.byte N06 @ Cn2, v120
	.byte W24
	.byte N04 @ Cn2, v120
	.byte W12
	.byte N06, Cs2 @ v120
	.byte W24
	.byte Cn2 @ N06, v120
	.byte W36
	.byte N06 @ Cn2, v120
	.byte W24
	.byte N04 @ Cn2, v120
	.byte W12
	.byte N07, Cs2 @ v120
	.byte W24
	.byte W96
	.byte N80, Bn2, v096
	.byte W84
	.byte W02
	.byte N05, As2, v092
	.byte W10
	.byte N72, An2, v108
	.byte W80
	.byte W03
	.byte N03, Gs2, v127
	.byte W13
	.byte N08, Gn2 @ v127
	.byte W12
	.byte N05, Cn2, v092
	.byte W36
	.byte N03, Cn2, v056
	.byte W12
	.byte Cn2, v072 @ N03
	.byte W36
	.byte N04, Cn2, v068
	.byte W12
	.byte N10 @ Cn2, v068
	.byte W36
	.byte N10 @ Cn2, v068
	.byte W12
	.byte N03 @ Cn2, v068
	.byte W24
	.byte N04 @ Cn2, v068
	.byte W12
	.byte N06, Cn2, v092
	.byte W12
	.byte Cn2, v076 @ N06
	.byte W36
	.byte N06 @ Cn2, v076
	.byte W12
	.byte N06 @ Cn2, v076
	.byte W36
	.byte Cn2, v104 @ N06
	.byte W12
	.byte N04 @ Cn2, v104
	.byte W36
	.byte N06, Cn2, v112
	.byte W12
	.byte N05 @ Cn2, v112
	.byte W24
	.byte N10, Cn2, v120
	.byte W12
	.byte W96
	.byte W96
	.byte W96
	.byte W96
	.byte VOICE, 18
	.byte VOL, 90
	.byte PAN, c_v
	.byte W12
	.byte N11, Cn1 @ v120
	.byte W12
	.byte N24, Cn2, v076
	.byte W36
	.byte N11, Ds1, v120
	.byte W12
	.byte N24, Ds2, v088
	.byte W24
	.byte W12
	.byte N11, Fs1, v120
	.byte W12
	.byte N24, Fs2, v092
	.byte W36
	.byte N11, An1, v120
	.byte W12
	.byte N24, An2, v092
	.byte W24
	.byte W12
	.byte N11, Fs1, v120
	.byte W12
	.byte N24, Fs2, v092
	.byte W36
	.byte N11, An1, v120
	.byte W12
	.byte N24, An2, v084
	.byte W24
	.byte W12
	.byte N12, Cn2, v120
	.byte W12
	.byte N32, Cn3, v092
	.byte W36
	.byte N12, Ds2, v120
	.byte W12
	.byte N24, Ds3, v100
	.byte W24
	.byte N11, An2, v068
	.byte W12
	.byte Cn3 @ N11, v068
	.byte W12
	.byte N05, Ds3 @ v068
	.byte W72
	.byte GOTO
		.word track_32_lbl_262e55
	.byte FINE

track_32_4:
	.byte KEYSH, 0
track_32_lbl_262f2b:
	.byte VOICE, 5
	.byte VOL, 70
	.byte BENDR, 20
	.byte PRIO, 0
	.byte W96
	.byte W04
	.byte BEND, c_v
	.byte N80, An2, v060
	.byte W10
	.byte BEND, c_v-1
	.byte W01
	.byte c_v-2 @ BEND
	.byte W01
	.byte c_v-3 @ BEND
	.byte W02
	.byte c_v-4 @ BEND
	.byte W08
	.byte c_v-5 @ BEND
	.byte W02
	.byte c_v-6 @ BEND
	.byte W03
	.byte c_v-7 @ BEND
	.byte W03
	.byte c_v-8 @ BEND
	.byte W01
	.byte c_v-9 @ BEND
	.byte W02
	.byte c_v-10 @ BEND
	.byte W01
	.byte c_v-11 @ BEND
	.byte W03
	.byte c_v-12 @ BEND
	.byte W01
	.byte c_v-13 @ BEND
	.byte W01
	.byte c_v-14 @ BEND
	.byte W01
	.byte c_v-15 @ BEND
	.byte W02
	.byte c_v-16 @ BEND
	.byte W01
	.byte c_v-17 @ BEND
	.byte W02
	.byte c_v-19 @ BEND
	.byte W03
	.byte c_v-20 @ BEND
	.byte W01
	.byte c_v-21 @ BEND
	.byte W02
	.byte c_v-22 @ BEND
	.byte W02
	.byte c_v-24 @ BEND
	.byte W03
	.byte c_v-25 @ BEND
	.byte W02
	.byte c_v-26 @ BEND
	.byte W05
	.byte c_v-27 @ BEND
	.byte W03
	.byte c_v-28 @ BEND
	.byte W03
	.byte c_v-29 @ BEND
	.byte W02
	.byte c_v-30 @ BEND
	.byte W03
	.byte c_v-31 @ BEND
	.byte W03
	.byte c_v-32 @ BEND
	.byte W03
	.byte c_v-33 @ BEND
	.byte W11
	.byte c_v @ BEND
	.byte W01
	.byte W96
	.byte W96
	.byte VOICE, 4
	.byte VOL, 70
	.byte BENDR, 20
	.byte N96, Cn3, v040
	.byte W96
	.byte Cn3, v032 @ N96
	.byte W96
	.byte VOICE, 4
	.byte VOL, 70
	.byte BENDR, 20
	.byte N96, Cn3, v020
	.byte W96
	.byte Cn3, v032 @ N96
	.byte W96
	.byte N96 @ Cn3, v032
	.byte W96
	.byte W96
	.byte W96
	.byte W96
	.byte W96
	.byte W96
	.byte W96
	.byte W96
	.byte W96
	.byte W96
	.byte W96
	.byte W96
	.byte GOTO
		.word track_32_lbl_262f2b
	.byte FINE

track_32_5:
	.byte KEYSH, 0
track_32_lbl_262fad:
	.byte VOICE, 15
	.byte MOD, 0
	.byte VOL, 70
	.byte PAN, c_v
	.byte PRIO, 0
	.byte N04, Cn3, v040
	.byte W36
	.byte N04 @ Cn3, v040
	.byte W24
	.byte N04 @ Cn3, v040
	.byte W12
	.byte Cs3, v056 @ N04
	.byte W24
	.byte Fn3, v060 @ N04
	.byte W36
	.byte N04 @ Fn3, v060
	.byte W24
	.byte N04 @ Fn3, v060
	.byte W12
	.byte N05, Fs3, v068
	.byte W24
	.byte Cn4, v080 @ N05
	.byte W36
	.byte N05 @ Cn4, v080
	.byte W24
	.byte Cn4, v064 @ N05
	.byte W12
	.byte Cs4, v080 @ N05
	.byte W24
	.byte VOICE, 15
	.byte VOL, 70
	.byte PAN, c_v
	.byte N05, Fn4, v092
	.byte W36
	.byte N05 @ Fn4, v092
	.byte W24
	.byte N05 @ Fn4, v092
	.byte W12
	.byte Fs4 @ N05, v092
	.byte W24
	.byte VOICE, 5
	.byte VOL, 70
	.byte BENDR, 20
	.byte W56
	.byte W01
	.byte BEND, c_v
	.byte N80, An2, v076
	.byte W10
	.byte BEND, c_v-1
	.byte W01
	.byte c_v-2 @ BEND
	.byte W01
	.byte c_v-3 @ BEND
	.byte W02
	.byte c_v-4 @ BEND
	.byte W08
	.byte c_v-5 @ BEND
	.byte W02
	.byte c_v-6 @ BEND
	.byte W03
	.byte c_v-7 @ BEND
	.byte W03
	.byte c_v-8 @ BEND
	.byte W01
	.byte c_v-9 @ BEND
	.byte W02
	.byte c_v-10 @ BEND
	.byte W01
	.byte c_v-11 @ BEND
	.byte W03
	.byte c_v-12 @ BEND
	.byte W01
	.byte c_v-13 @ BEND
	.byte W01
	.byte c_v-14 @ BEND
	.byte W01
	.byte c_v-15 @ BEND
	.byte W01
	.byte c_v-16 @ BEND
	.byte W02
	.byte c_v-17 @ BEND
	.byte W01
	.byte c_v-18 @ BEND
	.byte W01
	.byte c_v-19 @ BEND
	.byte W02
	.byte c_v-20 @ BEND
	.byte W02
	.byte c_v-21 @ BEND
	.byte W01
	.byte c_v-22 @ BEND
	.byte W03
	.byte c_v-24 @ BEND
	.byte W02
	.byte c_v-25 @ BEND
	.byte W03
	.byte c_v-26 @ BEND
	.byte W05
	.byte c_v-27 @ BEND
	.byte W02
	.byte c_v-28 @ BEND
	.byte W03
	.byte c_v-29 @ BEND
	.byte W03
	.byte c_v-30 @ BEND
	.byte W02
	.byte c_v-31 @ BEND
	.byte W03
	.byte c_v-32 @ BEND
	.byte W03
	.byte c_v-33 @ BEND
	.byte W06
	.byte c_v @ BEND
	.byte W48
	.byte W02
	.byte W96
	.byte W96
	.byte VOICE, 5
	.byte VOL, 70
	.byte BENDR, 20
	.byte W09
	.byte N80 @ An2, v076
	.byte W10
	.byte BEND, c_v-1
	.byte W01
	.byte c_v-2 @ BEND
	.byte W01
	.byte c_v-3 @ BEND
	.byte W02
	.byte c_v-4 @ BEND
	.byte W08
	.byte c_v-5 @ BEND
	.byte W02
	.byte c_v-6 @ BEND
	.byte W03
	.byte c_v-7 @ BEND
	.byte W03
	.byte c_v-8 @ BEND
	.byte W01
	.byte c_v-9 @ BEND
	.byte W02
	.byte c_v-10 @ BEND
	.byte W01
	.byte c_v-11 @ BEND
	.byte W03
	.byte c_v-12 @ BEND
	.byte W01
	.byte c_v-13 @ BEND
	.byte W01
	.byte c_v-14 @ BEND
	.byte W01
	.byte c_v-15 @ BEND
	.byte W01
	.byte c_v-16 @ BEND
	.byte W02
	.byte c_v-17 @ BEND
	.byte W01
	.byte c_v-18 @ BEND
	.byte W01
	.byte c_v-19 @ BEND
	.byte W02
	.byte c_v-20 @ BEND
	.byte W02
	.byte c_v-21 @ BEND
	.byte W01
	.byte c_v-22 @ BEND
	.byte W03
	.byte c_v-24 @ BEND
	.byte W02
	.byte c_v-25 @ BEND
	.byte W03
	.byte c_v-26 @ BEND
	.byte W05
	.byte c_v-27 @ BEND
	.byte W02
	.byte c_v-28 @ BEND
	.byte W03
	.byte c_v-29 @ BEND
	.byte W03
	.byte c_v-30 @ BEND
	.byte W02
	.byte c_v-31 @ BEND
	.byte W03
	.byte c_v-32 @ BEND
	.byte W03
	.byte c_v-33 @ BEND
	.byte W07
	.byte c_v @ BEND
	.byte W01
	.byte W96
	.byte W96
	.byte W96
	.byte W96
	.byte W96
	.byte W96
	.byte W96
	.byte W96
	.byte W96
	.byte W96
	.byte W96
	.byte GOTO
		.word track_32_lbl_262fad
	.byte FINE

track_32_6:
	.byte KEYSH, 0
track_32_lbl_26309b:
	.byte PRIO, 30
	.byte W96
	.byte W96
	.byte W96
	.byte W96
	.byte W96
	.byte W56
	.byte W01
	.byte VOICE, 2
	.byte VOL, 49
	.byte PAN, c_v
	.byte W01
	.byte N16, Bn6, v060
	.byte W36
	.byte W02
	.byte W96
	.byte W60
	.byte W01
	.byte VOICE, 2
	.byte VOL, 49
	.byte PAN, c_v
	.byte N16 @ Bn6, v060
	.byte W32
	.byte W03
	.byte W96
	.byte VOICE, 8
	.byte MOD, 90
	.byte VOL, 49
	.byte N04, Cn4, v068
	.byte W12
	.byte N20 @ Cn4, v068
	.byte W24
	.byte Cn4, v080 @ N20
	.byte W24
	.byte Cn4, v088 @ N20
	.byte W24
	.byte N12, Cn4, v100
	.byte W12
	.byte W12
	.byte N22, Cn4, v108
	.byte W24
	.byte Cn4, v120 @ N22
	.byte W24
	.byte N22 @ Cn4, v120
	.byte W24
	.byte N22 @ Cn4, v120
	.byte W12
	.byte W96
	.byte W96
	.byte W96
	.byte W96
	.byte VOICE, 8
	.byte MOD, 90
	.byte VOL, 49
	.byte N48, Ds3, v040
	.byte W48
	.byte Fs3 @ N48, v040
	.byte W48
	.byte Ds3 @ N48, v040
	.byte W48
	.byte Fs3 @ N48, v040
	.byte W48
	.byte An3 @ N48, v040
	.byte W48
	.byte Ds4 @ N48, v040
	.byte W48
	.byte An3 @ N48, v040
	.byte W48
	.byte Ds4 @ N48, v040
	.byte W48
	.byte W24
	.byte N09, Cn3, v088
	.byte W08
	.byte N08, Bn2 @ v088
	.byte W08
	.byte As2, v100 @ N08
	.byte W08
	.byte Dn3, v092 @ N08
	.byte W08
	.byte Cs3, v100 @ N08
	.byte W08
	.byte Cn3, v096 @ N08
	.byte W08
	.byte En3, v100 @ N08
	.byte W08
	.byte Fn3 @ N08, v100
	.byte W08
	.byte Fs3, v092 @ N08
	.byte W08
	.byte GOTO
		.word track_32_lbl_26309b
	.byte FINE

track_32_7:
	.byte KEYSH, 0
track_32_lbl_26311f:
	.byte PRIO, 29
	.byte W96
	.byte W96
	.byte W96
	.byte VOICE, 9
	.byte MOD, 20
	.byte VOL, 85
	.byte N07, Cn1, v120
	.byte W36
	.byte N07 @ Cn1, v120
	.byte W24
	.byte N07 @ Cn1, v120
	.byte W12
	.byte Cs1 @ N07, v120
	.byte W24
	.byte W96
	.byte W96
	.byte W96
	.byte W96
	.byte W96
	.byte VOICE, 9
	.byte MOD, 20
	.byte VOL, 85
	.byte N11, Cn1, v060
	.byte W12
	.byte N11 @ Cn1, v060
	.byte W36
	.byte Cn1, v072 @ N11
	.byte W12
	.byte N11 @ Cn1, v072
	.byte W36
	.byte Cn1, v092 @ N11
	.byte W12
	.byte N11 @ Cn1, v092
	.byte W36
	.byte Cn1, v120 @ N11
	.byte W12
	.byte N11 @ Cn1, v120
	.byte W24
	.byte Cn1, v127 @ N11
	.byte W12
	.byte W96
	.byte W96
	.byte W96
	.byte W96
	.byte N48, Cn3, v040
	.byte W48
	.byte Ds3 @ N48, v040
	.byte W48
	.byte Cn3 @ N48, v040
	.byte W48
	.byte Ds3 @ N48, v040
	.byte W48
	.byte Fs3 @ N48, v040
	.byte W48
	.byte Cn4 @ N48, v040
	.byte W48
	.byte Fs3 @ N48, v040
	.byte W48
	.byte Cn4 @ N48, v040
	.byte W48
	.byte W96
	.byte GOTO
		.word track_32_lbl_26311f
	.byte FINE

.align 2

track_32:
	.byte 8
	.byte 32
	.byte 130
	.byte 128
	.word 0x80a5e3c
	.word track_32_0
	.word track_32_1
	.word track_32_2
	.word track_32_3
	.word track_32_4
	.word track_32_5
	.word track_32_6
	.word track_32_7

.align 2
