.align 2

.global track_43

track_43_0:
	.byte KEYSH, 0
track_43_lbl_26328a:
	.byte TEMPO, 60
	.byte VOICE, 11
	.byte VOL, 25
	.byte PRIO, 110
	.byte N96, An4, v068
	.byte W02
	.byte VOL, 25
	.byte W03
	.byte 26 @ VOL
	.byte W04
	.byte 28 @ VOL
	.byte W04
	.byte 29 @ VOL
	.byte W04
	.byte 30 @ VOL
	.byte W05
	.byte 31 @ VOL
	.byte W04
	.byte 33 @ VOL
	.byte W04
	.byte 34 @ VOL
	.byte W03
	.byte 36 @ VOL
	.byte W03
	.byte 37 @ VOL
	.byte W03
	.byte 38 @ VOL
	.byte W03
	.byte 39 @ VOL
	.byte W02
	.byte 40 @ VOL
	.byte W03
	.byte 42 @ VOL
	.byte W03
	.byte 44 @ VOL
	.byte W01
	.byte 45 @ VOL
	.byte W01
	.byte 47 @ VOL
	.byte W01
	.byte 48 @ VOL
	.byte W01
	.byte 53 @ VOL
	.byte W01
	.byte 54 @ VOL
	.byte W01
	.byte 56 @ VOL
	.byte W01
	.byte 58 @ VOL
	.byte W01
	.byte 61 @ VOL
	.byte W01
	.byte 62 @ VOL
	.byte W01
	.byte 64 @ VOL
	.byte W02
	.byte 67 @ VOL
	.byte W01
	.byte 69 @ VOL
	.byte W01
	.byte 70 @ VOL
	.byte W02
	.byte 74 @ VOL
	.byte W02
	.byte 77 @ VOL
	.byte W02
	.byte 78 @ VOL
	.byte W02
	.byte 80 @ VOL
	.byte W02
	.byte 81 @ VOL
	.byte W01
	.byte 83 @ VOL
	.byte W03
	.byte 85 @ VOL
	.byte W03
	.byte 85 @ VOL
	.byte W03
	.byte 86 @ VOL
	.byte W04
	.byte 88 @ VOL
	.byte W05
	.byte 89 @ VOL
	.byte W03
	.byte 56 @ VOL
	.byte N96, As4 @ v068
	.byte W01
	.byte VOL, 56
	.byte W02
	.byte 55 @ VOL
	.byte W02
	.byte 55 @ VOL
	.byte W02
	.byte 54 @ VOL
	.byte W02
	.byte 53 @ VOL
	.byte W02
	.byte 52 @ VOL
	.byte W02
	.byte 51 @ VOL
	.byte W02
	.byte 51 @ VOL
	.byte W03
	.byte 50 @ VOL
	.byte W02
	.byte 49 @ VOL
	.byte W02
	.byte 48 @ VOL
	.byte W02
	.byte 48 @ VOL
	.byte W02
	.byte 47 @ VOL
	.byte W02
	.byte 46 @ VOL
	.byte W03
	.byte 45 @ VOL
	.byte W02
	.byte 44 @ VOL
	.byte W02
	.byte 44 @ VOL
	.byte W02
	.byte 43 @ VOL
	.byte W02
	.byte 42 @ VOL
	.byte W02
	.byte 41 @ VOL
	.byte W02
	.byte 40 @ VOL
	.byte W03
	.byte 40 @ VOL
	.byte W02
	.byte 39 @ VOL
	.byte W02
	.byte 38 @ VOL
	.byte W02
	.byte 37 @ VOL
	.byte W02
	.byte 37 @ VOL
	.byte W02
	.byte 36 @ VOL
	.byte W03
	.byte 35 @ VOL
	.byte W02
	.byte 34 @ VOL
	.byte W02
	.byte 33 @ VOL
	.byte W02
	.byte 33 @ VOL
	.byte W02
	.byte 32 @ VOL
	.byte W02
	.byte 31 @ VOL
	.byte W02
	.byte 30 @ VOL
	.byte W03
	.byte 29 @ VOL
	.byte W02
	.byte 29 @ VOL
	.byte W02
	.byte 28 @ VOL
	.byte W02
	.byte 27 @ VOL
	.byte W02
	.byte 26 @ VOL
	.byte W02
	.byte 25 @ VOL
	.byte W02
	.byte 25 @ VOL
	.byte W03
	.byte 24 @ VOL
	.byte W02
	.byte 23 @ VOL
	.byte W05
	.byte 22 @ VOL
	.byte N96, An4, v072
	.byte W02
	.byte VOL, 25
	.byte W03
	.byte 26 @ VOL
	.byte W04
	.byte 28 @ VOL
	.byte W04
	.byte 29 @ VOL
	.byte W04
	.byte 30 @ VOL
	.byte W05
	.byte 31 @ VOL
	.byte W04
	.byte 33 @ VOL
	.byte W04
	.byte 34 @ VOL
	.byte W03
	.byte 36 @ VOL
	.byte W03
	.byte 37 @ VOL
	.byte W03
	.byte 38 @ VOL
	.byte W03
	.byte 39 @ VOL
	.byte W02
	.byte 40 @ VOL
	.byte W03
	.byte 42 @ VOL
	.byte W03
	.byte 44 @ VOL
	.byte W01
	.byte 45 @ VOL
	.byte W01
	.byte 47 @ VOL
	.byte W01
	.byte 48 @ VOL
	.byte W01
	.byte 53 @ VOL
	.byte W01
	.byte 54 @ VOL
	.byte W01
	.byte 56 @ VOL
	.byte W01
	.byte 58 @ VOL
	.byte W01
	.byte 61 @ VOL
	.byte W01
	.byte 62 @ VOL
	.byte W01
	.byte 64 @ VOL
	.byte W02
	.byte 67 @ VOL
	.byte W01
	.byte 69 @ VOL
	.byte W01
	.byte 70 @ VOL
	.byte W02
	.byte 74 @ VOL
	.byte W02
	.byte 77 @ VOL
	.byte W02
	.byte 78 @ VOL
	.byte W02
	.byte 80 @ VOL
	.byte W02
	.byte 81 @ VOL
	.byte W01
	.byte 83 @ VOL
	.byte W03
	.byte 85 @ VOL
	.byte W03
	.byte 85 @ VOL
	.byte W03
	.byte 86 @ VOL
	.byte W04
	.byte 88 @ VOL
	.byte W05
	.byte 89 @ VOL
	.byte W03
	.byte 59 @ VOL
	.byte N96, As4 @ v072
	.byte W01
	.byte VOL, 56
	.byte W02
	.byte 55 @ VOL
	.byte W02
	.byte 55 @ VOL
	.byte W02
	.byte 54 @ VOL
	.byte W02
	.byte 53 @ VOL
	.byte W02
	.byte 52 @ VOL
	.byte W02
	.byte 51 @ VOL
	.byte W02
	.byte 51 @ VOL
	.byte W03
	.byte 50 @ VOL
	.byte W02
	.byte 49 @ VOL
	.byte W02
	.byte 48 @ VOL
	.byte W02
	.byte 48 @ VOL
	.byte W02
	.byte 47 @ VOL
	.byte W02
	.byte 46 @ VOL
	.byte W03
	.byte 45 @ VOL
	.byte W02
	.byte 44 @ VOL
	.byte W02
	.byte 44 @ VOL
	.byte W02
	.byte 43 @ VOL
	.byte W02
	.byte 42 @ VOL
	.byte W02
	.byte 41 @ VOL
	.byte W02
	.byte 40 @ VOL
	.byte W03
	.byte 40 @ VOL
	.byte W02
	.byte 39 @ VOL
	.byte W02
	.byte 38 @ VOL
	.byte W02
	.byte 37 @ VOL
	.byte W02
	.byte 37 @ VOL
	.byte W02
	.byte 36 @ VOL
	.byte W03
	.byte 35 @ VOL
	.byte W02
	.byte 34 @ VOL
	.byte W02
	.byte 33 @ VOL
	.byte W02
	.byte 33 @ VOL
	.byte W02
	.byte 32 @ VOL
	.byte W02
	.byte 31 @ VOL
	.byte W02
	.byte 30 @ VOL
	.byte W03
	.byte 29 @ VOL
	.byte W02
	.byte 29 @ VOL
	.byte W02
	.byte 28 @ VOL
	.byte W02
	.byte 27 @ VOL
	.byte W02
	.byte 26 @ VOL
	.byte W02
	.byte 25 @ VOL
	.byte W02
	.byte 25 @ VOL
	.byte W03
	.byte 24 @ VOL
	.byte W02
	.byte 23 @ VOL
	.byte W02
	.byte 22 @ VOL
	.byte W02
	.byte 22 @ VOL
	.byte W01
	.byte N96, An4 @ v072
	.byte W03
	.byte VOL, 25
	.byte W02
	.byte 25 @ VOL
	.byte W02
	.byte 26 @ VOL
	.byte W02
	.byte 27 @ VOL
	.byte W02
	.byte 28 @ VOL
	.byte W02
	.byte 29 @ VOL
	.byte W02
	.byte 29 @ VOL
	.byte W02
	.byte 30 @ VOL
	.byte W02
	.byte 31 @ VOL
	.byte W03
	.byte 32 @ VOL
	.byte W02
	.byte 33 @ VOL
	.byte W02
	.byte 33 @ VOL
	.byte W02
	.byte 34 @ VOL
	.byte W02
	.byte 35 @ VOL
	.byte W02
	.byte 36 @ VOL
	.byte W02
	.byte 37 @ VOL
	.byte W02
	.byte 37 @ VOL
	.byte W02
	.byte 38 @ VOL
	.byte W03
	.byte 39 @ VOL
	.byte W02
	.byte 40 @ VOL
	.byte W02
	.byte 40 @ VOL
	.byte W02
	.byte 41 @ VOL
	.byte W02
	.byte 42 @ VOL
	.byte W02
	.byte 43 @ VOL
	.byte W02
	.byte 44 @ VOL
	.byte W02
	.byte 44 @ VOL
	.byte W03
	.byte 45 @ VOL
	.byte W02
	.byte 46 @ VOL
	.byte W02
	.byte 47 @ VOL
	.byte W02
	.byte 48 @ VOL
	.byte W02
	.byte 48 @ VOL
	.byte W02
	.byte 49 @ VOL
	.byte W02
	.byte 50 @ VOL
	.byte W02
	.byte 51 @ VOL
	.byte W03
	.byte 51 @ VOL
	.byte W02
	.byte 52 @ VOL
	.byte W02
	.byte 53 @ VOL
	.byte W02
	.byte 54 @ VOL
	.byte W02
	.byte 55 @ VOL
	.byte W02
	.byte 55 @ VOL
	.byte W02
	.byte 56 @ VOL
	.byte W02
	.byte 57 @ VOL
	.byte W03
	.byte 58 @ VOL
	.byte W02
	.byte 59 @ VOL
	.byte W02
	.byte 59 @ VOL
	.byte N96, As4, v056
	.byte W01
	.byte VOL, 56
	.byte W02
	.byte 55 @ VOL
	.byte W02
	.byte 55 @ VOL
	.byte W02
	.byte 54 @ VOL
	.byte W02
	.byte 53 @ VOL
	.byte W02
	.byte 52 @ VOL
	.byte W02
	.byte 51 @ VOL
	.byte W02
	.byte 51 @ VOL
	.byte W03
	.byte 50 @ VOL
	.byte W02
	.byte 49 @ VOL
	.byte W02
	.byte 48 @ VOL
	.byte W02
	.byte 48 @ VOL
	.byte W02
	.byte 47 @ VOL
	.byte W02
	.byte 46 @ VOL
	.byte W03
	.byte 45 @ VOL
	.byte W02
	.byte 44 @ VOL
	.byte W02
	.byte 44 @ VOL
	.byte W02
	.byte 43 @ VOL
	.byte W02
	.byte 42 @ VOL
	.byte W02
	.byte 41 @ VOL
	.byte W02
	.byte 40 @ VOL
	.byte W03
	.byte 40 @ VOL
	.byte W02
	.byte 39 @ VOL
	.byte W02
	.byte 38 @ VOL
	.byte W02
	.byte 37 @ VOL
	.byte W02
	.byte 37 @ VOL
	.byte W02
	.byte 36 @ VOL
	.byte W03
	.byte 35 @ VOL
	.byte W02
	.byte 34 @ VOL
	.byte W02
	.byte 33 @ VOL
	.byte W02
	.byte 33 @ VOL
	.byte W02
	.byte 32 @ VOL
	.byte W02
	.byte 31 @ VOL
	.byte W02
	.byte 30 @ VOL
	.byte W03
	.byte 29 @ VOL
	.byte W02
	.byte 29 @ VOL
	.byte W02
	.byte 28 @ VOL
	.byte W02
	.byte 27 @ VOL
	.byte W02
	.byte 26 @ VOL
	.byte W02
	.byte 25 @ VOL
	.byte W02
	.byte 25 @ VOL
	.byte W03
	.byte 24 @ VOL
	.byte W02
	.byte 23 @ VOL
	.byte W02
	.byte 22 @ VOL
	.byte W02
	.byte 22 @ VOL
	.byte W01
	.byte N96, An4 @ v056
	.byte W03
	.byte VOL, 25
	.byte W02
	.byte 25 @ VOL
	.byte W02
	.byte 26 @ VOL
	.byte W02
	.byte 27 @ VOL
	.byte W02
	.byte 28 @ VOL
	.byte W02
	.byte 29 @ VOL
	.byte W02
	.byte 29 @ VOL
	.byte W02
	.byte 30 @ VOL
	.byte W02
	.byte 31 @ VOL
	.byte W03
	.byte 32 @ VOL
	.byte W02
	.byte 33 @ VOL
	.byte W02
	.byte 33 @ VOL
	.byte W02
	.byte 34 @ VOL
	.byte W02
	.byte 35 @ VOL
	.byte W02
	.byte 36 @ VOL
	.byte W02
	.byte 37 @ VOL
	.byte W02
	.byte 37 @ VOL
	.byte W02
	.byte 38 @ VOL
	.byte W03
	.byte 39 @ VOL
	.byte W02
	.byte 40 @ VOL
	.byte W02
	.byte 40 @ VOL
	.byte W02
	.byte 41 @ VOL
	.byte W02
	.byte 42 @ VOL
	.byte W02
	.byte 43 @ VOL
	.byte W02
	.byte 44 @ VOL
	.byte W02
	.byte 44 @ VOL
	.byte W03
	.byte 45 @ VOL
	.byte W02
	.byte 46 @ VOL
	.byte W02
	.byte 47 @ VOL
	.byte W02
	.byte 48 @ VOL
	.byte W02
	.byte 48 @ VOL
	.byte W02
	.byte 49 @ VOL
	.byte W02
	.byte 50 @ VOL
	.byte W02
	.byte 51 @ VOL
	.byte W03
	.byte 51 @ VOL
	.byte W02
	.byte 52 @ VOL
	.byte W02
	.byte 53 @ VOL
	.byte W02
	.byte 54 @ VOL
	.byte W02
	.byte 55 @ VOL
	.byte W02
	.byte 55 @ VOL
	.byte W02
	.byte 56 @ VOL
	.byte W02
	.byte 57 @ VOL
	.byte W03
	.byte 58 @ VOL
	.byte W02
	.byte 59 @ VOL
	.byte W02
	.byte 59 @ VOL
	.byte N96, Gs4, v048
	.byte W01
	.byte VOL, 56
	.byte W02
	.byte 55 @ VOL
	.byte W02
	.byte 55 @ VOL
	.byte W02
	.byte 54 @ VOL
	.byte W02
	.byte 53 @ VOL
	.byte W02
	.byte 52 @ VOL
	.byte W02
	.byte 51 @ VOL
	.byte W02
	.byte 51 @ VOL
	.byte W03
	.byte 50 @ VOL
	.byte W02
	.byte 49 @ VOL
	.byte W02
	.byte 48 @ VOL
	.byte W02
	.byte 48 @ VOL
	.byte W02
	.byte 47 @ VOL
	.byte W02
	.byte 46 @ VOL
	.byte W03
	.byte 45 @ VOL
	.byte W02
	.byte 44 @ VOL
	.byte W02
	.byte 44 @ VOL
	.byte W02
	.byte 43 @ VOL
	.byte W02
	.byte 42 @ VOL
	.byte W02
	.byte 41 @ VOL
	.byte W02
	.byte 40 @ VOL
	.byte W03
	.byte 40 @ VOL
	.byte W02
	.byte 39 @ VOL
	.byte W02
	.byte 38 @ VOL
	.byte W02
	.byte 37 @ VOL
	.byte W02
	.byte 37 @ VOL
	.byte W02
	.byte 36 @ VOL
	.byte W03
	.byte 35 @ VOL
	.byte W02
	.byte 34 @ VOL
	.byte W02
	.byte 33 @ VOL
	.byte W02
	.byte 33 @ VOL
	.byte W02
	.byte 32 @ VOL
	.byte W02
	.byte 31 @ VOL
	.byte W02
	.byte 30 @ VOL
	.byte W03
	.byte 29 @ VOL
	.byte W02
	.byte 29 @ VOL
	.byte W02
	.byte 28 @ VOL
	.byte W02
	.byte 27 @ VOL
	.byte W02
	.byte 26 @ VOL
	.byte W02
	.byte 25 @ VOL
	.byte W02
	.byte 25 @ VOL
	.byte W03
	.byte 24 @ VOL
	.byte W02
	.byte 23 @ VOL
	.byte W02
	.byte 22 @ VOL
	.byte W02
	.byte 22 @ VOL
	.byte W01
	.byte GOTO
		.word track_43_lbl_26328a
	.byte FINE

track_43_1:
	.byte KEYSH, 0
track_43_lbl_263573:
	.byte VOICE, 0
	.byte VOL, 70
	.byte PRIO, 109
	.byte W48
	.byte N08, As1, v032
	.byte W08
	.byte As1, v020 @ N08
	.byte W08
	.byte N08 @ As1, v020
	.byte W08
	.byte N04 @ As1, v020
	.byte W04
	.byte As1, v028 @ N04
	.byte W04
	.byte As1, v036 @ N04
	.byte W04
	.byte As1, v048 @ N04
	.byte W04
	.byte As1, v056 @ N04
	.byte W04
	.byte N42, As1, v068
	.byte W04
	.byte W04
	.byte VOL, 66
	.byte W01
	.byte 63 @ VOL
	.byte W01
	.byte 60 @ VOL
	.byte W01
	.byte 58 @ VOL
	.byte W01
	.byte 55 @ VOL
	.byte W01
	.byte 52 @ VOL
	.byte W01
	.byte 49 @ VOL
	.byte W01
	.byte 47 @ VOL
	.byte W01
	.byte 44 @ VOL
	.byte W01
	.byte 41 @ VOL
	.byte W01
	.byte 39 @ VOL
	.byte W01
	.byte 36 @ VOL
	.byte W01
	.byte 33 @ VOL
	.byte W01
	.byte 30 @ VOL
	.byte W01
	.byte 28 @ VOL
	.byte W01
	.byte 25 @ VOL
	.byte W01
	.byte 22 @ VOL
	.byte W01
	.byte 20 @ VOL
	.byte W01
	.byte 17 @ VOL
	.byte W24
	.byte W02
	.byte VOICE, 12
	.byte VOL, 86
	.byte W24
	.byte N07, Cn3, v120
	.byte W08
	.byte Fn2 @ N07, v120
	.byte W08
	.byte Fs2, v127 @ N07
	.byte W08
	.byte N11, Cn2, v120
	.byte W12
	.byte N12 @ Cn2, v120
	.byte W36
	.byte VOICE, 0
	.byte VOL, 62
	.byte N02, Ds4, v032
	.byte W08
	.byte Ds4, v020 @ N02
	.byte W08
	.byte N02 @ Ds4, v020
	.byte W08
	.byte N02 @ Ds4, v020
	.byte W04
	.byte Ds4, v028 @ N02
	.byte W04
	.byte Ds4, v036 @ N02
	.byte W04
	.byte Ds4, v056 @ N02
	.byte W04
	.byte Ds4, v076 @ N02
	.byte W04
	.byte Ds4, v108 @ N02
	.byte W04
	.byte N02 @ Ds4, v108
	.byte W60
	.byte VOICE, 12
	.byte VOL, 86
	.byte N06, Cn3, v100
	.byte W12
	.byte N07, Fs2, v096
	.byte W12
	.byte N06, Cn2, v120
	.byte W12
	.byte N12, Fn2 @ v120
	.byte W12
	.byte N24, Fs2 @ v120
	.byte W56
	.byte W03
	.byte VOICE, 16
	.byte VOL, 24
	.byte W01
	.byte N24, En4, v052
	.byte W01
	.byte VOL, 25
	.byte W02
	.byte 25 @ VOL
	.byte W01
	.byte 26 @ VOL
	.byte W02
	.byte 27 @ VOL
	.byte W01
	.byte 28 @ VOL
	.byte W02
	.byte 29 @ VOL
	.byte W01
	.byte 29 @ VOL
	.byte W02
	.byte 30 @ VOL
	.byte W01
	.byte 31 @ VOL
	.byte W02
	.byte 32 @ VOL
	.byte W01
	.byte 33 @ VOL
	.byte W01
	.byte 33 @ VOL
	.byte W01
	.byte 33 @ VOL
	.byte W01
	.byte 34 @ VOL
	.byte W02
	.byte 35 @ VOL
	.byte W01
	.byte 36 @ VOL
	.byte W02
	.byte 37 @ VOL
	.byte N96, Ds4 @ v052
	.byte W01
	.byte VOL, 37
	.byte W01
	.byte 38 @ VOL
	.byte W02
	.byte 39 @ VOL
	.byte W01
	.byte 40 @ VOL
	.byte W02
	.byte 40 @ VOL
	.byte W01
	.byte 41 @ VOL
	.byte W02
	.byte 42 @ VOL
	.byte W01
	.byte 43 @ VOL
	.byte W02
	.byte 44 @ VOL
	.byte W01
	.byte 44 @ VOL
	.byte W02
	.byte 45 @ VOL
	.byte W01
	.byte 46 @ VOL
	.byte W02
	.byte 47 @ VOL
	.byte W01
	.byte 48 @ VOL
	.byte W02
	.byte 48 @ VOL
	.byte W01
	.byte 49 @ VOL
	.byte W02
	.byte 50 @ VOL
	.byte W01
	.byte 49 @ VOL
	.byte W01
	.byte 46 @ VOL
	.byte W01
	.byte 45 @ VOL
	.byte W01
	.byte 44 @ VOL
	.byte W01
	.byte 44 @ VOL
	.byte W02
	.byte 43 @ VOL
	.byte W01
	.byte 42 @ VOL
	.byte W01
	.byte 41 @ VOL
	.byte W01
	.byte 40 @ VOL
	.byte W01
	.byte 40 @ VOL
	.byte W01
	.byte 39 @ VOL
	.byte W02
	.byte 38 @ VOL
	.byte W01
	.byte 37 @ VOL
	.byte W01
	.byte 37 @ VOL
	.byte W01
	.byte 36 @ VOL
	.byte W01
	.byte 35 @ VOL
	.byte W01
	.byte 34 @ VOL
	.byte W01
	.byte 33 @ VOL
	.byte W02
	.byte 33 @ VOL
	.byte W01
	.byte 32 @ VOL
	.byte W01
	.byte 31 @ VOL
	.byte W01
	.byte 30 @ VOL
	.byte W01
	.byte 29 @ VOL
	.byte W01
	.byte 29 @ VOL
	.byte W02
	.byte 28 @ VOL
	.byte W01
	.byte 27 @ VOL
	.byte W01
	.byte 26 @ VOL
	.byte W01
	.byte 25 @ VOL
	.byte W01
	.byte 25 @ VOL
	.byte W01
	.byte 24 @ VOL
	.byte W02
	.byte 23 @ VOL
	.byte W01
	.byte 22 @ VOL
	.byte W01
	.byte 22 @ VOL
	.byte W01
	.byte 21 @ VOL
	.byte W01
	.byte 20 @ VOL
	.byte W01
	.byte 19 @ VOL
	.byte W02
	.byte 18 @ VOL
	.byte W01
	.byte 18 @ VOL
	.byte W01
	.byte 17 @ VOL
	.byte W01
	.byte 16 @ VOL
	.byte W01
	.byte 15 @ VOL
	.byte W01
	.byte 14 @ VOL
	.byte W02
	.byte 14 @ VOL
	.byte W01
	.byte 13 @ VOL
	.byte W01
	.byte 12 @ VOL
	.byte W01
	.byte 11 @ VOL
	.byte W01
	.byte 11 @ VOL
	.byte W01
	.byte 10 @ VOL
	.byte W01
	.byte 9 @ VOL
	.byte W02
	.byte 8 @ VOL
	.byte W01
	.byte 7 @ VOL
	.byte W01
	.byte 7 @ VOL
	.byte W01
	.byte 6 @ VOL
	.byte W01
	.byte 5 @ VOL
	.byte W01
	.byte 4 @ VOL
	.byte W02
	.byte 3 @ VOL
	.byte W01
	.byte 3 @ VOL
	.byte W01
	.byte 2 @ VOL
	.byte W01
	.byte 1 @ VOL
	.byte W01
	.byte 0 @ VOL
	.byte W01
	.byte 0 @ VOL
	.byte W01
	.byte VOICE, 19
	.byte VOL, 1
	.byte N96, An4, v056
	.byte W01
	.byte VOL, 1
	.byte W01
	.byte 1 @ VOL
	.byte W01
	.byte 2 @ VOL
	.byte W01
	.byte 2 @ VOL
	.byte W01
	.byte 2 @ VOL
	.byte W01
	.byte 3 @ VOL
	.byte W01
	.byte 3 @ VOL
	.byte W01
	.byte 3 @ VOL
	.byte W01
	.byte 3 @ VOL
	.byte W01
	.byte 3 @ VOL
	.byte W01
	.byte 3 @ VOL
	.byte W01
	.byte 3 @ VOL
	.byte W01
	.byte 4 @ VOL
	.byte W01
	.byte 4 @ VOL
	.byte W01
	.byte 4 @ VOL
	.byte W01
	.byte 5 @ VOL
	.byte W01
	.byte 5 @ VOL
	.byte W01
	.byte 5 @ VOL
	.byte W01
	.byte 6 @ VOL
	.byte W01
	.byte 6 @ VOL
	.byte W01
	.byte 6 @ VOL
	.byte W01
	.byte 7 @ VOL
	.byte W01
	.byte 7 @ VOL
	.byte W01
	.byte 7 @ VOL
	.byte W01
	.byte 7 @ VOL
	.byte W01
	.byte 7 @ VOL
	.byte W01
	.byte 7 @ VOL
	.byte W01
	.byte 8 @ VOL
	.byte W01
	.byte 8 @ VOL
	.byte W01
	.byte 8 @ VOL
	.byte W01
	.byte 9 @ VOL
	.byte W01
	.byte 9 @ VOL
	.byte W01
	.byte 9 @ VOL
	.byte W01
	.byte 9 @ VOL
	.byte W01
	.byte 10 @ VOL
	.byte W01
	.byte 10 @ VOL
	.byte W01
	.byte 10 @ VOL
	.byte W01
	.byte 11 @ VOL
	.byte W01
	.byte 11 @ VOL
	.byte W01
	.byte 11 @ VOL
	.byte W01
	.byte 11 @ VOL
	.byte W01
	.byte 11 @ VOL
	.byte W01
	.byte 11 @ VOL
	.byte W01
	.byte 12 @ VOL
	.byte W01
	.byte 12 @ VOL
	.byte W01
	.byte 12 @ VOL
	.byte W01
	.byte 13 @ VOL
	.byte W01
	.byte 13 @ VOL
	.byte W01
	.byte 13 @ VOL
	.byte W01
	.byte 14 @ VOL
	.byte W01
	.byte 14 @ VOL
	.byte W01
	.byte 14 @ VOL
	.byte W01
	.byte 14 @ VOL
	.byte W01
	.byte 14 @ VOL
	.byte W01
	.byte 14 @ VOL
	.byte W01
	.byte 14 @ VOL
	.byte W01
	.byte 15 @ VOL
	.byte W01
	.byte 15 @ VOL
	.byte W01
	.byte 15 @ VOL
	.byte W01
	.byte 16 @ VOL
	.byte W01
	.byte 16 @ VOL
	.byte W01
	.byte 16 @ VOL
	.byte W01
	.byte 17 @ VOL
	.byte W01
	.byte 17 @ VOL
	.byte W01
	.byte 17 @ VOL
	.byte W01
	.byte 18 @ VOL
	.byte W01
	.byte 18 @ VOL
	.byte W01
	.byte 18 @ VOL
	.byte W01
	.byte 18 @ VOL
	.byte W01
	.byte 18 @ VOL
	.byte W01
	.byte 18 @ VOL
	.byte W01
	.byte 19 @ VOL
	.byte W01
	.byte 19 @ VOL
	.byte W01
	.byte 19 @ VOL
	.byte W01
	.byte 20 @ VOL
	.byte W01
	.byte 20 @ VOL
	.byte W01
	.byte 20 @ VOL
	.byte W01
	.byte 20 @ VOL
	.byte W01
	.byte 21 @ VOL
	.byte W01
	.byte 21 @ VOL
	.byte W01
	.byte 21 @ VOL
	.byte W01
	.byte 22 @ VOL
	.byte W01
	.byte 22 @ VOL
	.byte W01
	.byte 22 @ VOL
	.byte W01
	.byte 22 @ VOL
	.byte W01
	.byte 22 @ VOL
	.byte W01
	.byte 22 @ VOL
	.byte W01
	.byte 23 @ VOL
	.byte W01
	.byte 23 @ VOL
	.byte W01
	.byte 23 @ VOL
	.byte W01
	.byte 24 @ VOL
	.byte W01
	.byte 24 @ VOL
	.byte W01
	.byte 24 @ VOL
	.byte W01
	.byte 22 @ VOL
	.byte W01
	.byte 22 @ VOL
	.byte W01
	.byte 20 @ VOL
	.byte N96, Gs4 @ v056
	.byte W01
	.byte VOL, 18
	.byte W01
	.byte 17 @ VOL
	.byte W02
	.byte 15 @ VOL
	.byte W01
	.byte 14 @ VOL
	.byte W02
	.byte 14 @ VOL
	.byte W03
	.byte 12 @ VOL
	.byte W03
	.byte 11 @ VOL
	.byte W03
	.byte 9 @ VOL
	.byte W03
	.byte 7 @ VOL
	.byte W06
	.byte 7 @ VOL
	.byte W09
	.byte 6 @ VOL
	.byte W10
	.byte 4 @ VOL
	.byte W13
	.byte 3 @ VOL
	.byte W17
	.byte 1 @ VOL
	.byte W16
	.byte 0 @ VOL
	.byte W06
	.byte GOTO
		.word track_43_lbl_263573
	.byte FINE

track_43_2:
	.byte KEYSH, 0
track_43_lbl_2637c6:
	.byte PRIO, 108
	.byte W96
	.byte W96
	.byte W96
	.byte W96
	.byte W12
	.byte VOICE, 17
	.byte VOL, 83
	.byte N84, Fs1, v100
	.byte W14
	.byte VOL, 81
	.byte W07
	.byte 81 @ VOL
	.byte W08
	.byte 80 @ VOL
	.byte W08
	.byte 79 @ VOL
	.byte W08
	.byte 78 @ VOL
	.byte W08
	.byte 77 @ VOL
	.byte W08
	.byte 77 @ VOL
	.byte W08
	.byte 76 @ VOL
	.byte W08
	.byte 75 @ VOL
	.byte W07
	.byte W96
	.byte W96
	.byte W96
	.byte GOTO
		.word track_43_lbl_2637c6
	.byte FINE

track_43_3:
	.byte KEYSH, 0
track_43_lbl_2637f3:
	.byte PRIO, 30
	.byte W96
	.byte W96
	.byte W96
	.byte W96
	.byte W68
	.byte W03
	.byte VOICE, 16
	.byte VOL, 24
	.byte W01
	.byte N24, Fn3, v040
	.byte W01
	.byte VOL, 25
	.byte W02
	.byte 25 @ VOL
	.byte W01
	.byte 26 @ VOL
	.byte W02
	.byte 27 @ VOL
	.byte W01
	.byte 28 @ VOL
	.byte W02
	.byte 29 @ VOL
	.byte W01
	.byte 29 @ VOL
	.byte W02
	.byte 30 @ VOL
	.byte W01
	.byte 31 @ VOL
	.byte W02
	.byte 32 @ VOL
	.byte W01
	.byte 33 @ VOL
	.byte W01
	.byte 33 @ VOL
	.byte W01
	.byte 33 @ VOL
	.byte W01
	.byte 34 @ VOL
	.byte W02
	.byte 35 @ VOL
	.byte W01
	.byte 36 @ VOL
	.byte W02
	.byte 37 @ VOL
	.byte N96, En3, v052
	.byte W01
	.byte VOL, 37
	.byte W01
	.byte 38 @ VOL
	.byte W02
	.byte 39 @ VOL
	.byte W01
	.byte 40 @ VOL
	.byte W02
	.byte 40 @ VOL
	.byte W01
	.byte 41 @ VOL
	.byte W02
	.byte 42 @ VOL
	.byte W01
	.byte 43 @ VOL
	.byte W02
	.byte 44 @ VOL
	.byte W01
	.byte 44 @ VOL
	.byte W02
	.byte 45 @ VOL
	.byte W01
	.byte 46 @ VOL
	.byte W02
	.byte 47 @ VOL
	.byte W01
	.byte 48 @ VOL
	.byte W02
	.byte 48 @ VOL
	.byte W01
	.byte 49 @ VOL
	.byte W02
	.byte 50 @ VOL
	.byte W01
	.byte 49 @ VOL
	.byte W01
	.byte 46 @ VOL
	.byte W01
	.byte 45 @ VOL
	.byte W01
	.byte 44 @ VOL
	.byte W01
	.byte 44 @ VOL
	.byte W02
	.byte 43 @ VOL
	.byte W01
	.byte 42 @ VOL
	.byte W01
	.byte 41 @ VOL
	.byte W01
	.byte 40 @ VOL
	.byte W01
	.byte 40 @ VOL
	.byte W01
	.byte 39 @ VOL
	.byte W02
	.byte 38 @ VOL
	.byte W01
	.byte 37 @ VOL
	.byte W01
	.byte 37 @ VOL
	.byte W01
	.byte 36 @ VOL
	.byte W01
	.byte 35 @ VOL
	.byte W01
	.byte 34 @ VOL
	.byte W01
	.byte 33 @ VOL
	.byte W02
	.byte 33 @ VOL
	.byte W01
	.byte 32 @ VOL
	.byte W01
	.byte 31 @ VOL
	.byte W01
	.byte 30 @ VOL
	.byte W01
	.byte 29 @ VOL
	.byte W01
	.byte 29 @ VOL
	.byte W02
	.byte 28 @ VOL
	.byte W01
	.byte 27 @ VOL
	.byte W01
	.byte 26 @ VOL
	.byte W01
	.byte 25 @ VOL
	.byte W01
	.byte 25 @ VOL
	.byte W01
	.byte 24 @ VOL
	.byte W02
	.byte 23 @ VOL
	.byte W01
	.byte 22 @ VOL
	.byte W01
	.byte 22 @ VOL
	.byte W01
	.byte 21 @ VOL
	.byte W01
	.byte 20 @ VOL
	.byte W01
	.byte 19 @ VOL
	.byte W02
	.byte 18 @ VOL
	.byte W01
	.byte 18 @ VOL
	.byte W01
	.byte 17 @ VOL
	.byte W01
	.byte 16 @ VOL
	.byte W01
	.byte 15 @ VOL
	.byte W01
	.byte 14 @ VOL
	.byte W02
	.byte 14 @ VOL
	.byte W01
	.byte 13 @ VOL
	.byte W01
	.byte 12 @ VOL
	.byte W01
	.byte 11 @ VOL
	.byte W01
	.byte 11 @ VOL
	.byte W01
	.byte 10 @ VOL
	.byte W01
	.byte 9 @ VOL
	.byte W02
	.byte 8 @ VOL
	.byte W01
	.byte 7 @ VOL
	.byte W01
	.byte 7 @ VOL
	.byte W01
	.byte 6 @ VOL
	.byte W01
	.byte 5 @ VOL
	.byte W01
	.byte 4 @ VOL
	.byte W02
	.byte 3 @ VOL
	.byte W01
	.byte 3 @ VOL
	.byte W01
	.byte 2 @ VOL
	.byte W01
	.byte 1 @ VOL
	.byte W01
	.byte 0 @ VOL
	.byte W02
	.byte W96
	.byte W96
	.byte GOTO
		.word track_43_lbl_2637f3
	.byte FINE

track_43_4:
	.byte KEYSH, 0
track_43_lbl_2638cf:
	.byte PRIO, 110
	.byte W96
	.byte W96
	.byte W96
	.byte W96
	.byte W68
	.byte W03
	.byte VOICE, 3
	.byte VOL, 39
	.byte W01
	.byte N24, Bn3, v052
	.byte W24
	.byte VOL, 37
	.byte N96, As3, v072
	.byte W01
	.byte VOL, 37
	.byte W01
	.byte 38 @ VOL
	.byte W02
	.byte 39 @ VOL
	.byte W01
	.byte 40 @ VOL
	.byte W02
	.byte 40 @ VOL
	.byte W01
	.byte 41 @ VOL
	.byte W02
	.byte 42 @ VOL
	.byte W01
	.byte 43 @ VOL
	.byte W02
	.byte 44 @ VOL
	.byte W01
	.byte 44 @ VOL
	.byte W02
	.byte 45 @ VOL
	.byte W01
	.byte 46 @ VOL
	.byte W02
	.byte 47 @ VOL
	.byte W01
	.byte 48 @ VOL
	.byte W02
	.byte 48 @ VOL
	.byte W01
	.byte 49 @ VOL
	.byte W02
	.byte 50 @ VOL
	.byte W01
	.byte 49 @ VOL
	.byte W01
	.byte 46 @ VOL
	.byte W01
	.byte 45 @ VOL
	.byte W01
	.byte 44 @ VOL
	.byte W01
	.byte 44 @ VOL
	.byte W02
	.byte 43 @ VOL
	.byte W01
	.byte 42 @ VOL
	.byte W01
	.byte 41 @ VOL
	.byte W01
	.byte 40 @ VOL
	.byte W01
	.byte 40 @ VOL
	.byte W01
	.byte 39 @ VOL
	.byte W02
	.byte 38 @ VOL
	.byte W01
	.byte 37 @ VOL
	.byte W01
	.byte 37 @ VOL
	.byte W01
	.byte 36 @ VOL
	.byte W01
	.byte 35 @ VOL
	.byte W01
	.byte 34 @ VOL
	.byte W01
	.byte 33 @ VOL
	.byte W02
	.byte 33 @ VOL
	.byte W01
	.byte 32 @ VOL
	.byte W01
	.byte 31 @ VOL
	.byte W01
	.byte 30 @ VOL
	.byte W01
	.byte 29 @ VOL
	.byte W01
	.byte 29 @ VOL
	.byte W02
	.byte 28 @ VOL
	.byte W01
	.byte 27 @ VOL
	.byte W01
	.byte 26 @ VOL
	.byte W01
	.byte 25 @ VOL
	.byte W01
	.byte 25 @ VOL
	.byte W01
	.byte 24 @ VOL
	.byte W02
	.byte 23 @ VOL
	.byte W01
	.byte 22 @ VOL
	.byte W01
	.byte 22 @ VOL
	.byte W01
	.byte 21 @ VOL
	.byte W01
	.byte 20 @ VOL
	.byte W01
	.byte 19 @ VOL
	.byte W02
	.byte 18 @ VOL
	.byte W01
	.byte 18 @ VOL
	.byte W01
	.byte 17 @ VOL
	.byte W01
	.byte 16 @ VOL
	.byte W01
	.byte 15 @ VOL
	.byte W01
	.byte 14 @ VOL
	.byte W02
	.byte 14 @ VOL
	.byte W01
	.byte 13 @ VOL
	.byte W01
	.byte 12 @ VOL
	.byte W01
	.byte 11 @ VOL
	.byte W01
	.byte 11 @ VOL
	.byte W01
	.byte 10 @ VOL
	.byte W01
	.byte 9 @ VOL
	.byte W02
	.byte 8 @ VOL
	.byte W01
	.byte 7 @ VOL
	.byte W01
	.byte 7 @ VOL
	.byte W01
	.byte 6 @ VOL
	.byte W01
	.byte 5 @ VOL
	.byte W01
	.byte 4 @ VOL
	.byte W02
	.byte 3 @ VOL
	.byte W01
	.byte 3 @ VOL
	.byte W01
	.byte 2 @ VOL
	.byte W01
	.byte 1 @ VOL
	.byte W01
	.byte 0 @ VOL
	.byte W02
	.byte W96
	.byte W96
	.byte GOTO
		.word track_43_lbl_2638cf
	.byte FINE

.align 2

track_43:
	.byte 5
	.byte 43
	.byte 130
	.byte 128
	.word 0x80a5e3c
	.word track_43_0
	.word track_43_1
	.word track_43_2
	.word track_43_3
	.word track_43_4

.align 2
