.align 2

.global track_92

track_92_0:
	.byte KEYSH, 0
	.byte TEMPO, 30
	.byte VOICE, 8
	.byte VOL, 56
	.byte PAN, c_v
	.byte PRIO, 110
	.byte W48
	.byte N16, An3, v028
	.byte W08
	.byte Cs4, v032 @ N16
	.byte W08
	.byte Cn4 @ N16, v032
	.byte W08
	.byte An3 @ N16, v032
	.byte W08
	.byte Cs4, v036 @ N16
	.byte W08
	.byte Cn4 @ N16, v036
	.byte W08
	.byte As3, v040 @ N16
	.byte W08
	.byte Dn4 @ N16, v040
	.byte W08
	.byte Cs4, v044 @ N16
	.byte W08
	.byte As3 @ N16, v044
	.byte W08
	.byte Dn4 @ N16, v044
	.byte W08
	.byte Cs4, v048 @ N16
	.byte W08
	.byte An3 @ N16, v048
	.byte W08
	.byte Cs4, v052 @ N16
	.byte W08
	.byte Cn4, v056 @ N16
	.byte W08
	.byte An3, v060 @ N16
	.byte W08
	.byte Cs4, v064 @ N16
	.byte W08
	.byte Cn4, v068 @ N16
	.byte W08
	.byte As3, v072 @ N16
	.byte W08
	.byte Dn4, v076 @ N16
	.byte W03
	.byte VOL, 57
	.byte W02
	.byte 58 @ VOL
	.byte W01
	.byte 58 @ VOL
	.byte W02
	.byte 59 @ VOL
	.byte N16, Cs4 @ v076
	.byte W01
	.byte VOL, 60
	.byte W02
	.byte 60 @ VOL
	.byte W01
	.byte 61 @ VOL
	.byte W02
	.byte 62 @ VOL
	.byte W02
	.byte 63 @ VOL
	.byte N16, As3, v084
	.byte W01
	.byte VOL, 63
	.byte W02
	.byte 64 @ VOL
	.byte W01
	.byte 65 @ VOL
	.byte W02
	.byte 65 @ VOL
	.byte W01
	.byte 66 @ VOL
	.byte W01
	.byte N16, Dn4 @ v084
	.byte W01
	.byte VOL, 67
	.byte W01
	.byte 68 @ VOL
	.byte W02
	.byte 68 @ VOL
	.byte W01
	.byte 69 @ VOL
	.byte W02
	.byte 70 @ VOL
	.byte W01
	.byte 70 @ VOL
	.byte N16, Cs4, v088
	.byte W02
	.byte VOL, 71
	.byte W01
	.byte 70 @ VOL
	.byte W02
	.byte 69 @ VOL
	.byte W02
	.byte 68 @ VOL
	.byte W01
	.byte N16, An3, v092
	.byte W01
	.byte VOL, 68
	.byte W02
	.byte 67 @ VOL
	.byte W02
	.byte 66 @ VOL
	.byte W02
	.byte 65 @ VOL
	.byte W01
	.byte N16, Cs4, v084
	.byte W01
	.byte VOL, 65
	.byte W02
	.byte 64 @ VOL
	.byte W02
	.byte 63 @ VOL
	.byte W02
	.byte 63 @ VOL
	.byte W01
	.byte N16, Cn4, v076
	.byte W01
	.byte VOL, 62
	.byte W02
	.byte 61 @ VOL
	.byte W02
	.byte 60 @ VOL
	.byte W02
	.byte 60 @ VOL
	.byte W01
	.byte N16, An3, v072
	.byte W01
	.byte VOL, 59
	.byte W02
	.byte 58 @ VOL
	.byte W02
	.byte 58 @ VOL
	.byte W02
	.byte 57 @ VOL
	.byte W01
	.byte N16, Cs4, v064
	.byte W01
	.byte VOL, 56
	.byte W02
	.byte 55 @ VOL
	.byte W02
	.byte 55 @ VOL
	.byte W02
	.byte 54 @ VOL
	.byte W01
	.byte N16, Cn4, v056
	.byte W01
	.byte VOL, 53
	.byte W02
	.byte 53 @ VOL
	.byte W02
	.byte 52 @ VOL
	.byte W02
	.byte 51 @ VOL
	.byte W01
	.byte N16, As3, v048
	.byte W01
	.byte VOL, 51
	.byte W02
	.byte 50 @ VOL
	.byte W02
	.byte 49 @ VOL
	.byte W02
	.byte 48 @ VOL
	.byte W01
	.byte N16, Dn4 @ v048
	.byte W01
	.byte VOL, 48
	.byte W02
	.byte 47 @ VOL
	.byte W02
	.byte 46 @ VOL
	.byte W02
	.byte 46 @ VOL
	.byte W01
	.byte N16, Cs4 @ v048
	.byte W01
	.byte VOL, 45
	.byte W02
	.byte 44 @ VOL
	.byte W02
	.byte 43 @ VOL
	.byte W02
	.byte 43 @ VOL
	.byte W01
	.byte N16, As3 @ v048
	.byte W01
	.byte VOL, 42
	.byte W02
	.byte 41 @ VOL
	.byte W02
	.byte 41 @ VOL
	.byte W02
	.byte 40 @ VOL
	.byte W01
	.byte N16, Dn4 @ v048
	.byte W01
	.byte VOL, 39
	.byte W02
	.byte 38 @ VOL
	.byte W02
	.byte 38 @ VOL
	.byte W03
	.byte 38 @ VOL
	.byte N16, Cs4 @ v048
	.byte W02
	.byte VOL, 39
	.byte W02
	.byte 40 @ VOL
	.byte W02
	.byte 41 @ VOL
	.byte W02
	.byte 41 @ VOL
	.byte N16, An3 @ v048
	.byte W02
	.byte VOL, 42
	.byte W02
	.byte 43 @ VOL
	.byte W03
	.byte 43 @ VOL
	.byte W01
	.byte N16, Cs4, v052
	.byte W01
	.byte VOL, 44
	.byte W02
	.byte 45 @ VOL
	.byte W02
	.byte 46 @ VOL
	.byte W02
	.byte 46 @ VOL
	.byte W01
	.byte N16, Cn4, v056
	.byte W01
	.byte VOL, 47
	.byte W02
	.byte 48 @ VOL
	.byte W03
	.byte 48 @ VOL
	.byte W02
	.byte 49 @ VOL
	.byte N16, An3, v060
	.byte W02
	.byte VOL, 50
	.byte W02
	.byte 51 @ VOL
	.byte W02
	.byte 51 @ VOL
	.byte W02
	.byte 52 @ VOL
	.byte N16, Cs4, v064
	.byte W02
	.byte VOL, 53
	.byte W03
	.byte 53 @ VOL
	.byte W02
	.byte 54 @ VOL
	.byte W01
	.byte N16, Cn4, v068
	.byte W01
	.byte VOL, 55
	.byte W02
	.byte 55 @ VOL
	.byte W02
	.byte 56 @ VOL
	.byte W02
	.byte 57 @ VOL
	.byte W01
	.byte N16, As3, v072
	.byte W01
	.byte VOL, 58
	.byte W03
	.byte 58 @ VOL
	.byte W02
	.byte 59 @ VOL
	.byte W02
	.byte 60 @ VOL
	.byte N16, Dn4, v076
	.byte W02
	.byte VOL, 60
	.byte W02
	.byte 61 @ VOL
	.byte W02
	.byte 62 @ VOL
	.byte W02
	.byte N16, Cs4 @ v076
	.byte W01
	.byte VOL, 63
	.byte W02
	.byte 63 @ VOL
	.byte W02
	.byte 64 @ VOL
	.byte W02
	.byte 65 @ VOL
	.byte W01
	.byte N16, As3, v084
	.byte W01
	.byte VOL, 65
	.byte W02
	.byte 66 @ VOL
	.byte W02
	.byte 67 @ VOL
	.byte W03
	.byte 68 @ VOL
	.byte N16, Dn4 @ v084
	.byte W02
	.byte VOL, 68
	.byte W02
	.byte 69 @ VOL
	.byte W02
	.byte 70 @ VOL
	.byte W02
	.byte 70 @ VOL
	.byte N16, Cs4, v088
	.byte W02
	.byte VOL, 71
	.byte W02
	.byte 72 @ VOL
	.byte W03
	.byte 70 @ VOL
	.byte W01
track_92_lbl_26ea40:
	.byte N16, An3, v092
	.byte W01
	.byte VOL, 70
	.byte W02
	.byte 69 @ VOL
	.byte W02
	.byte 68 @ VOL
	.byte W03
	.byte 68 @ VOL
	.byte N16, Cs4, v088
	.byte W02
	.byte VOL, 67
	.byte W02
	.byte 66 @ VOL
	.byte W03
	.byte 65 @ VOL
	.byte W01
	.byte N16, Cn4, v084
	.byte W01
	.byte VOL, 65
	.byte W02
	.byte 64 @ VOL
	.byte W03
	.byte 63 @ VOL
	.byte W02
	.byte 63 @ VOL
	.byte N16, An3 @ v084
	.byte W02
	.byte VOL, 62
	.byte W03
	.byte 61 @ VOL
	.byte W02
	.byte 60 @ VOL
	.byte W01
	.byte N16, Cs4, v076
	.byte W01
	.byte VOL, 60
	.byte W03
	.byte 59 @ VOL
	.byte W02
	.byte 58 @ VOL
	.byte W02
	.byte 58 @ VOL
	.byte N16, Cn4 @ v076
	.byte W02
	.byte VOL, 57
	.byte W03
	.byte 56 @ VOL
	.byte W02
	.byte 55 @ VOL
	.byte W01
	.byte N16, As3, v072
	.byte W01
	.byte VOL, 55
	.byte W03
	.byte 54 @ VOL
	.byte W02
	.byte 53 @ VOL
	.byte W02
	.byte 53 @ VOL
	.byte N16, Dn4, v068
	.byte W03
	.byte VOL, 52
	.byte W02
	.byte 51 @ VOL
	.byte W02
	.byte 51 @ VOL
	.byte W01
	.byte N16, Cs4, v064
	.byte W02
	.byte VOL, 50
	.byte W02
	.byte 49 @ VOL
	.byte W02
	.byte 48 @ VOL
	.byte W02
	.byte N16, As3, v060
	.byte W01
	.byte VOL, 48
	.byte W02
	.byte 47 @ VOL
	.byte W02
	.byte 46 @ VOL
	.byte W03
	.byte 46 @ VOL
	.byte N16, Dn4, v056
	.byte W02
	.byte VOL, 45
	.byte W02
	.byte 44 @ VOL
	.byte W03
	.byte 43 @ VOL
	.byte W01
	.byte N16, Cs4, v052
	.byte W01
	.byte VOL, 43
	.byte W02
	.byte 42 @ VOL
	.byte W03
	.byte 41 @ VOL
	.byte W02
	.byte 41 @ VOL
	.byte N16, An3, v048
	.byte W02
	.byte VOL, 40
	.byte W03
	.byte 39 @ VOL
	.byte W03
	.byte N16, Cs4 @ v048
	.byte W08
	.byte Cn4 @ N16, v048
	.byte W08
	.byte An3 @ N16, v048
	.byte W08
	.byte Cs4 @ N16, v048
	.byte W08
	.byte Cn4 @ N16, v048
	.byte W08
	.byte As3 @ N16, v048
	.byte W08
	.byte Dn4 @ N16, v048
	.byte W08
	.byte Cs4 @ N16, v048
	.byte W08
	.byte As3 @ N16, v048
	.byte W08
	.byte Dn4 @ N16, v048
	.byte W08
	.byte Cs4 @ N16, v048
	.byte W08
	.byte An3 @ N16, v048
	.byte W08
	.byte Cs4 @ N16, v048
	.byte W08
	.byte Cn4 @ N16, v048
	.byte W08
	.byte An3 @ N16, v048
	.byte W02
	.byte VOL, 40
	.byte W02
	.byte 41 @ VOL
	.byte W01
	.byte 41 @ VOL
	.byte W01
	.byte 42 @ VOL
	.byte W02
	.byte 43 @ VOL
	.byte N16, Cs4, v052
	.byte W01
	.byte VOL, 43
	.byte W02
	.byte 44 @ VOL
	.byte W01
	.byte 45 @ VOL
	.byte W01
	.byte 46 @ VOL
	.byte W02
	.byte 46 @ VOL
	.byte W01
	.byte 47 @ VOL
	.byte N16, Cn4, v056
	.byte W01
	.byte VOL, 48
	.byte W02
	.byte 48 @ VOL
	.byte W01
	.byte 49 @ VOL
	.byte W02
	.byte 50 @ VOL
	.byte W01
	.byte 51 @ VOL
	.byte W01
	.byte 51 @ VOL
	.byte N16, As3, v064
	.byte W02
	.byte VOL, 52
	.byte W01
	.byte 53 @ VOL
	.byte W02
	.byte 53 @ VOL
	.byte W01
	.byte 54 @ VOL
	.byte W01
	.byte 55 @ VOL
	.byte W01
	.byte N16, Dn4, v068
	.byte W01
	.byte VOL, 55
	.byte W01
	.byte 56 @ VOL
	.byte W02
	.byte 57 @ VOL
	.byte W01
	.byte 58 @ VOL
	.byte W01
	.byte 58 @ VOL
	.byte W02
	.byte 59 @ VOL
	.byte N16, Cs4, v072
	.byte W01
	.byte VOL, 60
	.byte W02
	.byte 60 @ VOL
	.byte W01
	.byte 61 @ VOL
	.byte W01
	.byte 62 @ VOL
	.byte W02
	.byte 63 @ VOL
	.byte W01
	.byte 63 @ VOL
	.byte N16, As3, v076
	.byte W01
	.byte VOL, 64
	.byte W02
	.byte 65 @ VOL
	.byte W01
	.byte 65 @ VOL
	.byte W02
	.byte 66 @ VOL
	.byte W01
	.byte 67 @ VOL
	.byte W01
	.byte 68 @ VOL
	.byte N16, Dn4, v084
	.byte W02
	.byte VOL, 68
	.byte W01
	.byte 69 @ VOL
	.byte W02
	.byte 70 @ VOL
	.byte W01
	.byte 70 @ VOL
	.byte W02
	.byte N08, Cs4, v088
	.byte W08
	.byte GOTO
		.word track_92_lbl_26ea40
	.byte FINE

track_92_1:
	.byte KEYSH, 0
	.byte VOICE, 3
	.byte VOL, 14
	.byte PAN, c_v
	.byte PRIO, 109
	.byte TIE, An5, v020
	.byte W19
	.byte VOL, 14
	.byte W02
	.byte 15 @ VOL
	.byte W01
	.byte 16 @ VOL
	.byte W01
	.byte 17 @ VOL
	.byte W02
	.byte 17 @ VOL
	.byte W01
	.byte 18 @ VOL
	.byte W01
	.byte 19 @ VOL
	.byte W02
	.byte 19 @ VOL
	.byte W01
	.byte 20 @ VOL
	.byte W01
	.byte 21 @ VOL
	.byte W02
	.byte 21 @ VOL
	.byte W01
	.byte 22 @ VOL
	.byte W01
	.byte 23 @ VOL
	.byte W01
	.byte 24 @ VOL
	.byte W02
	.byte 24 @ VOL
	.byte W01
	.byte 25 @ VOL
	.byte W01
	.byte 26 @ VOL
	.byte W02
	.byte 26 @ VOL
	.byte W01
	.byte 27 @ VOL
	.byte W01
	.byte 28 @ VOL
	.byte W02
	.byte 29 @ VOL
	.byte W01
	.byte 29 @ VOL
	.byte W01
	.byte 30 @ VOL
	.byte W02
	.byte 31 @ VOL
	.byte W01
	.byte 31 @ VOL
	.byte W01
	.byte 32 @ VOL
	.byte W02
	.byte 33 @ VOL
	.byte W01
	.byte 34 @ VOL
	.byte W01
	.byte 34 @ VOL
	.byte W40
	.byte W84
	.byte 34 @ VOL
	.byte W01
	.byte 33 @ VOL
	.byte W02
	.byte 32 @ VOL
	.byte W01
	.byte 31 @ VOL
	.byte W02
	.byte 31 @ VOL
	.byte W01
	.byte 30 @ VOL
	.byte W02
	.byte 29 @ VOL
	.byte W01
	.byte 29 @ VOL
	.byte W02
	.byte 28 @ VOL
	.byte W01
	.byte 27 @ VOL
	.byte W02
	.byte 26 @ VOL
	.byte W01
	.byte 26 @ VOL
	.byte W02
	.byte 25 @ VOL
	.byte W01
	.byte 24 @ VOL
	.byte W02
	.byte 24 @ VOL
	.byte W01
	.byte 23 @ VOL
	.byte W02
	.byte 22 @ VOL
	.byte W01
	.byte 21 @ VOL
	.byte W02
	.byte 21 @ VOL
	.byte W01
	.byte 20 @ VOL
	.byte W02
	.byte 19 @ VOL
	.byte W01
	.byte 19 @ VOL
	.byte W02
	.byte 18 @ VOL
	.byte W01
	.byte 17 @ VOL
	.byte W02
	.byte 17 @ VOL
	.byte W01
	.byte 16 @ VOL
	.byte W02
	.byte 15 @ VOL
	.byte W01
	.byte 14 @ VOL
	.byte W01
	.byte 14 @ VOL
	.byte W02
	.byte 13 @ VOL
	.byte W01
	.byte 12 @ VOL
	.byte W02
	.byte 12 @ VOL
	.byte W01
	.byte 11 @ VOL
	.byte W02
	.byte 10 @ VOL
	.byte W01
	.byte 9 @ VOL
	.byte W02
	.byte 9 @ VOL
	.byte W01
	.byte 8 @ VOL
	.byte W02
	.byte 7 @ VOL
	.byte W01
	.byte 7 @ VOL
	.byte W02
	.byte 6 @ VOL
	.byte W01
	.byte 5 @ VOL
	.byte W48
	.byte W01
	.byte EOT @ An5, v020
	.byte W96
	.byte VOL, 8
	.byte N48 @ An5, v020
	.byte W01
	.byte VOL, 9
	.byte W01
	.byte 12 @ VOL
	.byte W01
	.byte 13 @ VOL
	.byte W01
	.byte 14 @ VOL
	.byte W01
	.byte 16 @ VOL
	.byte W01
	.byte 17 @ VOL
	.byte W01
	.byte 19 @ VOL
	.byte W01
	.byte 21 @ VOL
	.byte W01
	.byte 22 @ VOL
	.byte W01
	.byte 24 @ VOL
	.byte W01
	.byte 25 @ VOL
	.byte W01
	.byte 26 @ VOL
	.byte W01
	.byte 28 @ VOL
	.byte W01
	.byte 30 @ VOL
	.byte W01
	.byte 31 @ VOL
	.byte W01
	.byte 33 @ VOL
	.byte W01
	.byte 34 @ VOL
	.byte W01
	.byte 36 @ VOL
	.byte W01
	.byte 37 @ VOL
	.byte W01
	.byte 39 @ VOL
	.byte W01
	.byte 41 @ VOL
	.byte W01
	.byte 42 @ VOL
	.byte W01
	.byte 43 @ VOL
	.byte W01
	.byte 45 @ VOL
	.byte W01
	.byte 46 @ VOL
	.byte W01
	.byte 48 @ VOL
	.byte W01
	.byte 50 @ VOL
	.byte W01
	.byte 51 @ VOL
	.byte W01
	.byte 53 @ VOL
	.byte W01
	.byte 54 @ VOL
	.byte W01
	.byte 55 @ VOL
	.byte W01
	.byte 57 @ VOL
	.byte W01
	.byte 59 @ VOL
	.byte W01
	.byte 60 @ VOL
	.byte W01
	.byte 62 @ VOL
	.byte W01
	.byte 63 @ VOL
	.byte W01
	.byte 65 @ VOL
	.byte W01
	.byte 66 @ VOL
	.byte W01
	.byte 68 @ VOL
	.byte W01
	.byte 70 @ VOL
	.byte W01
	.byte 71 @ VOL
	.byte W01
	.byte 72 @ VOL
	.byte W01
	.byte 74 @ VOL
	.byte W05
track_92_lbl_26ec6a:
	.byte W48
	.byte W96
	.byte W96
	.byte VOL, 8
	.byte N48, An5, v020
	.byte W01
	.byte VOL, 9
	.byte W01
	.byte 12 @ VOL
	.byte W01
	.byte 13 @ VOL
	.byte W01
	.byte 14 @ VOL
	.byte W01
	.byte 16 @ VOL
	.byte W01
	.byte 17 @ VOL
	.byte W01
	.byte 19 @ VOL
	.byte W01
	.byte 21 @ VOL
	.byte W01
	.byte 22 @ VOL
	.byte W01
	.byte 24 @ VOL
	.byte W01
	.byte 25 @ VOL
	.byte W01
	.byte 26 @ VOL
	.byte W01
	.byte 28 @ VOL
	.byte W01
	.byte 30 @ VOL
	.byte W01
	.byte 31 @ VOL
	.byte W01
	.byte 33 @ VOL
	.byte W01
	.byte 34 @ VOL
	.byte W01
	.byte 36 @ VOL
	.byte W01
	.byte 37 @ VOL
	.byte W01
	.byte 39 @ VOL
	.byte W01
	.byte 41 @ VOL
	.byte W01
	.byte 42 @ VOL
	.byte W01
	.byte 43 @ VOL
	.byte W01
	.byte 45 @ VOL
	.byte W01
	.byte 46 @ VOL
	.byte W01
	.byte 48 @ VOL
	.byte W01
	.byte 50 @ VOL
	.byte W01
	.byte 51 @ VOL
	.byte W01
	.byte 53 @ VOL
	.byte W01
	.byte 54 @ VOL
	.byte W01
	.byte 55 @ VOL
	.byte W01
	.byte 57 @ VOL
	.byte W01
	.byte 59 @ VOL
	.byte W01
	.byte 60 @ VOL
	.byte W01
	.byte 62 @ VOL
	.byte W01
	.byte 63 @ VOL
	.byte W01
	.byte 65 @ VOL
	.byte W01
	.byte 66 @ VOL
	.byte W01
	.byte 68 @ VOL
	.byte W01
	.byte 70 @ VOL
	.byte W01
	.byte 71 @ VOL
	.byte W01
	.byte 72 @ VOL
	.byte W01
	.byte 74 @ VOL
	.byte W05
	.byte GOTO
		.word track_92_lbl_26ec6a
	.byte FINE

track_92_2:
	.byte KEYSH, 0
	.byte VOICE, 3
	.byte VOL, 14
	.byte PAN, c_v
	.byte PRIO, 30
	.byte TIE, En5, v020
	.byte W19
	.byte VOL, 14
	.byte W02
	.byte 15 @ VOL
	.byte W01
	.byte 16 @ VOL
	.byte W01
	.byte 17 @ VOL
	.byte W02
	.byte 17 @ VOL
	.byte W01
	.byte 18 @ VOL
	.byte W01
	.byte 19 @ VOL
	.byte W02
	.byte 19 @ VOL
	.byte W01
	.byte 20 @ VOL
	.byte W01
	.byte 21 @ VOL
	.byte W02
	.byte 21 @ VOL
	.byte W01
	.byte 22 @ VOL
	.byte W01
	.byte 23 @ VOL
	.byte W01
	.byte 24 @ VOL
	.byte W01
	.byte 24 @ VOL
	.byte W01
	.byte 24 @ VOL
	.byte W01
	.byte 25 @ VOL
	.byte W01
	.byte 26 @ VOL
	.byte W02
	.byte 26 @ VOL
	.byte W01
	.byte 27 @ VOL
	.byte W01
	.byte 28 @ VOL
	.byte W02
	.byte 29 @ VOL
	.byte W01
	.byte 29 @ VOL
	.byte W01
	.byte 30 @ VOL
	.byte W02
	.byte 31 @ VOL
	.byte W01
	.byte 31 @ VOL
	.byte W01
	.byte 32 @ VOL
	.byte W02
	.byte 33 @ VOL
	.byte W01
	.byte 34 @ VOL
	.byte W01
	.byte 34 @ VOL
	.byte W32
	.byte W02
	.byte 33 @ VOL
	.byte W01
	.byte 32 @ VOL
	.byte W01
	.byte 31 @ VOL
	.byte W01
	.byte 30 @ VOL
	.byte W01
	.byte 29 @ VOL
	.byte W01
	.byte 27 @ VOL
	.byte W01
	.byte 26 @ VOL
	.byte W01
	.byte 25 @ VOL
	.byte W01
	.byte 24 @ VOL
	.byte W01
	.byte 23 @ VOL
	.byte W01
	.byte 22 @ VOL
	.byte W01
	.byte 21 @ VOL
	.byte W01
	.byte 19 @ VOL
	.byte W01
	.byte 19 @ VOL
	.byte W01
	.byte 17 @ VOL
	.byte W01
	.byte 17 @ VOL
	.byte W01
	.byte 15 @ VOL
	.byte W01
	.byte 14 @ VOL
	.byte W01
	.byte 13 @ VOL
	.byte W01
	.byte 12 @ VOL
	.byte W01
	.byte 11 @ VOL
	.byte W01
	.byte 9 @ VOL
	.byte W01
	.byte 8 @ VOL
	.byte W01
	.byte 7 @ VOL
	.byte W01
	.byte 6 @ VOL
	.byte W01
	.byte 5 @ VOL
	.byte W01
	.byte 4 @ VOL
	.byte W01
	.byte 3 @ VOL
	.byte W01
	.byte EOT @ En5, v020
	.byte VOL, 2
	.byte W01
	.byte 0 @ VOL
	.byte W72
	.byte W01
	.byte W96
	.byte W96
	.byte W48
track_92_lbl_26ed5e:
	.byte W48
	.byte W96
	.byte W96
	.byte W48
	.byte GOTO
		.word track_92_lbl_26ed5e
	.byte FINE

.align 2

track_92:
	.byte 3
	.byte 92
	.byte 130
	.byte 128
	.word 0x80a64c0
	.word track_92_0
	.word track_92_1
	.word track_92_2

.align 2
