.align 2

.global track_7

track_7_0:
	.byte KEYSH, 0
track_7_lbl_25aaaa:
	.byte TEMPO, 25
	.byte VOICE, 11
	.byte VOL, 41
	.byte PAN, c_v
	.byte PRIO, 110
	.byte N96, Cs1, v120
	.byte W10
	.byte VOL, 38
	.byte W04
	.byte 39 @ VOL
	.byte W04
	.byte 41 @ VOL
	.byte W03
	.byte 42 @ VOL
	.byte W04
	.byte 43 @ VOL
	.byte W04
	.byte 45 @ VOL
	.byte W04
	.byte 46 @ VOL
	.byte W03
	.byte 48 @ VOL
	.byte W01
	.byte 48 @ VOL
	.byte W03
	.byte 49 @ VOL
	.byte W04
	.byte 51 @ VOL
	.byte W04
	.byte 52 @ VOL
	.byte W03
	.byte 53 @ VOL
	.byte W04
	.byte 55 @ VOL
	.byte W04
	.byte 56 @ VOL
	.byte W04
	.byte 58 @ VOL
	.byte W04
	.byte 59 @ VOL
	.byte W03
	.byte 60 @ VOL
	.byte W04
	.byte 62 @ VOL
	.byte W04
	.byte 63 @ VOL
	.byte W04
	.byte 65 @ VOL
	.byte W03
	.byte 66 @ VOL
	.byte W04
	.byte 68 @ VOL
	.byte W04
	.byte 69 @ VOL
	.byte W02
	.byte 68 @ VOL
	.byte W01
	.byte 65 @ VOL
	.byte N96 @ Cs1, v120
	.byte W01
	.byte VOL, 62
	.byte W01
	.byte 60 @ VOL
	.byte W01
	.byte 58 @ VOL
	.byte W01
	.byte 56 @ VOL
	.byte W01
	.byte 55 @ VOL
	.byte W01
	.byte 53 @ VOL
	.byte W01
	.byte 52 @ VOL
	.byte W01
	.byte 51 @ VOL
	.byte W01
	.byte 49 @ VOL
	.byte W03
	.byte 48 @ VOL
	.byte W02
	.byte 46 @ VOL
	.byte W01
	.byte 45 @ VOL
	.byte W03
	.byte 43 @ VOL
	.byte W01
	.byte 42 @ VOL
	.byte W06
	.byte 42 @ VOL
	.byte W01
	.byte 43 @ VOL
	.byte W01
	.byte 43 @ VOL
	.byte W01
	.byte 43 @ VOL
	.byte W01
	.byte 43 @ VOL
	.byte W01
	.byte 44 @ VOL
	.byte W01
	.byte 44 @ VOL
	.byte W01
	.byte 45 @ VOL
	.byte W01
	.byte 45 @ VOL
	.byte W01
	.byte 46 @ VOL
	.byte W01
	.byte 46 @ VOL
	.byte W01
	.byte 46 @ VOL
	.byte W01
	.byte 46 @ VOL
	.byte W01
	.byte 47 @ VOL
	.byte W01
	.byte 47 @ VOL
	.byte W01
	.byte 48 @ VOL
	.byte W01
	.byte 48 @ VOL
	.byte W01
	.byte 48 @ VOL
	.byte W01
	.byte 48 @ VOL
	.byte W01
	.byte 49 @ VOL
	.byte W01
	.byte 49 @ VOL
	.byte W01
	.byte 50 @ VOL
	.byte W01
	.byte 50 @ VOL
	.byte W01
	.byte 51 @ VOL
	.byte W01
	.byte 51 @ VOL
	.byte W01
	.byte 51 @ VOL
	.byte W01
	.byte 51 @ VOL
	.byte W01
	.byte 52 @ VOL
	.byte W01
	.byte 52 @ VOL
	.byte W01
	.byte 53 @ VOL
	.byte W01
	.byte 53 @ VOL
	.byte W01
	.byte 53 @ VOL
	.byte W01
	.byte 54 @ VOL
	.byte W01
	.byte 54 @ VOL
	.byte W01
	.byte 55 @ VOL
	.byte W01
	.byte 55 @ VOL
	.byte W01
	.byte 55 @ VOL
	.byte W01
	.byte 55 @ VOL
	.byte W01
	.byte 56 @ VOL
	.byte W01
	.byte 56 @ VOL
	.byte W01
	.byte 57 @ VOL
	.byte W01
	.byte 57 @ VOL
	.byte W01
	.byte 58 @ VOL
	.byte W01
	.byte 58 @ VOL
	.byte W01
	.byte 58 @ VOL
	.byte W01
	.byte 58 @ VOL
	.byte W01
	.byte 59 @ VOL
	.byte W01
	.byte 59 @ VOL
	.byte W01
	.byte 60 @ VOL
	.byte W01
	.byte 60 @ VOL
	.byte W01
	.byte 60 @ VOL
	.byte W01
	.byte 60 @ VOL
	.byte W01
	.byte 61 @ VOL
	.byte W01
	.byte 61 @ VOL
	.byte W01
	.byte 62 @ VOL
	.byte W01
	.byte 62 @ VOL
	.byte W01
	.byte 63 @ VOL
	.byte W01
	.byte 63 @ VOL
	.byte W01
	.byte 63 @ VOL
	.byte W01
	.byte 64 @ VOL
	.byte W01
	.byte 64 @ VOL
	.byte W01
	.byte 65 @ VOL
	.byte W01
	.byte 65 @ VOL
	.byte W01
	.byte 65 @ VOL
	.byte W01
	.byte 65 @ VOL
	.byte W01
	.byte 66 @ VOL
	.byte W01
	.byte 62 @ VOL
	.byte W01
	.byte 58 @ VOL
	.byte W01
	.byte 54 @ VOL
	.byte W01
	.byte 50 @ VOL
	.byte W01
	.byte 46 @ VOL
	.byte W01
	.byte 41 @ VOL
	.byte N96 @ Cs1, v120
	.byte W06
	.byte VOL, 36
	.byte W04
	.byte 38 @ VOL
	.byte W04
	.byte 39 @ VOL
	.byte W04
	.byte 41 @ VOL
	.byte W03
	.byte 42 @ VOL
	.byte W04
	.byte 43 @ VOL
	.byte W04
	.byte 45 @ VOL
	.byte W04
	.byte 46 @ VOL
	.byte W03
	.byte 48 @ VOL
	.byte W01
	.byte 48 @ VOL
	.byte W03
	.byte 49 @ VOL
	.byte W04
	.byte 51 @ VOL
	.byte W04
	.byte 52 @ VOL
	.byte W03
	.byte 53 @ VOL
	.byte W04
	.byte 55 @ VOL
	.byte W04
	.byte 56 @ VOL
	.byte W04
	.byte 58 @ VOL
	.byte W04
	.byte 59 @ VOL
	.byte W03
	.byte 60 @ VOL
	.byte W04
	.byte 62 @ VOL
	.byte W04
	.byte 63 @ VOL
	.byte W04
	.byte 65 @ VOL
	.byte W03
	.byte 66 @ VOL
	.byte W04
	.byte 68 @ VOL
	.byte W04
	.byte 69 @ VOL
	.byte W02
	.byte 68 @ VOL
	.byte W01
	.byte N96 @ Cs1, v120
	.byte W96
	.byte N96 @ Cs1, v120
	.byte W40
	.byte VOL, 66
	.byte W01
	.byte 66 @ VOL
	.byte W01
	.byte 65 @ VOL
	.byte W01
	.byte 65 @ VOL
	.byte W01
	.byte 65 @ VOL
	.byte W01
	.byte 65 @ VOL
	.byte W01
	.byte 65 @ VOL
	.byte W01
	.byte 65 @ VOL
	.byte W01
	.byte 64 @ VOL
	.byte W01
	.byte 64 @ VOL
	.byte W01
	.byte 64 @ VOL
	.byte W01
	.byte 63 @ VOL
	.byte W01
	.byte 63 @ VOL
	.byte W01
	.byte 63 @ VOL
	.byte W01
	.byte 63 @ VOL
	.byte W01
	.byte 63 @ VOL
	.byte W01
	.byte 62 @ VOL
	.byte W01
	.byte 62 @ VOL
	.byte W01
	.byte 62 @ VOL
	.byte W01
	.byte 61 @ VOL
	.byte W01
	.byte 61 @ VOL
	.byte W01
	.byte 61 @ VOL
	.byte W01
	.byte 60 @ VOL
	.byte W01
	.byte 60 @ VOL
	.byte W01
	.byte 60 @ VOL
	.byte W01
	.byte 60 @ VOL
	.byte W01
	.byte 60 @ VOL
	.byte W01
	.byte 60 @ VOL
	.byte W01
	.byte 59 @ VOL
	.byte W01
	.byte 59 @ VOL
	.byte W01
	.byte 59 @ VOL
	.byte W01
	.byte 58 @ VOL
	.byte W01
	.byte 58 @ VOL
	.byte W01
	.byte 58 @ VOL
	.byte W01
	.byte 58 @ VOL
	.byte W01
	.byte 58 @ VOL
	.byte W01
	.byte 57 @ VOL
	.byte W01
	.byte 57 @ VOL
	.byte W01
	.byte 57 @ VOL
	.byte W01
	.byte 56 @ VOL
	.byte W01
	.byte 56 @ VOL
	.byte W01
	.byte 56 @ VOL
	.byte W01
	.byte 55 @ VOL
	.byte W01
	.byte 55 @ VOL
	.byte W01
	.byte 55 @ VOL
	.byte W01
	.byte 55 @ VOL
	.byte W01
	.byte 55 @ VOL
	.byte W01
	.byte 55 @ VOL
	.byte W01
	.byte 54 @ VOL
	.byte W01
	.byte 54 @ VOL
	.byte W01
	.byte 54 @ VOL
	.byte W01
	.byte 53 @ VOL
	.byte W01
	.byte 53 @ VOL
	.byte W01
	.byte 53 @ VOL
	.byte W01
	.byte 53 @ VOL
	.byte W01
	.byte 53 @ VOL
	.byte W01
	.byte 52 @ VOL
	.byte N96 @ Cs1, v120
	.byte W01
	.byte VOL, 52
	.byte W01
	.byte 52 @ VOL
	.byte W01
	.byte 51 @ VOL
	.byte W01
	.byte 51 @ VOL
	.byte W01
	.byte 51 @ VOL
	.byte W01
	.byte 51 @ VOL
	.byte W01
	.byte 51 @ VOL
	.byte W01
	.byte 51 @ VOL
	.byte W01
	.byte 50 @ VOL
	.byte W01
	.byte 50 @ VOL
	.byte W01
	.byte 50 @ VOL
	.byte W01
	.byte 49 @ VOL
	.byte W01
	.byte 49 @ VOL
	.byte W01
	.byte 49 @ VOL
	.byte W01
	.byte 48 @ VOL
	.byte W01
	.byte 48 @ VOL
	.byte W01
	.byte 48 @ VOL
	.byte W01
	.byte 48 @ VOL
	.byte W01
	.byte 48 @ VOL
	.byte W01
	.byte 48 @ VOL
	.byte W01
	.byte 47 @ VOL
	.byte W01
	.byte 47 @ VOL
	.byte W01
	.byte 46 @ VOL
	.byte W01
	.byte 46 @ VOL
	.byte W01
	.byte 46 @ VOL
	.byte W01
	.byte 46 @ VOL
	.byte W01
	.byte 46 @ VOL
	.byte W01
	.byte 46 @ VOL
	.byte W01
	.byte 45 @ VOL
	.byte W01
	.byte 45 @ VOL
	.byte W01
	.byte 45 @ VOL
	.byte W01
	.byte 44 @ VOL
	.byte W01
	.byte 44 @ VOL
	.byte W01
	.byte 44 @ VOL
	.byte W01
	.byte 43 @ VOL
	.byte W01
	.byte 43 @ VOL
	.byte W01
	.byte 43 @ VOL
	.byte W01
	.byte 43 @ VOL
	.byte W01
	.byte 43 @ VOL
	.byte W01
	.byte 43 @ VOL
	.byte W01
	.byte 42 @ VOL
	.byte W01
	.byte 42 @ VOL
	.byte W01
	.byte 41 @ VOL
	.byte W01
	.byte 41 @ VOL
	.byte W01
	.byte 41 @ VOL
	.byte W01
	.byte 41 @ VOL
	.byte W01
	.byte 41 @ VOL
	.byte W01
	.byte 41 @ VOL
	.byte W01
	.byte 40 @ VOL
	.byte W01
	.byte 40 @ VOL
	.byte W01
	.byte 40 @ VOL
	.byte W01
	.byte 39 @ VOL
	.byte W01
	.byte 39 @ VOL
	.byte W01
	.byte 39 @ VOL
	.byte W01
	.byte 38 @ VOL
	.byte W01
	.byte 38 @ VOL
	.byte W01
	.byte 38 @ VOL
	.byte W01
	.byte 38 @ VOL
	.byte W01
	.byte 38 @ VOL
	.byte W01
	.byte 38 @ VOL
	.byte W01
	.byte 37 @ VOL
	.byte W01
	.byte 37 @ VOL
	.byte W01
	.byte 37 @ VOL
	.byte W01
	.byte 36 @ VOL
	.byte W01
	.byte 36 @ VOL
	.byte W01
	.byte 36 @ VOL
	.byte W01
	.byte 36 @ VOL
	.byte W01
	.byte 36 @ VOL
	.byte W01
	.byte 35 @ VOL
	.byte W01
	.byte 35 @ VOL
	.byte W01
	.byte 35 @ VOL
	.byte W01
	.byte 34 @ VOL
	.byte W01
	.byte 34 @ VOL
	.byte W23
	.byte VOICE, 11
	.byte VOL, 36
	.byte N96 @ Cs1, v120
	.byte W06
	.byte VOL, 36
	.byte W04
	.byte 38 @ VOL
	.byte W04
	.byte 39 @ VOL
	.byte W04
	.byte 41 @ VOL
	.byte W03
	.byte 42 @ VOL
	.byte W04
	.byte 43 @ VOL
	.byte W04
	.byte 45 @ VOL
	.byte W04
	.byte 46 @ VOL
	.byte W03
	.byte 48 @ VOL
	.byte W01
	.byte 48 @ VOL
	.byte W03
	.byte 49 @ VOL
	.byte W04
	.byte 51 @ VOL
	.byte W04
	.byte 52 @ VOL
	.byte W03
	.byte 53 @ VOL
	.byte W04
	.byte 55 @ VOL
	.byte W04
	.byte 56 @ VOL
	.byte W04
	.byte 58 @ VOL
	.byte W04
	.byte 59 @ VOL
	.byte W03
	.byte 60 @ VOL
	.byte W04
	.byte 62 @ VOL
	.byte W04
	.byte 63 @ VOL
	.byte W04
	.byte 65 @ VOL
	.byte W03
	.byte 66 @ VOL
	.byte W04
	.byte 68 @ VOL
	.byte W04
	.byte 69 @ VOL
	.byte W02
	.byte 68 @ VOL
	.byte W01
track_7_lbl_25ad17:
	.byte VOL, 65
	.byte N96, Cs1, v120
	.byte W01
	.byte VOL, 62
	.byte W01
	.byte 60 @ VOL
	.byte W01
	.byte 58 @ VOL
	.byte W01
	.byte 56 @ VOL
	.byte W01
	.byte 55 @ VOL
	.byte W01
	.byte 53 @ VOL
	.byte W01
	.byte 52 @ VOL
	.byte W01
	.byte 51 @ VOL
	.byte W01
	.byte 49 @ VOL
	.byte W03
	.byte 48 @ VOL
	.byte W02
	.byte 46 @ VOL
	.byte W01
	.byte 45 @ VOL
	.byte W03
	.byte 43 @ VOL
	.byte W01
	.byte 42 @ VOL
	.byte W06
	.byte 43 @ VOL
	.byte W02
	.byte 45 @ VOL
	.byte W02
	.byte 46 @ VOL
	.byte W02
	.byte 48 @ VOL
	.byte W01
	.byte 49 @ VOL
	.byte W02
	.byte 51 @ VOL
	.byte W02
	.byte 52 @ VOL
	.byte W02
	.byte 53 @ VOL
	.byte W02
	.byte 55 @ VOL
	.byte W02
	.byte 56 @ VOL
	.byte W02
	.byte 58 @ VOL
	.byte W02
	.byte 59 @ VOL
	.byte W02
	.byte 61 @ VOL
	.byte W01
	.byte 62 @ VOL
	.byte W02
	.byte 63 @ VOL
	.byte W02
	.byte 65 @ VOL
	.byte W01
	.byte 63 @ VOL
	.byte W01
	.byte 62 @ VOL
	.byte W03
	.byte 60 @ VOL
	.byte W03
	.byte 59 @ VOL
	.byte W02
	.byte 58 @ VOL
	.byte W03
	.byte 56 @ VOL
	.byte W02
	.byte 55 @ VOL
	.byte W03
	.byte 53 @ VOL
	.byte W02
	.byte 52 @ VOL
	.byte W03
	.byte 51 @ VOL
	.byte W03
	.byte 49 @ VOL
	.byte W02
	.byte 48 @ VOL
	.byte W03
	.byte 46 @ VOL
	.byte W02
	.byte 45 @ VOL
	.byte W03
	.byte 43 @ VOL
	.byte W03
	.byte 42 @ VOL
	.byte W02
	.byte 41 @ VOL
	.byte W02
	.byte PEND
	.byte N96 @ Cs1, v120
	.byte W06
	.byte VOL, 36
	.byte W04
	.byte 38 @ VOL
	.byte W04
	.byte 39 @ VOL
	.byte W04
	.byte 41 @ VOL
	.byte W03
	.byte 42 @ VOL
	.byte W04
	.byte 43 @ VOL
	.byte W04
	.byte 45 @ VOL
	.byte W04
	.byte 46 @ VOL
	.byte W03
	.byte 48 @ VOL
	.byte W01
	.byte 48 @ VOL
	.byte W03
	.byte 49 @ VOL
	.byte W04
	.byte 51 @ VOL
	.byte W04
	.byte 52 @ VOL
	.byte W03
	.byte 53 @ VOL
	.byte W04
	.byte 55 @ VOL
	.byte W04
	.byte 56 @ VOL
	.byte W04
	.byte 58 @ VOL
	.byte W04
	.byte 59 @ VOL
	.byte W03
	.byte 60 @ VOL
	.byte W04
	.byte 62 @ VOL
	.byte W04
	.byte 63 @ VOL
	.byte W04
	.byte 65 @ VOL
	.byte W03
	.byte 66 @ VOL
	.byte W04
	.byte 68 @ VOL
	.byte W04
	.byte 69 @ VOL
	.byte W02
	.byte 68 @ VOL
	.byte W01
	.byte PATT
		.word track_7_lbl_25ad17
track_7_lbl_25adb9:
	.byte VOICE, 11
	.byte VOL, 34
	.byte N96, Cs1, v120
	.byte W06
	.byte VOL, 36
	.byte W04
	.byte 38 @ VOL
	.byte W04
	.byte 39 @ VOL
	.byte W04
	.byte 41 @ VOL
	.byte W03
	.byte 42 @ VOL
	.byte W04
	.byte 43 @ VOL
	.byte W04
	.byte 45 @ VOL
	.byte W04
	.byte 46 @ VOL
	.byte W03
	.byte 48 @ VOL
	.byte W01
	.byte 48 @ VOL
	.byte W03
	.byte 49 @ VOL
	.byte W04
	.byte 51 @ VOL
	.byte W04
	.byte 52 @ VOL
	.byte W03
	.byte 53 @ VOL
	.byte W04
	.byte 55 @ VOL
	.byte W04
	.byte 56 @ VOL
	.byte W04
	.byte 58 @ VOL
	.byte W04
	.byte 59 @ VOL
	.byte W03
	.byte 60 @ VOL
	.byte W04
	.byte 62 @ VOL
	.byte W04
	.byte 63 @ VOL
	.byte W04
	.byte 65 @ VOL
	.byte W03
	.byte 66 @ VOL
	.byte W04
	.byte 68 @ VOL
	.byte W04
	.byte 69 @ VOL
	.byte W02
	.byte 68 @ VOL
	.byte W01
	.byte PEND
	.byte PATT
		.word track_7_lbl_25ad17
	.byte PATT
		.word track_7_lbl_25adb9
	.byte PATT
		.word track_7_lbl_25ad17
	.byte GOTO
		.word track_7_lbl_25aaaa
	.byte FINE

track_7_1:
	.byte KEYSH, 0
track_7_lbl_25ae0e:
	.byte VOICE, 8
	.byte VOL, 6
	.byte PAN, c_v+10
	.byte PRIO, 109
	.byte N48, Cs3, v040
	.byte W01
	.byte VOL, 34
	.byte W01
	.byte 34 @ VOL
	.byte W01
	.byte 31 @ VOL
	.byte W01
	.byte 29 @ VOL
	.byte W01
	.byte 28 @ VOL
	.byte W01
	.byte 27 @ VOL
	.byte W01
	.byte 26 @ VOL
	.byte W01
	.byte 25 @ VOL
	.byte W01
	.byte 24 @ VOL
	.byte W03
	.byte 22 @ VOL
	.byte W03
	.byte 21 @ VOL
	.byte W05
	.byte 20 @ VOL
	.byte W10
	.byte 21 @ VOL
	.byte W07
	.byte 22 @ VOL
	.byte W04
	.byte 24 @ VOL
	.byte W07
	.byte VOICE, 8
	.byte VOL, 25
	.byte N48, Bn2 @ v040
	.byte W01
	.byte VOL, 26
	.byte W07
	.byte 28 @ VOL
	.byte W03
	.byte 29 @ VOL
	.byte W03
	.byte 31 @ VOL
	.byte W03
	.byte 32 @ VOL
	.byte W03
	.byte 34 @ VOL
	.byte W05
	.byte 35 @ VOL
	.byte W04
	.byte 36 @ VOL
	.byte W03
	.byte 38 @ VOL
	.byte W02
	.byte 39 @ VOL
	.byte W03
	.byte 41 @ VOL
	.byte W06
	.byte 42 @ VOL
	.byte W03
	.byte 43 @ VOL
	.byte W01
	.byte 42 @ VOL
	.byte W01
	.byte 41 @ VOL
	.byte N96, Dn3 @ v040
	.byte W01
	.byte VOL, 38
	.byte W01
	.byte 36 @ VOL
	.byte W01
	.byte 35 @ VOL
	.byte W02
	.byte 34 @ VOL
	.byte W01
	.byte 32 @ VOL
	.byte W01
	.byte 31 @ VOL
	.byte W02
	.byte 29 @ VOL
	.byte W02
	.byte 28 @ VOL
	.byte W04
	.byte 26 @ VOL
	.byte W03
	.byte 25 @ VOL
	.byte W04
	.byte 24 @ VOL
	.byte W05
	.byte 22 @ VOL
	.byte W08
	.byte 21 @ VOL
	.byte W07
	.byte 20 @ VOL
	.byte W16
	.byte 19 @ VOL
	.byte W15
	.byte 18 @ VOL
	.byte W02
	.byte 21 @ VOL
	.byte W02
	.byte 22 @ VOL
	.byte W01
	.byte 23 @ VOL
	.byte W01
	.byte 24 @ VOL
	.byte W01
	.byte 25 @ VOL
	.byte W01
	.byte 26 @ VOL
	.byte W01
	.byte 26 @ VOL
	.byte W01
	.byte 27 @ VOL
	.byte W01
	.byte 28 @ VOL
	.byte W01
	.byte 29 @ VOL
	.byte W01
	.byte 29 @ VOL
	.byte W01
	.byte 30 @ VOL
	.byte W01
	.byte 31 @ VOL
	.byte W01
	.byte 31 @ VOL
	.byte W01
	.byte 32 @ VOL
	.byte W01
	.byte 34 @ VOL
	.byte W01
	.byte 34 @ VOL
	.byte W01
	.byte 35 @ VOL
	.byte W01
	.byte 36 @ VOL
	.byte W01
	.byte 36 @ VOL
	.byte W01
	.byte 36 @ VOL
	.byte N48, Fn3 @ v040
	.byte W01
	.byte VOL, 35
	.byte W01
	.byte 34 @ VOL
	.byte W01
	.byte 32 @ VOL
	.byte W01
	.byte 31 @ VOL
	.byte W01
	.byte 30 @ VOL
	.byte W01
	.byte 29 @ VOL
	.byte W01
	.byte 27 @ VOL
	.byte W01
	.byte 26 @ VOL
	.byte W01
	.byte 24 @ VOL
	.byte W01
	.byte 23 @ VOL
	.byte W01
	.byte 21 @ VOL
	.byte W01
	.byte 20 @ VOL
	.byte W01
	.byte 19 @ VOL
	.byte W01
	.byte 18 @ VOL
	.byte W01
	.byte 17 @ VOL
	.byte W01
	.byte 15 @ VOL
	.byte W01
	.byte 14 @ VOL
	.byte W01
	.byte 12 @ VOL
	.byte W01
	.byte 11 @ VOL
	.byte W01
	.byte 9 @ VOL
	.byte W01
	.byte 8 @ VOL
	.byte W01
	.byte 7 @ VOL
	.byte W01
	.byte 6 @ VOL
	.byte W01
	.byte 4 @ VOL
	.byte W01
	.byte 3 @ VOL
	.byte W23
	.byte VOICE, 7
	.byte PAN, c_v+6
	.byte N48, Bn2, v032
	.byte W12
	.byte VOL, 35
	.byte W02
	.byte 34 @ VOL
	.byte W03
	.byte 32 @ VOL
	.byte W02
	.byte 31 @ VOL
	.byte W03
	.byte 29 @ VOL
	.byte W02
	.byte 28 @ VOL
	.byte W01
	.byte 27 @ VOL
	.byte W01
	.byte 24 @ VOL
	.byte W01
	.byte 25 @ VOL
	.byte W01
	.byte 26 @ VOL
	.byte W01
	.byte 27 @ VOL
	.byte W01
	.byte 28 @ VOL
	.byte W01
	.byte 29 @ VOL
	.byte W01
	.byte 31 @ VOL
	.byte W01
	.byte 31 @ VOL
	.byte W01
	.byte 33 @ VOL
	.byte W01
	.byte 34 @ VOL
	.byte W01
	.byte 35 @ VOL
	.byte W01
	.byte 36 @ VOL
	.byte W01
	.byte 37 @ VOL
	.byte W01
	.byte 38 @ VOL
	.byte W01
	.byte 40 @ VOL
	.byte W01
	.byte 41 @ VOL
	.byte W01
	.byte 42 @ VOL
	.byte W01
	.byte 43 @ VOL
	.byte W01
	.byte 44 @ VOL
	.byte W01
	.byte 46 @ VOL
	.byte W01
	.byte 46 @ VOL
	.byte W01
	.byte 48 @ VOL
	.byte W01
	.byte 46 @ VOL
	.byte N48, As2 @ v032
	.byte W02
	.byte VOL, 45
	.byte W01
	.byte 43 @ VOL
	.byte W01
	.byte 43 @ VOL
	.byte W01
	.byte 42 @ VOL
	.byte W01
	.byte 41 @ VOL
	.byte W01
	.byte 41 @ VOL
	.byte W01
	.byte 39 @ VOL
	.byte W01
	.byte 38 @ VOL
	.byte W01
	.byte 38 @ VOL
	.byte W01
	.byte 37 @ VOL
	.byte W01
	.byte 36 @ VOL
	.byte W01
	.byte 36 @ VOL
	.byte W01
	.byte 34 @ VOL
	.byte W01
	.byte 34 @ VOL
	.byte W02
	.byte 32 @ VOL
	.byte W02
	.byte 30 @ VOL
	.byte W02
	.byte 29 @ VOL
	.byte W01
	.byte 28 @ VOL
	.byte W06
	.byte 29 @ VOL
	.byte W02
	.byte 31 @ VOL
	.byte W02
	.byte 32 @ VOL
	.byte W02
	.byte 34 @ VOL
	.byte W03
	.byte 35 @ VOL
	.byte W02
	.byte 36 @ VOL
	.byte W02
	.byte 38 @ VOL
	.byte W03
	.byte 39 @ VOL
	.byte W02
	.byte 41 @ VOL
	.byte W02
	.byte 42 @ VOL
	.byte N48, Dn3 @ v032
	.byte W02
	.byte VOL, 43
	.byte W03
	.byte 45 @ VOL
	.byte W02
	.byte 46 @ VOL
	.byte W02
	.byte 48 @ VOL
	.byte W03
	.byte 49 @ VOL
	.byte W36
	.byte N72, Bn3, v016
	.byte W01
	.byte VOL, 49
	.byte W02
	.byte 48 @ VOL
	.byte W02
	.byte 46 @ VOL
	.byte W03
	.byte 45 @ VOL
	.byte W02
	.byte 43 @ VOL
	.byte W02
	.byte 42 @ VOL
	.byte W02
	.byte 41 @ VOL
	.byte W02
	.byte 39 @ VOL
	.byte W03
	.byte 38 @ VOL
	.byte W02
	.byte 36 @ VOL
	.byte W02
	.byte 35 @ VOL
	.byte W02
	.byte 34 @ VOL
	.byte W02
	.byte 32 @ VOL
	.byte W03
	.byte 31 @ VOL
	.byte W02
	.byte 29 @ VOL
	.byte W02
	.byte 28 @ VOL
	.byte W02
	.byte 26 @ VOL
	.byte W02
	.byte 25 @ VOL
	.byte W03
	.byte 24 @ VOL
	.byte W02
	.byte 22 @ VOL
	.byte W02
	.byte 21 @ VOL
	.byte W02
	.byte 19 @ VOL
	.byte W02
	.byte 18 @ VOL
	.byte W03
	.byte 17 @ VOL
	.byte W02
	.byte 15 @ VOL
	.byte W02
	.byte 14 @ VOL
	.byte W02
	.byte 12 @ VOL
	.byte W02
	.byte 11 @ VOL
	.byte W03
	.byte 9 @ VOL
	.byte W02
	.byte 8 @ VOL
	.byte W02
	.byte 7 @ VOL
	.byte W01
	.byte 6 @ VOL
	.byte W02
	.byte 4 @ VOL
	.byte W24
	.byte W02
	.byte W24
	.byte 34 @ VOL
	.byte N60, Dn2, v044
	.byte W24
	.byte W02
	.byte VOL, 35
	.byte W02
	.byte 36 @ VOL
	.byte W02
	.byte 38 @ VOL
	.byte W02
	.byte 39 @ VOL
	.byte W02
	.byte 41 @ VOL
	.byte W03
	.byte 42 @ VOL
	.byte W02
	.byte 43 @ VOL
	.byte W02
	.byte 45 @ VOL
	.byte W02
	.byte 46 @ VOL
	.byte W02
	.byte 48 @ VOL
	.byte W02
	.byte 49 @ VOL
	.byte W02
	.byte 51 @ VOL
	.byte W02
	.byte 52 @ VOL
	.byte W03
	.byte 53 @ VOL
	.byte W02
	.byte 55 @ VOL
	.byte W02
	.byte 56 @ VOL
	.byte W02
	.byte 58 @ VOL
	.byte W02
	.byte 59 @ VOL
	.byte W02
	.byte 60 @ VOL
	.byte W02
	.byte 62 @ VOL
	.byte W06
	.byte VOICE, 8
	.byte VOL, 35
	.byte PAN, c_v+10
	.byte N96, Cs3, v040
	.byte W01
	.byte VOL, 34
	.byte W01
	.byte 34 @ VOL
	.byte W01
	.byte 31 @ VOL
	.byte W01
	.byte 29 @ VOL
	.byte W01
	.byte 28 @ VOL
	.byte W01
	.byte 27 @ VOL
	.byte W01
	.byte 26 @ VOL
	.byte W01
	.byte 25 @ VOL
	.byte W01
	.byte 24 @ VOL
	.byte W03
	.byte 22 @ VOL
	.byte W03
	.byte 21 @ VOL
	.byte W05
	.byte 20 @ VOL
	.byte W10
	.byte 21 @ VOL
	.byte W07
	.byte 22 @ VOL
	.byte W04
	.byte 24 @ VOL
	.byte W04
	.byte 25 @ VOL
	.byte W04
	.byte 26 @ VOL
	.byte W04
	.byte 27 @ VOL
	.byte W03
	.byte 28 @ VOL
	.byte W03
	.byte 29 @ VOL
	.byte W03
	.byte 31 @ VOL
	.byte W03
	.byte 32 @ VOL
	.byte W03
	.byte 34 @ VOL
	.byte W02
	.byte 34 @ VOL
	.byte W03
	.byte 35 @ VOL
	.byte W04
	.byte 36 @ VOL
	.byte W03
	.byte 38 @ VOL
	.byte W02
	.byte 39 @ VOL
	.byte W03
	.byte 41 @ VOL
	.byte W03
	.byte 41 @ VOL
	.byte W03
	.byte 42 @ VOL
	.byte W03
	.byte 43 @ VOL
	.byte W01
	.byte 41 @ VOL
	.byte W01
	.byte N48, Dn3 @ v040
	.byte W01
	.byte VOL, 42
	.byte W01
	.byte 41 @ VOL
	.byte W01
	.byte 41 @ VOL
	.byte W01
	.byte 40 @ VOL
	.byte W01
	.byte 38 @ VOL
	.byte W01
	.byte 38 @ VOL
	.byte W01
	.byte 37 @ VOL
	.byte W01
	.byte 36 @ VOL
	.byte W01
	.byte 36 @ VOL
	.byte W01
	.byte 35 @ VOL
	.byte W01
	.byte 34 @ VOL
	.byte W01
	.byte 34 @ VOL
	.byte W01
	.byte 32 @ VOL
	.byte W01
	.byte 31 @ VOL
	.byte W01
	.byte 31 @ VOL
	.byte W01
	.byte 30 @ VOL
	.byte W01
	.byte 29 @ VOL
	.byte W01
	.byte 29 @ VOL
	.byte W01
	.byte 28 @ VOL
	.byte W01
	.byte 27 @ VOL
	.byte W01
	.byte 26 @ VOL
	.byte W01
	.byte 25 @ VOL
	.byte W01
	.byte 24 @ VOL
	.byte W01
	.byte 24 @ VOL
	.byte W01
	.byte 23 @ VOL
	.byte W01
	.byte 22 @ VOL
	.byte W01
	.byte 21 @ VOL
	.byte W01
	.byte 21 @ VOL
	.byte W01
	.byte 19 @ VOL
	.byte W01
	.byte 19 @ VOL
	.byte W01
	.byte 18 @ VOL
	.byte W01
	.byte 17 @ VOL
	.byte W01
	.byte 17 @ VOL
	.byte W01
	.byte 16 @ VOL
	.byte W01
	.byte 15 @ VOL
	.byte W01
	.byte 14 @ VOL
	.byte W01
	.byte 13 @ VOL
	.byte W01
	.byte 12 @ VOL
	.byte W01
	.byte 12 @ VOL
	.byte W01
	.byte 11 @ VOL
	.byte W01
	.byte 10 @ VOL
	.byte W01
	.byte 9 @ VOL
	.byte W01
	.byte 9 @ VOL
	.byte W01
	.byte 7 @ VOL
	.byte W01
	.byte 7 @ VOL
	.byte W01
	.byte 6 @ VOL
	.byte W48
	.byte W02
	.byte 12 @ VOL
	.byte N96, En3, v044
	.byte W04
	.byte VOL, 14
	.byte W04
	.byte 15 @ VOL
	.byte W04
	.byte 17 @ VOL
	.byte W04
	.byte 18 @ VOL
	.byte W04
	.byte 19 @ VOL
	.byte W04
	.byte 21 @ VOL
	.byte W04
	.byte 22 @ VOL
	.byte W04
	.byte 24 @ VOL
	.byte W02
	.byte 24 @ VOL
	.byte W02
	.byte 25 @ VOL
	.byte W05
	.byte 26 @ VOL
	.byte W04
	.byte 28 @ VOL
	.byte W04
	.byte 29 @ VOL
	.byte W04
	.byte 31 @ VOL
	.byte W04
	.byte 32 @ VOL
	.byte W04
	.byte 34 @ VOL
	.byte W04
	.byte 35 @ VOL
	.byte W04
	.byte 36 @ VOL
	.byte W04
	.byte 38 @ VOL
	.byte W05
	.byte 39 @ VOL
	.byte W02
	.byte 40 @ VOL
	.byte W02
	.byte 41 @ VOL
	.byte W04
	.byte 42 @ VOL
	.byte W04
	.byte 43 @ VOL
	.byte W04
	.byte 45 @ VOL
	.byte W02
	.byte N48, Dn3, v040
	.byte W01
	.byte VOL, 42
	.byte W02
	.byte 41 @ VOL
	.byte W02
	.byte 38 @ VOL
	.byte W01
	.byte 38 @ VOL
	.byte W02
	.byte 36 @ VOL
	.byte W02
	.byte 35 @ VOL
	.byte W02
	.byte 34 @ VOL
	.byte W01
	.byte 32 @ VOL
	.byte W02
	.byte 31 @ VOL
	.byte W02
	.byte 29 @ VOL
	.byte W02
	.byte 28 @ VOL
	.byte W02
	.byte 26 @ VOL
	.byte W01
	.byte 25 @ VOL
	.byte W02
	.byte 24 @ VOL
	.byte W02
	.byte 22 @ VOL
	.byte W02
	.byte 21 @ VOL
	.byte W01
	.byte 19 @ VOL
	.byte W02
	.byte 18 @ VOL
	.byte W02
	.byte 17 @ VOL
	.byte W02
	.byte 15 @ VOL
	.byte W02
	.byte 13 @ VOL
	.byte W01
	.byte 12 @ VOL
	.byte W02
	.byte 11 @ VOL
	.byte W02
	.byte 9 @ VOL
	.byte W02
	.byte 7 @ VOL
	.byte W01
	.byte 7 @ VOL
	.byte W01
	.byte 6 @ VOL
	.byte W48
	.byte W02
	.byte VOICE, 8
	.byte VOL, 24
	.byte N96, En3 @ v040
	.byte W52
	.byte W01
	.byte VOL, 25
	.byte W08
	.byte 26 @ VOL
	.byte W04
	.byte 27 @ VOL
	.byte W03
	.byte 28 @ VOL
	.byte W04
	.byte 29 @ VOL
	.byte W02
	.byte 31 @ VOL
	.byte W02
	.byte 32 @ VOL
	.byte W02
	.byte 34 @ VOL
	.byte W02
	.byte 34 @ VOL
	.byte W02
	.byte 35 @ VOL
	.byte W02
	.byte 36 @ VOL
	.byte W01
	.byte 38 @ VOL
	.byte W02
	.byte 39 @ VOL
	.byte W02
	.byte 41 @ VOL
	.byte W01
	.byte 41 @ VOL
	.byte W01
	.byte 42 @ VOL
	.byte W02
	.byte 43 @ VOL
	.byte W01
	.byte 45 @ VOL
	.byte W02
	.byte N48, Fn3 @ v040
	.byte W01
	.byte VOL, 42
	.byte W02
	.byte 41 @ VOL
	.byte W02
	.byte 38 @ VOL
	.byte W01
	.byte 38 @ VOL
	.byte W02
	.byte 36 @ VOL
	.byte W02
	.byte 35 @ VOL
	.byte W02
	.byte 34 @ VOL
	.byte W01
	.byte 32 @ VOL
	.byte W02
	.byte 31 @ VOL
	.byte W02
	.byte 29 @ VOL
	.byte W02
	.byte 28 @ VOL
	.byte W02
	.byte 26 @ VOL
	.byte W01
	.byte 25 @ VOL
	.byte W02
	.byte 24 @ VOL
	.byte W02
	.byte 22 @ VOL
	.byte W02
	.byte 21 @ VOL
	.byte W01
	.byte 19 @ VOL
	.byte W02
	.byte 18 @ VOL
	.byte W02
	.byte 17 @ VOL
	.byte W02
	.byte 15 @ VOL
	.byte W02
	.byte 13 @ VOL
	.byte W01
	.byte 12 @ VOL
	.byte W02
	.byte 11 @ VOL
	.byte W02
	.byte 9 @ VOL
	.byte W02
	.byte 7 @ VOL
	.byte W01
	.byte 7 @ VOL
	.byte W01
	.byte 6 @ VOL
	.byte W48
	.byte W01
	.byte 5 @ VOL
	.byte W01
	.byte VOICE, 7
	.byte VOL, 5
	.byte PAN, c_v+6
	.byte N96, Cs4 @ v040
	.byte W04
	.byte VOL, 7
	.byte W07
	.byte 8 @ VOL
	.byte W06
	.byte 9 @ VOL
	.byte W07
	.byte 11 @ VOL
	.byte W06
	.byte 12 @ VOL
	.byte W06
	.byte 14 @ VOL
	.byte W07
	.byte 15 @ VOL
	.byte W06
	.byte 17 @ VOL
	.byte W07
	.byte 18 @ VOL
	.byte W06
	.byte 19 @ VOL
	.byte W07
	.byte 21 @ VOL
	.byte W06
	.byte 22 @ VOL
	.byte W07
	.byte 24 @ VOL
	.byte W06
	.byte 25 @ VOL
	.byte W06
	.byte 26 @ VOL
	.byte W02
	.byte 27 @ VOL
	.byte N48, Bn3 @ v040
	.byte W05
	.byte VOL, 26
	.byte W06
	.byte 24 @ VOL
	.byte W06
	.byte 23 @ VOL
	.byte W06
	.byte 21 @ VOL
	.byte W07
	.byte 20 @ VOL
	.byte W06
	.byte 19 @ VOL
	.byte W06
	.byte 17 @ VOL
	.byte W06
	.byte 16 @ VOL
	.byte N48, As3 @ v040
	.byte W06
	.byte VOL, 14
	.byte W09
	.byte 12 @ VOL
	.byte W06
	.byte 11 @ VOL
	.byte W07
	.byte 9 @ VOL
	.byte W06
	.byte 8 @ VOL
	.byte W06
	.byte 7 @ VOL
	.byte W06
	.byte 5 @ VOL
	.byte W02
	.byte GOTO
		.word track_7_lbl_25ae0e
	.byte FINE

track_7_2:
	.byte KEYSH, 0
track_7_lbl_25b1c8:
	.byte VOICE, 8
	.byte VOL, 6
	.byte PAN, c_v-10
	.byte PRIO, 108
	.byte N48, Gs2, v040
	.byte W01
	.byte VOL, 34
	.byte W01
	.byte 34 @ VOL
	.byte W01
	.byte 31 @ VOL
	.byte W01
	.byte 29 @ VOL
	.byte W01
	.byte 28 @ VOL
	.byte W01
	.byte 27 @ VOL
	.byte W01
	.byte 26 @ VOL
	.byte W01
	.byte 25 @ VOL
	.byte W01
	.byte 24 @ VOL
	.byte W03
	.byte 22 @ VOL
	.byte W03
	.byte 21 @ VOL
	.byte W05
	.byte 20 @ VOL
	.byte W10
	.byte 21 @ VOL
	.byte W07
	.byte 22 @ VOL
	.byte W04
	.byte 24 @ VOL
	.byte W07
	.byte VOICE, 8
	.byte VOL, 25
	.byte N48, Gn2 @ v040
	.byte W01
	.byte VOL, 26
	.byte W07
	.byte 28 @ VOL
	.byte W03
	.byte 29 @ VOL
	.byte W03
	.byte 31 @ VOL
	.byte W03
	.byte 32 @ VOL
	.byte W03
	.byte 34 @ VOL
	.byte W05
	.byte 35 @ VOL
	.byte W04
	.byte 36 @ VOL
	.byte W03
	.byte 38 @ VOL
	.byte W02
	.byte 39 @ VOL
	.byte W03
	.byte 41 @ VOL
	.byte W06
	.byte 42 @ VOL
	.byte W03
	.byte 43 @ VOL
	.byte W01
	.byte 42 @ VOL
	.byte W01
	.byte 41 @ VOL
	.byte N96, As2 @ v040
	.byte W01
	.byte VOL, 38
	.byte W01
	.byte 36 @ VOL
	.byte W01
	.byte 35 @ VOL
	.byte W02
	.byte 34 @ VOL
	.byte W01
	.byte 32 @ VOL
	.byte W01
	.byte 31 @ VOL
	.byte W02
	.byte 29 @ VOL
	.byte W02
	.byte 28 @ VOL
	.byte W04
	.byte 26 @ VOL
	.byte W03
	.byte 25 @ VOL
	.byte W04
	.byte 24 @ VOL
	.byte W05
	.byte 22 @ VOL
	.byte W08
	.byte 21 @ VOL
	.byte W07
	.byte 20 @ VOL
	.byte W16
	.byte 19 @ VOL
	.byte W15
	.byte 18 @ VOL
	.byte W02
	.byte 21 @ VOL
	.byte W02
	.byte 22 @ VOL
	.byte W01
	.byte 23 @ VOL
	.byte W01
	.byte 24 @ VOL
	.byte W01
	.byte 25 @ VOL
	.byte W01
	.byte 26 @ VOL
	.byte W01
	.byte 26 @ VOL
	.byte W01
	.byte 27 @ VOL
	.byte W01
	.byte 28 @ VOL
	.byte W01
	.byte 29 @ VOL
	.byte W01
	.byte 29 @ VOL
	.byte W01
	.byte 30 @ VOL
	.byte W01
	.byte 31 @ VOL
	.byte W01
	.byte 31 @ VOL
	.byte W01
	.byte 32 @ VOL
	.byte W01
	.byte 34 @ VOL
	.byte W01
	.byte 34 @ VOL
	.byte W01
	.byte 35 @ VOL
	.byte W01
	.byte 36 @ VOL
	.byte W01
	.byte 36 @ VOL
	.byte W01
	.byte 36 @ VOL
	.byte N48, Cs3 @ v040
	.byte W01
	.byte VOL, 35
	.byte W01
	.byte 34 @ VOL
	.byte W01
	.byte 32 @ VOL
	.byte W01
	.byte 31 @ VOL
	.byte W01
	.byte 30 @ VOL
	.byte W01
	.byte 29 @ VOL
	.byte W01
	.byte 27 @ VOL
	.byte W01
	.byte 26 @ VOL
	.byte W01
	.byte 24 @ VOL
	.byte W01
	.byte 23 @ VOL
	.byte W01
	.byte 21 @ VOL
	.byte W01
	.byte 20 @ VOL
	.byte W01
	.byte 19 @ VOL
	.byte W01
	.byte 18 @ VOL
	.byte W01
	.byte 17 @ VOL
	.byte W01
	.byte 15 @ VOL
	.byte W01
	.byte 14 @ VOL
	.byte W01
	.byte 12 @ VOL
	.byte W01
	.byte 11 @ VOL
	.byte W01
	.byte 9 @ VOL
	.byte W01
	.byte 8 @ VOL
	.byte W01
	.byte 7 @ VOL
	.byte W01
	.byte 6 @ VOL
	.byte W01
	.byte 4 @ VOL
	.byte W01
	.byte 3 @ VOL
	.byte W23
	.byte VOICE, 7
	.byte W48
	.byte W96
	.byte PAN, c_v-4
	.byte N72, Fn3, v032
	.byte W01
	.byte VOL, 49
	.byte W02
	.byte 48 @ VOL
	.byte W02
	.byte 46 @ VOL
	.byte W03
	.byte 45 @ VOL
	.byte W02
	.byte 43 @ VOL
	.byte W02
	.byte 42 @ VOL
	.byte W02
	.byte 41 @ VOL
	.byte W02
	.byte 39 @ VOL
	.byte W03
	.byte 38 @ VOL
	.byte W02
	.byte 36 @ VOL
	.byte W02
	.byte 35 @ VOL
	.byte W02
	.byte 34 @ VOL
	.byte W02
	.byte 32 @ VOL
	.byte W03
	.byte 31 @ VOL
	.byte W02
	.byte 29 @ VOL
	.byte W02
	.byte 28 @ VOL
	.byte W02
	.byte 26 @ VOL
	.byte W02
	.byte 25 @ VOL
	.byte W03
	.byte 24 @ VOL
	.byte W02
	.byte 22 @ VOL
	.byte W02
	.byte 21 @ VOL
	.byte W02
	.byte 19 @ VOL
	.byte W02
	.byte 18 @ VOL
	.byte W03
	.byte 17 @ VOL
	.byte W02
	.byte 15 @ VOL
	.byte W02
	.byte 14 @ VOL
	.byte W02
	.byte 12 @ VOL
	.byte W02
	.byte 11 @ VOL
	.byte W03
	.byte 9 @ VOL
	.byte W02
	.byte 8 @ VOL
	.byte W02
	.byte 7 @ VOL
	.byte W01
	.byte 6 @ VOL
	.byte W02
	.byte 4 @ VOL
	.byte W24
	.byte W02
	.byte W24
	.byte 34 @ VOL
	.byte W24
	.byte PAN, c_v+6
	.byte N36, Bn2, v044
	.byte W02
	.byte VOL, 35
	.byte W02
	.byte 36 @ VOL
	.byte W02
	.byte 38 @ VOL
	.byte W02
	.byte 39 @ VOL
	.byte W02
	.byte 41 @ VOL
	.byte W03
	.byte 42 @ VOL
	.byte W02
	.byte 43 @ VOL
	.byte W02
	.byte 45 @ VOL
	.byte W02
	.byte 46 @ VOL
	.byte W02
	.byte 48 @ VOL
	.byte W02
	.byte 49 @ VOL
	.byte W02
	.byte 51 @ VOL
	.byte W02
	.byte 52 @ VOL
	.byte W03
	.byte 53 @ VOL
	.byte W02
	.byte 55 @ VOL
	.byte W02
	.byte 56 @ VOL
	.byte W02
	.byte 58 @ VOL
	.byte W02
	.byte 59 @ VOL
	.byte W02
	.byte 60 @ VOL
	.byte W02
	.byte 62 @ VOL
	.byte W06
	.byte VOICE, 8
	.byte VOL, 35
	.byte PAN, c_v-10
	.byte N96, Gs2, v040
	.byte W01
	.byte VOL, 34
	.byte W01
	.byte 34 @ VOL
	.byte W01
	.byte 31 @ VOL
	.byte W01
	.byte 29 @ VOL
	.byte W01
	.byte 28 @ VOL
	.byte W01
	.byte 27 @ VOL
	.byte W01
	.byte 26 @ VOL
	.byte W01
	.byte 25 @ VOL
	.byte W01
	.byte 24 @ VOL
	.byte W03
	.byte 22 @ VOL
	.byte W03
	.byte 21 @ VOL
	.byte W05
	.byte 20 @ VOL
	.byte W10
	.byte 21 @ VOL
	.byte W07
	.byte 22 @ VOL
	.byte W04
	.byte 24 @ VOL
	.byte W04
	.byte 25 @ VOL
	.byte W04
	.byte 26 @ VOL
	.byte W04
	.byte 27 @ VOL
	.byte W03
	.byte 28 @ VOL
	.byte W03
	.byte 29 @ VOL
	.byte W03
	.byte 31 @ VOL
	.byte W03
	.byte 32 @ VOL
	.byte W03
	.byte 34 @ VOL
	.byte W02
	.byte 34 @ VOL
	.byte W03
	.byte 35 @ VOL
	.byte W04
	.byte 36 @ VOL
	.byte W03
	.byte 38 @ VOL
	.byte W02
	.byte 39 @ VOL
	.byte W03
	.byte 41 @ VOL
	.byte W03
	.byte 41 @ VOL
	.byte W03
	.byte 42 @ VOL
	.byte W03
	.byte 43 @ VOL
	.byte W01
	.byte 41 @ VOL
	.byte W01
	.byte N48, Bn2 @ v040
	.byte W01
	.byte VOL, 42
	.byte W01
	.byte 41 @ VOL
	.byte W01
	.byte 41 @ VOL
	.byte W01
	.byte 40 @ VOL
	.byte W01
	.byte 38 @ VOL
	.byte W01
	.byte 38 @ VOL
	.byte W01
	.byte 37 @ VOL
	.byte W01
	.byte 36 @ VOL
	.byte W01
	.byte 36 @ VOL
	.byte W01
	.byte 35 @ VOL
	.byte W01
	.byte 34 @ VOL
	.byte W01
	.byte 34 @ VOL
	.byte W01
	.byte 32 @ VOL
	.byte W01
	.byte 31 @ VOL
	.byte W01
	.byte 31 @ VOL
	.byte W01
	.byte 30 @ VOL
	.byte W01
	.byte 29 @ VOL
	.byte W01
	.byte 29 @ VOL
	.byte W01
	.byte 28 @ VOL
	.byte W01
	.byte 27 @ VOL
	.byte W01
	.byte 26 @ VOL
	.byte W01
	.byte 25 @ VOL
	.byte W01
	.byte 24 @ VOL
	.byte W01
	.byte 24 @ VOL
	.byte W01
	.byte 23 @ VOL
	.byte W01
	.byte 22 @ VOL
	.byte W01
	.byte 21 @ VOL
	.byte W01
	.byte 21 @ VOL
	.byte W01
	.byte 19 @ VOL
	.byte W01
	.byte 19 @ VOL
	.byte W01
	.byte 18 @ VOL
	.byte W01
	.byte 17 @ VOL
	.byte W01
	.byte 17 @ VOL
	.byte W01
	.byte 16 @ VOL
	.byte W01
	.byte 15 @ VOL
	.byte W01
	.byte 14 @ VOL
	.byte W01
	.byte 13 @ VOL
	.byte W01
	.byte 12 @ VOL
	.byte W01
	.byte 12 @ VOL
	.byte W01
	.byte 11 @ VOL
	.byte W01
	.byte 10 @ VOL
	.byte W01
	.byte 9 @ VOL
	.byte W01
	.byte 9 @ VOL
	.byte W01
	.byte 7 @ VOL
	.byte W01
	.byte 7 @ VOL
	.byte W01
	.byte 6 @ VOL
	.byte W48
	.byte W02
	.byte 12 @ VOL
	.byte N96, Cs3, v044
	.byte W04
	.byte VOL, 14
	.byte W04
	.byte 15 @ VOL
	.byte W04
	.byte 17 @ VOL
	.byte W04
	.byte 18 @ VOL
	.byte W04
	.byte 19 @ VOL
	.byte W04
	.byte 21 @ VOL
	.byte W04
	.byte 22 @ VOL
	.byte W04
	.byte 24 @ VOL
	.byte W02
	.byte 24 @ VOL
	.byte W02
	.byte 25 @ VOL
	.byte W05
	.byte 26 @ VOL
	.byte W04
	.byte 28 @ VOL
	.byte W04
	.byte 29 @ VOL
	.byte W04
	.byte 31 @ VOL
	.byte W04
	.byte 32 @ VOL
	.byte W04
	.byte 34 @ VOL
	.byte W04
	.byte 35 @ VOL
	.byte W04
	.byte 36 @ VOL
	.byte W04
	.byte 38 @ VOL
	.byte W05
	.byte 39 @ VOL
	.byte W02
	.byte 40 @ VOL
	.byte W02
	.byte 41 @ VOL
	.byte W04
	.byte 42 @ VOL
	.byte W04
	.byte 43 @ VOL
	.byte W04
	.byte 45 @ VOL
	.byte W02
	.byte N48, Bn2, v040
	.byte W01
	.byte VOL, 42
	.byte W02
	.byte 41 @ VOL
	.byte W02
	.byte 38 @ VOL
	.byte W01
	.byte 38 @ VOL
	.byte W02
	.byte 36 @ VOL
	.byte W02
	.byte 35 @ VOL
	.byte W02
	.byte 34 @ VOL
	.byte W01
	.byte 32 @ VOL
	.byte W02
	.byte 31 @ VOL
	.byte W02
	.byte 29 @ VOL
	.byte W02
	.byte 28 @ VOL
	.byte W02
	.byte 26 @ VOL
	.byte W01
	.byte 25 @ VOL
	.byte W02
	.byte 24 @ VOL
	.byte W02
	.byte 22 @ VOL
	.byte W02
	.byte 21 @ VOL
	.byte W01
	.byte 19 @ VOL
	.byte W02
	.byte 18 @ VOL
	.byte W02
	.byte 17 @ VOL
	.byte W02
	.byte 15 @ VOL
	.byte W02
	.byte 13 @ VOL
	.byte W01
	.byte 12 @ VOL
	.byte W02
	.byte 11 @ VOL
	.byte W02
	.byte 9 @ VOL
	.byte W02
	.byte 7 @ VOL
	.byte W01
	.byte 7 @ VOL
	.byte W01
	.byte 6 @ VOL
	.byte W48
	.byte W02
	.byte VOICE, 8
	.byte VOL, 24
	.byte N96, Cs3 @ v040
	.byte W52
	.byte W01
	.byte VOL, 25
	.byte W08
	.byte 26 @ VOL
	.byte W04
	.byte 27 @ VOL
	.byte W03
	.byte 28 @ VOL
	.byte W04
	.byte 29 @ VOL
	.byte W02
	.byte 31 @ VOL
	.byte W02
	.byte 32 @ VOL
	.byte W02
	.byte 34 @ VOL
	.byte W02
	.byte 34 @ VOL
	.byte W02
	.byte 35 @ VOL
	.byte W02
	.byte 36 @ VOL
	.byte W01
	.byte 38 @ VOL
	.byte W02
	.byte 39 @ VOL
	.byte W02
	.byte 41 @ VOL
	.byte W01
	.byte 41 @ VOL
	.byte W01
	.byte 42 @ VOL
	.byte W02
	.byte 43 @ VOL
	.byte W01
	.byte 45 @ VOL
	.byte W02
	.byte N48, Dn3 @ v040
	.byte W01
	.byte VOL, 42
	.byte W02
	.byte 41 @ VOL
	.byte W02
	.byte 38 @ VOL
	.byte W01
	.byte 38 @ VOL
	.byte W02
	.byte 36 @ VOL
	.byte W02
	.byte 35 @ VOL
	.byte W02
	.byte 34 @ VOL
	.byte W01
	.byte 32 @ VOL
	.byte W02
	.byte 31 @ VOL
	.byte W02
	.byte 29 @ VOL
	.byte W02
	.byte 28 @ VOL
	.byte W02
	.byte 26 @ VOL
	.byte W01
	.byte 25 @ VOL
	.byte W02
	.byte 24 @ VOL
	.byte W02
	.byte 22 @ VOL
	.byte W02
	.byte 21 @ VOL
	.byte W01
	.byte 19 @ VOL
	.byte W02
	.byte 18 @ VOL
	.byte W02
	.byte 17 @ VOL
	.byte W02
	.byte 15 @ VOL
	.byte W02
	.byte 13 @ VOL
	.byte W01
	.byte 12 @ VOL
	.byte W02
	.byte 11 @ VOL
	.byte W02
	.byte 9 @ VOL
	.byte W02
	.byte 7 @ VOL
	.byte W01
	.byte 7 @ VOL
	.byte W01
	.byte 6 @ VOL
	.byte W48
	.byte W01
	.byte 5 @ VOL
	.byte W01
	.byte VOICE, 7
	.byte VOL, 5
	.byte PAN, c_v-4
	.byte N96, Gs3 @ v040
	.byte W04
	.byte VOL, 7
	.byte W07
	.byte 8 @ VOL
	.byte W06
	.byte 9 @ VOL
	.byte W07
	.byte 11 @ VOL
	.byte W06
	.byte 12 @ VOL
	.byte W06
	.byte 14 @ VOL
	.byte W07
	.byte 15 @ VOL
	.byte W06
	.byte 17 @ VOL
	.byte W07
	.byte 18 @ VOL
	.byte W06
	.byte 19 @ VOL
	.byte W07
	.byte 21 @ VOL
	.byte W06
	.byte 22 @ VOL
	.byte W07
	.byte 24 @ VOL
	.byte W06
	.byte 25 @ VOL
	.byte W06
	.byte 26 @ VOL
	.byte W02
	.byte 27 @ VOL
	.byte N96 @ Gs3, v040
	.byte W05
	.byte VOL, 26
	.byte W06
	.byte 24 @ VOL
	.byte W06
	.byte 23 @ VOL
	.byte W06
	.byte 21 @ VOL
	.byte W07
	.byte 20 @ VOL
	.byte W06
	.byte 19 @ VOL
	.byte W06
	.byte 17 @ VOL
	.byte W06
	.byte 16 @ VOL
	.byte W06
	.byte 14 @ VOL
	.byte W09
	.byte 12 @ VOL
	.byte W06
	.byte 11 @ VOL
	.byte W07
	.byte 9 @ VOL
	.byte W06
	.byte 8 @ VOL
	.byte W06
	.byte 7 @ VOL
	.byte W06
	.byte 5 @ VOL
	.byte W02
	.byte GOTO
		.word track_7_lbl_25b1c8
	.byte FINE

track_7_3:
	.byte KEYSH, 0
track_7_lbl_25b4f9:
	.byte VOICE, 2
	.byte VOL, 70
	.byte PAN, c_v
	.byte PRIO, 30
	.byte W48
	.byte N12, Cs1, v112
	.byte W48
	.byte N06 @ Cs1, v112
	.byte W12
	.byte N12 @ Cs1, v112
	.byte W60
	.byte N04, Cs1, v100
	.byte W06
	.byte Cs1, v096 @ N04
	.byte W06
	.byte N03, Cs1, v112
	.byte W04
	.byte N03 @ Cs1, v112
	.byte W04
	.byte Cs1, v116 @ N03
	.byte W04
	.byte N12 @ Cs1, v116
	.byte W96
	.byte W96
	.byte W96
	.byte N06, Cs1, v092
	.byte W12
	.byte N12 @ Cs1, v092
	.byte W60
	.byte N04, Cs1, v100
	.byte W06
	.byte Cs1, v096 @ N04
	.byte W06
	.byte N03, Cs1, v112
	.byte W04
	.byte N03 @ Cs1, v112
	.byte W04
	.byte Cs1, v116 @ N03
	.byte W04
	.byte N12, Cs1, v112
	.byte W48
	.byte N12 @ Cs1, v112
	.byte W48
	.byte VOICE, 8
	.byte VOL, 43
	.byte N48, Gn2, v040
	.byte W01
	.byte VOL, 42
	.byte W01
	.byte 41 @ VOL
	.byte W01
	.byte 41 @ VOL
	.byte W01
	.byte 40 @ VOL
	.byte W01
	.byte 38 @ VOL
	.byte W01
	.byte 38 @ VOL
	.byte W01
	.byte 37 @ VOL
	.byte W01
	.byte 36 @ VOL
	.byte W01
	.byte 36 @ VOL
	.byte W01
	.byte 35 @ VOL
	.byte W01
	.byte 34 @ VOL
	.byte W01
	.byte 34 @ VOL
	.byte W01
	.byte 32 @ VOL
	.byte W01
	.byte 31 @ VOL
	.byte W01
	.byte 31 @ VOL
	.byte W01
	.byte 30 @ VOL
	.byte W01
	.byte 29 @ VOL
	.byte W01
	.byte 29 @ VOL
	.byte W01
	.byte 28 @ VOL
	.byte W01
	.byte 27 @ VOL
	.byte W01
	.byte 26 @ VOL
	.byte W01
	.byte 25 @ VOL
	.byte W01
	.byte 24 @ VOL
	.byte W01
	.byte 24 @ VOL
	.byte W01
	.byte 23 @ VOL
	.byte W01
	.byte 22 @ VOL
	.byte W01
	.byte 21 @ VOL
	.byte W01
	.byte 21 @ VOL
	.byte W01
	.byte 19 @ VOL
	.byte W01
	.byte 19 @ VOL
	.byte W01
	.byte 18 @ VOL
	.byte W01
	.byte 17 @ VOL
	.byte W01
	.byte 17 @ VOL
	.byte W01
	.byte 16 @ VOL
	.byte W01
	.byte 15 @ VOL
	.byte W01
	.byte 14 @ VOL
	.byte W01
	.byte 13 @ VOL
	.byte W01
	.byte 12 @ VOL
	.byte W01
	.byte 12 @ VOL
	.byte W01
	.byte 11 @ VOL
	.byte W01
	.byte 10 @ VOL
	.byte W01
	.byte 9 @ VOL
	.byte W01
	.byte 9 @ VOL
	.byte W01
	.byte 7 @ VOL
	.byte W01
	.byte 7 @ VOL
	.byte W01
	.byte 6 @ VOL
	.byte W48
	.byte W02
	.byte VOICE, 2
	.byte VOL, 70
	.byte N12, Cs1, v100
	.byte W48
	.byte Cs1, v112 @ N12
	.byte W48
	.byte VOICE, 8
	.byte VOL, 43
	.byte N48, Gn2, v040
	.byte W01
	.byte VOL, 42
	.byte W02
	.byte 41 @ VOL
	.byte W02
	.byte 38 @ VOL
	.byte W01
	.byte 38 @ VOL
	.byte W02
	.byte 36 @ VOL
	.byte W02
	.byte 35 @ VOL
	.byte W02
	.byte 34 @ VOL
	.byte W01
	.byte 32 @ VOL
	.byte W02
	.byte 31 @ VOL
	.byte W02
	.byte 29 @ VOL
	.byte W02
	.byte 28 @ VOL
	.byte W02
	.byte 26 @ VOL
	.byte W01
	.byte 25 @ VOL
	.byte W02
	.byte 24 @ VOL
	.byte W02
	.byte 22 @ VOL
	.byte W02
	.byte 21 @ VOL
	.byte W01
	.byte 19 @ VOL
	.byte W02
	.byte 18 @ VOL
	.byte W02
	.byte 17 @ VOL
	.byte W02
	.byte 15 @ VOL
	.byte W02
	.byte 13 @ VOL
	.byte W01
	.byte 12 @ VOL
	.byte W02
	.byte 11 @ VOL
	.byte W02
	.byte 9 @ VOL
	.byte W02
	.byte 7 @ VOL
	.byte W01
	.byte 7 @ VOL
	.byte W01
	.byte 6 @ VOL
	.byte W48
	.byte W02
	.byte VOICE, 2
	.byte VOL, 70
	.byte N12, Cs1, v112
	.byte W48
	.byte N12 @ Cs1, v112
	.byte W24
	.byte N12 @ Cs1, v112
	.byte W24
	.byte VOICE, 8
	.byte VOL, 43
	.byte N48, As2, v040
	.byte W01
	.byte VOL, 42
	.byte W02
	.byte 41 @ VOL
	.byte W02
	.byte 38 @ VOL
	.byte W01
	.byte 38 @ VOL
	.byte W02
	.byte 36 @ VOL
	.byte W02
	.byte 35 @ VOL
	.byte W02
	.byte 34 @ VOL
	.byte W01
	.byte 32 @ VOL
	.byte W02
	.byte 31 @ VOL
	.byte W02
	.byte 29 @ VOL
	.byte W02
	.byte 28 @ VOL
	.byte W02
	.byte 26 @ VOL
	.byte W01
	.byte 25 @ VOL
	.byte W02
	.byte 24 @ VOL
	.byte W02
	.byte 22 @ VOL
	.byte W02
	.byte 21 @ VOL
	.byte W01
	.byte 19 @ VOL
	.byte W02
	.byte 18 @ VOL
	.byte W02
	.byte 17 @ VOL
	.byte W02
	.byte 15 @ VOL
	.byte W02
	.byte 13 @ VOL
	.byte W01
	.byte 12 @ VOL
	.byte W02
	.byte 11 @ VOL
	.byte W02
	.byte 9 @ VOL
	.byte W02
	.byte 7 @ VOL
	.byte W01
	.byte 7 @ VOL
	.byte W01
	.byte 6 @ VOL
	.byte W48
	.byte W02
	.byte VOICE, 2
	.byte VOL, 70
	.byte N12, Cs1, v112
	.byte W48
	.byte N12 @ Cs1, v112
	.byte W48
	.byte N06 @ Cs1, v112
	.byte W12
	.byte N12 @ Cs1, v112
	.byte W84
	.byte GOTO
		.word track_7_lbl_25b4f9
	.byte FINE

track_7_4:
	.byte KEYSH, 0
track_7_lbl_25b64d:
	.byte PAN, c_v
	.byte PRIO, 1
	.byte W24
	.byte VOICE, 0
	.byte VOL, 70
	.byte N12, Cs2, v044
	.byte W72
	.byte W96
	.byte W72
	.byte N15, Cs2, v032
	.byte W24
	.byte W24
	.byte N15 @ Cs2, v032
	.byte W48
	.byte N03, Cs2, v016
	.byte W06
	.byte Cs2, v032 @ N03
	.byte W06
	.byte Cs2, v060 @ N03
	.byte W04
	.byte Cs2, v052 @ N03
	.byte W04
	.byte Cs2, v040 @ N03
	.byte W04
	.byte N06, Cs2, v048
	.byte W60
	.byte Cs2, v052 @ N06
	.byte W36
	.byte W96
	.byte W24
	.byte N12, Cs2, v044
	.byte W72
	.byte W60
	.byte N12 @ Cs2, v044
	.byte W36
	.byte W24
	.byte N12 @ Cs2, v044
	.byte W48
	.byte N03, Cs2, v032
	.byte W06
	.byte N03 @ Cs2, v032
	.byte W06
	.byte N03 @ Cs2, v032
	.byte W04
	.byte N03 @ Cs2, v032
	.byte W04
	.byte Cs2, v040 @ N03
	.byte W04
	.byte Cs2, v032 @ N03
	.byte W12
	.byte Cs2, v020 @ N03
	.byte W48
	.byte N12, Cs2, v044
	.byte W36
	.byte W24
	.byte Cs2, v020 @ N12
	.byte W72
	.byte W96
	.byte W24
	.byte N12 @ Cs2, v020
	.byte W72
	.byte W96
	.byte GOTO
		.word track_7_lbl_25b64d
	.byte FINE

track_7_5:
	.byte KEYSH, 0
track_7_lbl_25b6ae:
	.byte PAN, c_v-4
	.byte PRIO, 1
	.byte W96
	.byte W96
	.byte W96
	.byte W96
	.byte W96
	.byte W96
	.byte W96
	.byte VOICE, 2
	.byte VOL, 70
	.byte N06, Cs1, v112
	.byte W12
	.byte N12 @ Cs1, v112
	.byte W60
	.byte N12 @ Cs1, v112
	.byte W24
	.byte W96
	.byte N06 @ Cs1, v112
	.byte W96
	.byte W96
	.byte N06 @ Cs1, v112
	.byte W12
	.byte N12 @ Cs1, v112
	.byte W48
	.byte N06, Cs1, v096
	.byte W24
	.byte N12 @ Cs1, v096
	.byte W12
	.byte W96
	.byte W96
	.byte GOTO
		.word track_7_lbl_25b6ae
	.byte FINE

.align 2

track_7:
	.byte 6
	.byte 7
	.byte 130
	.byte 128
	.word 0x80a5bd8
	.word track_7_0
	.word track_7_1
	.word track_7_2
	.word track_7_3
	.word track_7_4
	.word track_7_5

.align 2
