.align 2

.global track_4

track_4_0:
	.byte KEYSH, 0
track_4_lbl_258c5e:
	.byte TEMPO, 60
	.byte VOICE, 2
	.byte VOL, 50
	.byte PAN, c_v+10
	.byte PRIO, 110
	.byte N90, Fn3, v100
	.byte W36
	.byte VOL, 37
	.byte W01
	.byte 39 @ VOL
	.byte W01
	.byte 39 @ VOL
	.byte W01
	.byte 40 @ VOL
	.byte W01
	.byte 42 @ VOL
	.byte W01
	.byte 43 @ VOL
	.byte W01
	.byte 44 @ VOL
	.byte W01
	.byte 45 @ VOL
	.byte W01
	.byte 46 @ VOL
	.byte W01
	.byte 47 @ VOL
	.byte W01
	.byte 48 @ VOL
	.byte W01
	.byte 49 @ VOL
	.byte W01
	.byte 51 @ VOL
	.byte W01
	.byte 51 @ VOL
	.byte W01
	.byte 52 @ VOL
	.byte W01
	.byte 54 @ VOL
	.byte W01
	.byte 54 @ VOL
	.byte W01
	.byte 56 @ VOL
	.byte W01
	.byte 57 @ VOL
	.byte W01
	.byte 58 @ VOL
	.byte W01
	.byte 59 @ VOL
	.byte W01
	.byte 60 @ VOL
	.byte W01
	.byte 61 @ VOL
	.byte W01
	.byte 62 @ VOL
	.byte W01
	.byte 63 @ VOL
	.byte W01
	.byte 64 @ VOL
	.byte W01
	.byte 66 @ VOL
	.byte W01
	.byte 66 @ VOL
	.byte W01
	.byte 68 @ VOL
	.byte W01
	.byte 69 @ VOL
	.byte W01
	.byte 69 @ VOL
	.byte W01
	.byte 71 @ VOL
	.byte W01
	.byte 72 @ VOL
	.byte W01
	.byte 73 @ VOL
	.byte W01
	.byte 74 @ VOL
	.byte W01
	.byte 75 @ VOL
	.byte W24
	.byte W01
	.byte 44 @ VOL
	.byte N12, Bn3, v080
	.byte W12
	.byte N84, As3, v060
	.byte W12
	.byte VOL, 49
	.byte W01
	.byte 50 @ VOL
	.byte W03
	.byte 51 @ VOL
	.byte W02
	.byte 52 @ VOL
	.byte W02
	.byte 54 @ VOL
	.byte W03
	.byte 55 @ VOL
	.byte W02
	.byte 56 @ VOL
	.byte W03
	.byte 57 @ VOL
	.byte W02
	.byte 59 @ VOL
	.byte W03
	.byte 60 @ VOL
	.byte W02
	.byte 61 @ VOL
	.byte W03
	.byte 62 @ VOL
	.byte W02
	.byte 64 @ VOL
	.byte W03
	.byte 65 @ VOL
	.byte W02
	.byte 66 @ VOL
	.byte W03
	.byte 68 @ VOL
	.byte W02
	.byte 69 @ VOL
	.byte W02
	.byte 70 @ VOL
	.byte W03
	.byte 71 @ VOL
	.byte W02
	.byte 73 @ VOL
	.byte W03
	.byte 74 @ VOL
	.byte W24
	.byte N12, Gs3, v080
	.byte W12
	.byte VOL, 44
	.byte N60, An3, v084
	.byte W12
	.byte VOL, 37
	.byte W24
	.byte 31 @ VOL
	.byte W24
	.byte 50 @ VOL
	.byte N12, Fn3, v100
	.byte W12
	.byte Dn3 @ N12, v100
	.byte W12
track_4_lbl_258d00:
	.byte VOICE, 4
	.byte VOL, 62
	.byte N18, Dn2, v108
	.byte W18
	.byte Dn2, v080 @ N18
	.byte W18
	.byte Dn2, v088 @ N18
	.byte W60
	.byte PEND
track_4_lbl_258d0f:
	.byte N18, Dn2, v108
	.byte W18
	.byte Dn2, v080 @ N18
	.byte W18
	.byte Dn2, v088 @ N18
	.byte W60
	.byte PEND
track_4_lbl_258d1a:
	.byte N18, Dn2, v108
	.byte W18
	.byte Dn2, v076 @ N18
	.byte W18
	.byte Dn2, v096 @ N18
	.byte W60
	.byte PEND
	.byte VOICE, 2
	.byte VOL, 44
	.byte N36, An2, v100
	.byte W36
	.byte N72, As2, v127
	.byte W60
	.byte W12
	.byte N66, Fn3, v112
	.byte W84
	.byte N36, An3, v120
	.byte W36
	.byte N72, As3 @ v120
	.byte W60
	.byte W12
	.byte N80, Fn4, v127
	.byte W11
	.byte VOL, 56
	.byte W04
	.byte 57 @ VOL
	.byte W04
	.byte 59 @ VOL
	.byte W05
	.byte 60 @ VOL
	.byte W04
	.byte 61 @ VOL
	.byte W05
	.byte 62 @ VOL
	.byte W04
	.byte 64 @ VOL
	.byte W05
	.byte 65 @ VOL
	.byte W04
	.byte 66 @ VOL
	.byte W05
	.byte 68 @ VOL
	.byte W04
	.byte 69 @ VOL
	.byte W05
	.byte 70 @ VOL
	.byte W24
	.byte 44 @ VOL
	.byte N06, Dn3, v092
	.byte W36
	.byte N06 @ Dn3, v092
	.byte W60
	.byte W36
	.byte N05, Ds3 @ v092
	.byte W12
	.byte N04, Ds3, v084
	.byte W12
	.byte N04 @ Ds3, v084
	.byte W12
	.byte VOL, 44
	.byte N24, Ds3, v120
	.byte W12
	.byte VOL, 56
	.byte W06
	.byte 75 @ VOL
	.byte W06
	.byte 44 @ VOL
	.byte N06, Dn3, v092
	.byte W36
	.byte Dn3, v060 @ N06
	.byte W60
	.byte W36
	.byte VOL, 56
	.byte N12, Fn3, v092
	.byte W12
	.byte VOL, 44
	.byte N02, Ds3 @ v092
	.byte W12
	.byte N36, Ds3, v100
	.byte W12
	.byte VOL, 56
	.byte W12
	.byte 69 @ VOL
	.byte W06
	.byte 75 @ VOL
	.byte W06
	.byte 44 @ VOL
	.byte N06, Dn3, v096
	.byte W36
	.byte N02, Dn3, v088
	.byte W36
	.byte N03, Dn3, v096
	.byte W24
	.byte W36
	.byte N02, Ds3, v104
	.byte W12
	.byte N04, Ds3, v068
	.byte W12
	.byte N36, Ds3, v104
	.byte W12
	.byte VOL, 50
	.byte W12
	.byte 56 @ VOL
	.byte W06
	.byte 69 @ VOL
	.byte W06
	.byte 56 @ VOL
	.byte N04, Fn3, v127
	.byte W36
	.byte Fn3, v124 @ N04
	.byte W36
	.byte N04 @ Fn3, v124
	.byte W12
	.byte VOL, 43
	.byte N84, Fs3, v120
	.byte W03
	.byte VOL, 45
	.byte W03
	.byte 46 @ VOL
	.byte W02
	.byte 47 @ VOL
	.byte W03
	.byte 49 @ VOL
	.byte W01
	.byte W01
	.byte 50 @ VOL
	.byte W02
	.byte 51 @ VOL
	.byte W03
	.byte 52 @ VOL
	.byte W02
	.byte 54 @ VOL
	.byte W02
	.byte 55 @ VOL
	.byte W03
	.byte 56 @ VOL
	.byte W02
	.byte 57 @ VOL
	.byte W03
	.byte 59 @ VOL
	.byte W02
	.byte 60 @ VOL
	.byte W02
	.byte 61 @ VOL
	.byte W03
	.byte 62 @ VOL
	.byte W02
	.byte 64 @ VOL
	.byte W02
	.byte 65 @ VOL
	.byte W03
	.byte 66 @ VOL
	.byte W02
	.byte 68 @ VOL
	.byte W03
	.byte 69 @ VOL
	.byte W02
	.byte 70 @ VOL
	.byte W02
	.byte 71 @ VOL
	.byte W03
	.byte 73 @ VOL
	.byte W02
	.byte 74 @ VOL
	.byte W02
	.byte 75 @ VOL
	.byte W48
	.byte 44 @ VOL
	.byte N80, Cn4, v092
	.byte W12
	.byte VOL, 24
	.byte W01
	.byte 25 @ VOL
	.byte W03
	.byte 26 @ VOL
	.byte W02
	.byte 27 @ VOL
	.byte W02
	.byte 28 @ VOL
	.byte W03
	.byte 30 @ VOL
	.byte W02
	.byte 31 @ VOL
	.byte W03
	.byte 32 @ VOL
	.byte W02
	.byte 34 @ VOL
	.byte W02
	.byte 35 @ VOL
	.byte W03
	.byte 36 @ VOL
	.byte W02
	.byte 37 @ VOL
	.byte W03
	.byte 39 @ VOL
	.byte W02
	.byte 40 @ VOL
	.byte W03
	.byte 41 @ VOL
	.byte W02
	.byte 42 @ VOL
	.byte W02
	.byte 44 @ VOL
	.byte W03
	.byte 45 @ VOL
	.byte W02
	.byte 46 @ VOL
	.byte W03
	.byte 47 @ VOL
	.byte W02
	.byte 49 @ VOL
	.byte W02
	.byte 50 @ VOL
	.byte W03
	.byte 51 @ VOL
	.byte W02
	.byte 52 @ VOL
	.byte W03
	.byte 54 @ VOL
	.byte W02
	.byte 55 @ VOL
	.byte W01
	.byte 56 @ VOL
	.byte W12
	.byte N84, Bn3 @ v092
	.byte W12
	.byte VOL, 37
	.byte W48
	.byte 25 @ VOL
	.byte W48
	.byte 44 @ VOL
	.byte N80, An3 @ v092
	.byte W09
	.byte VOL, 45
	.byte W04
	.byte 46 @ VOL
	.byte W05
	.byte 47 @ VOL
	.byte W04
	.byte 49 @ VOL
	.byte W05
	.byte 50 @ VOL
	.byte W04
	.byte 51 @ VOL
	.byte W05
	.byte 52 @ VOL
	.byte W05
	.byte 54 @ VOL
	.byte W04
	.byte 55 @ VOL
	.byte W05
	.byte 56 @ VOL
	.byte W04
	.byte 57 @ VOL
	.byte W05
	.byte 59 @ VOL
	.byte W05
	.byte 60 @ VOL
	.byte W04
	.byte 61 @ VOL
	.byte W04
	.byte 62 @ VOL
	.byte W12
	.byte 41 @ VOL
	.byte N84, Gs3 @ v092
	.byte W04
	.byte VOL, 40
	.byte W05
	.byte 39 @ VOL
	.byte W03
	.byte W02
	.byte 37 @ VOL
	.byte W05
	.byte 36 @ VOL
	.byte W05
	.byte 35 @ VOL
	.byte W05
	.byte 34 @ VOL
	.byte W06
	.byte 32 @ VOL
	.byte W05
	.byte 31 @ VOL
	.byte W05
	.byte 30 @ VOL
	.byte W05
	.byte 28 @ VOL
	.byte W05
	.byte 27 @ VOL
	.byte W05
	.byte 26 @ VOL
	.byte W48
	.byte 44 @ VOL
	.byte N80, Cn4 @ v092
	.byte W84
	.byte N84, Bn3 @ v092
	.byte W12
	.byte W24
	.byte VOL, 37
	.byte W24
	.byte 25 @ VOL
	.byte W36
	.byte 44 @ VOL
	.byte N06, An3, v112
	.byte W06
	.byte Gs3, v096 @ N06
	.byte W06
	.byte N80, Cn4, v092
	.byte W84
	.byte N84, Cs4 @ v092
	.byte W12
	.byte W84
	.byte N06, An3, v112
	.byte W06
	.byte Gs3, v096 @ N06
	.byte W06
	.byte N80, Cn4, v092
	.byte W84
	.byte N84, Bn3 @ v092
	.byte W12
	.byte W24
	.byte VOL, 44
	.byte W02
	.byte 45 @ VOL
	.byte W01
	.byte 46 @ VOL
	.byte W02
	.byte 47 @ VOL
	.byte W01
	.byte 48 @ VOL
	.byte W01
	.byte 49 @ VOL
	.byte W01
	.byte 50 @ VOL
	.byte W02
	.byte 51 @ VOL
	.byte W01
	.byte 52 @ VOL
	.byte W02
	.byte 54 @ VOL
	.byte W02
	.byte 55 @ VOL
	.byte W01
	.byte 56 @ VOL
	.byte W02
	.byte 57 @ VOL
	.byte W01
	.byte 58 @ VOL
	.byte W02
	.byte 60 @ VOL
	.byte W02
	.byte 61 @ VOL
	.byte W01
	.byte 62 @ VOL
	.byte W30
	.byte N05, Gs3, v116
	.byte W06
	.byte Gn3 @ N05, v116
	.byte W06
	.byte Fn3 @ N05, v116
	.byte W06
	.byte N12, Dn3 @ v116
	.byte W96
	.byte VOICE, 4
	.byte VOL, 62
	.byte N18, Dn2, v108
	.byte W12
	.byte PAN, c_v
	.byte W06
	.byte N18, Dn2, v076
	.byte W18
	.byte Dn2, v096 @ N18
	.byte W60
	.byte VOICE, 12
	.byte PAN, c_v-10
	.byte VOL, 44
	.byte N08, Cn4, v092
	.byte W36
	.byte N08 @ Cn4, v092
	.byte W36
	.byte N08 @ Cn4, v092
	.byte W24
	.byte W12
	.byte N08 @ Cn4, v092
	.byte W36
	.byte Cs4 @ N08, v092
	.byte W12
	.byte N08 @ Cs4, v092
	.byte W36
	.byte Cn4 @ N08, v092
	.byte W36
	.byte N08 @ Cn4, v092
	.byte W36
	.byte N08 @ Cn4, v092
	.byte W24
	.byte W12
	.byte N08 @ Cn4, v092
	.byte W36
	.byte Bn3 @ N08, v092
	.byte W12
	.byte N08 @ Bn3, v092
	.byte W36
	.byte Cn4, v080 @ N08
	.byte W36
	.byte N08 @ Cn4, v080
	.byte W36
	.byte N08 @ Cn4, v080
	.byte W24
	.byte W12
	.byte Cn4, v072 @ N08
	.byte W36
	.byte Cs4 @ N08, v072
	.byte W12
	.byte N08 @ Cs4, v072
	.byte W36
	.byte VOICE, 2
	.byte PAN, c_v+10
	.byte VOL, 44
	.byte N06, Dn3, v112
	.byte W36
	.byte Dn3, v100 @ N06
	.byte W60
	.byte W36
	.byte N04, Ds3, v088
	.byte W12
	.byte Ds3, v092 @ N04
	.byte W12
	.byte Ds3, v084 @ N04
	.byte W12
	.byte N24, Ds3, v100
	.byte W24
	.byte N06, Dn3, v096
	.byte W36
	.byte N06 @ Dn3, v096
	.byte W60
	.byte W36
	.byte N04, Fn3, v092
	.byte W12
	.byte N02, Ds3, v100
	.byte W12
	.byte N36, Ds3, v104
	.byte W12
	.byte VOL, 50
	.byte W03
	.byte 51 @ VOL
	.byte W01
	.byte 52 @ VOL
	.byte W01
	.byte 54 @ VOL
	.byte W01
	.byte 55 @ VOL
	.byte W02
	.byte 57 @ VOL
	.byte W01
	.byte 58 @ VOL
	.byte W01
	.byte 59 @ VOL
	.byte W01
	.byte 61 @ VOL
	.byte W01
	.byte 62 @ VOL
	.byte W01
	.byte 63 @ VOL
	.byte W01
	.byte 64 @ VOL
	.byte W01
	.byte 66 @ VOL
	.byte W01
	.byte 67 @ VOL
	.byte W02
	.byte 69 @ VOL
	.byte W06
	.byte 44 @ VOL
	.byte N05, Dn3, v096
	.byte W36
	.byte N02, Dn3, v088
	.byte W36
	.byte Dn3, v096 @ N02
	.byte W24
	.byte W36
	.byte N03, Ds3, v104
	.byte W12
	.byte Ds3, v108 @ N03
	.byte W12
	.byte N36, Ds3, v104
	.byte W12
	.byte VOL, 50
	.byte W01
	.byte 51 @ VOL
	.byte W01
	.byte 52 @ VOL
	.byte W01
	.byte 53 @ VOL
	.byte W01
	.byte 54 @ VOL
	.byte W01
	.byte 56 @ VOL
	.byte W01
	.byte 57 @ VOL
	.byte W01
	.byte 57 @ VOL
	.byte W01
	.byte 59 @ VOL
	.byte W01
	.byte 60 @ VOL
	.byte W01
	.byte 61 @ VOL
	.byte W01
	.byte 62 @ VOL
	.byte W01
	.byte 63 @ VOL
	.byte W01
	.byte 64 @ VOL
	.byte W01
	.byte 66 @ VOL
	.byte W01
	.byte 67 @ VOL
	.byte W01
	.byte 68 @ VOL
	.byte W02
	.byte 69 @ VOL
	.byte W06
	.byte 56 @ VOL
	.byte N04, Fn3, v127
	.byte W36
	.byte Fn3, v124 @ N04
	.byte W36
	.byte N04 @ Fn3, v124
	.byte W10
	.byte VOL, 62
	.byte W02
	.byte N84, Fs3, v127
	.byte W12
	.byte W12
	.byte VOL, 44
	.byte W02
	.byte 45 @ VOL
	.byte W02
	.byte 47 @ VOL
	.byte W02
	.byte 49 @ VOL
	.byte W01
	.byte 51 @ VOL
	.byte W02
	.byte 52 @ VOL
	.byte W01
	.byte 54 @ VOL
	.byte W02
	.byte 56 @ VOL
	.byte W01
	.byte 57 @ VOL
	.byte W02
	.byte 59 @ VOL
	.byte W01
	.byte 60 @ VOL
	.byte W02
	.byte 62 @ VOL
	.byte W01
	.byte 63 @ VOL
	.byte W02
	.byte 65 @ VOL
	.byte W01
	.byte 66 @ VOL
	.byte W02
	.byte 68 @ VOL
	.byte W02
	.byte 71 @ VOL
	.byte W02
	.byte 73 @ VOL
	.byte W01
	.byte 74 @ VOL
	.byte W01
	.byte 75 @ VOL
	.byte W54
	.byte 44 @ VOL
	.byte N64, Dn4, v080
	.byte W64
	.byte N16, An3, v068
	.byte W16
	.byte As3 @ N16, v068
	.byte W16
	.byte N48, Cn4 @ v068
	.byte W48
	.byte Dn4, v072 @ N48
	.byte W48
	.byte N64, As3, v080
	.byte W64
	.byte N16, Fn4, v084
	.byte W16
	.byte Ds4, v092 @ N16
	.byte W16
	.byte N48, Gs3, v084
	.byte W48
	.byte N36, As3, v072
	.byte W48
	.byte PATT
		.word track_4_lbl_258d00
	.byte PATT
		.word track_4_lbl_258d1a
	.byte PATT
		.word track_4_lbl_258d0f
	.byte PATT
		.word track_4_lbl_258d0f
	.byte VOICE, 2
	.byte VOL, 44
	.byte N64, Dn4, v120
	.byte W64
	.byte N16, An3, v108
	.byte W16
	.byte As3 @ N16, v108
	.byte W16
	.byte N48, Cn4 @ v108
	.byte W48
	.byte Dn4, v112 @ N48
	.byte W48
	.byte N64, As3, v120
	.byte W64
	.byte N16, Fn4, v124
	.byte W16
	.byte Ds4, v127 @ N16
	.byte W16
	.byte N48, Gs3, v124
	.byte W48
	.byte N36, As3, v112
	.byte W48
	.byte N64, Bn3, v092
	.byte W64
	.byte N16, As3, v080
	.byte W16
	.byte An3 @ N16, v080
	.byte W16
	.byte N12, Bn3 @ v080
	.byte W12
	.byte N60, As3, v072
	.byte W84
	.byte VOL, 44
	.byte N64, Cs4, v092
	.byte W24
	.byte VOL, 37
	.byte W24
	.byte 31 @ VOL
	.byte W16
	.byte N16, Cn4 @ v092
	.byte W16
	.byte Bn3 @ N16, v092
	.byte W16
	.byte VOL, 44
	.byte N12, Cs4, v100
	.byte W12
	.byte N60, Cn4, v072
	.byte W84
	.byte Ds4, v080 @ N60
	.byte W60
	.byte N16, Dn4, v096
	.byte W24
	.byte N08, Cs4, v084
	.byte W12
	.byte N60, En4, v096
	.byte W60
	.byte N12, Ds4 @ v096
	.byte W24
	.byte N08, Dn4, v100
	.byte W12
	.byte N12, Fn4 @ v100
	.byte W16
	.byte En4, v104 @ N12
	.byte W16
	.byte N08, Ds4, v108
	.byte W16
	.byte N12, Fs4, v100
	.byte W16
	.byte Fn4, v104 @ N12
	.byte W16
	.byte N08, En4, v108
	.byte W16
	.byte Fn4, v100 @ N08
	.byte W16
	.byte En4 @ N08, v100
	.byte W16
	.byte Ds4, v108 @ N08
	.byte W16
	.byte Fs4, v100 @ N08
	.byte W16
	.byte Fn4 @ N08, v100
	.byte W16
	.byte En4, v108 @ N08
	.byte W16
	.byte N64, Dn5, v088
	.byte W64
	.byte N12, Cs5 @ v088
	.byte W16
	.byte Cn5 @ N12, v088
	.byte W16
	.byte N64, Bn4 @ v088
	.byte W64
	.byte N12, As4 @ v088
	.byte W16
	.byte An4 @ N12, v088
	.byte W16
	.byte N64, Gs4 @ v088
	.byte W64
	.byte N08, Gn4 @ v088
	.byte W16
	.byte Fs4 @ N08, v088
	.byte W16
	.byte N64, Fn4, v076
	.byte W64
	.byte N08, En4, v068
	.byte W16
	.byte Ds4 @ N08, v068
	.byte W16
track_4_lbl_2590cb:
	.byte VOICE, 1
	.byte VOL, 62
	.byte N18, Dn2, v108
	.byte W18
	.byte Dn2, v080 @ N18
	.byte W18
	.byte Dn2, v088 @ N18
	.byte W60
	.byte PEND
	.byte Dn2, v108 @ N18
	.byte W18
	.byte Dn2, v076 @ N18
	.byte W18
	.byte Dn2, v096 @ N18
	.byte W24
	.byte VOICE, 11
	.byte VOL, 80
	.byte N36, Ds1, v120
	.byte W36
	.byte PATT
		.word track_4_lbl_2590cb
	.byte N18, Dn2, v108
	.byte W18
	.byte Dn2, v080 @ N18
	.byte W18
	.byte Dn2, v088 @ N18
	.byte W24
	.byte VOICE, 11
	.byte VOL, 80
	.byte N36, Fn1, v120
	.byte W36
	.byte PATT
		.word track_4_lbl_2590cb
	.byte PATT
		.word track_4_lbl_258d1a
	.byte PATT
		.word track_4_lbl_258d0f
	.byte PATT
		.word track_4_lbl_258d0f
	.byte GOTO
		.word track_4_lbl_258c5e
	.byte FINE

track_4_1:
	.byte KEYSH, 0
track_4_lbl_25911e:
	.byte VOICE, 10
	.byte VOL, 80
	.byte PAN, c_v-4
	.byte PRIO, 109
	.byte TIE, Dn1, v076
	.byte W96
	.byte W84
	.byte EOT @ Dn1, v076
	.byte W12
	.byte TIE @ Dn1, v076
	.byte W96
	.byte W84
	.byte EOT @ Dn1, v076
	.byte W12
	.byte TIE @ Dn1, v076
	.byte W96
	.byte W84
	.byte EOT @ Dn1, v076
	.byte W12
	.byte TIE, Dn1, v084
	.byte W96
	.byte W84
	.byte EOT @ Dn1, v084
	.byte W12
	.byte TIE @ Dn1, v084
	.byte W96
	.byte W48
	.byte EOT @ Dn1, v084
	.byte W12
	.byte N32, Fn1, v104
	.byte W36
	.byte N48, Dn1, v076
	.byte W96
track_4_lbl_25914b:
	.byte VOICE, 4
	.byte VOL, 62
	.byte N18, Dn2, v108
	.byte W18
	.byte Dn2, v076 @ N18
	.byte W18
	.byte Dn2, v096 @ N18
	.byte W60
	.byte PEND
track_4_lbl_25915a:
	.byte VOICE, 10
	.byte VOL, 80
	.byte N48, Dn1, v076
	.byte W96
	.byte PEND
	.byte VOICE, 4
	.byte VOL, 62
	.byte N18, Dn2, v108
	.byte W18
	.byte Dn2, v080 @ N18
	.byte W18
	.byte Dn2, v088 @ N18
	.byte W60
	.byte PATT
		.word track_4_lbl_25915a
	.byte PATT
		.word track_4_lbl_25914b
track_4_lbl_25917b:
	.byte VOICE, 10
	.byte VOL, 80
	.byte N32, Dn1, v076
	.byte W36
	.byte N32 @ Dn1, v076
	.byte W36
	.byte N10 @ Dn1, v076
	.byte W12
	.byte N84 @ Dn1, v076
	.byte W12
	.byte PEND
	.byte W96
track_4_lbl_25918b:
	.byte N06, Dn1, v068
	.byte W36
	.byte N06 @ Dn1, v068
	.byte W36
	.byte N12 @ Dn1, v068
	.byte W24
	.byte PEND
track_4_lbl_259194:
	.byte W12
	.byte N06, Dn1, v068
	.byte W36
	.byte N06 @ Dn1, v068
	.byte W12
	.byte N06 @ Dn1, v068
	.byte W36
	.byte PEND
	.byte PATT
		.word track_4_lbl_25918b
	.byte PATT
		.word track_4_lbl_259194
	.byte PATT
		.word track_4_lbl_25918b
	.byte PATT
		.word track_4_lbl_259194
	.byte PATT
		.word track_4_lbl_25918b
	.byte PATT
		.word track_4_lbl_259194
	.byte PATT
		.word track_4_lbl_25918b
	.byte PATT
		.word track_4_lbl_259194
	.byte TIE, Dn1, v068
	.byte W96
	.byte W84
	.byte EOT @ Dn1, v068
	.byte W12
	.byte TIE @ Dn1, v068
	.byte W96
	.byte W84
	.byte EOT @ Dn1, v068
	.byte W12
	.byte TIE @ Dn1, v068
	.byte W96
	.byte W84
	.byte EOT @ Dn1, v068
	.byte W12
	.byte TIE @ Dn1, v068
	.byte W96
	.byte W84
	.byte EOT @ Dn1, v068
	.byte W12
	.byte N48 @ Dn1, v068
	.byte W96
	.byte VOICE, 2
	.byte VOL, 44
	.byte W36
	.byte N04, Ds2, v080
	.byte W12
	.byte Ds2, v092 @ N04
	.byte W12
	.byte Ds2, v084 @ N04
	.byte W12
	.byte N24, Ds2, v092
	.byte W24
	.byte PATT
		.word track_4_lbl_25915a
	.byte W36
	.byte VOICE, 2
	.byte N04, Fn2, v100
	.byte W12
	.byte N02, Ds2 @ v100
	.byte W12
	.byte N36, Ds2, v104
	.byte W12
	.byte VOL, 49
	.byte W01
	.byte 51 @ VOL
	.byte W01
	.byte 52 @ VOL
	.byte W01
	.byte 53 @ VOL
	.byte W01
	.byte 54 @ VOL
	.byte W01
	.byte 55 @ VOL
	.byte W01
	.byte 56 @ VOL
	.byte W01
	.byte 57 @ VOL
	.byte W01
	.byte 59 @ VOL
	.byte W01
	.byte 60 @ VOL
	.byte W01
	.byte 61 @ VOL
	.byte W01
	.byte 62 @ VOL
	.byte W01
	.byte 64 @ VOL
	.byte W01
	.byte 64 @ VOL
	.byte W01
	.byte 66 @ VOL
	.byte W01
	.byte 67 @ VOL
	.byte W01
	.byte 68 @ VOL
	.byte W01
	.byte 69 @ VOL
	.byte W01
	.byte 71 @ VOL
	.byte W01
	.byte 72 @ VOL
	.byte W01
	.byte 73 @ VOL
	.byte W01
	.byte 74 @ VOL
	.byte W01
	.byte 75 @ VOL
	.byte W01
	.byte 76 @ VOL
	.byte W01
	.byte VOICE, 10
	.byte VOL, 78
	.byte N48, Dn1, v076
	.byte W96
	.byte W36
	.byte VOICE, 2
	.byte VOL, 44
	.byte N03, Ds2, v080
	.byte W12
	.byte Ds2, v092 @ N03
	.byte W12
	.byte N36, Ds2, v096
	.byte W12
	.byte VOL, 49
	.byte W01
	.byte 50 @ VOL
	.byte W01
	.byte 51 @ VOL
	.byte W01
	.byte 52 @ VOL
	.byte W01
	.byte 54 @ VOL
	.byte W01
	.byte 55 @ VOL
	.byte W01
	.byte 56 @ VOL
	.byte W01
	.byte 57 @ VOL
	.byte W01
	.byte 59 @ VOL
	.byte W01
	.byte 60 @ VOL
	.byte W01
	.byte 61 @ VOL
	.byte W01
	.byte 62 @ VOL
	.byte W01
	.byte 64 @ VOL
	.byte W01
	.byte 65 @ VOL
	.byte W01
	.byte 66 @ VOL
	.byte W01
	.byte 68 @ VOL
	.byte W01
	.byte 69 @ VOL
	.byte W01
	.byte 70 @ VOL
	.byte W01
	.byte 71 @ VOL
	.byte W01
	.byte 73 @ VOL
	.byte W01
	.byte 74 @ VOL
	.byte W01
	.byte 75 @ VOL
	.byte W01
	.byte 76 @ VOL
	.byte W01
	.byte 78 @ VOL
	.byte W01
	.byte PATT
		.word track_4_lbl_25917b
	.byte W96
	.byte TIE, Dn1, v076
	.byte W96
	.byte W84
	.byte EOT @ Dn1, v076
	.byte W12
	.byte TIE, Dn1, v084
	.byte W96
	.byte W84
	.byte EOT @ Dn1, v084
	.byte W12
	.byte TIE, Dn1, v076
	.byte W96
	.byte W84
	.byte EOT @ Dn1, v076
	.byte W12
	.byte TIE, Dn1, v068
	.byte W96
	.byte W84
	.byte EOT @ Dn1, v068
	.byte W12
	.byte VOICE, 11
	.byte VOL, 80
	.byte N24, Dn1, v092
	.byte W36
	.byte N48 @ Dn1, v092
	.byte W60
	.byte N24 @ Dn1, v092
	.byte W36
	.byte N48 @ Dn1, v092
	.byte W60
	.byte N24, Ds1 @ v092
	.byte W36
	.byte N48 @ Ds1, v092
	.byte W60
	.byte N24 @ Ds1, v092
	.byte W36
	.byte N48 @ Ds1, v092
	.byte W60
	.byte N24, En1, v080
	.byte W36
	.byte N48 @ En1, v080
	.byte W60
	.byte N24, Fn1 @ v080
	.byte W36
	.byte N32 @ Fn1, v080
	.byte W36
	.byte N20 @ Fn1, v080
	.byte W24
	.byte N24, Fs1 @ v080
	.byte W36
	.byte N48 @ Fs1, v080
	.byte W60
	.byte N24, Gn1 @ v080
	.byte W36
	.byte N30 @ Gn1, v080
	.byte W36
	.byte N24 @ Gn1, v080
	.byte W24
	.byte N10, An1, v092
	.byte W12
	.byte N12 @ An1, v092
	.byte W24
	.byte N12 @ An1, v092
	.byte W24
	.byte N12 @ An1, v092
	.byte W24
	.byte N12 @ An1, v092
	.byte W12
	.byte N10, As1 @ v092
	.byte W12
	.byte N12 @ As1, v092
	.byte W24
	.byte N12 @ As1, v092
	.byte W24
	.byte N12 @ As1, v092
	.byte W24
	.byte N12 @ As1, v092
	.byte W12
	.byte N10, Bn1 @ v092
	.byte W12
	.byte N12 @ Bn1, v092
	.byte W24
	.byte N12 @ Bn1, v092
	.byte W12
	.byte N10, Cn2 @ v092
	.byte W12
	.byte N12 @ Cn2, v092
	.byte W24
	.byte N12 @ Cn2, v092
	.byte W12
	.byte VOICE, 2
	.byte VOL, 44
	.byte N08, Fn3, v100
	.byte W16
	.byte En3 @ N08, v100
	.byte W16
	.byte Ds3, v108 @ N08
	.byte W16
	.byte Fs3, v100 @ N08
	.byte W16
	.byte Fn3 @ N08, v100
	.byte W16
	.byte En3, v108 @ N08
	.byte W16
	.byte VOICE, 11
	.byte VOL, 80
	.byte N96, Dn2, v092
	.byte W96
	.byte Gs1 @ N96, v092
	.byte W96
	.byte Dn1 @ N96, v092
	.byte W96
	.byte Gs1 @ N96, v092
	.byte W96
	.byte TIE, Dn1, v068
	.byte W96
	.byte W84
	.byte EOT @ Dn1, v068
	.byte W12
	.byte TIE @ Dn1, v068
	.byte W96
	.byte W84
	.byte EOT @ Dn1, v068
	.byte W12
	.byte TIE @ Dn1, v068
	.byte W96
	.byte W84
	.byte EOT @ Dn1, v068
	.byte W12
	.byte TIE @ Dn1, v068
	.byte W96
	.byte W84
	.byte EOT @ Dn1, v068
	.byte W12
	.byte GOTO
		.word track_4_lbl_25911e
	.byte FINE

track_4_2:
	.byte KEYSH, 0
track_4_lbl_259336:
	.byte VOICE, 0
	.byte PAN, c_v+10
	.byte PRIO, 108
	.byte VOL, 37
	.byte XCMD, xIECV
	.byte 0 @ VOL
	.byte 9 @ VOL
	.byte 0 @ VOL
	.byte N05, Fs5, v127
	.byte W12
	.byte N05 @ Fs5, v127
	.byte W12
	.byte N05 @ Fs5, v127
	.byte W12
	.byte N05 @ Fs5, v127
	.byte W12
	.byte N05 @ Fs5, v127
	.byte W12
	.byte VOL, 62
	.byte N24, En5, v028
	.byte W36
	.byte VOL, 37
	.byte N05, Fs5, v127
	.byte W12
	.byte N05 @ Fs5, v127
	.byte W12
	.byte N05 @ Fs5, v127
	.byte W12
	.byte N05 @ Fs5, v127
	.byte W12
	.byte N05 @ Fs5, v127
	.byte W06
	.byte VOL, 62
	.byte XCMD, xIECV
	.byte 0 @ VOL
	.byte 9 @ VOL
	.byte 0 @ VOL
	.byte N06, Dn1, v096
	.byte W06
	.byte N12, En5, v028
	.byte W12
	.byte Dn1, v108 @ N12
	.byte W12
	.byte N06, Dn1, v076
	.byte W06
	.byte Dn1, v068 @ N06
	.byte W06
track_4_lbl_25937c:
	.byte VOL, 37
	.byte XCMD, xIECV
	.byte 0 @ VOL
	.byte 9 @ VOL
	.byte 0 @ VOL
	.byte N05, Fs5, v127
	.byte W12
	.byte N05 @ Fs5, v127
	.byte W12
	.byte N05 @ Fs5, v127
	.byte W12
	.byte N05 @ Fs5, v127
	.byte W12
	.byte N05 @ Fs5, v127
	.byte W12
	.byte N24, En5, v028
	.byte W36
	.byte PEND
track_4_lbl_259394:
	.byte N05, Fs5, v127
	.byte W12
	.byte N05 @ Fs5, v127
	.byte W12
	.byte N05 @ Fs5, v127
	.byte W12
	.byte N05 @ Fs5, v127
	.byte W12
	.byte N05 @ Fs5, v127
	.byte W06
	.byte VOL, 62
	.byte XCMD, xIECV
	.byte 70 @ VOL
	.byte 9 @ VOL
	.byte 100 @ VOL
	.byte N06, Dn1, v088
	.byte W06
	.byte N12, En5, v028
	.byte W12
	.byte N10, Dn1, v088
	.byte W12
	.byte N05, Dn1, v080
	.byte W06
	.byte N06, Dn1, v072
	.byte W06
	.byte PEND
track_4_lbl_2593bc:
	.byte VOL, 37
	.byte XCMD, xIECL
	.byte 0 @ VOL
	.byte N05, Fs5, v127
	.byte W12
	.byte N05 @ Fs5, v127
	.byte W12
	.byte N05 @ Fs5, v127
	.byte W12
	.byte N05 @ Fs5, v127
	.byte W12
	.byte N05 @ Fs5, v127
	.byte W12
	.byte VOL, 62
	.byte N24, En5, v028
	.byte W36
	.byte PEND
	.byte VOL, 37
	.byte N05, Fs5, v127
	.byte W12
	.byte N05 @ Fs5, v127
	.byte W12
	.byte N05 @ Fs5, v127
	.byte W12
	.byte N05 @ Fs5, v127
	.byte W12
	.byte N05 @ Fs5, v127
	.byte W06
	.byte VOL, 62
	.byte XCMD, xIECV
	.byte 70 @ VOL
	.byte 9 @ VOL
	.byte 100 @ VOL
	.byte N06, Dn1, v096
	.byte W06
	.byte N12, En5, v028
	.byte W12
	.byte Dn1, v108 @ N12
	.byte W12
	.byte N06, Dn1, v076
	.byte W06
	.byte N12, Dn1, v068
	.byte W06
	.byte W72
	.byte VOICE, 2
	.byte VOL, 44
	.byte PAN, c_v+10
	.byte TIE, Gs2, v127
	.byte W24
	.byte W78
	.byte EOT @ Gs2, v127
	.byte W18
	.byte W72
	.byte TIE, Gs3, v120
	.byte W24
	.byte W92
	.byte EOT @ Gs3, v120
	.byte W04
	.byte VOICE, 0
	.byte VOL, 37
	.byte PAN, c_v-4
	.byte XCMD, xIECL
	.byte c_v-64 @ PAN
	.byte N05, Fs5, v127
	.byte W12
	.byte N05 @ Fs5, v127
	.byte W12
	.byte N05 @ Fs5, v127
	.byte W12
	.byte N05 @ Fs5, v127
	.byte W12
	.byte N05 @ Fs5, v127
	.byte W12
	.byte VOL, 62
	.byte N24, En5, v028
	.byte W36
track_4_lbl_25942d:
	.byte VOL, 37
	.byte N05, Fs5, v127
	.byte W12
	.byte N05 @ Fs5, v127
	.byte W12
	.byte N05 @ Fs5, v127
	.byte W12
	.byte N05 @ Fs5, v127
	.byte W12
	.byte N05 @ Fs5, v127
	.byte W06
	.byte VOL, 62
	.byte XCMD, xIECV
	.byte 70 @ VOL
	.byte 9 @ VOL
	.byte 100 @ VOL
	.byte N06, Fs1, v036
	.byte W06
	.byte N12, En5, v028
	.byte W12
	.byte N06, Fs1, v048
	.byte W12
	.byte Fs1, v036 @ N06
	.byte W06
	.byte Fs1, v028 @ N06
	.byte W06
	.byte PEND
	.byte PATT
		.word track_4_lbl_25937c
	.byte N05, Fs5, v127
	.byte W12
	.byte N05 @ Fs5, v127
	.byte W12
	.byte N05 @ Fs5, v127
	.byte W12
	.byte N05 @ Fs5, v127
	.byte W12
	.byte N05 @ Fs5, v127
	.byte W06
	.byte VOL, 62
	.byte XCMD, xIECV
	.byte 70 @ VOL
	.byte 9 @ VOL
	.byte 100 @ VOL
	.byte N06, Dn1, v088
	.byte W06
	.byte VOICE, 0
	.byte VOL, 62
	.byte N12, En5, v028
	.byte W12
	.byte N10, Dn1, v088
	.byte W12
	.byte N05, Dn1, v080
	.byte W06
	.byte N06, Dn1, v072
	.byte W06
	.byte PATT
		.word track_4_lbl_2593bc
	.byte PATT
		.word track_4_lbl_25942d
	.byte PATT
		.word track_4_lbl_25937c
	.byte PATT
		.word track_4_lbl_259394
	.byte PATT
		.word track_4_lbl_2593bc
	.byte PATT
		.word track_4_lbl_25942d
	.byte PATT
		.word track_4_lbl_25937c
	.byte PATT
		.word track_4_lbl_259394
	.byte PATT
		.word track_4_lbl_2593bc
	.byte PATT
		.word track_4_lbl_25942d
	.byte PATT
		.word track_4_lbl_25937c
	.byte PATT
		.word track_4_lbl_259394
	.byte PATT
		.word track_4_lbl_2593bc
	.byte PATT
		.word track_4_lbl_25942d
	.byte PATT
		.word track_4_lbl_2593bc
	.byte PATT
		.word track_4_lbl_25942d
	.byte PATT
		.word track_4_lbl_25937c
	.byte N05, Fs5, v127
	.byte W12
	.byte N05 @ Fs5, v127
	.byte W12
	.byte N05 @ Fs5, v127
	.byte W12
	.byte N05 @ Fs5, v127
	.byte W12
	.byte N05 @ Fs5, v127
	.byte W06
	.byte VOL, 62
	.byte XCMD, xIECV
	.byte 70 @ VOL
	.byte 9 @ VOL
	.byte 100 @ VOL
	.byte N06, Dn1, v088
	.byte W06
	.byte N20, En5, v028
	.byte W24
	.byte N04, Dn1, v060
	.byte W06
	.byte Dn1, v052 @ N04
	.byte W06
	.byte N04 @ Dn1, v052
	.byte W12
	.byte N06, Fs5, v127
	.byte W72
	.byte N06 @ Fs5, v127
	.byte W12
	.byte N24, En5, v080
	.byte W36
	.byte N06, Dn1 @ v080
	.byte W36
	.byte Fs5, v120 @ N06
	.byte W06
	.byte Fs5, v116 @ N06
	.byte W06
	.byte N04, Fs5, v124
	.byte W04
	.byte Fs5, v127 @ N04
	.byte W04
	.byte N04 @ Fs5, v127
	.byte W04
	.byte N03, Dn1, v108
	.byte W12
	.byte N12, Dn1, v092
	.byte W72
	.byte N06, En1, v064
	.byte W12
	.byte N06 @ En1, v064
	.byte W84
	.byte N08 @ En1, v064
	.byte W12
	.byte N06, En1, v076
	.byte W96
	.byte VOICE, 4
	.byte VOL, 62
	.byte N18, Dn2, v088
	.byte W18
	.byte Dn2, v056 @ N18
	.byte W18
	.byte Dn2, v076 @ N18
	.byte W60
	.byte VOICE, 2
	.byte VOL, 44
	.byte N06, Dn2, v096
	.byte W36
	.byte Dn2, v100 @ N06
	.byte W60
	.byte VOICE, 0
	.byte VOL, 37
	.byte XCMD, xIECV
	.byte 70 @ VOL
	.byte PAN, c_v
	.byte XCMD, xIECL
	.byte c_v+36 @ PAN
	.byte W72
	.byte N06, En1, v084
	.byte W06
	.byte En1, v064 @ N06
	.byte W06
	.byte N04 @ En1, v064
	.byte W04
	.byte N04 @ En1, v064
	.byte W04
	.byte N04 @ En1, v064
	.byte W04
	.byte N06, En1, v068
	.byte W36
	.byte En1, v080 @ N06
	.byte W36
	.byte En1, v072 @ N06
	.byte W24
	.byte W36
	.byte En1, v088 @ N06
	.byte W12
	.byte En1, v060 @ N06
	.byte W12
	.byte N30, En5, v100
	.byte W30
	.byte N06, En1, v068
	.byte W06
	.byte En1, v076 @ N06
	.byte W36
	.byte En1, v060 @ N06
	.byte W36
	.byte En1, v052 @ N06
	.byte W12
	.byte N36, Dn1, v120
	.byte W12
	.byte W56
	.byte N08, En1, v064
	.byte W08
	.byte En1, v056 @ N08
	.byte W08
	.byte N04, En1, v064
	.byte W04
	.byte N04 @ En1, v064
	.byte W05
	.byte N04 @ En1, v064
	.byte W05
	.byte En1, v084 @ N04
	.byte W05
	.byte En1, v104 @ N04
	.byte W05
track_4_lbl_25959d:
	.byte VOL, 37
	.byte XCMD, xIECL
	.byte 0 @ VOL
	.byte N05, Fs5, v127
	.byte W12
	.byte N05 @ Fs5, v127
	.byte W12
	.byte N05 @ Fs5, v127
	.byte W12
	.byte N05 @ Fs5, v127
	.byte W12
	.byte N05 @ Fs5, v127
	.byte W48
	.byte PEND
	.byte VOL, 37
	.byte N05 @ Fs5, v127
	.byte W12
	.byte N05 @ Fs5, v127
	.byte W12
	.byte N05 @ Fs5, v127
	.byte W12
	.byte N05 @ Fs5, v127
	.byte W12
	.byte N05 @ Fs5, v127
	.byte W06
	.byte VOL, 62
	.byte XCMD, xIECV
	.byte 70 @ VOL
	.byte 9 @ VOL
	.byte 100 @ VOL
	.byte N06, Dn1, v096
	.byte W06
	.byte N12, En5, v028
	.byte W12
	.byte Dn1, v108 @ N12
	.byte W12
	.byte N06, Dn1, v076
	.byte W06
	.byte Dn1, v068 @ N06
	.byte W06
	.byte PATT
		.word track_4_lbl_25959d
track_4_lbl_2595d9:
	.byte VOL, 37
	.byte N05, Fs5, v127
	.byte W12
	.byte N05 @ Fs5, v127
	.byte W12
	.byte N05 @ Fs5, v127
	.byte W12
	.byte N05 @ Fs5, v127
	.byte W12
	.byte N05 @ Fs5, v127
	.byte W06
	.byte VOL, 62
	.byte XCMD, xIECV
	.byte 70 @ VOL
	.byte 9 @ VOL
	.byte 100 @ VOL
	.byte N06 @ Fs5, v127
	.byte W06
	.byte N12, En5, v028
	.byte W12
	.byte N06, Fs5, v127
	.byte W12
	.byte Fs5, v108 @ N06
	.byte W06
	.byte Fs5, v096 @ N06
	.byte W06
	.byte PEND
	.byte PATT
		.word track_4_lbl_2593bc
	.byte PATT
		.word track_4_lbl_2595d9
	.byte PATT
		.word track_4_lbl_25937c
	.byte PATT
		.word track_4_lbl_259394
track_4_lbl_259613:
	.byte N11, Fs5, v127
	.byte W12
	.byte Dn1, v028 @ N11
	.byte W12
	.byte N05, Dn1, v048
	.byte W06
	.byte Fs5, v076 @ N05
	.byte W06
	.byte N11, Fs5, v127
	.byte W12
	.byte N11 @ Fs5, v127
	.byte W12
	.byte N28, En5, v028
	.byte W30
	.byte N05, Fs5, v096
	.byte W06
	.byte PEND
	.byte N11, Fs5, v127
	.byte W12
	.byte N05, Dn1, v048
	.byte W06
	.byte Fs5, v076 @ N05
	.byte W06
	.byte N05 @ Fs5, v076
	.byte W06
	.byte Dn1, v048 @ N05
	.byte W06
	.byte N11, Fs5, v127
	.byte W12
	.byte N05 @ Fs5, v127
	.byte W06
	.byte Dn1, v048 @ N05
	.byte W06
	.byte N11, Fs5, v076
	.byte W12
	.byte Dn1, v048 @ N11
	.byte W12
	.byte Fs5, v076 @ N11
	.byte W12
	.byte PATT
		.word track_4_lbl_259613
	.byte PATT
		.word track_4_lbl_259613
	.byte PATT
		.word track_4_lbl_259613
	.byte N11, Fs5, v127
	.byte W12
	.byte N05, Dn1, v048
	.byte W06
	.byte Fs5, v076 @ N05
	.byte W06
	.byte N05 @ Fs5, v076
	.byte W06
	.byte Dn1, v048 @ N05
	.byte W06
	.byte N11, Fs5, v127
	.byte W12
	.byte N05 @ Fs5, v127
	.byte W06
	.byte Dn1, v048 @ N05
	.byte W06
	.byte N11, Fs5, v076
	.byte W12
	.byte Dn1, v048 @ N11
	.byte W12
	.byte N11 @ Dn1, v048
	.byte W12
	.byte PATT
		.word track_4_lbl_259613
	.byte PATT
		.word track_4_lbl_259613
	.byte N11, Dn1, v056
	.byte W12
	.byte N17 @ Dn1, v056
	.byte W18
	.byte N05, Fs5, v076
	.byte W06
	.byte N11, Dn1, v056
	.byte W12
	.byte N11 @ Dn1, v056
	.byte W12
	.byte N23 @ Dn1, v056
	.byte W24
	.byte N05 @ Dn1, v056
	.byte W06
	.byte Fs5, v096 @ N05
	.byte W06
	.byte N11, Dn1, v056
	.byte W12
	.byte N05 @ Dn1, v056
	.byte W06
	.byte Fs5, v076 @ N05
	.byte W06
	.byte N11 @ Fs5, v076
	.byte W12
	.byte Dn1, v056 @ N11
	.byte W12
	.byte N11 @ Dn1, v056
	.byte W12
	.byte N23 @ Dn1, v056
	.byte W24
	.byte N11 @ Dn1, v056
	.byte W12
	.byte N11 @ Dn1, v056
	.byte W12
	.byte N17 @ Dn1, v056
	.byte W18
	.byte N05, Fs5, v076
	.byte W06
	.byte N11, Dn1, v056
	.byte W12
	.byte N11 @ Dn1, v056
	.byte W12
	.byte N23, En5, v028
	.byte W24
	.byte N05, Dn1, v056
	.byte W06
	.byte Fs5, v096 @ N05
	.byte W06
	.byte W96
	.byte N32, As1, v092
	.byte W36
	.byte N40, As1, v052
	.byte W60
	.byte N32 @ As1, v052
	.byte W36
	.byte N16, Dn1, v100
	.byte W36
	.byte N06, Dn1, v088
	.byte W06
	.byte Dn1, v056 @ N06
	.byte W06
	.byte N04, Dn1, v064
	.byte W04
	.byte Dn1, v076 @ N04
	.byte W04
	.byte Dn1, v108 @ N04
	.byte W04
	.byte N44, As1, v080
	.byte W48
	.byte VOICE, 1
	.byte VOL, 62
	.byte N08, Dn3, v127
	.byte W16
	.byte Dn3, v108 @ N08
	.byte W16
	.byte Cn3, v096 @ N08
	.byte W16
	.byte W24
	.byte VOICE, 0
	.byte XCMD, xIECV
	.byte 70 @ VOICE
	.byte 9 @ VOICE
	.byte 100 @ VOICE
	.byte W24
	.byte N48, As1, v032
	.byte W48
	.byte N18, Dn1, v112
	.byte W18
	.byte Dn1, v032 @ N18
	.byte W18
	.byte N18 @ Dn1, v032
	.byte W60
track_4_lbl_25971a:
	.byte N18, Dn1, v060
	.byte W18
	.byte Dn1, v032 @ N18
	.byte W18
	.byte N18 @ Dn1, v032
	.byte W60
	.byte PEND
	.byte Dn1, v080 @ N18
	.byte W18
	.byte Dn1, v032 @ N18
	.byte W18
	.byte N18 @ Dn1, v032
	.byte W60
	.byte PATT
		.word track_4_lbl_25971a
	.byte PATT
		.word track_4_lbl_2593bc
	.byte PATT
		.word track_4_lbl_25942d
	.byte PATT
		.word track_4_lbl_25937c
	.byte N05, Fs5, v127
	.byte W12
	.byte N05 @ Fs5, v127
	.byte W12
	.byte N05 @ Fs5, v127
	.byte W12
	.byte N05 @ Fs5, v127
	.byte W12
	.byte N05 @ Fs5, v127
	.byte W06
	.byte VOL, 62
	.byte XCMD, xIECV
	.byte 70 @ VOL
	.byte 9 @ VOL
	.byte 100 @ VOL
	.byte N06, Dn1, v088
	.byte W06
	.byte N24, En5, v028
	.byte W12
	.byte N10, Dn1, v088
	.byte W12
	.byte N05, Dn1, v080
	.byte W06
	.byte N06, Dn1, v072
	.byte W06
	.byte GOTO
		.word track_4_lbl_259336
	.byte FINE

track_4_3:
	.byte KEYSH, 0
track_4_lbl_25976f:
	.byte VOICE, 4
	.byte PAN, c_v+6
	.byte PRIO, 30
	.byte VOL, 62
	.byte N18, Dn2, v108
	.byte W18
	.byte Dn2, v080 @ N18
	.byte W18
	.byte Dn2, v088 @ N18
	.byte W60
track_4_lbl_259781:
	.byte N18, Dn2, v108
	.byte W18
	.byte Dn2, v076 @ N18
	.byte W18
	.byte Dn2, v096 @ N18
	.byte W60
	.byte PEND
track_4_lbl_25978c:
	.byte N18, Dn2, v108
	.byte W18
	.byte Dn2, v080 @ N18
	.byte W18
	.byte Dn2, v088 @ N18
	.byte W60
	.byte PEND
	.byte W96
	.byte W96
	.byte W96
	.byte PATT
		.word track_4_lbl_25978c
	.byte PATT
		.word track_4_lbl_259781
	.byte PATT
		.word track_4_lbl_25978c
	.byte PATT
		.word track_4_lbl_25978c
	.byte PATT
		.word track_4_lbl_25978c
	.byte VOICE, 2
	.byte VOL, 44
	.byte W36
	.byte N05, Ds2, v092
	.byte W12
	.byte N04, Ds2, v084
	.byte W12
	.byte N04 @ Ds2, v084
	.byte W12
	.byte VOL, 44
	.byte N24, Ds2, v120
	.byte W12
	.byte VOL, 56
	.byte W06
	.byte 75 @ VOL
	.byte W06
track_4_lbl_2597cd:
	.byte VOICE, 4
	.byte VOL, 62
	.byte N18, Dn2, v108
	.byte W18
	.byte Dn2, v080 @ N18
	.byte W18
	.byte Dn2, v088 @ N18
	.byte W60
	.byte PEND
	.byte W36
	.byte VOICE, 2
	.byte VOL, 56
	.byte N12, Fn2, v100
	.byte W12
	.byte VOL, 44
	.byte N02, Ds2 @ v100
	.byte W12
	.byte N36 @ Ds2, v100
	.byte W12
	.byte VOL, 56
	.byte W12
	.byte 69 @ VOL
	.byte W06
	.byte 75 @ VOL
	.byte W06
	.byte PATT
		.word track_4_lbl_2597cd
	.byte W36
	.byte VOICE, 2
	.byte VOL, 44
	.byte N04, Ds2, v080
	.byte W12
	.byte Ds2, v052 @ N04
	.byte W12
	.byte N36, Ds2, v096
	.byte W12
	.byte VOL, 50
	.byte W12
	.byte 56 @ VOL
	.byte W06
	.byte 69 @ VOL
	.byte W06
	.byte PATT
		.word track_4_lbl_2597cd
	.byte PATT
		.word track_4_lbl_25978c
	.byte PATT
		.word track_4_lbl_25978c
	.byte PATT
		.word track_4_lbl_259781
	.byte PATT
		.word track_4_lbl_25978c
	.byte PATT
		.word track_4_lbl_25978c
	.byte PATT
		.word track_4_lbl_25978c
	.byte PATT
		.word track_4_lbl_259781
	.byte PATT
		.word track_4_lbl_25978c
	.byte PATT
		.word track_4_lbl_25978c
	.byte PATT
		.word track_4_lbl_25978c
	.byte PATT
		.word track_4_lbl_259781
	.byte PATT
		.word track_4_lbl_25978c
	.byte W96
	.byte PATT
		.word track_4_lbl_25978c
	.byte PATT
		.word track_4_lbl_25978c
track_4_lbl_25985b:
	.byte N18, Dn2, v088
	.byte W18
	.byte Dn2, v060 @ N18
	.byte W18
	.byte Dn2, v068 @ N18
	.byte W60
	.byte PEND
track_4_lbl_259866:
	.byte N18, Dn2, v088
	.byte W18
	.byte Dn2, v056 @ N18
	.byte W18
	.byte Dn2, v076 @ N18
	.byte W60
	.byte PEND
	.byte PATT
		.word track_4_lbl_25985b
	.byte PATT
		.word track_4_lbl_25985b
	.byte PATT
		.word track_4_lbl_25985b
	.byte W96
	.byte PATT
		.word track_4_lbl_25985b
	.byte PATT
		.word track_4_lbl_25985b
	.byte PATT
		.word track_4_lbl_25985b
	.byte PATT
		.word track_4_lbl_259866
	.byte PATT
		.word track_4_lbl_25985b
	.byte PATT
		.word track_4_lbl_25985b
	.byte PATT
		.word track_4_lbl_25978c
	.byte PATT
		.word track_4_lbl_259781
	.byte PATT
		.word track_4_lbl_25978c
	.byte PATT
		.word track_4_lbl_259781
	.byte W96
	.byte W96
	.byte W96
	.byte W96
	.byte VOICE, 1
	.byte VOL, 62
	.byte N06, An2, v108
	.byte W18
	.byte An2, v088 @ N06
	.byte W18
	.byte N06 @ An2, v088
	.byte W18
	.byte Cn3, v096 @ N06
	.byte W18
	.byte Dn3, v108 @ N06
	.byte W12
	.byte Dn3, v068 @ N06
	.byte W06
	.byte Cn3, v056 @ N06
	.byte W06
track_4_lbl_2598d0:
	.byte W54
	.byte N06, Cn3, v096
	.byte W18
	.byte Dn3, v108 @ N06
	.byte W12
	.byte Dn3, v068 @ N06
	.byte W06
	.byte Cn3, v056 @ N06
	.byte W06
	.byte PEND
track_4_lbl_2598df:
	.byte N06, An2, v108
	.byte W18
	.byte An2, v088 @ N06
	.byte W18
	.byte N06 @ An2, v088
	.byte W18
	.byte Cn3, v096 @ N06
	.byte W18
	.byte Dn3, v108 @ N06
	.byte W12
	.byte Dn3, v068 @ N06
	.byte W06
	.byte Cn3, v056 @ N06
	.byte W06
	.byte PEND
	.byte PATT
		.word track_4_lbl_2598df
	.byte PATT
		.word track_4_lbl_2598df
	.byte PATT
		.word track_4_lbl_2598d0
	.byte PATT
		.word track_4_lbl_2598df
	.byte PATT
		.word track_4_lbl_2598df
	.byte W96
	.byte W96
	.byte W96
	.byte W96
	.byte W48
	.byte N08, Dn3, v127
	.byte W16
	.byte Dn3, v108 @ N08
	.byte W16
	.byte Cn3, v096 @ N08
	.byte W16
	.byte W96
	.byte W96
	.byte W96
	.byte W96
	.byte W96
	.byte W96
	.byte W96
	.byte W96
	.byte W96
	.byte W96
	.byte W96
	.byte GOTO
		.word track_4_lbl_25976f
	.byte FINE

track_4_4:
	.byte KEYSH, 0
track_4_lbl_259930:
	.byte PRIO, 29
	.byte W96
	.byte W96
	.byte W96
	.byte W96
	.byte W96
	.byte W96
	.byte VOICE, 0
	.byte VOL, 37
	.byte XCMD, xIECL
	.byte 0 @ VOL
	.byte N05, Fs5, v127
	.byte W12
	.byte N05 @ Fs5, v127
	.byte W12
	.byte N05 @ Fs5, v127
	.byte W12
	.byte N05 @ Fs5, v127
	.byte W12
	.byte N05 @ Fs5, v127
	.byte W12
	.byte VOL, 62
	.byte N24, En5, v028
	.byte W36
	.byte VOL, 37
	.byte N05, Fs5, v127
	.byte W12
	.byte N05 @ Fs5, v127
	.byte W12
	.byte N05 @ Fs5, v127
	.byte W12
	.byte N05 @ Fs5, v127
	.byte W12
	.byte N05 @ Fs5, v127
	.byte W06
	.byte VOL, 62
	.byte XCMD, xIECV
	.byte 70 @ VOL
	.byte 9 @ VOL
	.byte 100 @ VOL
	.byte N06 @ Fs5, v127
	.byte W06
	.byte N24, En5, v028
	.byte W12
	.byte N06, Fs5, v127
	.byte W12
	.byte Fs5, v108 @ N06
	.byte W06
	.byte Fs5, v096 @ N06
	.byte W06
	.byte VOL, 37
	.byte XCMD, xIECV
	.byte 0 @ VOL
	.byte 9 @ VOL
	.byte 0 @ VOL
	.byte N05, Fs5, v127
	.byte W12
	.byte N05 @ Fs5, v127
	.byte W12
	.byte N05 @ Fs5, v127
	.byte W12
	.byte N05 @ Fs5, v127
	.byte W12
	.byte N05 @ Fs5, v127
	.byte W12
	.byte N24, En5, v028
	.byte W36
	.byte N05, Fs5, v127
	.byte W12
	.byte N05 @ Fs5, v127
	.byte W12
	.byte N05 @ Fs5, v127
	.byte W12
	.byte N05 @ Fs5, v127
	.byte W12
	.byte N05 @ Fs5, v127
	.byte W06
	.byte VOL, 62
	.byte XCMD, xIECV
	.byte 70 @ VOL
	.byte 9 @ VOL
	.byte 100 @ VOL
	.byte N06, Dn1, v108
	.byte W06
	.byte N24, En5, v028
	.byte W12
	.byte N10, Dn1, v108
	.byte W12
	.byte N05, Dn1, v100
	.byte W06
	.byte N06, Dn1, v092
	.byte W06
	.byte VOICE, 2
	.byte VOL, 44
	.byte N06, Dn2 @ v092
	.byte W36
	.byte N06 @ Dn2, v092
	.byte W60
	.byte W96
	.byte N06 @ Dn2, v092
	.byte W36
	.byte Dn2, v060 @ N06
	.byte W60
	.byte W96
	.byte Dn2, v096 @ N06
	.byte W36
	.byte N02, Dn2, v076
	.byte W36
	.byte N03, Dn2, v092
	.byte W24
	.byte W96
	.byte N04, Dn2, v120
	.byte W36
	.byte N04 @ Dn2, v120
	.byte W36
	.byte N04 @ Dn2, v120
	.byte W12
	.byte VOL, 44
	.byte N84, Gs2, v124, 61
	.byte Cn8 @ N84, v124
	.byte W02
	.byte VOL, 45
	.byte W03
	.byte 46 @ VOL
	.byte W02
	.byte 47 @ VOL
	.byte W02
	.byte 49 @ VOL
	.byte W02
	.byte 50 @ VOL
	.byte W01
	.byte W02
	.byte 51 @ VOL
	.byte W02
	.byte 52 @ VOL
	.byte W02
	.byte 54 @ VOL
	.byte W03
	.byte 55 @ VOL
	.byte W02
	.byte 56 @ VOL
	.byte W02
	.byte 57 @ VOL
	.byte W03
	.byte 59 @ VOL
	.byte W02
	.byte 60 @ VOL
	.byte W02
	.byte 61 @ VOL
	.byte W03
	.byte 62 @ VOL
	.byte W02
	.byte 64 @ VOL
	.byte W02
	.byte 65 @ VOL
	.byte W02
	.byte 66 @ VOL
	.byte W03
	.byte 68 @ VOL
	.byte W02
	.byte 69 @ VOL
	.byte W02
	.byte 70 @ VOL
	.byte W03
	.byte 71 @ VOL
	.byte W02
	.byte 73 @ VOL
	.byte W02
	.byte 74 @ VOL
	.byte W03
	.byte 75 @ VOL
	.byte W02
	.byte 76 @ VOL
	.byte W48
	.byte 44 @ VOL
	.byte N80, An3, v112
	.byte W12
	.byte VOL, 25
	.byte PAN, c_v-10
	.byte W02
	.byte VOL, 26
	.byte W03
	.byte 27 @ VOL
	.byte W02
	.byte 28 @ VOL
	.byte W03
	.byte 30 @ VOL
	.byte W02
	.byte 31 @ VOL
	.byte W03
	.byte 32 @ VOL
	.byte W02
	.byte 34 @ VOL
	.byte W03
	.byte 35 @ VOL
	.byte W02
	.byte 36 @ VOL
	.byte W03
	.byte 37 @ VOL
	.byte W02
	.byte 39 @ VOL
	.byte W03
	.byte 40 @ VOL
	.byte W02
	.byte 41 @ VOL
	.byte W02
	.byte 42 @ VOL
	.byte W03
	.byte 44 @ VOL
	.byte W02
	.byte 45 @ VOL
	.byte W03
	.byte 46 @ VOL
	.byte W02
	.byte 47 @ VOL
	.byte W03
	.byte 49 @ VOL
	.byte W02
	.byte 50 @ VOL
	.byte W03
	.byte 51 @ VOL
	.byte W02
	.byte 52 @ VOL
	.byte W03
	.byte 54 @ VOL
	.byte W02
	.byte 55 @ VOL
	.byte W13
	.byte N84, Gs3 @ v112
	.byte W12
	.byte VOL, 37
	.byte W48
	.byte 25 @ VOL
	.byte W48
	.byte 43 @ VOL
	.byte N80, Fn3 @ v112
	.byte W04
	.byte VOL, 44
	.byte W05
	.byte 45 @ VOL
	.byte W07
	.byte 47 @ VOL
	.byte W05
	.byte 49 @ VOL
	.byte W05
	.byte 50 @ VOL
	.byte W05
	.byte 51 @ VOL
	.byte W04
	.byte 52 @ VOL
	.byte W05
	.byte 54 @ VOL
	.byte W05
	.byte 55 @ VOL
	.byte W05
	.byte 56 @ VOL
	.byte W05
	.byte 57 @ VOL
	.byte W04
	.byte 59 @ VOL
	.byte W05
	.byte 60 @ VOL
	.byte W05
	.byte 61 @ VOL
	.byte W03
	.byte 62 @ VOL
	.byte W12
	.byte 42 @ VOL
	.byte N84, En3 @ v112
	.byte W03
	.byte VOL, 41
	.byte W04
	.byte 40 @ VOL
	.byte W04
	.byte 39 @ VOL
	.byte W01
	.byte W04
	.byte 37 @ VOL
	.byte W04
	.byte 36 @ VOL
	.byte W04
	.byte 35 @ VOL
	.byte W05
	.byte 34 @ VOL
	.byte W04
	.byte 32 @ VOL
	.byte W04
	.byte 31 @ VOL
	.byte W05
	.byte 30 @ VOL
	.byte W04
	.byte 28 @ VOL
	.byte W04
	.byte 27 @ VOL
	.byte W05
	.byte 26 @ VOL
	.byte W04
	.byte 25 @ VOL
	.byte W48
	.byte W01
	.byte 44 @ VOL
	.byte N80, An3 @ v112
	.byte W84
	.byte N84, Gs3 @ v112
	.byte W12
	.byte W24
	.byte VOL, 37
	.byte W24
	.byte 25 @ VOL
	.byte W48
	.byte N80, An3 @ v112
	.byte W84
	.byte N84, As3 @ v112
	.byte W12
	.byte W96
	.byte N80, An3 @ v112
	.byte W84
	.byte N84, Gs3 @ v112
	.byte W12
	.byte W18
	.byte VOL, 25
	.byte W01
	.byte 26 @ VOL
	.byte W02
	.byte 28 @ VOL
	.byte W01
	.byte 28 @ VOL
	.byte W01
	.byte 30 @ VOL
	.byte W02
	.byte 32 @ VOL
	.byte W01
	.byte 32 @ VOL
	.byte W01
	.byte 34 @ VOL
	.byte W02
	.byte 35 @ VOL
	.byte W02
	.byte 37 @ VOL
	.byte W01
	.byte 39 @ VOL
	.byte W02
	.byte 40 @ VOL
	.byte W02
	.byte 42 @ VOL
	.byte W02
	.byte 44 @ VOL
	.byte W02
	.byte 46 @ VOL
	.byte W01
	.byte 47 @ VOL
	.byte W02
	.byte 49 @ VOL
	.byte W01
	.byte 50 @ VOL
	.byte W01
	.byte 51 @ VOL
	.byte W01
	.byte 52 @ VOL
	.byte W01
	.byte 53 @ VOL
	.byte W48
	.byte W01
	.byte W96
	.byte W96
	.byte W96
	.byte W96
	.byte W96
	.byte W96
	.byte W96
	.byte W96
	.byte N06, Dn2 @ v112
	.byte W24
	.byte VOICE, 12
	.byte VOL, 44
	.byte W12
	.byte N06, Dn2, v100
	.byte W60
	.byte W96
	.byte W96
	.byte W96
	.byte VOICE, 2
	.byte VOL, 44
	.byte N05, Dn2, v096
	.byte W36
	.byte N02, Dn2, v076
	.byte W36
	.byte Dn2, v092 @ N02
	.byte W24
	.byte W96
	.byte VOL, 56
	.byte N04, Dn2, v127
	.byte W36
	.byte N04 @ Dn2, v127
	.byte W36
	.byte N04 @ Dn2, v127
	.byte W10
	.byte VOL, 62
	.byte W02
	.byte N84, Gs2 @ v127
	.byte N84, Cs3 @ v127
	.byte W12
	.byte W11
	.byte VOL, 44
	.byte W01
	.byte 45 @ VOL
	.byte W01
	.byte 45 @ VOL
	.byte W01
	.byte 47 @ VOL
	.byte W01
	.byte 47 @ VOL
	.byte W01
	.byte 49 @ VOL
	.byte W01
	.byte 49 @ VOL
	.byte W01
	.byte 51 @ VOL
	.byte W01
	.byte 52 @ VOL
	.byte W01
	.byte 52 @ VOL
	.byte W01
	.byte 54 @ VOL
	.byte W01
	.byte 54 @ VOL
	.byte W01
	.byte 56 @ VOL
	.byte W01
	.byte 57 @ VOL
	.byte W01
	.byte 57 @ VOL
	.byte W01
	.byte 59 @ VOL
	.byte W01
	.byte 59 @ VOL
	.byte W01
	.byte 61 @ VOL
	.byte W01
	.byte 61 @ VOL
	.byte W01
	.byte 62 @ VOL
	.byte W01
	.byte 64 @ VOL
	.byte W01
	.byte 64 @ VOL
	.byte W01
	.byte 66 @ VOL
	.byte W01
	.byte 66 @ VOL
	.byte W01
	.byte 68 @ VOL
	.byte W01
	.byte 68 @ VOL
	.byte W01
	.byte 69 @ VOL
	.byte W01
	.byte 71 @ VOL
	.byte W01
	.byte 71 @ VOL
	.byte W01
	.byte 73 @ VOL
	.byte W01
	.byte 73 @ VOL
	.byte W01
	.byte 74 @ VOL
	.byte W54
	.byte W96
	.byte W96
	.byte W96
	.byte W96
	.byte W96
	.byte W96
	.byte W96
	.byte W96
	.byte W96
	.byte W96
	.byte W96
	.byte W96
	.byte W96
	.byte W96
	.byte W96
	.byte W96
	.byte W96
	.byte W96
	.byte W96
	.byte W96
	.byte W96
	.byte W96
	.byte W96
	.byte W96
	.byte W96
	.byte W96
	.byte W96
	.byte W96
	.byte W96
	.byte W96
	.byte W96
	.byte W96
	.byte GOTO
		.word track_4_lbl_259930
	.byte FINE

track_4_5:
	.byte KEYSH, 0
track_4_lbl_259b89:
	.byte PRIO, 30
	.byte W96
	.byte W96
	.byte W96
	.byte W96
	.byte W96
	.byte W96
	.byte W96
	.byte W96
	.byte W96
	.byte VOICE, 8
	.byte VOL, 62
	.byte W60
	.byte N32, Fn1, v100
	.byte W36
	.byte W96
	.byte W96
	.byte W96
	.byte W96
	.byte W96
	.byte W96
track_4_lbl_259ba3:
	.byte VOICE, 8
	.byte VOL, 62
	.byte N08, Dn1, v080
	.byte W36
	.byte N08 @ Dn1, v080
	.byte W36
	.byte N08 @ Dn1, v080
	.byte W12
	.byte N84 @ Dn1, v080
	.byte W12
	.byte PEND
	.byte W96
	.byte VOICE, 12
	.byte VOL, 44
	.byte W96
	.byte W12
	.byte PAN, c_v-10
	.byte N08, Cn4, v100
	.byte W36
	.byte Bn3 @ N08, v100
	.byte W12
	.byte N08 @ Bn3, v100
	.byte W36
	.byte W96
	.byte W48
	.byte N08 @ Bn3, v100
	.byte W12
	.byte N08 @ Bn3, v100
	.byte W36
	.byte VOL, 80
	.byte N03, Cn4, v040
	.byte W36
	.byte N08 @ Cn4, v040
	.byte W36
	.byte N08 @ Cn4, v040
	.byte W24
	.byte W12
	.byte N08 @ Cn4, v040
	.byte W36
	.byte Bn3 @ N08, v040
	.byte W12
	.byte N08 @ Bn3, v040
	.byte W36
	.byte W96
	.byte W12
	.byte Cn4 @ N08, v040
	.byte W36
	.byte Cs4 @ N08, v040
	.byte W12
	.byte N08 @ Cs4, v040
	.byte W36
	.byte W96
	.byte W12
	.byte Cn4, v052 @ N08
	.byte W36
	.byte Bn3 @ N08, v052
	.byte W12
	.byte N08 @ Bn3, v052
	.byte W36
	.byte W96
	.byte W96
	.byte W96
	.byte W96
	.byte W96
	.byte W96
	.byte W96
	.byte W96
	.byte W96
	.byte W96
	.byte W96
	.byte W96
	.byte W96
	.byte W96
	.byte PATT
		.word track_4_lbl_259ba3
	.byte W96
	.byte W96
	.byte W96
	.byte W96
	.byte W96
	.byte W96
	.byte W96
	.byte W96
	.byte W96
	.byte VOICE, 5
	.byte MOD, 70
	.byte VOL, 44
	.byte MODT, 40
	.byte TIE, An3, v060
	.byte W96
	.byte W96
	.byte EOT @ An3, v060
	.byte TIE, Fs3 @ v060
	.byte W96
	.byte W84
	.byte EOT @ Fs3, v060
	.byte W12
	.byte N96, En3, v072
	.byte W96
	.byte Fn3, v080 @ N96
	.byte W96
	.byte Fs3, v084 @ N96
	.byte W96
	.byte N72, Gn3, v080
	.byte W96
	.byte N96, An3, v072
	.byte W96
	.byte As3, v076 @ N96
	.byte W96
	.byte N48, Bn3 @ v076
	.byte W48
	.byte Cn4 @ N48, v076
	.byte W48
	.byte N08, Fn2, v092
	.byte W16
	.byte En2 @ N08, v092
	.byte W16
	.byte Ds2, v096 @ N08
	.byte W16
	.byte Fs2, v092 @ N08
	.byte W16
	.byte Fn2 @ N08, v092
	.byte W16
	.byte En2, v096 @ N08
	.byte W16
	.byte VOICE, 7
	.byte MOD, 70
	.byte VOL, 44
	.byte N84, Dn2, v080
	.byte W96
	.byte Gs1 @ N84, v080
	.byte W96
	.byte Dn1 @ N84, v080
	.byte W96
	.byte Gs1 @ N84, v080
	.byte W96
	.byte TIE, Dn1, v060
	.byte W96
	.byte W24
	.byte EOT @ Dn1, v060
	.byte W36
	.byte N36, Ds1 @ v060
	.byte W36
	.byte TIE, Dn1 @ v060
	.byte W96
	.byte W24
	.byte EOT @ Dn1, v060
	.byte W36
	.byte N36, Fn1 @ v060
	.byte W36
	.byte TIE, Dn1 @ v060
	.byte W96
	.byte W48
	.byte EOT @ Dn1, v060
	.byte W48
	.byte TIE @ Dn1, v060
	.byte W96
	.byte W48
	.byte EOT @ Dn1, v060
	.byte W48
	.byte GOTO
		.word track_4_lbl_259b89
	.byte FINE

track_4_6:
	.byte KEYSH, 0
track_4_lbl_259c7c:
	.byte PRIO, 29
	.byte W96
	.byte W96
	.byte W96
	.byte W96
	.byte W96
	.byte W96
	.byte W96
	.byte W96
	.byte W96
	.byte W96
	.byte W96
	.byte W96
	.byte W96
	.byte W96
	.byte W96
	.byte W96
	.byte W96
	.byte W96
	.byte W96
	.byte W96
	.byte W96
	.byte W96
	.byte VOICE, 9
	.byte MOD, 110
	.byte VOL, 50
	.byte LFODL, 20
	.byte N84, Cn3, v096
	.byte W84
	.byte N68, Bn2, v088
	.byte W12
	.byte W84
	.byte N06, Gs2 @ v088
	.byte W06
	.byte Gn2 @ N06, v088
	.byte W06
	.byte N84, Cn3, v096
	.byte W84
	.byte Cs3 @ N84, v096
	.byte W12
	.byte W84
	.byte N06, Gs2, v084
	.byte W06
	.byte Gn2, v092 @ N06
	.byte W06
	.byte N80, Cn3, v104
	.byte W84
	.byte N72, Bn2, v084
	.byte W12
	.byte W78
	.byte N05, Gs2 @ v084
	.byte W06
	.byte Gn2, v108 @ N05
	.byte W06
	.byte Fn2, v112 @ N05
	.byte W06
	.byte N12, Dn2, v096
	.byte W96
	.byte W96
	.byte W96
	.byte W96
	.byte W96
	.byte W96
	.byte W96
	.byte W96
	.byte W96
	.byte W96
	.byte W96
	.byte W96
	.byte W96
	.byte W96
	.byte W96
	.byte W96
	.byte W96
	.byte W96
	.byte W96
	.byte W96
	.byte W96
	.byte W96
	.byte W96
	.byte W96
	.byte VOICE, 6
	.byte MOD, 30
	.byte VOL, 44
	.byte TIE, Fn3, v060
	.byte W96
	.byte W96
	.byte EOT @ Fn3, v060
	.byte TIE, Ds3 @ v060
	.byte W96
	.byte W84
	.byte EOT @ Ds3, v060
	.byte W12
	.byte N24, En1, v100
	.byte W36
	.byte N48 @ En1, v100
	.byte W60
	.byte N24, Fn1 @ v100
	.byte W36
	.byte N32 @ Fn1, v100
	.byte W36
	.byte N20 @ Fn1, v100
	.byte W24
	.byte N24, Fs1 @ v100
	.byte W36
	.byte N48 @ Fs1, v100
	.byte W60
	.byte N24, Gn1 @ v100
	.byte W36
	.byte N30 @ Gn1, v100
	.byte W36
	.byte N24 @ Gn1, v100
	.byte W24
	.byte N04, Cn3, v084
	.byte W12
	.byte Cn3, v088 @ N04
	.byte W24
	.byte N04 @ Cn3, v088
	.byte W24
	.byte Cn3, v092 @ N04
	.byte W24
	.byte N10, Cn3, v112
	.byte W12
	.byte N04, Cs3, v084
	.byte W12
	.byte Cs3, v088 @ N04
	.byte W24
	.byte N04 @ Cs3, v088
	.byte W24
	.byte Cs3, v092 @ N04
	.byte W24
	.byte N10, Cs3, v112
	.byte W12
	.byte N04, Dn3, v084
	.byte W14
	.byte Dn3, v088 @ N04
	.byte W22
	.byte N04 @ Dn3, v088
	.byte W12
	.byte Ds3, v084 @ N04
	.byte W14
	.byte Ds3, v088 @ N04
	.byte W22
	.byte N04 @ Ds3, v088
	.byte W12
	.byte N03, Fn1, v112
	.byte W16
	.byte En1 @ N03, v112
	.byte W16
	.byte Ds1, v116 @ N03
	.byte W16
	.byte Fs1, v112 @ N03
	.byte W16
	.byte Fn1 @ N03, v112
	.byte W16
	.byte En1, v116 @ N03
	.byte W16
	.byte N84, Dn3, v076
	.byte W96
	.byte Gs2 @ N84, v076
	.byte W96
	.byte Dn2, v084 @ N84
	.byte W96
	.byte W96
	.byte W96
	.byte W96
	.byte W96
	.byte W96
	.byte W96
	.byte W96
	.byte W96
	.byte W96
	.byte GOTO
		.word track_4_lbl_259c7c
	.byte FINE

.align 2

track_4:
	.byte 7
	.byte 4
	.byte 130
	.byte 128
	.word 0x80a59e0
	.word track_4_0
	.word track_4_1
	.word track_4_2
	.word track_4_3
	.word track_4_4
	.word track_4_5
	.word track_4_6

.align 2
