.align 2

.global track_48

track_48_0:
	.byte KEYSH, 0
	.byte TEMPO, 65
	.byte PAN, c_v
	.byte PRIO, 110
	.byte W24
	.byte VOICE, 15
	.byte VOL, 97
	.byte TIE, An3, v080
	.byte W01
	.byte VOL, 94
	.byte W01
	.byte 91 @ VOL
	.byte W01
	.byte 88 @ VOL
	.byte W01
	.byte 85 @ VOL
	.byte W01
	.byte 83 @ VOL
	.byte W01
	.byte 80 @ VOL
	.byte W01
	.byte 77 @ VOL
	.byte W01
	.byte 75 @ VOL
	.byte W01
	.byte 71 @ VOL
	.byte W01
	.byte 69 @ VOL
	.byte W01
	.byte 66 @ VOL
	.byte W01
	.byte 64 @ VOL
	.byte W01
	.byte 61 @ VOL
	.byte W01
	.byte 58 @ VOL
	.byte W01
	.byte 55 @ VOL
	.byte W01
	.byte 52 @ VOL
	.byte W01
	.byte 50 @ VOL
	.byte W01
	.byte 47 @ VOL
	.byte W01
	.byte 45 @ VOL
	.byte W01
	.byte 33 @ VOL
	.byte W76
	.byte W03
	.byte 34 @ VOL
	.byte W04
	.byte 35 @ VOL
	.byte W04
	.byte 36 @ VOL
	.byte W04
	.byte 37 @ VOL
	.byte W03
	.byte 38 @ VOL
	.byte W04
	.byte 38 @ VOL
	.byte W04
	.byte 39 @ VOL
	.byte W04
	.byte 40 @ VOL
	.byte W03
	.byte 41 @ VOL
	.byte W04
	.byte 42 @ VOL
	.byte W04
	.byte 43 @ VOL
	.byte W04
	.byte 44 @ VOL
	.byte W03
	.byte 45 @ VOL
	.byte W04
	.byte 45 @ VOL
	.byte W04
	.byte 46 @ VOL
	.byte W04
	.byte 47 @ VOL
	.byte W03
	.byte 48 @ VOL
	.byte W04
	.byte 49 @ VOL
	.byte W04
	.byte 50 @ VOL
	.byte W04
	.byte 51 @ VOL
	.byte W03
	.byte 51 @ VOL
	.byte W04
	.byte 52 @ VOL
	.byte W04
	.byte 53 @ VOL
	.byte W03
	.byte 54 @ VOL
	.byte W04
	.byte 55 @ VOL
	.byte W03
	.byte 57 @ VOL
	.byte W02
	.byte 56 @ VOL
	.byte W40
	.byte 55 @ VOL
	.byte W01
	.byte 54 @ VOL
	.byte W02
	.byte 53 @ VOL
	.byte W01
	.byte 52 @ VOL
	.byte W02
	.byte 51 @ VOL
	.byte W01
	.byte 51 @ VOL
	.byte W02
	.byte 50 @ VOL
	.byte W01
	.byte 49 @ VOL
	.byte W02
	.byte 48 @ VOL
	.byte W01
	.byte 47 @ VOL
	.byte W02
	.byte 46 @ VOL
	.byte W01
	.byte 45 @ VOL
	.byte W01
	.byte 45 @ VOL
	.byte W01
	.byte 45 @ VOL
	.byte W01
	.byte 44 @ VOL
	.byte W01
	.byte 43 @ VOL
	.byte W02
	.byte 42 @ VOL
	.byte W01
	.byte 41 @ VOL
	.byte W02
	.byte 40 @ VOL
	.byte W01
	.byte 39 @ VOL
	.byte W02
	.byte 38 @ VOL
	.byte W01
	.byte 38 @ VOL
	.byte W02
	.byte 37 @ VOL
	.byte W01
	.byte 36 @ VOL
	.byte W01
	.byte 36 @ VOL
	.byte W01
	.byte 35 @ VOL
	.byte W01
	.byte 34 @ VOL
	.byte W02
	.byte 33 @ VOL
	.byte W01
	.byte 32 @ VOL
	.byte W02
	.byte 32 @ VOL
	.byte W01
	.byte 31 @ VOL
	.byte W02
	.byte 30 @ VOL
	.byte W01
	.byte 29 @ VOL
	.byte W02
	.byte 28 @ VOL
	.byte W01
	.byte 27 @ VOL
	.byte W02
	.byte 26 @ VOL
	.byte W01
	.byte 25 @ VOL
	.byte W02
	.byte 25 @ VOL
	.byte W01
	.byte 24 @ VOL
	.byte W01
	.byte EOT @ An3, v080
	.byte VOL, 25
	.byte N96, Bn3, v127
	.byte W03
	.byte VOL, 25
	.byte W03
	.byte 26 @ VOL
	.byte W03
	.byte 27 @ VOL
	.byte W03
	.byte 28 @ VOL
	.byte W03
	.byte 29 @ VOL
	.byte W03
	.byte 30 @ VOL
	.byte W03
	.byte 31 @ VOL
	.byte W03
	.byte 32 @ VOL
	.byte W03
	.byte 32 @ VOL
	.byte W03
	.byte 33 @ VOL
	.byte W03
	.byte 34 @ VOL
	.byte W03
	.byte 35 @ VOL
	.byte W04
	.byte 36 @ VOL
	.byte W03
	.byte 37 @ VOL
	.byte W03
	.byte 38 @ VOL
	.byte W03
	.byte 38 @ VOL
	.byte W03
	.byte 39 @ VOL
	.byte W03
	.byte 40 @ VOL
	.byte W03
	.byte 41 @ VOL
	.byte W03
	.byte 42 @ VOL
	.byte W03
	.byte 43 @ VOL
	.byte W03
	.byte 44 @ VOL
	.byte W03
	.byte 45 @ VOL
	.byte W03
	.byte 45 @ VOL
	.byte W03
	.byte 46 @ VOL
	.byte W03
	.byte 47 @ VOL
	.byte W03
	.byte 48 @ VOL
	.byte W03
	.byte 49 @ VOL
	.byte W03
	.byte 50 @ VOL
	.byte W03
	.byte 51 @ VOL
	.byte W03
	.byte 51 @ VOL
	.byte W02
	.byte VOICE, 20
	.byte VOL, 25
	.byte TIE, An3, v064
	.byte W48
	.byte N96, As3, v080
	.byte W48
	.byte N48, Cs4 @ v080
	.byte W42
	.byte EOT, An3 @ v080
	.byte W06
	.byte TIE, Cn4, v088
	.byte W48
	.byte N48, Fs4, v084
	.byte W48
	.byte TIE, Fn4, v080
	.byte W48
	.byte EOT, Cn4 @ v080
	.byte N48, Bn3 @ v080
	.byte W48
	.byte N36, Cn4, v072
	.byte W16
	.byte EOT, Fn4 @ v072
	.byte W32
track_48_lbl_2653c3:
	.byte VOICE, 15
	.byte VOL, 25
	.byte TIE, An3, v072
	.byte W48
	.byte N96, As3 @ v072
	.byte W48
	.byte Cs4 @ N96, v072
	.byte W04
	.byte VOL, 25
	.byte W06
	.byte 26 @ VOL
	.byte W07
	.byte 27 @ VOL
	.byte W06
	.byte 28 @ VOL
	.byte W07
	.byte 29 @ VOL
	.byte W06
	.byte 30 @ VOL
	.byte W07
	.byte 31 @ VOL
	.byte W05
	.byte EOT, An3 @ v072
	.byte VOL, 31
	.byte TIE, Cn4 @ v072
	.byte W01
	.byte VOL, 32
	.byte W07
	.byte 32 @ VOL
	.byte W07
	.byte 33 @ VOL
	.byte W06
	.byte 34 @ VOL
	.byte W07
	.byte 35 @ VOL
	.byte W06
	.byte 36 @ VOL
	.byte W07
	.byte 37 @ VOL
	.byte W06
	.byte 38 @ VOL
	.byte W01
	.byte 34 @ VOL
	.byte TIE, An3, v092
	.byte W04
	.byte VOL, 35
	.byte W05
	.byte 36 @ VOL
	.byte W06
	.byte 37 @ VOL
	.byte W05
	.byte 38 @ VOL
	.byte W05
	.byte 38 @ VOL
	.byte W05
	.byte 39 @ VOL
	.byte W06
	.byte 40 @ VOL
	.byte W05
	.byte 41 @ VOL
	.byte W05
	.byte 42 @ VOL
	.byte W02
	.byte TIE, As3 @ v092
	.byte W03
	.byte VOL, 43
	.byte W06
	.byte 44 @ VOL
	.byte W05
	.byte 45 @ VOL
	.byte W05
	.byte 45 @ VOL
	.byte W05
	.byte 46 @ VOL
	.byte W05
	.byte 47 @ VOL
	.byte W06
	.byte 48 @ VOL
	.byte W13
	.byte EOT, Cn4 @ v092
	.byte N84, Cs4, v116
	.byte W02
	.byte VOL, 51
	.byte W06
	.byte 51 @ VOL
	.byte W05
	.byte 52 @ VOL
	.byte W05
	.byte 53 @ VOL
	.byte W05
	.byte 54 @ VOL
	.byte W06
	.byte 55 @ VOL
	.byte W05
	.byte 56 @ VOL
	.byte W05
	.byte 57 @ VOL
	.byte W05
	.byte 58 @ VOL
	.byte W04
	.byte EOT, An3 @ v116
	.byte N36, Cn4, v112
	.byte W02
	.byte VOL, 58
	.byte W05
	.byte 59 @ VOL
	.byte W05
	.byte 60 @ VOL
	.byte W05
	.byte 61 @ VOL
	.byte W06
	.byte 62 @ VOL
	.byte W05
	.byte 63 @ VOL
	.byte W05
	.byte 64 @ VOL
	.byte W03
	.byte EOT, As3 @ v112
	.byte W12
	.byte VOL, 51
	.byte N36, Cn4, v068
	.byte W48
	.byte Cn4, v076 @ N36
	.byte W48
	.byte Dn4, v068 @ N36
	.byte W48
	.byte Ds4, v072 @ N36
	.byte W48
	.byte VOICE, 14
	.byte VOL, 103
	.byte N10, As0, v112
	.byte W12
	.byte N12 @ As0, v112
	.byte W24
	.byte N10 @ As0, v112
	.byte W12
	.byte Bn0 @ N10, v112
	.byte W12
	.byte N12 @ Bn0, v112
	.byte W24
	.byte N10 @ Bn0, v112
	.byte W12
	.byte Cn1 @ N10, v112
	.byte W12
	.byte N12 @ Cn1, v112
	.byte W24
	.byte N10 @ Cn1, v112
	.byte W12
	.byte Cs1 @ N10, v112
	.byte W12
	.byte N10 @ Cs1, v112
	.byte W24
	.byte N10 @ Cs1, v112
	.byte W12
	.byte Cn1, v100 @ N10
	.byte W12
	.byte N12, Cn1, v080
	.byte W24
	.byte N12 @ Cn1, v080
	.byte W24
	.byte N12 @ Cn1, v080
	.byte W24
	.byte N12 @ Cn1, v080
	.byte W12
track_48_lbl_26548c:
	.byte W12
	.byte N12, Cn1, v080
	.byte W24
	.byte N12 @ Cn1, v080
	.byte W24
	.byte N12 @ Cn1, v080
	.byte W24
	.byte N12 @ Cn1, v080
	.byte W12
	.byte PEND
	.byte PATT
		.word track_48_lbl_26548c
	.byte W12
	.byte N12, Cn1, v080
	.byte W24
	.byte N12 @ Cn1, v080
	.byte W24
	.byte N12 @ Cn1, v080
	.byte W24
	.byte N10 @ Cn1, v080
	.byte W12
	.byte VOICE, 20
	.byte VOL, 25
	.byte N96, An3, v064
	.byte W48
	.byte As3, v080 @ N96
	.byte W48
	.byte N48, Cs4 @ v080
	.byte W48
	.byte TIE, Cn4, v088
	.byte W48
	.byte N48, Fs4, v080
	.byte W48
	.byte TIE, Fn4 @ v080
	.byte W48
	.byte EOT, Cn4 @ v080
	.byte N48, Bn3 @ v080
	.byte W48
	.byte N36, Cn4, v072
	.byte W16
	.byte EOT, Fn4 @ v072
	.byte W32
	.byte GOTO
		.word track_48_lbl_2653c3
	.byte FINE

track_48_1:
	.byte KEYSH, 0
	.byte VOICE, 0
	.byte VOL, 86
	.byte PAN, c_v+10
	.byte PRIO, 109
	.byte N06, Dn1, v044
	.byte W06
	.byte Dn1, v064 @ N06
	.byte W06
	.byte Dn1, v096 @ N06
	.byte W06
	.byte N05, Dn1, v116
	.byte W06
	.byte N12, Dn1, v100
	.byte W48
	.byte VOICE, 15
	.byte VOL, 33
	.byte N96, As3, v080
	.byte W48
	.byte W03
	.byte VOL, 34
	.byte W04
	.byte 35 @ VOL
	.byte W04
	.byte 36 @ VOL
	.byte W04
	.byte 37 @ VOL
	.byte W03
	.byte 38 @ VOL
	.byte W04
	.byte 38 @ VOL
	.byte W04
	.byte 39 @ VOL
	.byte W04
	.byte 40 @ VOL
	.byte W03
	.byte 41 @ VOL
	.byte W04
	.byte 42 @ VOL
	.byte W04
	.byte 43 @ VOL
	.byte W04
	.byte 44 @ VOL
	.byte W03
	.byte 45 @ VOL
	.byte N96, Cn4 @ v080
	.byte W04
	.byte VOL, 45
	.byte W04
	.byte 46 @ VOL
	.byte W04
	.byte 47 @ VOL
	.byte W03
	.byte 48 @ VOL
	.byte W04
	.byte 49 @ VOL
	.byte W04
	.byte 50 @ VOL
	.byte W04
	.byte 51 @ VOL
	.byte W03
	.byte 51 @ VOL
	.byte W04
	.byte 52 @ VOL
	.byte W04
	.byte 53 @ VOL
	.byte W03
	.byte 54 @ VOL
	.byte W04
	.byte 55 @ VOL
	.byte W03
	.byte 57 @ VOL
	.byte W02
	.byte 56 @ VOL
	.byte W40
	.byte 55 @ VOL
	.byte W01
	.byte 54 @ VOL
	.byte W02
	.byte 53 @ VOL
	.byte W01
	.byte 52 @ VOL
	.byte W02
	.byte 51 @ VOL
	.byte N96, Fn4, v104
	.byte W01
	.byte VOL, 51
	.byte W02
	.byte 50 @ VOL
	.byte W01
	.byte 49 @ VOL
	.byte W02
	.byte 48 @ VOL
	.byte W01
	.byte 47 @ VOL
	.byte W02
	.byte 46 @ VOL
	.byte W01
	.byte 45 @ VOL
	.byte W01
	.byte 45 @ VOL
	.byte W01
	.byte 45 @ VOL
	.byte W01
	.byte 44 @ VOL
	.byte W01
	.byte 43 @ VOL
	.byte W02
	.byte 42 @ VOL
	.byte W01
	.byte 41 @ VOL
	.byte W02
	.byte 40 @ VOL
	.byte W01
	.byte 39 @ VOL
	.byte W02
	.byte 38 @ VOL
	.byte W01
	.byte 38 @ VOL
	.byte W02
	.byte 37 @ VOL
	.byte W01
	.byte 36 @ VOL
	.byte W01
	.byte 36 @ VOL
	.byte W01
	.byte 35 @ VOL
	.byte W01
	.byte 34 @ VOL
	.byte W02
	.byte 33 @ VOL
	.byte W01
	.byte 32 @ VOL
	.byte W02
	.byte 32 @ VOL
	.byte W01
	.byte 31 @ VOL
	.byte W02
	.byte 30 @ VOL
	.byte W01
	.byte 29 @ VOL
	.byte W02
	.byte 28 @ VOL
	.byte W01
	.byte 27 @ VOL
	.byte W02
	.byte 26 @ VOL
	.byte W01
	.byte 25 @ VOL
	.byte W02
	.byte 25 @ VOL
	.byte W01
	.byte 24 @ VOL
	.byte W01
	.byte 24 @ VOL
	.byte W03
	.byte 25 @ VOL
	.byte W04
	.byte 25 @ VOL
	.byte W05
	.byte 27 @ VOL
	.byte W05
	.byte 29 @ VOL
	.byte W04
	.byte 31 @ VOL
	.byte W05
	.byte 32 @ VOL
	.byte W04
	.byte 33 @ VOL
	.byte W04
	.byte 34 @ VOL
	.byte W04
	.byte 36 @ VOL
	.byte W03
	.byte 38 @ VOL
	.byte W04
	.byte 39 @ VOL
	.byte W03
	.byte N48, As3, v120
	.byte W01
	.byte VOL, 41
	.byte W03
	.byte 42 @ VOL
	.byte W03
	.byte 43 @ VOL
	.byte W03
	.byte 45 @ VOL
	.byte W02
	.byte 46 @ VOL
	.byte W03
	.byte 48 @ VOL
	.byte W03
	.byte 50 @ VOL
	.byte W02
	.byte 51 @ VOL
	.byte W02
	.byte 51 @ VOL
	.byte W01
	.byte 53 @ VOL
	.byte W02
	.byte 55 @ VOL
	.byte W02
	.byte 57 @ VOL
	.byte W02
	.byte 58 @ VOL
	.byte W01
	.byte 59 @ VOL
	.byte W01
	.byte 60 @ VOL
	.byte W02
	.byte 62 @ VOL
	.byte W01
	.byte 64 @ VOL
	.byte W01
	.byte 65 @ VOL
	.byte W02
	.byte 68 @ VOL
	.byte W01
	.byte 69 @ VOL
	.byte W02
	.byte 71 @ VOL
	.byte W01
	.byte 72 @ VOL
	.byte W01
	.byte 74 @ VOL
	.byte W01
	.byte 77 @ VOL
	.byte W01
	.byte 77 @ VOL
	.byte W01
	.byte 81 @ VOL
	.byte W01
	.byte 83 @ VOL
	.byte W01
	.byte 85 @ VOL
	.byte W01
	.byte VOICE, 14
	.byte VOL, 86
	.byte N10, Ds1, v092
	.byte W12
	.byte N12, Ds1, v072
	.byte W84
	.byte W60
	.byte Ds1, v084 @ N12
	.byte W24
	.byte Ds1, v092 @ N12
	.byte W12
track_48_lbl_2655ec:
	.byte W12
	.byte N12, Ds1, v072
	.byte W24
	.byte N12 @ Ds1, v072
	.byte W24
	.byte N12 @ Ds1, v072
	.byte W24
	.byte N12 @ Ds1, v072
	.byte W12
	.byte PEND
	.byte PATT
		.word track_48_lbl_2655ec
track_48_lbl_2655fd:
	.byte W96
	.byte W96
	.byte W96
	.byte W96
	.byte VOICE, 6
	.byte VOL, 51
	.byte N36, An4, v064
	.byte W36
	.byte N12, As4 @ v064
	.byte W12
	.byte N36, Fs4, v068
	.byte W36
	.byte N11, Gn4, v076
	.byte W12
	.byte N36, An4, v056
	.byte W36
	.byte N12, As4, v072
	.byte W12
	.byte N36, Fs4 @ v072
	.byte W36
	.byte N12, Gn4, v064
	.byte W12
	.byte VOL, 25
	.byte N36, Fn3, v072
	.byte W36
	.byte N12, En3, v088
	.byte W12
	.byte N36, Fs3, v080
	.byte W36
	.byte N12, Fn3 @ v080
	.byte W12
	.byte N36, An3, v072
	.byte W36
	.byte N12, Gs3, v084
	.byte W12
	.byte N36, Bn3, v080
	.byte W36
	.byte N10, As3, v072
	.byte W12
	.byte N96, An3, v064
	.byte W48
	.byte As3, v080 @ N96
	.byte W48
	.byte N48, Cs4 @ v080
	.byte W48
	.byte TIE, Cn4, v088
	.byte W48
	.byte N48, Fs4, v084
	.byte W48
	.byte TIE, Fn4, v080
	.byte W48
	.byte EOT, Cn4 @ v080
	.byte N48, Bn3 @ v080
	.byte W48
	.byte N36, Cn4, v072
	.byte W16
	.byte EOT, Fn4 @ v072
	.byte W32
	.byte VOICE, 14
	.byte VOL, 103
	.byte N10, Ds1, v092
	.byte W12
	.byte N16, Ds1, v072
	.byte W24
	.byte N16 @ Ds1, v072
	.byte W24
	.byte N16 @ Ds1, v072
	.byte W24
	.byte N12 @ Ds1, v072
	.byte W12
	.byte W12
	.byte N16 @ Ds1, v072
	.byte W24
	.byte Ds1, v076 @ N16
	.byte W24
	.byte Ds1, v084 @ N16
	.byte W24
	.byte Ds1, v092 @ N16
	.byte W12
	.byte W12
	.byte Ds1, v072 @ N16
	.byte W24
	.byte N16 @ Ds1, v072
	.byte W24
	.byte N16 @ Ds1, v072
	.byte W24
	.byte N16 @ Ds1, v072
	.byte W12
	.byte W12
	.byte N16 @ Ds1, v072
	.byte W24
	.byte N16 @ Ds1, v072
	.byte W24
	.byte N16 @ Ds1, v072
	.byte W24
	.byte N12 @ Ds1, v072
	.byte W12
	.byte GOTO
		.word track_48_lbl_2655fd
	.byte FINE

track_48_2:
	.byte KEYSH, 0
	.byte VOICE, 14
	.byte VOL, 110
	.byte PAN, c_v-10
	.byte PRIO, 108
	.byte N06, Fn2, v072
	.byte W06
	.byte Bn1 @ N06, v072
	.byte W06
	.byte Gn1, v100 @ N06
	.byte W06
	.byte Cs1 @ N06, v100
	.byte W06
	.byte N24, Cn1, v112
	.byte W96
	.byte VOICE, 15
	.byte VOL, 34
	.byte N96, Cs4, v080
	.byte W07
	.byte VOL, 35
	.byte W04
	.byte 36 @ VOL
	.byte W04
	.byte 37 @ VOL
	.byte W03
	.byte 38 @ VOL
	.byte W04
	.byte 38 @ VOL
	.byte W04
	.byte 39 @ VOL
	.byte W04
	.byte 40 @ VOL
	.byte W03
	.byte 41 @ VOL
	.byte W04
	.byte 42 @ VOL
	.byte W04
	.byte 43 @ VOL
	.byte W04
	.byte 44 @ VOL
	.byte W03
	.byte 45 @ VOL
	.byte W04
	.byte 45 @ VOL
	.byte W04
	.byte 46 @ VOL
	.byte W04
	.byte 47 @ VOL
	.byte W03
	.byte 48 @ VOL
	.byte W04
	.byte 49 @ VOL
	.byte W04
	.byte 50 @ VOL
	.byte W04
	.byte 51 @ VOL
	.byte W03
	.byte 51 @ VOL
	.byte W04
	.byte 52 @ VOL
	.byte W04
	.byte 53 @ VOL
	.byte W03
	.byte 54 @ VOL
	.byte W04
	.byte 55 @ VOL
	.byte W03
	.byte 57 @ VOL
	.byte N96, Fs4, v076
	.byte W02
	.byte VOL, 56
	.byte W40
	.byte 55 @ VOL
	.byte W01
	.byte 54 @ VOL
	.byte W02
	.byte 53 @ VOL
	.byte W01
	.byte 52 @ VOL
	.byte W02
	.byte 51 @ VOL
	.byte W01
	.byte 51 @ VOL
	.byte W02
	.byte 50 @ VOL
	.byte W01
	.byte 49 @ VOL
	.byte W02
	.byte 48 @ VOL
	.byte W01
	.byte 47 @ VOL
	.byte W02
	.byte 46 @ VOL
	.byte W01
	.byte 45 @ VOL
	.byte W01
	.byte 45 @ VOL
	.byte W01
	.byte 45 @ VOL
	.byte W01
	.byte 44 @ VOL
	.byte W01
	.byte 43 @ VOL
	.byte W02
	.byte 42 @ VOL
	.byte W01
	.byte 41 @ VOL
	.byte W02
	.byte 40 @ VOL
	.byte W01
	.byte 39 @ VOL
	.byte W02
	.byte 38 @ VOL
	.byte W01
	.byte 38 @ VOL
	.byte W02
	.byte 37 @ VOL
	.byte W01
	.byte 36 @ VOL
	.byte W01
	.byte 36 @ VOL
	.byte W01
	.byte 35 @ VOL
	.byte W01
	.byte 34 @ VOL
	.byte W02
	.byte 33 @ VOL
	.byte W01
	.byte 32 @ VOL
	.byte W02
	.byte 32 @ VOL
	.byte W01
	.byte 31 @ VOL
	.byte W02
	.byte 30 @ VOL
	.byte W01
	.byte 29 @ VOL
	.byte W02
	.byte 28 @ VOL
	.byte W01
	.byte 27 @ VOL
	.byte W02
	.byte 26 @ VOL
	.byte W01
	.byte 25 @ VOL
	.byte W02
	.byte 25 @ VOL
	.byte W01
	.byte 24 @ VOL
	.byte W01
	.byte VOICE, 16
	.byte VOL, 9
	.byte N60, Cn3, v080
	.byte W06
	.byte VOL, 10
	.byte W03
	.byte 11 @ VOL
	.byte W03
	.byte 12 @ VOL
	.byte W03
	.byte 12 @ VOL
	.byte W03
	.byte 13 @ VOL
	.byte W04
	.byte 14 @ VOL
	.byte W03
	.byte 15 @ VOL
	.byte W03
	.byte 16 @ VOL
	.byte W03
	.byte 17 @ VOL
	.byte W03
	.byte 18 @ VOL
	.byte W03
	.byte 19 @ VOL
	.byte W03
	.byte 19 @ VOL
	.byte W03
	.byte 20 @ VOL
	.byte W03
	.byte 21 @ VOL
	.byte W03
	.byte 22 @ VOL
	.byte W03
	.byte 23 @ VOL
	.byte W03
	.byte 24 @ VOL
	.byte W05
	.byte VOICE, 22
	.byte VOL, 25
	.byte N36 @ Cn3, v080
	.byte W01
	.byte VOL, 25
	.byte W01
	.byte 27 @ VOL
	.byte W01
	.byte 29 @ VOL
	.byte W01
	.byte 31 @ VOL
	.byte W02
	.byte 32 @ VOL
	.byte W01
	.byte 33 @ VOL
	.byte W01
	.byte 34 @ VOL
	.byte W01
	.byte 36 @ VOL
	.byte W01
	.byte 38 @ VOL
	.byte W01
	.byte 39 @ VOL
	.byte W01
	.byte 41 @ VOL
	.byte W01
	.byte 43 @ VOL
	.byte W01
	.byte 45 @ VOL
	.byte W01
	.byte 46 @ VOL
	.byte W01
	.byte 48 @ VOL
	.byte W01
	.byte 50 @ VOL
	.byte W01
	.byte 51 @ VOL
	.byte W01
	.byte 53 @ VOL
	.byte W01
	.byte 55 @ VOL
	.byte W01
	.byte 57 @ VOL
	.byte W01
	.byte 58 @ VOL
	.byte W01
	.byte 60 @ VOL
	.byte W01
	.byte 62 @ VOL
	.byte W01
	.byte 65 @ VOL
	.byte W01
	.byte 68 @ VOL
	.byte W01
	.byte 71 @ VOL
	.byte W01
	.byte 74 @ VOL
	.byte W01
	.byte 77 @ VOL
	.byte W01
	.byte 79 @ VOL
	.byte W01
	.byte 84 @ VOL
	.byte W01
	.byte 86 @ VOL
	.byte W01
	.byte 91 @ VOL
	.byte W01
	.byte 95 @ VOL
	.byte W01
	.byte 103 @ VOL
	.byte W01
	.byte VOICE, 23
	.byte VOL, 107
	.byte N96, Cn3, v100
	.byte W01
	.byte VOL, 102
	.byte W01
	.byte 95 @ VOL
	.byte W01
	.byte 91 @ VOL
	.byte W01
	.byte 88 @ VOL
	.byte W01
	.byte 83 @ VOL
	.byte W01
	.byte 79 @ VOL
	.byte W01
	.byte 77 @ VOL
	.byte W01
	.byte 74 @ VOL
	.byte W01
	.byte 71 @ VOL
	.byte W01
	.byte 69 @ VOL
	.byte W01
	.byte 67 @ VOL
	.byte W01
	.byte 65 @ VOL
	.byte W01
	.byte 62 @ VOL
	.byte W01
	.byte 59 @ VOL
	.byte W01
	.byte 58 @ VOL
	.byte W01
	.byte 57 @ VOL
	.byte W01
	.byte 55 @ VOL
	.byte W01
	.byte 51 @ VOL
	.byte W01
	.byte 51 @ VOL
	.byte W01
	.byte 50 @ VOL
	.byte W01
	.byte 48 @ VOL
	.byte W01
	.byte 45 @ VOL
	.byte W01
	.byte 43 @ VOL
	.byte W02
	.byte 42 @ VOL
	.byte W01
	.byte 41 @ VOL
	.byte W01
	.byte 39 @ VOL
	.byte W01
	.byte 38 @ VOL
	.byte W02
	.byte 36 @ VOL
	.byte W01
	.byte 34 @ VOL
	.byte W02
	.byte 33 @ VOL
	.byte W02
	.byte 32 @ VOL
	.byte W02
	.byte 31 @ VOL
	.byte W02
	.byte 29 @ VOL
	.byte W02
	.byte 27 @ VOL
	.byte W02
	.byte 25 @ VOL
	.byte W02
	.byte 25 @ VOL
	.byte W02
	.byte 24 @ VOL
	.byte W03
	.byte 22 @ VOL
	.byte W02
	.byte 20 @ VOL
	.byte W03
	.byte 19 @ VOL
	.byte W03
	.byte 17 @ VOL
	.byte W03
	.byte 16 @ VOL
	.byte W04
	.byte 15 @ VOL
	.byte W03
	.byte 13 @ VOL
	.byte W03
	.byte 12 @ VOL
	.byte W04
	.byte 10 @ VOL
	.byte W04
	.byte 8 @ VOL
	.byte W04
	.byte 7 @ VOL
	.byte W04
	.byte 6 @ VOL
	.byte W04
	.byte 5 @ VOL
	.byte W04
	.byte 3 @ VOL
	.byte W01
	.byte W96
	.byte W96
	.byte W96
track_48_lbl_26582d:
	.byte W96
	.byte W96
	.byte W96
	.byte W96
	.byte W96
	.byte W96
	.byte W96
	.byte W96
	.byte W96
	.byte W96
	.byte W96
	.byte W96
	.byte W96
	.byte W96
	.byte W96
	.byte W96
	.byte GOTO
		.word track_48_lbl_26582d
	.byte FINE

track_48_3:
	.byte KEYSH, 0
	.byte VOICE, 15
	.byte PAN, c_v+6
	.byte PRIO, 30
	.byte W24
	.byte W96
	.byte VOL, 34
	.byte N48, An3, v060
	.byte W07
	.byte VOL, 35
	.byte W04
	.byte 36 @ VOL
	.byte W04
	.byte 37 @ VOL
	.byte W03
	.byte 38 @ VOL
	.byte W04
	.byte 38 @ VOL
	.byte W04
	.byte 39 @ VOL
	.byte W04
	.byte 40 @ VOL
	.byte W03
	.byte 41 @ VOL
	.byte W04
	.byte 42 @ VOL
	.byte W04
	.byte 43 @ VOL
	.byte W04
	.byte 44 @ VOL
	.byte W03
	.byte 45 @ VOL
	.byte N48, As3 @ v060
	.byte W04
	.byte VOL, 45
	.byte W04
	.byte 46 @ VOL
	.byte W04
	.byte 47 @ VOL
	.byte W03
	.byte 48 @ VOL
	.byte W04
	.byte 49 @ VOL
	.byte W04
	.byte 50 @ VOL
	.byte W04
	.byte 51 @ VOL
	.byte W03
	.byte 51 @ VOL
	.byte W04
	.byte 52 @ VOL
	.byte W04
	.byte 53 @ VOL
	.byte W03
	.byte 54 @ VOL
	.byte W04
	.byte 55 @ VOL
	.byte W03
	.byte 57 @ VOL
	.byte N48, Cs4 @ v060
	.byte W02
	.byte VOL, 56
	.byte W40
	.byte 55 @ VOL
	.byte W01
	.byte 54 @ VOL
	.byte W02
	.byte 53 @ VOL
	.byte W01
	.byte 52 @ VOL
	.byte W02
	.byte 51 @ VOL
	.byte N48, Cn4, v056
	.byte W01
	.byte VOL, 51
	.byte W02
	.byte 50 @ VOL
	.byte W01
	.byte 49 @ VOL
	.byte W02
	.byte 48 @ VOL
	.byte W01
	.byte 47 @ VOL
	.byte W02
	.byte 46 @ VOL
	.byte W01
	.byte 45 @ VOL
	.byte W01
	.byte 45 @ VOL
	.byte W01
	.byte 45 @ VOL
	.byte W01
	.byte 44 @ VOL
	.byte W01
	.byte 43 @ VOL
	.byte W02
	.byte 42 @ VOL
	.byte W01
	.byte 41 @ VOL
	.byte W02
	.byte 40 @ VOL
	.byte W01
	.byte 39 @ VOL
	.byte W02
	.byte 38 @ VOL
	.byte W01
	.byte 38 @ VOL
	.byte W02
	.byte 37 @ VOL
	.byte W01
	.byte 36 @ VOL
	.byte W01
	.byte 36 @ VOL
	.byte W01
	.byte 35 @ VOL
	.byte W01
	.byte 34 @ VOL
	.byte W02
	.byte 33 @ VOL
	.byte W01
	.byte 32 @ VOL
	.byte W02
	.byte 32 @ VOL
	.byte W01
	.byte 31 @ VOL
	.byte W02
	.byte 30 @ VOL
	.byte W01
	.byte 29 @ VOL
	.byte W02
	.byte 28 @ VOL
	.byte W01
	.byte 27 @ VOL
	.byte W02
	.byte 26 @ VOL
	.byte W01
	.byte 25 @ VOL
	.byte W02
	.byte 25 @ VOL
	.byte W01
	.byte 24 @ VOL
	.byte W01
	.byte 25 @ VOL
	.byte N48, Fs4 @ v056
	.byte W03
	.byte VOL, 25
	.byte W03
	.byte 26 @ VOL
	.byte W03
	.byte 27 @ VOL
	.byte W03
	.byte 28 @ VOL
	.byte W03
	.byte 29 @ VOL
	.byte W03
	.byte 30 @ VOL
	.byte W03
	.byte 31 @ VOL
	.byte W03
	.byte 32 @ VOL
	.byte W03
	.byte 32 @ VOL
	.byte W03
	.byte 33 @ VOL
	.byte W03
	.byte 34 @ VOL
	.byte W03
	.byte 35 @ VOL
	.byte W04
	.byte 36 @ VOL
	.byte W03
	.byte 37 @ VOL
	.byte W03
	.byte 38 @ VOL
	.byte W02
	.byte N48, Fn4, v084
	.byte W01
	.byte VOL, 38
	.byte W03
	.byte 39 @ VOL
	.byte W03
	.byte 40 @ VOL
	.byte W03
	.byte 41 @ VOL
	.byte W03
	.byte 42 @ VOL
	.byte W03
	.byte 43 @ VOL
	.byte W03
	.byte 44 @ VOL
	.byte W03
	.byte 45 @ VOL
	.byte W03
	.byte 45 @ VOL
	.byte W03
	.byte 46 @ VOL
	.byte W03
	.byte 47 @ VOL
	.byte W03
	.byte 48 @ VOL
	.byte W03
	.byte 49 @ VOL
	.byte W03
	.byte 50 @ VOL
	.byte W03
	.byte 51 @ VOL
	.byte W03
	.byte 51 @ VOL
	.byte W02
	.byte W24
	.byte VOICE, 14
	.byte VOL, 86
	.byte W12
	.byte N12, Ds1, v072
	.byte W24
	.byte N12 @ Ds1, v072
	.byte W24
	.byte N12 @ Ds1, v072
	.byte W12
	.byte W12
	.byte N12 @ Ds1, v072
	.byte W24
	.byte Ds1, v076 @ N12
	.byte W60
	.byte W96
	.byte W96
track_48_lbl_26593e:
	.byte VOICE, 14
	.byte VOL, 110
	.byte N10, En1, v112
	.byte W12
	.byte N12, En1, v092
	.byte W24
	.byte N12 @ En1, v092
	.byte W24
	.byte N12 @ En1, v092
	.byte W24
	.byte N12 @ En1, v092
	.byte W12
	.byte W12
	.byte N12 @ En1, v092
	.byte W24
	.byte N12 @ En1, v092
	.byte W24
	.byte N12 @ En1, v092
	.byte W24
	.byte N12 @ En1, v092
	.byte W12
	.byte N10, Fn1 @ v092
	.byte W12
	.byte N12 @ Fn1, v092
	.byte W24
	.byte N12 @ Fn1, v092
	.byte W24
	.byte N12 @ Fn1, v092
	.byte W24
	.byte N12 @ Fn1, v092
	.byte W12
	.byte W12
	.byte N12 @ Fn1, v092
	.byte W24
	.byte N12 @ Fn1, v092
	.byte W24
	.byte N12 @ Fn1, v092
	.byte W24
	.byte N12 @ Fn1, v092
	.byte W12
	.byte N10, Fs1 @ v092
	.byte W12
	.byte N12 @ Fs1, v092
	.byte W24
	.byte N10 @ Fs1, v092
	.byte W12
	.byte Gn1 @ N10, v092
	.byte W12
	.byte N12 @ Gn1, v092
	.byte W24
	.byte N10 @ Gn1, v092
	.byte W12
	.byte Gs1, v100 @ N10
	.byte W12
	.byte N12 @ Gs1, v100
	.byte W24
	.byte N10 @ Gs1, v100
	.byte W12
	.byte An1, v112 @ N10
	.byte W12
	.byte N10 @ An1, v112
	.byte W24
	.byte N10 @ An1, v112
	.byte W12
	.byte W96
	.byte W96
	.byte W96
	.byte W96
	.byte W96
	.byte W96
	.byte W96
	.byte W96
	.byte W96
	.byte W96
	.byte GOTO
		.word track_48_lbl_26593e
	.byte FINE

track_48_4:
	.byte KEYSH, 0
	.byte PAN, c_v
	.byte PRIO, 110
	.byte W24
	.byte W96
	.byte W96
	.byte W96
	.byte W96
	.byte VOICE, 1
	.byte VOL, 86
	.byte N04, Ds2, v080
	.byte W06
	.byte N04 @ Ds2, v080
	.byte W06
	.byte N04 @ Ds2, v080
	.byte W06
	.byte N04 @ Ds2, v080
	.byte W06
	.byte N04 @ Ds2, v080
	.byte W06
	.byte N04 @ Ds2, v080
	.byte W06
	.byte N04 @ Ds2, v080
	.byte W06
	.byte N04 @ Ds2, v080
	.byte W06
	.byte N04 @ Ds2, v080
	.byte W06
	.byte Ds2, v076 @ N04
	.byte W06
	.byte Ds2, v072 @ N04
	.byte W06
	.byte Ds2, v068 @ N04
	.byte W06
	.byte Ds2, v060 @ N04
	.byte W06
	.byte Ds2, v056 @ N04
	.byte W06
	.byte Ds2, v052 @ N04
	.byte W06
	.byte Ds2, v048 @ N04
	.byte W06
track_48_lbl_2659d0:
	.byte N04, Ds2, v040
	.byte W06
	.byte N04 @ Ds2, v040
	.byte W06
	.byte N04 @ Ds2, v040
	.byte W06
	.byte N04 @ Ds2, v040
	.byte W06
	.byte N04 @ Ds2, v040
	.byte W06
	.byte N04 @ Ds2, v040
	.byte W06
	.byte N04 @ Ds2, v040
	.byte W06
	.byte N04 @ Ds2, v040
	.byte W06
	.byte N04 @ Ds2, v040
	.byte W06
	.byte Ds2, v048 @ N04
	.byte W06
	.byte Ds2, v052 @ N04
	.byte W06
	.byte Ds2, v056 @ N04
	.byte W06
	.byte Ds2, v060 @ N04
	.byte W06
	.byte Ds2, v068 @ N04
	.byte W06
	.byte Ds2, v072 @ N04
	.byte W06
	.byte Ds2, v076 @ N04
	.byte W06
	.byte PEND
track_48_lbl_2659fa:
	.byte N04, Ds2, v080
	.byte W06
	.byte Ds2, v076 @ N04
	.byte W06
	.byte Ds2, v072 @ N04
	.byte W06
	.byte Ds2, v068 @ N04
	.byte W06
	.byte Ds2, v060 @ N04
	.byte W06
	.byte Ds2, v056 @ N04
	.byte W06
	.byte Ds2, v052 @ N04
	.byte W06
	.byte Ds2, v048 @ N04
	.byte W06
	.byte Ds2, v040 @ N04
	.byte W06
	.byte N04 @ Ds2, v040
	.byte W06
	.byte N04 @ Ds2, v040
	.byte W06
	.byte N04 @ Ds2, v040
	.byte W06
	.byte N04 @ Ds2, v040
	.byte W06
	.byte N04 @ Ds2, v040
	.byte W06
	.byte N04 @ Ds2, v040
	.byte W06
	.byte N04 @ Ds2, v040
	.byte W06
	.byte PEND
track_48_lbl_265a25:
	.byte N04, Ds2, v040
	.byte W06
	.byte N04 @ Ds2, v040
	.byte W06
	.byte N04 @ Ds2, v040
	.byte W06
	.byte N04 @ Ds2, v040
	.byte W06
	.byte N04 @ Ds2, v040
	.byte W06
	.byte N04 @ Ds2, v040
	.byte W06
	.byte N04 @ Ds2, v040
	.byte W06
	.byte N04 @ Ds2, v040
	.byte W06
	.byte N04 @ Ds2, v040
	.byte W06
	.byte N04 @ Ds2, v040
	.byte W06
	.byte N04 @ Ds2, v040
	.byte W06
	.byte N04 @ Ds2, v040
	.byte W06
	.byte N04 @ Ds2, v040
	.byte W06
	.byte Ds2, v056 @ N04
	.byte W06
	.byte Ds2, v068 @ N04
	.byte W06
	.byte Ds2, v080 @ N04
	.byte W06
	.byte PEND
track_48_lbl_265a4b:
	.byte N04, En2, v080
	.byte W06
	.byte N04 @ En2, v080
	.byte W06
	.byte N04 @ En2, v080
	.byte W06
	.byte N04 @ En2, v080
	.byte W06
	.byte N04 @ En2, v080
	.byte W06
	.byte N04 @ En2, v080
	.byte W06
	.byte N04 @ En2, v080
	.byte W06
	.byte N04 @ En2, v080
	.byte W06
	.byte N04 @ En2, v080
	.byte W06
	.byte En2, v076 @ N04
	.byte W06
	.byte En2, v072 @ N04
	.byte W06
	.byte En2, v068 @ N04
	.byte W06
	.byte En2, v060 @ N04
	.byte W06
	.byte En2, v056 @ N04
	.byte W06
	.byte En2, v052 @ N04
	.byte W06
	.byte En2, v048 @ N04
	.byte W06
	.byte En2, v040 @ N04
	.byte W06
	.byte N04 @ En2, v040
	.byte W06
	.byte N04 @ En2, v040
	.byte W06
	.byte N04 @ En2, v040
	.byte W06
	.byte N04 @ En2, v040
	.byte W06
	.byte N04 @ En2, v040
	.byte W06
	.byte N04 @ En2, v040
	.byte W06
	.byte N04 @ En2, v040
	.byte W06
	.byte N04 @ En2, v040
	.byte W06
	.byte N04 @ En2, v040
	.byte W06
	.byte N04 @ En2, v040
	.byte W06
	.byte N04 @ En2, v040
	.byte W06
	.byte N04 @ En2, v040
	.byte W06
	.byte N04 @ En2, v040
	.byte W06
	.byte N04 @ En2, v040
	.byte W06
	.byte N04 @ En2, v040
	.byte W06
	.byte Fn2 @ N04, v040
	.byte W06
	.byte N04 @ Fn2, v040
	.byte W06
	.byte N04 @ Fn2, v040
	.byte W06
	.byte N04 @ Fn2, v040
	.byte W06
	.byte N04 @ Fn2, v040
	.byte W06
	.byte N04 @ Fn2, v040
	.byte W06
	.byte N04 @ Fn2, v040
	.byte W06
	.byte N04 @ Fn2, v040
	.byte W06
	.byte N04 @ Fn2, v040
	.byte W06
	.byte Fn2, v048 @ N04
	.byte W06
	.byte Fn2, v052 @ N04
	.byte W06
	.byte Fn2, v056 @ N04
	.byte W06
	.byte Fn2, v060 @ N04
	.byte W06
	.byte Fn2, v068 @ N04
	.byte W06
	.byte Fn2, v072 @ N04
	.byte W06
	.byte Fn2, v076 @ N04
	.byte W06
	.byte Fn2, v080 @ N04
	.byte W06
	.byte Fn2, v072 @ N04
	.byte W06
	.byte Fn2, v060 @ N04
	.byte W06
	.byte Fn2, v052 @ N04
	.byte W06
	.byte Fn2, v040 @ N04
	.byte W06
	.byte N04 @ Fn2, v040
	.byte W06
	.byte N04 @ Fn2, v040
	.byte W06
	.byte N04 @ Fn2, v040
	.byte W06
	.byte N04 @ Fn2, v040
	.byte W06
	.byte Fn2, v048 @ N04
	.byte W06
	.byte Fn2, v052 @ N04
	.byte W06
	.byte Fn2, v056 @ N04
	.byte W06
	.byte Fn2, v060 @ N04
	.byte W06
	.byte Fn2, v068 @ N04
	.byte W06
	.byte Fn2, v072 @ N04
	.byte W06
	.byte Fn2, v076 @ N04
	.byte W06
	.byte Fs2, v040 @ N04
	.byte W06
	.byte N04 @ Fs2, v040
	.byte W06
	.byte N04 @ Fs2, v040
	.byte W06
	.byte N04 @ Fs2, v040
	.byte W06
	.byte N04 @ Fs2, v040
	.byte W06
	.byte N04 @ Fs2, v040
	.byte W06
	.byte N04 @ Fs2, v040
	.byte W06
	.byte N04 @ Fs2, v040
	.byte W06
	.byte Gn2 @ N04, v040
	.byte W06
	.byte Gn2, v048 @ N04
	.byte W06
	.byte Gn2, v052 @ N04
	.byte W06
	.byte Gn2, v056 @ N04
	.byte W06
	.byte Gn2, v060 @ N04
	.byte W06
	.byte Gn2, v068 @ N04
	.byte W06
	.byte Gn2, v072 @ N04
	.byte W06
	.byte Gn2, v076 @ N04
	.byte W06
	.byte Gs2, v080 @ N04
	.byte W06
	.byte Gs2, v072 @ N04
	.byte W06
	.byte Gs2, v060 @ N04
	.byte W06
	.byte Gs2, v052 @ N04
	.byte W06
	.byte Gs2, v040 @ N04
	.byte W06
	.byte N04 @ Gs2, v040
	.byte W06
	.byte N04 @ Gs2, v040
	.byte W06
	.byte N04 @ Gs2, v040
	.byte W06
	.byte An2 @ N04, v040
	.byte W06
	.byte An2, v048 @ N04
	.byte W06
	.byte An2, v052 @ N04
	.byte W06
	.byte An2, v056 @ N04
	.byte W06
	.byte An2, v060 @ N04
	.byte W06
	.byte An2, v068 @ N04
	.byte W06
	.byte An2, v072 @ N04
	.byte W06
	.byte An2, v076 @ N04
	.byte W06
	.byte As1, v080 @ N04
	.byte W06
	.byte N04 @ As1, v080
	.byte W06
	.byte N04 @ As1, v080
	.byte W06
	.byte N04 @ As1, v080
	.byte W06
	.byte N04 @ As1, v080
	.byte W06
	.byte N04 @ As1, v080
	.byte W06
	.byte N04 @ As1, v080
	.byte W06
	.byte N04 @ As1, v080
	.byte W06
	.byte Bn1 @ N04, v080
	.byte W06
	.byte N04 @ Bn1, v080
	.byte W06
	.byte N04 @ Bn1, v080
	.byte W06
	.byte N04 @ Bn1, v080
	.byte W06
	.byte N04 @ Bn1, v080
	.byte W06
	.byte N04 @ Bn1, v080
	.byte W06
	.byte N04 @ Bn1, v080
	.byte W06
	.byte N04 @ Bn1, v080
	.byte W06
	.byte Cn2 @ N04, v080
	.byte W06
	.byte N04 @ Cn2, v080
	.byte W06
	.byte Cn2, v076 @ N04
	.byte W06
	.byte Cn2, v072 @ N04
	.byte W06
	.byte N04 @ Cn2, v072
	.byte W06
	.byte Cn2, v068 @ N04
	.byte W06
	.byte Cn2, v064 @ N04
	.byte W06
	.byte N04 @ Cn2, v064
	.byte W06
	.byte Cs2, v060 @ N04
	.byte W06
	.byte Cs2, v056 @ N04
	.byte W06
	.byte N04 @ Cs2, v056
	.byte W06
	.byte Cs2, v052 @ N04
	.byte W06
	.byte Cs2, v048 @ N04
	.byte W06
	.byte N04 @ Cs2, v048
	.byte W06
	.byte Cs2, v044 @ N04
	.byte W06
	.byte Cs2, v040 @ N04
	.byte W06
	.byte Cn2, v080 @ N04
	.byte W06
	.byte N04 @ Cn2, v080
	.byte W06
	.byte N04 @ Cn2, v080
	.byte W06
	.byte N04 @ Cn2, v080
	.byte W06
	.byte N04 @ Cn2, v080
	.byte W06
	.byte N04 @ Cn2, v080
	.byte W06
	.byte N04 @ Cn2, v080
	.byte W06
	.byte N04 @ Cn2, v080
	.byte W06
	.byte N04 @ Cn2, v080
	.byte W06
	.byte Cn2, v076 @ N04
	.byte W06
	.byte Cn2, v072 @ N04
	.byte W06
	.byte Cn2, v068 @ N04
	.byte W06
	.byte Cn2, v060 @ N04
	.byte W06
	.byte Cn2, v056 @ N04
	.byte W06
	.byte Cn2, v052 @ N04
	.byte W06
	.byte Cn2, v048 @ N04
	.byte W06
	.byte Cn2, v040 @ N04
	.byte W06
	.byte N04 @ Cn2, v040
	.byte W06
	.byte N04 @ Cn2, v040
	.byte W06
	.byte N04 @ Cn2, v040
	.byte W06
	.byte N04 @ Cn2, v040
	.byte W06
	.byte N04 @ Cn2, v040
	.byte W06
	.byte N04 @ Cn2, v040
	.byte W06
	.byte N04 @ Cn2, v040
	.byte W06
	.byte N04 @ Cn2, v040
	.byte W06
	.byte Cn2, v048 @ N04
	.byte W06
	.byte Cn2, v052 @ N04
	.byte W06
	.byte Cn2, v056 @ N04
	.byte W06
	.byte Cn2, v060 @ N04
	.byte W06
	.byte Cn2, v068 @ N04
	.byte W06
	.byte Cn2, v072 @ N04
	.byte W06
	.byte Cn2, v076 @ N04
	.byte W06
	.byte Cn2, v040 @ N04
	.byte W06
	.byte N04 @ Cn2, v040
	.byte W06
	.byte N04 @ Cn2, v040
	.byte W06
	.byte N04 @ Cn2, v040
	.byte W06
	.byte N04 @ Cn2, v040
	.byte W06
	.byte N04 @ Cn2, v040
	.byte W06
	.byte N04 @ Cn2, v040
	.byte W06
	.byte N04 @ Cn2, v040
	.byte W06
	.byte N04 @ Cn2, v040
	.byte W06
	.byte N04 @ Cn2, v040
	.byte W06
	.byte N04 @ Cn2, v040
	.byte W06
	.byte N04 @ Cn2, v040
	.byte W06
	.byte N04 @ Cn2, v040
	.byte W06
	.byte N04 @ Cn2, v040
	.byte W06
	.byte N04 @ Cn2, v040
	.byte W06
	.byte N04 @ Cn2, v040
	.byte W06
	.byte N04 @ Cn2, v040
	.byte W06
	.byte Cn2, v044 @ N04
	.byte W06
	.byte Cn2, v048 @ N04
	.byte W06
	.byte N04 @ Cn2, v048
	.byte W06
	.byte Cn2, v052 @ N04
	.byte W06
	.byte N04 @ Cn2, v052
	.byte W06
	.byte Cn2, v056 @ N04
	.byte W06
	.byte Cn2, v060 @ N04
	.byte W06
	.byte N04 @ Cn2, v060
	.byte W06
	.byte Cn2, v064 @ N04
	.byte W06
	.byte Cn2, v068 @ N04
	.byte W06
	.byte N04 @ Cn2, v068
	.byte W06
	.byte Cn2, v072 @ N04
	.byte W06
	.byte N04 @ Cn2, v072
	.byte W06
	.byte Cn2, v076 @ N04
	.byte W06
	.byte Cn2, v080 @ N04
	.byte W06
	.byte Ds2 @ N04, v080
	.byte W06
	.byte N04 @ Ds2, v080
	.byte W06
	.byte N04 @ Ds2, v080
	.byte W06
	.byte N04 @ Ds2, v080
	.byte W06
	.byte N04 @ Ds2, v080
	.byte W06
	.byte N04 @ Ds2, v080
	.byte W06
	.byte N04 @ Ds2, v080
	.byte W06
	.byte N04 @ Ds2, v080
	.byte W06
	.byte N04 @ Ds2, v080
	.byte W06
	.byte Ds2, v076 @ N04
	.byte W06
	.byte Ds2, v072 @ N04
	.byte W06
	.byte Ds2, v068 @ N04
	.byte W06
	.byte Ds2, v060 @ N04
	.byte W06
	.byte Ds2, v056 @ N04
	.byte W06
	.byte Ds2, v052 @ N04
	.byte W06
	.byte Ds2, v048 @ N04
	.byte W06
	.byte PATT
		.word track_48_lbl_2659d0
	.byte PATT
		.word track_48_lbl_2659fa
	.byte PATT
		.word track_48_lbl_265a25
	.byte GOTO
		.word track_48_lbl_265a4b
	.byte FINE

.align 2

track_48:
	.byte 5
	.byte 48
	.byte 130
	.byte 128
	.word 0x80a62f8
	.word track_48_0
	.word track_48_1
	.word track_48_2
	.word track_48_3
	.word track_48_4

.align 2
