.align 2

.global track_74

track_74_0:
	.byte KEYSH, 0
	.byte TEMPO, 68
	.byte VOICE, 8
	.byte VOL, 37
	.byte PAN, c_v
	.byte PRIO, 110
	.byte TIE, Dn3, v096
	.byte W16
	.byte VOL, 39
	.byte W13
	.byte 40 @ VOL
	.byte W13
	.byte 42 @ VOL
	.byte W13
	.byte 44 @ VOL
	.byte W13
	.byte 45 @ VOL
	.byte W12
	.byte 47 @ VOL
	.byte W13
	.byte 48 @ VOL
	.byte W03
	.byte W10
	.byte 50 @ VOL
	.byte W13
	.byte 51 @ VOL
	.byte W12
	.byte 53 @ VOL
	.byte W13
	.byte 55 @ VOL
	.byte W09
	.byte 53 @ VOL
	.byte W24
	.byte W03
	.byte 51 @ VOL
	.byte W12
	.byte W16
	.byte 50 @ VOL
	.byte W24
	.byte W03
	.byte 48 @ VOL
	.byte W28
	.byte 47 @ VOL
	.byte W22
	.byte 45 @ VOL
	.byte W01
	.byte EOT @ Dn3, v096
	.byte W02
track_74_lbl_269fc5:
	.byte VOICE, 8
	.byte TIE, Dn3, v080
	.byte W24
	.byte VOL, 42
	.byte W06
	.byte 44 @ VOL
	.byte W02
	.byte 45 @ VOL
	.byte W03
	.byte 47 @ VOL
	.byte W03
	.byte 48 @ VOL
	.byte W02
	.byte 50 @ VOL
	.byte W03
	.byte 51 @ VOL
	.byte W03
	.byte 53 @ VOL
	.byte W03
	.byte 55 @ VOL
	.byte W02
	.byte 56 @ VOL
	.byte W03
	.byte 58 @ VOL
	.byte W03
	.byte 59 @ VOL
	.byte W03
	.byte 61 @ VOL
	.byte W02
	.byte 62 @ VOL
	.byte W03
	.byte 64 @ VOL
	.byte W03
	.byte 66 @ VOL
	.byte W05
	.byte 67 @ VOL
	.byte W02
	.byte 69 @ VOL
	.byte W06
	.byte 70 @ VOL
	.byte W02
	.byte 72 @ VOL
	.byte W03
	.byte 74 @ VOL
	.byte W04
	.byte 75 @ VOL
	.byte W03
	.byte 77 @ VOL
	.byte W03
track_74_lbl_269ffa:
	.byte W05
	.byte VOL, 78
	.byte W03
	.byte 80 @ VOL
	.byte W03
	.byte 81 @ VOL
	.byte W05
	.byte 83 @ VOL
	.byte W05
	.byte 85 @ VOL
	.byte W10
	.byte 86 @ VOL
	.byte W05
	.byte 88 @ VOL
	.byte W09
	.byte 89 @ VOL
	.byte W09
	.byte 91 @ VOL
	.byte W15
	.byte 92 @ VOL
	.byte W24
	.byte W02
	.byte 91 @ VOL
	.byte W01
	.byte PEND
track_74_lbl_26a014:
	.byte W15
	.byte VOL, 89
	.byte W10
	.byte 88 @ VOL
	.byte W08
	.byte 86 @ VOL
	.byte W12
	.byte 85 @ VOL
	.byte W05
	.byte 83 @ VOL
	.byte W06
	.byte 81 @ VOL
	.byte W05
	.byte 80 @ VOL
	.byte W04
	.byte 78 @ VOL
	.byte W08
	.byte 77 @ VOL
	.byte W04
	.byte 75 @ VOL
	.byte W04
	.byte 74 @ VOL
	.byte W04
	.byte 72 @ VOL
	.byte W03
	.byte 70 @ VOL
	.byte W06
	.byte 69 @ VOL
	.byte W02
	.byte PEND
track_74_lbl_26a033:
	.byte W02
	.byte VOL, 67
	.byte W03
	.byte 66 @ VOL
	.byte W03
	.byte 64 @ VOL
	.byte W03
	.byte 62 @ VOL
	.byte W06
	.byte 61 @ VOL
	.byte W03
	.byte 59 @ VOL
	.byte W03
	.byte 58 @ VOL
	.byte W02
	.byte 56 @ VOL
	.byte W03
	.byte 55 @ VOL
	.byte W05
	.byte 53 @ VOL
	.byte W03
	.byte 51 @ VOL
	.byte W03
	.byte 50 @ VOL
	.byte W02
	.byte 48 @ VOL
	.byte W03
	.byte 47 @ VOL
	.byte W04
	.byte 45 @ VOL
	.byte W02
	.byte 44 @ VOL
	.byte W02
	.byte 42 @ VOL
	.byte W03
	.byte 40 @ VOL
	.byte W02
	.byte 39 @ VOL
	.byte W05
	.byte 37 @ VOL
	.byte W02
	.byte 36 @ VOL
	.byte W02
	.byte 34 @ VOL
	.byte W03
	.byte 33 @ VOL
	.byte W01
	.byte 31 @ VOL
	.byte W05
	.byte 29 @ VOL
	.byte W02
	.byte 28 @ VOL
	.byte W02
	.byte 26 @ VOL
	.byte W01
	.byte 25 @ VOL
	.byte W03
	.byte 23 @ VOL
	.byte W04
	.byte 22 @ VOL
	.byte W02
	.byte 20 @ VOL
	.byte W02
	.byte 18 @ VOL
	.byte W02
	.byte 17 @ VOL
	.byte W01
	.byte EOT @ Dn3, v080
	.byte W01
	.byte VOL, 15
	.byte W01
	.byte PEND
track_74_lbl_26a07d:
	.byte VOL, 47
	.byte TIE, Dn3, v096
	.byte W06
	.byte VOL, 48
	.byte W05
	.byte 50 @ VOL
	.byte W06
	.byte 51 @ VOL
	.byte W06
	.byte 53 @ VOL
	.byte W05
	.byte 55 @ VOL
	.byte W06
	.byte 56 @ VOL
	.byte W05
	.byte 58 @ VOL
	.byte W06
	.byte 59 @ VOL
	.byte W06
	.byte 61 @ VOL
	.byte W05
	.byte 62 @ VOL
	.byte W06
	.byte 64 @ VOL
	.byte W06
	.byte 66 @ VOL
	.byte W05
	.byte 67 @ VOL
	.byte W02
	.byte 69 @ VOL
	.byte W06
	.byte 70 @ VOL
	.byte W02
	.byte 72 @ VOL
	.byte W03
	.byte 74 @ VOL
	.byte W04
	.byte 75 @ VOL
	.byte W03
	.byte 77 @ VOL
	.byte W03
	.byte PEND
	.byte PATT
		.word track_74_lbl_269ffa
	.byte PATT
		.word track_74_lbl_26a014
	.byte PATT
		.word track_74_lbl_26a033
	.byte PATT
		.word track_74_lbl_26a07d
	.byte PATT
		.word track_74_lbl_269ffa
	.byte PATT
		.word track_74_lbl_26a014
	.byte PATT
		.word track_74_lbl_26a033
	.byte PATT
		.word track_74_lbl_26a07d
	.byte PATT
		.word track_74_lbl_269ffa
	.byte PATT
		.word track_74_lbl_26a014
	.byte PATT
		.word track_74_lbl_26a033
	.byte PATT
		.word track_74_lbl_26a07d
	.byte PATT
		.word track_74_lbl_269ffa
	.byte PATT
		.word track_74_lbl_26a014
	.byte PATT
		.word track_74_lbl_26a033
	.byte GOTO
		.word track_74_lbl_269fc5
	.byte FINE

track_74_1:
	.byte KEYSH, 0
	.byte VOICE, 6
	.byte PAN, c_v
	.byte VOL, 31
	.byte PRIO, 109
	.byte N18, Dn2, v120
	.byte W19
	.byte N76, Dn2, v108
	.byte W76
	.byte W01
	.byte N08, As2, v080
	.byte W19
	.byte N76, As2, v072
	.byte W76
	.byte W01
	.byte N08, Fn2, v092
	.byte W19
	.byte N72, Fn2, v072
	.byte W76
	.byte W01
track_74_lbl_26a121:
	.byte W96
	.byte VOICE, 6
	.byte VOL, 47
	.byte N12, Dn2, v100
	.byte W19
	.byte N76, Dn2, v080
	.byte W44
	.byte W01
	.byte VOL, 45
	.byte W01
	.byte 44 @ VOL
	.byte W02
	.byte 42 @ VOL
	.byte W03
	.byte 39 @ VOL
	.byte W02
	.byte 37 @ VOL
	.byte W01
	.byte 36 @ VOL
	.byte W02
	.byte 34 @ VOL
	.byte W03
	.byte 31 @ VOL
	.byte W02
	.byte 29 @ VOL
	.byte W01
	.byte 28 @ VOL
	.byte W15
	.byte 47 @ VOL
	.byte N12, Cn3, v052
	.byte W19
	.byte N76, Cn3, v040
	.byte W24
	.byte VOL, 45
	.byte W02
	.byte 44 @ VOL
	.byte W02
	.byte 42 @ VOL
	.byte W03
	.byte 39 @ VOL
	.byte W02
	.byte 37 @ VOL
	.byte W02
	.byte 36 @ VOL
	.byte W02
	.byte 34 @ VOL
	.byte W02
	.byte 33 @ VOL
	.byte W02
	.byte 31 @ VOL
	.byte W02
	.byte 29 @ VOL
	.byte W02
	.byte 28 @ VOL
	.byte W01
	.byte 26 @ VOL
	.byte W02
	.byte 25 @ VOL
	.byte W02
	.byte 23 @ VOL
	.byte W02
	.byte 22 @ VOL
	.byte W02
	.byte 20 @ VOL
	.byte W02
	.byte 18 @ VOL
	.byte W02
	.byte 17 @ VOL
	.byte W02
	.byte 15 @ VOL
	.byte W01
	.byte 14 @ VOL
	.byte W02
	.byte 12 @ VOL
	.byte W02
	.byte 11 @ VOL
	.byte W12
	.byte 47 @ VOL
	.byte N12, As2, v060
	.byte W19
	.byte N76, As2, v052
	.byte W36
	.byte VOL, 44
	.byte W02
	.byte 42 @ VOL
	.byte W01
	.byte 40 @ VOL
	.byte W02
	.byte 39 @ VOL
	.byte W01
	.byte 37 @ VOL
	.byte W02
	.byte 36 @ VOL
	.byte W01
	.byte 34 @ VOL
	.byte W02
	.byte 33 @ VOL
	.byte W03
	.byte 29 @ VOL
	.byte W03
	.byte 26 @ VOL
	.byte W03
	.byte 23 @ VOL
	.byte W02
	.byte 22 @ VOL
	.byte W01
	.byte 20 @ VOL
	.byte W02
	.byte 18 @ VOL
	.byte W01
	.byte 17 @ VOL
	.byte W02
	.byte 15 @ VOL
	.byte W13
	.byte W96
	.byte VOICE, 6
	.byte VOL, 47
	.byte N12, Dn2, v092
	.byte W19
	.byte N76, Dn2, v080
	.byte W76
	.byte W01
	.byte N08, As2, v072
	.byte W19
	.byte N76, As2, v060
	.byte W76
	.byte W01
	.byte N08, Fn2, v072
	.byte W19
	.byte N72, Fn2, v060
	.byte W76
	.byte W01
	.byte W96
	.byte VOL, 47
	.byte N12, Dn2, v088
	.byte W19
	.byte N64, Dn2, v076
	.byte W44
	.byte W01
	.byte VOL, 45
	.byte W01
	.byte 44 @ VOL
	.byte W02
	.byte 42 @ VOL
	.byte W03
	.byte 39 @ VOL
	.byte W02
	.byte 37 @ VOL
	.byte W01
	.byte 36 @ VOL
	.byte W02
	.byte 34 @ VOL
	.byte W03
	.byte 31 @ VOL
	.byte W02
	.byte 29 @ VOL
	.byte W01
	.byte 28 @ VOL
	.byte W15
	.byte 47 @ VOL
	.byte N12, Cn3, v052
	.byte W19
	.byte N64, Cn3, v040
	.byte W24
	.byte VOL, 45
	.byte W02
	.byte 44 @ VOL
	.byte W02
	.byte 42 @ VOL
	.byte W03
	.byte 39 @ VOL
	.byte W02
	.byte 37 @ VOL
	.byte W02
	.byte 36 @ VOL
	.byte W02
	.byte 34 @ VOL
	.byte W02
	.byte 33 @ VOL
	.byte W02
	.byte 31 @ VOL
	.byte W02
	.byte 29 @ VOL
	.byte W02
	.byte 28 @ VOL
	.byte W01
	.byte 26 @ VOL
	.byte W02
	.byte 25 @ VOL
	.byte W02
	.byte 23 @ VOL
	.byte W02
	.byte 22 @ VOL
	.byte W02
	.byte 20 @ VOL
	.byte W02
	.byte 18 @ VOL
	.byte W02
	.byte 17 @ VOL
	.byte W02
	.byte 15 @ VOL
	.byte W01
	.byte 14 @ VOL
	.byte W02
	.byte 12 @ VOL
	.byte W02
	.byte 11 @ VOL
	.byte W12
	.byte 47 @ VOL
	.byte N12, As2, v052
	.byte W19
	.byte N64, As2, v040
	.byte W36
	.byte VOL, 44
	.byte W02
	.byte 42 @ VOL
	.byte W01
	.byte 40 @ VOL
	.byte W02
	.byte 39 @ VOL
	.byte W01
	.byte 37 @ VOL
	.byte W02
	.byte 36 @ VOL
	.byte W01
	.byte 34 @ VOL
	.byte W02
	.byte 33 @ VOL
	.byte W03
	.byte 29 @ VOL
	.byte W03
	.byte 26 @ VOL
	.byte W03
	.byte 23 @ VOL
	.byte W02
	.byte 22 @ VOL
	.byte W01
	.byte 20 @ VOL
	.byte W02
	.byte 18 @ VOL
	.byte W01
	.byte 17 @ VOL
	.byte W02
	.byte 15 @ VOL
	.byte W13
	.byte VOICE, 5
	.byte VOL, 14
	.byte TIE, Ds4, v012
	.byte W06
	.byte VOL, 15
	.byte W06
	.byte 17 @ VOL
	.byte W07
	.byte 18 @ VOL
	.byte W07
	.byte 20 @ VOL
	.byte W07
	.byte 22 @ VOL
	.byte W06
	.byte 23 @ VOL
	.byte W07
	.byte 25 @ VOL
	.byte W07
	.byte 26 @ VOL
	.byte W07
	.byte 28 @ VOL
	.byte W07
	.byte 29 @ VOL
	.byte W06
	.byte 31 @ VOL
	.byte W07
	.byte 33 @ VOL
	.byte W07
	.byte 34 @ VOL
	.byte W07
	.byte 36 @ VOL
	.byte W02
	.byte W04
	.byte 37 @ VOL
	.byte W07
	.byte 39 @ VOL
	.byte W07
	.byte 40 @ VOL
	.byte W07
	.byte 42 @ VOL
	.byte W07
	.byte 44 @ VOL
	.byte W06
	.byte 45 @ VOL
	.byte W07
	.byte 47 @ VOL
	.byte W07
	.byte 48 @ VOL
	.byte W07
	.byte 50 @ VOL
	.byte W06
	.byte 51 @ VOL
	.byte W07
	.byte 53 @ VOL
	.byte W24
	.byte W02
	.byte 55 @ VOL
	.byte W23
	.byte 53 @ VOL
	.byte W06
	.byte 51 @ VOL
	.byte W06
	.byte 50 @ VOL
	.byte W05
	.byte 48 @ VOL
	.byte W06
	.byte 47 @ VOL
	.byte W06
	.byte 45 @ VOL
	.byte W06
	.byte 44 @ VOL
	.byte W06
	.byte 42 @ VOL
	.byte W05
	.byte 40 @ VOL
	.byte W01
	.byte EOT @ Ds4, v012
	.byte VOICE, 4
	.byte VOL, 1
	.byte TIE, An5, v028
	.byte W15
	.byte VOL, 3
	.byte W05
	.byte 4 @ VOL
	.byte W04
	.byte W01
	.byte 6 @ VOL
	.byte W05
	.byte 7 @ VOL
	.byte W05
	.byte 7 @ VOL
	.byte W04
	.byte 9 @ VOL
	.byte W04
	.byte 11 @ VOL
	.byte W04
	.byte 12 @ VOL
	.byte W04
	.byte 14 @ VOL
	.byte W03
	.byte 14 @ VOL
	.byte W03
	.byte 15 @ VOL
	.byte W03
	.byte 17 @ VOL
	.byte W03
	.byte 18 @ VOL
	.byte W02
	.byte 20 @ VOL
	.byte W03
	.byte 22 @ VOL
	.byte W02
	.byte 22 @ VOL
	.byte W03
	.byte 23 @ VOL
	.byte W02
	.byte 25 @ VOL
	.byte W03
	.byte 26 @ VOL
	.byte W02
	.byte 28 @ VOL
	.byte W02
	.byte 29 @ VOL
	.byte W03
	.byte 30 @ VOL
	.byte W02
	.byte 31 @ VOL
	.byte W02
	.byte 33 @ VOL
	.byte W02
	.byte 34 @ VOL
	.byte W03
	.byte 36 @ VOL
	.byte W02
	.byte 37 @ VOL
	.byte W03
	.byte 38 @ VOL
	.byte W02
	.byte 39 @ VOL
	.byte W02
	.byte 40 @ VOL
	.byte W02
	.byte 42 @ VOL
	.byte W02
	.byte 44 @ VOL
	.byte W05
	.byte 45 @ VOL
	.byte W04
	.byte 47 @ VOL
	.byte W04
	.byte W01
	.byte 48 @ VOL
	.byte W03
	.byte 50 @ VOL
	.byte W04
	.byte 51 @ VOL
	.byte W04
	.byte 53 @ VOL
	.byte W04
	.byte 55 @ VOL
	.byte W05
	.byte 53 @ VOL
	.byte W09
	.byte 51 @ VOL
	.byte W08
	.byte 50 @ VOL
	.byte W08
	.byte 48 @ VOL
	.byte W09
	.byte 47 @ VOL
	.byte W08
	.byte 45 @ VOL
	.byte W08
	.byte 44 @ VOL
	.byte W09
	.byte 42 @ VOL
	.byte W08
	.byte 40 @ VOL
	.byte W08
	.byte 39 @ VOL
	.byte W09
	.byte 37 @ VOL
	.byte W08
	.byte 36 @ VOL
	.byte W08
	.byte 34 @ VOL
	.byte W09
	.byte 33 @ VOL
	.byte W08
	.byte 31 @ VOL
	.byte W08
	.byte 29 @ VOL
	.byte W09
	.byte 28 @ VOL
	.byte W08
	.byte 26 @ VOL
	.byte W08
	.byte 25 @ VOL
	.byte W09
	.byte 23 @ VOL
	.byte W08
	.byte 22 @ VOL
	.byte W04
	.byte EOT @ An5, v028
	.byte W96
	.byte W96
	.byte GOTO
		.word track_74_lbl_26a121
	.byte FINE

track_74_2:
	.byte KEYSH, 0
	.byte PAN, c_v-10
	.byte W06
	.byte VOL, 25
	.byte PRIO, 108
	.byte TIE, Dn4, v032
	.byte W19
	.byte VOL, 23
	.byte W21
	.byte 22 @ VOL
	.byte W48
	.byte W02
	.byte W18
	.byte 20 @ VOL
	.byte W48
	.byte W01
	.byte 18 @ VOL
	.byte W28
	.byte W01
	.byte W20
	.byte 17 @ VOL
	.byte W48
	.byte W01
	.byte 16 @ VOL
	.byte W24
	.byte W01
	.byte EOT @ Dn4, v032
	.byte VOL, 15
	.byte W02
track_74_lbl_26a348:
	.byte VOICE, 5
	.byte TIE, Dn4, v032
	.byte W06
	.byte VOL, 15
	.byte W06
	.byte 17 @ VOL
	.byte W07
	.byte 18 @ VOL
	.byte W07
	.byte 20 @ VOL
	.byte W07
	.byte 22 @ VOL
	.byte W06
	.byte 23 @ VOL
	.byte W07
	.byte 25 @ VOL
	.byte W07
	.byte 26 @ VOL
	.byte W07
	.byte 28 @ VOL
	.byte W07
	.byte 29 @ VOL
	.byte W06
	.byte 31 @ VOL
	.byte W07
	.byte 33 @ VOL
	.byte W07
	.byte 34 @ VOL
	.byte W07
	.byte 36 @ VOL
	.byte W02
track_74_lbl_26a36b:
	.byte W04
	.byte VOL, 37
	.byte W07
	.byte 39 @ VOL
	.byte W07
	.byte 40 @ VOL
	.byte W07
	.byte 42 @ VOL
	.byte W07
	.byte 44 @ VOL
	.byte W06
	.byte 45 @ VOL
	.byte W07
	.byte 47 @ VOL
	.byte W07
	.byte 48 @ VOL
	.byte W07
	.byte 50 @ VOL
	.byte W06
	.byte 51 @ VOL
	.byte W07
	.byte 53 @ VOL
	.byte W24
	.byte PEND
track_74_lbl_26a384:
	.byte W02
	.byte VOL, 55
	.byte W23
	.byte 53 @ VOL
	.byte W06
	.byte 51 @ VOL
	.byte W06
	.byte 50 @ VOL
	.byte W05
	.byte 48 @ VOL
	.byte W06
	.byte 47 @ VOL
	.byte W06
	.byte 45 @ VOL
	.byte W06
	.byte 44 @ VOL
	.byte W06
	.byte 42 @ VOL
	.byte W05
	.byte 40 @ VOL
	.byte W06
	.byte 39 @ VOL
	.byte W06
	.byte 37 @ VOL
	.byte W06
	.byte 36 @ VOL
	.byte W06
	.byte 34 @ VOL
	.byte W01
	.byte PEND
track_74_lbl_26a3a3:
	.byte W04
	.byte VOL, 33
	.byte W06
	.byte 31 @ VOL
	.byte W06
	.byte 29 @ VOL
	.byte W06
	.byte 28 @ VOL
	.byte W06
	.byte 26 @ VOL
	.byte W06
	.byte 25 @ VOL
	.byte W05
	.byte 23 @ VOL
	.byte W06
	.byte 22 @ VOL
	.byte W06
	.byte 20 @ VOL
	.byte W06
	.byte 18 @ VOL
	.byte W06
	.byte 17 @ VOL
	.byte W05
	.byte 15 @ VOL
	.byte W06
	.byte 14 @ VOL
	.byte W06
	.byte 12 @ VOL
	.byte W06
	.byte 11 @ VOL
	.byte W06
	.byte 9 @ VOL
	.byte W02
	.byte EOT @ Dn4, v032
	.byte W02
	.byte PEND
track_74_lbl_26a3c8:
	.byte VOL, 14
	.byte TIE, Dn4, v020
	.byte W06
	.byte VOL, 15
	.byte W06
	.byte 17 @ VOL
	.byte W07
	.byte 18 @ VOL
	.byte W07
	.byte 20 @ VOL
	.byte W07
	.byte 22 @ VOL
	.byte W06
	.byte 23 @ VOL
	.byte W07
	.byte 25 @ VOL
	.byte W07
	.byte 26 @ VOL
	.byte W07
	.byte 28 @ VOL
	.byte W07
	.byte 29 @ VOL
	.byte W06
	.byte 31 @ VOL
	.byte W07
	.byte 33 @ VOL
	.byte W07
	.byte 34 @ VOL
	.byte W07
	.byte 36 @ VOL
	.byte W02
	.byte PEND
	.byte PATT
		.word track_74_lbl_26a36b
	.byte PATT
		.word track_74_lbl_26a384
	.byte PATT
		.word track_74_lbl_26a3a3
	.byte PATT
		.word track_74_lbl_26a3c8
	.byte PATT
		.word track_74_lbl_26a36b
	.byte PATT
		.word track_74_lbl_26a384
	.byte PATT
		.word track_74_lbl_26a3a3
	.byte PATT
		.word track_74_lbl_26a3c8
	.byte PATT
		.word track_74_lbl_26a36b
	.byte PATT
		.word track_74_lbl_26a384
	.byte PATT
		.word track_74_lbl_26a3a3
	.byte VOL, 14
	.byte TIE, Dn4, v032
	.byte W06
	.byte VOL, 15
	.byte W06
	.byte 17 @ VOL
	.byte W07
	.byte 18 @ VOL
	.byte W07
	.byte 20 @ VOL
	.byte W07
	.byte 22 @ VOL
	.byte W06
	.byte 23 @ VOL
	.byte W07
	.byte 25 @ VOL
	.byte W07
	.byte 26 @ VOL
	.byte W07
	.byte 28 @ VOL
	.byte W07
	.byte 29 @ VOL
	.byte W06
	.byte 31 @ VOL
	.byte W07
	.byte 33 @ VOL
	.byte W07
	.byte 34 @ VOL
	.byte W07
	.byte 36 @ VOL
	.byte W02
	.byte PATT
		.word track_74_lbl_26a36b
	.byte PATT
		.word track_74_lbl_26a384
	.byte PATT
		.word track_74_lbl_26a3a3
	.byte GOTO
		.word track_74_lbl_26a348
	.byte FINE

track_74_3:
	.byte KEYSH, 0
	.byte PAN, c_v+10
	.byte PRIO, 30
	.byte W96
	.byte W96
	.byte W96
track_74_lbl_26a464:
	.byte VOICE, 5
	.byte VOL, 15
	.byte TIE, Ds4, v020
	.byte W12
	.byte VOL, 17
	.byte W07
	.byte 18 @ VOL
	.byte W07
	.byte 20 @ VOL
	.byte W07
	.byte 22 @ VOL
	.byte W06
	.byte 23 @ VOL
	.byte W07
	.byte 25 @ VOL
	.byte W07
	.byte 26 @ VOL
	.byte W07
	.byte 28 @ VOL
	.byte W07
	.byte 29 @ VOL
	.byte W06
	.byte 31 @ VOL
	.byte W07
	.byte 33 @ VOL
	.byte W07
	.byte 34 @ VOL
	.byte W07
	.byte 36 @ VOL
	.byte W02
	.byte W04
	.byte 37 @ VOL
	.byte W07
	.byte 39 @ VOL
	.byte W07
	.byte 40 @ VOL
	.byte W07
	.byte 42 @ VOL
	.byte W07
	.byte 44 @ VOL
	.byte W06
	.byte 45 @ VOL
	.byte W07
	.byte 47 @ VOL
	.byte W07
	.byte 48 @ VOL
	.byte W07
	.byte 50 @ VOL
	.byte W06
	.byte 51 @ VOL
	.byte W07
	.byte 53 @ VOL
	.byte W24
	.byte W02
	.byte 55 @ VOL
	.byte W23
	.byte 53 @ VOL
	.byte W06
	.byte 51 @ VOL
	.byte W06
	.byte 50 @ VOL
	.byte W05
	.byte 48 @ VOL
	.byte W06
	.byte 47 @ VOL
	.byte W06
	.byte 45 @ VOL
	.byte W06
	.byte 44 @ VOL
	.byte W06
	.byte 42 @ VOL
	.byte W05
	.byte 40 @ VOL
	.byte W01
	.byte EOT @ Ds4, v020
	.byte W24
	.byte W96
	.byte W96
	.byte VOICE, 2
	.byte VOL, 42
	.byte TIE, An2, v096
	.byte W10
	.byte VOL, 44
	.byte W11
	.byte 45 @ VOL
	.byte W12
	.byte 47 @ VOL
	.byte W11
	.byte 48 @ VOL
	.byte W11
	.byte 50 @ VOL
	.byte W12
	.byte 51 @ VOL
	.byte W11
	.byte 53 @ VOL
	.byte W11
	.byte 55 @ VOL
	.byte W07
	.byte W05
	.byte 56 @ VOL
	.byte W11
	.byte 58 @ VOL
	.byte W12
	.byte 59 @ VOL
	.byte W11
	.byte 61 @ VOL
	.byte W11
	.byte 62 @ VOL
	.byte W12
	.byte 64 @ VOL
	.byte W11
	.byte 66 @ VOL
	.byte W11
	.byte 67 @ VOL
	.byte W12
	.byte EOT @ An2, v096
	.byte VOL, 69
	.byte TIE, Gs2, v084
	.byte W02
	.byte VOL, 67
	.byte W01
	.byte 66 @ VOL
	.byte W02
	.byte 66 @ VOL
	.byte W02
	.byte 64 @ VOL
	.byte W02
	.byte 62 @ VOL
	.byte W02
	.byte 62 @ VOL
	.byte W02
	.byte 61 @ VOL
	.byte W03
	.byte 59 @ VOL
	.byte W03
	.byte 59 @ VOL
	.byte W03
	.byte 58 @ VOL
	.byte W03
	.byte 56 @ VOL
	.byte W03
	.byte 55 @ VOL
	.byte W02
	.byte 54 @ VOL
	.byte W05
	.byte 53 @ VOL
	.byte W05
	.byte 51 @ VOL
	.byte W05
	.byte 50 @ VOL
	.byte W05
	.byte 49 @ VOL
	.byte W07
	.byte 48 @ VOL
	.byte W07
	.byte 47 @ VOL
	.byte W08
	.byte 46 @ VOL
	.byte W07
	.byte 45 @ VOL
	.byte W12
	.byte 44 @ VOL
	.byte W05
	.byte W06
	.byte 42 @ VOL
	.byte W10
	.byte 41 @ VOL
	.byte W11
	.byte 40 @ VOL
	.byte W11
	.byte 39 @ VOL
	.byte W11
	.byte 37 @ VOL
	.byte W11
	.byte 37 @ VOL
	.byte W10
	.byte 36 @ VOL
	.byte W24
	.byte W02
	.byte EOT @ Gs2, v084
	.byte VOL, 3
	.byte TIE, Fn3, v072
	.byte W17
	.byte VOL, 4
	.byte W06
	.byte 6 @ VOL
	.byte W06
	.byte 7 @ VOL
	.byte W06
	.byte 9 @ VOL
	.byte W05
	.byte 11 @ VOL
	.byte W06
	.byte 12 @ VOL
	.byte W06
	.byte 14 @ VOL
	.byte W06
	.byte 15 @ VOL
	.byte W06
	.byte 17 @ VOL
	.byte W06
	.byte 18 @ VOL
	.byte W06
	.byte 20 @ VOL
	.byte W06
	.byte 22 @ VOL
	.byte W06
	.byte 23 @ VOL
	.byte W06
	.byte 25 @ VOL
	.byte W02
	.byte W04
	.byte 26 @ VOL
	.byte W05
	.byte 28 @ VOL
	.byte W06
	.byte 29 @ VOL
	.byte W06
	.byte 31 @ VOL
	.byte W06
	.byte 33 @ VOL
	.byte W06
	.byte 34 @ VOL
	.byte W06
	.byte 36 @ VOL
	.byte W06
	.byte 37 @ VOL
	.byte W06
	.byte 39 @ VOL
	.byte W06
	.byte 40 @ VOL
	.byte W06
	.byte 42 @ VOL
	.byte W06
	.byte 44 @ VOL
	.byte W03
	.byte 44 @ VOL
	.byte W09
	.byte 42 @ VOL
	.byte W09
	.byte 40 @ VOL
	.byte W06
	.byte 39 @ VOL
	.byte W11
	.byte 37 @ VOL
	.byte W08
	.byte 36 @ VOL
	.byte W09
	.byte 34 @ VOL
	.byte W08
	.byte 33 @ VOL
	.byte W09
	.byte 31 @ VOL
	.byte W03
	.byte EOT @ Fn3, v072
	.byte W48
	.byte W96
	.byte VOL, 6
	.byte TIE, Cn4, v040
	.byte W09
	.byte VOL, 7
	.byte W04
	.byte 9 @ VOL
	.byte W03
	.byte 11 @ VOL
	.byte W04
	.byte 12 @ VOL
	.byte W04
	.byte 14 @ VOL
	.byte W03
	.byte 15 @ VOL
	.byte W04
	.byte 17 @ VOL
	.byte W03
	.byte 18 @ VOL
	.byte W04
	.byte 20 @ VOL
	.byte W04
	.byte 22 @ VOL
	.byte W03
	.byte 23 @ VOL
	.byte W04
	.byte 25 @ VOL
	.byte W03
	.byte 26 @ VOL
	.byte W04
	.byte 28 @ VOL
	.byte W03
	.byte 29 @ VOL
	.byte W04
	.byte 31 @ VOL
	.byte W04
	.byte 33 @ VOL
	.byte W03
	.byte 34 @ VOL
	.byte W04
	.byte 36 @ VOL
	.byte W03
	.byte 37 @ VOL
	.byte W04
	.byte 39 @ VOL
	.byte W03
	.byte 40 @ VOL
	.byte W04
	.byte 42 @ VOL
	.byte W04
	.byte 44 @ VOL
	.byte W03
	.byte 45 @ VOL
	.byte W01
	.byte W03
	.byte 47 @ VOL
	.byte W03
	.byte 48 @ VOL
	.byte W04
	.byte 50 @ VOL
	.byte W04
	.byte 51 @ VOL
	.byte W03
	.byte 53 @ VOL
	.byte W06
	.byte 51 @ VOL
	.byte W07
	.byte 50 @ VOL
	.byte W06
	.byte 48 @ VOL
	.byte W07
	.byte 47 @ VOL
	.byte W06
	.byte 45 @ VOL
	.byte W06
	.byte 44 @ VOL
	.byte W07
	.byte 42 @ VOL
	.byte W06
	.byte 40 @ VOL
	.byte W07
	.byte 39 @ VOL
	.byte W06
	.byte 37 @ VOL
	.byte W06
	.byte 36 @ VOL
	.byte W07
	.byte 34 @ VOL
	.byte W02
	.byte W04
	.byte 33 @ VOL
	.byte W07
	.byte 31 @ VOL
	.byte W06
	.byte 29 @ VOL
	.byte W07
	.byte 28 @ VOL
	.byte W06
	.byte 26 @ VOL
	.byte W06
	.byte 25 @ VOL
	.byte W07
	.byte 23 @ VOL
	.byte W06
	.byte 22 @ VOL
	.byte W07
	.byte 20 @ VOL
	.byte W06
	.byte 18 @ VOL
	.byte W06
	.byte 17 @ VOL
	.byte W04
	.byte EOT @ Cn4, v040
	.byte W24
	.byte W96
	.byte VOICE, 6
	.byte VOL, 47
	.byte N12, Dn2, v092
	.byte W19
	.byte N76, Dn2, v080
	.byte W76
	.byte W01
	.byte N08, As2, v072
	.byte W19
	.byte N76, As2, v060
	.byte W76
	.byte W01
	.byte N08, Fn2, v072
	.byte W19
	.byte N72, Fn2, v060
	.byte W76
	.byte W01
	.byte GOTO
		.word track_74_lbl_26a464
	.byte FINE

track_74_4:
	.byte KEYSH, 0
	.byte PAN, c_v+6
	.byte W96
	.byte W96
	.byte W96
track_74_lbl_26a619:
	.byte W96
	.byte W96
	.byte W96
	.byte W96
	.byte VOICE, 5
	.byte VOL, 14
	.byte TIE, Ds4, v012
	.byte W06
	.byte VOL, 15
	.byte W06
	.byte 17 @ VOL
	.byte W07
	.byte 18 @ VOL
	.byte W07
	.byte 20 @ VOL
	.byte W07
	.byte 22 @ VOL
	.byte W06
	.byte 23 @ VOL
	.byte W07
	.byte 25 @ VOL
	.byte W07
	.byte 26 @ VOL
	.byte W07
	.byte 28 @ VOL
	.byte W07
	.byte 29 @ VOL
	.byte W06
	.byte 31 @ VOL
	.byte W07
	.byte 33 @ VOL
	.byte W07
	.byte 34 @ VOL
	.byte W07
	.byte 36 @ VOL
	.byte W02
	.byte W04
	.byte 37 @ VOL
	.byte W07
	.byte 39 @ VOL
	.byte W07
	.byte 40 @ VOL
	.byte W07
	.byte 42 @ VOL
	.byte W07
	.byte 44 @ VOL
	.byte W06
	.byte 45 @ VOL
	.byte W07
	.byte 47 @ VOL
	.byte W07
	.byte 48 @ VOL
	.byte W07
	.byte 50 @ VOL
	.byte W06
	.byte 51 @ VOL
	.byte W07
	.byte 53 @ VOL
	.byte W24
	.byte W02
	.byte 55 @ VOL
	.byte W23
	.byte 53 @ VOL
	.byte W06
	.byte 51 @ VOL
	.byte W06
	.byte 50 @ VOL
	.byte W05
	.byte 48 @ VOL
	.byte W06
	.byte 47 @ VOL
	.byte W06
	.byte 45 @ VOL
	.byte W06
	.byte 44 @ VOL
	.byte W06
	.byte 42 @ VOL
	.byte W05
	.byte 40 @ VOL
	.byte W01
	.byte EOT @ Ds4, v012
	.byte W24
	.byte W96
	.byte W96
	.byte W96
	.byte W96
	.byte VOICE, 2
	.byte VOL, 39
	.byte TIE, Ds3, v052
	.byte W11
	.byte VOL, 37
	.byte W08
	.byte 36 @ VOL
	.byte W09
	.byte 34 @ VOL
	.byte W08
	.byte 33 @ VOL
	.byte W09
	.byte 31 @ VOL
	.byte W09
	.byte 29 @ VOL
	.byte W08
	.byte 28 @ VOL
	.byte W09
	.byte 26 @ VOL
	.byte W08
	.byte 25 @ VOL
	.byte W09
	.byte 23 @ VOL
	.byte W08
	.byte W02
	.byte 22 @ VOL
	.byte W07
	.byte 20 @ VOL
	.byte W09
	.byte 18 @ VOL
	.byte W08
	.byte 17 @ VOL
	.byte W09
	.byte 15 @ VOL
	.byte W08
	.byte 14 @ VOL
	.byte W09
	.byte 12 @ VOL
	.byte W09
	.byte 11 @ VOL
	.byte W08
	.byte 9 @ VOL
	.byte W09
	.byte 7 @ VOL
	.byte W06
	.byte 6 @ VOL
	.byte W12
	.byte EOT @ Ds3, v052
	.byte W96
	.byte W96
	.byte W96
	.byte W96
	.byte W96
	.byte W96
	.byte W96
	.byte GOTO
		.word track_74_lbl_26a619
	.byte FINE

.align 2

track_74:
	.byte 5
	.byte 74
	.byte 130
	.byte 128
	.word 0x80a6628
	.word track_74_0
	.word track_74_1
	.word track_74_2
	.word track_74_3
	.word track_74_4

.align 2
