.align 2

.global track_30

track_30_0:
	.byte KEYSH, 0
track_30_lbl_26153a:
	.byte TEMPO, 30
	.byte VOICE, 1
	.byte VOL, 9
	.byte PAN, c_v+6
	.byte PRIO, 110
	.byte MOD, 20
	.byte LFOS, 110
	.byte MODT, 1
	.byte N96, En3, v092
	.byte W01
	.byte VOL, 10
	.byte W02
	.byte 11 @ VOL
	.byte W02
	.byte 12 @ VOL
	.byte W02
	.byte 12 @ VOL
	.byte W01
	.byte 13 @ VOL
	.byte W02
	.byte 13 @ VOL
	.byte W01
	.byte 14 @ VOL
	.byte W02
	.byte 15 @ VOL
	.byte W02
	.byte 16 @ VOL
	.byte W01
	.byte 17 @ VOL
	.byte W01
	.byte 17 @ VOL
	.byte W01
	.byte 19 @ VOL
	.byte W01
	.byte 19 @ VOL
	.byte W01
	.byte 20 @ VOL
	.byte W01
	.byte 20 @ VOL
	.byte W01
	.byte 22 @ VOL
	.byte W01
	.byte 23 @ VOL
	.byte W01
	.byte 24 @ VOL
	.byte W01
	.byte 25 @ VOL
	.byte W01
	.byte 27 @ VOL
	.byte W01
	.byte 28 @ VOL
	.byte W01
	.byte 30 @ VOL
	.byte W01
	.byte 33 @ VOL
	.byte W01
	.byte 34 @ VOL
	.byte W01
	.byte 36 @ VOL
	.byte W01
	.byte 38 @ VOL
	.byte W01
	.byte 39 @ VOL
	.byte W01
	.byte 40 @ VOL
	.byte W01
	.byte 42 @ VOL
	.byte W01
	.byte 43 @ VOL
	.byte W01
	.byte 45 @ VOL
	.byte W01
	.byte 45 @ VOL
	.byte W01
	.byte 46 @ VOL
	.byte W01
	.byte 47 @ VOL
	.byte W01
	.byte 48 @ VOL
	.byte W01
	.byte 49 @ VOL
	.byte W01
	.byte 49 @ VOL
	.byte W01
	.byte 50 @ VOL
	.byte W02
	.byte 50 @ VOL
	.byte W02
	.byte 51 @ VOL
	.byte W05
	.byte 50 @ VOL
	.byte W04
	.byte 50 @ VOL
	.byte W02
	.byte 49 @ VOL
	.byte W02
	.byte 49 @ VOL
	.byte W02
	.byte 48 @ VOL
	.byte W01
	.byte 47 @ VOL
	.byte W01
	.byte 46 @ VOL
	.byte W02
	.byte 46 @ VOL
	.byte W01
	.byte 45 @ VOL
	.byte W01
	.byte 45 @ VOL
	.byte W01
	.byte 44 @ VOL
	.byte W01
	.byte 43 @ VOL
	.byte W01
	.byte 42 @ VOL
	.byte W01
	.byte 42 @ VOL
	.byte W01
	.byte 40 @ VOL
	.byte W02
	.byte 39 @ VOL
	.byte W01
	.byte 39 @ VOL
	.byte W01
	.byte 38 @ VOL
	.byte W01
	.byte 37 @ VOL
	.byte W01
	.byte 35 @ VOL
	.byte W01
	.byte 35 @ VOL
	.byte W01
	.byte 34 @ VOL
	.byte W01
	.byte 34 @ VOL
	.byte W01
	.byte 32 @ VOL
	.byte W01
	.byte 31 @ VOL
	.byte W02
	.byte 32 @ VOL
	.byte W01
	.byte 33 @ VOL
	.byte W01
	.byte 34 @ VOL
	.byte W01
	.byte 34 @ VOL
	.byte W02
	.byte 35 @ VOL
	.byte W02
	.byte 37 @ VOL
	.byte W02
	.byte N96 @ En3, v092
	.byte W02
	.byte VOL, 38
	.byte W01
	.byte 40 @ VOL
	.byte W01
	.byte 40 @ VOL
	.byte W01
	.byte 42 @ VOL
	.byte W01
	.byte 42 @ VOL
	.byte W01
	.byte 43 @ VOL
	.byte W01
	.byte 45 @ VOL
	.byte W01
	.byte 45 @ VOL
	.byte W01
	.byte 46 @ VOL
	.byte W01
	.byte 47 @ VOL
	.byte W01
	.byte 49 @ VOL
	.byte W01
	.byte 49 @ VOL
	.byte W01
	.byte 50 @ VOL
	.byte W01
	.byte 51 @ VOL
	.byte W01
	.byte 52 @ VOL
	.byte W01
	.byte 54 @ VOL
	.byte W01
	.byte 55 @ VOL
	.byte W01
	.byte 56 @ VOL
	.byte W01
	.byte 57 @ VOL
	.byte W01
	.byte 59 @ VOL
	.byte W03
	.byte 57 @ VOL
	.byte W02
	.byte 56 @ VOL
	.byte W01
	.byte 55 @ VOL
	.byte W02
	.byte 54 @ VOL
	.byte W01
	.byte 52 @ VOL
	.byte W01
	.byte 51 @ VOL
	.byte W01
	.byte 51 @ VOL
	.byte W01
	.byte 50 @ VOL
	.byte W01
	.byte 49 @ VOL
	.byte W01
	.byte 49 @ VOL
	.byte W01
	.byte 47 @ VOL
	.byte W01
	.byte 46 @ VOL
	.byte W01
	.byte 46 @ VOL
	.byte W01
	.byte 45 @ VOL
	.byte W01
	.byte 44 @ VOL
	.byte W01
	.byte 43 @ VOL
	.byte W01
	.byte 42 @ VOL
	.byte W01
	.byte 41 @ VOL
	.byte W02
	.byte 40 @ VOL
	.byte W01
	.byte 39 @ VOL
	.byte W01
	.byte 39 @ VOL
	.byte W01
	.byte 38 @ VOL
	.byte W01
	.byte 38 @ VOL
	.byte W01
	.byte 37 @ VOL
	.byte W01
	.byte 36 @ VOL
	.byte W01
	.byte 35 @ VOL
	.byte W02
	.byte 35 @ VOL
	.byte W02
	.byte 34 @ VOL
	.byte W01
	.byte 34 @ VOL
	.byte W02
	.byte 33 @ VOL
	.byte W36
	.byte W01
	.byte N48 @ En3, v092
	.byte W01
	.byte VOL, 32
	.byte W01
	.byte 31 @ VOL
	.byte W02
	.byte 31 @ VOL
	.byte W01
	.byte 30 @ VOL
	.byte W01
	.byte 30 @ VOL
	.byte W02
	.byte 29 @ VOL
	.byte W01
	.byte 29 @ VOL
	.byte W01
	.byte 28 @ VOL
	.byte W01
	.byte 28 @ VOL
	.byte W02
	.byte 27 @ VOL
	.byte W01
	.byte 27 @ VOL
	.byte W01
	.byte 26 @ VOL
	.byte W02
	.byte 25 @ VOL
	.byte W01
	.byte 25 @ VOL
	.byte W01
	.byte 24 @ VOL
	.byte W01
	.byte 24 @ VOL
	.byte W02
	.byte 23 @ VOL
	.byte W01
	.byte 23 @ VOL
	.byte W01
	.byte 22 @ VOL
	.byte W02
	.byte 22 @ VOL
	.byte W01
	.byte 21 @ VOL
	.byte W01
	.byte 20 @ VOL
	.byte W01
	.byte 20 @ VOL
	.byte W02
	.byte 19 @ VOL
	.byte W01
	.byte 19 @ VOL
	.byte W01
	.byte 18 @ VOL
	.byte W02
	.byte 18 @ VOL
	.byte W01
	.byte 17 @ VOL
	.byte W01
	.byte 17 @ VOL
	.byte W01
	.byte 16 @ VOL
	.byte W02
	.byte 15 @ VOL
	.byte W01
	.byte 15 @ VOL
	.byte W01
	.byte 14 @ VOL
	.byte W02
	.byte 14 @ VOL
	.byte W01
	.byte 13 @ VOL
	.byte W01
	.byte 13 @ VOL
	.byte W02
	.byte VOICE, 4
	.byte MOD, 0
	.byte BENDR, 20
	.byte LFOS, 0
	.byte MODT, 0
	.byte VOL, 34
	.byte N36, Cn3, v032
	.byte W01
	.byte VOL, 37
	.byte W01
	.byte 38 @ VOL
	.byte W01
	.byte 40 @ VOL
	.byte W01
	.byte 42 @ VOL
	.byte W01
	.byte 43 @ VOL
	.byte W01
	.byte 45 @ VOL
	.byte W01
	.byte 46 @ VOL
	.byte W02
	.byte 47 @ VOL
	.byte W01
	.byte 48 @ VOL
	.byte W01
	.byte 49 @ VOL
	.byte W01
	.byte 49 @ VOL
	.byte W01
	.byte 50 @ VOL
	.byte W01
	.byte 50 @ VOL
	.byte W04
	.byte 51 @ VOL
	.byte W03
	.byte 50 @ VOL
	.byte W04
	.byte 50 @ VOL
	.byte W03
	.byte 49 @ VOL
	.byte W03
	.byte 49 @ VOL
	.byte W02
	.byte 48 @ VOL
	.byte W03
	.byte 47 @ VOL
	.byte W01
	.byte 46 @ VOL
	.byte W02
	.byte 46 @ VOL
	.byte N80 @ Cn3, v032
	.byte W02
	.byte VOL, 45
	.byte W02
	.byte 45 @ VOL
	.byte W01
	.byte 44 @ VOL
	.byte W02
	.byte 43 @ VOL
	.byte W01
	.byte 42 @ VOL
	.byte W01
	.byte 42 @ VOL
	.byte W01
	.byte 41 @ VOL
	.byte W01
	.byte 40 @ VOL
	.byte W02
	.byte 39 @ VOL
	.byte W01
	.byte 39 @ VOL
	.byte W01
	.byte 38 @ VOL
	.byte W01
	.byte 38 @ VOL
	.byte W01
	.byte 36 @ VOL
	.byte W02
	.byte 34 @ VOL
	.byte W01
	.byte 33 @ VOL
	.byte W02
	.byte 31 @ VOL
	.byte W01
	.byte 30 @ VOL
	.byte W01
	.byte 30 @ VOL
	.byte W01
	.byte 29 @ VOL
	.byte W01
	.byte 29 @ VOL
	.byte W02
	.byte 28 @ VOL
	.byte W01
	.byte 28 @ VOL
	.byte W01
	.byte 27 @ VOL
	.byte W01
	.byte 27 @ VOL
	.byte W01
	.byte 26 @ VOL
	.byte W01
	.byte 25 @ VOL
	.byte W01
	.byte 25 @ VOL
	.byte W01
	.byte 24 @ VOL
	.byte W02
	.byte 24 @ VOL
	.byte W01
	.byte 23 @ VOL
	.byte W01
	.byte 23 @ VOL
	.byte W01
	.byte 22 @ VOL
	.byte W01
	.byte 22 @ VOL
	.byte W01
	.byte 21 @ VOL
	.byte W01
	.byte 20 @ VOL
	.byte W01
	.byte 20 @ VOL
	.byte W02
	.byte 19 @ VOL
	.byte W01
	.byte 19 @ VOL
	.byte W01
	.byte 18 @ VOL
	.byte W01
	.byte 18 @ VOL
	.byte W01
	.byte 17 @ VOL
	.byte W01
	.byte 17 @ VOL
	.byte W01
	.byte 16 @ VOL
	.byte W01
	.byte 15 @ VOL
	.byte W01
	.byte 15 @ VOL
	.byte W02
	.byte 14 @ VOL
	.byte W01
	.byte 14 @ VOL
	.byte W01
	.byte 13 @ VOL
	.byte W01
	.byte 13 @ VOL
	.byte W01
	.byte 12 @ VOL
	.byte W01
	.byte 12 @ VOL
	.byte W01
	.byte 11 @ VOL
	.byte W01
	.byte 11 @ VOL
	.byte W02
	.byte 10 @ VOL
	.byte W01
	.byte 9 @ VOL
	.byte W01
	.byte 9 @ VOL
	.byte W01
	.byte 8 @ VOL
	.byte W01
	.byte 8 @ VOL
	.byte W01
	.byte 7 @ VOL
	.byte W01
	.byte 7 @ VOL
	.byte W01
	.byte 6 @ VOL
	.byte W02
	.byte 6 @ VOL
	.byte W07
	.byte VOICE, 1
	.byte MOD, 20
	.byte LFOS, 110
	.byte MODT, 1
	.byte N80, En3, v092
	.byte W01
	.byte VOL, 6
	.byte W01
	.byte 7 @ VOL
	.byte W01
	.byte 8 @ VOL
	.byte W01
	.byte 9 @ VOL
	.byte W01
	.byte 11 @ VOL
	.byte W01
	.byte 12 @ VOL
	.byte W01
	.byte 13 @ VOL
	.byte W01
	.byte 15 @ VOL
	.byte W01
	.byte 15 @ VOL
	.byte W01
	.byte 17 @ VOL
	.byte W01
	.byte 18 @ VOL
	.byte W01
	.byte 19 @ VOL
	.byte W01
	.byte 20 @ VOL
	.byte W01
	.byte 21 @ VOL
	.byte W01
	.byte 23 @ VOL
	.byte W02
	.byte 24 @ VOL
	.byte W01
	.byte 25 @ VOL
	.byte W02
	.byte 27 @ VOL
	.byte W01
	.byte 27 @ VOL
	.byte W01
	.byte 28 @ VOL
	.byte W01
	.byte 28 @ VOL
	.byte W01
	.byte 29 @ VOL
	.byte W01
	.byte 30 @ VOL
	.byte W02
	.byte 30 @ VOL
	.byte W01
	.byte 31 @ VOL
	.byte W01
	.byte 31 @ VOL
	.byte W02
	.byte 32 @ VOL
	.byte W02
	.byte 33 @ VOL
	.byte W02
	.byte 34 @ VOL
	.byte W02
	.byte 34 @ VOL
	.byte W02
	.byte 35 @ VOL
	.byte W01
	.byte 35 @ VOL
	.byte W03
	.byte 36 @ VOL
	.byte W03
	.byte 37 @ VOL
	.byte W03
	.byte 38 @ VOL
	.byte W04
	.byte 38 @ VOL
	.byte W03
	.byte 39 @ VOL
	.byte W24
	.byte W01
	.byte N72, Cn3, v080
	.byte W04
	.byte VOL, 38
	.byte W05
	.byte 37 @ VOL
	.byte W09
	.byte 36 @ VOL
	.byte W08
	.byte 35 @ VOL
	.byte W04
	.byte 35 @ VOL
	.byte W04
	.byte 34 @ VOL
	.byte W04
	.byte MOD, 0
	.byte VOL, 34
	.byte W01
	.byte W03
	.byte 33 @ VOL
	.byte W03
	.byte 32 @ VOL
	.byte W02
	.byte 31 @ VOL
	.byte W02
	.byte 31 @ VOL
	.byte W03
	.byte 30 @ VOL
	.byte W01
	.byte 30 @ VOL
	.byte W01
	.byte 29 @ VOL
	.byte W01
	.byte 28 @ VOL
	.byte W01
	.byte 28 @ VOL
	.byte W02
	.byte 27 @ VOL
	.byte W01
	.byte 27 @ VOL
	.byte W01
	.byte 26 @ VOL
	.byte W01
	.byte 25 @ VOL
	.byte W01
	.byte 24 @ VOL
	.byte W01
	.byte 23 @ VOL
	.byte W01
	.byte 23 @ VOL
	.byte W01
	.byte 21 @ VOL
	.byte W01
	.byte 20 @ VOL
	.byte W01
	.byte 20 @ VOL
	.byte W01
	.byte 19 @ VOL
	.byte W01
	.byte 17 @ VOL
	.byte W01
	.byte 17 @ VOL
	.byte W01
	.byte 15 @ VOL
	.byte W01
	.byte 13 @ VOL
	.byte W01
	.byte 13 @ VOL
	.byte W01
	.byte 12 @ VOL
	.byte W01
	.byte 11 @ VOL
	.byte N60, Ds3, v072
	.byte W01
	.byte VOL, 9
	.byte W02
	.byte 8 @ VOL
	.byte W01
	.byte 12 @ VOL
	.byte W01
	.byte 14 @ VOL
	.byte W01
	.byte 17 @ VOL
	.byte W01
	.byte 20 @ VOL
	.byte W01
	.byte 21 @ VOL
	.byte W01
	.byte 23 @ VOL
	.byte W01
	.byte 25 @ VOL
	.byte W01
	.byte 26 @ VOL
	.byte W01
	.byte 27 @ VOL
	.byte W01
	.byte 28 @ VOL
	.byte W01
	.byte 30 @ VOL
	.byte W02
	.byte 31 @ VOL
	.byte W02
	.byte 31 @ VOL
	.byte W02
	.byte 32 @ VOL
	.byte W04
	.byte 31 @ VOL
	.byte W03
	.byte 31 @ VOL
	.byte W03
	.byte 30 @ VOL
	.byte W01
	.byte 30 @ VOL
	.byte W02
	.byte 29 @ VOL
	.byte W01
	.byte 28 @ VOL
	.byte W01
	.byte 28 @ VOL
	.byte W01
	.byte 27 @ VOL
	.byte W02
	.byte 27 @ VOL
	.byte W01
	.byte 26 @ VOL
	.byte W01
	.byte 25 @ VOL
	.byte W01
	.byte 24 @ VOL
	.byte W01
	.byte 23 @ VOL
	.byte W01
	.byte 23 @ VOL
	.byte W02
	.byte 21 @ VOL
	.byte W01
	.byte 20 @ VOL
	.byte W01
	.byte 20 @ VOL
	.byte W01
	.byte 19 @ VOL
	.byte W01
	.byte 18 @ VOL
	.byte W02
	.byte 17 @ VOL
	.byte W01
	.byte 15 @ VOL
	.byte W02
	.byte 14 @ VOL
	.byte W01
	.byte 13 @ VOL
	.byte W01
	.byte 13 @ VOL
	.byte W01
	.byte 12 @ VOL
	.byte W01
	.byte 11 @ VOL
	.byte W01
	.byte 10 @ VOL
	.byte W01
	.byte 12 @ VOL
	.byte TIE, Ds3, v060
	.byte W01
	.byte VOL, 13
	.byte W01
	.byte 15 @ VOL
	.byte W01
	.byte 16 @ VOL
	.byte W01
	.byte 17 @ VOL
	.byte W01
	.byte 19 @ VOL
	.byte W01
	.byte 20 @ VOL
	.byte W01
	.byte 21 @ VOL
	.byte W01
	.byte 23 @ VOL
	.byte W01
	.byte 24 @ VOL
	.byte W01
	.byte 26 @ VOL
	.byte W01
	.byte 27 @ VOL
	.byte W01
	.byte 28 @ VOL
	.byte W01
	.byte 29 @ VOL
	.byte W01
	.byte 30 @ VOL
	.byte W01
	.byte 31 @ VOL
	.byte W01
	.byte 32 @ VOL
	.byte W01
	.byte 33 @ VOL
	.byte W01
	.byte 34 @ VOL
	.byte W01
	.byte 35 @ VOL
	.byte W02
	.byte 37 @ VOL
	.byte W01
	.byte 38 @ VOL
	.byte W01
	.byte 39 @ VOL
	.byte W01
	.byte 39 @ VOL
	.byte W01
	.byte 40 @ VOL
	.byte W01
	.byte 40 @ VOL
	.byte W01
	.byte 41 @ VOL
	.byte W01
	.byte 42 @ VOL
	.byte W02
	.byte 42 @ VOL
	.byte W01
	.byte 43 @ VOL
	.byte W03
	.byte 44 @ VOL
	.byte W07
	.byte 43 @ VOL
	.byte W04
	.byte 42 @ VOL
	.byte W03
	.byte 42 @ VOL
	.byte W02
	.byte 41 @ VOL
	.byte W02
	.byte 40 @ VOL
	.byte W02
	.byte 39 @ VOL
	.byte W02
	.byte 39 @ VOL
	.byte W01
	.byte 38 @ VOL
	.byte W07
	.byte 37 @ VOL
	.byte W10
	.byte 36 @ VOL
	.byte W04
	.byte 35 @ VOL
	.byte W05
	.byte 35 @ VOL
	.byte W04
	.byte 34 @ VOL
	.byte W04
	.byte 34 @ VOL
	.byte W04
	.byte 33 @ VOL
	.byte W01
	.byte W01
	.byte 32 @ VOL
	.byte W03
	.byte 31 @ VOL
	.byte W03
	.byte 31 @ VOL
	.byte W02
	.byte 30 @ VOL
	.byte W02
	.byte 30 @ VOL
	.byte W02
	.byte 29 @ VOL
	.byte W01
	.byte 28 @ VOL
	.byte W02
	.byte 28 @ VOL
	.byte W02
	.byte 27 @ VOL
	.byte W02
	.byte 27 @ VOL
	.byte W01
	.byte 26 @ VOL
	.byte W02
	.byte 25 @ VOL
	.byte W01
	.byte 24 @ VOL
	.byte W01
	.byte 24 @ VOL
	.byte W01
	.byte 23 @ VOL
	.byte W01
	.byte 23 @ VOL
	.byte W02
	.byte 22 @ VOL
	.byte W01
	.byte 21 @ VOL
	.byte W02
	.byte 20 @ VOL
	.byte W01
	.byte 20 @ VOL
	.byte W01
	.byte 19 @ VOL
	.byte W01
	.byte 19 @ VOL
	.byte W01
	.byte 18 @ VOL
	.byte W01
	.byte 17 @ VOL
	.byte W02
	.byte 17 @ VOL
	.byte W01
	.byte 16 @ VOL
	.byte W01
	.byte 15 @ VOL
	.byte W01
	.byte 15 @ VOL
	.byte W01
	.byte 14 @ VOL
	.byte W01
	.byte 13 @ VOL
	.byte W01
	.byte 13 @ VOL
	.byte W01
	.byte 12 @ VOL
	.byte W02
	.byte 12 @ VOL
	.byte W08
	.byte EOT @ Ds3, v060
	.byte W40
	.byte VOL, 8
	.byte TIE, Cs3, v052
	.byte W01
	.byte VOL, 12
	.byte W01
	.byte 15 @ VOL
	.byte W01
	.byte 19 @ VOL
	.byte W01
	.byte 20 @ VOL
	.byte W01
	.byte 24 @ VOL
	.byte W01
	.byte 26 @ VOL
	.byte W01
	.byte 28 @ VOL
	.byte W01
	.byte 30 @ VOL
	.byte W01
	.byte 32 @ VOL
	.byte W01
	.byte 33 @ VOL
	.byte W01
	.byte 35 @ VOL
	.byte W02
	.byte 36 @ VOL
	.byte W04
	.byte 35 @ VOL
	.byte W01
	.byte 35 @ VOL
	.byte W02
	.byte 34 @ VOL
	.byte W01
	.byte 34 @ VOL
	.byte W01
	.byte 32 @ VOL
	.byte W01
	.byte 31 @ VOL
	.byte W01
	.byte 30 @ VOL
	.byte W01
	.byte 30 @ VOL
	.byte W01
	.byte 28 @ VOL
	.byte W01
	.byte 28 @ VOL
	.byte W01
	.byte 29 @ VOL
	.byte W01
	.byte 30 @ VOL
	.byte W01
	.byte 31 @ VOL
	.byte W01
	.byte 31 @ VOL
	.byte W01
	.byte 32 @ VOL
	.byte W01
	.byte 33 @ VOL
	.byte W01
	.byte 34 @ VOL
	.byte W01
	.byte 34 @ VOL
	.byte W02
	.byte 35 @ VOL
	.byte W03
	.byte 35 @ VOL
	.byte W04
	.byte 36 @ VOL
	.byte W07
	.byte 35 @ VOL
	.byte W03
	.byte 35 @ VOL
	.byte W02
	.byte 34 @ VOL
	.byte W02
	.byte 34 @ VOL
	.byte W01
	.byte 33 @ VOL
	.byte W02
	.byte 32 @ VOL
	.byte W01
	.byte 31 @ VOL
	.byte W02
	.byte 31 @ VOL
	.byte W01
	.byte 30 @ VOL
	.byte W02
	.byte 30 @ VOL
	.byte W01
	.byte 29 @ VOL
	.byte W01
	.byte 28 @ VOL
	.byte W01
	.byte 28 @ VOL
	.byte W01
	.byte 27 @ VOL
	.byte W01
	.byte 27 @ VOL
	.byte W02
	.byte 26 @ VOL
	.byte W01
	.byte 24 @ VOL
	.byte W02
	.byte 24 @ VOL
	.byte W01
	.byte 23 @ VOL
	.byte W01
	.byte 23 @ VOL
	.byte W01
	.byte 22 @ VOL
	.byte W01
	.byte 21 @ VOL
	.byte W01
	.byte 20 @ VOL
	.byte W01
	.byte 20 @ VOL
	.byte W01
	.byte 19 @ VOL
	.byte W01
	.byte 18 @ VOL
	.byte W02
	.byte 17 @ VOL
	.byte W01
	.byte 16 @ VOL
	.byte W01
	.byte 15 @ VOL
	.byte W01
	.byte 15 @ VOL
	.byte W01
	.byte 14 @ VOL
	.byte W01
	.byte 13 @ VOL
	.byte W01
	.byte 13 @ VOL
	.byte W01
	.byte 12 @ VOL
	.byte W01
	.byte 12 @ VOL
	.byte W01
	.byte W23
	.byte EOT @ Cs3, v052
	.byte VOL, 23
	.byte N72, Cn3, v092
	.byte W11
	.byte VOL, 23
	.byte W15
	.byte 23 @ VOL
	.byte W06
	.byte 22 @ VOL
	.byte W05
	.byte 21 @ VOL
	.byte W04
	.byte 20 @ VOL
	.byte W03
	.byte 20 @ VOL
	.byte W03
	.byte 19 @ VOL
	.byte W03
	.byte 19 @ VOL
	.byte W03
	.byte 18 @ VOL
	.byte W03
	.byte 17 @ VOL
	.byte W04
	.byte 17 @ VOL
	.byte W03
	.byte 16 @ VOL
	.byte W03
	.byte 15 @ VOL
	.byte W03
	.byte 15 @ VOL
	.byte W03
	.byte 14 @ VOL
	.byte W01
	.byte 14 @ VOL
	.byte N48, Cn3, v080
	.byte W01
	.byte VOL, 15
	.byte W01
	.byte 18 @ VOL
	.byte W01
	.byte 20 @ VOL
	.byte W01
	.byte 20 @ VOL
	.byte W01
	.byte 23 @ VOL
	.byte W01
	.byte 23 @ VOL
	.byte W01
	.byte 24 @ VOL
	.byte W02
	.byte 26 @ VOL
	.byte W01
	.byte 27 @ VOL
	.byte W03
	.byte 27 @ VOL
	.byte W05
	.byte 27 @ VOL
	.byte W03
	.byte 26 @ VOL
	.byte W02
	.byte 25 @ VOL
	.byte W02
	.byte 24 @ VOL
	.byte W02
	.byte 24 @ VOL
	.byte W01
	.byte 23 @ VOL
	.byte W01
	.byte 23 @ VOL
	.byte W02
	.byte 22 @ VOL
	.byte W01
	.byte 21 @ VOL
	.byte W02
	.byte 20 @ VOL
	.byte W01
	.byte 20 @ VOL
	.byte W01
	.byte 19 @ VOL
	.byte W01
	.byte 19 @ VOL
	.byte W01
	.byte 18 @ VOL
	.byte W01
	.byte 17 @ VOL
	.byte W02
	.byte 17 @ VOL
	.byte W54
	.byte W01
	.byte W96
	.byte W48
	.byte VOICE, 5
	.byte MOD, 0
	.byte VOL, 38
	.byte BENDR, 20
	.byte LFOS, 0
	.byte MODT, 0
	.byte BEND, c_v
	.byte N32, An2, v064
	.byte W04
	.byte BEND, c_v-3
	.byte W01
	.byte c_v-4 @ BEND
	.byte W03
	.byte c_v-5 @ BEND
	.byte W01
	.byte c_v-6 @ BEND
	.byte W01
	.byte c_v-7 @ BEND
	.byte W01
	.byte c_v-8 @ BEND
	.byte W01
	.byte c_v-10 @ BEND
	.byte W01
	.byte c_v-11 @ BEND
	.byte W01
	.byte c_v-13 @ BEND
	.byte W01
	.byte c_v-15 @ BEND
	.byte W01
	.byte c_v-17 @ BEND
	.byte W01
	.byte c_v-19 @ BEND
	.byte W01
	.byte c_v-21 @ BEND
	.byte W01
	.byte c_v-22 @ BEND
	.byte W01
	.byte c_v-24 @ BEND
	.byte W01
	.byte c_v-25 @ BEND
	.byte W01
	.byte c_v-26 @ BEND
	.byte W02
	.byte c_v-27 @ BEND
	.byte W01
	.byte c_v-28 @ BEND
	.byte W01
	.byte c_v-29 @ BEND
	.byte W01
	.byte c_v-30 @ BEND
	.byte W01
	.byte c_v-31 @ BEND
	.byte W01
	.byte c_v-32 @ BEND
	.byte W01
	.byte c_v-33 @ BEND
	.byte W03
	.byte c_v @ BEND
	.byte W15
	.byte W30
	.byte N32, An2, v052
	.byte W04
	.byte BEND, c_v-3
	.byte W01
	.byte c_v-4 @ BEND
	.byte W03
	.byte c_v-5 @ BEND
	.byte W01
	.byte c_v-6 @ BEND
	.byte W01
	.byte c_v-7 @ BEND
	.byte W01
	.byte c_v-8 @ BEND
	.byte W01
	.byte c_v-10 @ BEND
	.byte W01
	.byte c_v-11 @ BEND
	.byte W01
	.byte c_v-13 @ BEND
	.byte W01
	.byte c_v-15 @ BEND
	.byte W01
	.byte c_v-17 @ BEND
	.byte W01
	.byte c_v-19 @ BEND
	.byte W01
	.byte c_v-21 @ BEND
	.byte W01
	.byte c_v-22 @ BEND
	.byte W01
	.byte c_v-24 @ BEND
	.byte W01
	.byte c_v-25 @ BEND
	.byte W01
	.byte c_v-26 @ BEND
	.byte W02
	.byte c_v-27 @ BEND
	.byte W01
	.byte c_v-28 @ BEND
	.byte W01
	.byte c_v-29 @ BEND
	.byte W01
	.byte c_v-30 @ BEND
	.byte W01
	.byte c_v-31 @ BEND
	.byte W01
	.byte c_v-32 @ BEND
	.byte W01
	.byte c_v-33 @ BEND
	.byte W03
	.byte c_v @ BEND
	.byte W01
	.byte VOICE, 1
	.byte VOL, 11
	.byte LFOS, 110
	.byte MODT, 1
	.byte VOL, 11
	.byte TIE, Cn3, v060
	.byte W01
	.byte VOL, 13
	.byte W01
	.byte 13 @ VOL
	.byte W01
	.byte 15 @ VOL
	.byte W01
	.byte 16 @ VOL
	.byte W01
	.byte 18 @ VOL
	.byte W01
	.byte 19 @ VOL
	.byte W01
	.byte 20 @ VOL
	.byte W01
	.byte 21 @ VOL
	.byte W01
	.byte 23 @ VOL
	.byte W01
	.byte 24 @ VOL
	.byte W01
	.byte 25 @ VOL
	.byte W01
	.byte 26 @ VOL
	.byte W01
	.byte 27 @ VOL
	.byte W01
	.byte 28 @ VOL
	.byte W01
	.byte 29 @ VOL
	.byte W01
	.byte 30 @ VOL
	.byte W01
	.byte 30 @ VOL
	.byte W01
	.byte 31 @ VOL
	.byte W01
	.byte 31 @ VOL
	.byte W02
	.byte 33 @ VOL
	.byte W01
	.byte 31 @ VOL
	.byte W01
	.byte 30 @ VOL
	.byte W01
	.byte 29 @ VOL
	.byte W01
	.byte 28 @ VOL
	.byte W01
	.byte 28 @ VOL
	.byte W01
	.byte 27 @ VOL
	.byte W01
	.byte 27 @ VOL
	.byte W01
	.byte 26 @ VOL
	.byte W02
	.byte 25 @ VOL
	.byte W01
	.byte W02
	.byte 26 @ VOL
	.byte W02
	.byte 27 @ VOL
	.byte W01
	.byte 28 @ VOL
	.byte W01
	.byte 29 @ VOL
	.byte W01
	.byte 31 @ VOL
	.byte W01
	.byte 32 @ VOL
	.byte W01
	.byte 34 @ VOL
	.byte W01
	.byte 38 @ VOL
	.byte W02
	.byte 39 @ VOL
	.byte W01
	.byte 39 @ VOL
	.byte W01
	.byte 41 @ VOL
	.byte W01
	.byte 42 @ VOL
	.byte W01
	.byte 42 @ VOL
	.byte W01
	.byte 43 @ VOL
	.byte W02
	.byte 42 @ VOL
	.byte W01
	.byte 41 @ VOL
	.byte W01
	.byte 38 @ VOL
	.byte W01
	.byte 35 @ VOL
	.byte W01
	.byte 34 @ VOL
	.byte W01
	.byte 31 @ VOL
	.byte W01
	.byte 30 @ VOL
	.byte W01
	.byte 28 @ VOL
	.byte W01
	.byte 26 @ VOL
	.byte W01
	.byte 24 @ VOL
	.byte W01
	.byte 22 @ VOL
	.byte W01
	.byte 20 @ VOL
	.byte W01
	.byte 18 @ VOL
	.byte W01
	.byte 17 @ VOL
	.byte W01
	.byte 14 @ VOL
	.byte W01
	.byte 13 @ VOL
	.byte W01
	.byte 11 @ VOL
	.byte W01
	.byte 12 @ VOL
	.byte W01
	.byte 12 @ VOL
	.byte W01
	.byte 13 @ VOL
	.byte W02
	.byte 14 @ VOL
	.byte W01
	.byte 15 @ VOL
	.byte W30
	.byte W01
	.byte EOT @ Cn3, v060
	.byte N42, En3, v092
	.byte W01
	.byte VOL, 16
	.byte W01
	.byte 17 @ VOL
	.byte W01
	.byte 20 @ VOL
	.byte W01
	.byte 26 @ VOL
	.byte W01
	.byte 25 @ VOL
	.byte W01
	.byte 25 @ VOL
	.byte W02
	.byte 24 @ VOL
	.byte W01
	.byte 24 @ VOL
	.byte W01
	.byte 23 @ VOL
	.byte W02
	.byte 23 @ VOL
	.byte W01
	.byte 22 @ VOL
	.byte W01
	.byte 22 @ VOL
	.byte W02
	.byte 21 @ VOL
	.byte W01
	.byte 20 @ VOL
	.byte W01
	.byte 20 @ VOL
	.byte W02
	.byte 19 @ VOL
	.byte W01
	.byte 19 @ VOL
	.byte W01
	.byte 18 @ VOL
	.byte W01
	.byte 18 @ VOL
	.byte W01
	.byte W01
	.byte 17 @ VOL
	.byte W01
	.byte 17 @ VOL
	.byte W01
	.byte 16 @ VOL
	.byte W02
	.byte 15 @ VOL
	.byte W01
	.byte 15 @ VOL
	.byte W01
	.byte 14 @ VOL
	.byte W02
	.byte 14 @ VOL
	.byte W01
	.byte 13 @ VOL
	.byte W01
	.byte 12 @ VOL
	.byte W01
	.byte 11 @ VOL
	.byte W01
	.byte 10 @ VOL
	.byte W01
	.byte 9 @ VOL
	.byte W01
	.byte 10 @ VOL
	.byte W02
	.byte 12 @ VOL
	.byte W01
	.byte 13 @ VOL
	.byte N36, Cn3 @ v092
	.byte W01
	.byte VOL, 15
	.byte W01
	.byte 16 @ VOL
	.byte W01
	.byte 19 @ VOL
	.byte W01
	.byte 22 @ VOL
	.byte W02
	.byte 27 @ VOL
	.byte W02
	.byte 33 @ VOL
	.byte W21
	.byte 38 @ VOL
	.byte W01
	.byte 42 @ VOL
	.byte W01
	.byte 45 @ VOL
	.byte W01
	.byte 46 @ VOL
	.byte W01
	.byte 46 @ VOL
	.byte W01
	.byte 47 @ VOL
	.byte W01
	.byte 48 @ VOL
	.byte W01
	.byte N42, Cn3, v072
	.byte W02
	.byte VOL, 47
	.byte W01
	.byte 46 @ VOL
	.byte W01
	.byte 45 @ VOL
	.byte W01
	.byte 45 @ VOL
	.byte W01
	.byte 43 @ VOL
	.byte W01
	.byte 42 @ VOL
	.byte W01
	.byte 41 @ VOL
	.byte W01
	.byte 40 @ VOL
	.byte W01
	.byte 39 @ VOL
	.byte W01
	.byte 38 @ VOL
	.byte W01
	.byte 36 @ VOL
	.byte W01
	.byte 35 @ VOL
	.byte W01
	.byte 34 @ VOL
	.byte W01
	.byte 32 @ VOL
	.byte W01
	.byte 31 @ VOL
	.byte W01
	.byte 29 @ VOL
	.byte W01
	.byte 28 @ VOL
	.byte W01
	.byte 27 @ VOL
	.byte W01
	.byte 26 @ VOL
	.byte W01
	.byte 24 @ VOL
	.byte W01
	.byte 23 @ VOL
	.byte W01
	.byte 20 @ VOL
	.byte W01
	.byte 19 @ VOL
	.byte W01
	.byte 18 @ VOL
	.byte W01
	.byte 16 @ VOL
	.byte W01
	.byte 15 @ VOL
	.byte W01
	.byte 13 @ VOL
	.byte W01
	.byte 12 @ VOL
	.byte W01
	.byte 11 @ VOL
	.byte W12
	.byte GOTO
		.word track_30_lbl_26153a
	.byte FINE

track_30_1:
	.byte KEYSH, 0
track_30_lbl_261ba1:
	.byte PAN, c_v
	.byte PRIO, 109
	.byte W96
	.byte W96
	.byte VOICE, 1
	.byte MOD, 0
	.byte LFOS, 110
	.byte MODT, 1
	.byte W18
	.byte VOL, 11
	.byte N66, Ds3, v060
	.byte W01
	.byte VOL, 12
	.byte W01
	.byte 14 @ VOL
	.byte W01
	.byte 16 @ VOL
	.byte W01
	.byte 18 @ VOL
	.byte W01
	.byte 20 @ VOL
	.byte W01
	.byte 22 @ VOL
	.byte W01
	.byte 24 @ VOL
	.byte W01
	.byte 26 @ VOL
	.byte W01
	.byte 28 @ VOL
	.byte W01
	.byte 29 @ VOL
	.byte W01
	.byte 31 @ VOL
	.byte W01
	.byte 33 @ VOL
	.byte W01
	.byte 35 @ VOL
	.byte W01
	.byte 37 @ VOL
	.byte W08
	.byte 38 @ VOL
	.byte W05
	.byte 38 @ VOL
	.byte W03
	.byte 39 @ VOL
	.byte W02
	.byte 39 @ VOL
	.byte W02
	.byte 40 @ VOL
	.byte W02
	.byte 42 @ VOL
	.byte W01
	.byte 42 @ VOL
	.byte W01
	.byte 44 @ VOL
	.byte W02
	.byte 39 @ VOL
	.byte W01
	.byte 37 @ VOL
	.byte W01
	.byte 33 @ VOL
	.byte W01
	.byte 30 @ VOL
	.byte W01
	.byte 27 @ VOL
	.byte W01
	.byte 25 @ VOL
	.byte W01
	.byte 23 @ VOL
	.byte W01
	.byte 20 @ VOL
	.byte W01
	.byte 19 @ VOL
	.byte W01
	.byte 17 @ VOL
	.byte W01
	.byte 15 @ VOL
	.byte W01
	.byte 15 @ VOL
	.byte W01
	.byte 13 @ VOL
	.byte W01
	.byte 13 @ VOL
	.byte W01
	.byte 12 @ VOL
	.byte W01
	.byte 12 @ VOL
	.byte W01
	.byte 11 @ VOL
	.byte W04
	.byte 12 @ VOL
	.byte W01
	.byte 12 @ VOL
	.byte W02
	.byte 13 @ VOL
	.byte W01
	.byte 13 @ VOL
	.byte W01
	.byte 15 @ VOL
	.byte W01
	.byte MOD, 20
	.byte VOL, 15
	.byte TIE, En3, v092
	.byte W01
	.byte VOL, 16
	.byte W01
	.byte 17 @ VOL
	.byte W01
	.byte 19 @ VOL
	.byte W01
	.byte 20 @ VOL
	.byte W01
	.byte 22 @ VOL
	.byte W01
	.byte 23 @ VOL
	.byte W01
	.byte 24 @ VOL
	.byte W01
	.byte 27 @ VOL
	.byte W01
	.byte 28 @ VOL
	.byte W01
	.byte 31 @ VOL
	.byte W01
	.byte 31 @ VOL
	.byte W01
	.byte 32 @ VOL
	.byte W01
	.byte 33 @ VOL
	.byte W01
	.byte 34 @ VOL
	.byte W01
	.byte 34 @ VOL
	.byte W01
	.byte 35 @ VOL
	.byte W01
	.byte 35 @ VOL
	.byte W01
	.byte 36 @ VOL
	.byte W02
	.byte 37 @ VOL
	.byte W01
	.byte 38 @ VOL
	.byte W01
	.byte 38 @ VOL
	.byte W01
	.byte 39 @ VOL
	.byte W02
	.byte 39 @ VOL
	.byte W01
	.byte 40 @ VOL
	.byte W02
	.byte 40 @ VOL
	.byte W02
	.byte 41 @ VOL
	.byte W03
	.byte 42 @ VOL
	.byte W04
	.byte 41 @ VOL
	.byte W05
	.byte 40 @ VOL
	.byte W01
	.byte 40 @ VOL
	.byte W01
	.byte 39 @ VOL
	.byte W01
	.byte 39 @ VOL
	.byte W02
	.byte 34 @ VOL
	.byte W01
	.byte 31 @ VOL
	.byte W01
	.byte 30 @ VOL
	.byte W01
	.byte 28 @ VOL
	.byte W01
	.byte 27 @ VOL
	.byte W01
	.byte 26 @ VOL
	.byte W01
	.byte 24 @ VOL
	.byte W01
	.byte 23 @ VOL
	.byte W01
	.byte 22 @ VOL
	.byte W01
	.byte 21 @ VOL
	.byte W01
	.byte 20 @ VOL
	.byte W01
	.byte 20 @ VOL
	.byte W01
	.byte 19 @ VOL
	.byte W01
	.byte 19 @ VOL
	.byte W01
	.byte 18 @ VOL
	.byte W03
	.byte 17 @ VOL
	.byte W04
	.byte 17 @ VOL
	.byte W06
	.byte 17 @ VOL
	.byte W05
	.byte 18 @ VOL
	.byte W03
	.byte 19 @ VOL
	.byte W03
	.byte 19 @ VOL
	.byte W03
	.byte 20 @ VOL
	.byte W03
	.byte 20 @ VOL
	.byte W02
	.byte 21 @ VOL
	.byte W02
	.byte 22 @ VOL
	.byte W02
	.byte 23 @ VOL
	.byte W02
	.byte 23 @ VOL
	.byte W02
	.byte 24 @ VOL
	.byte W02
	.byte 24 @ VOL
	.byte W02
	.byte 25 @ VOL
	.byte W02
	.byte 26 @ VOL
	.byte W01
	.byte EOT @ En3, v092
	.byte W01
	.byte VOL, 27
	.byte W01
	.byte 27 @ VOL
	.byte W01
	.byte VOICE, 5
	.byte MOD, 0
	.byte VOL, 27
	.byte LFOS, 0
	.byte MODT, 0
	.byte N18, Cn2, v044
	.byte W60
	.byte W03
	.byte Cn2, v064 @ N18
	.byte W24
	.byte W03
	.byte VOICE, 1
	.byte LFOS, 110
	.byte MODT, 1
	.byte VOL, 12
	.byte N60, En3, v092
	.byte W01
	.byte VOL, 15
	.byte W01
	.byte 18 @ VOL
	.byte MOD, 20
	.byte W01
	.byte VOL, 22
	.byte W01
	.byte 25 @ VOL
	.byte W01
	.byte 29 @ VOL
	.byte W02
	.byte 31 @ VOL
	.byte W02
	.byte 30 @ VOL
	.byte W02
	.byte 29 @ VOL
	.byte W02
	.byte 29 @ VOL
	.byte W02
	.byte 28 @ VOL
	.byte W02
	.byte 28 @ VOL
	.byte W02
	.byte 27 @ VOL
	.byte W02
	.byte 27 @ VOL
	.byte W02
	.byte 26 @ VOL
	.byte W02
	.byte 25 @ VOL
	.byte W02
	.byte 25 @ VOL
	.byte W02
	.byte 24 @ VOL
	.byte W02
	.byte 24 @ VOL
	.byte W02
	.byte 23 @ VOL
	.byte W02
	.byte 23 @ VOL
	.byte W02
	.byte 22 @ VOL
	.byte W03
	.byte 22 @ VOL
	.byte W02
	.byte 21 @ VOL
	.byte W02
	.byte 20 @ VOL
	.byte W02
	.byte 20 @ VOL
	.byte W02
	.byte 19 @ VOL
	.byte W02
	.byte 19 @ VOL
	.byte W02
	.byte 18 @ VOL
	.byte W02
	.byte 18 @ VOL
	.byte W02
	.byte 17 @ VOL
	.byte W02
	.byte 17 @ VOL
	.byte W02
	.byte 16 @ VOL
	.byte W01
	.byte 15 @ VOL
	.byte W01
	.byte MOD, 0
	.byte VOL, 12
	.byte N36, Cs3, v052
	.byte W03
	.byte VOL, 13
	.byte W01
	.byte 15 @ VOL
	.byte W01
	.byte 17 @ VOL
	.byte W01
	.byte 19 @ VOL
	.byte W01
	.byte 20 @ VOL
	.byte W01
	.byte 22 @ VOL
	.byte W01
	.byte 23 @ VOL
	.byte W01
	.byte 25 @ VOL
	.byte W01
	.byte 26 @ VOL
	.byte W01
	.byte 27 @ VOL
	.byte W01
	.byte 28 @ VOL
	.byte W01
	.byte 29 @ VOL
	.byte W01
	.byte 30 @ VOL
	.byte W01
	.byte 30 @ VOL
	.byte W01
	.byte 31 @ VOL
	.byte W02
	.byte 31 @ VOL
	.byte W10
	.byte 31 @ VOL
	.byte W04
	.byte 30 @ VOL
	.byte W03
	.byte 28 @ VOL
	.byte W01
	.byte MOD, 20
	.byte N44, En3, v092
	.byte W01
	.byte VOL, 27
	.byte W01
	.byte 27 @ VOL
	.byte W01
	.byte 26 @ VOL
	.byte W03
	.byte 25 @ VOL
	.byte W02
	.byte 25 @ VOL
	.byte W02
	.byte 24 @ VOL
	.byte W02
	.byte 24 @ VOL
	.byte W02
	.byte 23 @ VOL
	.byte W03
	.byte 23 @ VOL
	.byte W02
	.byte 22 @ VOL
	.byte W02
	.byte 22 @ VOL
	.byte W02
	.byte 21 @ VOL
	.byte W02
	.byte 20 @ VOL
	.byte W02
	.byte 20 @ VOL
	.byte W03
	.byte 19 @ VOL
	.byte W02
	.byte 19 @ VOL
	.byte W02
	.byte 18 @ VOL
	.byte W02
	.byte 18 @ VOL
	.byte W02
	.byte 17 @ VOL
	.byte W02
	.byte 17 @ VOL
	.byte W02
	.byte 16 @ VOL
	.byte W54
	.byte W40
	.byte 6 @ VOL
	.byte N60, En3, v120
	.byte W02
	.byte VOL, 9
	.byte W01
	.byte 10 @ VOL
	.byte W01
	.byte 12 @ VOL
	.byte W01
	.byte 13 @ VOL
	.byte W01
	.byte 14 @ VOL
	.byte W01
	.byte 15 @ VOL
	.byte W01
	.byte 16 @ VOL
	.byte W01
	.byte 17 @ VOL
	.byte W01
	.byte 17 @ VOL
	.byte W01
	.byte 18 @ VOL
	.byte W01
	.byte 19 @ VOL
	.byte W04
	.byte 19 @ VOL
	.byte W05
	.byte 19 @ VOL
	.byte W05
	.byte 18 @ VOL
	.byte W03
	.byte 17 @ VOL
	.byte W02
	.byte 17 @ VOL
	.byte W02
	.byte 16 @ VOL
	.byte W02
	.byte 15 @ VOL
	.byte W02
	.byte 15 @ VOL
	.byte W02
	.byte 14 @ VOL
	.byte W02
	.byte 13 @ VOL
	.byte W02
	.byte 13 @ VOL
	.byte W02
	.byte 12 @ VOL
	.byte W02
	.byte 12 @ VOL
	.byte W09
	.byte W36
	.byte MOD, 0
	.byte VOL, 15
	.byte TIE, Ds3, v072
	.byte W03
	.byte VOL, 17
	.byte W01
	.byte 19 @ VOL
	.byte W01
	.byte 23 @ VOL
	.byte W01
	.byte 24 @ VOL
	.byte W01
	.byte 27 @ VOL
	.byte W01
	.byte 28 @ VOL
	.byte W01
	.byte 30 @ VOL
	.byte W01
	.byte 31 @ VOL
	.byte W01
	.byte 34 @ VOL
	.byte W01
	.byte 34 @ VOL
	.byte W01
	.byte 36 @ VOL
	.byte W01
	.byte 37 @ VOL
	.byte W01
	.byte 38 @ VOL
	.byte W03
	.byte 37 @ VOL
	.byte W01
	.byte 36 @ VOL
	.byte W01
	.byte 35 @ VOL
	.byte W01
	.byte 34 @ VOL
	.byte W01
	.byte 31 @ VOL
	.byte W01
	.byte 29 @ VOL
	.byte W01
	.byte 27 @ VOL
	.byte W01
	.byte 26 @ VOL
	.byte W02
	.byte 25 @ VOL
	.byte W02
	.byte 25 @ VOL
	.byte W02
	.byte 24 @ VOL
	.byte W02
	.byte 24 @ VOL
	.byte W02
	.byte 23 @ VOL
	.byte W02
	.byte 23 @ VOL
	.byte W02
	.byte 22 @ VOL
	.byte W01
	.byte 22 @ VOL
	.byte W02
	.byte 21 @ VOL
	.byte W02
	.byte 20 @ VOL
	.byte W02
	.byte 20 @ VOL
	.byte W02
	.byte 19 @ VOL
	.byte W02
	.byte 19 @ VOL
	.byte W02
	.byte 18 @ VOL
	.byte W02
	.byte 18 @ VOL
	.byte W01
	.byte 17 @ VOL
	.byte W02
	.byte 17 @ VOL
	.byte W02
	.byte 16 @ VOL
	.byte W01
	.byte W02
	.byte 15 @ VOL
	.byte W02
	.byte 15 @ VOL
	.byte W02
	.byte 14 @ VOL
	.byte W02
	.byte 14 @ VOL
	.byte W02
	.byte 13 @ VOL
	.byte W03
	.byte 13 @ VOL
	.byte W02
	.byte 12 @ VOL
	.byte W02
	.byte 12 @ VOL
	.byte W02
	.byte 11 @ VOL
	.byte W03
	.byte 11 @ VOL
	.byte W02
	.byte 10 @ VOL
	.byte W02
	.byte 9 @ VOL
	.byte W02
	.byte 9 @ VOL
	.byte W02
	.byte 8 @ VOL
	.byte W03
	.byte 8 @ VOL
	.byte W02
	.byte 7 @ VOL
	.byte W02
	.byte 7 @ VOL
	.byte W02
	.byte 6 @ VOL
	.byte W03
	.byte 6 @ VOL
	.byte W02
	.byte 5 @ VOL
	.byte W02
	.byte 4 @ VOL
	.byte W02
	.byte 4 @ VOL
	.byte W02
	.byte 3 @ VOL
	.byte W03
	.byte 3 @ VOL
	.byte W02
	.byte 2 @ VOL
	.byte W02
	.byte 2 @ VOL
	.byte W02
	.byte 1 @ VOL
	.byte W03
	.byte 1 @ VOL
	.byte W02
	.byte 0 @ VOL
	.byte W02
	.byte EOT @ Ds3, v072
	.byte W30
	.byte VOICE, 4
	.byte VOL, 15
	.byte LFOS, 0
	.byte MODT, 0
	.byte N36, Cn3, v040
	.byte W02
	.byte VOL, 16
	.byte W02
	.byte 17 @ VOL
	.byte W01
	.byte 18 @ VOL
	.byte W01
	.byte 19 @ VOL
	.byte W01
	.byte 20 @ VOL
	.byte W01
	.byte 20 @ VOL
	.byte W01
	.byte 22 @ VOL
	.byte W01
	.byte 23 @ VOL
	.byte W01
	.byte 24 @ VOL
	.byte W01
	.byte 24 @ VOL
	.byte W01
	.byte 25 @ VOL
	.byte W01
	.byte 26 @ VOL
	.byte W01
	.byte 27 @ VOL
	.byte W01
	.byte 28 @ VOL
	.byte W01
	.byte 28 @ VOL
	.byte W01
	.byte 29 @ VOL
	.byte W01
	.byte 30 @ VOL
	.byte W01
	.byte 30 @ VOL
	.byte W01
	.byte 31 @ VOL
	.byte W01
	.byte 31 @ VOL
	.byte W02
	.byte 32 @ VOL
	.byte W01
	.byte 33 @ VOL
	.byte W01
	.byte 34 @ VOL
	.byte W02
	.byte 34 @ VOL
	.byte W02
	.byte 35 @ VOL
	.byte W03
	.byte 35 @ VOL
	.byte W03
	.byte 36 @ VOL
	.byte W02
	.byte N36 @ Cn3, v040
	.byte W06
	.byte VOL, 35
	.byte W06
	.byte 35 @ VOL
	.byte W02
	.byte 34 @ VOL
	.byte W02
	.byte 34 @ VOL
	.byte W03
	.byte 33 @ VOL
	.byte W01
	.byte 32 @ VOL
	.byte W01
	.byte 31 @ VOL
	.byte W01
	.byte 30 @ VOL
	.byte W01
	.byte 28 @ VOL
	.byte W01
	.byte 27 @ VOL
	.byte W01
	.byte 27 @ VOL
	.byte W01
	.byte 26 @ VOL
	.byte W01
	.byte 25 @ VOL
	.byte W01
	.byte 24 @ VOL
	.byte W01
	.byte 23 @ VOL
	.byte W02
	.byte 23 @ VOL
	.byte W02
	.byte 22 @ VOL
	.byte W02
	.byte 21 @ VOL
	.byte W03
	.byte 20 @ VOL
	.byte W01
	.byte N36 @ Cn3, v040
	.byte W05
	.byte VOL, 21
	.byte W06
	.byte 22 @ VOL
	.byte W02
	.byte 23 @ VOL
	.byte W02
	.byte 23 @ VOL
	.byte W02
	.byte 23 @ VOL
	.byte W01
	.byte 24 @ VOL
	.byte W01
	.byte 24 @ VOL
	.byte W01
	.byte 25 @ VOL
	.byte W01
	.byte 26 @ VOL
	.byte W01
	.byte 27 @ VOL
	.byte W02
	.byte 28 @ VOL
	.byte W02
	.byte 29 @ VOL
	.byte W01
	.byte 30 @ VOL
	.byte W01
	.byte 30 @ VOL
	.byte W02
	.byte 31 @ VOL
	.byte W01
	.byte 31 @ VOL
	.byte W03
	.byte 32 @ VOL
	.byte W04
	.byte N36 @ Cn3, v040
	.byte W01
	.byte VOL, 31
	.byte W02
	.byte 31 @ VOL
	.byte W02
	.byte 30 @ VOL
	.byte W02
	.byte 29 @ VOL
	.byte W02
	.byte 28 @ VOL
	.byte W01
	.byte 27 @ VOL
	.byte W01
	.byte 26 @ VOL
	.byte W01
	.byte 25 @ VOL
	.byte W01
	.byte 24 @ VOL
	.byte W02
	.byte 23 @ VOL
	.byte W02
	.byte 23 @ VOL
	.byte W01
	.byte 22 @ VOL
	.byte W02
	.byte 21 @ VOL
	.byte W02
	.byte 20 @ VOL
	.byte W02
	.byte 20 @ VOL
	.byte W02
	.byte 19 @ VOL
	.byte W03
	.byte 19 @ VOL
	.byte W03
	.byte 17 @ VOL
	.byte W07
	.byte N36 @ Cn3, v040
	.byte W02
	.byte VOL, 18
	.byte W03
	.byte 19 @ VOL
	.byte W01
	.byte 19 @ VOL
	.byte W01
	.byte 20 @ VOL
	.byte W01
	.byte 20 @ VOL
	.byte W01
	.byte 21 @ VOL
	.byte W14
	.byte 20 @ VOL
	.byte W01
	.byte 19 @ VOL
	.byte W01
	.byte 19 @ VOL
	.byte W01
	.byte 18 @ VOL
	.byte W01
	.byte 17 @ VOL
	.byte W01
	.byte 16 @ VOL
	.byte W01
	.byte 15 @ VOL
	.byte W01
	.byte 14 @ VOL
	.byte W02
	.byte 14 @ VOL
	.byte W03
	.byte 13 @ VOL
	.byte W03
	.byte N36 @ Cn3, v040
	.byte W02
	.byte VOL, 14
	.byte W03
	.byte 14 @ VOL
	.byte W01
	.byte 15 @ VOL
	.byte W02
	.byte 15 @ VOL
	.byte W01
	.byte 16 @ VOL
	.byte W01
	.byte 17 @ VOL
	.byte W01
	.byte 18 @ VOL
	.byte W01
	.byte 18 @ VOL
	.byte W01
	.byte 19 @ VOL
	.byte W01
	.byte 19 @ VOL
	.byte W01
	.byte 20 @ VOL
	.byte W01
	.byte 21 @ VOL
	.byte W01
	.byte 22 @ VOL
	.byte W01
	.byte 22 @ VOL
	.byte W01
	.byte 23 @ VOL
	.byte W01
	.byte 24 @ VOL
	.byte W01
	.byte 25 @ VOL
	.byte W01
	.byte 25 @ VOL
	.byte W01
	.byte 26 @ VOL
	.byte W01
	.byte 27 @ VOL
	.byte W10
	.byte 28 @ VOL
	.byte W01
	.byte 28 @ VOL
	.byte W01
	.byte 29 @ VOL
	.byte W02
	.byte 30 @ VOL
	.byte N36 @ Cn3, v040
	.byte W01
	.byte VOL, 30
	.byte W02
	.byte 31 @ VOL
	.byte W01
	.byte 31 @ VOL
	.byte W02
	.byte 32 @ VOL
	.byte W02
	.byte 33 @ VOL
	.byte W02
	.byte 34 @ VOL
	.byte W03
	.byte 34 @ VOL
	.byte W03
	.byte 35 @ VOL
	.byte W04
	.byte 35 @ VOL
	.byte W09
	.byte 35 @ VOL
	.byte W08
	.byte 34 @ VOL
	.byte W02
	.byte N36 @ Cn3, v040
	.byte W01
	.byte VOL, 34
	.byte W02
	.byte 33 @ VOL
	.byte W03
	.byte 32 @ VOL
	.byte W02
	.byte 31 @ VOL
	.byte W02
	.byte 31 @ VOL
	.byte W02
	.byte 30 @ VOL
	.byte W01
	.byte 30 @ VOL
	.byte W02
	.byte 29 @ VOL
	.byte W01
	.byte 28 @ VOL
	.byte W03
	.byte W03
	.byte 27 @ VOL
	.byte W02
	.byte 27 @ VOL
	.byte W02
	.byte 26 @ VOL
	.byte W02
	.byte 25 @ VOL
	.byte W02
	.byte 25 @ VOL
	.byte W02
	.byte 24 @ VOL
	.byte W02
	.byte 24 @ VOL
	.byte W02
	.byte 23 @ VOL
	.byte W01
	.byte 23 @ VOL
	.byte W01
	.byte N36 @ Cn3, v040
	.byte W01
	.byte VOL, 22
	.byte W02
	.byte 22 @ VOL
	.byte W02
	.byte 21 @ VOL
	.byte W02
	.byte 20 @ VOL
	.byte W02
	.byte 20 @ VOL
	.byte W02
	.byte 19 @ VOL
	.byte W02
	.byte 19 @ VOL
	.byte W01
	.byte 18 @ VOL
	.byte W02
	.byte 18 @ VOL
	.byte W02
	.byte 17 @ VOL
	.byte W02
	.byte 17 @ VOL
	.byte W02
	.byte 16 @ VOL
	.byte W02
	.byte 15 @ VOL
	.byte W02
	.byte 15 @ VOL
	.byte W02
	.byte 14 @ VOL
	.byte W02
	.byte 14 @ VOL
	.byte W01
	.byte 13 @ VOL
	.byte W02
	.byte 13 @ VOL
	.byte W02
	.byte 12 @ VOL
	.byte W02
	.byte 12 @ VOL
	.byte W02
	.byte 11 @ VOL
	.byte N36 @ Cn3, v040
	.byte W02
	.byte VOL, 11
	.byte W02
	.byte 10 @ VOL
	.byte W02
	.byte 9 @ VOL
	.byte W01
	.byte 9 @ VOL
	.byte W02
	.byte 8 @ VOL
	.byte W02
	.byte 8 @ VOL
	.byte W02
	.byte 7 @ VOL
	.byte W02
	.byte 7 @ VOL
	.byte W02
	.byte 6 @ VOL
	.byte W02
	.byte 6 @ VOL
	.byte W02
	.byte 5 @ VOL
	.byte W02
	.byte 4 @ VOL
	.byte W01
	.byte 4 @ VOL
	.byte W02
	.byte 3 @ VOL
	.byte W02
	.byte 3 @ VOL
	.byte W02
	.byte 2 @ VOL
	.byte W02
	.byte 2 @ VOL
	.byte W02
	.byte 1 @ VOL
	.byte W02
	.byte 1 @ VOL
	.byte W02
	.byte 0 @ VOL
	.byte W56
	.byte W01
	.byte VOICE, 1
	.byte W03
	.byte VOL, 11
	.byte LFOS, 110
	.byte MODT, 1
	.byte N72, Ds3, v060
	.byte W02
	.byte VOL, 13
	.byte W01
	.byte 14 @ VOL
	.byte W01
	.byte 16 @ VOL
	.byte W01
	.byte 17 @ VOL
	.byte W01
	.byte 19 @ VOL
	.byte W01
	.byte 20 @ VOL
	.byte W01
	.byte 21 @ VOL
	.byte W01
	.byte 23 @ VOL
	.byte W01
	.byte 24 @ VOL
	.byte W01
	.byte 24 @ VOL
	.byte W01
	.byte 27 @ VOL
	.byte W01
	.byte 27 @ VOL
	.byte W01
	.byte 28 @ VOL
	.byte W01
	.byte 30 @ VOL
	.byte W01
	.byte 31 @ VOL
	.byte W01
	.byte 32 @ VOL
	.byte W01
	.byte 33 @ VOL
	.byte W01
	.byte 34 @ VOL
	.byte W01
	.byte 34 @ VOL
	.byte W01
	.byte 35 @ VOL
	.byte W01
	.byte 36 @ VOL
	.byte W01
	.byte 37 @ VOL
	.byte W02
	.byte 38 @ VOL
	.byte W05
	.byte 37 @ VOL
	.byte W04
	.byte 36 @ VOL
	.byte W01
	.byte 35 @ VOL
	.byte W01
	.byte 35 @ VOL
	.byte W01
	.byte 35 @ VOL
	.byte W01
	.byte 34 @ VOL
	.byte W01
	.byte 33 @ VOL
	.byte W01
	.byte 32 @ VOL
	.byte W01
	.byte 31 @ VOL
	.byte W01
	.byte 30 @ VOL
	.byte W01
	.byte 29 @ VOL
	.byte W01
	.byte 28 @ VOL
	.byte W01
	.byte 27 @ VOL
	.byte W01
	.byte 26 @ VOL
	.byte W01
	.byte 25 @ VOL
	.byte W01
	.byte 24 @ VOL
	.byte W01
	.byte 23 @ VOL
	.byte W01
	.byte 22 @ VOL
	.byte W01
	.byte 21 @ VOL
	.byte W01
	.byte 20 @ VOL
	.byte W01
	.byte 19 @ VOL
	.byte W01
	.byte 18 @ VOL
	.byte W01
	.byte 17 @ VOL
	.byte W01
	.byte 15 @ VOL
	.byte W01
	.byte 15 @ VOL
	.byte W01
	.byte 14 @ VOL
	.byte W01
	.byte 13 @ VOL
	.byte W01
	.byte 12 @ VOL
	.byte W01
	.byte 11 @ VOL
	.byte W01
	.byte 9 @ VOL
	.byte W01
	.byte 8 @ VOL
	.byte W01
	.byte 8 @ VOL
	.byte W01
	.byte 7 @ VOL
	.byte W01
	.byte 6 @ VOL
	.byte W01
	.byte 4 @ VOL
	.byte W01
	.byte 3 @ VOL
	.byte W01
	.byte 2 @ VOL
	.byte W01
	.byte 1 @ VOL
	.byte W01
	.byte 1 @ VOL
	.byte W60
	.byte W01
	.byte GOTO
		.word track_30_lbl_261ba1
	.byte FINE

track_30_2:
	.byte KEYSH, 0
track_30_lbl_262067:
	.byte PAN, c_v-10
	.byte PRIO, 108
	.byte W96
	.byte W96
	.byte W96
	.byte W96
	.byte W96
	.byte W32
	.byte W01
	.byte VOICE, 5
	.byte VOL, 55
	.byte BENDR, 20
	.byte N18, Cn2, v036
	.byte W60
	.byte W03
	.byte W48
	.byte Cn2, v024 @ N18
	.byte W48
	.byte W96
	.byte W48
	.byte VOICE, 6
	.byte VOL, 38
	.byte BENDR, 20
	.byte N04, An2, v096
	.byte W04
	.byte BEND, c_v
	.byte N04, Bn1, v052
	.byte W04
	.byte Cn2 @ N04, v052
	.byte W04
	.byte Cs2, v060 @ N04
	.byte W04
	.byte N03, Gs2 @ v060
	.byte W03
	.byte N04, Gn2, v072
	.byte W04
	.byte N03, Cs3, v080
	.byte W04
	.byte Ds2 @ N03, v080
	.byte W03
	.byte En2, v072 @ N03
	.byte W03
	.byte Fn2, v060 @ N03
	.byte W03
	.byte BEND, c_v
	.byte W01
	.byte N92, An3, v096
	.byte W11
	.byte BEND, c_v-1
	.byte W01
	.byte c_v-3 @ BEND
	.byte W01
	.byte c_v-5 @ BEND
	.byte W01
	.byte c_v-7 @ BEND
	.byte W01
	.byte c_v-8 @ BEND
	.byte W01
	.byte c_v-10 @ BEND
	.byte W01
	.byte c_v-12 @ BEND
	.byte W01
	.byte c_v-13 @ BEND
	.byte W01
	.byte c_v-15 @ BEND
	.byte W01
	.byte c_v-17 @ BEND
	.byte W01
	.byte c_v-18 @ BEND
	.byte W01
	.byte c_v-19 @ BEND
	.byte W01
	.byte c_v-20 @ BEND
	.byte W01
	.byte c_v-22 @ BEND
	.byte W01
	.byte c_v-24 @ BEND
	.byte W01
	.byte c_v-25 @ BEND
	.byte W01
	.byte c_v-26 @ BEND
	.byte W01
	.byte c_v-28 @ BEND
	.byte W01
	.byte c_v-30 @ BEND
	.byte W01
	.byte c_v-31 @ BEND
	.byte W01
	.byte c_v-33 @ BEND
	.byte W01
	.byte c_v-34 @ BEND
	.byte W01
	.byte c_v-35 @ BEND
	.byte W01
	.byte c_v-36 @ BEND
	.byte W01
	.byte c_v-37 @ BEND
	.byte W01
	.byte c_v-39 @ BEND
	.byte W01
	.byte c_v-40 @ BEND
	.byte W02
	.byte c_v-41 @ BEND
	.byte W01
	.byte c_v-43 @ BEND
	.byte W01
	.byte c_v-44 @ BEND
	.byte W01
	.byte c_v-45 @ BEND
	.byte W01
	.byte c_v-46 @ BEND
	.byte W01
	.byte c_v-47 @ BEND
	.byte W01
	.byte c_v-48 @ BEND
	.byte W02
	.byte c_v-49 @ BEND
	.byte W01
	.byte c_v-50 @ BEND
	.byte W01
	.byte c_v-52 @ BEND
	.byte W03
	.byte c_v-53 @ BEND
	.byte W01
	.byte c_v-54 @ BEND
	.byte W09
	.byte VOL, 38
	.byte W01
	.byte 36 @ VOL
	.byte W01
	.byte 36 @ VOL
	.byte W01
	.byte 35 @ VOL
	.byte W01
	.byte 34 @ VOL
	.byte W01
	.byte 33 @ VOL
	.byte W01
	.byte 32 @ VOL
	.byte W01
	.byte 31 @ VOL
	.byte W01
	.byte 30 @ VOL
	.byte W01
	.byte 29 @ VOL
	.byte W01
	.byte 28 @ VOL
	.byte W01
	.byte 27 @ VOL
	.byte W01
	.byte 26 @ VOL
	.byte W01
	.byte 25 @ VOL
	.byte W01
	.byte 24 @ VOL
	.byte W01
	.byte 23 @ VOL
	.byte W01
	.byte 22 @ VOL
	.byte W01
	.byte 21 @ VOL
	.byte W01
	.byte 20 @ VOL
	.byte W01
	.byte 19 @ VOL
	.byte W01
	.byte 18 @ VOL
	.byte W01
	.byte 17 @ VOL
	.byte W01
	.byte 17 @ VOL
	.byte W01
	.byte 15 @ VOL
	.byte W01
	.byte 14 @ VOL
	.byte W01
	.byte 13 @ VOL
	.byte W01
	.byte 13 @ VOL
	.byte W01
	.byte 12 @ VOL
	.byte W01
	.byte 11 @ VOL
	.byte W01
	.byte 9 @ VOL
	.byte W01
	.byte 9 @ VOL
	.byte W01
	.byte 8 @ VOL
	.byte W01
	.byte 7 @ VOL
	.byte W01
	.byte 6 @ VOL
	.byte W11
	.byte BEND, c_v
	.byte W01
	.byte W05
	.byte VOICE, 4
	.byte VOL, 9
	.byte LFOS, 110
	.byte MODT, 1
	.byte N36, Cn3, v032
	.byte W03
	.byte VOL, 11
	.byte W01
	.byte 11 @ VOL
	.byte W01
	.byte 13 @ VOL
	.byte W01
	.byte 13 @ VOL
	.byte W01
	.byte 14 @ VOL
	.byte W01
	.byte 15 @ VOL
	.byte W01
	.byte 16 @ VOL
	.byte W01
	.byte 17 @ VOL
	.byte W01
	.byte 18 @ VOL
	.byte W01
	.byte 19 @ VOL
	.byte W01
	.byte 19 @ VOL
	.byte W01
	.byte 20 @ VOL
	.byte W01
	.byte 22 @ VOL
	.byte W01
	.byte 22 @ VOL
	.byte W01
	.byte 23 @ VOL
	.byte W01
	.byte 24 @ VOL
	.byte W01
	.byte 24 @ VOL
	.byte W01
	.byte 25 @ VOL
	.byte W01
	.byte 25 @ VOL
	.byte W01
	.byte 26 @ VOL
	.byte W02
	.byte 27 @ VOL
	.byte W01
	.byte 27 @ VOL
	.byte W01
	.byte 28 @ VOL
	.byte W02
	.byte 29 @ VOL
	.byte W02
	.byte 29 @ VOL
	.byte W03
	.byte 30 @ VOL
	.byte W03
	.byte 30 @ VOL
	.byte W02
	.byte N36 @ Cn3, v032
	.byte W06
	.byte VOL, 30
	.byte W06
	.byte 29 @ VOL
	.byte W02
	.byte 29 @ VOL
	.byte W02
	.byte 28 @ VOL
	.byte W03
	.byte 27 @ VOL
	.byte W01
	.byte 27 @ VOL
	.byte W01
	.byte 25 @ VOL
	.byte W01
	.byte 24 @ VOL
	.byte W01
	.byte 23 @ VOL
	.byte W01
	.byte 22 @ VOL
	.byte W01
	.byte 21 @ VOL
	.byte W01
	.byte 20 @ VOL
	.byte W01
	.byte 19 @ VOL
	.byte W01
	.byte 19 @ VOL
	.byte W01
	.byte 18 @ VOL
	.byte W02
	.byte 17 @ VOL
	.byte W02
	.byte 16 @ VOL
	.byte W02
	.byte 15 @ VOL
	.byte W03
	.byte 15 @ VOL
	.byte W01
	.byte N36 @ Cn3, v032
	.byte W05
	.byte VOL, 15
	.byte W06
	.byte 16 @ VOL
	.byte W02
	.byte 17 @ VOL
	.byte W01
	.byte W01
	.byte 18 @ VOL
	.byte W02
	.byte 17 @ VOL
	.byte W01
	.byte 18 @ VOL
	.byte W01
	.byte 19 @ VOL
	.byte W01
	.byte 19 @ VOL
	.byte W01
	.byte 20 @ VOL
	.byte W01
	.byte 22 @ VOL
	.byte W02
	.byte 23 @ VOL
	.byte W02
	.byte 24 @ VOL
	.byte W01
	.byte 24 @ VOL
	.byte W01
	.byte 25 @ VOL
	.byte W02
	.byte 25 @ VOL
	.byte W01
	.byte 26 @ VOL
	.byte W03
	.byte 27 @ VOL
	.byte W04
	.byte N36 @ Cn3, v032
	.byte W01
	.byte VOL, 26
	.byte W02
	.byte 25 @ VOL
	.byte W02
	.byte 25 @ VOL
	.byte W02
	.byte 24 @ VOL
	.byte W02
	.byte 22 @ VOL
	.byte W01
	.byte 22 @ VOL
	.byte W01
	.byte 20 @ VOL
	.byte W01
	.byte 19 @ VOL
	.byte W01
	.byte 18 @ VOL
	.byte W01
	.byte 18 @ VOL
	.byte W02
	.byte 17 @ VOL
	.byte W01
	.byte 16 @ VOL
	.byte W02
	.byte 15 @ VOL
	.byte W02
	.byte 15 @ VOL
	.byte W02
	.byte 14 @ VOL
	.byte W02
	.byte 14 @ VOL
	.byte W03
	.byte 13 @ VOL
	.byte W03
	.byte 13 @ VOL
	.byte W05
	.byte 12 @ VOL
	.byte W01
	.byte 11 @ VOL
	.byte W02
	.byte N36 @ Cn3, v032
	.byte W09
	.byte VOL, 11
	.byte W13
	.byte 10 @ VOL
	.byte W01
	.byte 9 @ VOL
	.byte W01
	.byte 8 @ VOL
	.byte W01
	.byte 8 @ VOL
	.byte W01
	.byte 7 @ VOL
	.byte W01
	.byte 6 @ VOL
	.byte W01
	.byte 5 @ VOL
	.byte W01
	.byte 4 @ VOL
	.byte W01
	.byte 3 @ VOL
	.byte W02
	.byte 3 @ VOL
	.byte W01
	.byte W02
	.byte 2 @ VOL
	.byte W03
	.byte N36 @ Cn3, v032
	.byte W02
	.byte VOL, 3
	.byte W03
	.byte 3 @ VOL
	.byte W01
	.byte 4 @ VOL
	.byte W02
	.byte 4 @ VOL
	.byte W01
	.byte 5 @ VOL
	.byte W01
	.byte 6 @ VOL
	.byte W01
	.byte 7 @ VOL
	.byte W01
	.byte 7 @ VOL
	.byte W01
	.byte 8 @ VOL
	.byte W01
	.byte 8 @ VOL
	.byte W01
	.byte 9 @ VOL
	.byte W01
	.byte 10 @ VOL
	.byte W01
	.byte 11 @ VOL
	.byte W01
	.byte 11 @ VOL
	.byte W01
	.byte 12 @ VOL
	.byte W01
	.byte 13 @ VOL
	.byte W01
	.byte 14 @ VOL
	.byte W01
	.byte 14 @ VOL
	.byte W01
	.byte 15 @ VOL
	.byte W01
	.byte 16 @ VOL
	.byte W01
	.byte 17 @ VOL
	.byte W01
	.byte 18 @ VOL
	.byte W01
	.byte 19 @ VOL
	.byte W02
	.byte 19 @ VOL
	.byte W01
	.byte 20 @ VOL
	.byte W01
	.byte 21 @ VOL
	.byte W02
	.byte 22 @ VOL
	.byte W01
	.byte 22 @ VOL
	.byte W01
	.byte 23 @ VOL
	.byte W01
	.byte 24 @ VOL
	.byte W02
	.byte 24 @ VOL
	.byte N36 @ Cn3, v032
	.byte W01
	.byte VOL, 25
	.byte W02
	.byte 25 @ VOL
	.byte W01
	.byte 26 @ VOL
	.byte W02
	.byte 27 @ VOL
	.byte W02
	.byte 27 @ VOL
	.byte W02
	.byte 28 @ VOL
	.byte W03
	.byte 29 @ VOL
	.byte W03
	.byte 29 @ VOL
	.byte W04
	.byte 30 @ VOL
	.byte W09
	.byte 29 @ VOL
	.byte W08
	.byte 29 @ VOL
	.byte W02
	.byte N36 @ Cn3, v032
	.byte W01
	.byte VOL, 28
	.byte W02
	.byte 27 @ VOL
	.byte W03
	.byte 27 @ VOL
	.byte W02
	.byte 26 @ VOL
	.byte W02
	.byte 25 @ VOL
	.byte W02
	.byte 25 @ VOL
	.byte W01
	.byte 24 @ VOL
	.byte W01
	.byte W01
	.byte 24 @ VOL
	.byte W01
	.byte 23 @ VOL
	.byte W02
	.byte 22 @ VOL
	.byte W04
	.byte 22 @ VOL
	.byte W02
	.byte 21 @ VOL
	.byte W02
	.byte 20 @ VOL
	.byte W02
	.byte 20 @ VOL
	.byte W02
	.byte 19 @ VOL
	.byte W02
	.byte 19 @ VOL
	.byte W02
	.byte 18 @ VOL
	.byte W02
	.byte 18 @ VOL
	.byte W01
	.byte 17 @ VOL
	.byte W01
	.byte N36 @ Cn3, v032
	.byte W01
	.byte VOL, 17
	.byte W02
	.byte 16 @ VOL
	.byte W02
	.byte 15 @ VOL
	.byte W02
	.byte 15 @ VOL
	.byte W02
	.byte 14 @ VOL
	.byte W02
	.byte 14 @ VOL
	.byte W02
	.byte 13 @ VOL
	.byte W01
	.byte 13 @ VOL
	.byte W02
	.byte 12 @ VOL
	.byte W02
	.byte 12 @ VOL
	.byte W02
	.byte 11 @ VOL
	.byte W02
	.byte 11 @ VOL
	.byte W02
	.byte 10 @ VOL
	.byte W02
	.byte 9 @ VOL
	.byte W02
	.byte 9 @ VOL
	.byte W02
	.byte 8 @ VOL
	.byte W01
	.byte 8 @ VOL
	.byte W02
	.byte 7 @ VOL
	.byte W02
	.byte 7 @ VOL
	.byte W02
	.byte 6 @ VOL
	.byte W02
	.byte 6 @ VOL
	.byte N36 @ Cn3, v032
	.byte W02
	.byte VOL, 5
	.byte W02
	.byte 4 @ VOL
	.byte W02
	.byte 4 @ VOL
	.byte W01
	.byte 3 @ VOL
	.byte W02
	.byte 3 @ VOL
	.byte W02
	.byte 2 @ VOL
	.byte W02
	.byte 2 @ VOL
	.byte W02
	.byte 1 @ VOL
	.byte W02
	.byte 1 @ VOL
	.byte W02
	.byte 0 @ VOL
	.byte W14
	.byte W36
	.byte VOICE, 4
	.byte VOL, 1
	.byte N36, Cn3, v052
	.byte W01
	.byte VOL, 2
	.byte W01
	.byte 4 @ VOL
	.byte W01
	.byte 5 @ VOL
	.byte W01
	.byte 6 @ VOL
	.byte W01
	.byte 7 @ VOL
	.byte W01
	.byte 8 @ VOL
	.byte W01
	.byte 9 @ VOL
	.byte W01
	.byte 11 @ VOL
	.byte W01
	.byte 12 @ VOL
	.byte W01
	.byte 13 @ VOL
	.byte W01
	.byte 13 @ VOL
	.byte W01
	.byte 15 @ VOL
	.byte W01
	.byte 15 @ VOL
	.byte W01
	.byte 17 @ VOL
	.byte W01
	.byte 17 @ VOL
	.byte W01
	.byte 18 @ VOL
	.byte W01
	.byte 19 @ VOL
	.byte W01
	.byte 20 @ VOL
	.byte W01
	.byte 20 @ VOL
	.byte W01
	.byte 21 @ VOL
	.byte W01
	.byte 23 @ VOL
	.byte W02
	.byte 24 @ VOL
	.byte W02
	.byte 24 @ VOL
	.byte W01
	.byte 25 @ VOL
	.byte W01
	.byte 26 @ VOL
	.byte W01
	.byte 27 @ VOL
	.byte W01
	.byte 27 @ VOL
	.byte W01
	.byte 28 @ VOL
	.byte W01
	.byte 28 @ VOL
	.byte W01
	.byte 29 @ VOL
	.byte W02
	.byte 30 @ VOL
	.byte W01
	.byte 30 @ VOL
	.byte W01
	.byte 31 @ VOL
	.byte W02
	.byte 31 @ VOL
	.byte W01
	.byte N36, Cn3, v040
	.byte W01
	.byte VOL, 32
	.byte W02
	.byte 33 @ VOL
	.byte W02
	.byte 34 @ VOL
	.byte W02
	.byte 34 @ VOL
	.byte W03
	.byte 35 @ VOL
	.byte W04
	.byte 35 @ VOL
	.byte W06
	.byte 36 @ VOL
	.byte W01
	.byte W11
	.byte 35 @ VOL
	.byte W07
	.byte 35 @ VOL
	.byte N36, Cn3, v032
	.byte W05
	.byte VOL, 34
	.byte W03
	.byte 34 @ VOL
	.byte W03
	.byte 33 @ VOL
	.byte W04
	.byte 32 @ VOL
	.byte W02
	.byte 31 @ VOL
	.byte W03
	.byte 31 @ VOL
	.byte W02
	.byte 30 @ VOL
	.byte W02
	.byte 30 @ VOL
	.byte W03
	.byte 29 @ VOL
	.byte W02
	.byte 28 @ VOL
	.byte W02
	.byte 28 @ VOL
	.byte W01
	.byte 27 @ VOL
	.byte W02
	.byte 27 @ VOL
	.byte W02
	.byte 25 @ VOL
	.byte W02
	.byte 24 @ VOL
	.byte W01
	.byte 24 @ VOL
	.byte N36, Cn3, v020
	.byte W01
	.byte VOL, 24
	.byte W03
	.byte 23 @ VOL
	.byte W02
	.byte 23 @ VOL
	.byte W03
	.byte 22 @ VOL
	.byte W02
	.byte 22 @ VOL
	.byte W03
	.byte 21 @ VOL
	.byte W02
	.byte 20 @ VOL
	.byte W02
	.byte 20 @ VOL
	.byte W03
	.byte 19 @ VOL
	.byte W02
	.byte 19 @ VOL
	.byte W03
	.byte 18 @ VOL
	.byte W02
	.byte 18 @ VOL
	.byte W03
	.byte 17 @ VOL
	.byte W02
	.byte 17 @ VOL
	.byte W03
	.byte 16 @ VOL
	.byte W02
	.byte 15 @ VOL
	.byte W01
	.byte GOTO
		.word track_30_lbl_262067
	.byte FINE

track_30_3:
	.byte KEYSH, 0
track_30_lbl_26239f:
	.byte PAN, c_v-4
	.byte PRIO, 29
	.byte W96
	.byte W96
	.byte W96
	.byte W96
	.byte W96
	.byte W96
	.byte W96
	.byte W96
	.byte W96
	.byte W96
	.byte W96
	.byte W96
	.byte W96
	.byte W96
	.byte W96
	.byte VOICE, 5
	.byte VOL, 45
	.byte BENDR, 20
	.byte BEND, c_v
	.byte N32, An2, v064
	.byte W03
	.byte VOL, 44
	.byte W01
	.byte BEND, c_v-3
	.byte W01
	.byte VOL, 44
	.byte BEND, c_v-4
	.byte W02
	.byte VOL, 43
	.byte W01
	.byte BEND, c_v-5
	.byte W01
	.byte c_v-6 @ BEND
	.byte W01
	.byte VOL, 42
	.byte BEND, c_v-7
	.byte W01
	.byte c_v-8 @ BEND
	.byte W01
	.byte VOL, 42
	.byte BEND, c_v-10
	.byte W01
	.byte c_v-11 @ BEND
	.byte W01
	.byte VOL, 41
	.byte BEND, c_v-13
	.byte W01
	.byte c_v-15 @ BEND
	.byte W01
	.byte c_v-17 @ BEND
	.byte W01
	.byte VOL, 41
	.byte BEND, c_v-19
	.byte W01
	.byte c_v-21 @ BEND
	.byte W01
	.byte VOL, 40
	.byte BEND, c_v-22
	.byte W01
	.byte c_v-24 @ BEND
	.byte W01
	.byte VOL, 40
	.byte BEND, c_v-25
	.byte W01
	.byte c_v-26 @ BEND
	.byte W02
	.byte VOL, 39
	.byte BEND, c_v-27
	.byte W01
	.byte c_v-28 @ BEND
	.byte W01
	.byte VOL, 39
	.byte BEND, c_v-29
	.byte W01
	.byte c_v-30 @ BEND
	.byte W01
	.byte VOL, 38
	.byte BEND, c_v-31
	.byte W01
	.byte c_v-32 @ BEND
	.byte W01
	.byte c_v-33 @ BEND
	.byte W01
	.byte VOL, 38
	.byte W02
	.byte BEND, c_v
	.byte W60
	.byte W03
	.byte GOTO
		.word track_30_lbl_26239f
	.byte FINE

track_30_4:
	.byte KEYSH, 0
track_30_lbl_262423:
	.byte VOICE, 2
	.byte VOL, 38
	.byte PAN, c_v
	.byte PRIO, 30
	.byte W24
	.byte W01
	.byte N06, Bn6, v060
	.byte W48
	.byte W03
	.byte N02, Bn6, v080
	.byte W08
	.byte N06, Bn6, v060
	.byte W12
	.byte W96
	.byte W16
	.byte N06 @ Bn6, v060
	.byte W80
	.byte W04
	.byte N06 @ Bn6, v060
	.byte W13
	.byte Bn6, v048 @ N06
	.byte W78
	.byte W01
	.byte W96
	.byte W16
	.byte Bn6, v060 @ N06
	.byte W68
	.byte W01
	.byte N06 @ Bn6, v060
	.byte W11
	.byte W64
	.byte N06 @ Bn6, v060
	.byte W32
	.byte W52
	.byte N02, Bn6, v052
	.byte W06
	.byte Gn6, v072 @ N02
	.byte W04
	.byte Cn5, v060 @ N02
	.byte W32
	.byte W02
	.byte W24
	.byte W01
	.byte VOICE, 3
	.byte VOL, 33
	.byte N01, As6, v056
	.byte W03
	.byte As6, v096 @ N01
	.byte W11
	.byte N08 @ As6, v096
	.byte W09
	.byte N02, As6, v072
	.byte W18
	.byte N01, As6, v080
	.byte W03
	.byte As6, v068 @ N01
	.byte W24
	.byte W03
	.byte W02
	.byte N10, As6, v088
	.byte W11
	.byte N02, As6, v080
	.byte W24
	.byte N01, As6, v064
	.byte W03
	.byte N02, As6, v056
	.byte W03
	.byte As6, v080 @ N02
	.byte W36
	.byte W03
	.byte N09, As6, v072
	.byte W14
	.byte W96
	.byte W96
	.byte W96
	.byte W96
	.byte W16
	.byte VOICE, 2
	.byte VOL, 38
	.byte W24
	.byte N06, Bn6, v060
	.byte W56
	.byte W28
	.byte N06 @ Bn6, v060
	.byte W68
	.byte GOTO
		.word track_30_lbl_262423
	.byte FINE

.align 2

track_30:
	.byte 5
	.byte 30
	.byte 130
	.byte 128
	.word 0x80a5e3c
	.word track_30_0
	.word track_30_1
	.word track_30_2
	.word track_30_3
	.word track_30_4

.align 2
