.align 2

.global track_657

track_657_0:
	.byte KEYSH, 0
	.byte TEMPO, 75
	.byte VOICE, 10
	.byte MOD, 60
	.byte VOL, 37
	.byte PAN, c_v
	.byte LFOS, 35
	.byte TIE, Cn3, v060
	.byte W24
	.byte LFOS, 40
	.byte W24
	.byte 50 @ LFOS
	.byte W24
	.byte 60 @ LFOS
	.byte W24
	.byte 70 @ LFOS
	.byte W24
	.byte 80 @ LFOS
	.byte W24
	.byte 85 @ LFOS
	.byte W36
	.byte VOL, 37
	.byte W03
	.byte 26 @ VOL
	.byte W03
	.byte 16 @ VOL
	.byte W03
	.byte 5 @ VOL
	.byte W02
	.byte 0 @ VOL
	.byte W01
	.byte EOT @ Cn3, v060
	.byte W84
	.byte W03
	.byte FINE

track_657_1:
	.byte KEYSH, 0
	.byte VOICE, 9
	.byte VOL, 85
	.byte PAN, c_v
	.byte BENDR, 12
	.byte PRIO, 1
	.byte BEND, c_v-1
	.byte N60, Gn2, v127
	.byte W03
	.byte VOL, 95
	.byte BEND, c_v+14
	.byte W03
	.byte VOL, 102
	.byte BEND, c_v+25
	.byte W03
	.byte VOL, 108
	.byte BEND, c_v+35
	.byte W03
	.byte VOL, 112
	.byte BEND, c_v+42
	.byte W03
	.byte VOL, 116
	.byte BEND, c_v+47
	.byte W03
	.byte VOL, 119
	.byte BEND, c_v+50
	.byte W03
	.byte c_v+51 @ BEND
	.byte VOL, 120
	.byte W03
	.byte 119 @ VOL
	.byte W03
	.byte BEND, c_v+49
	.byte VOL, 116
	.byte W03
	.byte BEND, c_v+47
	.byte VOL, 112
	.byte W03
	.byte BEND, c_v+45
	.byte VOL, 106
	.byte W03
	.byte BEND, c_v+41
	.byte VOL, 99
	.byte W03
	.byte BEND, c_v+37
	.byte VOL, 91
	.byte W02
	.byte 81 @ VOL
	.byte W01
	.byte BEND, c_v+33
	.byte W02
	.byte VOL, 42
	.byte W01
	.byte BEND, c_v+28
	.byte W02
	.byte VOL, 23
	.byte W03
	.byte 12 @ VOL
	.byte W03
	.byte 5 @ VOL
	.byte W03
	.byte 0 @ VOL
	.byte W36
	.byte W03
	.byte 40 @ VOL
	.byte W01
	.byte BEND, c_v+61
	.byte N84, Cn3 @ v127
	.byte W02
	.byte VOL, 78
	.byte W01
	.byte BEND, c_v+52
	.byte W02
	.byte VOL, 101
	.byte W01
	.byte BEND, c_v+51
	.byte W02
	.byte VOL, 113
	.byte W01
	.byte 116 @ VOL
	.byte W02
	.byte BEND, c_v+53
	.byte W01
	.byte VOL, 118
	.byte W02
	.byte BEND, c_v+49
	.byte W01
	.byte VOL, 120
	.byte W02
	.byte BEND, c_v+39
	.byte W01
	.byte VOL, 118
	.byte W02
	.byte BEND, c_v+23
	.byte W01
	.byte VOL, 114
	.byte W02
	.byte BEND, c_v+1
	.byte W01
	.byte VOL, 107
	.byte BENDR, 16
	.byte BEND, c_v+1
	.byte W03
	.byte VOL, 99
	.byte BEND, c_v+13
	.byte W03
	.byte VOL, 86
	.byte BEND, c_v+30
	.byte W02
	.byte VOL, 109
	.byte W01
	.byte BEND, c_v+41
	.byte W02
	.byte VOL, 120
	.byte W01
	.byte BEND, c_v+50
	.byte W03
	.byte c_v+57 @ BEND
	.byte W03
	.byte c_v+61 @ BEND
	.byte W03
	.byte c_v+63 @ BEND
	.byte W12
	.byte c_v+61 @ BEND
	.byte W03
	.byte c_v+59 @ BEND
	.byte W02
	.byte VOL, 120
	.byte W01
	.byte BEND, c_v+57
	.byte W02
	.byte VOL, 116
	.byte W01
	.byte BEND, c_v+53
	.byte W02
	.byte VOL, 110
	.byte W03
	.byte 99 @ VOL
	.byte W01
	.byte BEND, c_v+55
	.byte W02
	.byte VOL, 40
	.byte W01
	.byte BEND, c_v+58
	.byte W02
	.byte VOL, 17
	.byte W01
	.byte BEND, c_v+62
	.byte W02
	.byte VOL, 6
	.byte W03
	.byte 0 @ VOL
	.byte W13
	.byte W84
	.byte W03
	.byte FINE

track_657_2:
	.byte KEYSH, 0
	.byte VOICE, 9
	.byte VOL, 85
	.byte PAN, c_v
	.byte BENDR, 12
	.byte PRIO, 1
	.byte BEND, c_v-1
	.byte N60, Bn2, v127
	.byte W03
	.byte VOL, 95
	.byte BEND, c_v+14
	.byte W03
	.byte VOL, 102
	.byte BEND, c_v+25
	.byte W03
	.byte VOL, 108
	.byte BEND, c_v+35
	.byte W03
	.byte VOL, 112
	.byte BEND, c_v+42
	.byte W03
	.byte VOL, 116
	.byte BEND, c_v+47
	.byte W03
	.byte VOL, 119
	.byte BEND, c_v+50
	.byte W03
	.byte c_v+51 @ BEND
	.byte VOL, 120
	.byte W03
	.byte 119 @ VOL
	.byte W03
	.byte BEND, c_v+49
	.byte VOL, 116
	.byte W03
	.byte BEND, c_v+47
	.byte VOL, 112
	.byte W03
	.byte BEND, c_v+45
	.byte VOL, 106
	.byte W03
	.byte BEND, c_v+41
	.byte VOL, 99
	.byte W03
	.byte BEND, c_v+37
	.byte VOL, 91
	.byte W02
	.byte 81 @ VOL
	.byte W01
	.byte BEND, c_v+33
	.byte W02
	.byte VOL, 42
	.byte W01
	.byte BEND, c_v+28
	.byte W02
	.byte VOL, 23
	.byte W03
	.byte 12 @ VOL
	.byte W03
	.byte 5 @ VOL
	.byte W03
	.byte 0 @ VOL
	.byte W36
	.byte W03
	.byte 38 @ VOL
	.byte BEND, c_v+35
	.byte W01
	.byte N84, Cn3 @ v127
	.byte W02
	.byte VOL, 78
	.byte BEND, c_v+43
	.byte W03
	.byte VOL, 99
	.byte BEND, c_v+49
	.byte W02
	.byte VOL, 112
	.byte W01
	.byte BEND, c_v+52
	.byte W01
	.byte VOL, 116
	.byte W02
	.byte BEND, c_v+53
	.byte W01
	.byte VOL, 118
	.byte W02
	.byte BEND, c_v+49
	.byte W01
	.byte VOL, 120
	.byte W02
	.byte BEND, c_v+39
	.byte W01
	.byte VOL, 118
	.byte W02
	.byte BEND, c_v+23
	.byte W01
	.byte VOL, 114
	.byte W02
	.byte BEND, c_v+1
	.byte W01
	.byte VOL, 107
	.byte BEND, c_v+1
	.byte W03
	.byte VOL, 99
	.byte BEND, c_v+13
	.byte W03
	.byte VOL, 86
	.byte BEND, c_v+30
	.byte W02
	.byte VOL, 109
	.byte W01
	.byte BEND, c_v+41
	.byte W02
	.byte VOL, 120
	.byte W01
	.byte BEND, c_v+50
	.byte W03
	.byte c_v+57 @ BEND
	.byte W03
	.byte c_v+61 @ BEND
	.byte W03
	.byte c_v+63 @ BEND
	.byte W12
	.byte c_v+61 @ BEND
	.byte W03
	.byte c_v+59 @ BEND
	.byte W02
	.byte VOL, 120
	.byte W01
	.byte BEND, c_v+57
	.byte W02
	.byte VOL, 116
	.byte W01
	.byte BEND, c_v+53
	.byte W02
	.byte VOL, 110
	.byte W01
	.byte BEND, c_v+50
	.byte W02
	.byte VOL, 99
	.byte W01
	.byte BEND, c_v+46
	.byte W02
	.byte VOL, 40
	.byte W01
	.byte BEND, c_v+41
	.byte W02
	.byte VOL, 17
	.byte W01
	.byte BEND, c_v+37
	.byte W02
	.byte VOL, 6
	.byte W01
	.byte BEND, c_v+31
	.byte W02
	.byte VOL, 0
	.byte W13
	.byte W84
	.byte W03
	.byte FINE

track_657_3:
	.byte KEYSH, 0
	.byte W96
	.byte W84
	.byte VOICE, 11
	.byte VOL, 120
	.byte PAN, c_v
	.byte N15, Cn3, v127
	.byte W12
	.byte W03
	.byte Cn3, v040 @ N15
	.byte W15
	.byte Cn3, v127 @ N15
	.byte W15
	.byte Cn3, v040 @ N15
	.byte W15
	.byte Cn3, v020 @ N15
	.byte W36
	.byte W03
	.byte FINE

track_657_4:
	.byte KEYSH, 0
	.byte W96
	.byte W84
	.byte VOICE, 12
	.byte VOL, 120
	.byte PAN, c_v
	.byte PRIO, 1
	.byte N06, Cn3, v100
	.byte W06
	.byte N14, En3, v127
	.byte W06
	.byte W08
	.byte N06, Cn3, v100
	.byte W06
	.byte N14, En3, v127
	.byte W14
	.byte N10, Cn3, v040
	.byte W10
	.byte N14, Dn3 @ v040
	.byte W48
	.byte W01
	.byte FINE

track_657_5:
	.byte KEYSH, 0
	.byte W96
	.byte W84
	.byte VOICE, 13
	.byte VOL, 120
	.byte PAN, c_v
	.byte W05
	.byte N09, Fn2, v100
	.byte W07
	.byte W02
	.byte VOICE, 14
	.byte W01
	.byte N05, Gs2 @ v100
	.byte W10
	.byte N03, Ds2, v127
	.byte W03
	.byte VOICE, 13
	.byte N09, Fn2 @ v127
	.byte W09
	.byte VOICE, 14
	.byte N05, Gs2, v100
	.byte W05
	.byte N03, Ds2, v127
	.byte W56
	.byte W01
	.byte FINE

track_657_6:
	.byte KEYSH, 0
	.byte W96
	.byte W84
	.byte VOICE, 15
	.byte VOL, 120
	.byte PAN, c_v
	.byte W02
	.byte N04, Cn3, v127
	.byte W05
	.byte N04 @ Cn3, v127
	.byte W05
	.byte N04 @ Cn3, v127
	.byte W04
	.byte VOICE, 16
	.byte N04 @ Cn3, v127
	.byte W04
	.byte VOICE, 17
	.byte N04 @ Cn3, v127
	.byte W04
	.byte VOICE, 15
	.byte VOL, 56
	.byte W02
	.byte N04 @ Cn3, v127
	.byte W05
	.byte N04 @ Cn3, v127
	.byte W04
	.byte VOICE, 16
	.byte W01
	.byte N04, Cn3, v080
	.byte W04
	.byte N04 @ Cn3, v080
	.byte W04
	.byte VOICE, 17
	.byte N04, Cn3, v040
	.byte W54
	.byte W01
	.byte FINE

.align 2

track_657:
	.byte 7
	.byte 0
	.byte 253
	.byte 0
	.word 0x80a7e10
	.word track_657_0
	.word track_657_1
	.word track_657_2
	.word track_657_3
	.word track_657_4
	.word track_657_5
	.word track_657_6

.align 2
