.align 2

.global track_292

track_292_0:
	.byte KEYSH, 0
	.byte TEMPO, 75
	.byte VOICE, 51
	.byte VOL, 78
	.byte PAN, c_v-24
	.byte BENDR, 12
	.byte BEND, c_v
	.byte N21, En3, v080
	.byte W02
	.byte BEND, c_v+1
	.byte W02
	.byte c_v+3 @ BEND
	.byte W02
	.byte c_v+4 @ BEND
	.byte W02
	.byte c_v+6 @ BEND
	.byte W02
	.byte c_v+9 @ BEND
	.byte W02
	.byte c_v+11 @ BEND
	.byte W02
	.byte c_v+14 @ BEND
	.byte W02
	.byte c_v+18 @ BEND
	.byte W02
	.byte c_v+24 @ BEND
	.byte W02
	.byte c_v+31 @ BEND
	.byte W01
	.byte VOICE, 50
	.byte VOL, 100
	.byte BENDR, 0
	.byte BEND, c_v
	.byte PAN, c_v-23
	.byte N04, Cn3, v127
	.byte W03
	.byte VOL, 96
	.byte PAN, c_v-21
	.byte W01
	.byte N04, En3, v060
	.byte W02
	.byte VOL, 93
	.byte PAN, c_v-18
	.byte W02
	.byte N04, Bn2, v020
	.byte W01
	.byte VOL, 90
	.byte PAN, c_v-16
	.byte W03
	.byte VOL, 87
	.byte PAN, c_v-13
	.byte W03
	.byte VOL, 84
	.byte PAN, c_v-10
	.byte W03
	.byte VOL, 81
	.byte PAN, c_v-8
	.byte W03
	.byte VOL, 78
	.byte PAN, c_v-5
	.byte W01
	.byte N04, En3, v127
	.byte W02
	.byte VOL, 75
	.byte PAN, c_v-3
	.byte W02
	.byte N04, Cn3, v060
	.byte W01
	.byte VOL, 72
	.byte PAN, c_v
	.byte W03
	.byte VOL, 69
	.byte PAN, c_v+3
	.byte N04, Bn2, v020
	.byte W03
	.byte VOL, 66
	.byte PAN, c_v+5
	.byte W03
	.byte VOL, 62
	.byte PAN, c_v+8
	.byte W03
	.byte VOL, 60
	.byte PAN, c_v+10
	.byte W03
	.byte VOL, 57
	.byte PAN, c_v+13
	.byte N04, Bn2, v127
	.byte W03
	.byte VOL, 54
	.byte PAN, c_v+16
	.byte W01
	.byte N04, Cn3, v060
	.byte W02
	.byte VOL, 51
	.byte PAN, c_v+18
	.byte W02
	.byte N04, En3, v020
	.byte W01
	.byte VOL, 48
	.byte PAN, c_v+21
	.byte W03
	.byte VOL, 44
	.byte PAN, c_v+23
	.byte W03
	.byte VOL, 42
	.byte PAN, c_v+26
	.byte W03
	.byte VOL, 39
	.byte PAN, c_v+29
	.byte W03
	.byte VOL, 36
	.byte PAN, c_v+31
	.byte W01
	.byte N04, En3, v127
	.byte W02
	.byte VOL, 33
	.byte PAN, c_v+34
	.byte W02
	.byte N04, Bn2, v060
	.byte W01
	.byte VOL, 29
	.byte PAN, c_v+36
	.byte W03
	.byte VOL, 26
	.byte PAN, c_v+39
	.byte N04, Cn3, v020
	.byte W03
	.byte VOL, 24
	.byte PAN, c_v+42
	.byte W01
	.byte N04, Cn3, v127
	.byte W02
	.byte VOL, 21
	.byte PAN, c_v+44
	.byte W02
	.byte N04, En3, v060
	.byte W01
	.byte VOL, 18
	.byte PAN, c_v+47
	.byte W03
	.byte VOL, 14
	.byte PAN, c_v+49
	.byte N04, Bn2, v020
	.byte W03
	.byte VOL, 11
	.byte PAN, c_v+52
	.byte W03
	.byte VOL, 8
	.byte PAN, c_v+55
	.byte W03
	.byte VOL, 6
	.byte PAN, c_v+57
	.byte W03
	.byte VOL, 3
	.byte PAN, c_v+60
	.byte W02
	.byte N04, En3, v127
	.byte W01
	.byte VOL, 0
	.byte PAN, c_v+63
	.byte W72
	.byte W16
	.byte FINE

track_292_1:
	.byte KEYSH, 0
	.byte W21
	.byte VOICE, 50
	.byte VOL, 78
	.byte PAN, c_v-24
	.byte BENDR, 0
	.byte W03
	.byte VOL, 76
	.byte PAN, c_v-22
	.byte W03
	.byte VOL, 74
	.byte PAN, c_v-19
	.byte W02
	.byte N04, An2, v127
	.byte W01
	.byte VOL, 71
	.byte PAN, c_v-17
	.byte W03
	.byte VOL, 70
	.byte PAN, c_v-15
	.byte N04, Dn3, v060
	.byte W03
	.byte VOL, 67
	.byte PAN, c_v-12
	.byte W01
	.byte N04, En3, v020
	.byte W02
	.byte VOL, 65
	.byte PAN, c_v-10
	.byte W03
	.byte VOL, 63
	.byte PAN, c_v-7
	.byte W03
	.byte VOL, 61
	.byte PAN, c_v-5
	.byte W03
	.byte VOL, 59
	.byte PAN, c_v-3
	.byte W03
	.byte VOL, 56
	.byte PAN, c_v
	.byte N04, Cn3, v127
	.byte W03
	.byte VOL, 55
	.byte PAN, c_v+2
	.byte W01
	.byte N04, En3, v060
	.byte W02
	.byte VOL, 52
	.byte PAN, c_v+4
	.byte W02
	.byte N04, Fn3, v020
	.byte W01
	.byte VOL, 50
	.byte PAN, c_v+7
	.byte W03
	.byte VOL, 48
	.byte PAN, c_v+9
	.byte W03
	.byte VOL, 46
	.byte PAN, c_v+11
	.byte W03
	.byte VOL, 44
	.byte PAN, c_v+14
	.byte W03
	.byte VOL, 42
	.byte PAN, c_v+16
	.byte N04, Ds3, v127
	.byte W03
	.byte VOL, 40
	.byte PAN, c_v+18
	.byte W01
	.byte N04, Fs3, v060
	.byte W02
	.byte VOL, 37
	.byte PAN, c_v+21
	.byte W02
	.byte N04, As2, v020
	.byte W01
	.byte VOL, 35
	.byte PAN, c_v+23
	.byte W03
	.byte VOL, 33
	.byte PAN, c_v+26
	.byte W03
	.byte VOL, 31
	.byte PAN, c_v+28
	.byte W03
	.byte VOL, 29
	.byte PAN, c_v+30
	.byte W03
	.byte VOL, 27
	.byte PAN, c_v+33
	.byte W01
	.byte N04, En3, v127
	.byte W02
	.byte VOL, 25
	.byte PAN, c_v+35
	.byte W02
	.byte N04, Cn3, v060
	.byte W01
	.byte VOL, 22
	.byte PAN, c_v+37
	.byte W03
	.byte VOL, 21
	.byte PAN, c_v+40
	.byte N04, Bn2, v020
	.byte W03
	.byte VOL, 18
	.byte PAN, c_v+42
	.byte W01
	.byte N04, Gn3, v127
	.byte W02
	.byte VOL, 16
	.byte PAN, c_v+44
	.byte W02
	.byte N04, Dn3, v060
	.byte W01
	.byte VOL, 14
	.byte PAN, c_v+47
	.byte W03
	.byte VOL, 12
	.byte PAN, c_v+49
	.byte N04, En3, v020
	.byte W03
	.byte VOL, 10
	.byte PAN, c_v+51
	.byte W03
	.byte VOL, 7
	.byte PAN, c_v+54
	.byte W03
	.byte VOL, 6
	.byte PAN, c_v+56
	.byte W03
	.byte VOL, 3
	.byte PAN, c_v+59
	.byte W02
	.byte N04, Cn3, v127
	.byte W01
	.byte VOL, 1
	.byte PAN, c_v+61
	.byte W03
	.byte VOL, 0
	.byte W60
	.byte W16
	.byte FINE

track_292_2:
	.byte KEYSH, 0
	.byte VOICE, 52
	.byte VOL, 55
	.byte PAN, c_v-24
	.byte N03, Fn2, v127
	.byte W04
	.byte An2 @ N03, v127
	.byte W04
	.byte Fn2 @ N03, v127
	.byte W03
	.byte Cn2 @ N03, v127
	.byte W03
	.byte N01, Gs2 @ v127
	.byte W01
	.byte N03, Dn2 @ v127
	.byte W04
	.byte N01, Fn2 @ v127
	.byte W02
	.byte VOL, 62
	.byte N03 @ Fn2, v127
	.byte W03
	.byte VOL, 60
	.byte PAN, c_v-21
	.byte W01
	.byte N03, An2 @ v127
	.byte W02
	.byte VOL, 59
	.byte PAN, c_v-19
	.byte W02
	.byte N03, Fn2 @ v127
	.byte W01
	.byte VOL, 57
	.byte PAN, c_v-16
	.byte W02
	.byte N03, Cn2 @ v127
	.byte W01
	.byte VOL, 55
	.byte PAN, c_v-14
	.byte W02
	.byte N01, Gs2 @ v127
	.byte W01
	.byte VOL, 53
	.byte PAN, c_v-11
	.byte N03, Dn2 @ v127
	.byte W03
	.byte VOL, 51
	.byte PAN, c_v-9
	.byte W01
	.byte N03, Fn2 @ v127
	.byte W02
	.byte VOL, 49
	.byte PAN, c_v-6
	.byte W02
	.byte N03, Bn1 @ v127
	.byte W01
	.byte VOL, 48
	.byte PAN, c_v-4
	.byte W02
	.byte N03, Cn2 @ v127
	.byte W01
	.byte VOL, 46
	.byte PAN, c_v-1
	.byte W02
	.byte N01, Gs2 @ v127
	.byte W01
	.byte VOL, 44
	.byte PAN, c_v+1
	.byte N03, En2 @ v127
	.byte W03
	.byte VOL, 42
	.byte PAN, c_v+4
	.byte W01
	.byte N03, Fn2 @ v127
	.byte W02
	.byte VOL, 40
	.byte PAN, c_v+6
	.byte W02
	.byte N03, Cn2 @ v127
	.byte W01
	.byte VOL, 38
	.byte PAN, c_v+9
	.byte W02
	.byte N03, Gn2 @ v127
	.byte W01
	.byte VOL, 37
	.byte PAN, c_v+11
	.byte W02
	.byte N01, Gs2 @ v127
	.byte W01
	.byte VOL, 35
	.byte PAN, c_v+14
	.byte N03, Fn2 @ v127
	.byte W03
	.byte VOL, 33
	.byte PAN, c_v+16
	.byte W01
	.byte N03, An2 @ v127
	.byte W02
	.byte VOL, 31
	.byte PAN, c_v+19
	.byte W02
	.byte N03, Fn2 @ v127
	.byte W01
	.byte VOL, 29
	.byte PAN, c_v+21
	.byte W02
	.byte N03, Cn2 @ v127
	.byte W01
	.byte VOL, 28
	.byte PAN, c_v+24
	.byte W02
	.byte N01, Gs2 @ v127
	.byte W01
	.byte VOL, 25
	.byte PAN, c_v+26
	.byte N03, En2 @ v127
	.byte W03
	.byte VOL, 24
	.byte PAN, c_v+29
	.byte W01
	.byte N03, Fn2 @ v127
	.byte W02
	.byte VOL, 22
	.byte PAN, c_v+31
	.byte W02
	.byte N03, Gn2 @ v127
	.byte W01
	.byte VOL, 20
	.byte PAN, c_v+34
	.byte W02
	.byte N03, Cn2 @ v127
	.byte W01
	.byte VOL, 18
	.byte PAN, c_v+36
	.byte W02
	.byte N01, En2 @ v127
	.byte W01
	.byte VOL, 17
	.byte PAN, c_v+39
	.byte N03, Gn2 @ v127
	.byte W03
	.byte VOL, 14
	.byte PAN, c_v+41
	.byte W01
	.byte N03, En2 @ v127
	.byte W02
	.byte VOL, 13
	.byte PAN, c_v+44
	.byte W02
	.byte N03, Cn2 @ v127
	.byte W01
	.byte VOL, 11
	.byte PAN, c_v+46
	.byte W02
	.byte N03, Fn2 @ v127
	.byte W01
	.byte VOL, 10
	.byte PAN, c_v+49
	.byte W02
	.byte N01, Dn2 @ v127
	.byte W01
	.byte VOL, 7
	.byte PAN, c_v+51
	.byte N03, Fn2 @ v127
	.byte W03
	.byte VOL, 6
	.byte PAN, c_v+54
	.byte W01
	.byte N03, An2 @ v127
	.byte W02
	.byte VOL, 4
	.byte PAN, c_v+56
	.byte W02
	.byte N03, Fn2 @ v127
	.byte W01
	.byte VOL, 2
	.byte PAN, c_v+59
	.byte W02
	.byte N03, Cn2 @ v127
	.byte W01
	.byte VOL, 0
	.byte PAN, c_v+61
	.byte W02
	.byte VOL, 0
	.byte W66
	.byte W01
	.byte W16
	.byte FINE

track_292_3:
	.byte KEYSH, 0
	.byte W96
	.byte VOICE, 53
	.byte VOL, 47
	.byte PAN, c_v-24
	.byte N01, Fn5, v040
	.byte W02
	.byte Gn4 @ N01, v040
	.byte W01
	.byte PAN, c_v-22
	.byte W01
	.byte N01, Fn5 @ v040
	.byte W02
	.byte PAN, c_v-19
	.byte N01, Gn4 @ v040
	.byte W02
	.byte Fn5 @ N01, v040
	.byte W01
	.byte PAN, c_v-17
	.byte W01
	.byte N01, Gn4 @ v040
	.byte W02
	.byte PAN, c_v-15
	.byte N01, Fn5 @ v040
	.byte W02
	.byte Gn4 @ N01, v040
	.byte W01
	.byte PAN, c_v-12
	.byte N01, Fn5 @ v040
	.byte W02
	.byte Gn4 @ N01, v040
	.byte W01
	.byte PAN, c_v-10
	.byte W01
	.byte N01, Fn5 @ v040
	.byte W02
	.byte PAN, c_v-8
	.byte N01, Gn4 @ v040
	.byte W02
	.byte Fn5 @ N01, v040
	.byte W01
	.byte PAN, c_v-5
	.byte W01
	.byte N01, Gn4 @ v040
	.byte W02
	.byte PAN, c_v-3
	.byte N01, Fn5 @ v040
	.byte W02
	.byte Gn4 @ N01, v040
	.byte W01
	.byte PAN, c_v
	.byte N01, Fn5 @ v040
	.byte W02
	.byte Gn4 @ N01, v040
	.byte W01
	.byte PAN, c_v+2
	.byte W01
	.byte N01, Fn5 @ v040
	.byte W02
	.byte PAN, c_v+4
	.byte N01, Gn4 @ v040
	.byte W02
	.byte Fn5 @ N01, v040
	.byte W01
	.byte PAN, c_v+7
	.byte W01
	.byte N01, Gn4 @ v040
	.byte W02
	.byte PAN, c_v+9
	.byte N01, Fn5 @ v040
	.byte W02
	.byte Gn4 @ N01, v040
	.byte W01
	.byte PAN, c_v+11
	.byte N01, Fn5 @ v040
	.byte W02
	.byte Gn4 @ N01, v040
	.byte W01
	.byte PAN, c_v+14
	.byte W01
	.byte N01, Fn5 @ v040
	.byte W02
	.byte PAN, c_v+16
	.byte N01, Gn4 @ v040
	.byte W02
	.byte Fn5 @ N01, v040
	.byte W01
	.byte PAN, c_v+18
	.byte W01
	.byte N01, Gn4 @ v040
	.byte W02
	.byte PAN, c_v+21
	.byte N01, Fn5 @ v040
	.byte W02
	.byte Gn4 @ N01, v040
	.byte W01
	.byte PAN, c_v+23
	.byte N01, Fn5 @ v040
	.byte W02
	.byte Gn4 @ N01, v040
	.byte W01
	.byte PAN, c_v+25
	.byte W01
	.byte N01, Fn5 @ v040
	.byte W02
	.byte PAN, c_v+28
	.byte N01, Gn4 @ v040
	.byte W02
	.byte Fn5 @ N01, v040
	.byte W01
	.byte PAN, c_v+30
	.byte W01
	.byte N01, Gn4 @ v040
	.byte W02
	.byte PAN, c_v+32
	.byte N01, Fn5 @ v040
	.byte W02
	.byte VOL, 47
	.byte N01, Gn4 @ v040
	.byte W01
	.byte PAN, c_v+35
	.byte N01, Fn5 @ v040
	.byte W02
	.byte VOL, 43
	.byte N01, Gn4 @ v040
	.byte W01
	.byte PAN, c_v+37
	.byte W01
	.byte N01, Fn5 @ v040
	.byte W01
	.byte VOL, 39
	.byte W01
	.byte PAN, c_v+39
	.byte N01, Gn4 @ v040
	.byte W01
	.byte Fn5 @ N01, v040
	.byte W01
	.byte VOL, 35
	.byte W01
	.byte PAN, c_v+42
	.byte N01, Gn4 @ v040
	.byte W02
	.byte VOL, 31
	.byte N01, Fn5 @ v040
	.byte W01
	.byte PAN, c_v+44
	.byte W01
	.byte N01, Gn4 @ v040
	.byte W01
	.byte VOL, 27
	.byte W01
	.byte PAN, c_v+47
	.byte N01, Fn5 @ v040
	.byte W02
	.byte VOL, 23
	.byte N01, Gn4 @ v040
	.byte W01
	.byte PAN, c_v+49
	.byte W01
	.byte N01, Fn5 @ v040
	.byte W01
	.byte VOL, 19
	.byte W01
	.byte PAN, c_v+51
	.byte N01, Gn4 @ v040
	.byte W01
	.byte Fn5 @ N01, v040
	.byte W01
	.byte VOL, 15
	.byte W01
	.byte PAN, c_v+54
	.byte N01, Gn4 @ v040
	.byte W02
	.byte VOL, 11
	.byte N01, Fn5 @ v040
	.byte W01
	.byte PAN, c_v+56
	.byte W01
	.byte N01, Gn4 @ v040
	.byte W01
	.byte VOL, 8
	.byte W01
	.byte PAN, c_v+58
	.byte N01, Fn5 @ v040
	.byte W02
	.byte VOL, 4
	.byte N01, Gn4 @ v040
	.byte W01
	.byte PAN, c_v+61
	.byte W01
	.byte N01, Fn5 @ v040
	.byte W01
	.byte VOL, 0
	.byte W01
	.byte 0 @ VOL
	.byte PAN, c_v+63
	.byte N01, Gn4 @ v040
	.byte W01
	.byte FINE

track_292_4:
	.byte KEYSH, 0
	.byte VOICE, 50
	.byte VOL, 47
	.byte PAN, c_v-24
	.byte W96
	.byte W28
	.byte N01, En4, v080
	.byte W01
	.byte Gn4 @ N01, v080
	.byte W30
	.byte VOL, 23
	.byte PAN, c_v+16
	.byte N01, Dn4 @ v080
	.byte W01
	.byte Gn4 @ N01, v080
	.byte W36
	.byte W16
	.byte FINE

.align 2

track_292:
	.byte 5
	.byte 0
	.byte 252
	.byte 0
	.word 0x80a71ec
	.word track_292_0
	.word track_292_1
	.word track_292_2
	.word track_292_3
	.word track_292_4

.align 2
