.align 2

.global track_68

track_68_0:
	.byte KEYSH, 0
	.byte TEMPO, 59
	.byte W72
	.byte TEMPO, 43
	.byte VOICE, 19
	.byte VOL, 64
	.byte PAN, c_v-1
	.byte PRIO, 110
	.byte N24, En0, v028
	.byte W01
	.byte PAN, c_v-2
	.byte W05
	.byte VOL, 66
	.byte W06
	.byte 69 @ VOL
	.byte W06
	.byte 71 @ VOL
	.byte W06
	.byte 74 @ VOL
	.byte N24, En1, v020
	.byte W06
	.byte VOL, 77
	.byte W04
	.byte PAN, c_v-3
	.byte W01
	.byte c_v-4 @ PAN
	.byte W01
	.byte VOL, 79
	.byte W06
	.byte 82 @ VOL
	.byte W06
	.byte 85 @ VOL
	.byte N24, Fn0, v028
	.byte W06
	.byte VOL, 87
	.byte W06
	.byte 90 @ VOL
	.byte W06
	.byte 92 @ VOL
	.byte W03
	.byte PAN, c_v-5
	.byte W01
	.byte c_v-6 @ PAN
	.byte W02
track_68_lbl_276100:
	.byte VOL, 95
	.byte N24, Fn1, v020
	.byte W06
	.byte VOL, 98
	.byte W06
	.byte 100 @ VOL
	.byte W06
	.byte 103 @ VOL
	.byte W06
	.byte 106 @ VOL
	.byte N24, En0, v028
	.byte W06
	.byte VOL, 108
	.byte W02
	.byte PAN, c_v-7
	.byte W01
	.byte c_v-8 @ PAN
	.byte W03
	.byte VOL, 111
	.byte W06
	.byte 113 @ VOL
	.byte W06
	.byte 116 @ VOL
	.byte N24, En1, v020
	.byte W06
	.byte VOL, 119
	.byte W06
	.byte 121 @ VOL
	.byte W06
	.byte 124 @ VOL
	.byte W01
	.byte PAN, c_v-9
	.byte W01
	.byte c_v-10 @ PAN
	.byte W04
	.byte PEND
track_68_lbl_276131:
	.byte N24, Fn0, v028
	.byte W06
	.byte VOL, 124
	.byte W06
	.byte 121 @ VOL
	.byte W06
	.byte 119 @ VOL
	.byte W06
	.byte 116 @ VOL
	.byte N24, Fn1, v020
	.byte W06
	.byte VOL, 113
	.byte PAN, c_v-11
	.byte W01
	.byte c_v-12 @ PAN
	.byte W05
	.byte VOL, 111
	.byte W06
	.byte 108 @ VOL
	.byte W06
	.byte 106 @ VOL
	.byte N24, En0, v028
	.byte W06
	.byte VOL, 103
	.byte W06
	.byte 100 @ VOL
	.byte W05
	.byte PAN, c_v-13
	.byte W01
	.byte VOL, 98
	.byte PAN, c_v-14
	.byte W06
	.byte VOL, 95
	.byte N24, En1, v020
	.byte W06
	.byte VOL, 92
	.byte W06
	.byte 90 @ VOL
	.byte W06
	.byte 87 @ VOL
	.byte W06
	.byte 85 @ VOL
	.byte N24, Fn0, v028
	.byte W04
	.byte PAN, c_v-15
	.byte W01
	.byte c_v-16 @ PAN
	.byte W01
	.byte VOL, 82
	.byte W06
	.byte 79 @ VOL
	.byte W06
	.byte 77 @ VOL
	.byte W06
	.byte 74 @ VOL
	.byte N24, Fn1, v020
	.byte W06
	.byte VOL, 71
	.byte W06
	.byte 69 @ VOL
	.byte W03
	.byte PAN, c_v-17
	.byte W01
	.byte c_v-18 @ PAN
	.byte W02
	.byte VOL, 66
	.byte W06
	.byte 64 @ VOL
	.byte N24, En0, v028
	.byte W06
	.byte VOL, 66
	.byte W06
	.byte 69 @ VOL
	.byte W06
	.byte 71 @ VOL
	.byte W06
	.byte 74 @ VOL
	.byte N24, En1, v020
	.byte W02
	.byte PAN, c_v-19
	.byte W01
	.byte c_v-20 @ PAN
	.byte W03
	.byte VOL, 77
	.byte W06
	.byte 79 @ VOL
	.byte W06
	.byte 82 @ VOL
	.byte W06
	.byte 85 @ VOL
	.byte N24, Fn0, v028
	.byte W06
	.byte VOL, 87
	.byte W06
	.byte 90 @ VOL
	.byte W01
	.byte PAN, c_v-21
	.byte W01
	.byte c_v-22 @ PAN
	.byte W04
	.byte VOL, 92
	.byte W06
	.byte 95 @ VOL
	.byte N24, Fn1, v020
	.byte W06
	.byte VOL, 98
	.byte W06
	.byte 100 @ VOL
	.byte W06
	.byte 103 @ VOL
	.byte W06
	.byte 106 @ VOL
	.byte PAN, c_v-23
	.byte N24, En0, v028
	.byte W01
	.byte PAN, c_v-24
	.byte W05
	.byte VOL, 108
	.byte W06
	.byte 111 @ VOL
	.byte W06
	.byte 113 @ VOL
	.byte W06
	.byte 116 @ VOL
	.byte N24, En1, v020
	.byte W06
	.byte VOL, 119
	.byte W04
	.byte PAN, c_v-25
	.byte W01
	.byte c_v-26 @ PAN
	.byte W01
	.byte VOL, 121
	.byte W06
	.byte 124 @ VOL
	.byte W06
	.byte N24, Fn0, v028
	.byte W06
	.byte VOL, 124
	.byte W06
	.byte 121 @ VOL
	.byte W06
	.byte 119 @ VOL
	.byte W03
	.byte PAN, c_v-27
	.byte W01
	.byte c_v-28 @ PAN
	.byte W02
	.byte VOL, 116
	.byte N24, Fn1, v020
	.byte W06
	.byte VOL, 113
	.byte W06
	.byte 111 @ VOL
	.byte W06
	.byte 108 @ VOL
	.byte W06
	.byte 106 @ VOL
	.byte N24, En0, v028
	.byte W06
	.byte VOL, 103
	.byte W02
	.byte PAN, c_v-29
	.byte W01
	.byte c_v-30 @ PAN
	.byte W03
	.byte VOL, 100
	.byte W06
	.byte 98 @ VOL
	.byte W06
	.byte 95 @ VOL
	.byte N24, En1, v020
	.byte W06
	.byte VOL, 92
	.byte W06
	.byte 90 @ VOL
	.byte W06
	.byte 87 @ VOL
	.byte W01
	.byte PAN, c_v-31
	.byte W01
	.byte c_v-32 @ PAN
	.byte W04
	.byte VOL, 85
	.byte N24, Fn0, v028
	.byte W06
	.byte VOL, 82
	.byte W06
	.byte 79 @ VOL
	.byte W06
	.byte 77 @ VOL
	.byte W06
	.byte 74 @ VOL
	.byte N24, Fn1, v020
	.byte W06
	.byte VOL, 71
	.byte PAN, c_v-33
	.byte W01
	.byte c_v-34 @ PAN
	.byte W05
	.byte VOL, 69
	.byte W06
	.byte 66 @ VOL
	.byte W06
	.byte 64 @ VOL
	.byte N24, En0, v028
	.byte W06
	.byte VOL, 66
	.byte W06
	.byte 69 @ VOL
	.byte W05
	.byte PAN, c_v-33
	.byte W01
	.byte VOL, 71
	.byte W06
	.byte 74 @ VOL
	.byte N24, En1, v020
	.byte W06
	.byte VOL, 77
	.byte W04
	.byte PAN, c_v-32
	.byte W02
	.byte VOL, 79
	.byte W06
	.byte 82 @ VOL
	.byte W06
	.byte 85 @ VOL
	.byte N24, Fn0, v028
	.byte W04
	.byte PAN, c_v-31
	.byte W02
	.byte VOL, 87
	.byte W06
	.byte 90 @ VOL
	.byte W06
	.byte 92 @ VOL
	.byte W03
	.byte PAN, c_v-30
	.byte W03
	.byte VOL, 95
	.byte N24, Fn1, v020
	.byte W06
	.byte VOL, 98
	.byte W06
	.byte 100 @ VOL
	.byte W03
	.byte PAN, c_v-29
	.byte W03
	.byte VOL, 103
	.byte W06
	.byte 106 @ VOL
	.byte N24, En0, v028
	.byte W06
	.byte VOL, 108
	.byte W02
	.byte PAN, c_v-28
	.byte W04
	.byte VOL, 111
	.byte W06
	.byte 113 @ VOL
	.byte W06
	.byte 116 @ VOL
	.byte N24, En1, v020
	.byte W02
	.byte PAN, c_v-27
	.byte W04
	.byte VOL, 119
	.byte W06
	.byte 121 @ VOL
	.byte W06
	.byte 124 @ VOL
	.byte W01
	.byte PAN, c_v-26
	.byte W05
	.byte N24, Fn0, v028
	.byte W06
	.byte VOL, 124
	.byte W06
	.byte 121 @ VOL
	.byte W01
	.byte PAN, c_v-25
	.byte W05
	.byte VOL, 119
	.byte W06
	.byte 116 @ VOL
	.byte N24, Fn1, v020
	.byte W06
	.byte VOL, 113
	.byte PAN, c_v-24
	.byte W06
	.byte VOL, 111
	.byte W06
	.byte 108 @ VOL
	.byte W06
	.byte 106 @ VOL
	.byte PAN, c_v-23
	.byte N24, En0, v028
	.byte W06
	.byte VOL, 103
	.byte W06
	.byte 100 @ VOL
	.byte W05
	.byte PAN, c_v-22
	.byte W01
	.byte VOL, 98
	.byte W06
	.byte 95 @ VOL
	.byte N24, En1, v020
	.byte W06
	.byte VOL, 92
	.byte W04
	.byte PAN, c_v-21
	.byte W02
	.byte VOL, 90
	.byte W06
	.byte 87 @ VOL
	.byte W06
	.byte 85 @ VOL
	.byte N24, Fn0, v028
	.byte W04
	.byte PAN, c_v-20
	.byte W02
	.byte VOL, 82
	.byte W06
	.byte 79 @ VOL
	.byte W06
	.byte 77 @ VOL
	.byte W03
	.byte PAN, c_v-19
	.byte W03
	.byte VOL, 74
	.byte N24, Fn1, v020
	.byte W06
	.byte VOL, 71
	.byte W06
	.byte 69 @ VOL
	.byte W03
	.byte PAN, c_v-18
	.byte W03
	.byte VOL, 66
	.byte W06
	.byte 64 @ VOL
	.byte N24, En0, v028
	.byte W06
	.byte VOL, 66
	.byte W02
	.byte PAN, c_v-17
	.byte W04
	.byte VOL, 69
	.byte W06
	.byte 71 @ VOL
	.byte W06
	.byte 74 @ VOL
	.byte N24, En1, v020
	.byte W02
	.byte PAN, c_v-16
	.byte W04
	.byte VOL, 77
	.byte W06
	.byte 79 @ VOL
	.byte W06
	.byte 82 @ VOL
	.byte W01
	.byte PAN, c_v-15
	.byte W05
	.byte VOL, 85
	.byte N24, Fn0, v028
	.byte W06
	.byte VOL, 87
	.byte W06
	.byte 90 @ VOL
	.byte W01
	.byte PAN, c_v-14
	.byte W05
	.byte VOL, 92
	.byte W06
	.byte 95 @ VOL
	.byte N24, Fn1, v020
	.byte W06
	.byte VOL, 98
	.byte PAN, c_v-13
	.byte W06
	.byte VOL, 100
	.byte W06
	.byte 103 @ VOL
	.byte W06
	.byte 106 @ VOL
	.byte PAN, c_v-12
	.byte N24, En0, v028
	.byte W06
	.byte VOL, 108
	.byte W06
	.byte 111 @ VOL
	.byte W05
	.byte PAN, c_v-11
	.byte W01
	.byte VOL, 113
	.byte W06
	.byte 116 @ VOL
	.byte N24, En1, v020
	.byte W06
	.byte VOL, 119
	.byte W04
	.byte PAN, c_v-10
	.byte W02
	.byte VOL, 121
	.byte W06
	.byte 124 @ VOL
	.byte W06
	.byte N24, Fn0, v028
	.byte W04
	.byte PAN, c_v-9
	.byte W02
	.byte VOL, 124
	.byte W06
	.byte 121 @ VOL
	.byte W06
	.byte 119 @ VOL
	.byte W03
	.byte PAN, c_v-8
	.byte W03
	.byte VOL, 116
	.byte N24, Fn1, v020
	.byte W06
	.byte VOL, 113
	.byte W06
	.byte 111 @ VOL
	.byte W03
	.byte PAN, c_v-7
	.byte W03
	.byte VOL, 108
	.byte W06
	.byte 106 @ VOL
	.byte N24, En0, v028
	.byte W06
	.byte VOL, 103
	.byte W02
	.byte PAN, c_v-6
	.byte W04
	.byte VOL, 100
	.byte W06
	.byte 98 @ VOL
	.byte W06
	.byte 95 @ VOL
	.byte N24, En1, v020
	.byte W02
	.byte PAN, c_v-5
	.byte W04
	.byte VOL, 92
	.byte W06
	.byte 90 @ VOL
	.byte W06
	.byte 87 @ VOL
	.byte W01
	.byte PAN, c_v-4
	.byte W05
	.byte VOL, 85
	.byte N24, Fn0, v028
	.byte W06
	.byte VOL, 82
	.byte W06
	.byte 79 @ VOL
	.byte W01
	.byte PAN, c_v-3
	.byte W05
	.byte VOL, 77
	.byte W06
	.byte 74 @ VOL
	.byte N24, Fn1, v020
	.byte W06
	.byte VOL, 71
	.byte PAN, c_v-2
	.byte W06
	.byte VOL, 69
	.byte W06
	.byte 66 @ VOL
	.byte W06
	.byte VOICE, 19
	.byte VOL, 127
	.byte PAN, c_v
	.byte PRIO, 0
	.byte N24, En0, v028
	.byte W01
	.byte PAN, c_v-2
	.byte W05
	.byte VOL, 66
	.byte W06
	.byte 69 @ VOL
	.byte W06
	.byte 71 @ VOL
	.byte W06
	.byte 74 @ VOL
	.byte N24, En1, v020
	.byte W06
	.byte VOL, 77
	.byte W04
	.byte PAN, c_v-3
	.byte W01
	.byte c_v-4 @ PAN
	.byte W01
	.byte VOL, 79
	.byte W06
	.byte 82 @ VOL
	.byte W06
	.byte 85 @ VOL
	.byte N24, Fn0, v028
	.byte W06
	.byte VOL, 87
	.byte W06
	.byte 90 @ VOL
	.byte W06
	.byte 92 @ VOL
	.byte W03
	.byte PAN, c_v-5
	.byte W01
	.byte c_v-6 @ PAN
	.byte W02
	.byte PATT
		.word track_68_lbl_276100
	.byte GOTO
		.word track_68_lbl_276131
	.byte W12
	.byte FINE

track_68_1:
	.byte KEYSH, 0
	.byte W72
track_68_lbl_276423:
	.byte VOICE, 19
	.byte VOL, 64
	.byte PAN, c_v-1
	.byte PRIO, 110
	.byte W06
	.byte VOL, 66
	.byte W06
	.byte 69 @ VOL
	.byte N24, As0, v028
	.byte W03
	.byte PAN, c_v
	.byte W03
	.byte VOL, 71
	.byte W06
	.byte 74 @ VOL
	.byte W06
	.byte 77 @ VOL
	.byte W01
	.byte PAN, c_v+1
	.byte W05
	.byte VOL, 79
	.byte N24, As1, v016
	.byte W06
	.byte VOL, 82
	.byte W04
	.byte PAN, c_v+2
	.byte W02
	.byte VOL, 85
	.byte W06
	.byte 87 @ VOL
	.byte W06
	.byte 90 @ VOL
	.byte N24, Bn0, v028
	.byte W02
	.byte PAN, c_v+3
	.byte W04
	.byte VOL, 92
	.byte W06
	.byte PEND
track_68_lbl_27645e:
	.byte VOL, 95
	.byte W05
	.byte PAN, c_v+4
	.byte W01
	.byte VOL, 98
	.byte W06
	.byte 100 @ VOL
	.byte N24, Bn1, v016
	.byte W06
	.byte VOL, 103
	.byte W03
	.byte PAN, c_v+5
	.byte W03
	.byte VOL, 106
	.byte W06
	.byte 108 @ VOL
	.byte W06
	.byte 111 @ VOL
	.byte PAN, c_v+6
	.byte N24, As0, v028
	.byte W06
	.byte VOL, 113
	.byte W06
	.byte 116 @ VOL
	.byte W04
	.byte PAN, c_v+7
	.byte W02
	.byte VOL, 119
	.byte W06
	.byte 121 @ VOL
	.byte N24, As1, v016
	.byte W06
	.byte VOL, 124
	.byte W02
	.byte PAN, c_v+8
	.byte W04
	.byte PEND
track_68_lbl_276495:
	.byte W06
	.byte VOL, 124
	.byte W05
	.byte PAN, c_v+9
	.byte W01
	.byte VOL, 121
	.byte N24, Bn0, v028
	.byte W06
	.byte VOL, 119
	.byte W06
	.byte 116 @ VOL
	.byte W03
	.byte PAN, c_v+10
	.byte W03
	.byte VOL, 113
	.byte W06
	.byte 111 @ VOL
	.byte N24, Bn1, v016
	.byte W06
	.byte VOL, 108
	.byte PAN, c_v+11
	.byte W06
	.byte VOL, 106
	.byte W06
	.byte 103 @ VOL
	.byte W04
	.byte PAN, c_v+12
	.byte W02
	.byte VOL, 100
	.byte N24, As0, v028
	.byte W06
	.byte VOL, 98
	.byte W06
	.byte 95 @ VOL
	.byte W01
	.byte PAN, c_v+13
	.byte W05
	.byte VOL, 92
	.byte W06
	.byte 90 @ VOL
	.byte N24, As1, v016
	.byte W05
	.byte PAN, c_v+14
	.byte W01
	.byte VOL, 87
	.byte W06
	.byte 85 @ VOL
	.byte W06
	.byte 82 @ VOL
	.byte W03
	.byte PAN, c_v+15
	.byte W03
	.byte VOL, 79
	.byte N24, Bn0, v028
	.byte W06
	.byte VOL, 77
	.byte W06
	.byte 74 @ VOL
	.byte PAN, c_v+16
	.byte W06
	.byte VOL, 71
	.byte W06
	.byte 69 @ VOL
	.byte N24, Bn1, v016
	.byte W04
	.byte PAN, c_v+17
	.byte W02
	.byte VOL, 66
	.byte W06
	.byte 64 @ VOL
	.byte W06
	.byte 66 @ VOL
	.byte W01
	.byte PAN, c_v+18
	.byte W05
	.byte VOL, 69
	.byte N24, As0, v028
	.byte W06
	.byte VOL, 71
	.byte W05
	.byte PAN, c_v+19
	.byte W01
	.byte VOL, 74
	.byte W06
	.byte 77 @ VOL
	.byte W06
	.byte 79 @ VOL
	.byte N24, As1, v016
	.byte W02
	.byte PAN, c_v+20
	.byte W04
	.byte VOL, 82
	.byte W06
	.byte 85 @ VOL
	.byte W06
	.byte 87 @ VOL
	.byte PAN, c_v+21
	.byte W06
	.byte VOL, 90
	.byte N24, Bn0, v028
	.byte W06
	.byte VOL, 92
	.byte W04
	.byte PAN, c_v+22
	.byte W02
	.byte VOL, 95
	.byte W06
	.byte 98 @ VOL
	.byte W06
	.byte 100 @ VOL
	.byte N24, Bn1, v016
	.byte W01
	.byte PAN, c_v+23
	.byte W05
	.byte VOL, 103
	.byte W06
	.byte 106 @ VOL
	.byte W05
	.byte PAN, c_v+24
	.byte W01
	.byte VOL, 108
	.byte W06
	.byte 111 @ VOL
	.byte N24, As0, v028
	.byte W06
	.byte VOL, 113
	.byte W02
	.byte PAN, c_v+25
	.byte W04
	.byte VOL, 116
	.byte W06
	.byte 119 @ VOL
	.byte W06
	.byte 121 @ VOL
	.byte PAN, c_v+26
	.byte N24, As1, v016
	.byte W06
	.byte VOL, 124
	.byte W06
	.byte W03
	.byte PAN, c_v+27
	.byte W03
	.byte VOL, 124
	.byte W06
	.byte 121 @ VOL
	.byte N24, Bn0, v028
	.byte W06
	.byte VOL, 119
	.byte W01
	.byte PAN, c_v+28
	.byte W05
	.byte VOL, 116
	.byte W06
	.byte 113 @ VOL
	.byte W05
	.byte PAN, c_v+29
	.byte W01
	.byte VOL, 111
	.byte N24, Bn1, v016
	.byte W06
	.byte VOL, 108
	.byte W06
	.byte 106 @ VOL
	.byte W02
	.byte PAN, c_v+30
	.byte W04
	.byte VOL, 103
	.byte W06
	.byte 100 @ VOL
	.byte N24, As0, v028
	.byte W06
	.byte VOL, 98
	.byte PAN, c_v+31
	.byte W06
	.byte VOL, 95
	.byte W06
	.byte 92 @ VOL
	.byte W03
	.byte PAN, c_v+32
	.byte W03
	.byte VOL, 90
	.byte N24, As1, v016
	.byte W06
	.byte VOL, 87
	.byte W06
	.byte 85 @ VOL
	.byte W01
	.byte PAN, c_v+33
	.byte W05
	.byte VOL, 82
	.byte W06
	.byte 79 @ VOL
	.byte N24, Bn0, v028
	.byte W04
	.byte PAN, c_v+34
	.byte W02
	.byte VOL, 77
	.byte W06
	.byte 74 @ VOL
	.byte W06
	.byte 71 @ VOL
	.byte W02
	.byte PAN, c_v+35
	.byte W04
	.byte VOL, 69
	.byte N24, Bn1, v016
	.byte W06
	.byte VOL, 66
	.byte W06
	.byte 64 @ VOL
	.byte W01
	.byte PAN, c_v+35
	.byte W05
	.byte VOL, 66
	.byte W06
	.byte 69 @ VOL
	.byte N24, As0, v028
	.byte W06
	.byte VOL, 71
	.byte W06
	.byte 74 @ VOL
	.byte W06
	.byte 77 @ VOL
	.byte W01
	.byte PAN, c_v+34
	.byte W01
	.byte c_v+33 @ PAN
	.byte W04
	.byte VOL, 79
	.byte N24, As1, v016
	.byte W06
	.byte VOL, 82
	.byte W06
	.byte 85 @ VOL
	.byte W06
	.byte 87 @ VOL
	.byte W06
	.byte 90 @ VOL
	.byte N24, Bn0, v028
	.byte W02
	.byte PAN, c_v+32
	.byte W01
	.byte c_v+31 @ PAN
	.byte W03
	.byte VOL, 92
	.byte W06
	.byte 95 @ VOL
	.byte W06
	.byte 98 @ VOL
	.byte W06
	.byte 100 @ VOL
	.byte N24, Bn1, v016
	.byte W06
	.byte VOL, 103
	.byte W03
	.byte PAN, c_v+30
	.byte W01
	.byte c_v+29 @ PAN
	.byte W02
	.byte VOL, 106
	.byte W06
	.byte 108 @ VOL
	.byte W06
	.byte 111 @ VOL
	.byte N24, As0, v028
	.byte W06
	.byte VOL, 113
	.byte W06
	.byte 116 @ VOL
	.byte W04
	.byte PAN, c_v+28
	.byte W01
	.byte c_v+27 @ PAN
	.byte W01
	.byte VOL, 119
	.byte W06
	.byte 121 @ VOL
	.byte N24, As1, v016
	.byte W06
	.byte VOL, 124
	.byte W06
	.byte W06
	.byte 124 @ VOL
	.byte W05
	.byte PAN, c_v+26
	.byte W01
	.byte VOL, 121
	.byte PAN, c_v+25
	.byte N24, Bn0, v028
	.byte W06
	.byte VOL, 119
	.byte W06
	.byte 116 @ VOL
	.byte W06
	.byte 113 @ VOL
	.byte W06
	.byte 111 @ VOL
	.byte N24, Bn1, v016
	.byte W06
	.byte VOL, 108
	.byte PAN, c_v+24
	.byte W01
	.byte c_v+23 @ PAN
	.byte W05
	.byte VOL, 106
	.byte W06
	.byte 103 @ VOL
	.byte W06
	.byte 100 @ VOL
	.byte N24, As0, v028
	.byte W06
	.byte VOL, 98
	.byte W06
	.byte 95 @ VOL
	.byte W01
	.byte PAN, c_v+22
	.byte W01
	.byte c_v+21 @ PAN
	.byte W04
	.byte VOL, 92
	.byte W06
	.byte 90 @ VOL
	.byte N24, As1, v016
	.byte W06
	.byte VOL, 87
	.byte W06
	.byte 85 @ VOL
	.byte W06
	.byte 82 @ VOL
	.byte W03
	.byte PAN, c_v+20
	.byte W01
	.byte c_v+19 @ PAN
	.byte W02
	.byte VOL, 79
	.byte N24, Bn0, v028
	.byte W06
	.byte VOL, 77
	.byte W06
	.byte 74 @ VOL
	.byte W06
	.byte 71 @ VOL
	.byte W06
	.byte 69 @ VOL
	.byte N24, Bn1, v016
	.byte W04
	.byte PAN, c_v+18
	.byte W01
	.byte c_v+17 @ PAN
	.byte W01
	.byte VOL, 66
	.byte W06
	.byte 64 @ VOL
	.byte W06
	.byte 66 @ VOL
	.byte W06
	.byte 69 @ VOL
	.byte N24, As0, v028
	.byte W06
	.byte VOL, 71
	.byte W05
	.byte PAN, c_v+16
	.byte W01
	.byte VOL, 74
	.byte PAN, c_v+15
	.byte W06
	.byte VOL, 77
	.byte W06
	.byte 79 @ VOL
	.byte N24, As1, v016
	.byte W06
	.byte VOL, 82
	.byte W06
	.byte 85 @ VOL
	.byte W06
	.byte 87 @ VOL
	.byte PAN, c_v+14
	.byte W01
	.byte c_v+13 @ PAN
	.byte W05
	.byte VOL, 90
	.byte N24, Bn0, v028
	.byte W06
	.byte VOL, 92
	.byte W06
	.byte 95 @ VOL
	.byte W06
	.byte 98 @ VOL
	.byte W06
	.byte 100 @ VOL
	.byte N24, Bn1, v016
	.byte W01
	.byte PAN, c_v+12
	.byte W01
	.byte c_v+11 @ PAN
	.byte W04
	.byte VOL, 103
	.byte W06
	.byte 106 @ VOL
	.byte W06
	.byte 108 @ VOL
	.byte W06
	.byte 111 @ VOL
	.byte N24, As0, v028
	.byte W06
	.byte VOL, 113
	.byte W02
	.byte PAN, c_v+10
	.byte W01
	.byte c_v+9 @ PAN
	.byte W03
	.byte VOL, 116
	.byte W06
	.byte 119 @ VOL
	.byte W06
	.byte 121 @ VOL
	.byte N24, As1, v016
	.byte W06
	.byte VOL, 124
	.byte W06
	.byte W03
	.byte PAN, c_v+8
	.byte W01
	.byte c_v+7 @ PAN
	.byte W02
	.byte VOL, 124
	.byte W06
	.byte 121 @ VOL
	.byte N24, Bn0, v028
	.byte W06
	.byte VOL, 119
	.byte W06
	.byte 116 @ VOL
	.byte W06
	.byte 113 @ VOL
	.byte W05
	.byte PAN, c_v+6
	.byte W01
	.byte VOL, 111
	.byte PAN, c_v+5
	.byte N24, Bn1, v016
	.byte W06
	.byte VOL, 108
	.byte W06
	.byte 106 @ VOL
	.byte W06
	.byte 103 @ VOL
	.byte W06
	.byte 100 @ VOL
	.byte N24, As0, v028
	.byte W06
	.byte VOL, 98
	.byte PAN, c_v+4
	.byte W01
	.byte c_v+3 @ PAN
	.byte W05
	.byte VOL, 95
	.byte W06
	.byte 92 @ VOL
	.byte W06
	.byte 90 @ VOL
	.byte N24, As1, v016
	.byte W06
	.byte VOL, 87
	.byte W06
	.byte 85 @ VOL
	.byte W01
	.byte PAN, c_v+2
	.byte W01
	.byte c_v+1 @ PAN
	.byte W04
	.byte VOL, 82
	.byte W06
	.byte 79 @ VOL
	.byte N24, Bn0, v028
	.byte W06
	.byte VOL, 77
	.byte W06
	.byte 74 @ VOL
	.byte W06
	.byte 71 @ VOL
	.byte W02
	.byte PAN, c_v
	.byte W01
	.byte c_v-1 @ PAN
	.byte W03
	.byte VOL, 69
	.byte N24, Bn1, v016
	.byte W06
	.byte VOL, 66
	.byte W06
	.byte PATT
		.word track_68_lbl_276423
	.byte PATT
		.word track_68_lbl_27645e
	.byte GOTO
		.word track_68_lbl_276495
	.byte W12
	.byte FINE

track_68_2:
	.byte KEYSH, 0
	.byte W72
	.byte VOICE, 19
	.byte VOL, 64
	.byte PAN, c_v-1
	.byte W06
	.byte VOL, 66
	.byte W06
	.byte 69 @ VOL
	.byte W06
	.byte 71 @ VOL
	.byte N12, En0, v008
	.byte W06
	.byte VOL, 74
	.byte W06
	.byte 77 @ VOL
	.byte N12, As0 @ v008
	.byte W06
	.byte VOL, 79
	.byte W06
	.byte 82 @ VOL
	.byte N12, En1 @ v008
	.byte W06
	.byte VOL, 85
	.byte W06
	.byte 87 @ VOL
	.byte N12, As1 @ v008
	.byte W06
	.byte VOL, 90
	.byte W06
	.byte 92 @ VOL
	.byte N12, Fn0 @ v008
	.byte W06
track_68_lbl_276797:
	.byte VOL, 95
	.byte W06
	.byte 98 @ VOL
	.byte N12, Bn0, v008
	.byte W06
	.byte VOL, 100
	.byte W06
	.byte 103 @ VOL
	.byte N12, Fn1 @ v008
	.byte W06
	.byte VOL, 106
	.byte W06
	.byte 108 @ VOL
	.byte N12, Bn1 @ v008
	.byte W06
	.byte VOL, 111
	.byte W06
	.byte 113 @ VOL
	.byte N12, En0 @ v008
	.byte W06
	.byte VOL, 116
	.byte W06
	.byte 119 @ VOL
	.byte N12, As0 @ v008
	.byte W06
	.byte VOL, 121
	.byte W06
	.byte 124 @ VOL
	.byte N12, En1 @ v008
	.byte W06
	.byte PEND
track_68_lbl_2767c3:
	.byte W06
	.byte VOL, 124
	.byte N12, As1, v008
	.byte W06
	.byte VOL, 121
	.byte W06
	.byte 119 @ VOL
	.byte N12, Fn0 @ v008
	.byte W06
	.byte VOL, 116
	.byte W06
	.byte 113 @ VOL
	.byte N12, Bn0 @ v008
	.byte W06
	.byte VOL, 111
	.byte W06
	.byte 108 @ VOL
	.byte N12, Fn1 @ v008
	.byte W06
	.byte VOL, 106
	.byte W06
	.byte 103 @ VOL
	.byte N12, Bn1 @ v008
	.byte W06
	.byte VOL, 100
	.byte W06
	.byte 98 @ VOL
	.byte N12, En0 @ v008
	.byte W06
	.byte PEND
track_68_lbl_2767ee:
	.byte VOL, 95
	.byte W06
	.byte 92 @ VOL
	.byte N12, As0, v008
	.byte W06
	.byte VOL, 90
	.byte W06
	.byte 87 @ VOL
	.byte N12, En1 @ v008
	.byte W06
	.byte VOL, 85
	.byte W06
	.byte 82 @ VOL
	.byte N12, As1 @ v008
	.byte W06
	.byte VOL, 79
	.byte W06
	.byte 77 @ VOL
	.byte N12, Fn0 @ v008
	.byte W06
	.byte VOL, 74
	.byte W06
	.byte 71 @ VOL
	.byte N12, Bn0 @ v008
	.byte W06
	.byte VOL, 69
	.byte W06
	.byte 66 @ VOL
	.byte N12, Fn1 @ v008
	.byte W06
	.byte PEND
track_68_lbl_27681a:
	.byte VOL, 64
	.byte W06
	.byte 66 @ VOL
	.byte N12, Bn1, v008
	.byte W06
	.byte VOL, 69
	.byte W06
	.byte 71 @ VOL
	.byte N12, En0 @ v008
	.byte W06
	.byte VOL, 74
	.byte W06
	.byte 77 @ VOL
	.byte N12, As0 @ v008
	.byte W06
	.byte VOL, 79
	.byte W06
	.byte 82 @ VOL
	.byte N12, En1 @ v008
	.byte W06
	.byte VOL, 85
	.byte W06
	.byte 87 @ VOL
	.byte N12, As1 @ v008
	.byte W06
	.byte VOL, 90
	.byte W06
	.byte 92 @ VOL
	.byte N12, Fn0 @ v008
	.byte W06
	.byte PEND
	.byte PATT
		.word track_68_lbl_276797
	.byte PATT
		.word track_68_lbl_2767c3
	.byte PATT
		.word track_68_lbl_2767ee
	.byte PATT
		.word track_68_lbl_27681a
	.byte PATT
		.word track_68_lbl_276797
	.byte PATT
		.word track_68_lbl_2767c3
	.byte PATT
		.word track_68_lbl_2767ee
	.byte PATT
		.word track_68_lbl_27681a
	.byte PATT
		.word track_68_lbl_276797
	.byte PATT
		.word track_68_lbl_2767c3
	.byte PATT
		.word track_68_lbl_2767ee
	.byte VOICE, 19
	.byte VOL, 64
	.byte PAN, c_v-1
	.byte W06
	.byte VOL, 66
	.byte N12, Bn1, v008
	.byte W06
	.byte VOL, 69
	.byte W06
	.byte 71 @ VOL
	.byte N12, En0 @ v008
	.byte W06
	.byte VOL, 74
	.byte W06
	.byte 77 @ VOL
	.byte N12, As0 @ v008
	.byte W06
	.byte VOL, 79
	.byte W06
	.byte 82 @ VOL
	.byte N12, En1 @ v008
	.byte W06
	.byte VOL, 85
	.byte W06
	.byte 87 @ VOL
	.byte N12, As1 @ v008
	.byte W06
	.byte VOL, 90
	.byte W06
	.byte 92 @ VOL
	.byte N12, Fn0 @ v008
	.byte W06
	.byte PATT
		.word track_68_lbl_276797
	.byte GOTO
		.word track_68_lbl_2767c3
	.byte W12
	.byte FINE

track_68_3:
	.byte KEYSH, 0
	.byte W72
track_68_lbl_2768bc:
	.byte VOICE, 32
	.byte VOL, 56
	.byte PAN, c_v-1
	.byte N12, Bn2, v040
	.byte W18
	.byte Bn2, v012 @ N12
	.byte W18
	.byte Bn2, v008 @ N12
	.byte W36
	.byte PEND
	.byte W72
track_68_lbl_2768ce:
	.byte W72
	.byte W72
	.byte W72
	.byte W72
	.byte W72
	.byte W72
	.byte N12, Bn2, v040
	.byte W18
	.byte Bn2, v012 @ N12
	.byte W18
	.byte Bn2, v008 @ N12
	.byte W36
	.byte W72
	.byte W72
	.byte W72
	.byte W72
	.byte W72
	.byte W72
	.byte W72
	.byte PATT
		.word track_68_lbl_2768bc
	.byte W72
	.byte GOTO
		.word track_68_lbl_2768ce
	.byte FINE

track_68_4:
	.byte KEYSH, 0
	.byte W72
track_68_lbl_2768f4:
	.byte VOICE, 18
	.byte VOL, 127
	.byte PAN, c_v-1
	.byte PRIO, 110
	.byte W72
	.byte PEND
	.byte W72
track_68_lbl_2768ff:
	.byte W72
	.byte W72
	.byte W72
track_68_lbl_276902:
	.byte N08, En2, v024
	.byte W08
	.byte En2, v036 @ N08
	.byte W08
	.byte En2, v048 @ N08
	.byte W08
	.byte N24, En2, v064
	.byte W48
	.byte PEND
	.byte W72
	.byte W72
	.byte W72
	.byte W72
	.byte W72
	.byte W72
	.byte W72
	.byte PATT
		.word track_68_lbl_276902
	.byte W72
	.byte W72
	.byte PATT
		.word track_68_lbl_2768f4
	.byte W72
	.byte GOTO
		.word track_68_lbl_2768ff
	.byte FINE

track_68_5:
	.byte KEYSH, 0
	.byte W72
	.byte VOICE, 13
	.byte VOL, 127
	.byte PAN, c_v-14
	.byte PRIO, 110
	.byte W72
	.byte W72
track_68_lbl_276938:
	.byte W06
	.byte VOL, 124
	.byte W06
	.byte 121 @ VOL
	.byte W06
	.byte 119 @ VOL
	.byte W06
	.byte 116 @ VOL
	.byte N08, Ds2, v004
	.byte W06
	.byte VOL, 113
	.byte W02
	.byte N08, En2, v008
	.byte W04
	.byte VOL, 111
	.byte W04
	.byte N08, Ds2 @ v008
	.byte W02
	.byte VOL, 108
	.byte W06
	.byte 106 @ VOL
	.byte N08, En2, v012
	.byte W06
	.byte VOL, 103
	.byte W02
	.byte N08, Ds2 @ v012
	.byte W04
	.byte VOL, 100
	.byte W04
	.byte N08, En2, v016
	.byte W02
	.byte VOL, 98
	.byte W06
	.byte PEND
track_68_lbl_27696b:
	.byte VOL, 95
	.byte N08, Ds2, v016
	.byte W06
	.byte VOL, 92
	.byte W02
	.byte N08, En2 @ v016
	.byte W04
	.byte VOL, 90
	.byte W04
	.byte N08, Ds2 @ v016
	.byte W02
	.byte VOL, 87
	.byte W06
	.byte 85 @ VOL
	.byte N08, En2 @ v016
	.byte W06
	.byte VOL, 82
	.byte W02
	.byte N08, Ds2 @ v016
	.byte W04
	.byte VOL, 79
	.byte W04
	.byte N07, En2 @ v016
	.byte W02
	.byte VOL, 77
	.byte W05
	.byte N07, Ds2 @ v016
	.byte W01
	.byte VOL, 74
	.byte W06
	.byte 71 @ VOL
	.byte N06, En2 @ v016
	.byte W06
	.byte VOL, 69
	.byte N06, Ds2 @ v016
	.byte W06
	.byte VOL, 66
	.byte N06, En2 @ v016
	.byte W06
	.byte PEND
track_68_lbl_2769a8:
	.byte VOL, 64
	.byte N72, Ds2, v012
	.byte W06
	.byte VOL, 66
	.byte W06
	.byte 69 @ VOL
	.byte W06
	.byte 71 @ VOL
	.byte W06
	.byte 74 @ VOL
	.byte W06
	.byte 77 @ VOL
	.byte W06
	.byte 79 @ VOL
	.byte W06
	.byte 82 @ VOL
	.byte W06
	.byte 85 @ VOL
	.byte W06
	.byte 87 @ VOL
	.byte W06
	.byte 90 @ VOL
	.byte W06
	.byte 92 @ VOL
	.byte W06
	.byte PEND
	.byte W72
	.byte W72
	.byte W72
	.byte W72
	.byte W72
	.byte PATT
		.word track_68_lbl_276938
	.byte PATT
		.word track_68_lbl_27696b
	.byte PATT
		.word track_68_lbl_2769a8
	.byte W72
	.byte W72
	.byte W72
	.byte VOICE, 13
	.byte VOL, 127
	.byte PAN, c_v-1
	.byte PRIO, 110
	.byte W72
	.byte W72
	.byte GOTO
		.word track_68_lbl_276938
	.byte FINE

track_68_6:
	.byte KEYSH, 0
	.byte W72
	.byte VOICE, 13
	.byte VOL, 127
	.byte PAN, c_v+16
	.byte W72
	.byte W72
track_68_lbl_2769f8:
	.byte W06
	.byte VOL, 124
	.byte W06
	.byte 121 @ VOL
	.byte W06
	.byte 119 @ VOL
	.byte W06
	.byte 116 @ VOL
	.byte N08, As1, v004
	.byte W06
	.byte VOL, 113
	.byte W02
	.byte N08, Bn1, v008
	.byte W04
	.byte VOL, 111
	.byte W04
	.byte N08, As1 @ v008
	.byte W02
	.byte VOL, 108
	.byte W06
	.byte 106 @ VOL
	.byte N08, Bn1, v012
	.byte W06
	.byte VOL, 103
	.byte W02
	.byte N08, As1 @ v012
	.byte W04
	.byte VOL, 100
	.byte W04
	.byte N08, Bn1, v016
	.byte W02
	.byte VOL, 98
	.byte W06
	.byte PEND
track_68_lbl_276a2b:
	.byte VOL, 95
	.byte N08, As1, v016
	.byte W06
	.byte VOL, 92
	.byte W02
	.byte N08, Bn1 @ v016
	.byte W04
	.byte VOL, 90
	.byte W04
	.byte N08, As1 @ v016
	.byte W02
	.byte VOL, 87
	.byte W06
	.byte 85 @ VOL
	.byte N08, Bn1 @ v016
	.byte W06
	.byte VOL, 82
	.byte W02
	.byte N08, As1 @ v016
	.byte W04
	.byte VOL, 79
	.byte W04
	.byte N07, Bn1 @ v016
	.byte W02
	.byte VOL, 77
	.byte W05
	.byte N07, As1 @ v016
	.byte W01
	.byte VOL, 74
	.byte W06
	.byte 71 @ VOL
	.byte N06, Bn1 @ v016
	.byte W06
	.byte VOL, 69
	.byte N06, As1 @ v016
	.byte W06
	.byte VOL, 66
	.byte N06, Bn1 @ v016
	.byte W06
	.byte PEND
track_68_lbl_276a68:
	.byte VOL, 64
	.byte N72, As1, v012
	.byte W06
	.byte VOL, 66
	.byte W06
	.byte 69 @ VOL
	.byte W06
	.byte 71 @ VOL
	.byte W06
	.byte 74 @ VOL
	.byte W06
	.byte 77 @ VOL
	.byte W06
	.byte 79 @ VOL
	.byte W06
	.byte 82 @ VOL
	.byte W06
	.byte 85 @ VOL
	.byte W06
	.byte 87 @ VOL
	.byte W06
	.byte 90 @ VOL
	.byte W06
	.byte 92 @ VOL
	.byte W06
	.byte PEND
	.byte W72
	.byte W72
	.byte W72
	.byte W72
	.byte W72
	.byte PATT
		.word track_68_lbl_2769f8
	.byte PATT
		.word track_68_lbl_276a2b
	.byte PATT
		.word track_68_lbl_276a68
	.byte W72
	.byte W72
	.byte W72
	.byte VOICE, 13
	.byte VOL, 127
	.byte PAN, c_v-1
	.byte W72
	.byte W72
	.byte GOTO
		.word track_68_lbl_2769f8
	.byte FINE

track_68_7:
	.byte KEYSH, 0
	.byte W72
track_68_lbl_276aae:
	.byte VOICE, 0
	.byte VOL, 127
	.byte PAN, c_v-1
	.byte PRIO, 110
	.byte W72
	.byte PEND
track_68_lbl_276ab8:
	.byte W24
	.byte N18, Gs2, v024
	.byte W18
	.byte Gs2, v004 @ N18
	.byte W30
	.byte PEND
track_68_lbl_276ac1:
	.byte W72
	.byte W72
	.byte W72
	.byte W72
	.byte W72
	.byte W72
	.byte W72
	.byte PATT
		.word track_68_lbl_276ab8
	.byte W72
	.byte W72
	.byte W72
	.byte W72
	.byte W72
	.byte W72
	.byte PATT
		.word track_68_lbl_276aae
	.byte PATT
		.word track_68_lbl_276ab8
	.byte GOTO
		.word track_68_lbl_276ac1
	.byte FINE

track_68_8:
	.byte KEYSH, 0
	.byte W72
track_68_lbl_276ae6:
	.byte VOICE, 0
	.byte VOL, 127
	.byte PAN, c_v-1
	.byte W72
	.byte PEND
	.byte W72
track_68_lbl_276aef:
	.byte W72
	.byte W60
	.byte N06, Cn3, v048
	.byte W12
	.byte Cn3, v064 @ N06
	.byte W72
	.byte W72
	.byte W72
	.byte W72
	.byte W72
	.byte W72
	.byte W72
	.byte W60
	.byte Cn3, v048 @ N06
	.byte W12
	.byte Cn3, v064 @ N06
	.byte W72
	.byte W72
	.byte W72
	.byte W72
	.byte PATT
		.word track_68_lbl_276ae6
	.byte W72
	.byte GOTO
		.word track_68_lbl_276aef
	.byte FINE

.align 2

track_68:
	.byte 9
	.byte 68
	.byte 130
	.byte 128
	.word 0x80a8554
	.word track_68_0
	.word track_68_1
	.word track_68_2
	.word track_68_3
	.word track_68_4
	.word track_68_5
	.word track_68_6
	.word track_68_7
	.word track_68_8

.align 2
