.align 2

.global track_67

track_67_0:
	.byte KEYSH, 0
	.byte TEMPO, 66
	.byte VOICE, 67
	.byte MOD, 24
	.byte VOL, 127
	.byte BENDR, 12
	.byte LFOS, 120
	.byte PRIO, 110
	.byte BEND, c_v
	.byte N84, Cn2, v064, 54
	.byte W24
	.byte BEND, c_v
	.byte W01
	.byte c_v+1 @ BEND
	.byte W01
	.byte c_v+2 @ BEND
	.byte W01
	.byte c_v+3 @ BEND
	.byte W01
	.byte c_v+5 @ BEND
	.byte W01
	.byte c_v+6 @ BEND
	.byte W01
	.byte c_v+7 @ BEND
	.byte W01
	.byte c_v+9 @ BEND
	.byte W01
	.byte c_v+10 @ BEND
	.byte W01
	.byte c_v+11 @ BEND
	.byte W01
	.byte c_v+13 @ BEND
	.byte W01
	.byte c_v+14 @ BEND
	.byte W01
	.byte c_v+15 @ BEND
	.byte W01
	.byte c_v+16 @ BEND
	.byte W01
	.byte c_v+18 @ BEND
	.byte W01
	.byte c_v+19 @ BEND
	.byte W01
	.byte c_v+20 @ BEND
	.byte W01
	.byte c_v+22 @ BEND
	.byte W01
	.byte c_v+23 @ BEND
	.byte W01
	.byte c_v+24 @ BEND
	.byte W01
	.byte c_v+26 @ BEND
	.byte W01
	.byte c_v+27 @ BEND
	.byte W01
	.byte c_v+28 @ BEND
	.byte W01
	.byte c_v+29 @ BEND
	.byte W01
	.byte VOL, 127
	.byte BEND, c_v+31
	.byte W01
	.byte c_v+32 @ BEND
	.byte W01
	.byte c_v+33 @ BEND
	.byte W01
	.byte c_v+35 @ BEND
	.byte W01
	.byte c_v+36 @ BEND
	.byte W01
	.byte c_v+37 @ BEND
	.byte W01
	.byte VOL, 111
	.byte BEND, c_v+39
	.byte W01
	.byte c_v+40 @ BEND
	.byte W01
	.byte c_v+41 @ BEND
	.byte W01
	.byte c_v+42 @ BEND
	.byte W01
	.byte c_v+44 @ BEND
	.byte W01
	.byte c_v+45 @ BEND
	.byte W01
	.byte VOL, 95
	.byte BEND, c_v+46
	.byte W01
	.byte c_v+48 @ BEND
	.byte W01
	.byte c_v+49 @ BEND
	.byte W01
	.byte c_v+50 @ BEND
	.byte W01
	.byte c_v+52 @ BEND
	.byte W01
	.byte c_v+53 @ BEND
	.byte W01
	.byte VOL, 79
	.byte BEND, c_v+54
	.byte W01
	.byte c_v+55 @ BEND
	.byte W01
	.byte c_v+57 @ BEND
	.byte W01
	.byte c_v+58 @ BEND
	.byte W01
	.byte c_v+59 @ BEND
	.byte W01
	.byte c_v+61 @ BEND
	.byte W13
	.byte VOICE, 0
	.byte MOD, 0
	.byte VOL, 127
	.byte PRIO, 0
	.byte BEND, c_v
	.byte N06, Cn2 @ v064
	.byte W06
	.byte VOL, 121
	.byte W06
	.byte 116 @ VOL
	.byte W06
	.byte 111 @ VOL
	.byte N06 @ Cn2, v064
	.byte W06
	.byte VOL, 106
	.byte N12, Gn2, v052
	.byte W06
	.byte VOL, 100
	.byte W06
	.byte 95 @ VOL
	.byte W06
	.byte 90 @ VOL
	.byte N06, Cn2, v064
	.byte W06
	.byte VOL, 85
	.byte W06
	.byte 79 @ VOL
	.byte W06
	.byte 74 @ VOL
	.byte W12
track_67_lbl_275410:
	.byte VOL, 68
	.byte N06, Cn2, v064
	.byte W06
	.byte VOL, 73
	.byte W06
	.byte 78 @ VOL
	.byte W06
	.byte 83 @ VOL
	.byte N06 @ Cn2, v064
	.byte W06
	.byte VOL, 88
	.byte N12, Gn2, v052
	.byte W06
	.byte VOL, 93
	.byte W06
	.byte 97 @ VOL
	.byte W06
	.byte 102 @ VOL
	.byte N06, Cn2, v064
	.byte W06
	.byte VOL, 107
	.byte W06
	.byte 112 @ VOL
	.byte W06
	.byte 117 @ VOL
	.byte N12, Gn2, v048
	.byte W06
	.byte VOL, 122
	.byte W06
	.byte PEND
track_67_lbl_27543c:
	.byte VOL, 127
	.byte N06, Cn2, v064
	.byte W06
	.byte VOL, 121
	.byte W06
	.byte 116 @ VOL
	.byte W06
	.byte 111 @ VOL
	.byte N06 @ Cn2, v064
	.byte W06
	.byte VOL, 106
	.byte N12, Gn2, v052
	.byte W06
	.byte VOL, 100
	.byte W06
	.byte 95 @ VOL
	.byte W06
	.byte 90 @ VOL
	.byte N06, Cn2, v064
	.byte W06
	.byte VOL, 85
	.byte W06
	.byte 79 @ VOL
	.byte W06
	.byte 74 @ VOL
	.byte W06
	.byte 69 @ VOL
	.byte W06
	.byte PEND
track_67_lbl_275464:
	.byte VOL, 68
	.byte N06, Cn2, v064
	.byte W06
	.byte VOL, 73
	.byte W06
	.byte 78 @ VOL
	.byte W06
	.byte 83 @ VOL
	.byte N06 @ Cn2, v064
	.byte W06
	.byte VOL, 88
	.byte N12, Gn2, v052
	.byte W06
	.byte VOL, 93
	.byte W06
	.byte 97 @ VOL
	.byte W06
	.byte 102 @ VOL
	.byte N06, Cn2, v064
	.byte W06
	.byte VOL, 107
	.byte W06
	.byte 112 @ VOL
	.byte W06
	.byte 117 @ VOL
	.byte N06, Gn2, v036
	.byte W06
	.byte VOL, 122
	.byte N06, Gn2, v048
	.byte W06
	.byte PEND
	.byte PATT
		.word track_67_lbl_27543c
	.byte PATT
		.word track_67_lbl_275410
	.byte PATT
		.word track_67_lbl_27543c
	.byte VOL, 68
	.byte N06, Cn2, v064
	.byte W06
	.byte VOL, 73
	.byte W06
	.byte 78 @ VOL
	.byte W06
	.byte 83 @ VOL
	.byte N06 @ Cn2, v064
	.byte W06
	.byte VOL, 88
	.byte N12, Gn2, v052
	.byte W06
	.byte VOL, 93
	.byte W06
	.byte 97 @ VOL
	.byte W06
	.byte 102 @ VOL
	.byte N06, Cn2, v064
	.byte W06
	.byte VOL, 107
	.byte N06, Gn2, v048
	.byte W06
	.byte VOL, 112
	.byte N06, Gn2, v036
	.byte W06
	.byte VOL, 117
	.byte N06 @ Gn2, v036
	.byte W06
	.byte VOL, 122
	.byte N06, Gn2, v048
	.byte W06
	.byte PATT
		.word track_67_lbl_27543c
	.byte PATT
		.word track_67_lbl_275410
	.byte PATT
		.word track_67_lbl_27543c
	.byte PATT
		.word track_67_lbl_275464
	.byte PATT
		.word track_67_lbl_27543c
	.byte PATT
		.word track_67_lbl_275410
	.byte PATT
		.word track_67_lbl_27543c
	.byte VOL, 68
	.byte W06
	.byte 73 @ VOL
	.byte W06
	.byte 78 @ VOL
	.byte W06
	.byte 83 @ VOL
	.byte W06
	.byte 88 @ VOL
	.byte W06
	.byte 93 @ VOL
	.byte W06
	.byte 97 @ VOL
	.byte W06
	.byte 102 @ VOL
	.byte W06
	.byte 107 @ VOL
	.byte W06
	.byte 112 @ VOL
	.byte W06
	.byte 117 @ VOL
	.byte N06, Gn2, v036
	.byte W06
	.byte VOL, 122
	.byte N06, Gn2, v048
	.byte W06
	.byte VOL, 127
	.byte N06, Cn2, v064
	.byte W06
	.byte VOL, 121
	.byte W06
	.byte 116 @ VOL
	.byte W06
	.byte 111 @ VOL
	.byte N06 @ Cn2, v064
	.byte W06
	.byte VOL, 106
	.byte N12, Gn2, v052
	.byte W06
	.byte VOL, 100
	.byte W06
	.byte 95 @ VOL
	.byte W06
	.byte 90 @ VOL
	.byte N06, Cn2, v064
	.byte W06
	.byte VOL, 85
	.byte W06
	.byte 79 @ VOL
	.byte W06
	.byte 74 @ VOL
	.byte N06 @ Cn2, v064
	.byte W06
	.byte VOL, 69
	.byte W06
	.byte GOTO
		.word track_67_lbl_275410
	.byte FINE

track_67_1:
	.byte KEYSH, 0
	.byte VOICE, 42
	.byte VOL, 64
	.byte PAN, c_v-1
	.byte BENDR, 10
	.byte W01
	.byte VOL, 65
	.byte W01
	.byte 66 @ VOL
	.byte W02
	.byte 67 @ VOL
	.byte W01
	.byte 68 @ VOL
	.byte W01
	.byte 69 @ VOL
	.byte W02
	.byte 70 @ VOL
	.byte W01
	.byte 71 @ VOL
	.byte W01
	.byte 72 @ VOL
	.byte W02
	.byte 73 @ VOL
	.byte BEND, c_v
	.byte N08, An1, v020
	.byte W01
	.byte BEND, c_v+8
	.byte VOL, 74
	.byte W01
	.byte BEND, c_v+17
	.byte VOL, 75
	.byte W01
	.byte BEND, c_v+26
	.byte W01
	.byte VOL, 76
	.byte BEND, c_v+35
	.byte W01
	.byte c_v+44 @ BEND
	.byte VOL, 77
	.byte W01
	.byte BEND, c_v+53
	.byte VOL, 78
	.byte W01
	.byte BEND, c_v+62
	.byte W01
	.byte VOL, 79
	.byte BEND, c_v
	.byte N08, Cn2 @ v020
	.byte W01
	.byte BEND, c_v+8
	.byte VOL, 80
	.byte W01
	.byte BEND, c_v+17
	.byte VOL, 81
	.byte W01
	.byte BEND, c_v+26
	.byte W01
	.byte VOL, 82
	.byte BEND, c_v+35
	.byte W01
	.byte c_v+44 @ BEND
	.byte VOL, 83
	.byte W01
	.byte BEND, c_v+53
	.byte VOL, 84
	.byte W01
	.byte BEND, c_v+62
	.byte W01
	.byte VOL, 85
	.byte BEND, c_v
	.byte N08, Ds2, v028
	.byte W01
	.byte BEND, c_v+8
	.byte VOL, 86
	.byte W01
	.byte BEND, c_v+17
	.byte VOL, 87
	.byte W01
	.byte BEND, c_v+26
	.byte W01
	.byte VOL, 88
	.byte BEND, c_v+35
	.byte W01
	.byte c_v+44 @ BEND
	.byte VOL, 89
	.byte W01
	.byte BEND, c_v+53
	.byte VOL, 90
	.byte W01
	.byte BEND, c_v+62
	.byte W01
	.byte VOL, 91
	.byte BEND, c_v
	.byte N08, Fs2 @ v028
	.byte W01
	.byte BEND, c_v+8
	.byte VOL, 92
	.byte W01
	.byte BEND, c_v+17
	.byte VOL, 93
	.byte W01
	.byte BEND, c_v+26
	.byte W01
	.byte VOL, 94
	.byte BEND, c_v+35
	.byte W01
	.byte c_v+44 @ BEND
	.byte VOL, 95
	.byte W01
	.byte BEND, c_v+53
	.byte VOL, 96
	.byte W01
	.byte BEND, c_v+62
	.byte W01
	.byte VOL, 97
	.byte BEND, c_v
	.byte N08, An2, v032
	.byte W01
	.byte BEND, c_v+8
	.byte VOL, 98
	.byte W01
	.byte BEND, c_v+17
	.byte VOL, 99
	.byte W01
	.byte BEND, c_v+26
	.byte W01
	.byte VOL, 100
	.byte BEND, c_v+35
	.byte W01
	.byte c_v+44 @ BEND
	.byte VOL, 101
	.byte W01
	.byte BEND, c_v+53
	.byte VOL, 102
	.byte W01
	.byte BEND, c_v+62
	.byte W01
	.byte VOL, 103
	.byte BEND, c_v
	.byte N08, Cn3 @ v032
	.byte W01
	.byte BEND, c_v+8
	.byte VOL, 104
	.byte W01
	.byte BEND, c_v+17
	.byte VOL, 105
	.byte W01
	.byte BEND, c_v+26
	.byte W01
	.byte VOL, 106
	.byte BEND, c_v+35
	.byte W01
	.byte c_v+44 @ BEND
	.byte VOL, 107
	.byte W01
	.byte BEND, c_v+53
	.byte VOL, 108
	.byte W01
	.byte BEND, c_v+62
	.byte W01
	.byte VOL, 109
	.byte BEND, c_v
	.byte N06, Ds3, v028
	.byte W01
	.byte BEND, c_v+12
	.byte VOL, 110
	.byte W01
	.byte BEND, c_v+25
	.byte VOL, 111
	.byte W01
	.byte BEND, c_v+37
	.byte W01
	.byte VOL, 112
	.byte BEND, c_v+50
	.byte W01
	.byte c_v+62 @ BEND
	.byte VOL, 113
	.byte W01
	.byte BEND, c_v
	.byte VOL, 114
	.byte N06, Fs3 @ v028
	.byte W01
	.byte BEND, c_v+12
	.byte W01
	.byte VOL, 115
	.byte BEND, c_v+25
	.byte W01
	.byte c_v+37 @ BEND
	.byte VOL, 116
	.byte W01
	.byte BEND, c_v+50
	.byte VOL, 117
	.byte W01
	.byte BEND, c_v+62
	.byte W01
	.byte VOL, 118
	.byte BEND, c_v
	.byte N06, An3, v020
	.byte W01
	.byte BEND, c_v+12
	.byte VOL, 119
	.byte W01
	.byte BEND, c_v+25
	.byte VOL, 120
	.byte W01
	.byte BEND, c_v+37
	.byte W01
	.byte VOL, 121
	.byte BEND, c_v+50
	.byte W01
	.byte c_v+62 @ BEND
	.byte VOL, 122
	.byte W01
	.byte BEND, c_v
	.byte VOL, 123
	.byte N06, Cn4, v012
	.byte W01
	.byte BEND, c_v+12
	.byte W01
	.byte VOL, 124
	.byte BEND, c_v+25
	.byte W01
	.byte c_v+37 @ BEND
	.byte VOL, 125
	.byte W01
	.byte BEND, c_v+50
	.byte VOL, 126
	.byte W01
	.byte BEND, c_v+62
	.byte W01
	.byte VOICE, 22
	.byte VOL, 127
	.byte PAN, c_v-32
	.byte PRIO, 110
	.byte W06
	.byte VOL, 121
	.byte BEND, c_v
	.byte N06, En3, v104
	.byte W06
	.byte VOL, 116
	.byte PAN, c_v-27
	.byte W06
	.byte VOL, 111
	.byte W06
	.byte 106 @ VOL
	.byte PAN, c_v-22
	.byte N06, Dn3 @ v104
	.byte W06
	.byte VOL, 100
	.byte W06
	.byte 95 @ VOL
	.byte PAN, c_v-16
	.byte W06
	.byte VOL, 90
	.byte N06, Gs3 @ v104
	.byte W06
	.byte VOL, 85
	.byte PAN, c_v-11
	.byte W06
	.byte VOL, 79
	.byte N06, Cn4 @ v104
	.byte W06
	.byte VOL, 74
	.byte PAN, c_v-6
	.byte N06, Fs4 @ v104
	.byte W06
	.byte VOL, 69
	.byte N06, Cn5 @ v104
	.byte W06
track_67_lbl_2756f8:
	.byte VOL, 68
	.byte PAN, c_v
	.byte W06
	.byte VOL, 73
	.byte N06, En3, v104
	.byte W06
	.byte VOL, 78
	.byte PAN, c_v+5
	.byte W06
	.byte VOL, 83
	.byte W06
	.byte 88 @ VOL
	.byte PAN, c_v+10
	.byte N06, Dn3 @ v104
	.byte W06
	.byte VOL, 93
	.byte W06
	.byte 97 @ VOL
	.byte PAN, c_v+16
	.byte W06
	.byte VOL, 102
	.byte N06, Gs3 @ v104
	.byte W06
	.byte VOL, 107
	.byte PAN, c_v+21
	.byte W06
	.byte VOL, 112
	.byte N06, Cn4 @ v104
	.byte W06
	.byte VOL, 117
	.byte PAN, c_v+26
	.byte N06, Fs4 @ v104
	.byte W06
	.byte VOL, 122
	.byte N06, Cn5 @ v104
	.byte W06
	.byte PEND
track_67_lbl_275734:
	.byte VOL, 127
	.byte PAN, c_v+32
	.byte W06
	.byte VOL, 121
	.byte N06, Fn3, v104
	.byte W06
	.byte VOL, 116
	.byte PAN, c_v+26
	.byte W06
	.byte VOL, 111
	.byte W06
	.byte 106 @ VOL
	.byte PAN, c_v+21
	.byte N06, Ds3 @ v104
	.byte W06
	.byte VOL, 100
	.byte W06
	.byte 95 @ VOL
	.byte PAN, c_v+16
	.byte W06
	.byte VOL, 90
	.byte N06, An3 @ v104
	.byte W06
	.byte VOL, 85
	.byte PAN, c_v+10
	.byte W06
	.byte VOL, 79
	.byte N06, Cs4 @ v104
	.byte W06
	.byte VOL, 74
	.byte PAN, c_v+5
	.byte N06, Gn4 @ v104
	.byte W06
	.byte VOL, 69
	.byte N06, Cs5 @ v104
	.byte W06
	.byte PEND
track_67_lbl_275770:
	.byte VOL, 68
	.byte PAN, c_v
	.byte W06
	.byte VOL, 73
	.byte N06, Fn3, v104
	.byte W06
	.byte VOL, 78
	.byte PAN, c_v-6
	.byte W06
	.byte VOL, 83
	.byte W06
	.byte 88 @ VOL
	.byte PAN, c_v-11
	.byte N06, Ds3 @ v104
	.byte W06
	.byte VOL, 93
	.byte W06
	.byte 97 @ VOL
	.byte PAN, c_v-16
	.byte W06
	.byte VOL, 102
	.byte N06, An3 @ v104
	.byte W06
	.byte VOL, 107
	.byte PAN, c_v-22
	.byte W06
	.byte VOL, 112
	.byte N06, Cs4 @ v104
	.byte W06
	.byte VOL, 117
	.byte PAN, c_v-27
	.byte N06, Gn4 @ v104
	.byte W06
	.byte VOL, 122
	.byte N06, Cs5 @ v104
	.byte W06
	.byte PEND
track_67_lbl_2757ac:
	.byte VOICE, 22
	.byte VOL, 127
	.byte PAN, c_v-32
	.byte PRIO, 110
	.byte W06
	.byte VOL, 121
	.byte N06, En3, v104
	.byte W06
	.byte VOL, 116
	.byte PAN, c_v-27
	.byte W06
	.byte VOL, 111
	.byte W06
	.byte 106 @ VOL
	.byte PAN, c_v-22
	.byte N06, Dn3 @ v104
	.byte W06
	.byte VOL, 100
	.byte W06
	.byte 95 @ VOL
	.byte PAN, c_v-16
	.byte W06
	.byte VOL, 90
	.byte N06, Gs3 @ v104
	.byte W06
	.byte VOL, 85
	.byte PAN, c_v-11
	.byte W06
	.byte VOL, 79
	.byte N06, Cn4 @ v104
	.byte W06
	.byte VOL, 74
	.byte PAN, c_v-6
	.byte N06, Fs4 @ v104
	.byte W06
	.byte VOL, 69
	.byte N06, Cn5 @ v104
	.byte W06
	.byte PEND
	.byte PATT
		.word track_67_lbl_2756f8
	.byte PATT
		.word track_67_lbl_275734
	.byte PATT
		.word track_67_lbl_275770
	.byte PATT
		.word track_67_lbl_2757ac
	.byte PATT
		.word track_67_lbl_2756f8
	.byte PATT
		.word track_67_lbl_275734
	.byte PATT
		.word track_67_lbl_275770
	.byte PATT
		.word track_67_lbl_2757ac
	.byte PATT
		.word track_67_lbl_2756f8
	.byte PATT
		.word track_67_lbl_275734
	.byte W72
	.byte PATT
		.word track_67_lbl_2757ac
	.byte GOTO
		.word track_67_lbl_2756f8
	.byte W12
	.byte FINE

track_67_2:
	.byte KEYSH, 0
	.byte W84
	.byte VOICE, 22
	.byte VOL, 127
	.byte PAN, c_v+32
	.byte W06
	.byte VOL, 121
	.byte BEND, c_v
	.byte N06, As2, v044
	.byte W06
	.byte VOL, 116
	.byte PAN, c_v+26
	.byte W06
	.byte VOL, 111
	.byte W06
	.byte 106 @ VOL
	.byte PAN, c_v+21
	.byte N06, Gs2 @ v044
	.byte W06
	.byte VOL, 100
	.byte W06
	.byte 95 @ VOL
	.byte PAN, c_v+16
	.byte W06
	.byte VOL, 90
	.byte N06, Cn3 @ v044
	.byte W06
	.byte VOL, 85
	.byte PAN, c_v+10
	.byte W06
	.byte VOL, 79
	.byte N06, Fs3 @ v044
	.byte W06
	.byte VOL, 74
	.byte PAN, c_v+5
	.byte N06, Cn4 @ v044
	.byte W06
	.byte VOL, 69
	.byte N06, Fs4 @ v044
	.byte W06
track_67_lbl_27586d:
	.byte VOL, 68
	.byte PAN, c_v
	.byte W06
	.byte VOL, 73
	.byte N06, As2, v044
	.byte W06
	.byte VOL, 78
	.byte PAN, c_v-6
	.byte W06
	.byte VOL, 83
	.byte W06
	.byte 88 @ VOL
	.byte PAN, c_v-11
	.byte N06, Gs2 @ v044
	.byte W06
	.byte VOL, 93
	.byte W06
	.byte 97 @ VOL
	.byte PAN, c_v-16
	.byte W06
	.byte VOL, 102
	.byte N06, Cn3 @ v044
	.byte W06
	.byte VOL, 107
	.byte PAN, c_v-22
	.byte W06
	.byte VOL, 112
	.byte N06, Fs3 @ v044
	.byte W06
	.byte VOL, 117
	.byte PAN, c_v-27
	.byte N06, Cn4 @ v044
	.byte W06
	.byte VOL, 122
	.byte N06, Fs4 @ v044
	.byte W06
	.byte PEND
track_67_lbl_2758a9:
	.byte VOL, 127
	.byte PAN, c_v-32
	.byte W06
	.byte VOL, 121
	.byte N06, Bn2, v044
	.byte W06
	.byte VOL, 116
	.byte PAN, c_v-27
	.byte W06
	.byte VOL, 111
	.byte W06
	.byte 106 @ VOL
	.byte PAN, c_v-22
	.byte N06, An2 @ v044
	.byte W06
	.byte VOL, 100
	.byte W06
	.byte 95 @ VOL
	.byte PAN, c_v-16
	.byte W06
	.byte VOL, 90
	.byte N06, Cs3 @ v044
	.byte W06
	.byte VOL, 85
	.byte PAN, c_v-11
	.byte W06
	.byte VOL, 79
	.byte N06, Gn3 @ v044
	.byte W06
	.byte VOL, 74
	.byte PAN, c_v-6
	.byte N06, Cs4 @ v044
	.byte W06
	.byte VOL, 69
	.byte N06, Gn4 @ v044
	.byte W06
	.byte PEND
track_67_lbl_2758e5:
	.byte VOL, 68
	.byte PAN, c_v
	.byte W06
	.byte VOL, 73
	.byte N06, Bn2, v044
	.byte W06
	.byte VOL, 78
	.byte PAN, c_v+5
	.byte W06
	.byte VOL, 83
	.byte W06
	.byte 88 @ VOL
	.byte PAN, c_v+10
	.byte N06, An2 @ v044
	.byte W06
	.byte VOL, 93
	.byte W06
	.byte 97 @ VOL
	.byte PAN, c_v+16
	.byte W06
	.byte VOL, 102
	.byte N06, Cs3 @ v044
	.byte W06
	.byte VOL, 107
	.byte PAN, c_v+21
	.byte W06
	.byte VOL, 112
	.byte N06, Gn3 @ v044
	.byte W06
	.byte VOL, 117
	.byte PAN, c_v+26
	.byte N06, Cs4 @ v044
	.byte W06
	.byte VOL, 122
	.byte N06, Gn4 @ v044
	.byte W06
	.byte PEND
track_67_lbl_275921:
	.byte VOICE, 22
	.byte VOL, 127
	.byte PAN, c_v+32
	.byte W06
	.byte VOL, 121
	.byte N06, As2, v044
	.byte W06
	.byte VOL, 116
	.byte PAN, c_v+26
	.byte W06
	.byte VOL, 111
	.byte W06
	.byte 106 @ VOL
	.byte PAN, c_v+21
	.byte N06, Gs2 @ v044
	.byte W06
	.byte VOL, 100
	.byte W06
	.byte 95 @ VOL
	.byte PAN, c_v+16
	.byte W06
	.byte VOL, 90
	.byte N06, Cn3 @ v044
	.byte W06
	.byte VOL, 85
	.byte PAN, c_v+10
	.byte W06
	.byte VOL, 79
	.byte N06, Fs3 @ v044
	.byte W06
	.byte VOL, 74
	.byte PAN, c_v+5
	.byte N06, Cn4 @ v044
	.byte W06
	.byte VOL, 69
	.byte N06, Fs4 @ v044
	.byte W06
	.byte PEND
	.byte PATT
		.word track_67_lbl_27586d
	.byte PATT
		.word track_67_lbl_2758a9
	.byte PATT
		.word track_67_lbl_2758e5
	.byte PATT
		.word track_67_lbl_275921
	.byte PATT
		.word track_67_lbl_27586d
	.byte PATT
		.word track_67_lbl_2758a9
	.byte PATT
		.word track_67_lbl_2758e5
	.byte PATT
		.word track_67_lbl_275921
	.byte PATT
		.word track_67_lbl_27586d
	.byte PATT
		.word track_67_lbl_2758a9
	.byte W72
	.byte PATT
		.word track_67_lbl_275921
	.byte GOTO
		.word track_67_lbl_27586d
	.byte W12
	.byte FINE

track_67_3:
	.byte KEYSH, 0
	.byte W84
	.byte VOICE, 22
	.byte VOL, 127
	.byte PRIO, 110
	.byte W18
	.byte 121 @ VOL
	.byte N06, En3, v036
	.byte W06
	.byte VOL, 116
	.byte W06
	.byte 111 @ VOL
	.byte W06
	.byte 106 @ VOL
	.byte N06, Dn3 @ v036
	.byte W06
	.byte VOL, 100
	.byte W06
	.byte 95 @ VOL
	.byte W06
	.byte 90 @ VOL
	.byte N06, Gs3 @ v036
	.byte W06
	.byte VOL, 85
	.byte W06
	.byte 79 @ VOL
	.byte N06, Cn4 @ v036
	.byte W06
track_67_lbl_2759c6:
	.byte VOL, 74
	.byte N06, Fs4, v036
	.byte W06
	.byte VOL, 69
	.byte N06, Cn5 @ v036
	.byte W06
	.byte VOL, 68
	.byte W06
	.byte 73 @ VOL
	.byte N06, En3 @ v036
	.byte W06
	.byte VOL, 78
	.byte W06
	.byte 83 @ VOL
	.byte W06
	.byte 88 @ VOL
	.byte N06, Dn3 @ v036
	.byte W06
	.byte VOL, 93
	.byte W06
	.byte 97 @ VOL
	.byte W06
	.byte 102 @ VOL
	.byte N06, Gs3 @ v036
	.byte W06
	.byte VOL, 107
	.byte W06
	.byte 112 @ VOL
	.byte N06, Cn4 @ v036
	.byte W06
	.byte PEND
track_67_lbl_2759f2:
	.byte VOL, 117
	.byte N06, Fs4, v036
	.byte W06
	.byte VOL, 122
	.byte N06, Cn5 @ v036
	.byte W06
	.byte VOL, 127
	.byte W06
	.byte 121 @ VOL
	.byte N06, Fn3 @ v036
	.byte W06
	.byte VOL, 116
	.byte W06
	.byte 111 @ VOL
	.byte W06
	.byte 106 @ VOL
	.byte N06, Ds3 @ v036
	.byte W06
	.byte VOL, 100
	.byte W06
	.byte 95 @ VOL
	.byte W06
	.byte 90 @ VOL
	.byte N06, An3 @ v036
	.byte W06
	.byte VOL, 85
	.byte W06
	.byte 79 @ VOL
	.byte N06, Cs4 @ v036
	.byte W06
	.byte PEND
track_67_lbl_275a1e:
	.byte VOL, 74
	.byte N06, Gn4, v036
	.byte W06
	.byte VOL, 69
	.byte N06, Cs5 @ v036
	.byte W06
	.byte VOL, 68
	.byte W06
	.byte 73 @ VOL
	.byte N06, Fn3 @ v036
	.byte W06
	.byte VOL, 78
	.byte W06
	.byte 83 @ VOL
	.byte W06
	.byte 88 @ VOL
	.byte N06, Ds3 @ v036
	.byte W06
	.byte VOL, 93
	.byte W06
	.byte 97 @ VOL
	.byte W06
	.byte 102 @ VOL
	.byte N06, An3 @ v036
	.byte W06
	.byte VOL, 107
	.byte W06
	.byte 112 @ VOL
	.byte N06, Cs4 @ v036
	.byte W06
	.byte PEND
track_67_lbl_275a4a:
	.byte VOL, 117
	.byte N06, Gn4, v036
	.byte W06
	.byte VOL, 122
	.byte N06, Cs5 @ v036
	.byte W06
	.byte VOICE, 22
	.byte VOL, 127
	.byte PRIO, 110
	.byte W06
	.byte 121 @ VOL
	.byte N06, En3 @ v036
	.byte W06
	.byte VOL, 116
	.byte W06
	.byte 111 @ VOL
	.byte W06
	.byte 106 @ VOL
	.byte N06, Dn3 @ v036
	.byte W06
	.byte VOL, 100
	.byte W06
	.byte 95 @ VOL
	.byte W06
	.byte 90 @ VOL
	.byte N06, Gs3 @ v036
	.byte W06
	.byte VOL, 85
	.byte W06
	.byte 79 @ VOL
	.byte N06, Cn4 @ v036
	.byte W06
	.byte PEND
	.byte PATT
		.word track_67_lbl_2759c6
	.byte PATT
		.word track_67_lbl_2759f2
	.byte PATT
		.word track_67_lbl_275a1e
	.byte PATT
		.word track_67_lbl_275a4a
	.byte PATT
		.word track_67_lbl_2759c6
	.byte PATT
		.word track_67_lbl_2759f2
	.byte PATT
		.word track_67_lbl_275a1e
	.byte PATT
		.word track_67_lbl_275a4a
	.byte PATT
		.word track_67_lbl_2759c6
	.byte PATT
		.word track_67_lbl_2759f2
	.byte VOL, 74
	.byte N06, Gn4, v036
	.byte W06
	.byte VOL, 69
	.byte N06, Cs5 @ v036
	.byte W66
	.byte W12
	.byte VOICE, 22
	.byte VOL, 127
	.byte PRIO, 110
	.byte W06
	.byte 121 @ VOL
	.byte N06, En3 @ v036
	.byte W06
	.byte VOL, 116
	.byte W06
	.byte 111 @ VOL
	.byte W06
	.byte 106 @ VOL
	.byte N06, Dn3 @ v036
	.byte W06
	.byte VOL, 100
	.byte W06
	.byte 95 @ VOL
	.byte W06
	.byte 90 @ VOL
	.byte N06, Gs3 @ v036
	.byte W06
	.byte VOL, 85
	.byte W06
	.byte 79 @ VOL
	.byte N06, Cn4 @ v036
	.byte W06
	.byte GOTO
		.word track_67_lbl_2759c6
	.byte W12
	.byte FINE

track_67_4:
	.byte KEYSH, 0
	.byte W84
	.byte VOICE, 42
	.byte PRIO, 110
	.byte W72
track_67_lbl_275aeb:
	.byte W72
	.byte W72
	.byte W72
	.byte W72
	.byte W72
	.byte W72
	.byte W72
	.byte W72
	.byte W72
	.byte W72
	.byte W72
	.byte W72
	.byte W72
	.byte W72
	.byte VOL, 68
	.byte N06, As5, v004, 106
	.byte W06
	.byte VOL, 73
	.byte N06, As5 @ v004
	.byte N06, As6 @ v004
	.byte W06
	.byte VOL, 78
	.byte N06, As5 @ v004
	.byte N06, As6, v008
	.byte W06
	.byte VOL, 83
	.byte N06, As5, v004, 106
	.byte CnM1 @ N06, v004
	.byte W06
	.byte VOL, 88
	.byte N06, As5, v004, 106
	.byte CnM1 @ N06, v004
	.byte W06
	.byte VOL, 93
	.byte N06, As5, v004, 106
	.byte EnM1 @ N06, v004
	.byte W06
	.byte VOL, 97
	.byte N06, As5, v008, 106
	.byte EnM1 @ N06, v008
	.byte W06
	.byte VOL, 102
	.byte N06, As5, v008, 106
	.byte GsM1 @ N06, v008
	.byte W06
	.byte VOL, 107
	.byte N06, As5, v012, 106
	.byte Cn0 @ N06, v012
	.byte W06
	.byte VOL, 112
	.byte N06, As5, v012, 106
	.byte En0 @ N06, v012
	.byte W06
	.byte VOL, 117
	.byte N06, As5, v016, 106
	.byte Gs0 @ N06, v016
	.byte W06
	.byte VOL, 122
	.byte N06, As5, v016, 106
	.byte Cn1 @ N06, v016
	.byte W06
	.byte W72
	.byte GOTO
		.word track_67_lbl_275aeb
	.byte FINE

track_67_5:
	.byte KEYSH, 0
	.byte W84
	.byte VOICE, 42
	.byte W72
track_67_lbl_275b64:
	.byte W72
	.byte W72
	.byte W72
	.byte W72
	.byte W72
	.byte W72
	.byte W72
	.byte W72
	.byte W72
	.byte W72
	.byte W72
	.byte W72
	.byte W72
	.byte W72
	.byte W18
	.byte VOL, 83
	.byte N06, As5, v004, 106
	.byte W06
	.byte VOL, 88
	.byte N06, As5 @ v004
	.byte N06, As6 @ v004
	.byte W06
	.byte VOL, 93
	.byte N06, As5 @ v004
	.byte N06, As6 @ v004
	.byte W06
	.byte VOL, 97
	.byte N06, As5 @ v004
	.byte N06, As6 @ v004
	.byte W06
	.byte VOL, 102
	.byte N06, As5 @ v004
	.byte N06, As6 @ v004
	.byte W06
	.byte VOL, 107
	.byte N06, As5 @ v004
	.byte N06, As6 @ v004
	.byte W06
	.byte VOL, 112
	.byte N06, As5 @ v004
	.byte N06, As6 @ v004
	.byte W06
	.byte VOL, 117
	.byte N06, As5 @ v004
	.byte N06, As6 @ v004
	.byte W06
	.byte VOL, 122
	.byte N06, As5 @ v004
	.byte N06, As6 @ v004
	.byte W06
	.byte VOL, 127
	.byte N06, As5 @ v004
	.byte N06, As6 @ v004
	.byte W06
	.byte VOL, 121
	.byte N06, As5 @ v004
	.byte N06, As6 @ v004
	.byte W06
	.byte VOL, 116
	.byte N06, As5 @ v004
	.byte N06, As6 @ v004
	.byte W60
	.byte GOTO
		.word track_67_lbl_275b64
	.byte FINE

track_67_6:
	.byte KEYSH, 0
	.byte W84
track_67_lbl_275bd0:
	.byte VOICE, 26
	.byte VOL, 127
	.byte N06, As2, v044
	.byte W06
	.byte VOL, 121
	.byte W06
	.byte 116 @ VOL
	.byte N06, As2, v012
	.byte W06
	.byte VOL, 111
	.byte N06, Gs2, v044
	.byte W06
	.byte VOL, 106
	.byte W06
	.byte 100 @ VOL
	.byte N06, Gs2, v012
	.byte W06
	.byte VOL, 95
	.byte N06, Dn3, v044
	.byte W06
	.byte VOL, 90
	.byte W06
	.byte 85 @ VOL
	.byte N06, Dn3, v012
	.byte W06
	.byte VOL, 79
	.byte W06
	.byte 74 @ VOL
	.byte W06
	.byte 69 @ VOL
	.byte W06
	.byte PEND
track_67_lbl_275c04:
	.byte VOL, 68
	.byte N06, As2, v044
	.byte W06
	.byte VOL, 73
	.byte W06
	.byte 78 @ VOL
	.byte N06, As2, v012
	.byte W06
	.byte VOL, 83
	.byte N06, Gs2, v044
	.byte W06
	.byte VOL, 88
	.byte W06
	.byte 93 @ VOL
	.byte N06, Gs2, v012
	.byte W06
	.byte VOL, 97
	.byte N06, Dn3, v044
	.byte W06
	.byte VOL, 102
	.byte W06
	.byte 107 @ VOL
	.byte N06, Dn3, v012
	.byte W06
	.byte VOL, 112
	.byte W06
	.byte 117 @ VOL
	.byte W06
	.byte 122 @ VOL
	.byte W06
	.byte PEND
track_67_lbl_275c36:
	.byte VOL, 127
	.byte N06, Bn2, v044
	.byte W06
	.byte VOL, 121
	.byte W06
	.byte 116 @ VOL
	.byte N06, Bn2, v012
	.byte W06
	.byte VOL, 111
	.byte N06, An2, v044
	.byte W06
	.byte VOL, 106
	.byte W06
	.byte 100 @ VOL
	.byte N06, An2, v012
	.byte W06
	.byte VOL, 95
	.byte N06, Ds3, v044
	.byte W06
	.byte VOL, 90
	.byte W06
	.byte 85 @ VOL
	.byte N06, Ds3, v012
	.byte W06
	.byte VOL, 79
	.byte W06
	.byte 74 @ VOL
	.byte W06
	.byte 69 @ VOL
	.byte W06
	.byte PEND
track_67_lbl_275c68:
	.byte VOL, 68
	.byte N06, Bn2, v044
	.byte W06
	.byte VOL, 73
	.byte W06
	.byte 78 @ VOL
	.byte N06, Bn2, v012
	.byte W06
	.byte VOL, 83
	.byte N06, An2, v044
	.byte W06
	.byte VOL, 88
	.byte W06
	.byte 93 @ VOL
	.byte N06, An2, v012
	.byte W06
	.byte VOL, 97
	.byte N06, Ds3, v044
	.byte W06
	.byte VOL, 102
	.byte W06
	.byte 107 @ VOL
	.byte N06, Ds3, v012
	.byte W06
	.byte VOL, 112
	.byte W06
	.byte 117 @ VOL
	.byte W06
	.byte 122 @ VOL
	.byte W06
	.byte PEND
track_67_lbl_275c9a:
	.byte VOL, 127
	.byte N06, As2, v044
	.byte W06
	.byte VOL, 121
	.byte W06
	.byte 116 @ VOL
	.byte N06, As2, v012
	.byte W06
	.byte VOL, 111
	.byte N06, Gs2, v044
	.byte W06
	.byte VOL, 106
	.byte W06
	.byte 100 @ VOL
	.byte N06, Gs2, v012
	.byte W06
	.byte VOL, 95
	.byte N06, Dn3, v044
	.byte W06
	.byte VOL, 90
	.byte W06
	.byte 85 @ VOL
	.byte N06, Dn3, v012
	.byte W06
	.byte VOL, 79
	.byte W06
	.byte 74 @ VOL
	.byte W06
	.byte 69 @ VOL
	.byte W06
	.byte PEND
	.byte PATT
		.word track_67_lbl_275c04
	.byte PATT
		.word track_67_lbl_275c36
	.byte PATT
		.word track_67_lbl_275c68
	.byte PATT
		.word track_67_lbl_275bd0
	.byte PATT
		.word track_67_lbl_275c04
	.byte PATT
		.word track_67_lbl_275c36
	.byte PATT
		.word track_67_lbl_275c68
	.byte PATT
		.word track_67_lbl_275c9a
	.byte PATT
		.word track_67_lbl_275c04
	.byte PATT
		.word track_67_lbl_275c36
	.byte W72
	.byte VOICE, 26
	.byte VOL, 122
	.byte N06, As2, v044
	.byte W06
	.byte VOL, 121
	.byte W06
	.byte 116 @ VOL
	.byte N06, As2, v012
	.byte W06
	.byte VOL, 111
	.byte N06, Gs2, v044
	.byte W06
	.byte VOL, 106
	.byte W06
	.byte 100 @ VOL
	.byte N06, Gs2, v012
	.byte W06
	.byte VOL, 95
	.byte N06, Dn3, v044
	.byte W06
	.byte VOL, 90
	.byte W06
	.byte 85 @ VOL
	.byte N06, Dn3, v012
	.byte W06
	.byte VOL, 79
	.byte W06
	.byte 74 @ VOL
	.byte W06
	.byte 69 @ VOL
	.byte W06
	.byte GOTO
		.word track_67_lbl_275c04
	.byte FINE

track_67_7:
	.byte KEYSH, 0
	.byte W84
	.byte VOICE, 23
	.byte VOL, 127
	.byte PRIO, 110
	.byte N06, As1, v076
	.byte W06
	.byte VOL, 121
	.byte W06
	.byte 116 @ VOL
	.byte N06, As1, v012
	.byte W06
	.byte VOL, 111
	.byte N06, Gs1, v076
	.byte W06
	.byte VOL, 106
	.byte W06
	.byte 100 @ VOL
	.byte N06, Gs1, v012
	.byte W06
	.byte VOL, 95
	.byte N06, Dn2, v076
	.byte W06
	.byte VOL, 90
	.byte W06
	.byte 85 @ VOL
	.byte N06, Dn2, v012
	.byte W06
	.byte VOL, 79
	.byte W06
	.byte 74 @ VOL
	.byte W06
	.byte 69 @ VOL
	.byte W06
track_67_lbl_275d70:
	.byte VOL, 68
	.byte N06, As1, v076
	.byte W06
	.byte VOL, 73
	.byte W06
	.byte 78 @ VOL
	.byte N06, As1, v012
	.byte W06
	.byte VOL, 83
	.byte N06, Gs1, v076
	.byte W06
	.byte VOL, 88
	.byte W06
	.byte 93 @ VOL
	.byte N06, Gs1, v012
	.byte W06
	.byte VOL, 97
	.byte N06, Dn2, v076
	.byte W06
	.byte VOL, 102
	.byte W06
	.byte 107 @ VOL
	.byte N06, Dn2, v012
	.byte W06
	.byte VOL, 112
	.byte W06
	.byte 117 @ VOL
	.byte W06
	.byte 122 @ VOL
	.byte W06
	.byte PEND
track_67_lbl_275da2:
	.byte VOL, 127
	.byte N06, Bn1, v076
	.byte W06
	.byte VOL, 121
	.byte W06
	.byte 116 @ VOL
	.byte N06, Bn1, v012
	.byte W06
	.byte VOL, 111
	.byte N06, An1, v076
	.byte W06
	.byte VOL, 106
	.byte W06
	.byte 100 @ VOL
	.byte N06, An1, v012
	.byte W06
	.byte VOL, 95
	.byte N06, Ds2, v076
	.byte W06
	.byte VOL, 90
	.byte W06
	.byte 85 @ VOL
	.byte N06, Ds2, v012
	.byte W06
	.byte VOL, 79
	.byte W06
	.byte 74 @ VOL
	.byte W06
	.byte 69 @ VOL
	.byte W06
	.byte PEND
track_67_lbl_275dd4:
	.byte VOL, 68
	.byte N06, Bn1, v076
	.byte W06
	.byte VOL, 73
	.byte W06
	.byte 78 @ VOL
	.byte N06, Bn1, v012
	.byte W06
	.byte VOL, 83
	.byte N06, An1, v076
	.byte W06
	.byte VOL, 88
	.byte W06
	.byte 93 @ VOL
	.byte N06, An1, v012
	.byte W06
	.byte VOL, 97
	.byte N06, Ds2, v076
	.byte W06
	.byte VOL, 102
	.byte W06
	.byte 107 @ VOL
	.byte N06, Ds2, v012
	.byte W06
	.byte VOL, 112
	.byte W06
	.byte 117 @ VOL
	.byte W06
	.byte 122 @ VOL
	.byte W06
	.byte PEND
track_67_lbl_275e06:
	.byte VOL, 127
	.byte N06, As1, v076
	.byte W06
	.byte VOL, 121
	.byte W06
	.byte 116 @ VOL
	.byte N06, As1, v012
	.byte W06
	.byte VOL, 111
	.byte N06, Gs1, v076
	.byte W06
	.byte VOL, 106
	.byte W06
	.byte 100 @ VOL
	.byte N06, Gs1, v012
	.byte W06
	.byte VOL, 95
	.byte N06, Dn2, v076
	.byte W06
	.byte VOL, 90
	.byte W06
	.byte 85 @ VOL
	.byte N06, Dn2, v012
	.byte W06
	.byte VOL, 79
	.byte W06
	.byte 74 @ VOL
	.byte W06
	.byte 69 @ VOL
	.byte W06
	.byte PEND
	.byte PATT
		.word track_67_lbl_275d70
	.byte PATT
		.word track_67_lbl_275da2
	.byte PATT
		.word track_67_lbl_275dd4
	.byte PATT
		.word track_67_lbl_275e06
	.byte PATT
		.word track_67_lbl_275d70
	.byte PATT
		.word track_67_lbl_275da2
	.byte PATT
		.word track_67_lbl_275dd4
	.byte PATT
		.word track_67_lbl_275e06
	.byte PATT
		.word track_67_lbl_275d70
	.byte PATT
		.word track_67_lbl_275da2
	.byte VOL, 68
	.byte W06
	.byte 73 @ VOL
	.byte W06
	.byte 78 @ VOL
	.byte W06
	.byte 83 @ VOL
	.byte W06
	.byte 88 @ VOL
	.byte W06
	.byte 93 @ VOL
	.byte W06
	.byte 97 @ VOL
	.byte W06
	.byte 102 @ VOL
	.byte W06
	.byte 107 @ VOL
	.byte W06
	.byte 112 @ VOL
	.byte W06
	.byte 117 @ VOL
	.byte W06
	.byte 122 @ VOL
	.byte W06
	.byte PATT
		.word track_67_lbl_275e06
	.byte GOTO
		.word track_67_lbl_275d70
	.byte FINE

track_67_8:
	.byte KEYSH, 0
	.byte VOICE, 7
	.byte VOL, 127
	.byte BENDR, 10
	.byte W12
	.byte BEND, c_v
	.byte N08, An1, v024
	.byte W01
	.byte BEND, c_v+8
	.byte W01
	.byte c_v+17 @ BEND
	.byte W01
	.byte c_v+26 @ BEND
	.byte W01
	.byte c_v+35 @ BEND
	.byte W01
	.byte c_v+44 @ BEND
	.byte W01
	.byte c_v+53 @ BEND
	.byte W01
	.byte c_v+62 @ BEND
	.byte W01
	.byte c_v @ BEND
	.byte N08, Cn2 @ v024
	.byte W01
	.byte BEND, c_v+8
	.byte W01
	.byte c_v+17 @ BEND
	.byte W01
	.byte c_v+26 @ BEND
	.byte W01
	.byte c_v+35 @ BEND
	.byte W01
	.byte c_v+44 @ BEND
	.byte W01
	.byte c_v+53 @ BEND
	.byte W01
	.byte c_v+62 @ BEND
	.byte W01
	.byte c_v @ BEND
	.byte N08, Ds2, v032
	.byte W01
	.byte BEND, c_v+8
	.byte W01
	.byte c_v+17 @ BEND
	.byte W01
	.byte c_v+26 @ BEND
	.byte W01
	.byte c_v+35 @ BEND
	.byte W01
	.byte c_v+44 @ BEND
	.byte W01
	.byte c_v+53 @ BEND
	.byte W01
	.byte c_v+62 @ BEND
	.byte W01
	.byte c_v @ BEND
	.byte N08, Fs2 @ v032
	.byte W01
	.byte BEND, c_v+8
	.byte W01
	.byte c_v+17 @ BEND
	.byte W01
	.byte c_v+26 @ BEND
	.byte W01
	.byte c_v+35 @ BEND
	.byte W01
	.byte c_v+44 @ BEND
	.byte W01
	.byte c_v+53 @ BEND
	.byte W01
	.byte c_v+62 @ BEND
	.byte W01
	.byte c_v @ BEND
	.byte N08, An2, v040
	.byte W01
	.byte BEND, c_v+8
	.byte W01
	.byte c_v+17 @ BEND
	.byte W01
	.byte c_v+26 @ BEND
	.byte W01
	.byte c_v+35 @ BEND
	.byte W01
	.byte c_v+44 @ BEND
	.byte W01
	.byte c_v+53 @ BEND
	.byte W01
	.byte c_v+62 @ BEND
	.byte W01
	.byte c_v @ BEND
	.byte N08, Cn3 @ v040
	.byte W01
	.byte BEND, c_v+8
	.byte W01
	.byte c_v+17 @ BEND
	.byte W01
	.byte c_v+26 @ BEND
	.byte W01
	.byte c_v+35 @ BEND
	.byte W01
	.byte c_v+44 @ BEND
	.byte W01
	.byte c_v+53 @ BEND
	.byte W01
	.byte c_v+62 @ BEND
	.byte W01
	.byte c_v @ BEND
	.byte N06, Ds3, v032
	.byte W01
	.byte BEND, c_v+12
	.byte W01
	.byte c_v+25 @ BEND
	.byte W01
	.byte c_v+37 @ BEND
	.byte W01
	.byte c_v+50 @ BEND
	.byte W01
	.byte c_v+62 @ BEND
	.byte W01
	.byte c_v @ BEND
	.byte N06, Fs3 @ v032
	.byte W01
	.byte BEND, c_v+12
	.byte W01
	.byte c_v+25 @ BEND
	.byte W01
	.byte c_v+37 @ BEND
	.byte W01
	.byte c_v+50 @ BEND
	.byte W01
	.byte c_v+62 @ BEND
	.byte W01
	.byte c_v @ BEND
	.byte N06, An3, v024
	.byte W01
	.byte BEND, c_v+12
	.byte W01
	.byte c_v+25 @ BEND
	.byte W01
	.byte c_v+37 @ BEND
	.byte W01
	.byte c_v+50 @ BEND
	.byte W01
	.byte c_v+62 @ BEND
	.byte W01
	.byte c_v @ BEND
	.byte N06, Cn4, v016
	.byte W01
	.byte BEND, c_v+12
	.byte W01
	.byte c_v+25 @ BEND
	.byte W01
	.byte c_v+37 @ BEND
	.byte W01
	.byte c_v+50 @ BEND
	.byte W01
	.byte c_v+62 @ BEND
	.byte W01
	.byte VOICE, 65
	.byte MOD, 6
	.byte VOL, 127
	.byte BENDR, 2
	.byte LFOS, 116
	.byte BEND, c_v
	.byte N72, As4, v044
	.byte W72
track_67_lbl_275f5c:
	.byte N72, As5, v044
	.byte W72
	.byte Bn4 @ N72, v044
	.byte W72
	.byte Bn5 @ N72, v044
	.byte W72
	.byte As4 @ N72, v044
	.byte W72
	.byte As5 @ N72, v044
	.byte W72
	.byte Bn4 @ N72, v044
	.byte W72
	.byte Bn5 @ N72, v044
	.byte W72
	.byte As4 @ N72, v044
	.byte W72
	.byte As5 @ N72, v044
	.byte W72
	.byte Bn4 @ N72, v044
	.byte W72
	.byte Bn5 @ N72, v044
	.byte W72
	.byte As4 @ N72, v044
	.byte W72
	.byte As5 @ N72, v044
	.byte W72
	.byte Bn4 @ N72, v044
	.byte W72
	.byte Bn5 @ N72, v044
	.byte W72
	.byte As4 @ N72, v044
	.byte W72
	.byte GOTO
		.word track_67_lbl_275f5c
	.byte W12
	.byte FINE

track_67_9:
	.byte KEYSH, 0
	.byte VOICE, 8
	.byte VOL, 127
	.byte BENDR, 10
	.byte W12
	.byte BEND, c_v
	.byte N08, Ds1, v024
	.byte W01
	.byte BEND, c_v+8
	.byte W01
	.byte c_v+17 @ BEND
	.byte W01
	.byte c_v+26 @ BEND
	.byte W01
	.byte c_v+35 @ BEND
	.byte W01
	.byte c_v+44 @ BEND
	.byte W01
	.byte c_v+53 @ BEND
	.byte W01
	.byte c_v+62 @ BEND
	.byte W01
	.byte c_v @ BEND
	.byte N08, Fs1 @ v024
	.byte W01
	.byte BEND, c_v+8
	.byte W01
	.byte c_v+17 @ BEND
	.byte W01
	.byte c_v+26 @ BEND
	.byte W01
	.byte c_v+35 @ BEND
	.byte W01
	.byte c_v+44 @ BEND
	.byte W01
	.byte c_v+53 @ BEND
	.byte W01
	.byte c_v+62 @ BEND
	.byte W01
	.byte c_v @ BEND
	.byte N08, An1, v032
	.byte W01
	.byte BEND, c_v+8
	.byte W01
	.byte c_v+17 @ BEND
	.byte W01
	.byte c_v+26 @ BEND
	.byte W01
	.byte c_v+35 @ BEND
	.byte W01
	.byte c_v+44 @ BEND
	.byte W01
	.byte c_v+53 @ BEND
	.byte W01
	.byte c_v+62 @ BEND
	.byte W01
	.byte c_v @ BEND
	.byte N08, Cn2 @ v032
	.byte W01
	.byte BEND, c_v+8
	.byte W01
	.byte c_v+17 @ BEND
	.byte W01
	.byte c_v+26 @ BEND
	.byte W01
	.byte c_v+35 @ BEND
	.byte W01
	.byte c_v+44 @ BEND
	.byte W01
	.byte c_v+53 @ BEND
	.byte W01
	.byte c_v+62 @ BEND
	.byte W01
	.byte c_v @ BEND
	.byte N08, Ds2, v040
	.byte W01
	.byte BEND, c_v+8
	.byte W01
	.byte c_v+17 @ BEND
	.byte W01
	.byte c_v+26 @ BEND
	.byte W01
	.byte c_v+35 @ BEND
	.byte W01
	.byte c_v+44 @ BEND
	.byte W01
	.byte c_v+53 @ BEND
	.byte W01
	.byte c_v+62 @ BEND
	.byte W01
	.byte c_v @ BEND
	.byte N08, Fs2 @ v040
	.byte W01
	.byte BEND, c_v+8
	.byte W01
	.byte c_v+17 @ BEND
	.byte W01
	.byte c_v+26 @ BEND
	.byte W01
	.byte c_v+35 @ BEND
	.byte W01
	.byte c_v+44 @ BEND
	.byte W01
	.byte c_v+53 @ BEND
	.byte W01
	.byte c_v+62 @ BEND
	.byte W01
	.byte c_v @ BEND
	.byte N06, An2, v032
	.byte W01
	.byte BEND, c_v+12
	.byte W01
	.byte c_v+25 @ BEND
	.byte W01
	.byte c_v+37 @ BEND
	.byte W01
	.byte c_v+50 @ BEND
	.byte W01
	.byte c_v+62 @ BEND
	.byte W01
	.byte c_v @ BEND
	.byte N06, Cn3 @ v032
	.byte W01
	.byte BEND, c_v+12
	.byte W01
	.byte c_v+25 @ BEND
	.byte W01
	.byte c_v+37 @ BEND
	.byte W01
	.byte c_v+50 @ BEND
	.byte W01
	.byte c_v+62 @ BEND
	.byte W01
	.byte c_v @ BEND
	.byte N06, Ds3, v024
	.byte W01
	.byte BEND, c_v+12
	.byte W01
	.byte c_v+25 @ BEND
	.byte W01
	.byte c_v+37 @ BEND
	.byte W01
	.byte c_v+50 @ BEND
	.byte W01
	.byte c_v+62 @ BEND
	.byte W01
	.byte c_v @ BEND
	.byte N06, Fs3, v016
	.byte W01
	.byte BEND, c_v+12
	.byte W01
	.byte c_v+25 @ BEND
	.byte W01
	.byte c_v+37 @ BEND
	.byte W01
	.byte c_v+50 @ BEND
	.byte W01
	.byte c_v+62 @ BEND
	.byte W01
	.byte VOICE, 66
	.byte MOD, 6
	.byte VOL, 127
	.byte BENDR, 2
	.byte LFOS, 116
	.byte BEND, c_v+6
	.byte W12
	.byte N72, As4, v028
	.byte W60
track_67_lbl_276054:
	.byte W12
	.byte N72, As5, v028
	.byte W60
	.byte W12
	.byte Bn4 @ N72, v028
	.byte W60
	.byte W12
	.byte Bn5 @ N72, v028
	.byte W60
	.byte W12
	.byte As4 @ N72, v028
	.byte W60
	.byte W12
	.byte As5 @ N72, v028
	.byte W60
	.byte W12
	.byte Bn4 @ N72, v028
	.byte W60
	.byte W12
	.byte Bn5 @ N72, v028
	.byte W60
	.byte W12
	.byte As4 @ N72, v028
	.byte W60
	.byte W12
	.byte As5 @ N72, v028
	.byte W60
	.byte W12
	.byte Bn4 @ N72, v028
	.byte W60
	.byte W12
	.byte Bn5 @ N72, v028
	.byte W60
	.byte W12
	.byte As4 @ N72, v028
	.byte W60
	.byte W12
	.byte As5 @ N72, v028
	.byte W60
	.byte W12
	.byte Bn4 @ N72, v028
	.byte W60
	.byte W12
	.byte Bn5 @ N72, v028
	.byte W60
	.byte W12
	.byte As4 @ N72, v028
	.byte W60
	.byte GOTO
		.word track_67_lbl_276054
	.byte W12
	.byte FINE

.align 2

track_67:
	.byte 10
	.byte 67
	.byte 130
	.byte 128
	.word 0x80a8554
	.word track_67_0
	.word track_67_1
	.word track_67_2
	.word track_67_3
	.word track_67_4
	.word track_67_5
	.word track_67_6
	.word track_67_7
	.word track_67_8
	.word track_67_9

.align 2
