.align 2

.global track_16

track_16_0:
	.byte KEYSH, 0
	.byte TEMPO, 57
	.byte VOICE, 21
	.byte VOL, 56
	.byte PRIO, 110
	.byte N12, Fn3, v056
	.byte W12
	.byte As3 @ N12, v056
	.byte W12
	.byte Cn4 @ N12, v056
	.byte W12
	.byte Dn4 @ N12, v056
	.byte W12
	.byte En4 @ N12, v056
	.byte W12
	.byte Cn4 @ N12, v056
	.byte W12
	.byte Gn3 @ N12, v056
	.byte W12
	.byte Cn4 @ N12, v056
	.byte W12
	.byte N13, Fn4, v048
	.byte W13
	.byte N14, Dn4, v056
	.byte W14
	.byte N16, As3 @ v056
	.byte W16
	.byte N19, Gn3 @ v056
	.byte W05
	.byte VOL, 55
	.byte W01
	.byte 54 @ VOL
	.byte W01
	.byte 53 @ VOL
	.byte W04
	.byte 52 @ VOL
	.byte W03
	.byte 51 @ VOL
	.byte W03
	.byte 51 @ VOL
	.byte W02
	.byte TIE, An3, v064
	.byte W02
	.byte VOL, 50
	.byte W03
	.byte 49 @ VOL
	.byte W03
	.byte 48 @ VOL
	.byte W04
	.byte 47 @ VOL
	.byte W03
	.byte 46 @ VOL
	.byte W03
	.byte 45 @ VOL
	.byte W04
	.byte 44 @ VOL
	.byte W03
	.byte 43 @ VOL
	.byte W03
	.byte 42 @ VOL
	.byte W04
	.byte 41 @ VOL
	.byte W02
	.byte W01
	.byte 40 @ VOL
	.byte W04
	.byte 39 @ VOL
	.byte W03
	.byte 38 @ VOL
	.byte W03
	.byte 37 @ VOL
	.byte W03
	.byte 37 @ VOL
	.byte W01
	.byte 36 @ VOL
	.byte W03
	.byte 35 @ VOL
	.byte W03
	.byte 34 @ VOL
	.byte W04
	.byte 34 @ VOL
	.byte W03
	.byte 33 @ VOL
	.byte W03
	.byte 32 @ VOL
	.byte W04
	.byte 31 @ VOL
	.byte W03
	.byte 30 @ VOL
	.byte W04
	.byte 29 @ VOL
	.byte W03
	.byte 28 @ VOL
	.byte W03
	.byte 27 @ VOL
	.byte W04
	.byte 26 @ VOL
	.byte W03
	.byte 25 @ VOL
	.byte W03
	.byte 24 @ VOL
	.byte W04
	.byte 23 @ VOL
	.byte W03
	.byte 22 @ VOL
	.byte W03
	.byte 21 @ VOL
	.byte W04
	.byte 20 @ VOL
	.byte W03
	.byte 19 @ VOL
	.byte W03
	.byte 18 @ VOL
	.byte W04
	.byte 17 @ VOL
	.byte W04
	.byte EOT @ An3, v064
	.byte W10
	.byte W32
	.byte W03
	.byte 0xB6

track_16_1:
	.byte KEYSH, 0
	.byte VOICE, 14
	.byte VOL, 75
	.byte BENDR, 0
	.byte PRIO, 109
	.byte N04, Fn1, v056
	.byte W12
	.byte As1 @ N04, v056
	.byte W12
	.byte Cn2 @ N04, v056
	.byte W12
	.byte Dn2 @ N04, v056
	.byte W12
	.byte En2 @ N04, v056
	.byte W12
	.byte Cn2 @ N04, v056
	.byte W12
	.byte Gn1 @ N04, v056
	.byte W12
	.byte Cn2 @ N04, v056
	.byte W12
	.byte Fn2, v048 @ N04
	.byte W13
	.byte Dn2, v056 @ N04
	.byte W14
	.byte As1 @ N04, v056
	.byte W16
	.byte Gn1 @ N04, v056
	.byte W06
	.byte VOL, 81
	.byte W01
	.byte 80 @ VOL
	.byte W01
	.byte 79 @ VOL
	.byte W01
	.byte 78 @ VOL
	.byte W01
	.byte 77 @ VOL
	.byte W02
	.byte 76 @ VOL
	.byte W01
	.byte 75 @ VOL
	.byte W01
	.byte 74 @ VOL
	.byte W01
	.byte 73 @ VOL
	.byte W01
	.byte 72 @ VOL
	.byte W01
	.byte 71 @ VOL
	.byte W01
	.byte 70 @ VOL
	.byte W01
	.byte 69 @ VOL
	.byte TIE, An1, v064
	.byte W01
	.byte VOL, 68
	.byte W01
	.byte 68 @ VOL
	.byte W01
	.byte 67 @ VOL
	.byte W01
	.byte 66 @ VOL
	.byte W01
	.byte 65 @ VOL
	.byte W02
	.byte 64 @ VOL
	.byte W01
	.byte 63 @ VOL
	.byte W01
	.byte 62 @ VOL
	.byte W01
	.byte 61 @ VOL
	.byte W01
	.byte 60 @ VOL
	.byte W01
	.byte 59 @ VOL
	.byte W01
	.byte 58 @ VOL
	.byte W01
	.byte 57 @ VOL
	.byte W01
	.byte 56 @ VOL
	.byte W01
	.byte 55 @ VOL
	.byte W01
	.byte 54 @ VOL
	.byte W01
	.byte 53 @ VOL
	.byte W01
	.byte 52 @ VOL
	.byte W01
	.byte 51 @ VOL
	.byte W02
	.byte 51 @ VOL
	.byte W01
	.byte 50 @ VOL
	.byte W01
	.byte 49 @ VOL
	.byte W01
	.byte 48 @ VOL
	.byte W01
	.byte 47 @ VOL
	.byte W01
	.byte 46 @ VOL
	.byte W01
	.byte 45 @ VOL
	.byte W01
	.byte 44 @ VOL
	.byte W01
	.byte 43 @ VOL
	.byte W01
	.byte 42 @ VOL
	.byte W01
	.byte 41 @ VOL
	.byte W01
	.byte 40 @ VOL
	.byte W01
	.byte 39 @ VOL
	.byte W02
	.byte 38 @ VOL
	.byte W01
	.byte 37 @ VOL
	.byte W01
	.byte 36 @ VOL
	.byte W01
	.byte 35 @ VOL
	.byte W01
	.byte 34 @ VOL
	.byte W01
	.byte 34 @ VOL
	.byte W01
	.byte 33 @ VOL
	.byte W01
	.byte 32 @ VOL
	.byte W01
	.byte 31 @ VOL
	.byte W01
	.byte 30 @ VOL
	.byte W01
	.byte 29 @ VOL
	.byte W01
	.byte 28 @ VOL
	.byte W01
	.byte 27 @ VOL
	.byte W01
	.byte 26 @ VOL
	.byte W02
	.byte 25 @ VOL
	.byte W01
	.byte 24 @ VOL
	.byte W01
	.byte 23 @ VOL
	.byte W01
	.byte 22 @ VOL
	.byte W01
	.byte 21 @ VOL
	.byte W01
	.byte 20 @ VOL
	.byte W01
	.byte 19 @ VOL
	.byte W01
	.byte 18 @ VOL
	.byte W01
	.byte 17 @ VOL
	.byte W01
	.byte 17 @ VOL
	.byte W01
	.byte 16 @ VOL
	.byte W01
	.byte 15 @ VOL
	.byte W01
	.byte 14 @ VOL
	.byte W02
	.byte 13 @ VOL
	.byte W01
	.byte 12 @ VOL
	.byte W01
	.byte 11 @ VOL
	.byte W01
	.byte 10 @ VOL
	.byte W01
	.byte 9 @ VOL
	.byte W02
	.byte 8 @ VOL
	.byte W48
	.byte W01
	.byte EOT @ An1, v064
	.byte W10
	.byte W32
	.byte W03
	.byte 0xB6

track_16_2:
	.byte KEYSH, 0
	.byte PRIO, 30
	.byte W17
	.byte VOICE, 14
	.byte VOL, 60
	.byte BENDR, 0
	.byte N04, Fn1, v052
	.byte W12
	.byte As1 @ N04, v052
	.byte W12
	.byte Cn2 @ N04, v052
	.byte W12
	.byte Dn2 @ N04, v052
	.byte W12
	.byte En2 @ N04, v052
	.byte W12
	.byte Cn2 @ N04, v052
	.byte W12
	.byte Gn1 @ N04, v052
	.byte W07
	.byte W05
	.byte Cn2 @ N04, v052
	.byte W13
	.byte Fn2 @ N04, v052
	.byte W12
	.byte Dn2 @ N04, v052
	.byte W12
	.byte As1 @ N04, v052
	.byte W12
	.byte Gn1 @ N04, v052
	.byte W42
	.byte W96
	.byte W32
	.byte W03
	.byte 0xB6

track_16_3:
	.byte KEYSH, 0
	.byte VOICE, 26
	.byte VOL, 94
	.byte PRIO, 108
	.byte N48, As1, v092
	.byte W48
	.byte An1 @ N48, v092
	.byte W48
	.byte N60, Gn1 @ v092
	.byte W60
	.byte W02
	.byte TIE, Dn1, v100
	.byte W32
	.byte W02
	.byte W72
	.byte EOT @ Dn1, v100
	.byte W24
	.byte W32
	.byte W03
	.byte 0xB6

track_16_4:
	.byte KEYSH, 0
	.byte VOICE, 24
	.byte VOL, 94
	.byte PRIO, 29
	.byte N44, As1, v052
	.byte W48
	.byte An1 @ N44, v052
	.byte W48
	.byte N60, Gn1 @ v052
	.byte W60
	.byte W02
	.byte VOICE, 10
	.byte VOL, 94
	.byte N36, Cn3, v100
	.byte W32
	.byte W02
	.byte W02
	.byte VOICE, 9
	.byte VOL, 94
	.byte TIE @ Cn3, v100
	.byte W60
	.byte W01
	.byte VOL, 88
	.byte W01
	.byte 86 @ VOL
	.byte W01
	.byte 85 @ VOL
	.byte W01
	.byte 83 @ VOL
	.byte W01
	.byte 81 @ VOL
	.byte W01
	.byte 79 @ VOL
	.byte W01
	.byte 78 @ VOL
	.byte W01
	.byte 76 @ VOL
	.byte W01
	.byte 74 @ VOL
	.byte W01
	.byte 72 @ VOL
	.byte W01
	.byte 70 @ VOL
	.byte W01
	.byte 69 @ VOL
	.byte W01
	.byte 68 @ VOL
	.byte W01
	.byte 66 @ VOL
	.byte W01
	.byte 64 @ VOL
	.byte W01
	.byte 62 @ VOL
	.byte W01
	.byte 61 @ VOL
	.byte W01
	.byte 59 @ VOL
	.byte W01
	.byte 57 @ VOL
	.byte W01
	.byte 55 @ VOL
	.byte W01
	.byte 53 @ VOL
	.byte W01
	.byte 51 @ VOL
	.byte W01
	.byte 51 @ VOL
	.byte W01
	.byte 49 @ VOL
	.byte W01
	.byte 47 @ VOL
	.byte W01
	.byte 45 @ VOL
	.byte W01
	.byte 43 @ VOL
	.byte W01
	.byte 42 @ VOL
	.byte W01
	.byte 40 @ VOL
	.byte W01
	.byte 38 @ VOL
	.byte W01
	.byte 36 @ VOL
	.byte W01
	.byte 34 @ VOL
	.byte W01
	.byte 33 @ VOL
	.byte W01
	.byte 32 @ VOL
	.byte W01
	.byte 30 @ VOL
	.byte W01
	.byte 28 @ VOL
	.byte W01
	.byte 26 @ VOL
	.byte W01
	.byte 24 @ VOL
	.byte W01
	.byte 23 @ VOL
	.byte W01
	.byte 21 @ VOL
	.byte W01
	.byte 19 @ VOL
	.byte W01
	.byte 17 @ VOL
	.byte W01
	.byte 16 @ VOL
	.byte W01
	.byte 15 @ VOL
	.byte W24
	.byte W01
	.byte EOT @ Cn3, v100
	.byte 0xB6

track_16_5:
	.byte KEYSH, 0
	.byte VOICE, 3
	.byte VOL, 66
	.byte PRIO, 30
	.byte N10, Fn3, v052
	.byte W12
	.byte As3 @ N10, v052
	.byte W12
	.byte Cn4 @ N10, v052
	.byte W12
	.byte Dn4 @ N10, v052
	.byte W12
	.byte En4 @ N10, v052
	.byte W12
	.byte Cn4 @ N10, v052
	.byte W12
	.byte Gn3 @ N10, v052
	.byte W12
	.byte Cn4 @ N10, v052
	.byte W12
	.byte N11, Fn4, v040
	.byte W13
	.byte N12, Dn4, v052
	.byte W14
	.byte N14, As3 @ v052
	.byte W16
	.byte N17, Gn3 @ v052
	.byte W19
	.byte TIE, An3, v032
	.byte W32
	.byte W02
	.byte W84
	.byte W02
	.byte EOT @ An3, v032
	.byte W10
	.byte W32
	.byte W03
	.byte 0xB6

track_16_6:
	.byte KEYSH, 0
	.byte VOICE, 1
	.byte VOL, 66
	.byte PRIO, 29
	.byte N10, As2, v080
	.byte W12
	.byte Fn3, v060 @ N10
	.byte W12
	.byte N10 @ Fn3, v060
	.byte W12
	.byte Gn3 @ N10, v060
	.byte W12
	.byte Cn4 @ N10, v060
	.byte W12
	.byte Gn3 @ N10, v060
	.byte W12
	.byte Cn3 @ N10, v060
	.byte W12
	.byte Gn3 @ N10, v060
	.byte W12
	.byte N11, As3, v052
	.byte W13
	.byte N12, Gn3, v060
	.byte W14
	.byte N14, Fn3 @ v060
	.byte W16
	.byte N17, Cn3 @ v060
	.byte W19
	.byte TIE, Dn3, v040
	.byte W32
	.byte W02
	.byte W84
	.byte W02
	.byte EOT @ Dn3, v040
	.byte W10
	.byte W32
	.byte W03
	.byte 0xB6

.align 2

track_16:
	.byte 7
	.byte 16
	.byte 130
	.byte 128
	.word 0x80a6094
	.word track_16_0
	.word track_16_1
	.word track_16_2
	.word track_16_3
	.word track_16_4
	.word track_16_5
	.word track_16_6

.align 2
