.align 2

.global track_87

track_87_0:
	.byte KEYSH, 0
	.byte TEMPO, 90
	.byte VOICE, 3
	.byte VOL, 25
	.byte PAN, c_v
	.byte PRIO, 110
	.byte TIE, Fn4, v020
	.byte W11
	.byte VOL, 26
	.byte W13
	.byte 28 @ VOL
	.byte W14
	.byte 29 @ VOL
	.byte W13
	.byte 31 @ VOL
	.byte W14
	.byte 32 @ VOL
	.byte W13
	.byte 34 @ VOL
	.byte W14
	.byte 35 @ VOL
	.byte W04
	.byte W02
	.byte 36 @ VOL
	.byte W14
	.byte 37 @ VOL
	.byte W20
	.byte 39 @ VOL
	.byte W11
	.byte 38 @ VOL
	.byte W09
	.byte 36 @ VOL
	.byte W09
	.byte 35 @ VOL
	.byte W10
	.byte 34 @ VOL
	.byte W09
	.byte 32 @ VOL
	.byte W10
	.byte 31 @ VOL
	.byte W02
	.byte W07
	.byte 29 @ VOL
	.byte W09
	.byte 28 @ VOL
	.byte W10
	.byte 26 @ VOL
	.byte W09
	.byte 25 @ VOL
	.byte W10
	.byte 24 @ VOL
	.byte W09
	.byte 22 @ VOL
	.byte W09
	.byte 21 @ VOL
	.byte W10
	.byte 19 @ VOL
	.byte W09
	.byte 18 @ VOL
	.byte W10
	.byte 17 @ VOL
	.byte W04
	.byte EOT @ Fn4, v020
	.byte TIE, Bn3 @ v020
	.byte W05
	.byte VOL, 15
	.byte W04
	.byte 14 @ VOL
	.byte W04
	.byte 15 @ VOL
	.byte W04
	.byte 16 @ VOL
	.byte W04
	.byte 17 @ VOL
	.byte W04
	.byte 17 @ VOL
	.byte W04
	.byte 18 @ VOL
	.byte W05
	.byte 19 @ VOL
	.byte W04
	.byte 19 @ VOL
	.byte W04
	.byte 20 @ VOL
	.byte W04
	.byte 21 @ VOL
	.byte W04
	.byte 21 @ VOL
	.byte W04
	.byte 22 @ VOL
	.byte W05
	.byte 23 @ VOL
	.byte W04
	.byte 24 @ VOL
	.byte W04
	.byte 24 @ VOL
	.byte W04
	.byte 25 @ VOL
	.byte W04
	.byte 26 @ VOL
	.byte W04
	.byte 26 @ VOL
	.byte W04
	.byte 27 @ VOL
	.byte W05
	.byte 28 @ VOL
	.byte W04
	.byte 29 @ VOL
	.byte W04
	.byte W04
	.byte 30 @ VOL
	.byte W04
	.byte 31 @ VOL
	.byte W04
	.byte 31 @ VOL
	.byte W05
	.byte 32 @ VOL
	.byte W04
	.byte 33 @ VOL
	.byte W04
	.byte 34 @ VOL
	.byte W04
	.byte 34 @ VOL
	.byte W04
	.byte 35 @ VOL
	.byte W04
	.byte 36 @ VOL
	.byte W01
	.byte 35 @ VOL
	.byte W01
	.byte 35 @ VOL
	.byte W03
	.byte 34 @ VOL
	.byte W04
	.byte 32 @ VOL
	.byte W04
	.byte 31 @ VOL
	.byte W04
	.byte 29 @ VOL
	.byte W04
	.byte 28 @ VOL
	.byte W04
	.byte 26 @ VOL
	.byte W04
	.byte 25 @ VOL
	.byte W04
	.byte 24 @ VOL
	.byte W04
	.byte 22 @ VOL
	.byte W04
	.byte 21 @ VOL
	.byte W04
	.byte 19 @ VOL
	.byte W05
	.byte 18 @ VOL
	.byte W04
	.byte 17 @ VOL
	.byte W05
	.byte EOT @ Bn3, v020
track_87_lbl_26caa6:
	.byte VOL, 19
	.byte TIE, Fs4, v028
	.byte W96
	.byte W68
	.byte VOL, 21
	.byte W11
	.byte 19 @ VOL
	.byte W13
	.byte 18 @ VOL
	.byte W04
	.byte W09
	.byte 17 @ VOL
	.byte W13
	.byte 15 @ VOL
	.byte W13
	.byte 14 @ VOL
	.byte W19
	.byte 15 @ VOL
	.byte W12
	.byte 17 @ VOL
	.byte W12
	.byte 18 @ VOL
	.byte W12
	.byte 19 @ VOL
	.byte W06
	.byte EOT @ Fs4, v028
	.byte TIE, Fn4, v020
	.byte W06
	.byte VOL, 21
	.byte W11
	.byte 22 @ VOL
	.byte W12
	.byte 24 @ VOL
	.byte W12
	.byte 25 @ VOL
	.byte W12
	.byte 26 @ VOL
	.byte W12
	.byte 28 @ VOL
	.byte W12
	.byte 29 @ VOL
	.byte W12
	.byte 31 @ VOL
	.byte W05
	.byte 29 @ VOL
	.byte W02
	.byte W03
	.byte 29 @ VOL
	.byte W08
	.byte 28 @ VOL
	.byte W09
	.byte 27 @ VOL
	.byte W09
	.byte 26 @ VOL
	.byte W08
	.byte 26 @ VOL
	.byte W09
	.byte 25 @ VOL
	.byte W08
	.byte 24 @ VOL
	.byte W09
	.byte 24 @ VOL
	.byte W09
	.byte 23 @ VOL
	.byte W08
	.byte 22 @ VOL
	.byte W09
	.byte 21 @ VOL
	.byte W07
	.byte W01
	.byte 21 @ VOL
	.byte W09
	.byte 20 @ VOL
	.byte W09
	.byte 19 @ VOL
	.byte W08
	.byte 19 @ VOL
	.byte W09
	.byte 18 @ VOL
	.byte W08
	.byte 17 @ VOL
	.byte W09
	.byte 17 @ VOL
	.byte W09
	.byte 16 @ VOL
	.byte W08
	.byte 15 @ VOL
	.byte W09
	.byte 14 @ VOL
	.byte W08
	.byte 14 @ VOL
	.byte W09
	.byte EOT @ Fn4, v020
	.byte VOL, 13
	.byte TIE, Bn3 @ v020
	.byte W22
	.byte VOL, 14
	.byte W10
	.byte 14 @ VOL
	.byte W11
	.byte 15 @ VOL
	.byte W10
	.byte 16 @ VOL
	.byte W10
	.byte 17 @ VOL
	.byte W11
	.byte 17 @ VOL
	.byte W10
	.byte 18 @ VOL
	.byte W10
	.byte 19 @ VOL
	.byte W02
	.byte W09
	.byte 19 @ VOL
	.byte W10
	.byte 20 @ VOL
	.byte W10
	.byte 21 @ VOL
	.byte W10
	.byte 21 @ VOL
	.byte W11
	.byte 22 @ VOL
	.byte W10
	.byte 23 @ VOL
	.byte W10
	.byte 24 @ VOL
	.byte W11
	.byte 24 @ VOL
	.byte W10
	.byte 25 @ VOL
	.byte W05
	.byte EOT @ Bn3, v020
	.byte GOTO
		.word track_87_lbl_26caa6
	.byte FINE

track_87_1:
	.byte KEYSH, 0
	.byte VOICE, 3
	.byte PAN, c_v+6
	.byte PRIO, 109
	.byte W96
	.byte VOL, 21
	.byte TIE, Fs4, v020
	.byte W08
	.byte VOL, 22
	.byte W10
	.byte 24 @ VOL
	.byte W11
	.byte 25 @ VOL
	.byte W10
	.byte 26 @ VOL
	.byte W10
	.byte 28 @ VOL
	.byte W10
	.byte 29 @ VOL
	.byte W10
	.byte 31 @ VOL
	.byte W11
	.byte 32 @ VOL
	.byte W10
	.byte 34 @ VOL
	.byte W06
	.byte W04
	.byte 35 @ VOL
	.byte W10
	.byte 36 @ VOL
	.byte W11
	.byte 38 @ VOL
	.byte W08
	.byte 41 @ VOL
	.byte W04
	.byte 39 @ VOL
	.byte W04
	.byte 38 @ VOL
	.byte W04
	.byte 36 @ VOL
	.byte W04
	.byte 35 @ VOL
	.byte W04
	.byte 34 @ VOL
	.byte W04
	.byte 32 @ VOL
	.byte W05
	.byte 31 @ VOL
	.byte W04
	.byte 29 @ VOL
	.byte W04
	.byte 28 @ VOL
	.byte W04
	.byte 26 @ VOL
	.byte W04
	.byte 25 @ VOL
	.byte W04
	.byte 24 @ VOL
	.byte W04
	.byte 22 @ VOL
	.byte W05
	.byte 21 @ VOL
	.byte W04
	.byte 19 @ VOL
	.byte W01
	.byte W03
	.byte 18 @ VOL
	.byte W04
	.byte 17 @ VOL
	.byte W04
	.byte 15 @ VOL
	.byte W04
	.byte 14 @ VOL
	.byte W14
	.byte 15 @ VOL
	.byte W08
	.byte 17 @ VOL
	.byte W07
	.byte 18 @ VOL
	.byte W08
	.byte 19 @ VOL
	.byte W08
	.byte 21 @ VOL
	.byte W11
	.byte 23 @ VOL
	.byte W04
	.byte 24 @ VOL
	.byte W08
	.byte 25 @ VOL
	.byte W07
	.byte 26 @ VOL
	.byte W06
	.byte EOT @ Fs4, v020
	.byte N96, Fn4 @ v020
	.byte W02
	.byte VOL, 28
	.byte W08
	.byte 29 @ VOL
	.byte W07
	.byte 31 @ VOL
	.byte W08
	.byte 32 @ VOL
	.byte W13
	.byte 31 @ VOL
	.byte W18
	.byte 29 @ VOL
	.byte W17
	.byte 28 @ VOL
	.byte W17
	.byte 26 @ VOL
	.byte W06
track_87_lbl_26cbb3:
	.byte W96
	.byte TIE, Cn4, v020
	.byte W96
	.byte W96
	.byte EOT @ Cn4, v020
	.byte W96
	.byte TIE, Fs4 @ v020
	.byte W96
	.byte W96
	.byte W36
	.byte W02
	.byte VOL, 25
	.byte W08
	.byte 24 @ VOL
	.byte W08
	.byte 22 @ VOL
	.byte W08
	.byte 21 @ VOL
	.byte W08
	.byte 19 @ VOL
	.byte W09
	.byte 18 @ VOL
	.byte W08
	.byte 17 @ VOL
	.byte W08
	.byte 15 @ VOL
	.byte W01
	.byte EOT @ Fs4, v020
	.byte N96, Fn4, v032
	.byte W96
	.byte GOTO
		.word track_87_lbl_26cbb3
	.byte FINE

track_87_2:
	.byte KEYSH, 0
	.byte PAN, c_v-4
	.byte PRIO, 108
	.byte W96
	.byte W96
	.byte W96
	.byte VOICE, 3
	.byte VOL, 1
	.byte N96, Fn4, v032
	.byte W14
	.byte VOL, 2
	.byte W13
	.byte 4 @ VOL
	.byte W13
	.byte 5 @ VOL
	.byte W12
	.byte 6 @ VOL
	.byte W13
	.byte 7 @ VOL
	.byte W10
	.byte 8 @ VOL
	.byte W07
	.byte 9 @ VOL
	.byte W08
	.byte 11 @ VOL
	.byte W01
	.byte 12 @ VOL
	.byte W05
	.byte N96, Bn4 @ v032
	.byte W16
	.byte VOL, 14
	.byte W09
	.byte 15 @ VOL
	.byte W08
	.byte 17 @ VOL
	.byte W09
	.byte 18 @ VOL
	.byte W09
	.byte 19 @ VOL
	.byte W08
	.byte 21 @ VOL
	.byte W09
	.byte 22 @ VOL
	.byte W08
	.byte 24 @ VOL
	.byte W09
	.byte 25 @ VOL
	.byte W09
	.byte 26 @ VOL
	.byte W02
track_87_lbl_26cc19:
	.byte VOL, 26
	.byte N96, Bn4, v032
	.byte W06
	.byte VOL, 28
	.byte W09
	.byte 29 @ VOL
	.byte W09
	.byte 31 @ VOL
	.byte W08
	.byte 32 @ VOL
	.byte W09
	.byte 34 @ VOL
	.byte W09
	.byte 35 @ VOL
	.byte W08
	.byte 36 @ VOL
	.byte W09
	.byte 38 @ VOL
	.byte W09
	.byte 39 @ VOL
	.byte W08
	.byte 41 @ VOL
	.byte W09
	.byte 42 @ VOL
	.byte W03
	.byte TIE, As4 @ v032
	.byte W01
	.byte VOL, 28
	.byte W17
	.byte 26 @ VOL
	.byte W21
	.byte 25 @ VOL
	.byte W22
	.byte 24 @ VOL
	.byte W21
	.byte 22 @ VOL
	.byte W14
	.byte W08
	.byte 21 @ VOL
	.byte W21
	.byte 19 @ VOL
	.byte W21
	.byte 18 @ VOL
	.byte W22
	.byte 17 @ VOL
	.byte W21
	.byte 15 @ VOL
	.byte W03
	.byte EOT @ As4, v032
	.byte TIE, An5 @ v032
	.byte W07
	.byte VOL, 14
	.byte W20
	.byte 15 @ VOL
	.byte W24
	.byte W03
	.byte 17 @ VOL
	.byte W24
	.byte W02
	.byte 18 @ VOL
	.byte W16
	.byte W10
	.byte 19 @ VOL
	.byte W24
	.byte W03
	.byte 21 @ VOL
	.byte W24
	.byte W02
	.byte 22 @ VOL
	.byte W24
	.byte W01
	.byte 21 @ VOL
	.byte W08
	.byte EOT @ An5, v032
	.byte TIE, Gs5 @ v032
	.byte W24
	.byte W03
	.byte VOL, 19
	.byte W44
	.byte W03
	.byte 18 @ VOL
	.byte W22
	.byte W24
	.byte W01
	.byte 17 @ VOL
	.byte W68
	.byte W03
	.byte EOT @ Gs5, v032
	.byte VOL, 15
	.byte N96, Bn4 @ v032
	.byte W10
	.byte VOL, 17
	.byte W13
	.byte 18 @ VOL
	.byte W14
	.byte 19 @ VOL
	.byte W13
	.byte 21 @ VOL
	.byte W13
	.byte 22 @ VOL
	.byte W13
	.byte 24 @ VOL
	.byte W13
	.byte 25 @ VOL
	.byte W07
	.byte GOTO
		.word track_87_lbl_26cc19
	.byte FINE

track_87_3:
	.byte KEYSH, 0
	.byte VOICE, 3
	.byte PAN, c_v-8
	.byte PRIO, 30
	.byte W96
	.byte W92
	.byte W03
	.byte VOL, 22
	.byte W01
	.byte 24 @ VOL
	.byte TIE, Cn4, v020
	.byte W02
	.byte VOL, 25
	.byte W02
	.byte 26 @ VOL
	.byte W01
	.byte 27 @ VOL
	.byte W03
	.byte 28 @ VOL
	.byte W01
	.byte 29 @ VOL
	.byte W02
	.byte 31 @ VOL
	.byte W02
	.byte 32 @ VOL
	.byte W03
	.byte 34 @ VOL
	.byte W03
	.byte 34 @ VOL
	.byte W04
	.byte 35 @ VOL
	.byte W06
	.byte 36 @ VOL
	.byte W11
	.byte 38 @ VOL
	.byte W07
	.byte 39 @ VOL
	.byte W03
	.byte 38 @ VOL
	.byte W03
	.byte 36 @ VOL
	.byte W05
	.byte 36 @ VOL
	.byte W08
	.byte 35 @ VOL
	.byte W09
	.byte 34 @ VOL
	.byte W08
	.byte 34 @ VOL
	.byte W09
	.byte 32 @ VOL
	.byte W04
	.byte W04
	.byte 31 @ VOL
	.byte W10
	.byte 29 @ VOL
	.byte W11
	.byte 28 @ VOL
	.byte W10
	.byte 26 @ VOL
	.byte W10
	.byte 25 @ VOL
	.byte W10
	.byte 24 @ VOL
	.byte W10
	.byte 22 @ VOL
	.byte W03
	.byte 21 @ VOL
	.byte W05
	.byte 22 @ VOL
	.byte W07
	.byte 24 @ VOL
	.byte W07
	.byte 25 @ VOL
	.byte W06
	.byte 26 @ VOL
	.byte W03
	.byte EOT @ Cn4, v020
	.byte W96
track_87_lbl_26ccec:
	.byte VOL, 15
	.byte W06
	.byte 14 @ VOL
	.byte W11
	.byte 14 @ VOL
	.byte W11
	.byte 13 @ VOL
	.byte W12
	.byte 12 @ VOL
	.byte W11
	.byte 12 @ VOL
	.byte W11
	.byte 11 @ VOL
	.byte W11
	.byte 10 @ VOL
	.byte W11
	.byte 9 @ VOL
	.byte W01
	.byte 9 @ VOL
	.byte W11
	.byte 9 @ VOL
	.byte W11
	.byte 8 @ VOL
	.byte W11
	.byte 7 @ VOL
	.byte W11
	.byte 7 @ VOL
	.byte W28
	.byte 7 @ VOL
	.byte W01
	.byte 8 @ VOL
	.byte W05
	.byte 9 @ VOL
	.byte W06
	.byte 9 @ VOL
	.byte W05
	.byte 10 @ VOL
	.byte W06
	.byte 11 @ VOL
	.byte W06
	.byte 12 @ VOL
	.byte W05
	.byte 12 @ VOL
	.byte W01
	.byte 12 @ VOL
	.byte TIE, Bn3, v020
	.byte W05
	.byte VOL, 13
	.byte W05
	.byte 14 @ VOL
	.byte W06
	.byte 14 @ VOL
	.byte W05
	.byte 15 @ VOL
	.byte W06
	.byte 16 @ VOL
	.byte W05
	.byte 17 @ VOL
	.byte W06
	.byte 17 @ VOL
	.byte W06
	.byte 18 @ VOL
	.byte W05
	.byte 19 @ VOL
	.byte W06
	.byte 19 @ VOL
	.byte W05
	.byte 20 @ VOL
	.byte W06
	.byte 21 @ VOL
	.byte W05
	.byte 21 @ VOL
	.byte W06
	.byte 22 @ VOL
	.byte W05
	.byte 23 @ VOL
	.byte W06
	.byte 24 @ VOL
	.byte W06
	.byte 24 @ VOL
	.byte W02
	.byte W03
	.byte 25 @ VOL
	.byte W06
	.byte 26 @ VOL
	.byte W05
	.byte 26 @ VOL
	.byte W06
	.byte 27 @ VOL
	.byte W05
	.byte 28 @ VOL
	.byte W06
	.byte 29 @ VOL
	.byte W05
	.byte 29 @ VOL
	.byte W06
	.byte 30 @ VOL
	.byte W06
	.byte 31 @ VOL
	.byte W05
	.byte 31 @ VOL
	.byte W06
	.byte 32 @ VOL
	.byte W05
	.byte 33 @ VOL
	.byte W06
	.byte 34 @ VOL
	.byte W05
	.byte 34 @ VOL
	.byte W06
	.byte 35 @ VOL
	.byte W05
	.byte 36 @ VOL
	.byte W06
	.byte 36 @ VOL
	.byte W04
	.byte EOT @ Bn3, v020
	.byte W02
	.byte VOL, 34
	.byte W02
	.byte 34 @ VOL
	.byte W05
	.byte 33 @ VOL
	.byte W05
	.byte 32 @ VOL
	.byte W06
	.byte 31 @ VOL
	.byte W05
	.byte 31 @ VOL
	.byte W05
	.byte 30 @ VOL
	.byte W05
	.byte 29 @ VOL
	.byte W05
	.byte 29 @ VOL
	.byte W06
	.byte 28 @ VOL
	.byte W05
	.byte 27 @ VOL
	.byte W05
	.byte 26 @ VOL
	.byte W05
	.byte 26 @ VOL
	.byte W05
	.byte 25 @ VOL
	.byte W06
	.byte 24 @ VOL
	.byte W05
	.byte 24 @ VOL
	.byte W05
	.byte 23 @ VOL
	.byte W05
	.byte 22 @ VOL
	.byte W09
	.byte TIE, Cn4 @ v020
	.byte W68
	.byte VOL, 24
	.byte W28
	.byte W68
	.byte 25 @ VOL
	.byte W28
	.byte EOT @ Cn4, v020
	.byte W68
	.byte W01
	.byte VOL, 26
	.byte W24
	.byte 28 @ VOL
	.byte W03
	.byte GOTO
		.word track_87_lbl_26ccec
	.byte FINE

.align 2

track_87:
	.byte 4
	.byte 87
	.byte 130
	.byte 128
	.word 0x80a64c0
	.word track_87_0
	.word track_87_1
	.word track_87_2
	.word track_87_3

.align 2
