.align 2

.global track_86

track_86_0:
	.byte KEYSH, 0
	.byte TEMPO, 50
	.byte VOICE, 16
	.byte VOL, 28
	.byte PAN, c_v
	.byte PRIO, 110
	.byte N44, An4, v028
	.byte W07
	.byte VOL, 29
	.byte W08
	.byte 31 @ VOL
	.byte W08
	.byte 33 @ VOL
	.byte W08
	.byte 34 @ VOL
	.byte W08
	.byte 36 @ VOL
	.byte W08
	.byte 37 @ VOL
	.byte W01
	.byte N44, Gs4 @ v028
	.byte W07
	.byte VOL, 39
	.byte W08
	.byte 40 @ VOL
	.byte W08
	.byte 42 @ VOL
	.byte W08
	.byte 44 @ VOL
	.byte W08
	.byte 45 @ VOL
	.byte W08
	.byte 47 @ VOL
	.byte W01
	.byte N44, Fs4 @ v028
	.byte W07
	.byte VOL, 48
	.byte W08
	.byte 50 @ VOL
	.byte W08
	.byte 51 @ VOL
	.byte W08
	.byte 50 @ VOL
	.byte W04
	.byte 48 @ VOL
	.byte W03
	.byte 47 @ VOL
	.byte W04
	.byte 45 @ VOL
	.byte W03
	.byte 44 @ VOL
	.byte W03
	.byte N44, Gs4 @ v028
	.byte W01
	.byte VOL, 42
	.byte W03
	.byte 40 @ VOL
	.byte W04
	.byte 39 @ VOL
	.byte W04
	.byte 37 @ VOL
	.byte W03
	.byte 36 @ VOL
	.byte W04
	.byte 34 @ VOL
	.byte W03
	.byte 33 @ VOL
	.byte W04
	.byte 31 @ VOL
	.byte W03
	.byte 29 @ VOL
	.byte W04
	.byte 28 @ VOL
	.byte W03
	.byte 26 @ VOL
	.byte W04
	.byte 25 @ VOL
	.byte W04
	.byte 23 @ VOL
	.byte W02
	.byte 20 @ VOL
	.byte W02
	.byte N44, Dn4, v052
	.byte W01
	.byte VOL, 29
	.byte W05
	.byte 31 @ VOL
	.byte W05
	.byte 33 @ VOL
	.byte W04
	.byte 34 @ VOL
	.byte W05
	.byte 36 @ VOL
	.byte W04
	.byte 37 @ VOL
	.byte W03
	.byte 39 @ VOL
	.byte W03
	.byte 40 @ VOL
	.byte W03
	.byte 42 @ VOL
	.byte W03
	.byte 44 @ VOL
	.byte W03
	.byte 45 @ VOL
	.byte W03
	.byte 47 @ VOL
	.byte W03
	.byte 48 @ VOL
	.byte W03
	.byte 50 @ VOL
	.byte N44, Cn4 @ v052
	.byte W03
	.byte VOL, 51
	.byte W02
	.byte 53 @ VOL
	.byte W03
	.byte 55 @ VOL
	.byte W03
	.byte 56 @ VOL
	.byte W03
	.byte 58 @ VOL
	.byte W03
	.byte 59 @ VOL
	.byte W03
	.byte 61 @ VOL
	.byte W03
	.byte 62 @ VOL
	.byte W03
	.byte 64 @ VOL
	.byte W03
	.byte 66 @ VOL
	.byte W03
	.byte 67 @ VOL
	.byte W03
	.byte 69 @ VOL
	.byte W03
	.byte 70 @ VOL
	.byte W03
	.byte 72 @ VOL
	.byte W03
	.byte 70 @ VOL
	.byte W04
	.byte 69 @ VOL
	.byte N44, As3 @ v052
	.byte W04
	.byte VOL, 67
	.byte W04
	.byte 66 @ VOL
	.byte W04
	.byte 64 @ VOL
	.byte W04
	.byte 62 @ VOL
	.byte W04
	.byte 61 @ VOL
	.byte W04
	.byte 59 @ VOL
	.byte W05
	.byte 58 @ VOL
	.byte W04
	.byte 56 @ VOL
	.byte W04
	.byte 55 @ VOL
	.byte W04
	.byte 53 @ VOL
	.byte W04
	.byte 51 @ VOL
	.byte W03
	.byte N44, Cn4 @ v052
	.byte W01
	.byte VOL, 50
	.byte W04
	.byte 48 @ VOL
	.byte W05
	.byte 47 @ VOL
	.byte W04
	.byte 45 @ VOL
	.byte W04
	.byte 44 @ VOL
	.byte W04
	.byte 42 @ VOL
	.byte W04
	.byte 40 @ VOL
	.byte W04
	.byte 39 @ VOL
	.byte W04
	.byte 37 @ VOL
	.byte W05
	.byte 36 @ VOL
	.byte W04
	.byte 34 @ VOL
	.byte W04
	.byte 33 @ VOL
	.byte W01
	.byte N44, As3 @ v052
	.byte W01
	.byte VOL, 42
	.byte W01
	.byte 44 @ VOL
	.byte W01
	.byte 45 @ VOL
	.byte W01
	.byte 47 @ VOL
	.byte W01
	.byte 48 @ VOL
	.byte W01
	.byte 50 @ VOL
	.byte W01
	.byte 51 @ VOL
	.byte W01
	.byte 53 @ VOL
	.byte W01
	.byte 55 @ VOL
	.byte W01
	.byte 56 @ VOL
	.byte W01
	.byte 58 @ VOL
	.byte W02
	.byte 60 @ VOL
	.byte W02
	.byte 63 @ VOL
	.byte W01
	.byte 65 @ VOL
	.byte W01
	.byte 66 @ VOL
	.byte W01
	.byte 68 @ VOL
	.byte W01
	.byte 70 @ VOL
	.byte W02
	.byte 71 @ VOL
	.byte W05
	.byte 70 @ VOL
	.byte W06
	.byte 68 @ VOL
	.byte W08
	.byte 66 @ VOL
	.byte W06
	.byte 64 @ VOL
	.byte W02
	.byte N44, An3 @ v052
	.byte W04
	.byte VOL, 62
	.byte W05
	.byte 61 @ VOL
	.byte W06
	.byte 59 @ VOL
	.byte W05
	.byte 58 @ VOL
	.byte W06
	.byte 56 @ VOL
	.byte W06
	.byte 55 @ VOL
	.byte W05
	.byte 53 @ VOL
	.byte W06
	.byte 51 @ VOL
	.byte W05
	.byte 50 @ VOL
	.byte N44, Gn3 @ v052
	.byte W02
	.byte VOL, 48
	.byte W02
	.byte 50 @ VOL
	.byte W02
	.byte 51 @ VOL
	.byte W02
	.byte 53 @ VOL
	.byte W02
	.byte 55 @ VOL
	.byte W02
	.byte 56 @ VOL
	.byte W03
	.byte 59 @ VOL
	.byte W02
	.byte 61 @ VOL
	.byte W02
	.byte 62 @ VOL
	.byte W02
	.byte 64 @ VOL
	.byte W02
	.byte 66 @ VOL
	.byte W02
	.byte 67 @ VOL
	.byte W02
	.byte 69 @ VOL
	.byte W02
	.byte 70 @ VOL
	.byte W02
	.byte 72 @ VOL
	.byte W02
	.byte 74 @ VOL
	.byte W02
	.byte 75 @ VOL
	.byte W02
	.byte 77 @ VOL
	.byte W01
	.byte 78 @ VOL
	.byte W02
	.byte 80 @ VOL
	.byte W02
	.byte 81 @ VOL
	.byte W02
	.byte 83 @ VOL
	.byte W02
	.byte 85 @ VOL
	.byte W02
	.byte 86 @ VOL
	.byte TIE, An3 @ v052
	.byte W02
	.byte VOL, 85
	.byte W03
	.byte 81 @ VOL
	.byte W03
	.byte 78 @ VOL
	.byte W04
	.byte 77 @ VOL
	.byte W03
	.byte 74 @ VOL
	.byte W05
	.byte 70 @ VOL
	.byte W08
	.byte 67 @ VOL
	.byte W05
	.byte 64 @ VOL
	.byte W07
	.byte 61 @ VOL
	.byte W08
	.byte 58 @ VOL
	.byte W08
	.byte 55 @ VOL
	.byte W08
	.byte 53 @ VOL
	.byte W10
	.byte 50 @ VOL
	.byte W10
	.byte 47 @ VOL
	.byte W17
	.byte 44 @ VOL
	.byte W14
	.byte 40 @ VOL
	.byte W20
	.byte 37 @ VOL
	.byte W09
	.byte W04
	.byte 34 @ VOL
	.byte W16
	.byte 31 @ VOL
	.byte W15
	.byte 29 @ VOL
	.byte W08
	.byte 28 @ VOL
	.byte W08
	.byte 26 @ VOL
	.byte W07
	.byte 25 @ VOL
	.byte W08
	.byte 23 @ VOL
	.byte W06
	.byte EOT @ An3, v052
	.byte W24
	.byte TEMPO, 45
track_86_lbl_26c07b:
	.byte VOICE, 13
	.byte VOL, 62
	.byte PAN, c_v-8
	.byte N32, As1, v068
	.byte W36
	.byte N56 @ As1, v068
	.byte W60
	.byte N32, As1, v080
	.byte W36
	.byte N56, As1, v092
	.byte W60
	.byte N32, As2, v048
	.byte W36
	.byte N56, As1, v100
	.byte W60
	.byte N32, As1, v088
	.byte W36
	.byte N32 @ As1, v088
	.byte W36
	.byte N20, As1, v100
	.byte W24
	.byte N32, As2, v040
	.byte W36
	.byte N56 @ As2, v040
	.byte W60
	.byte N32, As2, v048
	.byte W36
	.byte N56, As1, v080
	.byte W60
	.byte N32, As1, v088
	.byte W36
	.byte N56, As1, v080
	.byte W60
	.byte N32 @ As1, v080
	.byte W36
	.byte N56, As1, v068
	.byte W60
	.byte GOTO
		.word track_86_lbl_26c07b
	.byte FINE

track_86_1:
	.byte KEYSH, 0
	.byte VOICE, 14
	.byte VOL, 17
	.byte PAN, c_v
	.byte PRIO, 109
	.byte TIE, Dn4, v032
	.byte W01
	.byte VOL, 17
	.byte W01
	.byte 17 @ VOL
	.byte W01
	.byte 18 @ VOL
	.byte W01
	.byte 18 @ VOL
	.byte W01
	.byte 18 @ VOL
	.byte W01
	.byte 18 @ VOL
	.byte W01
	.byte 18 @ VOL
	.byte W01
	.byte 18 @ VOL
	.byte W01
	.byte 18 @ VOL
	.byte W01
	.byte 18 @ VOL
	.byte W01
	.byte 18 @ VOL
	.byte W01
	.byte 18 @ VOL
	.byte W01
	.byte 18 @ VOL
	.byte W01
	.byte 19 @ VOL
	.byte W01
	.byte 19 @ VOL
	.byte W01
	.byte 19 @ VOL
	.byte W01
	.byte 19 @ VOL
	.byte W01
	.byte 19 @ VOL
	.byte W01
	.byte 19 @ VOL
	.byte W01
	.byte 20 @ VOL
	.byte W01
	.byte 20 @ VOL
	.byte W01
	.byte 20 @ VOL
	.byte W01
	.byte 20 @ VOL
	.byte W01
	.byte 20 @ VOL
	.byte W01
	.byte 21 @ VOL
	.byte W01
	.byte 21 @ VOL
	.byte W01
	.byte 21 @ VOL
	.byte W01
	.byte 21 @ VOL
	.byte W01
	.byte 21 @ VOL
	.byte W01
	.byte 21 @ VOL
	.byte W01
	.byte 22 @ VOL
	.byte W01
	.byte 22 @ VOL
	.byte W01
	.byte 22 @ VOL
	.byte W01
	.byte 22 @ VOL
	.byte W01
	.byte 22 @ VOL
	.byte W01
	.byte 22 @ VOL
	.byte W01
	.byte 22 @ VOL
	.byte W01
	.byte 22 @ VOL
	.byte W01
	.byte 22 @ VOL
	.byte W01
	.byte 22 @ VOL
	.byte W01
	.byte 22 @ VOL
	.byte W01
	.byte 23 @ VOL
	.byte W01
	.byte 23 @ VOL
	.byte W01
	.byte 23 @ VOL
	.byte W01
	.byte 23 @ VOL
	.byte W01
	.byte 23 @ VOL
	.byte W01
	.byte 24 @ VOL
	.byte W01
	.byte 24 @ VOL
	.byte W01
	.byte 24 @ VOL
	.byte W01
	.byte 24 @ VOL
	.byte W01
	.byte 24 @ VOL
	.byte W01
	.byte 24 @ VOL
	.byte W01
	.byte 25 @ VOL
	.byte W01
	.byte 25 @ VOL
	.byte W01
	.byte 25 @ VOL
	.byte W01
	.byte 25 @ VOL
	.byte W01
	.byte 25 @ VOL
	.byte W01
	.byte 25 @ VOL
	.byte W01
	.byte 25 @ VOL
	.byte W01
	.byte 25 @ VOL
	.byte W01
	.byte 25 @ VOL
	.byte W01
	.byte 25 @ VOL
	.byte W01
	.byte 25 @ VOL
	.byte W01
	.byte 26 @ VOL
	.byte W01
	.byte 26 @ VOL
	.byte W01
	.byte 26 @ VOL
	.byte W01
	.byte 26 @ VOL
	.byte W01
	.byte 26 @ VOL
	.byte W01
	.byte 27 @ VOL
	.byte W01
	.byte 27 @ VOL
	.byte W01
	.byte 27 @ VOL
	.byte W01
	.byte 27 @ VOL
	.byte W01
	.byte 27 @ VOL
	.byte W01
	.byte 27 @ VOL
	.byte W01
	.byte 28 @ VOL
	.byte W01
	.byte 28 @ VOL
	.byte W01
	.byte 28 @ VOL
	.byte W01
	.byte 28 @ VOL
	.byte W01
	.byte 28 @ VOL
	.byte W01
	.byte 29 @ VOL
	.byte W01
	.byte 29 @ VOL
	.byte W01
	.byte 29 @ VOL
	.byte W01
	.byte 29 @ VOL
	.byte W01
	.byte 29 @ VOL
	.byte W01
	.byte 29 @ VOL
	.byte W01
	.byte 29 @ VOL
	.byte W01
	.byte 29 @ VOL
	.byte W01
	.byte 29 @ VOL
	.byte W01
	.byte 29 @ VOL
	.byte W01
	.byte 29 @ VOL
	.byte W01
	.byte 30 @ VOL
	.byte W01
	.byte 30 @ VOL
	.byte W01
	.byte 30 @ VOL
	.byte W01
	.byte 30 @ VOL
	.byte W01
	.byte 30 @ VOL
	.byte W01
	.byte 30 @ VOL
	.byte W01
	.byte 31 @ VOL
	.byte W01
	.byte 31 @ VOL
	.byte W01
	.byte 31 @ VOL
	.byte W01
	.byte 31 @ VOL
	.byte W01
	.byte 31 @ VOL
	.byte W01
	.byte 32 @ VOL
	.byte W01
	.byte 32 @ VOL
	.byte W01
	.byte 32 @ VOL
	.byte W01
	.byte 32 @ VOL
	.byte W01
	.byte 32 @ VOL
	.byte W01
	.byte 32 @ VOL
	.byte W01
	.byte 33 @ VOL
	.byte W01
	.byte 33 @ VOL
	.byte W01
	.byte 33 @ VOL
	.byte W01
	.byte 33 @ VOL
	.byte W01
	.byte 33 @ VOL
	.byte W01
	.byte 33 @ VOL
	.byte W01
	.byte 33 @ VOL
	.byte W01
	.byte 33 @ VOL
	.byte W01
	.byte 33 @ VOL
	.byte W01
	.byte 33 @ VOL
	.byte W01
	.byte 33 @ VOL
	.byte W01
	.byte 34 @ VOL
	.byte W01
	.byte 34 @ VOL
	.byte W01
	.byte 34 @ VOL
	.byte W01
	.byte 34 @ VOL
	.byte W01
	.byte 34 @ VOL
	.byte W01
	.byte 35 @ VOL
	.byte W01
	.byte 35 @ VOL
	.byte W01
	.byte 35 @ VOL
	.byte W01
	.byte 35 @ VOL
	.byte W01
	.byte 35 @ VOL
	.byte W01
	.byte 35 @ VOL
	.byte W01
	.byte 36 @ VOL
	.byte W01
	.byte 36 @ VOL
	.byte W01
	.byte 36 @ VOL
	.byte W01
	.byte 36 @ VOL
	.byte W01
	.byte 36 @ VOL
	.byte W01
	.byte 37 @ VOL
	.byte W01
	.byte 37 @ VOL
	.byte W01
	.byte 37 @ VOL
	.byte W01
	.byte 37 @ VOL
	.byte W01
	.byte 37 @ VOL
	.byte W01
	.byte 37 @ VOL
	.byte W01
	.byte 37 @ VOL
	.byte W01
	.byte 37 @ VOL
	.byte W01
	.byte 37 @ VOL
	.byte W01
	.byte 37 @ VOL
	.byte W01
	.byte 37 @ VOL
	.byte W01
	.byte 38 @ VOL
	.byte W01
	.byte 38 @ VOL
	.byte W01
	.byte 38 @ VOL
	.byte W01
	.byte 38 @ VOL
	.byte W01
	.byte 38 @ VOL
	.byte W01
	.byte 38 @ VOL
	.byte W01
	.byte 39 @ VOL
	.byte W01
	.byte 39 @ VOL
	.byte W01
	.byte 39 @ VOL
	.byte W01
	.byte 39 @ VOL
	.byte W01
	.byte 39 @ VOL
	.byte W01
	.byte 40 @ VOL
	.byte W01
	.byte 40 @ VOL
	.byte W01
	.byte 40 @ VOL
	.byte W01
	.byte 40 @ VOL
	.byte W01
	.byte 40 @ VOL
	.byte W01
	.byte 40 @ VOL
	.byte W01
	.byte 40 @ VOL
	.byte W01
	.byte 40 @ VOL
	.byte W02
	.byte 39 @ VOL
	.byte W02
	.byte 37 @ VOL
	.byte W01
	.byte 36 @ VOL
	.byte W02
	.byte 34 @ VOL
	.byte W02
	.byte 33 @ VOL
	.byte W01
	.byte 31 @ VOL
	.byte W02
	.byte 29 @ VOL
	.byte W02
	.byte 28 @ VOL
	.byte W01
	.byte 26 @ VOL
	.byte W02
	.byte 25 @ VOL
	.byte W02
	.byte 23 @ VOL
	.byte W01
	.byte 22 @ VOL
	.byte W02
	.byte 20 @ VOL
	.byte W02
	.byte 18 @ VOL
	.byte W01
	.byte 17 @ VOL
	.byte W03
	.byte EOT @ Dn4, v032
	.byte TIE, As3 @ v032
	.byte W03
	.byte VOL, 20
	.byte W03
	.byte 22 @ VOL
	.byte W03
	.byte 23 @ VOL
	.byte W02
	.byte 25 @ VOL
	.byte W03
	.byte 26 @ VOL
	.byte W03
	.byte 28 @ VOL
	.byte W03
	.byte 29 @ VOL
	.byte W03
	.byte 31 @ VOL
	.byte W03
	.byte 33 @ VOL
	.byte W03
	.byte 34 @ VOL
	.byte W03
	.byte 36 @ VOL
	.byte W03
	.byte 37 @ VOL
	.byte W03
	.byte 39 @ VOL
	.byte W03
	.byte 40 @ VOL
	.byte W02
	.byte 42 @ VOL
	.byte W04
	.byte 40 @ VOL
	.byte W04
	.byte 39 @ VOL
	.byte W03
	.byte 37 @ VOL
	.byte W04
	.byte 36 @ VOL
	.byte W03
	.byte 34 @ VOL
	.byte W04
	.byte 33 @ VOL
	.byte W03
	.byte 31 @ VOL
	.byte W04
	.byte 29 @ VOL
	.byte W03
	.byte 28 @ VOL
	.byte W04
	.byte 26 @ VOL
	.byte W03
	.byte 25 @ VOL
	.byte W04
	.byte 23 @ VOL
	.byte W03
	.byte 22 @ VOL
	.byte W05
	.byte 20 @ VOL
	.byte W02
	.byte 22 @ VOL
	.byte W02
	.byte 23 @ VOL
	.byte W01
	.byte 25 @ VOL
	.byte W02
	.byte 26 @ VOL
	.byte W02
	.byte 28 @ VOL
	.byte W02
	.byte 29 @ VOL
	.byte W02
	.byte 31 @ VOL
	.byte W03
	.byte 34 @ VOL
	.byte W02
	.byte 36 @ VOL
	.byte W02
	.byte 37 @ VOL
	.byte W02
	.byte 39 @ VOL
	.byte W03
	.byte 42 @ VOL
	.byte W02
	.byte 44 @ VOL
	.byte W02
	.byte 45 @ VOL
	.byte W02
	.byte 47 @ VOL
	.byte W02
	.byte 48 @ VOL
	.byte W01
	.byte 50 @ VOL
	.byte W02
	.byte 51 @ VOL
	.byte W02
	.byte 53 @ VOL
	.byte W02
	.byte 55 @ VOL
	.byte W02
	.byte 56 @ VOL
	.byte W03
	.byte 59 @ VOL
	.byte W02
	.byte 61 @ VOL
	.byte W02
	.byte 61 @ VOL
	.byte W03
	.byte 58 @ VOL
	.byte W02
	.byte 56 @ VOL
	.byte W03
	.byte 53 @ VOL
	.byte W02
	.byte 51 @ VOL
	.byte W03
	.byte 48 @ VOL
	.byte W02
	.byte 47 @ VOL
	.byte W03
	.byte 44 @ VOL
	.byte W02
	.byte 42 @ VOL
	.byte W01
	.byte 40 @ VOL
	.byte W02
	.byte 39 @ VOL
	.byte W02
	.byte 37 @ VOL
	.byte W01
	.byte 36 @ VOL
	.byte W02
	.byte 34 @ VOL
	.byte W02
	.byte 33 @ VOL
	.byte W01
	.byte 31 @ VOL
	.byte W02
	.byte 29 @ VOL
	.byte W02
	.byte 28 @ VOL
	.byte W01
	.byte 26 @ VOL
	.byte W02
	.byte 25 @ VOL
	.byte W02
	.byte 23 @ VOL
	.byte W01
	.byte 22 @ VOL
	.byte W02
	.byte 20 @ VOL
	.byte W02
	.byte 18 @ VOL
	.byte W01
	.byte 17 @ VOL
	.byte W02
	.byte 17 @ VOL
	.byte W01
	.byte EOT @ As3, v032
	.byte TIE, Gn3 @ v032
	.byte W03
	.byte VOL, 20
	.byte W03
	.byte 22 @ VOL
	.byte W03
	.byte 23 @ VOL
	.byte W03
	.byte 25 @ VOL
	.byte W03
	.byte 26 @ VOL
	.byte W03
	.byte 28 @ VOL
	.byte W03
	.byte 29 @ VOL
	.byte W03
	.byte 31 @ VOL
	.byte W03
	.byte 33 @ VOL
	.byte W02
	.byte 34 @ VOL
	.byte W03
	.byte 36 @ VOL
	.byte W03
	.byte 37 @ VOL
	.byte W03
	.byte 39 @ VOL
	.byte W03
	.byte 40 @ VOL
	.byte W03
	.byte 42 @ VOL
	.byte W03
	.byte 40 @ VOL
	.byte W04
	.byte 39 @ VOL
	.byte W03
	.byte 37 @ VOL
	.byte W04
	.byte 36 @ VOL
	.byte W03
	.byte 34 @ VOL
	.byte W04
	.byte 33 @ VOL
	.byte W03
	.byte 31 @ VOL
	.byte W04
	.byte 29 @ VOL
	.byte W03
	.byte 28 @ VOL
	.byte W04
	.byte 26 @ VOL
	.byte W03
	.byte 25 @ VOL
	.byte W04
	.byte 23 @ VOL
	.byte W03
	.byte 22 @ VOL
	.byte W05
	.byte 20 @ VOL
	.byte W02
	.byte 22 @ VOL
	.byte W02
	.byte 23 @ VOL
	.byte W01
	.byte 25 @ VOL
	.byte W02
	.byte 26 @ VOL
	.byte W02
	.byte 28 @ VOL
	.byte W02
	.byte 29 @ VOL
	.byte W02
	.byte 31 @ VOL
	.byte W03
	.byte 34 @ VOL
	.byte W02
	.byte 36 @ VOL
	.byte W02
	.byte 37 @ VOL
	.byte W02
	.byte 39 @ VOL
	.byte W03
	.byte 42 @ VOL
	.byte W02
	.byte 44 @ VOL
	.byte W02
	.byte 45 @ VOL
	.byte W02
	.byte 47 @ VOL
	.byte W02
	.byte 48 @ VOL
	.byte W01
	.byte 50 @ VOL
	.byte W02
	.byte 51 @ VOL
	.byte W02
	.byte 53 @ VOL
	.byte W02
	.byte 55 @ VOL
	.byte W02
	.byte 56 @ VOL
	.byte W03
	.byte 59 @ VOL
	.byte W02
	.byte 61 @ VOL
	.byte W02
	.byte 61 @ VOL
	.byte W03
	.byte 58 @ VOL
	.byte W02
	.byte 56 @ VOL
	.byte W03
	.byte 53 @ VOL
	.byte W02
	.byte 51 @ VOL
	.byte W03
	.byte 48 @ VOL
	.byte W02
	.byte 47 @ VOL
	.byte W03
	.byte 44 @ VOL
	.byte W02
	.byte 42 @ VOL
	.byte W01
	.byte 40 @ VOL
	.byte W02
	.byte 39 @ VOL
	.byte W02
	.byte 37 @ VOL
	.byte W01
	.byte 36 @ VOL
	.byte W02
	.byte 34 @ VOL
	.byte W02
	.byte 33 @ VOL
	.byte W01
	.byte 31 @ VOL
	.byte W02
	.byte 29 @ VOL
	.byte W02
	.byte 28 @ VOL
	.byte W01
	.byte 26 @ VOL
	.byte W02
	.byte 25 @ VOL
	.byte W02
	.byte 23 @ VOL
	.byte W01
	.byte 22 @ VOL
	.byte W02
	.byte 20 @ VOL
	.byte W02
	.byte 18 @ VOL
	.byte W01
	.byte 17 @ VOL
	.byte W02
	.byte 18 @ VOL
	.byte W01
	.byte EOT @ Gn3, v032
	.byte VOL, 21
	.byte TIE @ Gn3, v032
	.byte W01
	.byte VOL, 23
	.byte W01
	.byte 25 @ VOL
	.byte W01
	.byte 28 @ VOL
	.byte W01
	.byte 30 @ VOL
	.byte W01
	.byte 33 @ VOL
	.byte W01
	.byte 35 @ VOL
	.byte W01
	.byte 37 @ VOL
	.byte W01
	.byte 40 @ VOL
	.byte W01
	.byte 42 @ VOL
	.byte W01
	.byte 44 @ VOL
	.byte W01
	.byte 47 @ VOL
	.byte W01
	.byte 49 @ VOL
	.byte W01
	.byte 51 @ VOL
	.byte W01
	.byte 54 @ VOL
	.byte W01
	.byte 56 @ VOL
	.byte W01
	.byte 59 @ VOL
	.byte W01
	.byte 61 @ VOL
	.byte W07
	.byte 59 @ VOL
	.byte W06
	.byte 58 @ VOL
	.byte W05
	.byte 56 @ VOL
	.byte W05
	.byte 55 @ VOL
	.byte W06
	.byte 53 @ VOL
	.byte W05
	.byte 51 @ VOL
	.byte W05
	.byte 50 @ VOL
	.byte W06
	.byte 48 @ VOL
	.byte W05
	.byte 47 @ VOL
	.byte W05
	.byte 45 @ VOL
	.byte W06
	.byte 44 @ VOL
	.byte W05
	.byte 42 @ VOL
	.byte W05
	.byte 40 @ VOL
	.byte W06
	.byte 39 @ VOL
	.byte W02
	.byte W03
	.byte 37 @ VOL
	.byte W05
	.byte 36 @ VOL
	.byte W06
	.byte 34 @ VOL
	.byte W05
	.byte 33 @ VOL
	.byte W05
	.byte 31 @ VOL
	.byte W06
	.byte 29 @ VOL
	.byte W05
	.byte 28 @ VOL
	.byte W05
	.byte 26 @ VOL
	.byte W06
	.byte 25 @ VOL
	.byte W05
	.byte 23 @ VOL
	.byte W05
	.byte 22 @ VOL
	.byte W06
	.byte 20 @ VOL
	.byte W05
	.byte 18 @ VOL
	.byte W03
	.byte 17 @ VOL
	.byte W02
	.byte EOT @ Gn3, v032
	.byte W01
	.byte VOL, 15
	.byte W03
	.byte 14 @ VOL
	.byte W03
	.byte 12 @ VOL
	.byte W03
	.byte 11 @ VOL
	.byte W03
	.byte 9 @ VOL
	.byte W03
	.byte 7 @ VOL
	.byte W02
	.byte 6 @ VOL
	.byte W03
	.byte 4 @ VOL
	.byte W03
track_86_lbl_26c3ee:
	.byte VOICE, 3
	.byte VOL, 25
	.byte PAN, c_v+10
	.byte N96, Fn3, v040
	.byte W09
	.byte VOL, 23
	.byte W11
	.byte 22 @ VOL
	.byte W11
	.byte 20 @ VOL
	.byte W11
	.byte 18 @ VOL
	.byte W09
	.byte 17 @ VOL
	.byte W06
	.byte 18 @ VOL
	.byte W06
	.byte 20 @ VOL
	.byte W07
	.byte 22 @ VOL
	.byte W06
	.byte 23 @ VOL
	.byte W06
	.byte 25 @ VOL
	.byte W07
	.byte 26 @ VOL
	.byte W06
	.byte 28 @ VOL
	.byte W01
	.byte N96, En3 @ v040
	.byte W07
	.byte VOL, 26
	.byte W08
	.byte 25 @ VOL
	.byte W08
	.byte 23 @ VOL
	.byte W08
	.byte 22 @ VOL
	.byte W08
	.byte 20 @ VOL
	.byte W13
	.byte 22 @ VOL
	.byte W09
	.byte 23 @ VOL
	.byte W09
	.byte 25 @ VOL
	.byte W09
	.byte 26 @ VOL
	.byte W09
	.byte 28 @ VOL
	.byte W08
	.byte N96, Gn3, v032
	.byte W01
	.byte VOL, 29
	.byte W09
	.byte 31 @ VOL
	.byte W09
	.byte 33 @ VOL
	.byte W06
	.byte 31 @ VOL
	.byte W07
	.byte 29 @ VOL
	.byte W06
	.byte 28 @ VOL
	.byte W07
	.byte 26 @ VOL
	.byte W06
	.byte 25 @ VOL
	.byte W07
	.byte 23 @ VOL
	.byte W06
	.byte 22 @ VOL
	.byte W06
	.byte 20 @ VOL
	.byte W07
	.byte 18 @ VOL
	.byte W06
	.byte 17 @ VOL
	.byte W07
	.byte 15 @ VOL
	.byte W05
	.byte 14 @ VOL
	.byte W01
	.byte N92, An3, v040
	.byte W06
	.byte VOL, 15
	.byte W09
	.byte 17 @ VOL
	.byte W10
	.byte 18 @ VOL
	.byte W09
	.byte 20 @ VOL
	.byte W09
	.byte 22 @ VOL
	.byte W09
	.byte 23 @ VOL
	.byte W09
	.byte 25 @ VOL
	.byte W09
	.byte 26 @ VOL
	.byte W11
	.byte 28 @ VOL
	.byte W03
	.byte 29 @ VOL
	.byte W04
	.byte 31 @ VOL
	.byte W03
	.byte 33 @ VOL
	.byte W03
	.byte 34 @ VOL
	.byte W02
	.byte N96, Cn4 @ v040
	.byte W01
	.byte VOL, 35
	.byte W01
	.byte 36 @ VOL
	.byte W04
	.byte 33 @ VOL
	.byte W03
	.byte 31 @ VOL
	.byte W04
	.byte 29 @ VOL
	.byte W13
	.byte 28 @ VOL
	.byte W06
	.byte 26 @ VOL
	.byte W07
	.byte 25 @ VOL
	.byte W13
	.byte 23 @ VOL
	.byte W24
	.byte W02
	.byte 22 @ VOL
	.byte W13
	.byte 20 @ VOL
	.byte W05
	.byte N96, As3 @ v040
	.byte W36
	.byte W01
	.byte VOL, 22
	.byte W07
	.byte 23 @ VOL
	.byte W07
	.byte 25 @ VOL
	.byte W07
	.byte 26 @ VOL
	.byte W08
	.byte 28 @ VOL
	.byte W07
	.byte 29 @ VOL
	.byte W07
	.byte 31 @ VOL
	.byte W07
	.byte 33 @ VOL
	.byte W09
	.byte 34 @ VOL
	.byte N96, Ds4 @ v040
	.byte W03
	.byte VOL, 36
	.byte W02
	.byte 37 @ VOL
	.byte W04
	.byte 36 @ VOL
	.byte W03
	.byte 34 @ VOL
	.byte W01
	.byte 33 @ VOL
	.byte W02
	.byte 31 @ VOL
	.byte W05
	.byte 29 @ VOL
	.byte W05
	.byte 28 @ VOL
	.byte W05
	.byte 26 @ VOL
	.byte W06
	.byte 25 @ VOL
	.byte W07
	.byte 23 @ VOL
	.byte W20
	.byte 22 @ VOL
	.byte W10
	.byte 18 @ VOL
	.byte W01
	.byte 17 @ VOL
	.byte W08
	.byte 18 @ VOL
	.byte W10
	.byte 20 @ VOL
	.byte W04
	.byte N84, Cn4 @ v040
	.byte W05
	.byte VOL, 22
	.byte W10
	.byte 23 @ VOL
	.byte W10
	.byte 25 @ VOL
	.byte W09
	.byte 26 @ VOL
	.byte W10
	.byte 28 @ VOL
	.byte W10
	.byte 29 @ VOL
	.byte W10
	.byte 31 @ VOL
	.byte W09
	.byte 33 @ VOL
	.byte W10
	.byte 34 @ VOL
	.byte W10
	.byte 36 @ VOL
	.byte W03
	.byte GOTO
		.word track_86_lbl_26c3ee
	.byte FINE

track_86_2:
	.byte KEYSH, 0
	.byte VOICE, 14
	.byte VOL, 15
	.byte PAN, c_v
	.byte PRIO, 108
	.byte TIE, Fs3, v032
	.byte W01
	.byte VOL, 15
	.byte W01
	.byte 15 @ VOL
	.byte W01
	.byte 16 @ VOL
	.byte W01
	.byte 16 @ VOL
	.byte W01
	.byte 16 @ VOL
	.byte W01
	.byte 16 @ VOL
	.byte W01
	.byte 16 @ VOL
	.byte W01
	.byte 17 @ VOL
	.byte W01
	.byte 17 @ VOL
	.byte W01
	.byte 17 @ VOL
	.byte W01
	.byte 17 @ VOL
	.byte W01
	.byte 18 @ VOL
	.byte W01
	.byte 18 @ VOL
	.byte W01
	.byte 18 @ VOL
	.byte W01
	.byte 18 @ VOL
	.byte W01
	.byte 18 @ VOL
	.byte W01
	.byte 18 @ VOL
	.byte W01
	.byte 18 @ VOL
	.byte W01
	.byte 18 @ VOL
	.byte W01
	.byte 18 @ VOL
	.byte W01
	.byte 18 @ VOL
	.byte W01
	.byte 19 @ VOL
	.byte W01
	.byte 19 @ VOL
	.byte W01
	.byte 19 @ VOL
	.byte W01
	.byte 19 @ VOL
	.byte W01
	.byte 19 @ VOL
	.byte W01
	.byte 20 @ VOL
	.byte W01
	.byte 20 @ VOL
	.byte W01
	.byte 20 @ VOL
	.byte W01
	.byte 20 @ VOL
	.byte W01
	.byte 21 @ VOL
	.byte W01
	.byte 21 @ VOL
	.byte W01
	.byte 21 @ VOL
	.byte W01
	.byte 21 @ VOL
	.byte W01
	.byte 21 @ VOL
	.byte W01
	.byte 22 @ VOL
	.byte W01
	.byte 22 @ VOL
	.byte W01
	.byte 22 @ VOL
	.byte W01
	.byte 22 @ VOL
	.byte W01
	.byte 22 @ VOL
	.byte W01
	.byte 22 @ VOL
	.byte W01
	.byte 22 @ VOL
	.byte W01
	.byte 22 @ VOL
	.byte W01
	.byte 22 @ VOL
	.byte W01
	.byte 22 @ VOL
	.byte W01
	.byte 23 @ VOL
	.byte W01
	.byte 23 @ VOL
	.byte W01
	.byte 23 @ VOL
	.byte W01
	.byte 23 @ VOL
	.byte W01
	.byte 23 @ VOL
	.byte W01
	.byte 24 @ VOL
	.byte W01
	.byte 24 @ VOL
	.byte W01
	.byte 24 @ VOL
	.byte W01
	.byte 24 @ VOL
	.byte W01
	.byte 25 @ VOL
	.byte W01
	.byte 25 @ VOL
	.byte W01
	.byte 25 @ VOL
	.byte W01
	.byte 25 @ VOL
	.byte W01
	.byte 25 @ VOL
	.byte W01
	.byte 25 @ VOL
	.byte W01
	.byte 25 @ VOL
	.byte W01
	.byte 25 @ VOL
	.byte W01
	.byte 25 @ VOL
	.byte W01
	.byte 25 @ VOL
	.byte W01
	.byte 26 @ VOL
	.byte W01
	.byte 26 @ VOL
	.byte W01
	.byte 26 @ VOL
	.byte W01
	.byte 26 @ VOL
	.byte W01
	.byte 26 @ VOL
	.byte W01
	.byte 27 @ VOL
	.byte W01
	.byte 27 @ VOL
	.byte W01
	.byte 27 @ VOL
	.byte W01
	.byte 27 @ VOL
	.byte W01
	.byte 28 @ VOL
	.byte W01
	.byte 28 @ VOL
	.byte W01
	.byte 28 @ VOL
	.byte W01
	.byte 28 @ VOL
	.byte W01
	.byte 28 @ VOL
	.byte W01
	.byte 29 @ VOL
	.byte W01
	.byte 29 @ VOL
	.byte W01
	.byte 29 @ VOL
	.byte W01
	.byte 29 @ VOL
	.byte W01
	.byte 29 @ VOL
	.byte W01
	.byte 29 @ VOL
	.byte W01
	.byte 29 @ VOL
	.byte W01
	.byte 29 @ VOL
	.byte W01
	.byte 29 @ VOL
	.byte W01
	.byte 29 @ VOL
	.byte W01
	.byte 30 @ VOL
	.byte W01
	.byte 30 @ VOL
	.byte W01
	.byte 30 @ VOL
	.byte W01
	.byte 30 @ VOL
	.byte W01
	.byte 31 @ VOL
	.byte W01
	.byte 31 @ VOL
	.byte W01
	.byte 31 @ VOL
	.byte W01
	.byte 31 @ VOL
	.byte W01
	.byte 31 @ VOL
	.byte W01
	.byte 32 @ VOL
	.byte W01
	.byte 32 @ VOL
	.byte W01
	.byte 32 @ VOL
	.byte W01
	.byte 32 @ VOL
	.byte W01
	.byte 32 @ VOL
	.byte W01
	.byte 33 @ VOL
	.byte W01
	.byte 33 @ VOL
	.byte W01
	.byte 33 @ VOL
	.byte W01
	.byte 33 @ VOL
	.byte W01
	.byte 33 @ VOL
	.byte W01
	.byte 33 @ VOL
	.byte W01
	.byte 33 @ VOL
	.byte W01
	.byte 33 @ VOL
	.byte W01
	.byte 33 @ VOL
	.byte W01
	.byte 34 @ VOL
	.byte W01
	.byte 34 @ VOL
	.byte W01
	.byte 34 @ VOL
	.byte W01
	.byte 34 @ VOL
	.byte W01
	.byte 34 @ VOL
	.byte W01
	.byte 35 @ VOL
	.byte W01
	.byte 35 @ VOL
	.byte W01
	.byte 35 @ VOL
	.byte W01
	.byte 35 @ VOL
	.byte W01
	.byte 35 @ VOL
	.byte W01
	.byte 36 @ VOL
	.byte W01
	.byte 36 @ VOL
	.byte W01
	.byte 36 @ VOL
	.byte W01
	.byte 36 @ VOL
	.byte W01
	.byte 36 @ VOL
	.byte W01
	.byte 37 @ VOL
	.byte W01
	.byte 37 @ VOL
	.byte W01
	.byte 37 @ VOL
	.byte W01
	.byte 37 @ VOL
	.byte W01
	.byte 37 @ VOL
	.byte W01
	.byte 37 @ VOL
	.byte W01
	.byte 37 @ VOL
	.byte W01
	.byte 37 @ VOL
	.byte W01
	.byte 37 @ VOL
	.byte W01
	.byte 38 @ VOL
	.byte W01
	.byte 38 @ VOL
	.byte W01
	.byte 38 @ VOL
	.byte W01
	.byte 38 @ VOL
	.byte W01
	.byte 38 @ VOL
	.byte W01
	.byte 39 @ VOL
	.byte W01
	.byte 39 @ VOL
	.byte W01
	.byte 39 @ VOL
	.byte W01
	.byte 39 @ VOL
	.byte W01
	.byte 39 @ VOL
	.byte W01
	.byte 40 @ VOL
	.byte W01
	.byte 40 @ VOL
	.byte W01
	.byte 40 @ VOL
	.byte W01
	.byte 40 @ VOL
	.byte W01
	.byte 40 @ VOL
	.byte W01
	.byte 40 @ VOL
	.byte W01
	.byte 40 @ VOL
	.byte W01
	.byte 40 @ VOL
	.byte W01
	.byte 40 @ VOL
	.byte W01
	.byte 41 @ VOL
	.byte W01
	.byte 41 @ VOL
	.byte W01
	.byte 41 @ VOL
	.byte W01
	.byte 41 @ VOL
	.byte W01
	.byte 41 @ VOL
	.byte W01
	.byte 42 @ VOL
	.byte W01
	.byte 42 @ VOL
	.byte W01
	.byte 42 @ VOL
	.byte W01
	.byte 42 @ VOL
	.byte W01
	.byte 40 @ VOL
	.byte W02
	.byte 39 @ VOL
	.byte W02
	.byte 37 @ VOL
	.byte W01
	.byte 36 @ VOL
	.byte W02
	.byte 34 @ VOL
	.byte W02
	.byte 33 @ VOL
	.byte W01
	.byte 31 @ VOL
	.byte W02
	.byte 29 @ VOL
	.byte W02
	.byte 28 @ VOL
	.byte W01
	.byte 26 @ VOL
	.byte W02
	.byte 25 @ VOL
	.byte W02
	.byte 23 @ VOL
	.byte W01
	.byte 22 @ VOL
	.byte W02
	.byte 20 @ VOL
	.byte W02
	.byte 18 @ VOL
	.byte W01
	.byte 17 @ VOL
	.byte W03
	.byte EOT @ Fs3, v032
	.byte TIE, Fn3 @ v032
	.byte W03
	.byte VOL, 20
	.byte W03
	.byte 22 @ VOL
	.byte W03
	.byte 23 @ VOL
	.byte W02
	.byte 25 @ VOL
	.byte W03
	.byte 26 @ VOL
	.byte W03
	.byte 28 @ VOL
	.byte W03
	.byte 29 @ VOL
	.byte W03
	.byte 31 @ VOL
	.byte W03
	.byte 33 @ VOL
	.byte W03
	.byte 34 @ VOL
	.byte W03
	.byte 36 @ VOL
	.byte W03
	.byte 37 @ VOL
	.byte W03
	.byte 39 @ VOL
	.byte W03
	.byte 40 @ VOL
	.byte W02
	.byte 42 @ VOL
	.byte W04
	.byte 40 @ VOL
	.byte W04
	.byte 39 @ VOL
	.byte W03
	.byte 37 @ VOL
	.byte W04
	.byte 36 @ VOL
	.byte W03
	.byte 34 @ VOL
	.byte W04
	.byte 33 @ VOL
	.byte W03
	.byte 31 @ VOL
	.byte W04
	.byte 29 @ VOL
	.byte W03
	.byte 28 @ VOL
	.byte W04
	.byte 26 @ VOL
	.byte W03
	.byte 25 @ VOL
	.byte W04
	.byte 23 @ VOL
	.byte W03
	.byte 22 @ VOL
	.byte W05
	.byte 20 @ VOL
	.byte W02
	.byte 22 @ VOL
	.byte W02
	.byte 23 @ VOL
	.byte W01
	.byte 25 @ VOL
	.byte W02
	.byte 26 @ VOL
	.byte W02
	.byte 28 @ VOL
	.byte W02
	.byte 29 @ VOL
	.byte W02
	.byte 31 @ VOL
	.byte W03
	.byte 34 @ VOL
	.byte W02
	.byte 36 @ VOL
	.byte W02
	.byte 37 @ VOL
	.byte W02
	.byte 39 @ VOL
	.byte W03
	.byte 42 @ VOL
	.byte W02
	.byte 44 @ VOL
	.byte W02
	.byte 45 @ VOL
	.byte W02
	.byte 47 @ VOL
	.byte W02
	.byte 48 @ VOL
	.byte W01
	.byte 50 @ VOL
	.byte W02
	.byte 51 @ VOL
	.byte W02
	.byte 53 @ VOL
	.byte W02
	.byte 55 @ VOL
	.byte W02
	.byte 56 @ VOL
	.byte W03
	.byte 59 @ VOL
	.byte W02
	.byte 61 @ VOL
	.byte W02
	.byte 61 @ VOL
	.byte W03
	.byte 58 @ VOL
	.byte W02
	.byte 56 @ VOL
	.byte W03
	.byte 53 @ VOL
	.byte W02
	.byte 51 @ VOL
	.byte W03
	.byte 48 @ VOL
	.byte W02
	.byte 47 @ VOL
	.byte W03
	.byte 44 @ VOL
	.byte W02
	.byte 42 @ VOL
	.byte W01
	.byte 40 @ VOL
	.byte W02
	.byte 39 @ VOL
	.byte W02
	.byte 37 @ VOL
	.byte W01
	.byte 36 @ VOL
	.byte W02
	.byte 34 @ VOL
	.byte W02
	.byte 33 @ VOL
	.byte W01
	.byte 31 @ VOL
	.byte W02
	.byte 29 @ VOL
	.byte W02
	.byte 28 @ VOL
	.byte W01
	.byte 26 @ VOL
	.byte W02
	.byte 25 @ VOL
	.byte W02
	.byte 23 @ VOL
	.byte W01
	.byte 22 @ VOL
	.byte W02
	.byte 20 @ VOL
	.byte W02
	.byte 18 @ VOL
	.byte W01
	.byte 17 @ VOL
	.byte W02
	.byte 17 @ VOL
	.byte W01
	.byte EOT @ Fn3, v032
	.byte TIE, Ds3 @ v032
	.byte W03
	.byte VOL, 20
	.byte W03
	.byte 22 @ VOL
	.byte W03
	.byte 23 @ VOL
	.byte W03
	.byte 25 @ VOL
	.byte W03
	.byte 26 @ VOL
	.byte W03
	.byte 28 @ VOL
	.byte W03
	.byte 29 @ VOL
	.byte W03
	.byte 31 @ VOL
	.byte W03
	.byte 33 @ VOL
	.byte W02
	.byte 34 @ VOL
	.byte W03
	.byte 36 @ VOL
	.byte W03
	.byte 37 @ VOL
	.byte W03
	.byte 39 @ VOL
	.byte W03
	.byte 40 @ VOL
	.byte W03
	.byte 42 @ VOL
	.byte W03
	.byte 40 @ VOL
	.byte W04
	.byte 39 @ VOL
	.byte W03
	.byte 37 @ VOL
	.byte W04
	.byte 36 @ VOL
	.byte W03
	.byte 34 @ VOL
	.byte W04
	.byte 33 @ VOL
	.byte W03
	.byte 31 @ VOL
	.byte W04
	.byte 29 @ VOL
	.byte W03
	.byte 28 @ VOL
	.byte W04
	.byte 26 @ VOL
	.byte W03
	.byte 25 @ VOL
	.byte W04
	.byte 23 @ VOL
	.byte W03
	.byte 22 @ VOL
	.byte W05
	.byte 20 @ VOL
	.byte W02
	.byte 22 @ VOL
	.byte W02
	.byte 23 @ VOL
	.byte W01
	.byte 25 @ VOL
	.byte W02
	.byte 26 @ VOL
	.byte W02
	.byte 28 @ VOL
	.byte W02
	.byte 29 @ VOL
	.byte W02
	.byte 31 @ VOL
	.byte W03
	.byte 34 @ VOL
	.byte W02
	.byte 36 @ VOL
	.byte W02
	.byte 37 @ VOL
	.byte W02
	.byte 39 @ VOL
	.byte W03
	.byte 42 @ VOL
	.byte W02
	.byte 44 @ VOL
	.byte W02
	.byte 45 @ VOL
	.byte W02
	.byte 47 @ VOL
	.byte W02
	.byte 48 @ VOL
	.byte W01
	.byte 50 @ VOL
	.byte W02
	.byte 51 @ VOL
	.byte W02
	.byte 53 @ VOL
	.byte W02
	.byte 55 @ VOL
	.byte W02
	.byte 56 @ VOL
	.byte W03
	.byte 59 @ VOL
	.byte W02
	.byte 61 @ VOL
	.byte W02
	.byte 61 @ VOL
	.byte W03
	.byte 58 @ VOL
	.byte W02
	.byte 56 @ VOL
	.byte W03
	.byte 53 @ VOL
	.byte W02
	.byte 51 @ VOL
	.byte W03
	.byte 48 @ VOL
	.byte W02
	.byte 47 @ VOL
	.byte W03
	.byte 44 @ VOL
	.byte W02
	.byte 42 @ VOL
	.byte W01
	.byte 40 @ VOL
	.byte W02
	.byte 39 @ VOL
	.byte W02
	.byte 37 @ VOL
	.byte W01
	.byte 36 @ VOL
	.byte W02
	.byte 34 @ VOL
	.byte W02
	.byte 33 @ VOL
	.byte W01
	.byte 31 @ VOL
	.byte W02
	.byte 29 @ VOL
	.byte W02
	.byte 28 @ VOL
	.byte W01
	.byte 26 @ VOL
	.byte W02
	.byte 25 @ VOL
	.byte W02
	.byte 23 @ VOL
	.byte W01
	.byte 22 @ VOL
	.byte W02
	.byte 20 @ VOL
	.byte W02
	.byte 18 @ VOL
	.byte W01
	.byte 17 @ VOL
	.byte W02
	.byte 18 @ VOL
	.byte W01
	.byte EOT @ Ds3, v032
	.byte VOL, 21
	.byte TIE @ Ds3, v032
	.byte W01
	.byte VOL, 23
	.byte W01
	.byte 25 @ VOL
	.byte W01
	.byte 28 @ VOL
	.byte W01
	.byte 30 @ VOL
	.byte W01
	.byte 33 @ VOL
	.byte W01
	.byte 35 @ VOL
	.byte W01
	.byte 37 @ VOL
	.byte W01
	.byte 40 @ VOL
	.byte W01
	.byte 42 @ VOL
	.byte W01
	.byte 44 @ VOL
	.byte W01
	.byte 47 @ VOL
	.byte W01
	.byte 49 @ VOL
	.byte W01
	.byte 51 @ VOL
	.byte W01
	.byte 54 @ VOL
	.byte W01
	.byte 56 @ VOL
	.byte W01
	.byte 59 @ VOL
	.byte W01
	.byte 61 @ VOL
	.byte W07
	.byte 59 @ VOL
	.byte W06
	.byte 58 @ VOL
	.byte W05
	.byte 56 @ VOL
	.byte W05
	.byte 55 @ VOL
	.byte W06
	.byte 53 @ VOL
	.byte W05
	.byte 51 @ VOL
	.byte W05
	.byte 50 @ VOL
	.byte W06
	.byte 48 @ VOL
	.byte W05
	.byte 47 @ VOL
	.byte W05
	.byte 45 @ VOL
	.byte W06
	.byte 44 @ VOL
	.byte W05
	.byte 42 @ VOL
	.byte W05
	.byte 40 @ VOL
	.byte W06
	.byte 39 @ VOL
	.byte W02
	.byte W03
	.byte 37 @ VOL
	.byte W05
	.byte 36 @ VOL
	.byte W06
	.byte 34 @ VOL
	.byte W05
	.byte 33 @ VOL
	.byte W05
	.byte 31 @ VOL
	.byte W06
	.byte 29 @ VOL
	.byte W05
	.byte 28 @ VOL
	.byte W05
	.byte 26 @ VOL
	.byte W06
	.byte 25 @ VOL
	.byte W05
	.byte 23 @ VOL
	.byte W05
	.byte 22 @ VOL
	.byte W06
	.byte 20 @ VOL
	.byte W05
	.byte 18 @ VOL
	.byte W03
	.byte 17 @ VOL
	.byte W02
	.byte EOT @ Ds3, v032
	.byte W01
	.byte VOL, 15
	.byte W03
	.byte 14 @ VOL
	.byte W03
	.byte 12 @ VOL
	.byte W03
	.byte 11 @ VOL
	.byte W03
	.byte 9 @ VOL
	.byte W03
	.byte 7 @ VOL
	.byte W02
	.byte 6 @ VOL
	.byte W03
	.byte 4 @ VOL
	.byte W03
track_86_lbl_26c809:
	.byte VOICE, 3
	.byte VOL, 25
	.byte PAN, c_v-4
	.byte N96, As2, v040
	.byte W09
	.byte VOL, 23
	.byte W11
	.byte 22 @ VOL
	.byte W11
	.byte 20 @ VOL
	.byte W11
	.byte 18 @ VOL
	.byte W09
	.byte 17 @ VOL
	.byte W06
	.byte 18 @ VOL
	.byte W06
	.byte 20 @ VOL
	.byte W07
	.byte 22 @ VOL
	.byte W06
	.byte 23 @ VOL
	.byte W06
	.byte 25 @ VOL
	.byte W07
	.byte 26 @ VOL
	.byte W06
	.byte 28 @ VOL
	.byte W01
	.byte N96, Gn2 @ v040
	.byte W07
	.byte VOL, 26
	.byte W08
	.byte 25 @ VOL
	.byte W08
	.byte 23 @ VOL
	.byte W08
	.byte 22 @ VOL
	.byte W08
	.byte 20 @ VOL
	.byte W13
	.byte 22 @ VOL
	.byte W09
	.byte 23 @ VOL
	.byte W09
	.byte 25 @ VOL
	.byte W09
	.byte 26 @ VOL
	.byte W09
	.byte 28 @ VOL
	.byte W08
	.byte N96, Cn3 @ v040
	.byte W01
	.byte VOL, 29
	.byte W09
	.byte 31 @ VOL
	.byte W09
	.byte 33 @ VOL
	.byte W06
	.byte 31 @ VOL
	.byte W07
	.byte 29 @ VOL
	.byte W06
	.byte 28 @ VOL
	.byte W07
	.byte 26 @ VOL
	.byte W06
	.byte 25 @ VOL
	.byte W07
	.byte 23 @ VOL
	.byte W06
	.byte 22 @ VOL
	.byte W06
	.byte 20 @ VOL
	.byte W07
	.byte 18 @ VOL
	.byte W06
	.byte 17 @ VOL
	.byte W07
	.byte 15 @ VOL
	.byte W05
	.byte 14 @ VOL
	.byte W01
	.byte N92 @ Cn3, v040
	.byte W06
	.byte VOL, 15
	.byte W09
	.byte 17 @ VOL
	.byte W10
	.byte 18 @ VOL
	.byte W09
	.byte 20 @ VOL
	.byte W09
	.byte 22 @ VOL
	.byte W09
	.byte 23 @ VOL
	.byte W09
	.byte 25 @ VOL
	.byte W09
	.byte 26 @ VOL
	.byte W08
	.byte 28 @ VOL
	.byte W04
	.byte 29 @ VOL
	.byte W04
	.byte 31 @ VOL
	.byte W04
	.byte 33 @ VOL
	.byte W04
	.byte 34 @ VOL
	.byte W02
	.byte N96, Dn3 @ v040
	.byte W06
	.byte VOL, 33
	.byte W03
	.byte 31 @ VOL
	.byte W04
	.byte 29 @ VOL
	.byte W13
	.byte 28 @ VOL
	.byte W06
	.byte 26 @ VOL
	.byte W07
	.byte 25 @ VOL
	.byte W13
	.byte 23 @ VOL
	.byte W24
	.byte W02
	.byte 22 @ VOL
	.byte W13
	.byte 20 @ VOL
	.byte W05
	.byte N96, Ds3 @ v040
	.byte W36
	.byte W01
	.byte VOL, 22
	.byte W07
	.byte 23 @ VOL
	.byte W07
	.byte 25 @ VOL
	.byte W07
	.byte 26 @ VOL
	.byte W08
	.byte 28 @ VOL
	.byte W07
	.byte 29 @ VOL
	.byte W07
	.byte 31 @ VOL
	.byte W07
	.byte 33 @ VOL
	.byte W09
	.byte 34 @ VOL
	.byte N96, An3 @ v040
	.byte W03
	.byte VOL, 36
	.byte W02
	.byte 37 @ VOL
	.byte W04
	.byte 36 @ VOL
	.byte W03
	.byte 34 @ VOL
	.byte W01
	.byte 33 @ VOL
	.byte W02
	.byte 31 @ VOL
	.byte W05
	.byte 29 @ VOL
	.byte W05
	.byte 28 @ VOL
	.byte W05
	.byte 26 @ VOL
	.byte W06
	.byte 25 @ VOL
	.byte W07
	.byte 23 @ VOL
	.byte W20
	.byte 22 @ VOL
	.byte W10
	.byte 18 @ VOL
	.byte W01
	.byte 17 @ VOL
	.byte W08
	.byte 18 @ VOL
	.byte W10
	.byte 20 @ VOL
	.byte W04
	.byte N84, Fn3 @ v040
	.byte W05
	.byte VOL, 22
	.byte W10
	.byte 23 @ VOL
	.byte W10
	.byte 25 @ VOL
	.byte W09
	.byte 26 @ VOL
	.byte W10
	.byte 28 @ VOL
	.byte W10
	.byte 29 @ VOL
	.byte W10
	.byte 31 @ VOL
	.byte W09
	.byte 33 @ VOL
	.byte W10
	.byte 34 @ VOL
	.byte W10
	.byte 36 @ VOL
	.byte W03
	.byte GOTO
		.word track_86_lbl_26c809
	.byte FINE

track_86_3:
	.byte KEYSH, 0
	.byte PRIO, 1
	.byte W96
	.byte W96
	.byte W96
	.byte W96
	.byte W96
	.byte W96
	.byte W96
	.byte W96
track_86_lbl_26c8fe:
	.byte VOICE, 3
	.byte VOL, 23
	.byte PAN, c_v+6
	.byte N96, Dn3, v040
	.byte W20
	.byte VOL, 22
	.byte W11
	.byte 20 @ VOL
	.byte W11
	.byte 18 @ VOL
	.byte W09
	.byte 17 @ VOL
	.byte W06
	.byte 18 @ VOL
	.byte W06
	.byte 20 @ VOL
	.byte W07
	.byte 22 @ VOL
	.byte W06
	.byte 23 @ VOL
	.byte W06
	.byte 25 @ VOL
	.byte W07
	.byte 26 @ VOL
	.byte W06
	.byte 28 @ VOL
	.byte W01
	.byte N96, Cn3 @ v040
	.byte W07
	.byte VOL, 26
	.byte W08
	.byte 25 @ VOL
	.byte W08
	.byte 23 @ VOL
	.byte W08
	.byte 22 @ VOL
	.byte W08
	.byte 20 @ VOL
	.byte W13
	.byte 22 @ VOL
	.byte W09
	.byte 23 @ VOL
	.byte W09
	.byte 25 @ VOL
	.byte W09
	.byte 26 @ VOL
	.byte W09
	.byte 28 @ VOL
	.byte W08
	.byte N96, En3 @ v040
	.byte W01
	.byte VOL, 29
	.byte W09
	.byte 31 @ VOL
	.byte W09
	.byte 33 @ VOL
	.byte W06
	.byte 31 @ VOL
	.byte W07
	.byte 29 @ VOL
	.byte W06
	.byte 28 @ VOL
	.byte W07
	.byte 26 @ VOL
	.byte W06
	.byte 25 @ VOL
	.byte W07
	.byte 23 @ VOL
	.byte W06
	.byte 22 @ VOL
	.byte W06
	.byte 20 @ VOL
	.byte W07
	.byte 18 @ VOL
	.byte W06
	.byte 17 @ VOL
	.byte W07
	.byte 15 @ VOL
	.byte W05
	.byte 14 @ VOL
	.byte W01
	.byte N92, Fs3 @ v040
	.byte W06
	.byte VOL, 15
	.byte W09
	.byte 17 @ VOL
	.byte W10
	.byte 18 @ VOL
	.byte W09
	.byte 20 @ VOL
	.byte W09
	.byte 22 @ VOL
	.byte W09
	.byte 23 @ VOL
	.byte W09
	.byte 25 @ VOL
	.byte W09
	.byte 26 @ VOL
	.byte W09
	.byte 28 @ VOL
	.byte W04
	.byte 28 @ VOL
	.byte W03
	.byte 29 @ VOL
	.byte W03
	.byte 31 @ VOL
	.byte W03
	.byte 33 @ VOL
	.byte W04
	.byte N96, Fn3 @ v040
	.byte W09
	.byte VOL, 31
	.byte W04
	.byte 29 @ VOL
	.byte W13
	.byte 28 @ VOL
	.byte W06
	.byte 26 @ VOL
	.byte W07
	.byte 25 @ VOL
	.byte W13
	.byte 23 @ VOL
	.byte W24
	.byte W02
	.byte 22 @ VOL
	.byte W13
	.byte 20 @ VOL
	.byte W05
	.byte N96, Gn3 @ v040
	.byte W36
	.byte W01
	.byte VOL, 22
	.byte W07
	.byte 23 @ VOL
	.byte W07
	.byte 25 @ VOL
	.byte W07
	.byte 26 @ VOL
	.byte W08
	.byte 28 @ VOL
	.byte W07
	.byte 29 @ VOL
	.byte W07
	.byte 31 @ VOL
	.byte W07
	.byte 33 @ VOL
	.byte W09
	.byte 34 @ VOL
	.byte N96, Cn4 @ v040
	.byte W03
	.byte VOL, 36
	.byte W02
	.byte 37 @ VOL
	.byte W04
	.byte 36 @ VOL
	.byte W03
	.byte 34 @ VOL
	.byte W01
	.byte 33 @ VOL
	.byte W02
	.byte 31 @ VOL
	.byte W05
	.byte 29 @ VOL
	.byte W05
	.byte 28 @ VOL
	.byte W05
	.byte 26 @ VOL
	.byte W06
	.byte 25 @ VOL
	.byte W07
	.byte 23 @ VOL
	.byte W20
	.byte 22 @ VOL
	.byte W10
	.byte 18 @ VOL
	.byte W01
	.byte 17 @ VOL
	.byte W08
	.byte 18 @ VOL
	.byte W10
	.byte 20 @ VOL
	.byte W04
	.byte N84, An3 @ v040
	.byte W05
	.byte VOL, 22
	.byte W10
	.byte 23 @ VOL
	.byte W10
	.byte 25 @ VOL
	.byte W09
	.byte 26 @ VOL
	.byte W10
	.byte 28 @ VOL
	.byte W10
	.byte 29 @ VOL
	.byte W10
	.byte 31 @ VOL
	.byte W09
	.byte 33 @ VOL
	.byte W10
	.byte 34 @ VOL
	.byte W10
	.byte 36 @ VOL
	.byte W03
	.byte GOTO
		.word track_86_lbl_26c8fe
	.byte FINE

.align 2

track_86:
	.byte 4
	.byte 86
	.byte 130
	.byte 128
	.word 0x80a6718
	.word track_86_0
	.word track_86_1
	.word track_86_2
	.word track_86_3

.align 2
