.align 2

.global track_53

track_53_0:
	.byte KEYSH, 0
track_53_lbl_26752e:
	.byte TEMPO, 61
	.byte VOICE, 4
	.byte VOL, 60
	.byte PAN, c_v-4
	.byte PRIO, 110
	.byte N92, En1, v100
	.byte W96
	.byte N92 @ En1, v100
	.byte W96
	.byte En1, v084 @ N92
	.byte W96
	.byte En1, v100 @ N92
	.byte W96
	.byte N92 @ En1, v100
	.byte W96
	.byte W96
	.byte En1, v084 @ N92
	.byte W96
	.byte En1, v120 @ N92
	.byte W96
	.byte VOICE, 3
	.byte VOL, 38
	.byte PAN, c_v-10
	.byte TIE, En4, v060
	.byte W08
	.byte VOL, 41
	.byte W07
	.byte 45 @ VOL
	.byte W07
	.byte 48 @ VOL
	.byte W07
	.byte 51 @ VOL
	.byte W07
	.byte 55 @ VOL
	.byte W07
	.byte 58 @ VOL
	.byte W07
	.byte 62 @ VOL
	.byte W07
	.byte 65 @ VOL
	.byte W07
	.byte 69 @ VOL
	.byte W07
	.byte 72 @ VOL
	.byte W07
	.byte 76 @ VOL
	.byte W07
	.byte 79 @ VOL
	.byte W07
	.byte 83 @ VOL
	.byte W03
	.byte 84 @ VOL
	.byte W01
	.byte W01
	.byte 83 @ VOL
	.byte W06
	.byte 79 @ VOL
	.byte W07
	.byte 76 @ VOL
	.byte W07
	.byte 72 @ VOL
	.byte W06
	.byte 69 @ VOL
	.byte W07
	.byte 65 @ VOL
	.byte W07
	.byte 62 @ VOL
	.byte W07
	.byte 58 @ VOL
	.byte W06
	.byte 55 @ VOL
	.byte W07
	.byte 51 @ VOL
	.byte W07
	.byte 48 @ VOL
	.byte W07
	.byte 45 @ VOL
	.byte W06
	.byte 41 @ VOL
	.byte W07
	.byte 38 @ VOL
	.byte W07
	.byte 34 @ VOL
	.byte W01
	.byte EOT @ En4, v060
	.byte VOICE, 4
	.byte VOL, 60
	.byte PAN, c_v-4
	.byte N92, En1, v084
	.byte W96
	.byte En1, v120 @ N92
	.byte W96
	.byte VOICE, 7
	.byte VOL, 60
	.byte PAN, c_v-10
	.byte N07, En3, v068
	.byte W24
	.byte An2 @ N07, v068
	.byte W24
	.byte N32, As2 @ v068
	.byte W32
	.byte N08, Ds3 @ v068
	.byte W08
	.byte Fn3 @ N08, v068
	.byte W08
	.byte En3 @ N08, v068
	.byte W08
	.byte An2, v056 @ N08
	.byte W08
	.byte En3 @ N08, v056
	.byte W08
	.byte Dn3 @ N08, v056
	.byte W08
	.byte As2 @ N08, v056
	.byte W08
	.byte Fn2 @ N08, v056
	.byte W08
	.byte As2, v052 @ N08
	.byte W08
	.byte Dn3 @ N08, v052
	.byte W08
	.byte Fn3 @ N08, v052
	.byte W08
	.byte As3 @ N08, v052
	.byte W08
	.byte Dn4 @ N08, v052
	.byte W08
	.byte Fn4, v056 @ N08
	.byte W08
	.byte N96, An4, v020
	.byte W96
	.byte N48, Gs4 @ v020
	.byte W48
	.byte Gn4 @ N48, v020
	.byte W48
	.byte Fn4 @ N48, v020
	.byte W96
	.byte W96
	.byte N05, An3, v036
	.byte W24
	.byte N06, Dn3, v024
	.byte W24
	.byte N32, Ds3, v028
	.byte W32
	.byte N08, Gs3 @ v028
	.byte W08
	.byte As3 @ N08, v028
	.byte W08
	.byte Dn4, v036 @ N08
	.byte W08
	.byte Fn3, v020 @ N08
	.byte W08
	.byte N10, Dn4 @ v020
	.byte W16
	.byte N15, Dn4, v040
	.byte W16
	.byte N08, Cs4, v036
	.byte W08
	.byte Ds3, v020 @ N08
	.byte W08
	.byte N12, Cs4 @ v020
	.byte W16
	.byte N16, Cs4, v040
	.byte W16
	.byte W96
	.byte N06, En4 @ v040
	.byte W08
	.byte Bn3, v032 @ N06
	.byte W08
	.byte En4 @ N06, v032
	.byte W08
	.byte VOL, 38
	.byte N24, Ds4 @ v032
	.byte W01
	.byte VOL, 42
	.byte W01
	.byte 46 @ VOL
	.byte W01
	.byte 51 @ VOL
	.byte W01
	.byte 55 @ VOL
	.byte W01
	.byte 59 @ VOL
	.byte W01
	.byte 63 @ VOL
	.byte W01
	.byte 67 @ VOL
	.byte W01
	.byte 71 @ VOL
	.byte W01
	.byte 76 @ VOL
	.byte W01
	.byte 80 @ VOL
	.byte W01
	.byte 84 @ VOL
	.byte W01
	.byte 89 @ VOL
	.byte W01
	.byte 93 @ VOL
	.byte W01
	.byte 97 @ VOL
	.byte W01
	.byte 102 @ VOL
	.byte W01
	.byte 105 @ VOL
	.byte W08
	.byte 86 @ VOL
	.byte N05, Dn4 @ v032
	.byte W08
	.byte Gn3 @ N05, v032
	.byte W08
	.byte Dn4 @ N05, v032
	.byte W08
	.byte Cn4, v040 @ N05
	.byte W08
	.byte Fn3 @ N05, v040
	.byte W08
	.byte Cn4 @ N05, v040
	.byte W08
	.byte N08, As4 @ v040
	.byte W08
	.byte Dn4 @ N08, v040
	.byte W08
	.byte As4 @ N08, v040
	.byte W16
	.byte N08 @ As4, v040
	.byte W16
	.byte As4, v020 @ N08
	.byte W08
	.byte Dn4 @ N08, v020
	.byte W08
	.byte As4 @ N08, v020
	.byte W16
	.byte N08 @ As4, v020
	.byte W16
	.byte Dn5, v048 @ N08
	.byte W08
	.byte Gn4 @ N08, v048
	.byte W08
	.byte Dn5, v060 @ N08
	.byte W08
	.byte Ds5 @ N08, v060
	.byte W08
	.byte Bn4, v036 @ N08
	.byte W08
	.byte Gs4 @ N08, v036
	.byte W08
	.byte Ds4 @ N08, v036
	.byte W08
	.byte Bn3 @ N08, v036
	.byte W08
	.byte Gs3 @ N08, v036
	.byte W08
	.byte Ds3, v032 @ N08
	.byte W08
	.byte Bn2 @ N08, v032
	.byte W08
	.byte Gs2 @ N08, v032
	.byte W08
	.byte W32
	.byte VOICE, 3
	.byte VOL, 60
	.byte N06, An3, v092
	.byte W08
	.byte En4 @ N06, v092
	.byte W08
	.byte Dn4, v080, 77 @ N06
	.byte W16
	.byte Dn4, v072, 77 @ N06
	.byte W16
	.byte N05, Dn4 @ v072
	.byte N05, Fn4 @ v072
	.byte W16
	.byte N08, Cn4, v092, 76
	.byte W32
	.byte N06, An3, v080
	.byte W08
	.byte En4 @ N06, v080
	.byte W08
	.byte N08, As3, v052, 74
	.byte W16
	.byte As3, v060, 74 @ N08
	.byte W16
	.byte As3, v072, 74 @ N08
	.byte W16
	.byte Cn4, v092, 76 @ N08
	.byte W16
	.byte An3, v052 @ N08
	.byte W16
	.byte Cn4 @ N08, v052
	.byte N08, En4 @ v052
	.byte W16
	.byte Dn4, v032, 77 @ N08
	.byte W16
	.byte Dn4, v040, 77 @ N08
	.byte W16
	.byte Dn4 @ N08, v040
	.byte N08, Fn4 @ v040
	.byte W16
	.byte En4, v060, 79 @ N08
	.byte W16
	.byte En4 @ N08, v060
	.byte N08, Gn4 @ v060
	.byte W16
	.byte En4 @ N08, v060
	.byte N08, Gn4 @ v060
	.byte W16
	.byte Fn4, v072, 80 @ N08
	.byte W16
	.byte Fn4 @ N08, v072
	.byte N08, Gs4 @ v072
	.byte W16
	.byte Fn4 @ N08, v072
	.byte N08, Gs4 @ v072
	.byte W16
	.byte Fn4, v100, 81 @ N08
	.byte W48
	.byte N48, Ds3, v052, 68
	.byte W48
	.byte Dn3 @ N48, v052
	.byte N48, An3 @ v052
	.byte W48
	.byte Ds3 @ N48, v052
	.byte N48, As3 @ v052
	.byte W48
track_53_lbl_2676e4:
	.byte VOICE, 7
	.byte VOL, 69
	.byte N06, An3, v052
	.byte W16
	.byte Dn3, v040 @ N06
	.byte W08
	.byte N30, Gs3, v048
	.byte W40
	.byte N05, Gs3, v028
	.byte W08
	.byte N08 @ Gs3, v028
	.byte W08
	.byte An3, v036 @ N08
	.byte W08
	.byte As3, v048 @ N08
	.byte W08
	.byte PEND
track_53_lbl_267700:
	.byte VOL, 50
	.byte N48, Dn4, v036
	.byte W07
	.byte VOL, 53
	.byte W06
	.byte 57 @ VOL
	.byte W06
	.byte 60 @ VOL
	.byte W06
	.byte 64 @ VOL
	.byte W06
	.byte 67 @ VOL
	.byte W06
	.byte 71 @ VOL
	.byte W06
	.byte 74 @ VOL
	.byte W04
	.byte 77 @ VOL
	.byte W01
	.byte 51 @ VOL
	.byte N48, Cs4, v044
	.byte W04
	.byte VOL, 50
	.byte W18
	.byte 46 @ VOL
	.byte W19
	.byte 43 @ VOL
	.byte W07
	.byte PEND
track_53_lbl_267724:
	.byte VOL, 42
	.byte N72, Cn4, v040
	.byte W96
	.byte PEND
	.byte W48
	.byte VOL, 60
	.byte N08, Cn4, v036
	.byte W08
	.byte Ds4, v044 @ N08
	.byte W08
	.byte Gn4 @ N08, v044
	.byte W08
	.byte N06, As4, v048
	.byte W16
	.byte N07, Gs4, v032
	.byte W08
track_53_lbl_26773f:
	.byte N48, Gn4, v032
	.byte W48
	.byte Fs4, v020 @ N48
	.byte W48
	.byte PEND
track_53_lbl_267747:
	.byte N48, Gn4, v012
	.byte W48
	.byte Fn4 @ N48, v012
	.byte W48
	.byte PEND
	.byte En4 @ N48, v012
	.byte W96
	.byte W96
	.byte VOL, 24
	.byte N96, An3, v032
	.byte W05
	.byte VOL, 27
	.byte W05
	.byte 31 @ VOL
	.byte W05
	.byte 34 @ VOL
	.byte W05
	.byte 38 @ VOL
	.byte W05
	.byte 41 @ VOL
	.byte W05
	.byte 45 @ VOL
	.byte W05
	.byte 48 @ VOL
	.byte W05
	.byte 51 @ VOL
	.byte W05
	.byte 55 @ VOL
	.byte W05
	.byte 58 @ VOL
	.byte W05
	.byte 62 @ VOL
	.byte W05
	.byte 65 @ VOL
	.byte W04
	.byte 69 @ VOL
	.byte W05
	.byte 72 @ VOL
	.byte W05
	.byte 76 @ VOL
	.byte W05
	.byte 79 @ VOL
	.byte W05
	.byte 83 @ VOL
	.byte W05
	.byte 86 @ VOL
	.byte W05
	.byte 90 @ VOL
	.byte W02
	.byte 91 @ VOL
	.byte N96, Gs3, v020
	.byte W02
	.byte VOL, 88
	.byte W02
	.byte 84 @ VOL
	.byte W02
	.byte 81 @ VOL
	.byte W02
	.byte 77 @ VOL
	.byte W02
	.byte 74 @ VOL
	.byte W02
	.byte 71 @ VOL
	.byte W02
	.byte 67 @ VOL
	.byte W02
	.byte 64 @ VOL
	.byte W02
	.byte 60 @ VOL
	.byte W02
	.byte 57 @ VOL
	.byte W02
	.byte 53 @ VOL
	.byte W02
	.byte 50 @ VOL
	.byte W02
	.byte 46 @ VOL
	.byte W02
	.byte 43 @ VOL
	.byte W06
	.byte 39 @ VOL
	.byte W08
	.byte 36 @ VOL
	.byte W07
	.byte 33 @ VOL
	.byte W02
	.byte 32 @ VOL
	.byte W09
	.byte 29 @ VOL
	.byte W09
	.byte 25 @ VOL
	.byte W08
	.byte 22 @ VOL
	.byte W09
	.byte 19 @ VOL
	.byte W09
	.byte 15 @ VOL
	.byte W01
	.byte VOICE, 3
	.byte VOL, 60
	.byte N04, En3, v092
	.byte W08
	.byte An2 @ N04, v092
	.byte W08
	.byte En3 @ N04, v092
	.byte W08
	.byte N07, Dn3, v100
	.byte W08
	.byte As2, v076 @ N07
	.byte W08
	.byte Fn2 @ N07, v076
	.byte W08
	.byte As2 @ N07, v076
	.byte W08
	.byte Dn3 @ N07, v076
	.byte W08
	.byte Fn3 @ N07, v076
	.byte W08
	.byte N05, As3, v084
	.byte W06
	.byte Dn4 @ N05, v084
	.byte W06
	.byte Fn4 @ N05, v084
	.byte W06
	.byte Dn5 @ N05, v084
	.byte W06
track_53_lbl_2677d7:
	.byte N08, En4, v060, 81
	.byte N08, Cn5 @ v060
	.byte W48
	.byte N36, As4, v052, 86
	.byte W48
	.byte PEND
	.byte VOICE, 4
	.byte VOL, 110
	.byte PAN, c_v-4
	.byte N92, En1, v080
	.byte W96
	.byte N92 @ En1, v080
	.byte W96
	.byte VOICE, 4
	.byte VOL, 34
	.byte N92, En1, v064
	.byte W96
	.byte En1, v100 @ N92
	.byte W96
	.byte VOICE, 9
	.byte VOL, 60
	.byte PAN, c_v+10
	.byte N48, En3, v040
	.byte W48
	.byte Ds3 @ N48, v040
	.byte W48
	.byte En3 @ N48, v040
	.byte W48
	.byte Fn3 @ N48, v040
	.byte W48
	.byte VOICE, 6
	.byte VOL, 34
	.byte PAN, c_v+20
	.byte N96, En4, v072
	.byte W96
	.byte Fn4 @ N96, v072
	.byte W96
	.byte VOICE, 3
	.byte VOL, 60
	.byte N48, An3 @ v072
	.byte W48
	.byte Gs3 @ N48, v072
	.byte W48
	.byte An3 @ N48, v072
	.byte W48
	.byte As3 @ N48, v072
	.byte W48
	.byte VOICE, 6
	.byte VOL, 34
	.byte TIE, An4, v060
	.byte W96
	.byte N96, Gs4 @ v060
	.byte W96
	.byte EOT, An4 @ v060
	.byte TIE, Cn4, v056
	.byte N96, Gn4 @ v056
	.byte W96
	.byte Fs4 @ N96, v056
	.byte W96
	.byte EOT, Cn4 @ v056
	.byte N96 @ Cn4, v056
	.byte N96, Fn4 @ v056
	.byte W96
	.byte W96
	.byte VOICE, 6
	.byte VOL, 34
	.byte N48, Cn4, v048, 76
	.byte W48
	.byte Fn4 @ N48, v048
	.byte W48
	.byte Cn4 @ N48, v048
	.byte N48, En4 @ v048
	.byte W48
	.byte Dn4 @ N48, v048
	.byte W48
	.byte VOICE, 3
	.byte VOL, 86
	.byte N08, En4, v068
	.byte W16
	.byte An3, v028 @ N08
	.byte W16
	.byte En4 @ N08, v028
	.byte W16
	.byte Fn4, v008 @ N08
	.byte W16
	.byte Fn4, v020 @ N08
	.byte W16
	.byte N08 @ Fn4, v020
	.byte W16
	.byte En4, v040 @ N08
	.byte W16
	.byte N08 @ En4, v040
	.byte W16
	.byte N08 @ En4, v040
	.byte W16
	.byte Fn4, v048 @ N08
	.byte W16
	.byte N08 @ Fn4, v048
	.byte W16
	.byte N08 @ Fn4, v048
	.byte W16
	.byte An4, v052 @ N08
	.byte W48
	.byte N48, Ds3, v032, 68
	.byte W48
	.byte Dn3 @ N48, v032
	.byte N48, An3 @ v032
	.byte W48
	.byte Ds3 @ N48, v032
	.byte N48, As3 @ v032
	.byte W48
	.byte PATT
		.word track_53_lbl_2676e4
	.byte PATT
		.word track_53_lbl_267700
	.byte PATT
		.word track_53_lbl_267724
	.byte PAN, c_v-10
	.byte W48
	.byte VOL, 60
	.byte N08, Cn4, v036
	.byte W08
	.byte Ds4, v044 @ N08
	.byte W08
	.byte Gn4 @ N08, v044
	.byte W08
	.byte N06, As4, v048
	.byte W16
	.byte N07, Gs4, v032
	.byte W08
	.byte PATT
		.word track_53_lbl_26773f
	.byte PATT
		.word track_53_lbl_267747
	.byte W96
	.byte W96
	.byte VOICE, 6
	.byte VOL, 34
	.byte PAN, c_v+20
	.byte N96, En4, v052
	.byte W96
	.byte N72, Fn4 @ v052
	.byte W96
	.byte VOICE, 3
	.byte VOL, 60
	.byte PAN, c_v-10
	.byte N04, En3, v092
	.byte W08
	.byte An2 @ N04, v092
	.byte W08
	.byte En3 @ N04, v092
	.byte W08
	.byte N07, Dn3, v100
	.byte W08
	.byte As2, v076 @ N07
	.byte W08
	.byte Fn2 @ N07, v076
	.byte W08
	.byte As2 @ N07, v076
	.byte W08
	.byte Dn3 @ N07, v076
	.byte W08
	.byte Fn3 @ N07, v076
	.byte W08
	.byte N05, As3, v084
	.byte W06
	.byte Dn4 @ N05, v084
	.byte W06
	.byte Fn4 @ N05, v084
	.byte W06
	.byte Dn5 @ N05, v084
	.byte W06
	.byte PATT
		.word track_53_lbl_2677d7
	.byte GOTO
		.word track_53_lbl_26752e
	.byte FINE

track_53_1:
	.byte KEYSH, 0
track_53_lbl_2678f6:
	.byte VOICE, 4
	.byte VOL, 60
	.byte PAN, c_v
	.byte PRIO, 109
	.byte W48
	.byte N48, Fn1, v112
	.byte W48
	.byte W48
	.byte N48 @ Fn1, v112
	.byte W48
	.byte PAN, c_v-10
	.byte N48, Bn1 @ v112
	.byte W48
	.byte Cn2, v100 @ N48
	.byte W48
	.byte Bn1, v096 @ N48
	.byte W48
	.byte An1 @ N48, v096
	.byte W48
	.byte N96, Gs1, v092
	.byte W96
	.byte PAN, c_v
	.byte N92, En1, v100
	.byte W96
	.byte PAN, c_v-10
	.byte N48, Bn1, v116
	.byte W48
	.byte Cn2, v124 @ N48
	.byte W48
	.byte Dn2, v112 @ N48
	.byte W48
	.byte Cn2, v124 @ N48
	.byte W48
	.byte W48
	.byte Fn1, v112 @ N48
	.byte W48
	.byte W48
	.byte N48 @ Fn1, v112
	.byte W48
	.byte Bn1, v108 @ N48
	.byte W48
	.byte Cn2, v100 @ N48
	.byte W48
	.byte Dn2 @ N48, v100
	.byte W48
	.byte Ds2 @ N48, v100
	.byte W48
	.byte VOICE, 9
	.byte VOL, 60
	.byte PAN, c_v+10
	.byte N48, En3, v052
	.byte W48
	.byte Ds3 @ N48, v052
	.byte W48
	.byte En3 @ N48, v052
	.byte W48
	.byte Fn3 @ N48, v052
	.byte W48
	.byte En3 @ N48, v052
	.byte W48
	.byte Ds3 @ N48, v052
	.byte W48
	.byte Dn3 @ N48, v052
	.byte W48
	.byte Ds3 @ N48, v052
	.byte W48
	.byte N08, Fn3, v072
	.byte W08
	.byte Dn3 @ N08, v072
	.byte W08
	.byte Fn3 @ N08, v072
	.byte W08
	.byte N24, An3, v080
	.byte W32
	.byte N08, Gs3, v072
	.byte W08
	.byte An3 @ N08, v072
	.byte W08
	.byte As3, v076 @ N08
	.byte W16
	.byte As3, v072 @ N08
	.byte W08
	.byte N48, An3, v080
	.byte W48
	.byte Gs3, v072 @ N48
	.byte W48
	.byte W96
	.byte W96
	.byte N06, En3, v060
	.byte W16
	.byte N03, Gn3, v052
	.byte W08
	.byte N30, Bn3, v060
	.byte W40
	.byte N06, Bn3, v052
	.byte W08
	.byte As3 @ N06, v052
	.byte W08
	.byte Bn3 @ N06, v052
	.byte W08
	.byte Cn4 @ N06, v052
	.byte W08
	.byte N48, Bn3 @ v052
	.byte W48
	.byte Cn4, v060 @ N48
	.byte W48
	.byte N06, Dn4, v100
	.byte W16
	.byte N03, Gn3, v092
	.byte W08
	.byte N30, Cs4, v100
	.byte W40
	.byte N06, Cs4, v092
	.byte W08
	.byte Cs4, v096 @ N06
	.byte W08
	.byte Dn4, v088 @ N06
	.byte W08
	.byte Ds4 @ N06, v088
	.byte W08
	.byte Gn3, v080 @ N06
	.byte W08
	.byte N06 @ Gn3, v080
	.byte W16
	.byte Gs3, v060 @ N06
	.byte W08
	.byte N06 @ Gs3, v060
	.byte W16
	.byte Gs3, v072 @ N06
	.byte W08
	.byte N06 @ Gs3, v072
	.byte W16
	.byte Gs3, v092 @ N06
	.byte W08
	.byte N06 @ Gs3, v092
	.byte W16
	.byte N08, En3 @ v092
	.byte N08, An3 @ v092
	.byte W24
	.byte VOICE, 4
	.byte VOL, 60
	.byte N18, An1, v120
	.byte W72
	.byte W24
	.byte N18 @ An1, v120
	.byte W72
	.byte W96
	.byte W96
	.byte W96
	.byte W96
	.byte W96
	.byte W96
	.byte VOICE, 9
	.byte VOL, 86
	.byte N07, Gn2 @ v120
	.byte W08
	.byte Cn2, v116 @ N07
	.byte W08
	.byte Gn2, v108 @ N07
	.byte W08
	.byte N30, Fs2, v120
	.byte W40
	.byte N04 @ Fs2, v120
	.byte W08
	.byte N07 @ Fs2, v120
	.byte W08
	.byte Gn2 @ N07, v120
	.byte W08
	.byte Gs2 @ N07, v120
	.byte W08
track_53_lbl_2679ed:
	.byte N07, Gn2, v120
	.byte W08
	.byte Cn2, v108 @ N07
	.byte W08
	.byte Gn2 @ N07, v108
	.byte W08
	.byte N30, Fs2, v120
	.byte W40
	.byte N06 @ Fs2, v120
	.byte W08
	.byte Gn2, v112 @ N06
	.byte W08
	.byte Fs2, v104 @ N06
	.byte W08
	.byte Fn2 @ N06, v104
	.byte W08
	.byte PEND
track_53_lbl_267a05:
	.byte N84, Ds2, v112
	.byte W96
	.byte PEND
	.byte W96
	.byte VOL, 60
	.byte N06, En3, v100
	.byte W24
	.byte An2 @ N06, v100
	.byte W24
	.byte N32, Ds3 @ v100
	.byte W32
	.byte N08, En3, v092
	.byte W08
	.byte Fn3 @ N08, v092
	.byte W08
	.byte En3 @ N08, v092
	.byte W12
	.byte An2, v080 @ N08
	.byte W84
	.byte W96
	.byte W96
	.byte VOICE, 4
	.byte VOL, 60
	.byte N05, An1, v100
	.byte W24
	.byte N72, An1, v108
	.byte W72
	.byte W24
	.byte N48, An1, v100
	.byte W72
	.byte VOICE, 4
	.byte VOL, 60
	.byte PAN, c_v
	.byte W48
	.byte N48, Fn1, v092
	.byte W48
	.byte W48
	.byte N48 @ Fn1, v092
	.byte W48
	.byte Bn1, v088 @ N48
	.byte W48
	.byte Cn2, v080 @ N48
	.byte W48
	.byte Dn2 @ N48, v080
	.byte W48
	.byte Ds2 @ N48, v080
	.byte W48
	.byte VOICE, 4
	.byte VOL, 110
	.byte PAN, c_v-4
	.byte TIE, An1 @ v080
	.byte W96
	.byte W92
	.byte W02
	.byte EOT @ An1, v080
	.byte W02
	.byte VOICE, 4
	.byte VOL, 110
	.byte TIE @ An1, v080
	.byte W96
	.byte W92
	.byte W02
	.byte EOT @ An1, v080
	.byte W02
	.byte VOICE, 9
	.byte VOL, 60
	.byte PAN, c_v+10
	.byte N08, Fn3, v064
	.byte W08
	.byte Dn3 @ N08, v064
	.byte W08
	.byte Fn3 @ N08, v064
	.byte W08
	.byte N24, An3, v072
	.byte W32
	.byte N08, Gs3, v052
	.byte W08
	.byte An3 @ N08, v052
	.byte W08
	.byte As3, v056 @ N08
	.byte W16
	.byte As3, v052 @ N08
	.byte W08
	.byte N48, An3, v060
	.byte W48
	.byte Gs3, v052 @ N48
	.byte W48
	.byte W96
	.byte W96
	.byte W96
	.byte W96
	.byte W96
	.byte W96
	.byte W96
	.byte W96
	.byte VOICE, 6
	.byte VOL, 34
	.byte N96, Cn4, v048
	.byte N48, En4 @ v048
	.byte W48
	.byte Fn4, v056 @ N48
	.byte W48
	.byte N96, Cn4, v048
	.byte N48, Gn4 @ v048
	.byte W48
	.byte Gs4, v056 @ N48
	.byte W48
	.byte W96
	.byte W96
	.byte TIE, Dn2, v080
	.byte W96
	.byte W92
	.byte W02
	.byte EOT @ Dn2, v080
	.byte W02
	.byte VOICE, 9
	.byte VOL, 60
	.byte N07, Gn2, v120
	.byte W08
	.byte Cn2, v116 @ N07
	.byte W08
	.byte Gn2, v108 @ N07
	.byte W08
	.byte N30, Fs2, v120
	.byte W40
	.byte N04 @ Fs2, v120
	.byte W08
	.byte N07 @ Fs2, v120
	.byte W08
	.byte Gn2 @ N07, v120
	.byte W08
	.byte Gs2 @ N07, v120
	.byte W08
	.byte PATT
		.word track_53_lbl_2679ed
	.byte PATT
		.word track_53_lbl_267a05
	.byte W96
	.byte N06, En3, v092
	.byte W24
	.byte An2 @ N06, v092
	.byte W24
	.byte N32, Ds3 @ v092
	.byte W32
	.byte N08, En3, v084
	.byte W08
	.byte Fn3 @ N08, v084
	.byte W08
	.byte En3 @ N08, v084
	.byte W12
	.byte An2, v072 @ N08
	.byte W84
	.byte W96
	.byte W96
	.byte VOICE, 4
	.byte VOL, 60
	.byte PAN, c_v-4
	.byte N05, An1, v100
	.byte W24
	.byte N72, An1, v108
	.byte W72
	.byte W24
	.byte N48, An1, v100
	.byte W48
	.byte N06, An0, v112
	.byte W08
	.byte N06 @ An0, v112
	.byte W08
	.byte N06 @ An0, v112
	.byte W08
	.byte GOTO
		.word track_53_lbl_2678f6
	.byte FINE

track_53_2:
	.byte KEYSH, 0
track_53_lbl_267b0e:
	.byte VOICE, 2
	.byte VOL, 110
	.byte PAN, c_v
	.byte PRIO, 108
	.byte N08, En1, v127
	.byte W24
	.byte N05, En1, v096
	.byte W08
	.byte N05 @ En1, v096
	.byte W08
	.byte N05 @ En1, v096
	.byte W08
	.byte En1, v124 @ N05
	.byte W12
	.byte N06, En1, v127
	.byte W36
track_53_lbl_267b29:
	.byte N08, En1, v127
	.byte W24
	.byte N05, En1, v096
	.byte W08
	.byte N05 @ En1, v096
	.byte W08
	.byte N05 @ En1, v096
	.byte W08
	.byte En1, v124 @ N05
	.byte W12
	.byte N06, En1, v127
	.byte W36
	.byte PEND
	.byte PATT
		.word track_53_lbl_267b29
	.byte N08, En1, v127
	.byte W24
	.byte N05, En1, v096
	.byte W08
	.byte N05 @ En1, v096
	.byte W08
	.byte N05 @ En1, v096
	.byte W08
	.byte En1, v124 @ N05
	.byte W12
	.byte N06, En1, v127
	.byte W12
	.byte N03, En1, v112
	.byte W04
	.byte En1, v120 @ N03
	.byte W04
	.byte En1, v127 @ N03
	.byte W04
	.byte N03 @ En1, v127
	.byte W04
	.byte N03 @ En1, v127
	.byte W04
	.byte N03 @ En1, v127
	.byte W04
track_53_lbl_267b65:
	.byte N08, En1, v127
	.byte W24
	.byte N05, En1, v124
	.byte W08
	.byte N05 @ En1, v124
	.byte W08
	.byte N05 @ En1, v124
	.byte W08
	.byte En1, v127 @ N05
	.byte W12
	.byte N06, En1, v124
	.byte W36
	.byte PEND
	.byte PATT
		.word track_53_lbl_267b65
	.byte PATT
		.word track_53_lbl_267b65
track_53_lbl_267b83:
	.byte N08, En1, v127
	.byte W24
	.byte N05, En1, v124
	.byte W08
	.byte N05 @ En1, v124
	.byte W08
	.byte N05 @ En1, v124
	.byte W08
	.byte En1, v127 @ N05
	.byte W12
	.byte N06, En1, v124
	.byte W12
	.byte N03, En1, v112
	.byte W04
	.byte En1, v120 @ N03
	.byte W04
	.byte En1, v127 @ N03
	.byte W04
	.byte N03 @ En1, v127
	.byte W04
	.byte N03 @ En1, v127
	.byte W04
	.byte N03 @ En1, v127
	.byte W04
	.byte PEND
	.byte PATT
		.word track_53_lbl_267b65
	.byte PATT
		.word track_53_lbl_267b65
	.byte PATT
		.word track_53_lbl_267b65
	.byte PATT
		.word track_53_lbl_267b83
track_53_lbl_267bbb:
	.byte N08, An1, v127
	.byte W24
	.byte N05, An1, v104
	.byte W08
	.byte N05 @ An1, v104
	.byte W08
	.byte N05 @ An1, v104
	.byte W08
	.byte An1, v120 @ N05
	.byte W12
	.byte N06, An1, v104
	.byte W24
	.byte An1, v096 @ N06
	.byte W12
	.byte PEND
track_53_lbl_267bd2:
	.byte N08, An1, v127
	.byte W24
	.byte N05, An1, v104
	.byte W08
	.byte N05 @ An1, v104
	.byte W08
	.byte N05 @ An1, v104
	.byte W08
	.byte An1, v120 @ N05
	.byte W12
	.byte N06, An1, v104
	.byte W36
	.byte PEND
	.byte PATT
		.word track_53_lbl_267bd2
track_53_lbl_267beb:
	.byte N08, An1, v127
	.byte W24
	.byte N05, An1, v104
	.byte W08
	.byte N05 @ An1, v104
	.byte W08
	.byte N05 @ An1, v104
	.byte W08
	.byte An1, v120 @ N05
	.byte W12
	.byte N06, An1, v104
	.byte W12
	.byte N03, An1, v080
	.byte W04
	.byte An1, v088 @ N03
	.byte W04
	.byte An1, v096 @ N03
	.byte W04
	.byte An1, v104 @ N03
	.byte W04
	.byte An1, v112 @ N03
	.byte W04
	.byte An1, v120 @ N03
	.byte W04
	.byte PEND
track_53_lbl_267c12:
	.byte N08, Dn1, v127
	.byte W24
	.byte N05, Dn1, v104
	.byte W08
	.byte N05 @ Dn1, v104
	.byte W08
	.byte N05 @ Dn1, v104
	.byte W08
	.byte Dn1, v120 @ N05
	.byte W12
	.byte N06, Dn1, v104
	.byte W24
	.byte Dn1, v096 @ N06
	.byte W12
	.byte PEND
track_53_lbl_267c29:
	.byte N08, Dn1, v127
	.byte W24
	.byte N05, Dn1, v104
	.byte W08
	.byte N05 @ Dn1, v104
	.byte W08
	.byte N05 @ Dn1, v104
	.byte W08
	.byte Dn1, v120 @ N05
	.byte W12
	.byte N06, Dn1, v104
	.byte W36
	.byte PEND
	.byte PATT
		.word track_53_lbl_267c29
track_53_lbl_267c42:
	.byte N08, Dn1, v127
	.byte W24
	.byte N05, Dn1, v104
	.byte W08
	.byte N05 @ Dn1, v104
	.byte W08
	.byte N05 @ Dn1, v104
	.byte W08
	.byte Dn1, v120 @ N05
	.byte W12
	.byte N06, Dn1, v104
	.byte W12
	.byte N03, Dn1, v092
	.byte W04
	.byte Dn1, v100 @ N03
	.byte W04
	.byte Dn1, v108 @ N03
	.byte W04
	.byte Dn1, v116 @ N03
	.byte W04
	.byte Dn1, v124 @ N03
	.byte W04
	.byte Dn1, v127 @ N03
	.byte W04
	.byte PEND
	.byte N08, En1 @ v127
	.byte W24
	.byte N05, En1, v104
	.byte W08
	.byte N05 @ En1, v104
	.byte W08
	.byte N05 @ En1, v104
	.byte W08
	.byte En1, v120 @ N05
	.byte W12
	.byte N06, En1, v104
	.byte W24
	.byte En1, v092 @ N06
	.byte W12
	.byte N08, En1, v127
	.byte W24
	.byte N05, En1, v104
	.byte W08
	.byte N05 @ En1, v104
	.byte W08
	.byte N05 @ En1, v104
	.byte W08
	.byte En1, v120 @ N05
	.byte W12
	.byte N06, En1, v104
	.byte W12
	.byte En1, v080 @ N06
	.byte W08
	.byte En1, v100 @ N06
	.byte W08
	.byte En1, v120 @ N06
	.byte W08
	.byte Gn1 @ N06, v120
	.byte W08
	.byte Gn1, v100 @ N06
	.byte W08
	.byte N06 @ Gn1, v100
	.byte W08
	.byte N06 @ Gn1, v100
	.byte W08
	.byte N06 @ Gn1, v100
	.byte W08
	.byte N06 @ Gn1, v100
	.byte W08
	.byte Gn1, v108 @ N06
	.byte W12
	.byte Gn1, v112 @ N06
	.byte W24
	.byte Gn1, v127 @ N06
	.byte W12
	.byte Gn1, v124 @ N06
	.byte W24
	.byte Gn1, v100 @ N06
	.byte W08
	.byte Gn1, v104 @ N06
	.byte W08
	.byte Gn1, v112 @ N06
	.byte W08
	.byte Gn1, v120 @ N06
	.byte W12
	.byte Gn1, v127 @ N06
	.byte W12
	.byte N06 @ Gn1, v127
	.byte W08
	.byte N06 @ Gn1, v127
	.byte W08
	.byte N06 @ Gn1, v127
	.byte W08
	.byte N12, An2, v120
	.byte W24
	.byte An1 @ N12, v120
	.byte W24
	.byte N06, An2, v096
	.byte W16
	.byte N04, An2, v104
	.byte W16
	.byte An2, v108 @ N04
	.byte W16
	.byte W24
	.byte N08, An1, v072
	.byte W08
	.byte An1, v096 @ N08
	.byte W08
	.byte An1, v120 @ N08
	.byte W08
	.byte N05, An2, v104
	.byte W16
	.byte An2, v096 @ N05
	.byte W16
	.byte An2, v100 @ N05
	.byte W16
	.byte N08, An2, v088
	.byte W16
	.byte An1, v092 @ N08
	.byte W16
	.byte N08 @ An1, v092
	.byte W16
	.byte An1, v104 @ N08
	.byte W16
	.byte An1, v096 @ N08
	.byte W16
	.byte An1, v088 @ N08
	.byte W16
	.byte An1, v092 @ N08
	.byte W16
	.byte An1, v096 @ N08
	.byte W16
	.byte N08 @ An1, v096
	.byte W16
	.byte An1, v116 @ N08
	.byte W16
	.byte An1, v100 @ N08
	.byte W16
	.byte An1, v096 @ N08
	.byte W16
	.byte PATT
		.word track_53_lbl_267c12
	.byte PATT
		.word track_53_lbl_267c29
	.byte PATT
		.word track_53_lbl_267c29
	.byte PATT
		.word track_53_lbl_267c42
track_53_lbl_267d25:
	.byte N08, Cn1, v127
	.byte W24
	.byte N05, Cn1, v104
	.byte W08
	.byte N05 @ Cn1, v104
	.byte W08
	.byte N05 @ Cn1, v104
	.byte W08
	.byte Cn1, v120 @ N05
	.byte W12
	.byte N06, Cn1, v104
	.byte W24
	.byte Cn1, v096 @ N06
	.byte W12
	.byte PEND
track_53_lbl_267d3c:
	.byte N08, Cn1, v127
	.byte W24
	.byte N05, Cn1, v104
	.byte W08
	.byte N05 @ Cn1, v104
	.byte W08
	.byte N05 @ Cn1, v104
	.byte W08
	.byte Cn1, v120 @ N05
	.byte W12
	.byte N06, Cn1, v104
	.byte W36
	.byte PEND
	.byte PATT
		.word track_53_lbl_267d3c
track_53_lbl_267d55:
	.byte N08, Cn1, v127
	.byte W24
	.byte N05, Cn1, v104
	.byte W08
	.byte N05 @ Cn1, v104
	.byte W08
	.byte N05 @ Cn1, v104
	.byte W08
	.byte Cn1, v120 @ N05
	.byte W12
	.byte N06, Cn1, v104
	.byte W12
	.byte N03, Cn1, v092
	.byte W04
	.byte Cn1, v100 @ N03
	.byte W04
	.byte Cn1, v108 @ N03
	.byte W04
	.byte Cn1, v116 @ N03
	.byte W04
	.byte Cn1, v124 @ N03
	.byte W04
	.byte Cn1, v127 @ N03
	.byte W04
	.byte PEND
track_53_lbl_267d7c:
	.byte N08, An1, v127
	.byte W24
	.byte N05, An1, v104
	.byte W08
	.byte N05 @ An1, v104
	.byte W08
	.byte N05 @ An1, v104
	.byte W08
	.byte An1, v120 @ N05
	.byte W12
	.byte N06, An1, v104
	.byte W24
	.byte An0, v096 @ N06
	.byte W12
	.byte PEND
	.byte PATT
		.word track_53_lbl_267bd2
	.byte PATT
		.word track_53_lbl_267bd2
track_53_lbl_267d9d:
	.byte N08, An1, v127
	.byte W24
	.byte N05, An1, v104
	.byte W08
	.byte N05 @ An1, v104
	.byte W08
	.byte N05 @ An1, v104
	.byte W08
	.byte An1, v120 @ N05
	.byte W12
	.byte N06, An1, v104
	.byte W12
	.byte N03, An1, v092
	.byte W04
	.byte An1, v100 @ N03
	.byte W04
	.byte An1, v108 @ N03
	.byte W04
	.byte An1, v116 @ N03
	.byte W04
	.byte An1, v124 @ N03
	.byte W04
	.byte An1, v127 @ N03
	.byte W04
	.byte PEND
	.byte W96
	.byte W96
	.byte VOICE, 2
	.byte VOL, 110
	.byte N08, En1 @ v127
	.byte W24
	.byte N05, En1, v076
	.byte W08
	.byte N05 @ En1, v076
	.byte W08
	.byte N05 @ En1, v076
	.byte W08
	.byte En1, v104 @ N05
	.byte W12
	.byte N06, En1, v120
	.byte W36
	.byte N08, En1, v127
	.byte W24
	.byte N05, En1, v076
	.byte W08
	.byte N05 @ En1, v076
	.byte W08
	.byte N05 @ En1, v076
	.byte W08
	.byte En1, v104 @ N05
	.byte W12
	.byte N06, En1, v120
	.byte W36
	.byte N08, En1, v127
	.byte W24
	.byte N05, En1, v104
	.byte W08
	.byte N05 @ En1, v104
	.byte W08
	.byte N05 @ En1, v104
	.byte W08
	.byte En1, v120 @ N05
	.byte W12
	.byte N06, En1, v104
	.byte W36
	.byte N08, En1, v127
	.byte W24
	.byte N05, En1, v104
	.byte W08
	.byte N05 @ En1, v104
	.byte W08
	.byte N05 @ En1, v104
	.byte W08
	.byte En1, v120 @ N05
	.byte W12
	.byte N06, En1, v104
	.byte W12
	.byte N03, En1, v092
	.byte W04
	.byte En1, v100 @ N03
	.byte W04
	.byte En1, v108 @ N03
	.byte W04
	.byte En1, v116 @ N03
	.byte W04
	.byte En1, v124 @ N03
	.byte W04
	.byte En1, v127 @ N03
	.byte W04
	.byte PATT
		.word track_53_lbl_267bbb
	.byte PATT
		.word track_53_lbl_267bd2
	.byte PATT
		.word track_53_lbl_267bd2
	.byte PATT
		.word track_53_lbl_267beb
	.byte PATT
		.word track_53_lbl_267c12
	.byte PATT
		.word track_53_lbl_267c29
	.byte VOICE, 4
	.byte VOL, 95
	.byte PAN, c_v-4
	.byte N96, Dn2, v052
	.byte W96
	.byte N92 @ Dn2, v052
	.byte W96
	.byte VOICE, 4
	.byte VOL, 95
	.byte TIE, En2, v048
	.byte W96
	.byte W92
	.byte W02
	.byte EOT @ En2, v048
	.byte W02
	.byte VOICE, 3
	.byte VOL, 69
	.byte N96, Gn2, v076
	.byte W96
	.byte VOICE, 2
	.byte VOL, 110
	.byte PAN, c_v
	.byte N06, Gn1, v124
	.byte W24
	.byte Gn1, v100 @ N06
	.byte W08
	.byte Gn1, v104 @ N06
	.byte W08
	.byte Gn1, v112 @ N06
	.byte W08
	.byte Gn1, v120 @ N06
	.byte W12
	.byte Gn1, v127 @ N06
	.byte W12
	.byte N06 @ Gn1, v127
	.byte W08
	.byte N06 @ Gn1, v127
	.byte W08
	.byte N06 @ Gn1, v127
	.byte W08
	.byte VOICE, 2
	.byte VOL, 110
	.byte N12, An2, v120
	.byte W24
	.byte N08, An1 @ v120
	.byte W08
	.byte VOICE, 3
	.byte VOL, 86
	.byte N06, An3, v080
	.byte W08
	.byte En4 @ N06, v080
	.byte W08
	.byte Fn4, v068 @ N06
	.byte W16
	.byte Fn4, v060 @ N06
	.byte W16
	.byte N05 @ Fn4, v060
	.byte W16
	.byte N08, En4, v080
	.byte W24
	.byte VOICE, 2
	.byte VOL, 110
	.byte N08, An1, v072
	.byte W08
	.byte VOICE, 3
	.byte VOL, 86
	.byte N06, An3, v068
	.byte W08
	.byte En4 @ N06, v068
	.byte W08
	.byte N08, Dn4, v040
	.byte W16
	.byte Dn4, v048 @ N08
	.byte W16
	.byte Dn4, v060 @ N08
	.byte W16
	.byte W96
	.byte W96
	.byte VOICE, 2
	.byte VOL, 110
	.byte N08, Dn1, v127
	.byte W24
	.byte N05, Dn1, v104
	.byte W08
	.byte N05 @ Dn1, v104
	.byte W08
	.byte N05 @ Dn1, v104
	.byte W08
	.byte Dn1, v120 @ N05
	.byte W12
	.byte N06, Dn1, v104
	.byte W24
	.byte Dn1, v096 @ N06
	.byte W12
	.byte PATT
		.word track_53_lbl_267c29
	.byte PATT
		.word track_53_lbl_267c29
	.byte PATT
		.word track_53_lbl_267c42
	.byte PATT
		.word track_53_lbl_267d25
	.byte PATT
		.word track_53_lbl_267d3c
	.byte PATT
		.word track_53_lbl_267d3c
	.byte PATT
		.word track_53_lbl_267d55
	.byte PATT
		.word track_53_lbl_267d7c
	.byte PATT
		.word track_53_lbl_267bd2
	.byte PATT
		.word track_53_lbl_267bd2
	.byte PATT
		.word track_53_lbl_267d9d
	.byte W96
	.byte W96
	.byte GOTO
		.word track_53_lbl_267b0e
	.byte FINE

track_53_3:
	.byte KEYSH, 0
track_53_lbl_267f1f:
	.byte VOICE, 4
	.byte VOL, 60
	.byte PRIO, 30
	.byte W96
	.byte W96
	.byte W48
	.byte PAN, c_v
	.byte N48, Fn1, v080
	.byte W48
	.byte W48
	.byte Fn1, v060 @ N48
	.byte W48
	.byte W96
	.byte W96
	.byte W48
	.byte Fn1, v080 @ N48
	.byte W48
	.byte W48
	.byte Fn1, v092 @ N48
	.byte W48
	.byte N92, En1, v080
	.byte W96
	.byte N92 @ En1, v080
	.byte W96
track_53_lbl_267f42:
	.byte W48
	.byte VOICE, 4
	.byte VOL, 60
	.byte N48, Fn1, v080
	.byte W48
	.byte PEND
	.byte W96
	.byte VOICE, 3
	.byte VOL, 60
	.byte PAN, c_v
	.byte N48, An2, v064
	.byte W48
	.byte As2 @ N48, v064
	.byte W48
	.byte An2 @ N48, v064
	.byte W48
	.byte As2 @ N48, v064
	.byte W48
	.byte An2 @ N48, v064
	.byte W48
	.byte As2 @ N48, v064
	.byte W48
	.byte An2 @ N48, v064
	.byte W48
	.byte N36, As2 @ v064
	.byte W48
track_53_lbl_267f66:
	.byte N48, Dn3, v072, 69
	.byte W48
	.byte Ds3 @ N48, v072
	.byte N48, Gs3 @ v072
	.byte W48
	.byte PEND
	.byte Dn3 @ N48, v072
	.byte N48, An3 @ v072
	.byte W48
	.byte Ds3 @ N48, v072
	.byte N48, As3 @ v072
	.byte W48
	.byte PATT
		.word track_53_lbl_267f66
	.byte N48, Dn3, v072, 69
	.byte W48
	.byte N36, Ds3 @ v072
	.byte N36, As3 @ v072
	.byte W48
	.byte N48, En3 @ v072
	.byte N48, Bn3 @ v072
	.byte W48
	.byte Fn3 @ N48, v072
	.byte N48, As3 @ v072
	.byte W48
	.byte En3 @ N48, v072
	.byte N48, Bn3 @ v072
	.byte W48
	.byte Fn3 @ N48, v072
	.byte N48, Cn4 @ v072
	.byte W48
	.byte Gn3 @ N48, v072
	.byte N48, Dn4 @ v072
	.byte W48
	.byte Cs4 @ N48, v072
	.byte W48
	.byte N08, Dn4 @ v072
	.byte W24
	.byte N36, Ds4 @ v072
	.byte W48
	.byte N05 @ Ds4, v072
	.byte W08
	.byte N06, Ds4, v092
	.byte W16
	.byte VOICE, 0
	.byte VOL, 34
	.byte N08, Cs2, v127
	.byte W24
	.byte N08 @ Cs2, v127
	.byte W24
	.byte N16, Dn1, v072
	.byte W16
	.byte Dn1, v048 @ N16
	.byte W16
	.byte N16 @ Dn1, v048
	.byte W16
	.byte N08, Cs2, v127
	.byte W24
	.byte N16 @ Cs2, v127
	.byte W24
	.byte Cs2, v084 @ N16
	.byte W16
	.byte Cs2, v096 @ N16
	.byte W16
	.byte Cs2, v104 @ N16
	.byte W16
	.byte Cs2, v127 @ N16
	.byte W16
	.byte Cs2, v084 @ N16
	.byte W16
	.byte N16 @ Cs2, v084
	.byte W16
	.byte N08, Cs2, v080
	.byte W08
	.byte N08 @ Cs2, v080
	.byte W08
	.byte N08 @ Cs2, v080
	.byte W08
	.byte N08 @ Cs2, v080
	.byte W08
	.byte N08 @ Cs2, v080
	.byte W08
	.byte N08 @ Cs2, v080
	.byte W08
track_53_lbl_267fe2:
	.byte N08, Cs2, v080
	.byte W08
	.byte Cs2, v084 @ N08
	.byte W08
	.byte Cs2, v092 @ N08
	.byte W08
	.byte Cs2, v096 @ N08
	.byte W08
	.byte Cs2, v100 @ N08
	.byte W08
	.byte Cs2, v104 @ N08
	.byte W08
	.byte N12, Cs2, v120
	.byte W16
	.byte N12 @ Cs2, v120
	.byte W16
	.byte N12 @ Cs2, v120
	.byte W16
	.byte PEND
	.byte N16 @ Cs2, v120
	.byte W48
	.byte N06, Dn1, v052
	.byte W12
	.byte Dn1, v072 @ N06
	.byte W24
	.byte Dn1, v040 @ N06
	.byte W12
	.byte Dn1, v064 @ N06
	.byte W48
	.byte Dn1, v052 @ N06
	.byte W12
	.byte Dn1, v072 @ N06
	.byte W12
	.byte N08, Cs2, v080
	.byte W08
	.byte Cs2, v100 @ N08
	.byte W08
	.byte Cs2, v120 @ N08
	.byte W08
	.byte VOICE, 3
	.byte VOL, 60
	.byte N48, Dn3, v052, 69
	.byte W48
	.byte Ds3 @ N48, v052
	.byte N48, Gs3 @ v052
	.byte W48
track_53_lbl_26802a:
	.byte N48, Dn3, v052, 69
	.byte W48
	.byte N36, Ds3, v048, 68
	.byte W48
	.byte PEND
	.byte N48, Gn3, v032
	.byte W48
	.byte Fs3 @ N48, v032
	.byte W48
	.byte Gn3 @ N48, v032
	.byte W48
	.byte Gs3 @ N48, v032
	.byte W48
	.byte Gn3 @ N48, v032
	.byte W48
	.byte Fs3 @ N48, v032
	.byte W48
	.byte Gn3 @ N48, v032
	.byte W48
	.byte N36, Fn3 @ v032
	.byte W48
track_53_lbl_268048:
	.byte N48, An2, v040, 64
	.byte W48
	.byte As2 @ N48, v040
	.byte N48, Ds3 @ v040
	.byte W48
	.byte PEND
track_53_lbl_268052:
	.byte N48, An2, v040, 64
	.byte W48
	.byte As2 @ N48, v040
	.byte N48, Fn3 @ v040
	.byte W48
	.byte PEND
	.byte PATT
		.word track_53_lbl_268048
track_53_lbl_268061:
	.byte N48, An2, v040, 64
	.byte W48
	.byte N36, As2 @ v040
	.byte N36, Fn3 @ v040
	.byte W48
	.byte PEND
	.byte W96
	.byte W72
	.byte VOICE, 4
	.byte VOL, 55
	.byte N06, An0, v112
	.byte W08
	.byte N06 @ An0, v112
	.byte W08
	.byte N06 @ An0, v112
	.byte W08
	.byte VOICE, 4
	.byte VOL, 60
	.byte W96
	.byte W96
	.byte PATT
		.word track_53_lbl_267f42
	.byte W96
	.byte W96
	.byte W96
	.byte VOICE, 9
	.byte VOL, 60
	.byte N48, En3, v040
	.byte W48
	.byte Ds3 @ N48, v040
	.byte W48
	.byte Dn3 @ N48, v040
	.byte W48
	.byte Ds3 @ N48, v040
	.byte W48
	.byte VOICE, 3
	.byte VOL, 60
	.byte N48, Dn3, v072
	.byte W48
	.byte Ds3 @ N48, v072
	.byte W48
	.byte Dn3 @ N48, v072
	.byte W48
	.byte Ds3 @ N48, v072
	.byte W48
	.byte PAN, c_v-10
	.byte N48, An3 @ v072
	.byte W48
	.byte Gs3 @ N48, v072
	.byte W48
	.byte An3 @ N48, v072
	.byte W48
	.byte N36, As3 @ v072
	.byte W48
	.byte N48, Bn3 @ v072
	.byte W48
	.byte As3 @ N48, v072
	.byte W48
	.byte Bn3 @ N48, v072
	.byte W48
	.byte Cn4 @ N48, v072
	.byte W48
	.byte Dn4 @ N48, v072
	.byte W48
	.byte Cs4 @ N48, v072
	.byte W48
	.byte N08, Dn4 @ v072
	.byte W24
	.byte N36, Gs3 @ v072
	.byte N36, Ds4 @ v072
	.byte W48
	.byte N05, Gs3 @ v072
	.byte N05, Ds4 @ v072
	.byte W08
	.byte N06, Gs3, v092, 75
	.byte W16
	.byte W48
	.byte VOICE, 2
	.byte VOL, 110
	.byte N06, An2, v096
	.byte W16
	.byte N04, An2, v104
	.byte W16
	.byte An2, v108 @ N04
	.byte W16
	.byte W32
	.byte N08, An1, v096
	.byte W08
	.byte An1, v120 @ N08
	.byte W08
	.byte N05, An2, v104
	.byte W16
	.byte An2, v096 @ N05
	.byte W16
	.byte An2, v100 @ N05
	.byte W16
	.byte VOICE, 0
	.byte VOL, 34
	.byte N16, Cs2, v127
	.byte W16
	.byte Cs2, v084 @ N16
	.byte W16
	.byte N16 @ Cs2, v084
	.byte W16
	.byte N08, Cs2, v080
	.byte W08
	.byte N08 @ Cs2, v080
	.byte W08
	.byte N08 @ Cs2, v080
	.byte W08
	.byte N08 @ Cs2, v080
	.byte W08
	.byte N08 @ Cs2, v080
	.byte W08
	.byte N08 @ Cs2, v080
	.byte W08
	.byte PATT
		.word track_53_lbl_267fe2
	.byte W96
	.byte W96
	.byte VOICE, 3
	.byte VOL, 60
	.byte N48, An3, v052
	.byte W48
	.byte Ds3 @ N48, v052
	.byte N48, Gs3 @ v052
	.byte W48
	.byte PATT
		.word track_53_lbl_26802a
	.byte N48, Cn3, v032
	.byte W48
	.byte Cs3 @ N48, v032
	.byte W48
	.byte Cn3 @ N48, v032
	.byte W48
	.byte Cs3 @ N48, v032
	.byte W48
	.byte Cn3 @ N48, v032
	.byte W48
	.byte Cs3 @ N48, v032
	.byte W48
	.byte Cn3 @ N48, v032
	.byte N48, Gn3 @ v032
	.byte W48
	.byte N36, As2 @ v032
	.byte N36, Fn3 @ v032
	.byte W48
	.byte N48, En3, v040
	.byte W48
	.byte As2 @ N48, v040
	.byte N48, Ds3 @ v040
	.byte W48
	.byte PATT
		.word track_53_lbl_268052
	.byte PATT
		.word track_53_lbl_268048
	.byte PATT
		.word track_53_lbl_268061
	.byte W96
	.byte W96
	.byte GOTO
		.word track_53_lbl_267f1f
	.byte FINE

track_53_4:
	.byte KEYSH, 0
track_53_lbl_26815c:
	.byte PRIO, 29
	.byte W96
	.byte W96
	.byte W96
	.byte W96
	.byte W96
	.byte W96
	.byte W96
	.byte W96
	.byte W96
	.byte W96
	.byte W96
	.byte W96
	.byte VOICE, 4
	.byte VOL, 60
	.byte PAN, c_v-4
	.byte TIE, An1, v080
	.byte W96
	.byte W92
	.byte W02
	.byte EOT @ An1, v080
	.byte W02
	.byte TIE @ An1, v080
	.byte W96
	.byte W92
	.byte W02
	.byte EOT @ An1, v080
	.byte W02
	.byte TIE, Dn2, v052
	.byte W96
	.byte W92
	.byte W02
	.byte EOT @ Dn2, v052
	.byte W02
	.byte TIE @ Dn2, v052
	.byte W96
	.byte W92
	.byte W02
	.byte EOT @ Dn2, v052
	.byte W02
	.byte TIE, En2 @ v052
	.byte W96
	.byte W92
	.byte W02
	.byte EOT @ En2, v052
	.byte W02
	.byte VOICE, 3
	.byte VOL, 69
	.byte TIE, Gn2, v076
	.byte W96
	.byte W92
	.byte W02
	.byte EOT @ Gn2, v076
	.byte W02
	.byte W96
	.byte W96
	.byte W96
	.byte VOICE, 4
	.byte VOL, 60
	.byte N84, An1, v092
	.byte W96
	.byte TIE, Dn2, v080
	.byte W96
	.byte W92
	.byte W02
	.byte EOT @ Dn2, v080
	.byte W02
	.byte TIE @ Dn2, v080
	.byte W96
	.byte W92
	.byte W02
	.byte EOT @ Dn2, v080
	.byte W02
	.byte TIE, Cn2 @ v080
	.byte W96
	.byte W92
	.byte W02
	.byte EOT @ Cn2, v080
	.byte W02
	.byte TIE @ Cn2, v080
	.byte W96
	.byte W92
	.byte W02
	.byte EOT @ Cn2, v080
	.byte W02
	.byte TIE, An1 @ v080
	.byte W96
	.byte W92
	.byte W02
	.byte EOT @ An1, v080
	.byte W02
	.byte TIE @ An1, v080
	.byte W96
	.byte W92
	.byte W02
	.byte EOT @ An1, v080
	.byte W02
	.byte W96
	.byte W96
	.byte W96
	.byte W96
	.byte W96
	.byte W96
	.byte W96
	.byte W96
	.byte VOICE, 6
	.byte VOL, 34
	.byte PAN, c_v-20
	.byte TIE, Cn4, v072
	.byte W96
	.byte W96
	.byte EOT @ Cn4, v072
	.byte VOICE, 4
	.byte VOL, 95
	.byte N96, Dn2, v052
	.byte W96
	.byte N92 @ Dn2, v052
	.byte W96
	.byte VOICE, 2
	.byte VOL, 110
	.byte PAN, c_v
	.byte N08, Dn1, v127
	.byte W24
	.byte N05, Dn1, v104
	.byte W08
	.byte N05 @ Dn1, v104
	.byte W08
	.byte N05 @ Dn1, v104
	.byte W08
	.byte Dn1, v120 @ N05
	.byte W12
	.byte N06, Dn1, v104
	.byte W36
	.byte N08, Dn1, v127
	.byte W24
	.byte N05, Dn1, v104
	.byte W08
	.byte N05 @ Dn1, v104
	.byte W08
	.byte N05 @ Dn1, v104
	.byte W08
	.byte Dn1, v120 @ N05
	.byte W12
	.byte N06, Dn1, v104
	.byte W12
	.byte N03, Dn1, v092
	.byte W04
	.byte Dn1, v100 @ N03
	.byte W04
	.byte Dn1, v108 @ N03
	.byte W04
	.byte Dn1, v116 @ N03
	.byte W04
	.byte Dn1, v124 @ N03
	.byte W04
	.byte Dn1, v127 @ N03
	.byte W04
	.byte VOICE, 2
	.byte VOL, 110
	.byte N08, En1 @ v127
	.byte W24
	.byte N05, En1, v104
	.byte W08
	.byte N05 @ En1, v104
	.byte W08
	.byte N05 @ En1, v104
	.byte W08
	.byte En1, v120 @ N05
	.byte W12
	.byte N06, En1, v104
	.byte W24
	.byte En1, v092 @ N06
	.byte W12
	.byte N08, En1, v127
	.byte W24
	.byte N05, En1, v104
	.byte W08
	.byte N05 @ En1, v104
	.byte W08
	.byte N05 @ En1, v104
	.byte W08
	.byte En1, v120 @ N05
	.byte W12
	.byte N06, En1, v104
	.byte W12
	.byte En1, v080 @ N06
	.byte W08
	.byte En1, v100 @ N06
	.byte W08
	.byte En1, v120 @ N06
	.byte W08
	.byte Gn1 @ N06, v120
	.byte W08
	.byte Gn1, v100 @ N06
	.byte W08
	.byte N06 @ Gn1, v100
	.byte W08
	.byte N06 @ Gn1, v100
	.byte W08
	.byte N06 @ Gn1, v100
	.byte W08
	.byte N06 @ Gn1, v100
	.byte W08
	.byte Gn1, v108 @ N06
	.byte W12
	.byte Gn1, v112 @ N06
	.byte W24
	.byte Gn1, v127 @ N06
	.byte W12
	.byte VOICE, 3
	.byte VOL, 69
	.byte N92, Gn2, v076
	.byte W96
	.byte W24
	.byte VOICE, 4
	.byte VOL, 60
	.byte N18, An1, v120
	.byte W24
	.byte VOICE, 3
	.byte VOL, 34
	.byte N06, Dn4, v080
	.byte W16
	.byte Dn4, v072 @ N06
	.byte W16
	.byte N05 @ Dn4, v072
	.byte W16
	.byte N08, En4, v092
	.byte W24
	.byte VOICE, 4
	.byte VOL, 60
	.byte N18, An1, v120
	.byte W24
	.byte VOICE, 3
	.byte VOL, 34
	.byte N08, As3, v052
	.byte W16
	.byte As3, v060 @ N08
	.byte W16
	.byte As3, v072 @ N08
	.byte W16
	.byte VOICE, 2
	.byte VOL, 86
	.byte N08, An2, v088
	.byte W16
	.byte An1, v092 @ N08
	.byte W16
	.byte N08 @ An1, v092
	.byte W16
	.byte An1, v104 @ N08
	.byte W16
	.byte An1, v096 @ N08
	.byte W16
	.byte An1, v088 @ N08
	.byte W16
	.byte An1, v092 @ N08
	.byte W16
	.byte An1, v096 @ N08
	.byte W16
	.byte N08 @ An1, v096
	.byte W16
	.byte An1, v116 @ N08
	.byte W16
	.byte An1, v100 @ N08
	.byte W16
	.byte An1, v096 @ N08
	.byte W16
	.byte VOICE, 4
	.byte VOL, 60
	.byte TIE, Dn2, v080
	.byte W96
	.byte W92
	.byte W02
	.byte EOT @ Dn2, v080
	.byte W02
	.byte W96
	.byte W96
	.byte VOICE, 4
	.byte VOL, 60
	.byte PAN, c_v-4
	.byte TIE, Cn2, v052
	.byte W96
	.byte W92
	.byte W02
	.byte EOT @ Cn2, v052
	.byte W02
	.byte TIE @ Cn2, v052
	.byte W96
	.byte W92
	.byte W02
	.byte EOT @ Cn2, v052
	.byte W02
	.byte TIE, An1, v080
	.byte W96
	.byte W92
	.byte W02
	.byte EOT @ An1, v080
	.byte W02
	.byte TIE @ An1, v080
	.byte W96
	.byte W92
	.byte W02
	.byte EOT @ An1, v080
	.byte W02
	.byte W96
	.byte W96
	.byte GOTO
		.word track_53_lbl_26815c
	.byte FINE

track_53_5:
	.byte KEYSH, 0
track_53_lbl_268313:
	.byte VOICE, 0
	.byte VOL, 34
	.byte PAN, c_v
	.byte PRIO, 1
	.byte N06, Dn1, v064
	.byte W48
	.byte Dn1, v052 @ N06
	.byte W12
	.byte Dn1, v072 @ N06
	.byte W36
track_53_lbl_268325:
	.byte N06, Dn1, v064
	.byte W48
	.byte Dn1, v052 @ N06
	.byte W12
	.byte Dn1, v072 @ N06
	.byte W12
	.byte N08, Cs2, v080
	.byte W08
	.byte Cs2, v100 @ N08
	.byte W08
	.byte Cs2, v120 @ N08
	.byte W08
	.byte PEND
track_53_lbl_26833a:
	.byte W48
	.byte N06, Dn1, v052
	.byte W12
	.byte Dn1, v072 @ N06
	.byte W12
	.byte N08, Cs2, v080
	.byte W08
	.byte Cs2, v100 @ N08
	.byte W08
	.byte Cs2, v120 @ N08
	.byte W08
	.byte PEND
track_53_lbl_26834d:
	.byte W48
	.byte N06, Dn1, v052
	.byte W12
	.byte Dn1, v072 @ N06
	.byte W12
	.byte N04, Dn1, v040
	.byte W04
	.byte Dn1, v048 @ N04
	.byte W04
	.byte Dn1, v056 @ N04
	.byte W04
	.byte Dn1, v064 @ N04
	.byte W04
	.byte Dn1, v072 @ N04
	.byte W04
	.byte Dn1, v080 @ N04
	.byte W04
	.byte PEND
track_53_lbl_268369:
	.byte N06, Dn1, v080
	.byte W48
	.byte Dn1, v052 @ N06
	.byte W12
	.byte Dn1, v072 @ N06
	.byte W36
	.byte PEND
	.byte PATT
		.word track_53_lbl_268325
	.byte PATT
		.word track_53_lbl_26833a
	.byte PATT
		.word track_53_lbl_26834d
	.byte PATT
		.word track_53_lbl_268369
	.byte PATT
		.word track_53_lbl_268325
track_53_lbl_26838d:
	.byte W48
	.byte N06, Dn1, v052
	.byte W12
	.byte Dn1, v072 @ N06
	.byte W24
	.byte N02, Dn1, v044
	.byte W03
	.byte N02 @ Dn1, v044
	.byte W03
	.byte N02 @ Dn1, v044
	.byte W03
	.byte N02 @ Dn1, v044
	.byte W03
	.byte PEND
track_53_lbl_2683a0:
	.byte N06, Dn1, v064
	.byte W48
	.byte Dn1, v052 @ N06
	.byte W12
	.byte Dn1, v072 @ N06
	.byte W12
	.byte N04, Dn1, v040
	.byte W04
	.byte Dn1, v048 @ N04
	.byte W04
	.byte Dn1, v056 @ N04
	.byte W04
	.byte Dn1, v064 @ N04
	.byte W04
	.byte Dn1, v072 @ N04
	.byte W04
	.byte Dn1, v080 @ N04
	.byte W04
	.byte PEND
track_53_lbl_2683be:
	.byte N06, Dn1, v080
	.byte W48
	.byte Dn1, v052 @ N06
	.byte W12
	.byte Dn1, v072 @ N06
	.byte W24
	.byte Dn1, v052 @ N06
	.byte W12
	.byte PEND
track_53_lbl_2683cc:
	.byte N06, Dn1, v064
	.byte W48
	.byte Dn1, v052 @ N06
	.byte W12
	.byte Dn1, v072 @ N06
	.byte W12
	.byte N08, Cs2, v080
	.byte W08
	.byte Cs2, v100 @ N08
	.byte W08
	.byte N12, Cs2, v120
	.byte W08
	.byte PEND
track_53_lbl_2683e2:
	.byte W48
	.byte N06, Dn1, v072
	.byte W12
	.byte Dn1, v092 @ N06
	.byte W24
	.byte N02, Dn1, v064
	.byte W03
	.byte N02 @ Dn1, v064
	.byte W03
	.byte N02 @ Dn1, v064
	.byte W03
	.byte N02 @ Dn1, v064
	.byte W03
	.byte PEND
track_53_lbl_2683f5:
	.byte N06, Dn1, v084
	.byte W24
	.byte Dn1, v064 @ N06
	.byte W08
	.byte Dn1, v044 @ N06
	.byte W08
	.byte N06 @ Dn1, v044
	.byte W08
	.byte Dn1, v072 @ N06
	.byte W12
	.byte Dn1, v092 @ N06
	.byte W12
	.byte N04, Dn1, v052
	.byte W04
	.byte Dn1, v048 @ N04
	.byte W04
	.byte Dn1, v056 @ N04
	.byte W04
	.byte Dn1, v064 @ N04
	.byte W04
	.byte Dn1, v072 @ N04
	.byte W04
	.byte Dn1, v080 @ N04
	.byte W04
	.byte PEND
	.byte PATT
		.word track_53_lbl_2683be
	.byte PATT
		.word track_53_lbl_268325
	.byte PATT
		.word track_53_lbl_26838d
	.byte PATT
		.word track_53_lbl_2683a0
track_53_lbl_26842f:
	.byte N08, Cs2, v120
	.byte W24
	.byte N06, Dn1, v052
	.byte W24
	.byte N06 @ Dn1, v052
	.byte W12
	.byte N06 @ Dn1, v052
	.byte W24
	.byte Dn1, v040 @ N06
	.byte W12
	.byte PEND
track_53_lbl_26843f:
	.byte N06, Dn1, v040
	.byte W12
	.byte Dn1, v072 @ N06
	.byte W36
	.byte Dn1, v040 @ N06
	.byte W12
	.byte Dn1, v072 @ N06
	.byte W24
	.byte Dn1, v052 @ N06
	.byte W12
	.byte PEND
track_53_lbl_268450:
	.byte N06, Dn1, v040
	.byte W12
	.byte Dn1, v072 @ N06
	.byte W24
	.byte N02, Dn1, v044
	.byte W03
	.byte N02 @ Dn1, v044
	.byte W03
	.byte N02 @ Dn1, v044
	.byte W03
	.byte N02 @ Dn1, v044
	.byte W03
	.byte N06, Dn1, v040
	.byte W12
	.byte Dn1, v072 @ N06
	.byte W24
	.byte N02, Dn1, v044
	.byte W03
	.byte N02 @ Dn1, v044
	.byte W03
	.byte N02 @ Dn1, v044
	.byte W03
	.byte N02 @ Dn1, v044
	.byte W03
	.byte PEND
	.byte W96
	.byte W96
	.byte W96
	.byte W96
	.byte W96
	.byte W96
	.byte W96
	.byte PATT
		.word track_53_lbl_26838d
	.byte PATT
		.word track_53_lbl_2683a0
track_53_lbl_268484:
	.byte N06, Dn1, v080
	.byte W48
	.byte Dn1, v052 @ N06
	.byte W12
	.byte Dn1, v072 @ N06
	.byte W24
	.byte Dn1, v040 @ N06
	.byte W12
	.byte PEND
track_53_lbl_268492:
	.byte N06, Dn1, v064
	.byte W48
	.byte Dn1, v052 @ N06
	.byte W12
	.byte Dn1, v072 @ N06
	.byte W12
	.byte N08, Cs2, v080
	.byte W08
	.byte Cs2, v100 @ N08
	.byte W08
	.byte N12, Cs2, v120
	.byte W08
	.byte PEND
	.byte PATT
		.word track_53_lbl_26838d
	.byte N06, Dn1, v064
	.byte W24
	.byte N08, Cs2, v080
	.byte W08
	.byte Cs2, v084 @ N08
	.byte W08
	.byte Cs2, v096 @ N08
	.byte W08
	.byte Cs2, v092 @ N08
	.byte W08
	.byte Cs2, v108 @ N08
	.byte W08
	.byte Cs2, v124 @ N08
	.byte W08
	.byte Cs2, v088 @ N08
	.byte W08
	.byte N08 @ Cs2, v088
	.byte W08
	.byte N12, Cs2, v080
	.byte W08
track_53_lbl_2684cd:
	.byte W48
	.byte N06, Dn1, v052
	.byte W12
	.byte Dn1, v072 @ N06
	.byte W24
	.byte Dn1, v040 @ N06
	.byte W12
	.byte PEND
	.byte PATT
		.word track_53_lbl_268325
	.byte PATT
		.word track_53_lbl_26838d
	.byte PATT
		.word track_53_lbl_2683a0
	.byte W96
	.byte W96
	.byte VOICE, 0
	.byte VOL, 34
	.byte N06, Dn1, v064
	.byte W48
	.byte Dn1, v052 @ N06
	.byte W12
	.byte Dn1, v072 @ N06
	.byte W36
	.byte PATT
		.word track_53_lbl_268325
	.byte PATT
		.word track_53_lbl_26838d
	.byte PATT
		.word track_53_lbl_2683a0
	.byte PATT
		.word track_53_lbl_2683be
	.byte PATT
		.word track_53_lbl_2683cc
	.byte PATT
		.word track_53_lbl_2683e2
	.byte PATT
		.word track_53_lbl_2683f5
	.byte PATT
		.word track_53_lbl_2683be
	.byte PATT
		.word track_53_lbl_268325
	.byte PATT
		.word track_53_lbl_26838d
	.byte PATT
		.word track_53_lbl_2683a0
	.byte PATT
		.word track_53_lbl_26842f
	.byte PATT
		.word track_53_lbl_26843f
	.byte PATT
		.word track_53_lbl_268450
	.byte W96
	.byte N08, Cs2, v127
	.byte W24
	.byte N08 @ Cs2, v127
	.byte W24
	.byte N16, Dn1, v072
	.byte W16
	.byte Dn1, v048 @ N16
	.byte W16
	.byte N16 @ Dn1, v048
	.byte W16
	.byte N08, Cs2, v127
	.byte W24
	.byte N16 @ Cs2, v127
	.byte W24
	.byte Cs2, v084 @ N16
	.byte W16
	.byte Cs2, v096 @ N16
	.byte W16
	.byte Cs2, v104 @ N16
	.byte W16
	.byte VOICE, 3
	.byte VOL, 34
	.byte N08, Cn4, v092
	.byte W32
	.byte Cn4, v052 @ N08
	.byte W16
	.byte Dn4, v032 @ N08
	.byte W16
	.byte Dn4, v040 @ N08
	.byte W16
	.byte N08 @ Dn4, v040
	.byte W16
	.byte VOICE, 4
	.byte VOL, 60
	.byte N84, An1, v092
	.byte W96
	.byte VOICE, 0
	.byte VOL, 34
	.byte N16, Cs2, v120
	.byte W48
	.byte N06, Dn1, v052
	.byte W12
	.byte Dn1, v072 @ N06
	.byte W24
	.byte Dn1, v040 @ N06
	.byte W12
	.byte Dn1, v064 @ N06
	.byte W48
	.byte Dn1, v052 @ N06
	.byte W12
	.byte Dn1, v072 @ N06
	.byte W12
	.byte N08, Cs2, v080
	.byte W08
	.byte Cs2, v100 @ N08
	.byte W08
	.byte Cs2, v120 @ N08
	.byte W08
	.byte PATT
		.word track_53_lbl_26838d
	.byte PATT
		.word track_53_lbl_2683a0
	.byte PATT
		.word track_53_lbl_268484
	.byte PATT
		.word track_53_lbl_268492
	.byte PATT
		.word track_53_lbl_26838d
	.byte N06, Dn1, v064
	.byte W24
	.byte N08, Cs2, v080
	.byte W08
	.byte Cs2, v084 @ N08
	.byte W08
	.byte Cs2, v096 @ N08
	.byte W08
	.byte Cs2, v092 @ N08
	.byte W08
	.byte Cs2, v108 @ N08
	.byte W08
	.byte Cs2, v124 @ N08
	.byte W08
	.byte Cs2, v088 @ N08
	.byte W08
	.byte N08 @ Cs2, v088
	.byte W08
	.byte N12 @ Cs2, v088
	.byte W08
	.byte PATT
		.word track_53_lbl_2684cd
	.byte PATT
		.word track_53_lbl_268325
	.byte PATT
		.word track_53_lbl_26838d
	.byte PATT
		.word track_53_lbl_2683a0
	.byte W96
	.byte W96
	.byte GOTO
		.word track_53_lbl_268313
	.byte FINE

.align 2

track_53:
	.byte 6
	.byte 53
	.byte 130
	.byte 128
	.word 0x80a5bd8
	.word track_53_0
	.word track_53_1
	.word track_53_2
	.word track_53_3
	.word track_53_4
	.word track_53_5

.align 2
